<?xml version="1.0" encoding="UTF-8"?>
<!DOCTYPE svg PUBLIC "-//W3C//DTD SVG 1.1//EN" "http://www.w3.org/Graphics/SVG/1.1/DTD/svg11.dtd">
<!-- Creator: CorelDRAW X7 -->
<svg xmlns="http://www.w3.org/2000/svg" xml:space="preserve" width="1189px" height="1773px" version="1.1" style="shape-rendering:geometricPrecision; text-rendering:geometricPrecision; image-rendering:optimizeQuality; fill-rule:evenodd; clip-rule:evenodd"
viewBox="0 0 1189 1773"
 xmlns:xlink="http://www.w3.org/1999/xlink">
 <defs>
  <style type="text/css">
   <![CDATA[
    .str0 {stroke:#A6CB8F;stroke-width:2.36221}
    .fil3 {fill:#FEFEFE}
    .fil0 {fill:#A6CB8F}
    .fil2 {fill:#01172C}
    .fil1 {fill:#48583B}
   ]]>
  </style>
 </defs>
 <g id="Camada_x0020_1">
  <metadata id="CorelCorpID_0Corel-Layer"/>
  <g id="_2586667461776">
   <rect class="fil0 str0" transform="matrix(-2.51426E-014 -0.941639 -0.941639 2.51426E-014 1188.94 1772.97)" width="1883" height="1263" rx="5" ry="5"/>
   <path class="fil1" d="M247 364c18,20 30,36 58,43 45,11 144,-17 193,-31 11,-4 25,-7 36,-12 6,-1 14,-4 20,-6l136 -46c53,-17 105,-35 158,-50 27,-8 53,-17 80,-23 67,-16 196,-40 261,-36l0 -5c-47,-4 -123,8 -171,17 -62,11 -98,19 -159,38 -101,31 -201,64 -301,97 -57,19 -181,59 -240,54 -32,-4 -46,-19 -65,-40 -7,-8 -20,-23 -25,-32 -7,-10 -17,-20 -26,-29 -55,-55 -120,-79 -183,-104l-18 -6 -1 4 36 15c44,17 93,36 133,68 16,12 29,24 42,39 9,10 31,41 36,45z"/>
   <g>
    <path class="fil2" d="M162 1159c0,-12 -9,-21 -21,-21 -11,0 -21,9 -21,21 0,11 10,21 21,21 12,0 21,-10 21,-21zm-21 10c-5,0 -10,-4 -10,-10 0,-6 5,-11 10,-11 6,0 11,5 11,11 0,6 -5,10 -11,10z"/>
    <path class="fil2" d="M110 1227l63 0c3,0 5,-3 5,-5l0 -6c0,-20 -16,-36 -37,-36 -20,0 -36,16 -36,36l0 6c0,2 2,5 5,5zm31 -37c15,0 27,12 27,26l-53 0c0,-14 12,-26 26,-26z"/>
    <path class="fil2" d="M341 1190c0,-3 -2,-5 -5,-5l-100 0c-3,0 -6,2 -6,5 0,3 3,5 6,5l100 0c3,0 5,-2 5,-5z"/>
    <path class="fil2" d="M336 1154l-100 0c-21,0 -37,16 -37,36 0,20 16,37 37,37l26 0c3,0 5,-3 5,-5 0,-3 -2,-6 -5,-6l-26 0c-15,0 -27,-11 -27,-26 0,-14 12,-26 27,-26l100 0c14,0 26,12 26,26 0,15 -12,26 -26,26l-27 0c-3,0 -5,3 -5,6 0,2 2,5 5,5l27 0c20,0 37,-17 37,-37 0,-20 -17,-36 -37,-36z"/>
    <path class="fil2" d="M291 1222c0,2 -2,5 -5,5 -3,0 -6,-3 -6,-5 0,-3 3,-6 6,-6 3,0 5,3 5,6z"/>
   </g>
   <path class="fil1" d="M107 551l41 -106 15 0 43 106 -16 0 -12 -33 -45 0 -11 33 -15 0zm30 -44l37 0 -11 -29c-4,-9 -6,-17 -8,-22 -2,6 -3,13 -6,20l-12 31zm79 44l0 -77 11 0 0 11c6,-9 14,-13 25,-13 4,0 9,1 13,3 3,1 6,3 8,6 2,3 4,6 4,10 1,2 1,6 1,12l0 48 -13 0 0 -47c0,-5 0,-9 -2,-12 -1,-3 -2,-5 -5,-6 -2,-2 -5,-3 -9,-3 -5,0 -10,2 -14,6 -4,3 -6,10 -6,20l0 42 -13 0zm132 -10c-5,4 -9,7 -14,9 -4,1 -9,2 -14,2 -9,0 -15,-2 -20,-6 -4,-4 -6,-9 -6,-16 0,-3 0,-7 2,-10 2,-3 4,-6 7,-7 3,-2 6,-4 9,-5 3,0 7,-1 12,-2 10,-1 18,-2 23,-4 0,-2 0,-3 0,-4 0,-5 -1,-9 -4,-11 -3,-3 -8,-4 -14,-4 -7,0 -11,1 -14,3 -3,2 -5,6 -6,12l-13 -2c1,-6 3,-10 6,-13 2,-4 6,-6 11,-8 5,-2 11,-3 18,-3 6,0 11,1 16,2 4,2 7,4 9,6 2,3 3,6 4,9 0,2 0,6 0,12l0 17c0,12 1,20 1,23 1,4 2,7 3,10l-13 0c-2,-3 -2,-6 -3,-10zm-1 -29c-5,2 -12,4 -21,5 -6,1 -9,2 -12,3 -2,1 -3,2 -5,4 -1,2 -1,4 -1,6 0,3 1,6 3,9 3,2 7,3 12,3 5,0 9,-1 13,-3 4,-2 7,-5 9,-9 1,-3 2,-7 2,-13l0 -5zm33 -53l0 -14 13 0 0 14 -13 0zm0 92l0 -77 13 0 0 77 -13 0zm28 -23l13 -2c1,5 3,9 6,11 3,3 8,5 14,5 6,0 10,-2 13,-4 3,-3 5,-5 5,-9 0,-3 -2,-5 -4,-7 -2,-1 -7,-2 -14,-4 -9,-2 -16,-4 -19,-6 -4,-2 -7,-4 -9,-8 -2,-3 -3,-6 -3,-10 0,-3 1,-6 3,-9 1,-3 3,-6 6,-8 2,-1 5,-2 8,-3 4,-1 8,-2 12,-2 6,0 11,1 15,3 5,1 8,4 10,7 3,3 4,7 5,12l-13 1c0,-4 -2,-7 -5,-9 -3,-2 -6,-3 -12,-3 -5,0 -10,1 -12,3 -3,2 -4,4 -4,7 0,1 0,3 1,4 2,2 3,3 5,4 2,0 6,1 12,3 9,2 16,4 19,6 4,2 7,4 9,7 2,3 3,7 3,11 0,4 -1,8 -4,12 -2,4 -6,7 -11,9 -5,2 -10,3 -16,3 -10,0 -18,-2 -23,-6 -5,-4 -8,-10 -10,-18z"/>
   <path class="fil1" d="M103 1544l0 -55 11 0 13 39c1,4 2,7 3,8 1,-2 2,-5 3,-9l13 -38 10 0 0 55 -7 0 0 -46 -16 46 -7 0 -16 -47 0 47 -7 0zm91 -5c-3,2 -5,4 -8,5 -2,1 -5,1 -7,1 -5,0 -8,-1 -11,-3 -2,-2 -3,-5 -3,-8 0,-2 0,-4 1,-6 1,-1 2,-3 4,-4 1,-1 3,-1 5,-2 1,0 3,-1 6,-1 5,-1 9,-1 12,-2 0,-1 0,-2 0,-2 0,-3 -1,-5 -2,-6 -2,-1 -4,-2 -8,-2 -3,0 -5,0 -7,1 -1,2 -3,4 -3,6l-7 0c1,-3 2,-6 3,-7 1,-2 3,-4 6,-4 3,-1 6,-2 9,-2 4,0 7,1 9,1 2,1 3,2 4,3 1,2 2,3 3,5 0,1 0,3 0,6l0 9c0,7 0,11 0,12 1,2 1,4 2,5l-7 0c-1,-1 -1,-3 -1,-5zm-1 -15c-2,1 -6,2 -11,3 -3,0 -5,1 -6,1 -1,1 -2,1 -3,2 -1,1 -1,2 -1,4 0,1 1,3 2,4 2,1 4,2 6,2 3,0 5,-1 7,-2 2,-1 4,-3 5,-5 1,-1 1,-3 1,-6l0 -3zm17 20l0 -40 7 0 0 6c1,-3 3,-5 4,-6 1,0 3,-1 4,-1 3,0 5,1 7,2l-2 7c-2,-1 -3,-2 -5,-2 -2,0 -3,1 -4,2 -1,0 -2,2 -3,3 0,3 -1,5 -1,8l0 21 -7 0zm53 -14l6 1c0,4 -2,8 -5,10 -3,3 -7,4 -11,4 -6,0 -10,-2 -14,-5 -3,-4 -5,-9 -5,-16 0,-4 1,-8 3,-11 1,-3 3,-6 6,-7 3,-2 6,-3 10,-3 4,0 8,1 11,3 2,3 4,6 5,10l-7 1c0,-3 -1,-5 -3,-6 -2,-2 -4,-2 -6,-2 -3,0 -6,1 -8,3 -3,3 -4,7 -4,12 0,6 1,9 3,12 3,2 5,4 9,4 2,0 5,-1 6,-3 2,-1 3,-4 4,-7zm40 1l7 1c-1,4 -3,8 -6,10 -3,2 -7,3 -12,3 -6,0 -10,-2 -14,-5 -3,-4 -5,-9 -5,-15 0,-7 2,-13 5,-16 4,-4 8,-6 14,-6 5,0 10,2 13,6 4,3 5,8 5,15 0,1 0,1 0,2l-30 0c0,4 2,8 4,10 2,2 5,4 8,4 3,0 5,-1 7,-2 1,-2 3,-4 4,-7zm-23 -11l23 0c0,-3 -1,-6 -3,-7 -2,-3 -5,-4 -8,-4 -3,0 -6,1 -8,3 -2,2 -3,5 -4,8zm38 24l0 -55 7 0 0 55 -7 0zm44 -5c-2,2 -5,4 -7,5 -2,1 -5,1 -8,1 -4,0 -7,-1 -10,-3 -2,-2 -3,-5 -3,-8 0,-2 0,-4 1,-6 1,-1 2,-3 4,-4 1,-1 3,-1 4,-2 2,0 4,-1 7,-1 5,-1 9,-1 12,-2 0,-1 0,-2 0,-2 0,-3 -1,-5 -2,-6 -2,-1 -4,-2 -8,-2 -3,0 -6,0 -7,1 -2,2 -3,4 -4,6l-6 0c0,-3 1,-6 3,-7 1,-2 3,-4 6,-4 3,-1 6,-2 9,-2 4,0 6,1 9,1 2,1 3,2 4,3 1,2 2,3 2,5 1,1 1,3 1,6l0 9c0,7 0,11 0,12 0,2 1,4 2,5l-7 0c-1,-1 -1,-3 -2,-5zm0 -15c-3,1 -6,2 -11,3 -3,0 -5,1 -6,1 -2,1 -2,1 -3,2 -1,1 -1,2 -1,4 0,1 1,3 2,4 1,1 3,2 6,2 3,0 5,-1 7,-2 2,-1 4,-3 5,-5 0,-1 1,-3 1,-6l0 -3zm40 20l0 -55 25 0c5,0 8,0 11,1 3,1 5,3 6,5 2,3 2,6 2,9 0,4 -1,7 -3,10 -3,3 -7,4 -12,5 2,1 3,2 4,3 2,2 4,4 6,7l10 15 -9 0 -8 -11c-2,-4 -4,-6 -5,-8 -1,-2 -3,-3 -4,-4 -1,0 -2,-1 -3,-1 -1,0 -2,0 -4,0l-9 0 0 24 -7 0zm7 -31l16 0c4,0 6,0 8,-1 2,-1 3,-2 4,-3 1,-2 2,-3 2,-5 0,-3 -1,-5 -3,-7 -2,-1 -5,-2 -9,-2l-18 0 0 18zm76 18l7 1c-1,4 -3,8 -6,10 -3,2 -7,3 -12,3 -6,0 -10,-2 -14,-5 -3,-4 -5,-9 -5,-15 0,-7 2,-13 5,-16 4,-4 8,-6 14,-6 5,0 10,2 13,6 3,3 5,8 5,15 0,1 0,1 0,2l-30 0c0,4 1,8 4,10 2,2 5,4 8,4 3,0 5,-1 7,-2 1,-2 3,-4 4,-7zm-23 -11l23 0c0,-3 -1,-6 -3,-7 -2,-3 -5,-4 -8,-4 -3,0 -6,1 -8,3 -2,2 -3,5 -4,8zm45 24l-7 0 0 -55 7 0 0 20c3,-4 7,-6 11,-6 3,0 5,1 7,2 3,1 4,2 6,4 1,2 2,4 3,6 1,3 1,6 1,9 0,6 -1,12 -5,16 -3,3 -7,5 -12,5 -5,0 -8,-2 -11,-6l0 5zm0 -20c0,5 0,8 2,10 2,4 5,6 8,6 3,0 6,-2 8,-4 2,-3 3,-7 3,-12 0,-5 -1,-9 -3,-12 -2,-2 -4,-3 -7,-3 -3,0 -6,1 -8,4 -2,2 -3,6 -3,11zm34 0c0,-7 2,-13 6,-16 4,-3 8,-5 13,-5 6,0 10,2 14,6 3,3 5,8 5,15 0,5 -1,9 -2,12 -2,3 -4,5 -7,7 -3,1 -6,2 -10,2 -5,0 -10,-2 -14,-5 -3,-4 -5,-9 -5,-16zm7 0c0,5 1,9 4,12 2,2 5,4 8,4 4,0 6,-2 9,-4 2,-3 3,-7 3,-12 0,-5 -1,-9 -3,-11 -3,-3 -5,-4 -9,-4 -3,0 -6,1 -8,4 -3,2 -4,6 -4,11zm66 20l0 -6c-4,5 -8,7 -13,7 -3,0 -5,0 -7,-1 -2,-1 -4,-2 -5,-4 -1,-1 -1,-3 -2,-5 0,-1 0,-3 0,-6l0 -25 7 0 0 22c0,4 0,6 0,8 1,1 2,3 3,4 1,1 3,1 5,1 2,0 4,0 6,-1 2,-1 3,-3 4,-5 0,-1 1,-4 1,-7l0 -22 7 0 0 40 -6 0zm43 -14l7 1c-1,4 -3,8 -6,10 -3,3 -7,4 -11,4 -6,0 -10,-2 -14,-5 -3,-4 -5,-9 -5,-16 0,-4 1,-8 3,-11 1,-3 3,-6 6,-7 3,-2 6,-3 10,-3 4,0 8,1 11,3 2,3 4,6 5,10l-7 1c0,-3 -1,-5 -3,-6 -2,-2 -4,-2 -6,-2 -3,0 -6,1 -8,3 -3,3 -4,7 -4,12 0,6 1,9 4,12 2,2 4,4 8,4 2,0 5,-1 6,-3 2,-1 3,-4 4,-7zm-16 21l2 -7 5 0 -1 4c2,1 3,1 5,2 1,1 1,3 1,4 0,2 -1,4 -3,5 -1,1 -4,2 -8,2 -2,0 -4,0 -5,0l0 -5c2,0 3,0 4,0 2,0 4,0 5,-1 0,0 1,-1 1,-1 0,-1 0,-1 -1,-2 0,0 0,0 -1,-1 -1,0 -2,0 -4,0zm55 -12c-3,2 -5,4 -8,5 -2,1 -4,1 -7,1 -5,0 -8,-1 -10,-3 -3,-2 -4,-5 -4,-8 0,-2 0,-4 1,-6 1,-1 2,-3 4,-4 1,-1 3,-1 5,-2 1,0 3,-1 6,-1 5,-1 10,-1 12,-2 0,-1 0,-2 0,-2 0,-3 0,-5 -2,-6 -1,-1 -4,-2 -8,-2 -3,0 -5,0 -7,1 -1,2 -2,4 -3,6l-7 0c1,-3 2,-6 3,-7 2,-2 4,-4 6,-4 3,-1 6,-2 9,-2 4,0 7,1 9,1 2,1 4,2 5,3 1,2 1,3 2,5 0,1 0,3 0,6l0 9c0,7 0,11 1,12 0,2 0,4 1,5l-7 0c-1,-1 -1,-3 -1,-5zm-1 -15c-2,1 -6,2 -11,3 -3,0 -5,1 -6,1 -1,1 -2,1 -3,2 0,1 -1,2 -1,4 0,1 1,3 2,4 2,1 4,2 7,2 2,0 4,-1 7,-2 2,-1 3,-3 4,-5 1,-1 1,-3 1,-6l0 -3zm15 8l7 -1c0,3 1,5 3,6 2,2 4,3 7,3 3,0 6,-1 7,-2 2,-2 3,-3 3,-5 0,-1 -1,-3 -3,-3 0,-1 -3,-2 -7,-3 -5,-1 -8,-2 -10,-3 -2,-1 -3,-2 -4,-4 -1,-2 -2,-3 -2,-5 0,-2 1,-4 1,-5 1,-2 2,-3 4,-4 1,-1 2,-2 4,-2 2,-1 4,-1 6,-1 3,0 6,1 8,1 3,1 4,3 6,4 1,2 2,4 2,6l-7 1c0,-2 -1,-3 -2,-5 -2,-1 -4,-1 -7,-1 -3,0 -5,0 -6,1 -2,1 -2,3 -2,4 0,1 0,2 1,2 0,1 1,2 2,2 1,0 3,1 6,2 5,1 8,2 10,3 2,1 4,2 5,4 1,1 2,3 2,5 0,3 -1,5 -2,7 -2,2 -4,3 -6,5 -3,1 -6,1 -9,1 -5,0 -9,-1 -12,-3 -3,-2 -4,-5 -5,-10zm64 12l0 -55 21 0c4,0 7,0 10,1 3,1 5,3 6,6 1,2 2,4 2,7 0,2 0,4 -2,7 -1,2 -3,3 -6,5 4,1 6,2 8,5 2,2 3,5 3,8 0,3 -1,5 -2,7 -1,3 -2,4 -4,6 -1,1 -3,2 -6,2 -2,1 -5,1 -9,1l-21 0zm7 -32l12 0c4,0 6,0 7,-1 2,0 4,-1 5,-2 1,-2 1,-3 1,-5 0,-2 0,-4 -1,-5 -1,-2 -3,-3 -4,-3 -2,-1 -5,-1 -9,-1l-11 0 0 17zm0 26l14 0c2,0 4,0 5,0 2,-1 3,-1 4,-2 2,-1 2,-2 3,-3 1,-1 1,-3 1,-5 0,-2 0,-4 -1,-5 -1,-2 -3,-3 -5,-3 -2,-1 -4,-1 -8,-1l-13 0 0 19zm42 -14c0,-7 2,-13 6,-16 3,-3 8,-5 13,-5 5,0 10,2 13,6 4,3 6,8 6,15 0,5 -1,9 -3,12 -1,3 -4,5 -7,7 -3,1 -6,2 -9,2 -6,0 -11,-2 -14,-5 -4,-4 -5,-9 -5,-16zm7 0c0,5 1,9 3,12 2,2 5,4 9,4 3,0 6,-2 8,-4 2,-3 3,-7 3,-12 0,-5 -1,-9 -3,-11 -2,-3 -5,-4 -8,-4 -4,0 -7,1 -9,4 -2,2 -3,6 -3,11zm39 20l0 -40 6 0 0 6c1,-2 3,-4 5,-5 2,-1 4,-2 7,-2 3,0 5,1 7,2 2,1 4,3 4,5 4,-5 8,-7 13,-7 4,0 7,1 9,3 2,3 3,6 3,11l0 27 -6 0 0 -25c0,-3 -1,-5 -1,-6 -1,-1 -1,-2 -3,-3 -1,-1 -2,-1 -4,-1 -3,0 -5,1 -7,3 -2,2 -3,5 -3,9l0 23 -6 0 0 -26c0,-3 -1,-5 -2,-7 -1,-1 -3,-2 -6,-2 -2,0 -3,1 -5,2 -2,1 -3,2 -4,4 0,2 -1,5 -1,8l0 21 -6 0zm66 0l0 -35 -6 0 0 -5 6 0 0 -4c0,-4 1,-7 3,-9 2,-2 4,-3 8,-3 3,0 5,0 7,1l-1 5c-1,0 -3,0 -4,0 -2,0 -4,0 -5,1 -1,1 -1,3 -1,6l0 3 8 0 0 5 -8 0 0 35 -7 0zm20 -48l0 -7 7 0 0 7 -7 0zm0 48l0 -40 7 0 0 40 -7 0zm17 0l0 -40 7 0 0 6c1,-2 2,-4 5,-5 2,-1 4,-2 7,-2 3,0 5,1 7,2 2,1 3,3 4,5 3,-5 8,-7 13,-7 4,0 7,1 9,3 2,3 3,6 3,11l0 27 -7 0 0 -25c0,-3 0,-5 0,-6 -1,-1 -2,-2 -3,-3 -1,-1 -2,-1 -4,-1 -3,0 -5,1 -7,3 -2,2 -3,5 -3,9l0 23 -7 0 0 -26c0,-3 0,-5 -1,-7 -1,-1 -3,-2 -6,-2 -2,0 -4,1 -5,2 -2,1 -3,2 -4,4 0,2 -1,5 -1,8l0 21 -7 0z"/>
   <path class="fil1" d="M131 1637l0 -7 24 0 0 21c-4,3 -8,5 -12,7 -3,1 -7,2 -12,2 -5,0 -10,-1 -14,-4 -5,-2 -8,-6 -11,-10 -2,-4 -3,-9 -3,-15 0,-5 1,-10 3,-15 3,-5 6,-8 10,-10 4,-3 9,-4 15,-4 4,0 8,1 11,2 3,1 6,3 8,6 1,2 3,5 4,9l-7 1c-1,-2 -2,-5 -3,-6 -1,-2 -3,-3 -5,-4 -3,-1 -5,-2 -8,-2 -3,0 -6,1 -9,2 -2,1 -4,2 -6,4 -1,2 -2,4 -3,6 -2,3 -2,7 -2,11 0,5 1,9 2,12 2,4 4,6 8,8 3,1 6,2 10,2 3,0 6,0 9,-2 3,-1 6,-2 7,-4l0 -10 -16 0zm60 22l0 -6c-3,4 -7,7 -13,7 -2,0 -4,-1 -6,-2 -2,-1 -4,-2 -5,-3 -1,-2 -2,-3 -2,-5 0,-2 -1,-4 -1,-7l0 -25 7 0 0 23c0,3 0,6 1,7 0,2 1,3 2,4 2,1 4,2 6,2 2,0 4,-1 5,-2 2,-1 3,-2 4,-4 1,-2 1,-5 1,-8l0 -22 7 0 0 41 -6 0zm14 -12l7 -1c0,2 1,4 3,6 2,1 4,2 7,2 4,0 6,-1 7,-2 2,-1 3,-3 3,-4 0,-2 -1,-3 -2,-4 -1,-1 -4,-1 -7,-2 -5,-2 -9,-3 -11,-4 -2,-1 -3,-2 -4,-3 -1,-2 -2,-4 -2,-6 0,-2 1,-3 2,-5 0,-1 2,-3 3,-4 1,0 2,-1 4,-2 2,0 4,0 6,0 3,0 6,0 9,1 2,1 4,2 5,4 1,1 2,3 2,6l-6 1c-1,-2 -2,-4 -3,-5 -2,-1 -4,-2 -6,-2 -3,0 -6,1 -7,2 -1,1 -2,2 -2,3 0,1 0,2 1,3 0,0 1,1 2,2 1,0 3,0 6,1 5,2 9,3 11,3 2,1 3,3 4,4 1,2 2,4 2,6 0,2 -1,4 -2,6 -2,2 -3,4 -6,5 -3,1 -5,2 -9,2 -5,0 -9,-1 -12,-4 -2,-2 -4,-5 -5,-9zm57 6l1 6c-2,0 -4,0 -5,0 -3,0 -5,0 -6,-1 -2,-1 -3,-2 -3,-3 -1,-1 -1,-4 -1,-8l0 -23 -5 0 0 -6 5 0 0 -10 7 -4 0 14 7 0 0 6 -7 0 0 23c0,2 0,4 0,4 0,1 1,1 1,1 1,1 2,1 3,1 1,0 2,0 3,0zm33 1c-3,2 -5,3 -7,4 -3,1 -5,2 -8,2 -4,0 -8,-1 -10,-4 -3,-2 -4,-5 -4,-8 0,-2 1,-4 2,-5 0,-2 2,-3 3,-4 2,-1 3,-2 5,-2 1,-1 3,-1 6,-1 6,-1 10,-2 12,-3 0,-1 0,-1 0,-2 0,-2 0,-4 -2,-5 -1,-2 -4,-3 -7,-3 -4,0 -6,1 -8,2 -1,1 -2,3 -3,6l-7 -1c1,-3 2,-5 3,-7 2,-2 4,-3 6,-4 3,-1 6,-1 10,-1 3,0 6,0 8,1 2,1 4,2 5,3 1,1 2,3 2,4 0,2 0,4 0,7l0 9c0,6 0,10 1,12 0,2 1,3 1,5l-7 0c0,-2 -1,-3 -1,-5zm-1 -15c-2,1 -6,1 -11,2 -3,1 -5,1 -6,1 -1,1 -2,2 -3,3 0,1 -1,2 -1,3 0,2 1,3 3,4 1,2 3,2 6,2 2,0 5,0 7,-1 2,-2 3,-3 4,-5 1,-2 1,-4 1,-7l0 -2zm29 20l-15 -41 7 0 9 25c1,2 1,5 2,8 1,-2 2,-5 3,-8l9 -25 7 0 -16 41 -6 0zm25 -20c0,-8 2,-13 6,-17 4,-3 8,-4 13,-4 6,0 10,1 14,5 3,4 5,9 5,15 0,5 -1,9 -2,12 -2,3 -4,6 -7,7 -3,2 -6,3 -10,3 -6,0 -10,-2 -14,-6 -3,-3 -5,-9 -5,-15zm7 0c0,5 1,9 4,11 2,3 5,4 8,4 4,0 6,-1 9,-4 2,-2 3,-6 3,-12 0,-5 -1,-8 -3,-11 -3,-3 -5,-4 -9,-4 -3,0 -6,1 -8,4 -3,3 -4,6 -4,12zm61 20l0 -56 8 0 0 49 27 0 0 7 -35 0zm69 0l0 -6c-3,4 -7,7 -12,7 -3,0 -5,-1 -7,-2 -2,-1 -4,-2 -5,-3 -1,-2 -1,-3 -2,-5 0,-2 0,-4 0,-7l0 -25 7 0 0 23c0,3 0,6 0,7 1,2 1,3 3,4 1,1 3,2 5,2 2,0 4,-1 6,-2 2,-1 3,-2 4,-4 0,-2 1,-5 1,-8l0 -22 7 0 0 41 -7 0zm17 -48l0 -8 7 0 0 8 -7 0zm0 48l0 -41 7 0 0 41 -7 0zm15 -12l7 -1c0,2 1,4 3,6 2,1 4,2 7,2 3,0 6,-1 7,-2 2,-1 2,-3 2,-4 0,-2 0,-3 -2,-4 -1,-1 -3,-1 -7,-2 -5,-2 -8,-3 -10,-4 -2,-1 -3,-2 -4,-3 -1,-2 -2,-4 -2,-6 0,-2 1,-3 1,-5 1,-1 2,-3 4,-4 1,0 2,-1 4,-2 2,0 4,0 6,0 3,0 6,0 8,1 3,1 4,2 6,4 1,1 2,3 2,6l-7 1c0,-2 -1,-4 -2,-5 -2,-1 -4,-2 -7,-2 -3,0 -5,1 -6,2 -2,1 -2,2 -2,3 0,1 0,2 1,3 0,0 1,1 2,2 1,0 3,0 6,1 5,2 8,3 10,3 2,1 4,3 5,4 1,2 1,4 1,6 0,2 0,4 -2,6 -1,2 -3,4 -5,5 -3,1 -6,2 -9,2 -5,0 -9,-1 -12,-4 -3,-2 -4,-5 -5,-9zm62 -6l7 -1c0,3 1,5 2,7 1,2 3,3 6,5 2,1 5,1 8,1 3,0 5,0 8,-1 2,-1 3,-2 4,-4 1,-1 2,-3 2,-4 0,-2 -1,-4 -2,-5 -1,-1 -2,-2 -5,-3 -1,-1 -4,-2 -10,-3 -5,-1 -8,-2 -10,-3 -3,-2 -5,-3 -6,-6 -2,-2 -2,-4 -2,-7 0,-2 1,-5 2,-7 2,-3 4,-5 7,-6 3,-1 7,-2 10,-2 5,0 8,1 11,2 3,1 6,3 8,6 1,3 2,5 2,9l-7 0c0,-3 -1,-6 -4,-8 -2,-1 -5,-2 -9,-2 -5,0 -8,0 -10,2 -2,2 -3,4 -3,6 0,2 1,4 2,5 1,1 5,3 11,4 6,1 10,2 13,3 3,2 5,4 7,6 1,2 2,5 2,8 0,3 -1,6 -3,8 -1,3 -4,5 -7,7 -3,1 -7,2 -11,2 -5,0 -9,-1 -12,-2 -4,-2 -6,-4 -8,-7 -2,-3 -3,-6 -3,-10zm80 3l6 1c0,5 -2,8 -5,11 -3,2 -7,4 -11,4 -6,0 -10,-2 -14,-6 -3,-3 -5,-9 -5,-15 0,-5 1,-8 2,-12 2,-3 4,-5 7,-7 3,-2 6,-2 10,-2 4,0 8,1 10,3 3,2 5,5 6,9l-7 1c-1,-2 -2,-4 -3,-6 -2,-1 -4,-2 -6,-2 -4,0 -6,1 -9,4 -2,2 -3,6 -3,12 0,5 1,9 3,11 2,3 5,4 8,4 3,0 5,-1 7,-2 2,-2 3,-5 4,-8zm12 15l0 -56 7 0 0 20c3,-4 7,-5 12,-5 3,0 6,0 8,1 2,1 4,3 5,5 0,2 1,5 1,9l0 26 -7 0 0 -26c0,-3 -1,-6 -2,-7 -2,-2 -4,-3 -6,-3 -2,0 -4,1 -6,2 -2,1 -3,2 -4,4 -1,2 -1,5 -1,8l0 22 -7 0zm70 -5c-3,2 -5,3 -7,4 -3,1 -5,2 -8,2 -5,0 -8,-1 -10,-4 -3,-2 -4,-5 -4,-8 0,-2 1,-4 1,-5 1,-2 3,-3 4,-4 1,-1 3,-2 5,-2 1,-1 3,-1 6,-1 6,-1 10,-2 12,-3 0,-1 0,-1 0,-2 0,-2 0,-4 -2,-5 -1,-2 -4,-3 -7,-3 -4,0 -6,1 -8,2 -1,1 -2,3 -3,6l-7 -1c1,-3 2,-5 3,-7 2,-2 4,-3 6,-4 3,-1 6,-1 10,-1 3,0 6,0 8,1 2,1 4,2 5,3 1,1 1,3 2,4 0,2 0,4 0,7l0 9c0,6 0,10 1,12 0,2 1,3 1,5l-7 0c-1,-2 -1,-3 -1,-5zm-1 -15c-2,1 -6,1 -11,2 -3,1 -5,1 -6,1 -1,1 -2,2 -3,3 0,1 -1,2 -1,3 0,2 1,3 3,4 1,2 3,2 6,2 2,0 5,0 7,-1 2,-2 3,-3 4,-5 1,-2 1,-4 1,-7l0 -2zm44 5l7 1c-1,5 -3,8 -6,11 -3,2 -7,4 -11,4 -5,0 -10,-2 -13,-6 -4,-3 -5,-9 -5,-15 0,-5 0,-8 2,-12 1,-3 4,-5 6,-7 3,-2 7,-2 10,-2 5,0 8,1 11,3 3,2 4,5 5,9l-6 1c-1,-2 -2,-4 -4,-6 -1,-1 -3,-2 -6,-2 -3,0 -6,1 -8,4 -2,2 -3,6 -3,12 0,5 1,9 3,11 2,3 5,4 8,4 3,0 5,-1 7,-2 2,-2 3,-5 3,-8zm13 15l0 -56 7 0 0 20c3,-4 7,-5 12,-5 3,0 5,0 7,1 3,1 4,3 5,5 1,2 1,5 1,9l0 26 -6 0 0 -26c0,-3 -1,-6 -3,-7 -1,-2 -3,-3 -6,-3 -2,0 -4,1 -6,2 -1,1 -3,2 -3,4 -1,2 -1,5 -1,8l0 22 -7 0zm58 -6l1 6c-2,0 -4,0 -5,0 -3,0 -5,0 -6,-1 -1,-1 -2,-2 -3,-3 -1,-1 -1,-4 -1,-8l0 -23 -5 0 0 -6 5 0 0 -10 7 -4 0 14 7 0 0 6 -7 0 0 23c0,2 0,4 0,4 1,1 1,1 2,1 0,1 1,1 2,1 1,0 2,0 3,0z"/>
   <path class="fil1" d="M100 1316l7 -1c0,4 1,7 2,9 1,1 3,2 6,2 2,0 3,0 5,-1 1,-1 2,-2 2,-3 1,-2 1,-4 1,-7l0 -39 8 0 0 38c0,5 -1,8 -2,11 -1,2 -3,4 -5,6 -3,1 -6,2 -9,2 -5,0 -9,-2 -11,-4 -3,-3 -4,-7 -4,-13zm39 -4c0,-8 2,-13 6,-17 4,-3 8,-4 13,-4 6,0 10,1 14,5 3,4 5,9 5,15 0,5 -1,9 -2,12 -2,3 -4,6 -7,7 -3,2 -6,3 -10,3 -5,0 -10,-2 -14,-6 -3,-3 -5,-9 -5,-15zm7 0c0,5 1,9 4,11 2,3 5,4 8,4 4,0 6,-1 9,-4 2,-2 3,-6 3,-12 0,-5 -1,-8 -3,-11 -3,-2 -5,-4 -9,-4 -3,0 -6,2 -8,4 -3,3 -4,7 -4,12zm39 20l0 -41 6 0 0 7c2,-3 3,-5 5,-6 1,-1 2,-1 4,-1 2,0 5,0 7,2l-2 6c-2,-1 -4,-1 -5,-1 -2,0 -3,0 -4,1 -2,1 -2,2 -3,4 -1,2 -1,5 -1,8l0 21 -7 0zm25 3l6 1c1,2 1,4 3,5 1,1 4,2 7,2 3,0 5,-1 7,-2 2,-2 3,-3 4,-6 0,-1 0,-4 0,-8 -3,3 -7,5 -11,5 -6,0 -10,-2 -13,-6 -3,-4 -5,-9 -5,-15 0,-3 1,-7 2,-10 2,-3 4,-6 7,-8 2,-2 5,-2 9,-2 5,0 9,2 12,5l0 -5 6 0 0 35c0,7 -1,11 -2,14 -1,2 -3,4 -6,6 -3,1 -6,2 -10,2 -5,0 -9,-1 -12,-3 -3,-2 -4,-5 -4,-10zm5 -24c0,5 1,9 4,12 2,2 4,3 7,3 4,0 6,-1 8,-3 3,-3 4,-7 4,-12 0,-5 -2,-8 -4,-11 -2,-2 -5,-4 -8,-4 -3,0 -5,1 -7,4 -3,2 -4,6 -4,11zm67 8l7 1c-1,4 -3,7 -6,9 -3,3 -7,4 -12,4 -6,0 -10,-2 -14,-6 -3,-3 -5,-8 -5,-15 0,-7 2,-12 5,-16 4,-4 8,-5 14,-5 5,0 10,1 13,5 4,4 5,9 5,16 0,0 0,1 0,1l-30 0c0,5 2,8 4,11 2,2 5,3 8,3 3,0 5,-1 7,-2 1,-1 3,-3 4,-6zm-23 -11l23 0c0,-4 -1,-6 -3,-8 -2,-2 -5,-4 -8,-4 -3,0 -6,1 -8,3 -2,2 -3,5 -4,9zm51 24l21 -56 8 0 23 56 -8 0 -7 -17 -23 0 -6 17 -8 0zm16 -23l19 0 -6 -16c-2,-4 -3,-8 -4,-11 -1,3 -2,7 -3,11l-6 16zm41 23l0 -41 6 0 0 6c3,-4 7,-6 13,-6 2,0 5,0 7,1 2,1 3,2 4,3 1,2 2,3 2,5 1,2 1,4 1,7l0 25 -7 0 0 -25c0,-2 0,-5 -1,-6 0,-1 -1,-2 -3,-3 -1,-1 -3,-2 -4,-2 -3,0 -6,1 -8,3 -2,2 -3,6 -3,11l0 22 -7 0zm58 -6l1 6c-2,0 -4,0 -5,0 -3,0 -4,0 -6,-1 -1,-1 -2,-2 -3,-3 0,-1 -1,-4 -1,-8l0 -23 -5 0 0 -6 5 0 0 -10 7 -4 0 14 7 0 0 6 -7 0 0 23c0,2 0,4 1,4 0,1 0,1 1,2 0,0 1,0 2,0 1,0 2,0 3,0zm4 -14c0,-8 2,-13 7,-17 3,-3 7,-4 12,-4 6,0 10,1 14,5 3,4 5,9 5,15 0,5 -1,9 -2,12 -2,3 -4,6 -7,7 -3,2 -6,3 -10,3 -5,0 -10,-2 -13,-6 -4,-3 -6,-9 -6,-15zm7 0c0,5 1,9 4,11 2,3 5,4 8,4 4,0 7,-1 9,-4 2,-2 3,-6 3,-12 0,-5 -1,-8 -3,-11 -2,-2 -5,-4 -9,-4 -3,0 -6,2 -8,4 -3,3 -4,7 -4,12zm12 -32l-4 6 -8 0 8 -10 8 0 8 10 -7 0 -5 -6zm27 52l0 -41 6 0 0 6c3,-4 8,-6 13,-6 3,0 5,0 7,1 2,1 4,2 5,3 1,2 1,3 2,5 0,2 0,4 0,7l0 25 -7 0 0 -25c0,-2 0,-5 -1,-6 0,-1 -1,-2 -2,-3 -2,-1 -3,-2 -5,-2 -3,0 -6,1 -8,3 -2,2 -3,6 -3,11l0 22 -7 0zm44 -48l0 -8 6 0 0 8 -6 0zm0 48l0 -41 6 0 0 41 -6 0zm14 -20c0,-8 2,-13 7,-17 3,-3 7,-4 12,-4 6,0 10,1 14,5 3,4 5,9 5,15 0,5 -1,9 -2,12 -2,3 -4,6 -7,7 -3,2 -6,3 -10,3 -5,0 -10,-2 -13,-6 -4,-3 -6,-9 -6,-15zm7 0c0,5 1,9 4,11 2,3 5,4 8,4 4,0 6,-1 9,-4 2,-2 3,-6 3,-12 0,-5 -1,-8 -3,-11 -3,-2 -5,-4 -9,-4 -3,0 -6,2 -8,4 -3,3 -4,7 -4,12zm88 -2l0 -7 23 0 0 21c-3,3 -7,5 -11,7 -4,1 -8,2 -12,2 -5,0 -10,-1 -15,-4 -4,-2 -8,-5 -10,-10 -2,-4 -3,-9 -3,-15 0,-5 1,-10 3,-15 2,-5 6,-8 10,-10 4,-3 9,-4 15,-4 4,0 7,1 11,2 3,1 5,3 7,6 2,2 4,5 5,9l-7 2c-1,-3 -2,-6 -3,-7 -2,-2 -3,-3 -6,-4 -2,-1 -4,-2 -7,-2 -4,0 -7,1 -9,2 -2,1 -4,2 -6,4 -1,2 -3,4 -3,6 -2,3 -3,7 -3,11 0,5 1,9 3,12 2,4 4,6 7,8 4,1 7,2 11,2 3,0 6,0 9,-2 3,-1 6,-2 7,-4l0 -10 -16 0zm31 2c0,-8 2,-13 6,-17 4,-3 8,-4 13,-4 5,0 10,1 13,5 4,4 6,9 6,15 0,5 -1,9 -3,12 -1,3 -3,6 -6,7 -3,2 -7,3 -10,3 -6,0 -10,-2 -14,-6 -3,-3 -5,-9 -5,-15zm7 0c0,5 1,9 3,11 2,3 5,4 9,4 3,0 6,-1 8,-4 3,-2 4,-6 4,-12 0,-5 -1,-8 -4,-11 -2,-2 -5,-4 -8,-4 -4,0 -7,2 -9,4 -2,3 -3,7 -3,12zm39 20l0 -41 6 0 0 6c3,-4 7,-6 13,-6 2,0 4,0 6,1 2,1 4,2 5,3 1,2 2,3 2,5 0,2 1,4 1,7l0 25 -7 0 0 -25c0,-2 -1,-5 -1,-6 -1,-1 -2,-2 -3,-3 -1,-1 -3,-2 -5,-2 -3,0 -5,1 -7,3 -2,2 -3,6 -3,11l0 22 -7 0zm39 0l0 -6 26 -29c-3,0 -5,0 -8,0l-16 0 0 -6 33 0 0 5 -22 26 -4 4c3,0 6,0 8,0l19 0 0 6 -36 0zm69 -5c-2,2 -5,3 -7,4 -2,1 -5,2 -8,2 -4,0 -7,-1 -10,-4 -2,-2 -3,-4 -3,-8 0,-2 0,-4 1,-5 1,-2 2,-3 4,-4 1,-1 3,-2 4,-2 2,-1 4,-1 7,-1 5,-1 9,-2 12,-3 0,-1 0,-1 0,-2 0,-2 -1,-4 -2,-5 -2,-2 -4,-3 -8,-3 -3,0 -6,1 -7,2 -2,1 -3,3 -3,6l-7 -1c0,-3 1,-5 3,-7 1,-2 3,-3 6,-4 3,-1 6,-1 9,-1 4,0 6,0 9,1 2,1 3,2 4,3 1,1 2,3 2,5 1,1 1,3 1,6l0 9c0,6 0,10 0,12 0,2 1,3 2,5l-7 0c-1,-2 -1,-3 -2,-5zm0 -15c-3,1 -6,1 -11,2 -3,1 -5,1 -6,2 -2,0 -2,1 -3,2 -1,1 -1,2 -1,3 0,2 1,3 2,5 1,1 3,1 6,1 3,0 5,0 7,-1 2,-2 4,-3 5,-5 0,-2 1,-4 1,-7l0 -2zm16 23l7 1c0,2 1,4 2,5 2,1 4,2 7,2 3,0 6,-1 7,-2 2,-2 3,-3 4,-6 0,-1 0,-4 0,-8 -3,3 -6,5 -11,5 -5,0 -10,-2 -13,-6 -3,-4 -4,-9 -4,-15 0,-3 0,-7 2,-10 1,-3 3,-6 6,-8 2,-2 6,-2 9,-2 5,0 9,2 12,5l0 -5 6 0 0 35c0,7 0,11 -2,14 -1,2 -3,4 -6,6 -3,1 -6,2 -10,2 -5,0 -9,-1 -12,-3 -3,-2 -4,-5 -4,-10zm6 -24c0,5 1,9 3,12 2,2 5,3 8,3 3,0 5,-1 8,-3 2,-3 3,-7 3,-12 0,-5 -1,-8 -3,-11 -3,-2 -5,-4 -8,-4 -3,0 -6,1 -8,4 -2,2 -3,6 -3,11zm65 16c-3,2 -5,3 -7,4 -3,1 -5,2 -8,2 -4,0 -8,-1 -10,-4 -3,-2 -4,-4 -4,-8 0,-2 1,-4 2,-5 1,-2 2,-3 3,-4 2,-1 3,-2 5,-2 1,-1 3,-1 6,-1 6,-1 10,-2 12,-3 0,-1 0,-1 0,-2 0,-2 0,-4 -1,-5 -2,-2 -5,-3 -8,-3 -4,0 -6,1 -7,2 -2,1 -3,3 -4,6l-7 -1c1,-3 2,-5 3,-7 2,-2 4,-3 7,-4 2,-1 5,-1 9,-1 3,0 6,0 8,1 2,1 4,2 5,3 1,1 2,3 2,5 0,1 0,3 0,6l0 9c0,6 1,10 1,12 0,2 1,3 1,5l-7 0c0,-2 -1,-3 -1,-5zm-1 -15c-2,1 -6,1 -11,2 -3,1 -5,1 -6,2 -1,0 -2,1 -2,2 -1,1 -1,2 -1,3 0,2 0,3 2,5 1,1 3,1 6,1 2,0 5,0 7,-1 2,-2 3,-3 4,-5 1,-2 1,-4 1,-7l0 -2zm-798 89l7 -1c1,3 1,5 3,7 1,2 3,3 5,5 3,1 6,1 9,1 2,0 5,0 7,-1 2,-1 4,-2 5,-3 1,-2 2,-4 2,-5 0,-2 -1,-4 -2,-5 -1,-1 -3,-2 -5,-3 -2,-1 -5,-2 -10,-3 -5,-1 -9,-2 -11,-3 -2,-2 -4,-3 -6,-5 -1,-3 -2,-5 -2,-7 0,-3 1,-6 3,-8 1,-3 4,-5 7,-6 3,-1 6,-2 10,-2 4,0 8,1 11,2 3,1 6,3 7,6 2,3 3,6 3,9l-7 0c0,-3 -2,-6 -4,-8 -2,-1 -5,-2 -10,-2 -4,0 -7,1 -9,2 -2,2 -4,4 -4,6 0,2 1,4 3,5 1,1 5,3 11,4 6,1 10,3 12,4 3,1 6,3 7,5 2,3 3,5 3,8 0,3 -1,6 -3,9 -2,2 -4,4 -7,6 -3,1 -7,2 -11,2 -5,0 -9,-1 -13,-2 -3,-2 -6,-4 -8,-7 -2,-3 -3,-6 -3,-10zm80 13c-2,2 -5,3 -7,4 -3,1 -5,2 -8,2 -4,0 -8,-1 -10,-4 -2,-2 -4,-4 -4,-8 0,-2 1,-4 2,-5 1,-2 2,-3 3,-4 2,-1 3,-2 5,-2 2,-1 4,-1 6,-1 6,-1 10,-2 13,-3 0,-1 0,-1 0,-2 0,-2 -1,-4 -2,-5 -2,-2 -5,-3 -8,-3 -3,0 -6,1 -7,2 -2,1 -3,3 -4,6l-6 -1c0,-3 1,-5 3,-7 1,-2 3,-3 6,-4 2,-1 5,-1 9,-1 3,0 6,0 8,1 2,1 4,2 5,3 1,1 2,3 2,5 0,1 1,3 1,6l0 9c0,6 0,10 0,12 0,2 1,3 2,5l-7 0c-1,-2 -2,-3 -2,-5zm0 -15c-3,1 -7,1 -12,2 -2,1 -4,1 -6,2 -1,0 -2,1 -2,2 -1,1 -1,2 -1,3 0,2 0,3 2,5 1,1 3,1 6,1 3,0 5,0 7,-1 2,-2 4,-3 5,-5 0,-2 1,-4 1,-7l0 -2zm17 20l0 -41 6 0 0 6c3,-4 8,-6 13,-6 3,0 5,0 7,1 2,1 3,2 4,3 1,2 2,3 3,5 0,2 0,4 0,7l0 25 -7 0 0 -25c0,-2 0,-5 -1,-6 0,-1 -1,-2 -3,-3 -1,-1 -3,-1 -4,-1 -3,0 -6,0 -8,2 -2,2 -3,6 -3,11l0 22 -7 0zm58 -6l1 6c-2,0 -3,0 -5,0 -2,0 -4,0 -6,-1 -1,-1 -2,-2 -3,-3 0,-1 0,-4 0,-8l0 -23 -5 0 0 -6 5 0 0 -10 6 -4 0 14 7 0 0 6 -7 0 0 23c0,2 1,4 1,4 0,1 0,1 1,2 1,0 1,0 2,0 1,0 2,0 3,0zm4 -14c0,-8 3,-13 7,-17 3,-3 7,-4 12,-4 6,0 11,1 14,5 4,4 5,9 5,15 0,5 0,9 -2,12 -2,3 -4,6 -7,7 -3,2 -6,3 -10,3 -5,0 -10,-2 -13,-6 -4,-3 -6,-9 -6,-15zm8 0c0,5 1,9 3,11 2,3 5,4 8,4 4,0 7,-1 9,-4 2,-2 3,-6 3,-12 0,-5 -1,-8 -3,-11 -2,-2 -5,-4 -9,-4 -3,0 -6,2 -8,4 -2,3 -3,7 -3,12zm36 8l6 -1c1,2 2,4 4,6 1,1 4,2 7,2 3,0 5,-1 7,-2 1,-1 2,-3 2,-4 0,-2 0,-3 -2,-4 -1,-1 -3,-1 -7,-2 -5,-2 -8,-3 -10,-4 -2,0 -4,-2 -5,-3 -1,-2 -1,-4 -1,-6 0,-2 0,-3 1,-5 1,-1 2,-3 3,-4 1,0 3,-1 5,-2 2,0 4,0 6,0 3,0 6,0 8,1 2,1 4,2 5,4 1,1 2,3 3,6l-7 1c0,-2 -1,-4 -3,-5 -1,-1 -3,-2 -6,-2 -3,0 -5,1 -7,2 -1,1 -2,2 -2,3 0,1 1,2 1,3 1,1 2,1 3,2 1,0 3,0 6,1 5,2 8,3 10,4 2,0 3,2 5,3 1,2 1,4 1,6 0,2 0,4 -2,6 -1,2 -3,4 -6,5 -2,1 -5,2 -8,2 -5,0 -9,-1 -12,-4 -3,-2 -5,-5 -5,-9z"/>
   <g>
    <path class="fil3" d="M108 730l0 -60 8 0 0 60 -8 0zm23 0l0 -60 8 0 0 60 -8 0zm43 -20l7 0c1,3 2,5 3,7 1,2 3,4 6,5 3,1 6,2 9,2 3,0 6,-1 8,-2 2,-1 4,-2 5,-4 1,-1 2,-3 2,-5 0,-2 -1,-3 -2,-5 -1,-1 -3,-2 -5,-3 -2,-1 -5,-2 -11,-3 -5,-1 -9,-3 -11,-4 -3,-1 -5,-3 -7,-5 -1,-3 -2,-5 -2,-8 0,-3 1,-6 3,-8 1,-3 4,-5 7,-6 4,-2 7,-2 11,-2 5,0 9,0 12,2 3,1 6,3 8,6 2,3 3,6 3,10l-8 0c0,-4 -2,-6 -4,-8 -2,-2 -6,-3 -10,-3 -5,0 -9,1 -11,2 -2,2 -3,4 -3,7 0,2 1,4 2,5 2,1 6,3 12,4 6,2 11,3 13,4 4,2 6,4 8,6 2,3 2,5 2,9 0,3 0,6 -2,9 -2,2 -5,5 -8,6 -4,2 -7,3 -12,3 -5,0 -10,-1 -13,-3 -4,-1 -7,-4 -9,-7 -2,-3 -3,-7 -3,-11zm87 6l8 1c-2,4 -4,7 -7,10 -3,2 -7,3 -12,3 -7,0 -12,-1 -16,-5 -3,-4 -5,-10 -5,-17 0,-7 2,-13 6,-17 3,-4 8,-6 14,-6 6,0 11,2 14,6 4,4 6,10 6,17 0,0 0,1 0,2l-33 0c1,4 2,8 4,11 3,2 6,3 10,3 2,0 5,0 6,-2 2,-1 4,-3 5,-6zm-24 -12l24 0c0,-4 -1,-7 -3,-8 -2,-3 -5,-5 -9,-5 -3,0 -6,1 -8,4 -3,2 -4,5 -4,9zm41 26l0 -44 6 0 0 6c2,-2 4,-4 6,-5 2,-1 5,-2 8,-2 3,0 5,1 7,2 2,2 4,3 5,6 3,-5 8,-8 13,-8 5,0 8,1 10,4 2,2 4,6 4,11l0 30 -8 0 0 -28c0,-3 0,-5 0,-6 -1,-1 -2,-2 -3,-3 -1,-1 -3,-1 -4,-1 -4,0 -6,1 -8,3 -2,2 -3,5 -3,9l0 26 -7 0 0 -29c0,-3 -1,-5 -2,-7 -1,-2 -3,-2 -6,-2 -2,0 -4,0 -6,1 -2,1 -3,3 -4,5 0,2 -1,5 -1,9l0 23 -7 0zm69 -52l0 -8 8 0 0 8 -8 0zm0 52l0 -44 8 0 0 44 -8 0zm19 0l0 -44 7 0 0 6c3,-4 7,-7 13,-7 3,0 5,1 8,2 2,1 3,2 4,3 2,2 2,4 3,6 0,1 0,4 0,7l0 27 -7 0 0 -27c0,-3 0,-5 -1,-7 -1,-1 -2,-2 -3,-3 -2,-1 -3,-1 -5,-1 -3,0 -6,1 -8,3 -3,2 -4,5 -4,11l0 24 -7 0zm75 -6c-3,2 -6,4 -8,5 -3,1 -5,1 -8,1 -5,0 -9,-1 -11,-3 -3,-2 -4,-5 -4,-9 0,-2 0,-4 1,-6 1,-1 3,-3 4,-4 2,-1 4,-2 6,-2 1,-1 3,-1 6,-1 6,-1 10,-2 13,-3 0,-1 0,-2 0,-2 0,-3 0,-5 -2,-6 -2,-2 -5,-3 -8,-3 -4,0 -6,1 -8,2 -2,1 -3,4 -4,7l-7 -1c1,-3 2,-6 3,-8 2,-2 4,-3 7,-4 3,-1 6,-2 10,-2 4,0 7,1 9,2 2,0 4,2 5,3 1,1 2,3 2,5 1,1 1,3 1,7l0 9c0,7 0,11 0,13 0,2 1,4 2,6l-8 0c-1,-2 -1,-4 -1,-6zm-1 -16c-2,1 -6,2 -12,3 -3,0 -5,0 -6,1 -1,1 -2,1 -3,2 -1,1 -1,3 -1,4 0,2 1,3 2,5 2,1 4,2 7,2 2,0 5,-1 7,-2 2,-1 4,-3 5,-5 1,-2 1,-4 1,-8l0 -2zm-15 -27l5 -12 10 0 -9 12 -6 0zm34 49l0 -44 6 0 0 7c2,-3 4,-5 5,-6 2,-1 3,-2 5,-2 2,0 5,1 7,3l-2 6c-2,-1 -4,-1 -6,-1 -1,0 -3,0 -4,1 -1,1 -2,3 -3,4 0,3 -1,6 -1,9l0 23 -7 0zm28 -52l0 -8 7 0 0 8 -7 0zm0 52l0 -44 7 0 0 44 -7 0zm16 -22c0,-8 2,-14 6,-18 4,-3 9,-5 14,-5 6,0 11,2 15,6 3,4 5,9 5,16 0,6 -1,10 -2,13 -2,4 -4,6 -8,8 -3,2 -6,2 -10,2 -6,0 -11,-1 -15,-5 -4,-4 -5,-10 -5,-17zm7 0c0,5 1,10 4,12 2,3 5,4 9,4 4,0 7,-1 9,-4 2,-2 4,-7 4,-12 0,-6 -2,-10 -4,-13 -2,-2 -5,-4 -9,-4 -4,0 -7,2 -9,4 -3,3 -4,7 -4,13zm93 22l0 -6c-3,4 -7,6 -12,6 -4,0 -7,0 -10,-2 -2,-2 -5,-5 -6,-8 -2,-4 -3,-8 -3,-12 0,-4 1,-8 2,-12 2,-3 4,-6 7,-8 3,-2 6,-3 10,-3 2,0 5,1 7,2 2,1 3,2 5,4l0 -21 7 0 0 60 -7 0zm-23 -22c0,5 1,10 3,12 3,3 5,4 9,4 3,0 6,-1 8,-3 2,-3 3,-7 3,-12 0,-6 -1,-11 -3,-14 -3,-2 -5,-4 -9,-4 -3,0 -6,2 -8,4 -2,3 -3,7 -3,13zm71 8l8 1c-1,4 -4,7 -7,10 -3,2 -7,3 -12,3 -7,0 -12,-1 -15,-5 -4,-4 -6,-10 -6,-17 0,-7 2,-13 6,-17 3,-4 8,-6 14,-6 6,0 11,2 14,6 4,4 6,10 6,17 0,0 0,1 0,2l-32 0c0,4 1,8 4,11 2,2 5,3 9,3 2,0 5,0 7,-2 1,-1 3,-3 4,-6zm-24 -12l24 0c0,-4 -1,-7 -3,-8 -2,-3 -5,-5 -9,-5 -3,0 -6,1 -8,4 -2,2 -4,5 -4,9zm65 26l0 -60 12 0 14 42c1,4 2,7 3,9 1,-2 2,-5 3,-10l14 -41 11 0 0 60 -8 0 0 -51 -17 51 -7 0 -17 -51 0 51 -8 0zm69 -52l0 -8 7 0 0 8 -7 0zm0 52l0 -44 7 0 0 44 -7 0zm18 0l0 -44 7 0 0 6c3,-4 8,-7 14,-7 2,0 5,1 7,2 2,1 4,2 5,3 1,2 2,4 2,6 0,1 1,4 1,7l0 27 -8 0 0 -27c0,-3 0,-5 -1,-7 0,-1 -1,-2 -3,-3 -1,-1 -3,-1 -5,-1 -3,0 -6,1 -8,3 -2,2 -3,5 -3,11l0 24 -8 0zm76 -14l8 1c-1,4 -3,7 -7,10 -3,2 -7,3 -12,3 -6,0 -11,-1 -15,-5 -4,-4 -6,-10 -6,-17 0,-7 2,-13 6,-17 4,-4 9,-6 15,-6 5,0 10,2 14,6 3,4 5,10 5,17 0,0 0,1 0,2l-32 0c0,4 2,8 4,11 2,2 5,3 9,3 3,0 5,0 7,-2 2,-1 3,-3 4,-6zm-24 -12l25 0c-1,-4 -2,-7 -3,-8 -3,-3 -6,-5 -9,-5 -4,0 -7,1 -9,4 -2,2 -3,5 -4,9zm41 26l0 -44 7 0 0 7c2,-3 3,-5 5,-6 1,-1 3,-2 4,-2 3,0 5,1 8,3l-3 6c-2,-1 -3,-1 -5,-1 -2,0 -3,0 -4,1 -2,1 -3,3 -3,4 -1,3 -1,6 -1,9l0 23 -8 0zm57 -6c-3,2 -6,4 -8,5 -3,1 -6,1 -8,1 -5,0 -9,-1 -11,-3 -3,-2 -4,-5 -4,-9 0,-2 0,-4 1,-6 1,-1 2,-3 4,-4 2,-1 3,-2 5,-2 2,-1 4,-1 7,-1 6,-1 10,-2 13,-3 0,-1 0,-2 0,-2 0,-3 -1,-5 -2,-6 -2,-2 -5,-3 -9,-3 -3,0 -6,1 -7,2 -2,1 -3,4 -4,7l-7 -1c1,-3 2,-6 3,-8 2,-2 4,-3 7,-4 3,-1 6,-2 10,-2 3,0 6,1 9,2 2,0 4,2 5,3 1,1 2,3 2,5 0,1 0,3 0,7l0 9c0,7 1,11 1,13 0,2 1,4 2,6l-8 0c-1,-2 -1,-4 -1,-6zm-1 -16c-3,1 -7,2 -12,3 -3,0 -5,0 -7,1 -1,1 -2,1 -2,2 -1,1 -1,3 -1,4 0,2 0,3 2,5 1,1 3,2 6,2 3,0 6,-1 8,-2 2,-1 4,-3 5,-5 1,-2 1,-4 1,-8l0 -2zm47 6l7 1c-1,5 -3,8 -6,11 -3,3 -7,4 -12,4 -6,0 -11,-1 -14,-5 -4,-4 -6,-10 -6,-17 0,-5 1,-9 3,-12 1,-4 4,-6 7,-8 3,-2 6,-3 10,-3 5,0 9,1 12,4 3,2 5,6 6,10l-8 1c0,-3 -1,-5 -3,-7 -2,-1 -4,-2 -6,-2 -4,0 -7,2 -10,4 -2,3 -3,7 -3,13 0,6 1,10 3,12 3,3 6,4 9,4 3,0 5,0 7,-2 2,-2 3,-5 4,-8zm-17 23l2 -7 5 0 -1 4c2,0 4,1 5,2 1,1 2,2 2,4 0,2 -1,4 -3,5 -2,2 -5,3 -9,3 -2,0 -4,0 -6,0l1 -6c1,0 3,0 4,0 2,0 4,0 5,-1 1,0 1,-1 1,-2 0,0 0,0 0,-1 -1,0 -1,-1 -2,-1 -1,0 -2,0 -4,0zm59 -13c-3,2 -6,4 -8,5 -3,1 -5,1 -8,1 -5,0 -9,-1 -11,-3 -3,-2 -4,-5 -4,-9 0,-2 0,-4 1,-6 1,-1 3,-3 4,-4 2,-1 4,-2 5,-2 2,-1 4,-1 7,-1 6,-1 10,-2 13,-3 0,-1 0,-2 0,-2 0,-3 -1,-5 -2,-6 -2,-2 -5,-3 -8,-3 -4,0 -6,1 -8,2 -2,1 -3,4 -4,7l-7 -1c1,-3 2,-6 3,-8 2,-2 4,-3 7,-4 3,-1 6,-2 10,-2 4,0 7,1 9,2 2,0 4,2 5,3 1,1 2,3 2,5 1,1 1,3 1,7l0 9c0,7 0,11 0,13 0,2 1,4 2,6l-8 0c-1,-2 -1,-4 -1,-6zm-1 -16c-2,1 -6,2 -12,3 -3,0 -5,0 -6,1 -2,1 -2,1 -3,2 -1,1 -1,3 -1,4 0,2 1,3 2,5 2,1 4,2 7,2 2,0 5,-1 7,-2 2,-1 4,-3 5,-5 1,-2 1,-4 1,-8l0 -2zm-24 -27c0,-3 1,-5 3,-7 1,-1 3,-2 6,-2 1,0 4,0 6,2 2,1 3,1 4,1 1,0 2,0 2,-1 1,0 1,-1 1,-2l6 0c-1,3 -1,5 -3,6 -1,2 -3,3 -5,3 -2,0 -4,-1 -7,-2 -2,-1 -3,-2 -4,-2 -1,0 -2,0 -2,1 -1,1 -1,2 -1,3l-6 0zm40 27c0,-8 2,-14 7,-18 4,-3 8,-5 14,-5 5,0 10,2 14,6 4,4 6,9 6,16 0,6 -1,10 -3,13 -1,4 -4,6 -7,8 -3,2 -7,2 -10,2 -7,0 -11,-1 -15,-5 -4,-4 -6,-10 -6,-17zm8 0c0,5 1,10 3,12 3,3 6,4 10,4 3,0 6,-1 9,-4 2,-2 3,-7 3,-12 0,-6 -1,-10 -3,-13 -3,-2 -6,-4 -9,-4 -4,0 -7,2 -10,4 -2,3 -3,7 -3,13zm-904 101l7 1c-1,4 -3,8 -6,10 -4,3 -8,4 -13,4 -6,0 -11,-2 -15,-6 -4,-4 -5,-9 -5,-16 0,-8 1,-13 5,-17 4,-4 9,-6 15,-6 5,0 10,2 14,6 4,3 5,9 5,16 0,1 0,1 0,2l-32 0c0,5 2,8 4,11 2,3 6,4 9,4 3,0 5,-1 7,-2 2,-2 3,-4 5,-7zm-25 -12l25 0c-1,-4 -2,-6 -3,-8 -2,-3 -6,-4 -9,-4 -4,0 -6,1 -9,3 -2,2 -3,5 -4,9zm65 26l0 -60 12 0 14 42c2,4 3,7 3,9 1,-2 2,-5 3,-9l15 -42 10 0 0 60 -7 0 0 -50 -18 50 -7 0 -17 -51 0 51 -8 0zm99 -14l7 1c-1,4 -3,8 -6,10 -3,3 -8,4 -13,4 -6,0 -11,-2 -15,-6 -3,-4 -5,-9 -5,-16 0,-8 2,-13 5,-17 4,-4 9,-6 15,-6 6,0 11,2 14,6 4,3 6,9 6,16 0,1 0,1 0,2l-33 0c1,5 2,8 4,11 3,3 6,4 9,4 3,0 5,-1 7,-2 2,-2 4,-4 5,-7zm-24 -12l24 0c0,-4 -1,-6 -3,-8 -2,-3 -5,-4 -9,-4 -3,0 -6,1 -8,3 -3,2 -4,5 -4,9zm41 -26l0 -8 7 0 0 8 -7 0zm0 52l0 -43 7 0 0 43 -7 0zm16 -22c0,-8 2,-14 6,-18 4,-3 9,-4 14,-4 6,0 11,2 14,5 4,4 6,10 6,17 0,5 -1,10 -2,13 -2,3 -4,5 -8,7 -3,2 -6,3 -10,3 -6,0 -11,-2 -15,-6 -4,-4 -5,-9 -5,-17zm7 0c0,6 1,10 4,13 2,2 5,4 9,4 4,0 7,-2 9,-4 2,-3 4,-7 4,-13 0,-5 -2,-9 -4,-12 -2,-3 -5,-4 -9,-4 -4,0 -7,1 -9,4 -3,3 -4,7 -4,12zm55 22l23 -60 8 0 25 60 -9 0 -7 -18 -25 0 -7 18 -8 0zm17 -25l20 0 -6 -16c-2,-5 -3,-9 -4,-13 -1,4 -2,8 -3,12l-7 17zm44 25l0 -43 7 0 0 6c1,-2 3,-4 5,-5 2,-2 5,-2 8,-2 3,0 6,0 8,2 2,1 3,3 4,5 4,-5 8,-7 14,-7 4,0 7,1 9,3 3,3 4,6 4,11l0 30 -7 0 0 -27c0,-3 -1,-5 -1,-7 -1,-1 -1,-2 -3,-3 -1,-1 -2,-1 -4,-1 -3,0 -6,1 -8,3 -2,2 -3,5 -3,10l0 25 -7 0 0 -28c0,-4 -1,-6 -2,-8 -1,-1 -3,-2 -6,-2 -2,0 -4,1 -6,2 -1,1 -3,2 -3,4 -1,2 -2,5 -2,9l0 23 -7 0zm77 0l-7 0 0 -60 7 0 0 21c3,-3 7,-5 12,-5 3,0 5,0 7,1 3,1 5,3 6,5 2,2 3,4 4,7 1,3 1,5 1,9 0,7 -2,13 -5,17 -4,4 -8,6 -13,6 -6,0 -10,-2 -12,-7l0 6zm-1 -22c0,5 1,9 3,11 2,4 5,6 9,6 3,0 6,-2 8,-4 3,-3 4,-7 4,-13 0,-5 -1,-10 -4,-12 -2,-3 -5,-4 -8,-4 -3,0 -6,1 -8,4 -2,3 -4,7 -4,12zm40 -30l0 -8 8 0 0 8 -8 0zm0 52l0 -43 8 0 0 43 -8 0zm48 -14l8 1c-1,4 -3,8 -7,10 -3,3 -7,4 -12,4 -6,0 -11,-2 -15,-6 -4,-4 -6,-9 -6,-16 0,-8 2,-13 6,-17 4,-4 9,-6 15,-6 5,0 10,2 14,6 3,3 5,9 5,16 0,1 0,1 0,2l-32 0c0,5 2,8 4,11 2,3 5,4 9,4 3,0 5,-1 7,-2 2,-2 3,-4 4,-7zm-24 -12l24 0c0,-4 -1,-6 -2,-8 -3,-3 -6,-4 -9,-4 -4,0 -7,1 -9,3 -2,2 -3,5 -4,9zm41 26l0 -43 7 0 0 6c3,-5 8,-7 14,-7 2,0 5,0 7,1 2,1 4,2 5,4 1,1 2,3 2,5 0,1 0,4 0,7l0 27 -7 0 0 -26c0,-3 0,-6 -1,-7 0,-2 -1,-3 -3,-4 -1,-1 -3,-1 -5,-1 -3,0 -6,1 -8,3 -2,2 -3,6 -3,11l0 24 -8 0zm63 -7l1 7c-2,0 -4,0 -6,0 -2,0 -5,0 -6,-1 -1,-1 -3,-2 -3,-3 -1,-1 -1,-4 -1,-9l0 -25 -5 0 0 -5 5 0 0 -11 7 -5 0 16 8 0 0 5 -8 0 0 26c0,2 0,3 1,4 0,0 0,1 1,1 1,0 1,1 3,1 0,0 1,0 3,-1zm37 -7l7 1c-1,4 -3,8 -6,10 -4,3 -8,4 -13,4 -6,0 -11,-2 -15,-6 -4,-4 -5,-9 -5,-16 0,-8 1,-13 5,-17 4,-4 9,-6 15,-6 6,0 10,2 14,6 4,3 5,9 5,16 0,1 0,1 0,2l-32 0c0,5 2,8 4,11 3,3 6,4 9,4 3,0 5,-1 7,-2 2,-2 3,-4 5,-7zm-25 -12l25 0c-1,-4 -2,-6 -3,-8 -2,-3 -6,-4 -9,-4 -4,0 -6,1 -9,3 -2,2 -3,5 -4,9zm93 26l0 -6c-3,5 -7,7 -12,7 -4,0 -7,-1 -10,-3 -3,-2 -5,-5 -7,-8 -1,-3 -2,-7 -2,-12 0,-4 1,-8 2,-11 2,-4 4,-7 7,-9 2,-1 6,-2 9,-2 3,0 5,0 7,1 2,1 4,3 5,5l0 -22 8 0 0 60 -7 0zm-24 -22c0,6 2,10 4,13 2,2 5,4 8,4 3,0 6,-2 8,-4 3,-3 4,-7 4,-12 0,-6 -1,-10 -4,-13 -2,-3 -5,-4 -8,-4 -3,0 -6,1 -8,4 -2,2 -4,7 -4,12z"/>
    <path class="fil3" d="M826 817c-2,3 -5,4 -7,5 -3,1 -6,2 -9,2 -4,0 -8,-1 -11,-4 -2,-2 -3,-5 -3,-9 0,-2 0,-4 1,-5 1,-2 2,-4 4,-5 1,-1 3,-1 5,-2 2,0 4,-1 7,-1 6,-1 10,-2 13,-3 0,-1 0,-1 0,-2 0,-2 -1,-5 -2,-6 -2,-1 -5,-2 -9,-2 -3,0 -6,0 -7,2 -2,1 -3,3 -4,6l-7 -1c1,-3 2,-6 3,-7 2,-2 4,-4 7,-5 2,-1 6,-1 9,-1 4,0 7,0 10,1 2,1 4,2 5,3 1,2 2,3 2,5 0,1 0,4 0,7l0 10c0,7 0,11 1,13 0,1 1,3 2,5l-8 0c-1,-2 -1,-3 -2,-6zm0 -16c-3,1 -7,2 -12,3 -3,0 -5,1 -7,1 -1,1 -2,2 -2,3 -1,1 -2,2 -2,3 0,2 1,4 3,5 1,1 3,2 6,2 3,0 6,-1 8,-2 2,-1 4,-3 5,-5 0,-1 1,-4 1,-7l0 -3zm42 22l0 -60 23 0c4,0 8,1 11,2 3,1 5,3 6,5 2,3 3,6 3,8 0,3 -1,5 -2,8 -2,2 -4,4 -7,5 4,1 7,3 9,5 2,3 3,6 3,10 0,2 -1,5 -2,7 -1,3 -3,5 -5,6 -1,1 -3,2 -6,3 -3,1 -6,1 -10,1l-23 0zm8 -35l13 0c4,0 6,0 8,0 2,-1 3,-2 4,-3 1,-2 2,-4 2,-6 0,-2 -1,-3 -2,-5 0,-1 -2,-3 -4,-3 -1,-1 -4,-1 -9,-1l-12 0 0 18zm0 28l15 0c3,0 5,0 6,0 1,-1 3,-1 4,-2 1,-1 2,-2 3,-3 1,-2 1,-4 1,-5 0,-3 0,-5 -1,-6 -1,-2 -3,-3 -5,-4 -2,0 -5,-1 -9,-1l-14 0 0 21zm76 1c-3,3 -5,4 -8,5 -2,1 -5,2 -8,2 -5,0 -9,-1 -11,-4 -3,-2 -4,-5 -4,-9 0,-2 1,-4 2,-5 0,-2 2,-4 3,-5 2,-1 4,-1 6,-2 1,0 3,-1 6,-1 6,-1 10,-2 13,-3 0,-1 0,-1 0,-2 0,-2 0,-5 -2,-6 -2,-1 -4,-2 -8,-2 -4,0 -6,0 -8,2 -1,1 -3,3 -3,6l-8 -1c1,-3 2,-6 4,-7 1,-2 3,-4 6,-5 3,-1 6,-1 10,-1 4,0 7,0 9,1 2,1 4,2 5,3 1,2 2,3 2,5 1,1 1,4 1,7l0 10c0,7 0,11 0,13 1,1 1,3 2,5l-8 0c0,-2 -1,-3 -1,-6zm-1 -16c-2,1 -6,2 -12,3 -3,0 -5,1 -6,1 -1,1 -2,2 -3,3 -1,1 -1,2 -1,3 0,2 1,4 2,5 2,1 4,2 7,2 2,0 5,-1 7,-2 2,-1 4,-3 5,-5 1,-1 1,-4 1,-7l0 -3zm19 22l0 -60 7 0 0 22c4,-4 8,-6 13,-6 4,0 6,0 9,2 2,1 4,3 5,5 1,2 1,5 1,9l0 28 -7 0 0 -28c0,-3 -1,-6 -2,-8 -2,-1 -4,-2 -7,-2 -2,0 -4,1 -6,2 -2,1 -4,2 -4,4 -1,2 -2,5 -2,8l0 24 -7 0zm47 -52l0 -8 7 0 0 8 -7 0zm0 52l0 -43 7 0 0 43 -7 0zm46 -6c-2,3 -5,4 -7,5 -3,1 -6,2 -9,2 -4,0 -8,-1 -11,-4 -2,-2 -3,-5 -3,-9 0,-2 0,-4 1,-5 1,-2 2,-4 4,-5 1,-1 3,-1 5,-2 2,0 4,-1 7,-1 6,-1 10,-2 13,-3 0,-1 0,-1 0,-2 0,-2 -1,-5 -2,-6 -2,-1 -5,-2 -9,-2 -3,0 -6,0 -7,2 -2,1 -3,3 -4,6l-7 -1c1,-3 2,-6 3,-7 2,-2 4,-4 7,-5 2,-1 6,-1 9,-1 4,0 7,0 10,1 2,1 4,2 5,3 1,2 1,3 2,5 0,1 0,4 0,7l0 10c0,7 0,11 1,13 0,1 1,3 2,5l-8 0c-1,-2 -1,-3 -2,-6zm0 -16c-3,1 -7,2 -12,3 -3,0 -5,1 -7,1 -1,1 -2,2 -3,3 0,1 -1,2 -1,3 0,2 1,4 3,5 1,1 3,2 6,2 3,0 6,-1 8,-2 2,-1 4,-3 5,-5 0,-1 1,-4 1,-7l0 -3z"/>
   </g>
   <path class="fil1" d="M949 512c-8,0 -11,-3 -17,-7 -8,-6 -8,-3 -11,-13 13,0 27,12 28,20zm-250 -92c-10,-3 -28,-20 -30,-30 11,2 11,5 17,12 7,7 10,7 13,18zm181 -82c-1,44 -16,82 20,102 25,-14 15,-29 23,-43 1,19 -4,33 -13,45 -14,20 -71,77 -89,84 -9,-12 -19,-21 -29,-33 -21,-22 -80,-77 -88,-100 14,-12 25,-23 42,-36 14,-10 34,-21 33,-42 -24,1 -37,10 -52,22 -14,11 -29,30 -42,35 -10,-6 -9,-9 -19,-13 -7,7 -12,13 -20,18 4,11 8,11 14,21 -19,32 -59,67 -67,113 9,-6 14,-15 21,-24 10,-14 51,-69 63,-68 23,11 43,31 59,46l52 53c8,10 21,17 14,31 -14,28 -80,57 -46,87l47 -60c3,-4 4,-6 8,-11l8 -7c22,11 27,23 42,39 7,8 14,14 21,21 7,8 14,14 28,10 5,-17 -17,-35 -33,-49 -11,-10 -33,-27 -38,-46 18,-7 36,-34 56,-38 41,54 52,32 83,43 11,3 17,9 29,11l-6 -28c-6,-6 -10,-16 -15,-22 -19,-25 -43,-31 -76,-30 9,-26 51,-43 37,-99 -8,-32 -39,-65 -70,-72l3 40z"/>
   <path class="fil1" d="M960 459c65,31 140,-9 157,-58 -50,-10 -161,-28 -169,43l55 -10c-15,12 -37,12 -43,25z"/>
   <path class="fil1" d="M1006 380c2,-3 0,-1 3,-5 24,-39 8,-50 5,-82 -13,-2 -25,22 -33,36 -10,16 -14,37 0,50 9,-4 8,-3 13,-12 0,3 -1,9 -1,11l2 7c5,-3 6,-3 11,-5z"/>
   <path class="fil0" d="M699 420c-3,-11 -6,-11 -13,-18 -6,-7 -6,-10 -17,-12 2,10 20,27 30,30z"/>
   <path class="fil0" d="M949 512c-1,-8 -15,-20 -28,-20 3,10 3,7 11,13 6,4 9,7 17,7z"/>
   <path class="fil1" d="M410 1196c0,-9 2,-16 7,-21 5,-6 11,-8 19,-8 6,0 10,1 14,4 4,2 8,5 10,10 2,4 3,9 3,15 0,5 -1,11 -3,15 -3,4 -6,8 -10,10 -4,2 -9,4 -14,4 -5,0 -10,-2 -14,-4 -4,-3 -7,-6 -9,-11 -2,-4 -3,-9 -3,-14zm7 1c0,6 2,12 6,15 3,4 8,6 13,6 6,0 10,-2 14,-6 4,-4 5,-9 5,-16 0,-5 0,-9 -2,-12 -1,-3 -4,-6 -7,-8 -3,-2 -6,-3 -10,-3 -5,0 -9,2 -13,6 -4,3 -6,9 -6,18zm55 27l0 -41 6 0 0 6c1,-3 3,-4 4,-5 1,-1 3,-2 4,-2 3,0 5,1 8,2l-3 7c-2,-1 -3,-2 -5,-2 -1,0 -3,1 -4,2 -1,1 -2,2 -2,3 -1,3 -2,6 -2,8l0 22 -6 0zm24 3l7 1c0,2 1,3 2,4 2,2 4,2 7,2 3,0 6,0 8,-2 1,-1 2,-3 3,-5 0,-1 1,-4 1,-9 -3,4 -7,6 -12,6 -5,0 -9,-2 -13,-6 -3,-4 -4,-9 -4,-15 0,-4 1,-7 2,-10 1,-4 3,-6 6,-8 3,-2 6,-3 9,-3 5,0 9,2 12,6l0 -5 6 0 0 35c0,6 0,11 -1,13 -2,3 -4,5 -7,7 -2,1 -6,2 -10,2 -5,0 -8,-1 -11,-3 -3,-2 -5,-6 -5,-10zm6 -24c0,5 1,9 3,11 2,3 5,4 8,4 3,0 6,-1 8,-4 2,-2 3,-6 3,-11 0,-5 -1,-9 -3,-11 -2,-3 -5,-4 -8,-4 -3,0 -6,1 -8,4 -2,2 -3,6 -3,11zm65 16c-2,2 -5,3 -7,4 -2,1 -5,1 -8,1 -4,0 -7,-1 -10,-3 -2,-2 -3,-5 -3,-8 0,-2 0,-4 1,-5 1,-2 2,-3 3,-4 2,-1 4,-2 5,-3 2,0 4,0 6,-1 6,0 10,-1 13,-2 0,-1 0,-2 0,-2 0,-3 -1,-5 -2,-6 -2,-1 -5,-2 -8,-2 -3,0 -6,1 -7,2 -2,1 -3,3 -4,6l-6 -1c0,-3 1,-5 3,-7 1,-2 3,-3 6,-4 2,-1 6,-2 9,-2 3,0 6,1 8,2 3,0 4,1 5,3 1,1 2,2 2,4 1,1 1,4 1,7l0 9c0,6 0,10 0,12 0,1 1,3 2,5l-7 0c-1,-2 -2,-4 -2,-5zm0 -16c-3,1 -7,2 -11,3 -3,0 -5,1 -6,1 -2,1 -3,2 -3,2 -1,1 -1,3 -1,4 0,2 1,3 2,4 1,1 3,2 6,2 3,0 5,-1 7,-2 2,-1 4,-2 5,-4 0,-2 1,-4 1,-7l0 -3zm17 21l0 -41 6 0 0 6c3,-4 8,-7 13,-7 3,0 5,1 7,2 2,0 3,2 4,3 1,1 2,3 3,5 0,1 0,4 0,7l0 25 -7 0 0 -25c0,-3 0,-5 -1,-6 0,-2 -1,-3 -2,-4 -2,0 -3,-1 -5,-1 -3,0 -6,1 -8,3 -2,2 -3,5 -3,11l0 22 -7 0zm44 -48l0 -8 6 0 0 8 -6 0zm0 48l0 -41 6 0 0 41 -6 0zm13 0l0 -6 26 -30c-3,1 -6,1 -8,1l-16 0 0 -6 33 0 0 5 -22 25 -4 5c3,0 6,0 8,0l19 0 0 6 -36 0zm69 -5c-2,2 -5,3 -7,4 -3,1 -5,1 -8,1 -4,0 -8,-1 -10,-3 -2,-2 -4,-5 -4,-8 0,-2 1,-4 2,-5 1,-2 2,-3 3,-4 2,-1 3,-2 5,-3 2,0 4,0 6,-1 6,0 10,-1 13,-2 0,-1 0,-2 0,-2 0,-3 -1,-5 -2,-6 -2,-1 -5,-2 -8,-2 -3,0 -6,1 -7,2 -2,1 -3,3 -4,6l-6 -1c0,-3 1,-5 3,-7 1,-2 3,-3 6,-4 2,-1 5,-2 9,-2 3,0 6,1 8,2 2,0 4,1 5,3 1,1 2,2 2,4 0,1 1,4 1,7l0 9c0,6 0,10 0,12 0,1 1,3 2,5l-8 0c0,-2 -1,-4 -1,-5zm0 -16c-3,1 -7,2 -12,3 -2,0 -4,1 -6,1 -1,1 -2,2 -2,2 -1,1 -1,3 -1,4 0,2 0,3 2,4 1,1 3,2 6,2 3,0 5,-1 7,-2 2,-1 4,-2 4,-4 1,-2 2,-4 2,-7l0 -3zm43 21l0 -6c-2,4 -6,6 -11,6 -3,0 -6,0 -9,-2 -3,-2 -5,-4 -6,-8 -2,-3 -3,-6 -3,-11 0,-4 1,-7 3,-11 1,-3 3,-5 6,-7 2,-2 5,-3 9,-3 2,0 4,1 6,2 2,1 3,2 5,4l0 -20 7 0 0 56 -7 0zm-21 -21c0,6 1,9 3,12 2,3 5,4 8,4 3,0 5,-1 7,-4 2,-2 3,-6 3,-11 0,-6 -1,-10 -3,-12 -2,-3 -5,-4 -8,-4 -3,0 -5,1 -7,4 -2,2 -3,6 -3,11zm36 0c0,-7 2,-13 6,-16 4,-3 8,-5 13,-5 5,0 10,2 13,6 4,3 6,8 6,15 0,5 -1,9 -3,12 -1,3 -3,5 -6,7 -3,2 -7,2 -10,2 -6,0 -10,-1 -14,-5 -3,-4 -5,-9 -5,-16zm7 0c0,6 1,9 3,12 2,3 5,4 9,4 3,0 6,-1 8,-4 3,-3 4,-7 4,-12 0,-5 -1,-9 -4,-11 -2,-3 -5,-4 -8,-4 -4,0 -7,1 -9,4 -2,2 -3,6 -3,11zm39 21l0 -41 6 0 0 6c1,-3 3,-4 4,-5 1,-1 3,-2 5,-2 2,0 4,1 7,2l-3 7c-2,-1 -3,-2 -5,-2 -1,0 -3,1 -4,2 -1,1 -2,2 -2,3 -1,3 -2,6 -2,8l0 22 -6 0zm53 -13l7 0c-1,5 -3,8 -6,10 -3,2 -7,3 -11,3 -6,0 -11,-1 -14,-5 -4,-4 -6,-9 -6,-15 0,-7 2,-12 6,-16 3,-4 8,-6 13,-6 6,0 10,2 13,6 4,3 6,9 6,15 0,1 0,1 -1,2l-30 0c1,5 2,8 4,10 2,3 5,4 9,4 2,0 4,-1 6,-2 2,-1 3,-4 4,-6zm-22 -11l22 0c0,-4 -1,-6 -2,-8 -2,-3 -5,-4 -9,-4 -3,0 -6,1 -8,3 -2,2 -3,5 -3,9zm35 12l7 -2c0,3 1,5 3,7 2,1 4,2 7,2 4,0 6,-1 8,-2 1,-1 2,-3 2,-5 0,-1 -1,-2 -2,-3 -1,-1 -4,-2 -7,-3 -5,-1 -9,-2 -11,-3 -2,-1 -3,-2 -4,-4 -1,-1 -2,-3 -2,-5 0,-2 1,-4 2,-5 0,-2 2,-3 3,-4 1,-1 3,-1 4,-2 2,0 4,-1 6,-1 3,0 6,1 9,2 2,1 4,2 5,3 1,2 2,4 2,7l-6 1c-1,-2 -2,-4 -3,-5 -2,-2 -4,-2 -6,-2 -3,0 -6,0 -7,1 -1,2 -2,3 -2,4 0,1 0,2 1,3 0,0 1,1 2,1 1,1 3,1 7,2 4,1 8,2 10,3 2,1 3,2 4,4 1,1 2,3 2,6 0,2 -1,4 -2,6 -2,2 -3,4 -6,5 -2,1 -5,1 -8,1 -6,0 -10,-1 -13,-3 -2,-2 -4,-5 -5,-9z"/>
   <path class="fil1" d="M102 944l0 -50 9 0 12 35c1,3 2,6 3,8 0,-2 1,-5 2,-8l13 -35 8 0 0 50 -6 0 0 -42 -15 42 -6 0 -14 -43 0 43 -6 0zm57 -43l0 -7 7 0 0 7 -7 0zm0 43l0 -37 7 0 0 37 -7 0zm16 0l0 -37 5 0 0 6c3,-4 7,-6 12,-6 2,0 4,0 6,1 2,1 3,2 4,3 1,1 2,3 2,4 0,2 0,4 0,6l0 23 -6 0 0 -22c0,-3 0,-5 0,-6 -1,-1 -2,-2 -3,-3 -1,-1 -3,-1 -4,-1 -3,0 -5,1 -7,2 -2,2 -3,5 -3,10l0 20 -6 0zm64 -12l6 1c-1,4 -3,6 -5,9 -3,2 -7,3 -11,3 -5,0 -9,-2 -12,-5 -4,-4 -5,-8 -5,-14 0,-6 1,-11 5,-14 3,-4 7,-5 12,-5 5,0 9,1 12,5 3,3 4,8 4,14 0,0 0,0 0,1l-27 0c0,4 2,7 4,9 2,2 4,4 7,4 2,0 4,-1 6,-2 2,-1 3,-3 4,-6zm-20 -10l20 0c0,-3 -1,-5 -2,-7 -2,-2 -5,-3 -8,-3 -3,0 -5,1 -7,3 -2,1 -3,4 -3,7zm34 22l0 -37 5 0 0 6c2,-3 3,-4 4,-5 2,-1 3,-1 4,-1 2,0 5,0 7,2l-3 5c-1,-1 -2,-1 -4,-1 -1,0 -3,0 -4,1 -1,1 -1,2 -2,4 -1,2 -1,4 -1,7l0 19 -6 0zm47 -5c-2,2 -4,4 -6,4 -3,1 -5,2 -7,2 -4,0 -7,-1 -10,-3 -2,-2 -3,-5 -3,-8 0,-2 1,-3 1,-5 1,-1 2,-2 4,-3 1,-1 2,-2 4,-2 1,-1 3,-1 6,-1 5,-1 8,-1 11,-2 0,-1 0,-2 0,-2 0,-2 -1,-4 -2,-5 -2,-2 -4,-2 -7,-2 -3,0 -5,0 -7,1 -1,1 -2,3 -3,6l-6 -1c1,-3 2,-5 3,-6 1,-2 3,-3 5,-4 3,-1 6,-1 9,-1 3,0 5,0 7,1 2,0 4,1 5,2 1,2 1,3 2,5 0,1 0,3 0,5l0 9c0,5 0,9 0,10 1,2 1,3 2,5l-7 0c0,-1 -1,-3 -1,-5zm0 -13c-3,0 -6,1 -10,2 -3,0 -5,1 -6,1 -1,1 -2,1 -2,2 -1,1 -1,2 -1,3 0,2 0,3 2,4 1,1 3,2 5,2 3,0 5,-1 7,-2 1,-1 3,-2 4,-4 0,-1 1,-3 1,-6l0 -2zm39 4l6 1c0,4 -2,8 -5,10 -3,2 -6,4 -10,4 -5,0 -9,-2 -12,-5 -3,-4 -4,-8 -4,-14 0,-4 0,-8 1,-11 2,-2 4,-5 6,-6 3,-2 6,-2 9,-2 4,0 7,1 10,3 2,2 4,4 5,8l-6 1c-1,-2 -2,-4 -3,-5 -2,-2 -4,-2 -6,-2 -3,0 -5,1 -7,3 -2,2 -3,6 -3,11 0,4 1,8 3,10 2,2 4,4 7,4 2,0 4,-1 6,-3 2,-1 3,-3 3,-7zm-14 20l2 -6 4 0 -1 3c2,1 3,1 4,2 1,1 2,2 2,3 0,2 -1,4 -3,5 -1,1 -4,2 -7,2 -2,0 -4,0 -5,0l0 -4c2,0 3,0 4,0 2,0 3,-1 4,-1 1,-1 1,-1 1,-2 0,0 0,-1 0,-1 -1,0 -1,-1 -2,-1 0,0 -2,0 -3,0zm49 -11c-2,2 -4,4 -6,4 -3,1 -5,2 -7,2 -4,0 -7,-1 -9,-3 -3,-2 -4,-5 -4,-8 0,-2 1,-3 2,-5 0,-1 1,-2 3,-3 1,-1 3,-2 4,-2 1,-1 3,-1 6,-1 5,-1 8,-1 11,-2 0,-1 0,-2 0,-2 0,-2 -1,-4 -2,-5 -2,-2 -4,-2 -7,-2 -3,0 -5,0 -6,1 -2,1 -3,3 -4,6l-6 -1c1,-3 2,-5 3,-6 1,-2 3,-3 6,-4 2,-1 5,-1 8,-1 3,0 6,0 7,1 2,0 4,1 5,2 1,2 1,3 2,5 0,1 0,3 0,5l0 9c0,5 0,9 0,10 1,2 1,3 2,5l-7 0c0,-1 -1,-3 -1,-5zm0 -13c-3,0 -6,1 -10,2 -3,0 -5,1 -6,1 -1,1 -2,1 -2,2 -1,1 -1,2 -1,3 0,2 1,3 2,4 1,1 3,2 5,2 3,0 5,-1 7,-2 1,-1 3,-2 4,-4 0,-1 1,-3 1,-6l0 -2zm-20 -23c0,-2 0,-4 2,-6 1,-1 3,-2 5,-2 1,0 3,1 5,2 2,1 3,1 4,1 0,0 1,0 1,-1 1,0 1,-1 1,-2l5 0c-1,3 -1,5 -2,6 -2,1 -3,2 -5,2 -2,0 -3,-1 -6,-2 -1,-1 -2,-1 -3,-1 -1,0 -2,0 -2,1 -1,0 -1,1 -1,2l-4 0zm33 23c0,-7 2,-12 6,-15 3,-3 7,-4 11,-4 5,0 9,1 12,5 4,3 5,7 5,13 0,5 0,8 -2,11 -1,3 -3,5 -6,6 -3,2 -6,3 -9,3 -5,0 -9,-2 -12,-5 -3,-4 -5,-8 -5,-14zm6 0c0,4 1,8 4,10 2,2 4,4 7,4 3,0 6,-2 8,-4 2,-2 3,-6 3,-11 0,-4 -1,-7 -3,-10 -2,-2 -5,-3 -8,-3 -3,0 -5,1 -7,3 -3,2 -4,6 -4,11zm37 18l0 -7 7 0 0 7c0,2 0,4 -1,6 -1,2 -3,3 -5,4l-1 -3c1,0 2,-1 3,-2 0,-2 1,-3 1,-5l-4 0zm38 0l0 -50 10 0 12 35c1,3 2,6 2,8 1,-2 2,-5 3,-8l12 -35 9 0 0 50 -6 0 0 -42 -15 42 -6 0 -15 -43 0 43 -6 0zm83 -12l6 1c-1,4 -3,6 -5,9 -3,2 -7,3 -11,3 -5,0 -9,-2 -12,-5 -4,-4 -5,-8 -5,-14 0,-6 1,-11 5,-14 3,-4 7,-5 12,-5 5,0 9,1 12,5 3,3 4,8 4,14 0,0 0,0 0,1l-27 0c0,4 2,7 4,9 2,2 4,4 7,4 2,0 4,-1 6,-2 2,-1 3,-3 4,-6zm-20 -10l20 0c0,-3 -1,-5 -2,-7 -2,-2 -5,-3 -8,-3 -3,0 -5,1 -7,3 -2,1 -3,4 -3,7zm34 -21l0 -7 6 0 0 7 -6 0zm0 43l0 -37 6 0 0 37 -6 0zm13 -18c0,-7 2,-12 6,-15 3,-3 7,-4 11,-4 5,0 9,1 13,5 3,3 4,7 4,13 0,5 0,8 -2,11 -1,3 -3,5 -6,6 -3,2 -6,3 -9,3 -5,0 -9,-2 -12,-5 -3,-4 -5,-8 -5,-14zm7 0c0,4 1,8 3,10 2,2 4,4 7,4 3,0 6,-2 8,-4 2,-2 3,-6 3,-11 0,-4 -1,-7 -3,-10 -2,-2 -5,-3 -8,-3 -3,0 -5,1 -7,3 -2,2 -3,6 -3,11zm45 18l20 -50 7 0 20 50 -7 0 -6 -15 -21 0 -6 15 -7 0zm15 -21l17 0 -5 -14c-2,-4 -3,-7 -4,-10 -1,3 -1,6 -3,9l-5 15zm37 21l0 -37 6 0 0 6c1,-2 2,-4 4,-5 2,-1 4,-1 7,-1 2,0 4,0 6,1 2,1 3,3 4,5 3,-4 6,-6 11,-6 4,0 6,1 8,3 2,2 3,5 3,9l0 25 -6 0 0 -23c0,-3 0,-4 0,-5 -1,-2 -2,-2 -3,-3 -1,-1 -2,-1 -3,-1 -3,0 -5,1 -7,2 -1,2 -2,5 -2,9l0 21 -6 0 0 -24c0,-3 -1,-5 -2,-6 -1,-1 -3,-2 -5,-2 -2,0 -3,0 -5,1 -1,1 -2,3 -3,4 -1,2 -1,5 -1,8l0 19 -6 0zm64 0l-6 0 0 -50 7 0 0 17c2,-3 5,-4 10,-4 2,0 4,0 6,1 2,1 3,2 5,4 1,1 2,3 3,6 1,2 1,4 1,7 0,6 -2,11 -5,14 -3,4 -6,6 -11,6 -4,0 -7,-2 -10,-6l0 5zm0 -19c0,5 1,8 2,10 2,3 4,5 8,5 2,0 5,-2 7,-4 2,-2 3,-6 3,-10 0,-5 -1,-9 -3,-11 -2,-2 -4,-3 -7,-3 -3,0 -5,1 -7,3 -2,3 -3,6 -3,10zm33 -24l0 -7 7 0 0 7 -7 0zm0 43l0 -37 7 0 0 37 -7 0zm41 -12l6 1c-1,4 -3,6 -5,9 -3,2 -6,3 -11,3 -5,0 -9,-2 -12,-5 -3,-4 -5,-8 -5,-14 0,-6 2,-11 5,-14 3,-4 7,-5 12,-5 5,0 9,1 12,5 3,3 4,8 4,14 0,0 0,0 0,1l-27 0c1,4 2,7 4,9 2,2 4,4 7,4 3,0 4,-1 6,-2 2,-1 3,-3 4,-6zm-20 -10l20 0c0,-3 -1,-5 -2,-7 -2,-2 -5,-3 -8,-3 -3,0 -5,1 -7,3 -2,1 -3,4 -3,7zm34 22l0 -37 6 0 0 6c2,-4 6,-6 11,-6 2,0 4,0 6,1 2,1 3,2 4,3 1,1 2,3 2,4 0,2 1,4 1,6l0 23 -7 0 0 -22c0,-3 0,-5 0,-6 -1,-1 -2,-2 -3,-3 -1,-1 -2,-1 -4,-1 -3,0 -5,1 -7,2 -2,2 -3,5 -3,10l0 20 -6 0zm52 -6l1 6c-1,0 -3,0 -4,0 -3,0 -4,0 -6,-1 -1,0 -2,-1 -2,-3 -1,-1 -1,-3 -1,-7l0 -21 -4 0 0 -5 4 0 0 -9 6 -3 0 12 6 0 0 5 -6 0 0 21c0,2 0,3 1,4 0,0 0,1 1,1 0,0 1,1 2,1 0,0 1,-1 2,-1zm31 -6l7 1c-1,4 -3,6 -6,9 -2,2 -6,3 -10,3 -5,0 -10,-2 -13,-5 -3,-4 -4,-8 -4,-14 0,-6 1,-11 4,-14 3,-4 7,-5 12,-5 5,0 9,1 12,5 3,3 5,8 5,14 0,0 0,0 0,1l-27 0c0,4 1,7 3,9 2,2 5,4 8,4 2,0 4,-1 6,-2 1,-1 2,-3 3,-6zm-20 -10l20 0c0,-3 -1,-5 -2,-7 -2,-2 -4,-3 -7,-3 -3,0 -6,1 -8,3 -2,1 -3,4 -3,7zm79 10l6 1c-1,4 -3,6 -5,9 -3,2 -6,3 -11,3 -5,0 -9,-2 -12,-5 -3,-4 -5,-8 -5,-14 0,-6 2,-11 5,-14 3,-4 7,-5 12,-5 5,0 9,1 12,5 3,3 5,8 5,14 0,0 0,0 -1,1l-27 0c1,4 2,7 4,9 2,2 4,4 7,4 3,0 5,-1 6,-2 2,-1 3,-3 4,-6zm-20 -10l20 0c0,-3 -1,-5 -2,-7 -2,-2 -5,-3 -8,-3 -3,0 -5,1 -7,3 -2,1 -3,4 -3,7zm-857 84l7 -1c0,3 1,5 2,7 1,1 3,3 5,4 2,1 5,1 8,1 2,0 4,0 6,-1 2,-1 4,-2 5,-3 1,-1 1,-3 1,-4 0,-2 0,-3 -1,-5 -1,-1 -3,-2 -5,-2 -1,-1 -4,-2 -9,-3 -4,-1 -8,-2 -10,-3 -2,-1 -4,-3 -5,-5 -1,-2 -2,-4 -2,-6 0,-3 1,-5 3,-7 1,-2 3,-4 6,-5 3,-1 6,-2 9,-2 4,0 7,1 10,2 3,1 5,3 6,5 2,3 3,5 3,8l-6 1c-1,-4 -2,-6 -4,-8 -2,-1 -5,-2 -9,-2 -4,0 -7,1 -8,2 -2,2 -3,3 -3,6 0,1 0,3 2,4 1,1 4,2 10,4 5,1 9,2 11,3 3,1 5,3 6,5 2,2 2,4 2,7 0,3 0,5 -2,8 -1,2 -4,4 -6,5 -3,1 -7,2 -10,2 -5,0 -8,-1 -12,-2 -3,-1 -5,-3 -7,-6 -1,-3 -2,-6 -3,-9zm46 -2c0,-7 2,-12 6,-15 3,-3 7,-4 11,-4 5,0 10,2 13,5 3,3 4,8 4,13 0,5 0,9 -2,11 -1,3 -3,5 -6,7 -2,1 -5,2 -9,2 -5,0 -9,-2 -12,-5 -3,-3 -5,-8 -5,-14zm7 0c0,5 1,8 3,10 2,3 4,4 7,4 4,0 6,-1 8,-4 2,-2 3,-5 3,-10 0,-5 -1,-8 -3,-10 -2,-3 -5,-4 -8,-4 -3,0 -5,1 -7,4 -2,2 -3,5 -3,10zm59 5l6 1c-1,4 -3,7 -6,9 -2,3 -6,4 -10,4 -5,0 -9,-2 -12,-5 -3,-3 -4,-8 -4,-14 0,-4 1,-7 2,-10 1,-3 3,-5 6,-7 2,-1 5,-2 8,-2 4,0 8,1 10,3 3,2 4,5 5,9l-6 0c-1,-2 -2,-4 -3,-5 -1,-1 -3,-2 -5,-2 -3,0 -6,1 -8,3 -2,3 -3,6 -3,11 0,5 1,8 3,11 2,2 4,3 7,3 3,0 5,-1 6,-2 2,-2 3,-4 4,-7zm11 -30l0 -7 6 0 0 7 -6 0zm0 43l0 -36 6 0 0 36 -6 0zm40 -12l7 1c-1,4 -3,7 -6,9 -3,2 -6,3 -10,3 -6,0 -10,-2 -13,-5 -3,-3 -5,-8 -5,-14 0,-6 2,-11 5,-14 3,-3 7,-5 12,-5 5,0 9,2 12,5 3,3 5,8 5,14 0,0 0,1 0,2l-27 0c0,4 1,7 3,9 2,2 5,3 8,3 2,0 4,-1 5,-2 2,-1 3,-3 4,-6zm-20 -9l20 0c0,-4 -1,-6 -2,-7 -2,-3 -5,-4 -8,-4 -2,0 -5,1 -7,3 -2,2 -3,4 -3,8zm58 21l0 -4c-2,3 -6,5 -10,5 -3,0 -6,-1 -8,-2 -3,-2 -5,-4 -6,-7 -1,-3 -2,-6 -2,-10 0,-4 1,-7 2,-10 1,-3 3,-5 5,-7 3,-1 5,-2 8,-2 3,0 5,0 6,1 2,1 3,3 4,4l0 -18 7 0 0 50 -6 0zm-20 -18c0,5 1,8 3,10 2,3 5,4 7,4 3,0 5,-1 7,-3 2,-3 3,-6 3,-10 0,-5 -1,-9 -3,-11 -2,-3 -4,-4 -7,-4 -3,0 -5,1 -7,3 -2,3 -3,6 -3,11zm59 14c-2,2 -4,3 -6,4 -3,1 -5,1 -7,1 -4,0 -7,-1 -9,-3 -3,-2 -4,-4 -4,-7 0,-2 1,-4 2,-5 0,-2 1,-3 3,-4 1,-1 3,-1 4,-2 1,0 3,0 6,-1 5,0 8,-1 11,-2 0,-1 0,-1 0,-1 0,-3 -1,-5 -2,-6 -2,-1 -4,-2 -7,-2 -3,0 -5,1 -7,2 -1,1 -2,2 -3,5l-6 -1c1,-2 2,-4 3,-6 1,-2 3,-3 6,-4 2,-1 5,-1 8,-1 3,0 5,0 7,1 2,1 4,2 5,3 1,1 1,2 2,4 0,1 0,3 0,6l0 8c0,6 0,9 0,11 1,1 1,3 2,4l-7 0c0,-1 -1,-3 -1,-4zm0 -14c-3,1 -6,2 -10,2 -3,1 -5,1 -6,1 -1,1 -2,2 -2,2 -1,1 -1,2 -1,3 0,2 1,3 2,4 1,2 3,2 5,2 3,0 5,0 7,-1 1,-1 3,-3 4,-5 0,-1 1,-3 1,-6l0 -2zm39 18l0 -4c-2,3 -6,5 -10,5 -3,0 -6,-1 -8,-2 -3,-2 -5,-4 -6,-7 -1,-3 -2,-6 -2,-10 0,-4 1,-7 2,-10 1,-3 3,-5 5,-7 3,-1 6,-2 9,-2 2,0 4,0 5,1 2,1 3,3 5,4l0 -18 6 0 0 50 -6 0zm-20 -18c0,5 1,8 3,10 2,3 5,4 7,4 3,0 5,-1 7,-3 2,-3 3,-6 3,-10 0,-5 -1,-9 -3,-11 -2,-3 -4,-4 -7,-4 -3,0 -5,1 -7,3 -2,3 -3,6 -3,11zm60 6l7 1c-1,4 -3,7 -6,9 -3,2 -6,3 -10,3 -6,0 -10,-2 -13,-5 -3,-3 -5,-8 -5,-14 0,-6 2,-11 5,-14 3,-3 7,-5 12,-5 5,0 9,2 12,5 3,3 5,8 5,14 0,0 0,1 0,2l-27 0c0,4 1,7 3,9 2,2 5,3 8,3 2,0 4,-1 6,-2 1,-1 2,-3 3,-6zm-20 -9l20 0c0,-4 -1,-6 -2,-7 -2,-3 -4,-4 -8,-4 -2,0 -5,1 -7,3 -2,2 -3,4 -3,8z"/>
  </g>
 </g>
</svg>
