<?xml version="1.0" encoding="UTF-8"?>
<!DOCTYPE svg PUBLIC "-//W3C//DTD SVG 1.1//EN" "http://www.w3.org/Graphics/SVG/1.1/DTD/svg11.dtd">
<!-- Creator: CorelDRAW X7 -->
<svg xmlns="http://www.w3.org/2000/svg" xml:space="preserve" width="1189px" height="1773px" version="1.1" style="shape-rendering:geometricPrecision; text-rendering:geometricPrecision; image-rendering:optimizeQuality; fill-rule:evenodd; clip-rule:evenodd"
viewBox="0 0 1189 1773"
 xmlns:xlink="http://www.w3.org/1999/xlink">
 <defs>
  <style type="text/css">
   <![CDATA[
    .str0 {stroke:#F09F65;stroke-width:2.36221}
    .fil2 {fill:#3F3D56}
    .fil1 {fill:#EE4622}
    .fil0 {fill:#F09F65}
    .fil3 {fill:white}
   ]]>
  </style>
 </defs>
 <g id="Camada_x0020_1">
  <metadata id="CorelCorpID_0Corel-Layer"/>
  <g id="_2587265984912">
   <rect class="fil0 str0" transform="matrix(-2.51426E-014 -0.941639 -0.941639 2.51426E-014 1188.94 1772.97)" width="1883" height="1263" rx="5" ry="5"/>
   <path class="fil1" d="M95 728l0 -117 15 0 0 103 58 0 0 14 -73 0zm148 -27l15 2c-3,8 -7,15 -13,20 -7,4 -15,7 -25,7 -12,0 -22,-4 -29,-12 -8,-7 -11,-18 -11,-32 0,-14 3,-25 11,-33 7,-8 17,-12 28,-12 12,0 21,4 28,12 7,7 11,18 11,32 0,1 0,3 0,4l-63 0c0,10 3,17 7,22 5,5 11,7 18,7 5,0 10,-1 14,-4 3,-3 6,-7 9,-13zm-48 -24l48 0c-1,-7 -3,-12 -6,-16 -4,-5 -10,-8 -17,-8 -7,0 -13,2 -17,7 -5,4 -7,10 -8,17zm81 -50l0 -16 14 0 0 16 -14 0zm0 101l0 -85 14 0 0 85 -14 0zm67 -13l2 13c-4,1 -7,1 -10,1 -6,0 -10,-1 -13,-2 -2,-2 -4,-4 -6,-7 -1,-2 -1,-8 -1,-17l0 -49 -11 0 0 -11 11 0 0 -21 14 -9 0 30 14 0 0 11 -14 0 0 50c0,4 0,7 1,8 0,1 1,2 2,3 1,0 3,1 5,1 2,0 4,0 6,-1zm70 13l0 -13c-6,10 -15,15 -27,15 -5,0 -9,-1 -14,-3 -4,-2 -7,-4 -9,-7 -2,-3 -4,-7 -5,-11 0,-3 -1,-7 -1,-13l0 -53 15 0 0 47c0,8 0,13 1,15 1,4 3,7 5,9 3,2 7,3 11,3 5,0 9,-1 12,-3 4,-2 7,-5 8,-9 2,-4 3,-9 3,-17l0 -45 14 0 0 85 -13 0zm36 0l0 -85 13 0 0 13c3,-6 6,-10 9,-12 3,-2 6,-3 9,-3 5,0 10,2 15,5l-5 13c-4,-2 -7,-3 -11,-3 -3,0 -6,1 -8,3 -3,2 -4,4 -5,8 -2,5 -3,11 -3,17l0 44 -14 0zm110 -11c-5,5 -10,8 -15,10 -5,2 -11,3 -16,3 -10,0 -17,-2 -22,-7 -5,-4 -7,-10 -7,-17 0,-5 1,-8 2,-12 2,-3 5,-6 8,-8 3,-2 6,-4 10,-5 3,0 7,-1 13,-2 12,-1 20,-3 26,-5 0,-2 0,-3 0,-4 0,-5 -1,-10 -4,-12 -4,-3 -9,-5 -17,-5 -6,0 -11,1 -15,4 -3,2 -5,6 -7,12l-14 -2c1,-6 3,-11 6,-14 3,-4 8,-7 13,-9 6,-2 12,-3 20,-3 7,0 13,1 17,3 5,1 8,4 10,6 2,3 4,6 5,10 0,2 1,7 1,13l0 19c0,14 0,22 0,26 1,3 2,7 4,10l-15 0c-2,-3 -2,-7 -3,-11zm-1 -32c-5,3 -13,4 -24,6 -6,1 -10,2 -12,3 -3,1 -5,2 -6,4 -1,2 -2,5 -2,7 0,4 1,7 4,10 3,2 8,4 13,4 6,0 11,-2 15,-4 4,-2 8,-6 10,-10 1,-3 2,-8 2,-14l0 -6zm137 43l0 -11c-5,9 -13,13 -24,13 -6,0 -13,-2 -18,-6 -6,-3 -10,-9 -13,-15 -4,-7 -5,-15 -5,-23 0,-9 1,-17 4,-23 3,-7 7,-13 13,-16 5,-4 12,-6 19,-6 5,0 9,1 13,3 4,3 8,5 10,9l0 -42 15 0 0 117 -14 0zm-45 -42c0,11 2,19 7,24 4,5 10,8 16,8 6,0 12,-2 16,-8 4,-5 7,-13 7,-23 0,-12 -3,-20 -7,-26 -5,-5 -10,-8 -17,-8 -6,0 -12,3 -16,8 -4,5 -6,13 -6,25zm140 15l14 2c-2,8 -6,15 -13,20 -6,4 -14,7 -24,7 -12,0 -22,-4 -29,-12 -8,-7 -11,-18 -11,-32 0,-14 3,-25 11,-33 7,-8 17,-12 28,-12 12,0 21,4 28,12 7,7 11,18 11,32 0,1 0,3 0,4l-64 0c1,10 4,17 8,22 5,5 11,7 18,7 5,0 10,-1 14,-4 3,-3 6,-7 9,-13zm-48 -24l48 0c-1,-7 -3,-12 -6,-16 -4,-5 -10,-8 -18,-8 -6,0 -12,2 -16,7 -5,4 -7,10 -8,17zm-660 234l45 -117 17 0 48 117 -17 0 -14 -35 -49 0 -13 35 -17 0zm34 -48l40 0 -12 -32c-4,-10 -7,-19 -9,-25 -1,8 -3,15 -6,23l-13 34zm87 48l0 -85 13 0 0 12c2,-4 6,-7 10,-10 5,-2 10,-4 15,-4 7,0 12,2 16,4 4,3 7,7 8,11 7,-10 16,-15 27,-15 8,0 15,3 19,7 5,5 7,12 7,22l0 58 -14 0 0 -53c0,-6 -1,-10 -2,-13 -1,-2 -2,-4 -5,-6 -2,-1 -5,-2 -8,-2 -6,0 -11,2 -15,6 -4,4 -6,10 -6,19l0 49 -15 0 0 -55c0,-6 -1,-11 -3,-14 -3,-4 -6,-5 -12,-5 -4,0 -8,1 -11,3 -3,2 -6,5 -8,9 -1,4 -2,10 -2,18l0 44 -14 0zm150 0l-14 0 0 -117 15 0 0 42c6,-8 13,-12 23,-12 5,0 10,1 15,3 4,3 8,6 11,9 3,4 6,9 7,14 2,6 3,11 3,17 0,15 -4,26 -11,34 -7,8 -16,12 -26,12 -10,0 -18,-4 -23,-12l0 10zm-1 -43c0,10 2,18 5,22 4,8 10,11 18,11 6,0 12,-2 16,-8 5,-5 7,-14 7,-24 0,-11 -2,-20 -6,-25 -5,-5 -10,-8 -16,-8 -7,0 -12,3 -17,8 -4,6 -7,14 -7,24zm79 -58l0 -16 14 0 0 16 -14 0zm0 101l0 -85 14 0 0 85 -14 0zm94 -27l15 2c-2,8 -7,15 -13,20 -6,5 -15,7 -24,7 -13,0 -23,-4 -30,-11 -7,-8 -11,-19 -11,-33 0,-14 4,-25 11,-33 8,-8 17,-12 29,-12 11,0 20,4 28,12 7,8 10,19 10,33 0,0 0,2 0,3l-63 0c0,10 3,17 8,22 5,5 11,7 18,7 5,0 9,-1 13,-4 4,-3 7,-7 9,-13zm-47 -23l47 0c0,-8 -2,-13 -5,-17 -5,-5 -11,-8 -18,-8 -7,0 -12,2 -17,7 -4,4 -7,10 -7,18zm80 50l0 -85 13 0 0 12c6,-9 15,-14 27,-14 5,0 10,1 14,3 5,2 8,4 10,7 2,3 4,7 4,11 1,3 1,7 1,14l0 52 -14 0 0 -51c0,-6 -1,-11 -2,-14 -1,-3 -3,-5 -6,-7 -3,-1 -6,-2 -10,-2 -6,0 -11,2 -16,6 -4,4 -6,11 -6,22l0 46 -15 0zm123 -13l2 13c-4,1 -8,1 -11,1 -5,0 -9,0 -12,-2 -3,-2 -5,-4 -6,-7 -2,-2 -2,-8 -2,-17l0 -49 -11 0 0 -11 11 0 0 -21 14 -9 0 30 15 0 0 11 -15 0 0 50c0,4 0,7 1,8 0,1 1,2 2,3 2,1 3,1 5,1 2,0 4,0 7,-1zm72 -14l15 2c-2,8 -7,15 -13,20 -6,5 -15,7 -24,7 -13,0 -23,-4 -30,-11 -7,-8 -11,-19 -11,-33 0,-14 4,-25 11,-33 7,-8 17,-12 29,-12 11,0 20,4 28,12 7,8 10,19 10,33 0,0 0,2 0,3l-63 0c0,10 3,17 8,22 5,5 10,7 18,7 5,0 9,-1 13,-4 4,-3 7,-7 9,-13zm-47 -23l47 0c-1,-8 -2,-13 -5,-17 -5,-5 -11,-8 -18,-8 -7,0 -12,2 -17,7 -4,4 -7,10 -7,18zm74 25l15 -2c0,5 3,10 6,13 4,3 9,4 16,4 6,0 11,-1 14,-4 4,-2 5,-6 5,-9 0,-4 -1,-6 -4,-8 -2,-1 -7,-3 -15,-5 -10,-2 -18,-5 -22,-7 -4,-2 -7,-4 -9,-8 -2,-3 -3,-7 -3,-11 0,-4 1,-7 2,-11 2,-3 4,-6 7,-8 3,-1 6,-3 10,-4 4,-1 8,-2 12,-2 7,0 13,1 18,3 5,2 8,5 11,8 2,3 4,8 5,13l-14 2c-1,-4 -3,-8 -6,-10 -3,-3 -7,-4 -13,-4 -6,0 -11,1 -14,3 -3,3 -4,5 -4,8 0,2 0,4 1,5 2,2 3,3 6,4 1,1 6,2 13,4 10,2 17,5 21,6 4,2 7,5 10,8 2,3 3,7 3,12 0,5 -1,10 -4,14 -3,4 -7,7 -12,10 -6,2 -12,3 -18,3 -11,0 -20,-2 -26,-7 -5,-4 -9,-11 -11,-20zm-632 208l0 -10c-5,8 -13,12 -23,12 -7,0 -13,-2 -19,-5 -6,-4 -10,-9 -13,-16 -3,-7 -5,-14 -5,-23 0,-8 1,-16 4,-23 3,-7 7,-12 13,-16 6,-4 12,-5 19,-5 5,0 10,1 14,3 4,2 7,5 9,8l0 -42 15 0 0 117 -14 0zm-45 -42c0,11 2,19 7,24 4,6 10,8 16,8 6,0 12,-2 16,-7 4,-5 7,-13 7,-24 0,-11 -3,-20 -7,-25 -5,-6 -10,-8 -17,-8 -6,0 -12,2 -16,7 -4,6 -6,14 -6,25zm137 32c-5,4 -10,8 -15,9 -5,2 -11,3 -16,3 -10,0 -17,-2 -22,-7 -5,-4 -7,-10 -7,-17 0,-4 1,-8 2,-11 2,-4 5,-7 8,-9 3,-2 6,-3 10,-4 3,-1 7,-2 13,-3 12,-1 20,-3 26,-5 0,-1 0,-3 0,-3 0,-6 -1,-10 -4,-13 -4,-3 -9,-4 -17,-4 -6,0 -11,1 -15,3 -3,2 -5,7 -7,13l-14 -2c1,-6 3,-11 6,-15 3,-4 8,-6 13,-8 6,-2 12,-3 20,-3 7,0 13,0 17,2 5,2 8,4 10,7 3,2 4,5 5,9 0,3 1,7 1,14l0 19c0,13 0,22 0,25 1,4 2,7 4,10l-15 0c-2,-3 -2,-6 -3,-10zm-1 -32c-5,2 -13,4 -24,5 -6,1 -10,2 -12,3 -3,1 -5,3 -6,5 -1,2 -2,4 -2,7 0,3 2,7 4,9 3,3 8,4 13,4 6,0 11,-1 15,-4 4,-2 8,-5 10,-10 1,-3 2,-8 2,-14l0 -5zm84 42l0 -117 23 0 28 83c2,8 4,14 5,18 2,-5 4,-11 7,-19l28 -82 21 0 0 117 -15 0 0 -98 -34 98 -14 0 -34 -100 0 100 -15 0zm135 -101l0 -16 14 0 0 16 -14 0zm0 101l0 -85 14 0 0 85 -14 0zm36 0l0 -85 13 0 0 12c7,-9 16,-13 27,-13 5,0 10,0 14,2 5,2 8,5 10,8 2,3 4,6 5,10 0,3 0,8 0,14l0 52 -14 0 0 -51c0,-6 -1,-11 -2,-13 -1,-3 -3,-6 -6,-7 -3,-2 -6,-3 -10,-3 -6,0 -11,2 -16,6 -4,4 -6,11 -6,22l0 46 -15 0zm150 -27l14 2c-2,9 -6,15 -13,20 -6,5 -14,7 -24,7 -12,0 -22,-4 -29,-11 -8,-8 -11,-19 -11,-32 0,-15 3,-26 11,-34 7,-8 17,-11 28,-11 12,0 21,3 28,11 7,8 11,19 11,33 0,1 0,2 0,4l-63 0c0,9 3,16 7,21 5,5 11,7 18,7 5,0 10,-1 14,-4 3,-3 6,-7 9,-13zm-48 -23l48 0c-1,-7 -3,-13 -6,-16 -4,-6 -10,-9 -18,-9 -6,0 -12,3 -16,7 -5,4 -7,10 -8,18zm81 50l0 -85 13 0 0 13c3,-6 6,-10 9,-12 2,-2 6,-2 9,-2 5,0 10,1 15,4l-5 13c-4,-2 -7,-3 -11,-3 -3,0 -6,1 -8,3 -3,2 -5,5 -6,8 -1,5 -2,11 -2,17l0 44 -14 0zm110 -10c-5,4 -11,8 -16,9 -5,2 -10,3 -16,3 -9,0 -16,-2 -21,-7 -5,-4 -8,-10 -8,-17 0,-4 1,-8 3,-11 2,-4 5,-7 8,-9 3,-2 6,-3 10,-4 3,-1 7,-2 13,-3 12,-1 20,-3 26,-5 0,-1 0,-3 0,-3 0,-6 -2,-10 -4,-13 -4,-3 -10,-4 -17,-4 -7,0 -12,1 -15,3 -3,2 -5,7 -7,13l-14 -2c1,-6 3,-11 6,-15 3,-4 7,-6 13,-8 6,-2 12,-3 19,-3 8,0 14,0 18,2 5,2 8,4 10,7 2,2 4,5 5,9 0,3 0,7 0,14l0 19c0,13 1,22 1,25 1,4 2,7 4,10l-15 0c-2,-3 -3,-6 -3,-10zm-1 -32c-5,2 -13,4 -24,5 -6,1 -10,2 -12,3 -3,1 -5,3 -6,5 -2,2 -2,4 -2,7 0,3 1,7 4,9 3,3 7,4 13,4 6,0 10,-1 15,-4 4,-2 7,-5 9,-10 2,-3 3,-8 3,-14l0 -5zm92 11l14 2c-1,10 -5,18 -12,23 -6,6 -14,8 -23,8 -12,0 -21,-4 -28,-11 -7,-8 -11,-19 -11,-33 0,-9 2,-17 5,-24 3,-7 7,-12 14,-15 6,-4 13,-5 20,-5 9,0 17,2 23,7 5,4 9,11 11,19l-14 3c-1,-6 -4,-10 -7,-13 -4,-3 -8,-5 -12,-5 -8,0 -14,3 -18,8 -5,5 -7,14 -7,25 0,11 2,20 7,25 4,5 10,7 17,7 5,0 10,-1 14,-5 4,-3 6,-9 7,-16zm-34 46l5 -15 10 0 -2 9c4,1 8,2 10,4 2,2 3,5 3,8 0,4 -2,7 -5,10 -4,3 -10,5 -18,5 -4,0 -8,0 -12,0l1 -10c4,0 6,0 8,0 5,0 9,-1 11,-2 1,-1 2,-3 2,-4 0,-1 0,-2 -1,-3 -1,0 -2,-1 -3,-2 -2,0 -5,0 -9,0zm116 -25c-5,4 -10,8 -15,9 -5,2 -11,3 -16,3 -10,0 -17,-2 -22,-7 -5,-4 -7,-10 -7,-17 0,-4 1,-8 2,-11 2,-4 5,-7 8,-9 3,-2 6,-3 10,-4 3,-1 7,-2 13,-3 12,-1 20,-3 26,-5 0,-1 0,-3 0,-3 0,-6 -1,-10 -4,-13 -4,-3 -9,-4 -17,-4 -6,0 -11,1 -15,3 -3,2 -5,7 -7,13l-14 -2c1,-6 3,-11 6,-15 3,-4 8,-6 13,-8 6,-2 12,-3 20,-3 7,0 13,0 17,2 5,2 8,4 10,7 2,2 4,5 5,9 0,3 1,7 1,14l0 19c0,13 0,22 0,25 1,4 2,7 4,10l-15 0c-2,-3 -3,-6 -3,-10zm-1 -32c-5,2 -13,4 -24,5 -6,1 -10,2 -12,3 -3,1 -5,3 -6,5 -1,2 -2,4 -2,7 0,3 1,7 4,9 3,3 8,4 13,4 6,0 11,-1 15,-4 4,-2 8,-5 10,-10 1,-3 2,-8 2,-14l0 -5zm-47 -53c0,-5 2,-10 5,-13 3,-3 7,-5 11,-5 4,0 8,1 14,4 3,2 5,3 7,3 2,0 3,-1 4,-2 1,-1 2,-3 2,-5l10 0c0,6 -1,10 -4,13 -3,3 -7,5 -11,5 -3,0 -8,-2 -13,-5 -4,-2 -7,-3 -8,-3 -2,0 -4,1 -5,2 -1,2 -1,4 -1,6l-11 0zm78 53c0,-16 5,-27 13,-35 8,-6 17,-9 27,-9 12,0 21,3 29,11 7,8 11,18 11,32 0,11 -2,19 -5,25 -3,7 -8,12 -14,15 -7,4 -13,5 -21,5 -12,0 -21,-4 -29,-11 -7,-8 -11,-19 -11,-33zm15 0c0,11 2,19 7,24 5,6 11,8 18,8 7,0 13,-2 18,-8 5,-5 7,-13 7,-25 0,-10 -2,-18 -7,-23 -5,-6 -11,-8 -18,-8 -7,0 -13,2 -18,8 -5,5 -7,13 -7,24z"/>
   <path class="fil2" d="M247 364c18,20 30,36 58,43 45,11 144,-17 193,-31 11,-4 25,-7 36,-12 6,-1 14,-4 20,-6l136 -46c53,-17 105,-35 158,-50 27,-8 53,-17 80,-23 67,-16 196,-40 261,-36l0 -5c-47,-4 -123,8 -171,17 -62,11 -98,19 -159,38 -101,31 -201,64 -301,97 -57,19 -181,59 -240,54 -32,-4 -46,-19 -65,-40 -7,-8 -20,-23 -25,-32 -7,-10 -17,-20 -26,-29 -55,-55 -120,-79 -183,-104l-18 -6 -1 4 36 15c44,17 93,36 133,68 16,12 29,24 42,39 9,10 31,41 36,45z"/>
   <path class="fil2" d="M80 1514l0 -68 13 0 16 48c2,4 3,8 3,10 1,-3 2,-6 4,-11l16 -47 12 0 0 68 -8 0 0 -57 -20 57 -8 0 -20 -58 0 58 -8 0zm109 -7c-3,3 -6,5 -9,6 -2,1 -5,2 -9,2 -5,0 -9,-2 -12,-4 -3,-3 -4,-6 -4,-10 0,-3 0,-5 1,-7 1,-2 3,-3 4,-5 2,-1 4,-2 6,-2 2,-1 5,-1 8,-2 7,0 11,-1 15,-2 0,-2 0,-2 0,-3 0,-3 -1,-5 -3,-7 -2,-2 -5,-3 -9,-3 -4,0 -7,1 -9,3 -2,1 -3,3 -4,7l-8 -1c1,-4 2,-7 4,-9 1,-2 4,-3 7,-5 3,-1 7,-1 11,-1 4,0 8,0 10,1 3,1 5,2 6,4 1,1 2,3 3,5 0,2 0,4 0,8l0 11c0,8 0,13 1,15 0,2 1,4 2,6l-9 0c-1,-2 -1,-4 -2,-7zm0 -18c-3,1 -8,2 -14,3 -3,1 -6,1 -7,2 -2,0 -3,1 -3,2 -1,2 -2,3 -2,4 0,3 1,4 3,6 2,1 4,2 7,2 3,0 6,-1 9,-2 2,-1 4,-3 5,-6 1,-2 2,-4 2,-8l0 -3zm21 25l0 -49 7 0 0 7c2,-3 4,-6 5,-7 2,-1 4,-1 6,-1 2,0 5,1 8,2l-3 8c-2,-1 -4,-2 -6,-2 -2,0 -3,1 -5,2 -1,1 -2,2 -3,4 -1,3 -1,6 -1,10l0 26 -8 0zm63 -18l8 1c-1,5 -3,10 -7,13 -3,3 -8,5 -13,5 -7,0 -12,-3 -16,-7 -4,-4 -6,-11 -6,-19 0,-5 1,-10 2,-14 2,-3 5,-6 8,-8 4,-2 8,-3 12,-3 5,0 10,1 13,4 3,2 5,6 6,11l-8 1c0,-3 -2,-5 -4,-7 -2,-2 -4,-3 -7,-3 -4,0 -7,2 -10,5 -3,3 -4,8 -4,14 0,7 1,11 4,14 2,3 6,5 10,5 3,0 6,-1 8,-3 2,-2 3,-5 4,-9zm49 2l8 1c-1,5 -4,9 -7,11 -4,3 -9,5 -14,5 -7,0 -13,-3 -17,-7 -4,-4 -7,-11 -7,-18 0,-9 3,-15 7,-20 4,-4 9,-6 16,-6 7,0 12,2 16,6 4,5 6,11 6,19 0,1 0,1 0,2l-36 0c0,6 2,10 4,13 3,2 7,4 11,4 3,0 5,-1 7,-3 3,-1 4,-4 6,-7zm-28 -14l28 0c-1,-4 -2,-7 -3,-9 -3,-3 -7,-5 -11,-5 -4,0 -7,2 -9,4 -3,3 -4,6 -5,10zm46 30l0 -68 9 0 0 68 -9 0zm18 -25c0,-9 3,-16 8,-20 4,-4 9,-5 15,-5 7,0 12,2 17,6 4,5 6,11 6,18 0,7 -1,12 -3,15 -2,4 -4,7 -8,9 -4,2 -7,3 -12,3 -7,0 -12,-3 -16,-7 -5,-4 -7,-11 -7,-19zm9 0c0,6 1,11 4,14 3,3 6,5 10,5 4,0 8,-2 11,-5 2,-3 4,-8 4,-14 0,-6 -2,-11 -4,-14 -3,-3 -7,-5 -11,-5 -4,0 -7,2 -10,5 -3,3 -4,8 -4,14zm74 25l0 -68 9 0 0 28 35 0 0 -28 9 0 0 68 -9 0 0 -32 -35 0 0 32 -9 0zm100 -16l9 1c-1,5 -4,9 -8,11 -3,3 -8,5 -13,5 -8,0 -13,-3 -17,-7 -5,-4 -7,-11 -7,-18 0,-9 2,-15 7,-20 4,-4 9,-6 16,-6 7,0 12,2 16,6 4,5 6,11 6,19 0,1 0,1 0,2l-36 0c0,6 2,10 4,13 3,2 6,4 11,4 3,0 5,-1 7,-3 2,-1 4,-4 5,-7zm-27 -14l27 0c0,-4 -1,-7 -3,-9 -2,-3 -6,-5 -10,-5 -4,0 -7,2 -9,4 -3,3 -4,6 -5,10zm46 30l0 -49 8 0 0 7c3,-6 9,-8 15,-8 3,0 6,0 8,1 3,1 5,3 6,4 1,2 2,4 3,6 0,2 0,5 0,9l0 30 -8 0 0 -30c0,-4 -1,-6 -1,-8 -1,-1 -2,-3 -4,-4 -1,-1 -3,-1 -5,-1 -4,0 -7,1 -9,3 -3,2 -4,7 -4,13l0 27 -9 0zm53 0l0 -49 7 0 0 7c2,-3 4,-6 5,-7 2,-1 4,-1 6,-1 2,0 5,1 8,2l-3 8c-2,-1 -4,-2 -6,-2 -2,0 -3,1 -5,2 -1,1 -2,2 -3,4 -1,3 -1,6 -1,10l0 26 -8 0zm31 -58l0 -10 8 0 0 10 -8 0zm0 58l0 -49 8 0 0 49 -8 0zm52 18l0 -24c-1,2 -3,4 -5,5 -3,1 -5,2 -8,2 -5,0 -10,-3 -15,-7 -4,-5 -6,-11 -6,-19 0,-5 1,-10 3,-14 1,-3 4,-6 7,-8 3,-2 7,-3 11,-3 6,0 11,2 14,7l0 -6 7 0 0 67 -8 0zm-25 -43c0,6 1,11 4,14 2,3 5,5 9,5 4,0 7,-2 9,-5 3,-3 4,-7 4,-13 0,-7 -1,-12 -4,-15 -3,-3 -6,-5 -9,-5 -4,0 -7,2 -10,5 -2,3 -3,7 -3,14zm78 25l0 -8c-3,6 -9,9 -15,9 -3,0 -6,-1 -8,-2 -3,-1 -5,-3 -6,-4 -1,-2 -2,-4 -2,-6 -1,-2 -1,-5 -1,-8l0 -30 9 0 0 27c0,4 0,7 0,8 1,3 2,4 3,6 2,1 4,1 7,1 2,0 4,0 7,-1 2,-2 3,-4 4,-6 1,-2 1,-5 1,-9l0 -26 9 0 0 49 -8 0zm54 -16l9 1c-2,5 -4,9 -8,11 -3,3 -8,5 -14,5 -7,0 -13,-3 -17,-7 -4,-4 -6,-11 -6,-18 0,-9 2,-15 6,-20 5,-4 10,-6 17,-6 6,0 12,2 16,6 4,5 6,11 6,19 0,1 0,1 0,2l-36 0c0,6 1,10 4,13 3,2 6,4 10,4 3,0 6,-1 8,-3 2,-1 4,-4 5,-7zm-27 -14l27 0c0,-4 -1,-7 -3,-9 -3,-3 -6,-5 -10,-5 -4,0 -7,2 -10,4 -2,3 -4,6 -4,10zm-699 113l8 -1c1,4 2,6 3,9 2,2 4,4 7,5 3,1 7,2 10,2 4,0 7,-1 9,-2 3,-1 5,-2 6,-4 1,-2 2,-3 2,-6 0,-2 -1,-3 -2,-5 -1,-2 -3,-3 -6,-4 -2,-1 -6,-2 -12,-3 -6,-2 -10,-3 -13,-5 -3,-1 -5,-3 -7,-6 -2,-2 -2,-5 -2,-8 0,-4 1,-7 3,-10 1,-3 4,-5 8,-7 4,-1 8,-2 12,-2 5,0 10,1 14,3 3,1 6,4 8,7 2,3 4,6 4,10l-9 1c0,-4 -2,-7 -5,-10 -2,-2 -6,-3 -11,-3 -6,0 -10,1 -12,3 -3,2 -4,4 -4,7 0,3 1,5 3,6 2,2 6,3 13,5 8,2 12,3 15,4 4,2 7,4 9,7 2,3 3,6 3,10 0,3 -1,7 -3,10 -2,3 -5,5 -9,7 -4,2 -8,3 -13,3 -6,0 -11,-1 -16,-3 -4,-2 -7,-4 -9,-8 -3,-3 -4,-7 -4,-12zm65 -36l0 -10 8 0 0 10 -8 0zm0 58l0 -49 8 0 0 49 -8 0zm52 18l0 -24c-1,2 -3,4 -6,5 -2,1 -4,2 -7,2 -6,0 -11,-3 -15,-7 -4,-5 -6,-11 -6,-19 0,-5 1,-9 2,-13 2,-4 5,-7 8,-9 3,-2 7,-3 10,-3 6,0 11,2 15,7l0 -6 7 0 0 67 -8 0zm-26 -43c0,6 2,11 4,14 3,3 6,5 10,5 3,0 6,-2 9,-4 2,-3 4,-8 4,-14 0,-7 -2,-11 -4,-15 -3,-3 -6,-5 -10,-5 -3,0 -6,2 -9,5 -2,3 -4,8 -4,14zm79 25l0 -8c-4,6 -9,9 -15,9 -3,0 -6,-1 -9,-2 -2,-1 -4,-2 -5,-4 -1,-2 -2,-4 -3,-6 0,-2 0,-4 0,-8l0 -30 8 0 0 27c0,4 0,7 1,9 0,2 1,3 3,5 2,1 4,2 6,2 3,0 5,-1 7,-2 2,-2 4,-3 5,-5 1,-3 1,-6 1,-10l0 -26 8 0 0 49 -7 0zm54 -16l8 1c-1,5 -4,9 -7,12 -4,2 -8,4 -14,4 -7,0 -13,-2 -17,-7 -4,-4 -6,-10 -6,-18 0,-8 2,-15 6,-19 4,-5 10,-7 16,-7 7,0 12,2 16,6 5,5 7,11 7,19 0,1 0,1 0,2l-37 0c0,6 2,10 5,13 2,3 6,4 10,4 3,0 6,-1 8,-2 2,-2 4,-5 5,-8zm-27 -13l27 0c-1,-4 -2,-8 -3,-10 -3,-3 -6,-4 -11,-4 -3,0 -6,1 -9,3 -3,3 -4,6 -4,11zm46 -29l0 -10 8 0 0 10 -8 0zm0 58l0 -49 8 0 0 49 -8 0zm21 0l0 -49 7 0 0 7c2,-3 4,-5 5,-7 2,-1 4,-1 6,-1 2,0 5,1 8,2l-3 8c-2,-1 -4,-2 -6,-2 -2,0 -3,1 -5,2 -1,1 -2,3 -3,5 -1,2 -1,6 -1,9l0 26 -8 0zm63 -6c-3,2 -6,4 -9,5 -3,1 -6,2 -9,2 -5,0 -10,-2 -12,-4 -3,-3 -5,-6 -5,-10 0,-3 1,-5 2,-7 1,-2 2,-3 4,-4 2,-2 4,-3 6,-3 2,-1 4,-1 8,-1 6,-1 11,-2 14,-3 0,-1 0,-2 0,-2 0,-4 0,-6 -2,-8 -2,-1 -5,-2 -9,-2 -4,0 -7,0 -9,2 -2,1 -3,4 -4,7l-8 -1c0,-4 2,-6 3,-9 2,-2 4,-3 8,-4 3,-2 7,-2 11,-2 4,0 7,0 10,1 3,1 4,3 6,4 1,1 2,3 2,6 1,1 1,4 1,7l0 11c0,8 0,13 0,15 1,2 1,4 2,6l-8 0c-1,-2 -2,-4 -2,-6zm-1 -19c-3,1 -7,3 -13,3 -4,1 -6,1 -7,2 -2,1 -3,2 -4,3 -1,1 -1,2 -1,4 0,2 1,4 3,5 1,2 4,2 7,2 3,0 6,0 8,-2 3,-1 5,-3 6,-6 1,-1 1,-4 1,-8l0 -3zm79 25l0 -6c-3,4 -7,7 -14,7 -3,0 -7,-1 -10,-3 -3,-3 -6,-6 -8,-9 -2,-4 -3,-9 -3,-14 0,-5 1,-9 3,-13 2,-4 4,-7 7,-9 3,-2 7,-3 11,-3 3,0 6,0 8,2 2,1 4,3 6,5l0 -25 8 0 0 68 -8 0zm-26 -25c0,7 1,11 4,14 3,3 6,5 9,5 4,0 7,-1 10,-4 2,-3 3,-8 3,-14 0,-7 -1,-12 -4,-15 -2,-3 -5,-4 -9,-4 -4,0 -7,1 -9,4 -3,3 -4,8 -4,14zm80 9l9 1c-1,5 -4,9 -8,12 -3,2 -8,4 -14,4 -7,0 -12,-2 -16,-7 -5,-4 -7,-10 -7,-18 0,-8 2,-15 7,-19 4,-5 9,-7 16,-7 7,0 12,2 16,6 4,5 6,11 6,19 0,1 0,1 0,2l-36 0c0,6 2,10 4,13 3,3 6,4 10,4 3,0 6,-1 8,-2 2,-2 4,-5 5,-8zm-27 -13l27 0c0,-4 -1,-8 -3,-10 -2,-3 -6,-4 -10,-4 -4,0 -7,1 -10,3 -2,3 -4,6 -4,11zm61 29l26 -68 10 0 27 68 -10 0 -8 -21 -28 0 -8 21 -9 0zm19 -28l23 0 -7 -19c-2,-5 -3,-10 -5,-14 0,5 -2,9 -3,13l-8 20zm50 28l0 -49 7 0 0 7c2,-3 4,-5 6,-7 1,-1 3,-1 5,-1 3,0 6,1 9,2l-3 8c-2,-1 -4,-2 -6,-2 -2,0 -4,1 -5,2 -2,1 -3,3 -3,5 -1,2 -2,6 -2,9l0 26 -8 0zm63 -6c-3,2 -6,4 -8,5 -3,1 -6,2 -10,2 -5,0 -9,-2 -12,-4 -3,-3 -4,-6 -4,-10 0,-3 0,-5 1,-7 1,-2 3,-3 5,-4 1,-2 3,-3 6,-3 1,-1 4,-1 7,-1 7,-1 12,-2 15,-3 0,-1 0,-2 0,-2 0,-4 -1,-6 -3,-8 -2,-1 -5,-2 -9,-2 -4,0 -7,0 -9,2 -2,1 -3,4 -4,7l-8 -1c1,-4 2,-6 4,-9 1,-2 4,-3 7,-4 3,-2 7,-2 11,-2 4,0 8,0 10,1 3,1 5,3 6,4 1,1 2,3 3,6 0,1 0,4 0,7l0 11c0,8 0,13 1,15 0,2 1,4 2,6l-9 0c-1,-2 -1,-4 -2,-6zm0 -19c-3,1 -8,3 -14,3 -3,1 -6,1 -7,2 -1,1 -3,2 -3,3 -1,1 -2,2 -2,4 0,2 1,4 3,5 2,2 4,2 7,2 4,0 6,0 9,-2 2,-1 4,-3 5,-6 1,-1 2,-4 2,-8l0 -3zm53 25l0 -8c-4,6 -9,9 -16,9 -3,0 -5,-1 -8,-2 -2,-1 -4,-2 -5,-4 -2,-2 -2,-4 -3,-6 0,-2 0,-4 0,-8l0 -30 8 0 0 27c0,4 0,7 0,9 1,2 2,3 4,5 1,1 4,2 6,2 2,0 5,-1 7,-2 2,-2 4,-3 5,-5 0,-3 1,-6 1,-10l0 -26 8 0 0 49 -7 0zm-18 -55l6 -13 11 0 -10 13 -7 0zm38 -3l0 -10 8 0 0 10 -8 0zm-10 77l1 -7c2,0 3,0 4,0 2,0 3,0 4,-1 1,-2 1,-4 1,-9l0 -51 8 0 0 51c0,6 0,11 -2,13 -2,3 -5,5 -10,5 -2,0 -4,-1 -6,-1zm28 -44c0,-9 3,-15 8,-20 4,-3 9,-5 15,-5 7,0 12,2 16,6 5,5 7,11 7,19 0,6 -1,11 -3,14 -2,4 -5,7 -8,9 -4,2 -8,3 -12,3 -7,0 -12,-2 -17,-7 -4,-4 -6,-10 -6,-19zm8 0c0,7 2,11 5,14 2,3 6,5 10,5 4,0 7,-2 10,-5 3,-3 4,-8 4,-14 0,-6 -1,-11 -4,-14 -3,-3 -6,-4 -10,-4 -4,0 -8,1 -10,4 -3,3 -5,8 -5,14z"/>
   <path class="fil2" d="M78 1353c0,-11 3,-19 9,-26 6,-6 14,-9 24,-9 6,0 12,1 17,4 4,3 8,7 11,13 3,5 4,11 4,18 0,7 -2,13 -4,18 -3,5 -7,9 -12,12 -5,3 -11,4 -16,4 -7,0 -12,-1 -17,-4 -5,-3 -9,-7 -12,-13 -2,-5 -4,-11 -4,-17zm10 1c0,8 2,14 6,19 5,4 10,7 17,7 6,0 12,-3 16,-7 4,-5 7,-12 7,-20 0,-6 -1,-11 -3,-15 -2,-4 -5,-7 -8,-9 -4,-2 -8,-4 -12,-4 -7,0 -12,3 -17,7 -4,4 -6,12 -6,22zm65 32l0 -67 8 0 0 67 -8 0zm53 0l0 -6c-3,5 -8,7 -14,7 -4,0 -7,-1 -11,-3 -3,-2 -5,-5 -7,-9 -2,-4 -3,-8 -3,-13 0,-5 1,-9 3,-13 1,-4 4,-7 7,-9 3,-3 7,-4 11,-4 3,0 5,1 8,2 2,1 4,3 5,5l0 -24 8 0 0 67 -7 0zm-26 -24c0,6 1,11 4,14 2,3 5,5 9,5 4,0 7,-2 9,-5 3,-3 4,-7 4,-13 0,-7 -1,-12 -4,-15 -2,-3 -6,-5 -9,-5 -4,0 -7,2 -10,5 -2,3 -3,7 -3,14zm79 18c-4,3 -7,5 -9,6 -3,1 -6,1 -10,1 -5,0 -9,-1 -12,-4 -3,-2 -4,-6 -4,-10 0,-2 0,-4 1,-6 2,-2 3,-4 5,-5 1,-1 3,-2 6,-3 1,0 4,0 7,-1 7,-1 12,-2 15,-3 0,-1 0,-2 0,-2 0,-3 -1,-6 -2,-7 -3,-2 -6,-3 -10,-3 -4,0 -7,1 -9,2 -1,2 -3,4 -4,8l-8 -2c1,-3 2,-6 4,-8 2,-2 4,-4 7,-5 3,-1 7,-2 11,-2 4,0 8,1 10,2 3,1 5,2 6,4 1,1 2,3 3,5 0,2 0,4 0,8l0 11c0,7 0,12 1,14 0,2 1,4 2,6l-9 0c-1,-1 -1,-3 -1,-6zm-1 -18c-3,1 -8,2 -14,3 -3,0 -6,1 -7,2 -1,0 -2,1 -3,2 -1,1 -1,3 -1,4 0,2 0,4 2,6 2,1 4,2 7,2 4,0 7,-1 9,-2 2,-2 4,-4 5,-6 1,-2 2,-5 2,-8l0 -3zm21 -34l0 -9 8 0 0 9 -8 0zm0 58l0 -49 8 0 0 49 -8 0zm21 0l0 -49 7 0 0 8c2,-4 4,-6 6,-7 1,-1 3,-2 5,-2 3,0 5,1 8,3l-3 8c-2,-1 -4,-2 -6,-2 -1,0 -3,1 -4,2 -2,1 -3,2 -4,4 0,3 -1,6 -1,10l0 25 -8 0zm78 0l-26 -67 9 0 18 49c1,4 2,7 3,11 1,-4 3,-7 4,-11l18 -49 9 0 -26 67 -9 0zm41 -58l0 -9 8 0 0 9 -8 0zm0 58l0 -49 8 0 0 49 -8 0zm20 0l0 -49 8 0 0 7c3,-5 9,-8 15,-8 3,0 6,1 9,2 2,1 4,2 5,4 1,2 2,4 3,6 0,2 0,4 0,8l0 30 -8 0 0 -29c0,-4 -1,-6 -1,-8 -1,-2 -2,-3 -4,-4 -1,-1 -3,-1 -5,-1 -4,0 -7,1 -9,3 -3,2 -4,6 -4,13l0 26 -9 0zm53 0l0 -67 8 0 0 24c4,-4 9,-7 15,-7 3,0 6,1 9,3 3,1 5,3 6,5 1,3 1,7 1,11l0 31 -8 0 0 -31c0,-4 -1,-7 -3,-9 -1,-2 -4,-2 -7,-2 -3,0 -5,0 -7,1 -2,2 -4,3 -5,6 0,2 -1,5 -1,9l0 26 -8 0zm84 -6c-3,3 -6,5 -9,6 -3,1 -6,1 -9,1 -5,0 -9,-1 -12,-4 -3,-2 -5,-6 -5,-10 0,-2 1,-4 2,-6 1,-2 3,-4 4,-5 2,-1 4,-2 6,-3 2,0 4,0 8,-1 6,-1 11,-2 14,-3 0,-1 0,-2 0,-2 0,-3 0,-6 -2,-7 -2,-2 -5,-3 -9,-3 -4,0 -7,1 -9,2 -2,2 -3,4 -4,8l-8 -2c1,-3 2,-6 3,-8 2,-2 5,-4 8,-5 3,-1 7,-2 11,-2 4,0 7,1 10,2 3,1 5,2 6,4 1,1 2,3 2,5 1,2 1,4 1,8l0 11c0,7 0,12 0,14 1,2 1,4 2,6l-8 0c-1,-1 -2,-3 -2,-6zm-1 -18c-3,1 -7,2 -13,3 -4,0 -6,1 -7,2 -2,0 -3,1 -4,2 0,1 -1,3 -1,4 0,2 1,4 3,6 1,1 4,2 7,2 3,0 6,-1 9,-2 2,-2 4,-4 5,-6 1,-2 1,-5 1,-8l0 -3zm18 10l8 -2c1,4 2,6 4,8 2,2 5,3 9,3 4,0 7,-1 9,-3 1,-1 2,-3 2,-5 0,-2 0,-4 -2,-5 -1,0 -4,-1 -9,-2 -6,-2 -10,-3 -12,-4 -3,-2 -4,-3 -6,-5 -1,-2 -1,-4 -1,-7 0,-2 0,-4 1,-6 1,-1 3,-3 4,-4 2,-1 3,-2 5,-3 3,0 5,-1 8,-1 3,0 7,1 10,2 3,1 5,3 6,5 1,1 2,4 3,7l-8 1c-1,-2 -2,-4 -3,-6 -2,-1 -5,-2 -8,-2 -4,0 -6,1 -8,2 -2,1 -2,3 -2,4 0,2 0,2 1,3 0,1 1,2 3,3 1,0 3,1 7,2 6,1 10,3 12,4 3,0 5,2 6,4 1,2 2,4 2,7 0,3 -1,5 -3,8 -1,2 -4,4 -7,5 -3,2 -6,2 -10,2 -6,0 -11,-1 -14,-4 -4,-2 -6,-6 -7,-11zm126 -9l9 2c-2,7 -5,13 -10,17 -5,3 -11,5 -18,5 -7,0 -13,-1 -18,-4 -4,-3 -8,-7 -10,-13 -3,-5 -4,-11 -4,-18 0,-7 2,-13 4,-18 3,-6 7,-9 12,-12 5,-3 10,-4 16,-4 7,0 12,1 17,5 5,3 8,8 10,14l-9 2c-2,-4 -4,-8 -7,-10 -3,-3 -7,-4 -11,-4 -5,0 -10,2 -13,4 -4,3 -6,6 -7,10 -2,4 -2,9 -2,13 0,6 0,11 2,15 2,4 4,8 8,10 3,2 7,3 11,3 5,0 9,-2 13,-5 3,-2 6,-7 7,-12zm16 -1c0,-9 2,-16 7,-20 4,-4 10,-6 16,-6 6,0 12,3 16,7 4,4 6,10 6,18 0,6 0,11 -2,15 -2,4 -5,6 -9,8 -3,2 -7,3 -11,3 -7,0 -13,-2 -17,-6 -4,-5 -6,-11 -6,-19zm8 0c0,6 2,11 4,14 3,3 6,5 11,5 4,0 7,-2 10,-5 3,-3 4,-8 4,-14 0,-6 -1,-11 -4,-14 -3,-3 -6,-5 -10,-5 -5,0 -8,2 -11,5 -2,3 -4,8 -4,14zm44 10l8 -2c1,4 2,6 4,8 2,2 5,3 9,3 4,0 6,-1 8,-3 2,-1 3,-3 3,-5 0,-2 -1,-4 -3,-5 -1,0 -3,-1 -8,-2 -6,-2 -10,-3 -13,-4 -2,-2 -4,-3 -5,-5 -1,-2 -2,-4 -2,-7 0,-2 1,-4 2,-6 1,-1 2,-3 4,-4 1,-1 3,-2 5,-3 2,0 5,-1 7,-1 4,0 7,1 10,2 3,1 5,3 7,5 1,1 2,4 3,7l-9 1c0,-2 -1,-4 -3,-6 -1,-1 -4,-2 -7,-2 -4,0 -7,1 -8,2 -2,1 -3,3 -3,4 0,2 1,2 1,3 1,1 2,2 3,3 1,0 4,1 8,2 6,1 10,3 12,4 2,0 4,2 5,4 2,2 2,4 2,7 0,3 0,5 -2,8 -2,2 -4,4 -7,5 -3,2 -6,2 -10,2 -7,0 -11,-1 -15,-4 -3,-2 -5,-6 -6,-11zm68 7l1 7c-2,1 -4,1 -6,1 -3,0 -5,-1 -7,-1 -2,-1 -3,-3 -3,-4 -1,-2 -1,-5 -1,-10l0 -28 -6 0 0 -7 6 0 0 -12 8 -5 0 17 8 0 0 7 -8 0 0 28c0,3 0,4 0,5 1,1 1,1 2,2 0,0 1,0 3,0 1,0 2,0 3,0zm40 1c-3,3 -6,5 -9,6 -2,1 -5,1 -9,1 -5,0 -9,-1 -12,-4 -3,-2 -4,-6 -4,-10 0,-2 0,-4 1,-6 1,-2 3,-4 4,-5 2,-1 4,-2 6,-3 2,0 5,0 8,-1 7,-1 11,-2 15,-3 0,-1 0,-2 0,-2 0,-3 -1,-6 -3,-7 -2,-2 -5,-3 -9,-3 -4,0 -7,1 -9,2 -2,2 -3,4 -4,8l-8 -2c1,-3 2,-6 4,-8 1,-2 4,-4 7,-5 3,-1 7,-2 11,-2 4,0 8,1 10,2 3,1 5,2 6,4 1,1 2,3 3,5 0,2 0,4 0,8l0 11c0,7 0,12 1,14 0,2 1,4 2,6l-9 0c-1,-1 -1,-3 -2,-6zm0 -18c-3,1 -8,2 -14,3 -3,0 -6,1 -7,2 -2,0 -3,1 -3,2 -1,1 -2,3 -2,4 0,2 1,4 3,6 2,1 4,2 7,2 3,0 6,-1 9,-2 2,-2 4,-4 5,-6 1,-2 2,-5 2,-8l0 -3z"/>
   <path class="fil2" d="M852 462l69 69c3,3 7,4 11,2 4,-2 6,-6 5,-10 -2,-17 -7,-34 -15,-49 -8,-16 -18,-30 -30,-43l-5 -4 3 -3c5,-5 6,-13 2,-19l15 -30c3,-6 2,-12 -3,-17l-8 -7c-4,-5 -11,-6 -16,-3l-30 15c-6,-4 -14,-3 -20,2l-2 3 -5 -5c-24,-24 -57,-41 -91,-45 -1,-1 -1,-1 -2,-1l0 0c-4,0 -7,3 -9,6 -1,4 0,8 2,11l69 69c-4,5 -5,12 -2,17l-45 51c-3,3 -2,7 1,10 2,3 7,2 9,-1l44 -49 25 25 -158 139c-2,2 -4,2 -6,0 -2,-2 -2,-5 0,-6l74 -84c2,-3 2,-8 -1,-10 -3,-3 -7,-2 -10,0l-74 84c-6,8 -6,19 1,26 7,7 18,7 25,1l159 -141c3,1 5,2 7,2 4,0 8,-2 11,-5zm57 18c6,10 10,21 12,32l-59 -59 15 -16 5 4c11,12 20,25 27,39zm-23 -120c0,0 0,0 1,0l7 8c1,0 1,1 1,1l-13 25 -22 -21 26 -13zm-143 -26c26,6 51,20 71,39l4 4 -16 16 -59 -59zm60 81c-1,-1 -1,-2 0,-3l37 -37c1,-1 2,-1 2,0l38 37c1,1 1,2 0,3l-38 37c0,1 -1,1 -2,0l-37 -37zm154 156c3,3 7,3 10,0 3,-3 3,-7 0,-10l-18 -18c-2,-2 -7,-2 -10,0 -2,3 -2,7 0,10l18 18zm29 -32c4,1 8,-1 9,-4 1,-4 -1,-8 -5,-9l-28 -8c-3,-1 -7,1 -8,5 -1,3 1,7 4,8l28 8zm-67 18c-4,1 -6,5 -5,9l8 28c1,3 5,6 9,4 4,-1 6,-4 5,-8l-8 -28c-1,-4 -5,-6 -9,-5zm122 62c0,3 3,7 7,7 4,0 7,-4 7,-7 0,-4 -3,-7 -7,-7 -4,0 -7,3 -7,7zm-34 46c0,-17 -14,-31 -31,-31 -17,0 -31,14 -31,31 0,16 14,30 31,30 17,0 31,-14 31,-30zm-48 0c0,-10 8,-17 17,-17 9,0 17,7 17,17 0,9 -8,16 -17,16 -9,0 -17,-7 -17,-16zm132 -144c0,-11 -10,-21 -21,-21 -12,0 -21,10 -21,21 0,12 9,21 21,21 11,0 21,-9 21,-21zm-21 7c-4,0 -7,-3 -7,-7 0,-4 3,-7 7,-7 3,0 7,3 7,7 0,4 -4,7 -7,7zm-112 230c0,4 3,7 6,7 4,0 7,-3 7,-7 0,-4 -3,-7 -7,-7 -3,0 -6,3 -6,7zm101 -411c-12,0 -21,9 -21,21 0,12 9,21 21,21 11,0 21,-9 21,-21 0,-12 -10,-21 -21,-21zm0 28c-4,0 -7,-3 -7,-7 0,-4 3,-7 7,-7 4,0 7,3 7,7 0,4 -3,7 -7,7zm54 142c4,0 7,-4 7,-7l0 -172c0,-11 -10,-21 -21,-21l-140 0c-13,0 -20,15 -12,25l73 90c2,2 3,6 2,9l-8 128c-1,5 -4,9 -8,11l-94 39c-12,5 -19,19 -15,32l10 43c2,5 0,10 -3,13l-63 60c-10,9 -3,26 10,26l248 0c11,0 21,-10 21,-21l0 -230c0,-4 -3,-7 -7,-7 -4,0 -7,3 -7,7l0 230c0,4 -3,7 -7,7l-248 0c-1,0 -1,-2 -1,-2l63 -60c7,-7 10,-17 8,-26l-11 -44c-2,-6 2,-12 8,-15l93 -39c9,-4 16,-13 16,-23l9 -128c1,-7 -1,-14 -6,-19l-72 -90c-1,0 0,-2 1,-2l140 0c4,0 7,3 7,7l0 172c0,3 3,7 7,7zm-54 220c11,0 21,-9 21,-21 0,-11 -10,-21 -21,-21 -12,0 -21,10 -21,21 0,12 9,21 21,21zm0 -28c4,0 7,3 7,7 0,4 -3,7 -7,7 -4,0 -7,-3 -7,-7 0,-4 3,-7 7,-7zm10 -257c0,3 3,6 7,6 4,0 7,-3 7,-6 0,-4 -3,-7 -7,-7 -4,0 -7,3 -7,7z"/>
   <g>
    <path class="fil3" d="M138 1199c0,-12 -10,-21 -21,-21 -12,0 -21,9 -21,21 0,12 9,21 21,21 11,0 21,-9 21,-21zm-21 10c-6,0 -11,-4 -11,-10 0,-6 5,-10 11,-10 6,0 10,4 10,10 0,6 -4,10 -10,10z"/>
    <path class="fil3" d="M85 1267l63 0c3,0 5,-2 5,-5l0 -5c0,-21 -16,-37 -36,-37 -20,0 -37,16 -37,37l0 5c0,3 3,5 5,5zm32 -37c14,0 26,12 26,27l-52 0c0,-15 11,-27 26,-27z"/>
    <path class="fil3" d="M317 1230c0,-3 -3,-5 -6,-5l-100 0c-3,0 -5,2 -5,5 0,3 2,6 5,6l100 0c3,0 6,-3 6,-6z"/>
    <path class="fil3" d="M311 1194l-100 0c-20,0 -37,16 -37,36 0,21 17,37 37,37l27 0c2,0 5,-2 5,-5 0,-3 -3,-5 -5,-5l-27 0c-14,0 -26,-12 -26,-27 0,-14 12,-26 26,-26l100 0c15,0 26,12 26,26 0,15 -11,27 -26,27l-26 0c-3,0 -6,2 -6,5 0,3 3,5 6,5l26 0c21,0 37,-16 37,-37 0,-20 -16,-36 -37,-36z"/>
    <path class="fil3" d="M266 1262c0,3 -2,5 -5,5 -3,0 -5,-2 -5,-5 0,-3 2,-5 5,-5 3,0 5,2 5,5z"/>
   </g>
  </g>
 </g>
</svg>
