<?xml version="1.0" encoding="UTF-8"?>
<!DOCTYPE svg PUBLIC "-//W3C//DTD SVG 1.1//EN" "http://www.w3.org/Graphics/SVG/1.1/DTD/svg11.dtd">
<!-- Creator: CorelDRAW X7 -->
<svg xmlns="http://www.w3.org/2000/svg" xml:space="preserve" width="176.445mm" height="49.0218mm" version="1.1" style="shape-rendering:geometricPrecision; text-rendering:geometricPrecision; image-rendering:optimizeQuality; fill-rule:evenodd; clip-rule:evenodd"
viewBox="0 0 17645 4902"
 xmlns:xlink="http://www.w3.org/1999/xlink">
 <defs>
  <style type="text/css">
   <![CDATA[
    .fil1 {fill:#F29200}
    .fil0 {fill:#002472;fill-rule:nonzero}
   ]]>
  </style>
 </defs>
 <g id="Camada_x0020_1">
  <metadata id="CorelCorpID_0Corel-Layer"/>
  <g id="_1744040253296">
   <path class="fil0" d="M3398 3817c0,-20 -7,-36 -21,-47 -15,-11 -40,-22 -78,-33 -37,-11 -66,-24 -88,-37 -42,-27 -63,-61 -63,-104 0,-37 15,-67 45,-92 31,-24 70,-36 118,-36 32,0 61,6 86,18 25,12 45,29 59,51 14,22 22,46 22,72l-80 0c0,-24 -8,-42 -23,-56 -15,-14 -36,-20 -64,-20 -27,0 -47,5 -61,16 -15,11 -22,27 -22,47 0,17 8,31 23,42 16,12 42,22 78,33 35,11 64,23 86,37 22,13 38,29 48,46 10,18 15,39 15,62 0,39 -15,69 -44,92 -30,23 -70,34 -120,34 -33,0 -64,-6 -92,-18 -28,-13 -50,-30 -65,-51 -16,-22 -23,-47 -23,-76l80 0c0,26 8,46 26,60 17,15 42,22 74,22 28,0 49,-6 63,-17 14,-11 21,-26 21,-45z"/>
   <path class="fil0" d="M3748 3902c-22,27 -54,40 -96,40 -37,0 -65,-11 -84,-32 -19,-22 -29,-53 -29,-95l0 -221 77 0 0 220c0,44 18,65 54,65 37,0 63,-13 76,-40l0 -245 77 0 0 342 -73 0 -2 -34z"/>
   <path class="fil0" d="M4201 3768c0,53 -12,95 -36,127 -24,32 -57,47 -97,47 -38,0 -68,-12 -90,-37l0 162 -77 0 0 -473 71 0 3 34c22,-27 53,-41 92,-41 42,0 74,16 98,47 24,31 36,74 36,129l0 5zm-77 -7c0,-34 -7,-61 -20,-81 -14,-20 -33,-30 -59,-30 -31,0 -54,13 -67,39l0 152c14,26 36,40 68,40 25,0 44,-10 57,-30 14,-20 21,-49 21,-90z"/>
   <path class="fil0" d="M4417 3942c-49,0 -88,-15 -119,-46 -30,-31 -45,-71 -45,-122l0 -10c0,-34 6,-65 20,-92 13,-26 31,-47 55,-62 24,-15 51,-23 80,-23 47,0 83,15 108,45 26,30 38,72 38,126l0 31 -224 0c3,29 12,51 29,67 16,17 37,25 62,25 35,0 64,-14 86,-43l42 40c-14,20 -32,36 -55,47 -23,12 -49,17 -77,17zm-9 -293c-21,0 -39,7 -51,22 -13,15 -22,35 -25,62l146 0 0 -6c-1,-26 -8,-45 -20,-58 -12,-14 -29,-20 -50,-20z"/>
   <path class="fil0" d="M4793 3663c-10,-1 -20,-2 -31,-2 -35,0 -59,13 -71,40l0 235 -77 0 0 -342 73 0 2 38c19,-30 44,-45 77,-45 11,0 20,2 28,4l-1 72z"/>
   <path class="fil0" d="M4923 3936l-77 0 0 -342 77 0 0 342zm-81 -432c0,-12 3,-22 11,-30 7,-8 18,-11 32,-11 14,0 25,3 32,11 8,8 12,18 12,30 0,12 -4,21 -12,29 -7,8 -18,12 -32,12 -14,0 -25,-4 -32,-12 -8,-8 -11,-17 -11,-29z"/>
   <path class="fil0" d="M5079 3594l2 39c25,-31 58,-46 99,-46 72,0 108,41 109,123l0 226 -77 0 0 -222c0,-22 -4,-38 -14,-48 -9,-11 -24,-16 -46,-16 -31,0 -54,14 -69,42l0 244 -77 0 0 -342 73 0z"/>
   <path class="fil0" d="M5464 3511l0 83 61 0 0 57 -61 0 0 191c0,13 3,22 8,28 5,6 14,9 28,9 9,0 18,-1 27,-3l0 59c-18,5 -35,7 -51,7 -59,0 -89,-32 -89,-97l0 -194 -56 0 0 -57 56 0 0 -83 77 0z"/>
   <path class="fil0" d="M5734 3942c-48,0 -88,-15 -118,-46 -31,-31 -46,-71 -46,-122l0 -10c0,-34 7,-65 20,-92 13,-26 32,-47 56,-62 23,-15 50,-23 79,-23 47,0 83,15 108,45 26,30 39,72 39,126l0 31 -224 0c2,29 12,51 28,67 17,17 38,25 63,25 35,0 64,-14 86,-43l41 40c-13,20 -32,36 -55,47 -23,12 -48,17 -77,17zm-9 -293c-21,0 -38,7 -51,22 -13,15 -21,35 -25,62l147 0 0 -6c-2,-26 -9,-45 -21,-58 -12,-14 -29,-20 -50,-20z"/>
   <path class="fil0" d="M6003 3594l2 39c25,-31 58,-46 99,-46 72,0 108,41 109,123l0 226 -77 0 0 -222c0,-22 -4,-38 -14,-48 -9,-11 -24,-16 -46,-16 -31,0 -54,14 -69,42l0 244 -77 0 0 -342 73 0z"/>
   <path class="fil0" d="M6277 3762c0,-53 12,-95 37,-127 24,-32 57,-48 98,-48 37,0 66,13 88,38l0 -175 77 0 0 486 -69 0 -4 -36c-23,28 -54,42 -92,42 -40,0 -73,-16 -98,-48 -24,-32 -37,-76 -37,-132zm77 7c0,34 7,62 20,81 14,20 33,29 57,29 32,0 55,-14 69,-42l0 -146c-14,-27 -37,-41 -68,-41 -25,0 -44,10 -58,30 -13,19 -20,49 -20,89z"/>
   <path class="fil0" d="M6809 3942c-49,0 -89,-15 -119,-46 -30,-31 -45,-71 -45,-122l0 -10c0,-34 6,-65 20,-92 13,-26 31,-47 55,-62 24,-15 50,-23 80,-23 47,0 82,15 108,45 25,30 38,72 38,126l0 31 -224 0c3,29 12,51 29,67 16,17 37,25 62,25 35,0 64,-14 86,-43l42 40c-14,20 -32,36 -55,47 -23,12 -49,17 -77,17zm-9 -293c-22,0 -39,7 -52,22 -13,15 -21,35 -24,62l146 0 0 -6c-2,-26 -8,-45 -20,-58 -12,-14 -29,-20 -50,-20zm103 -112l0 4 -61 0 -48 -49 -47 49 -61 0 0 -4 86 -87 45 0 86 87z"/>
   <path class="fil0" d="M7077 3594l2 39c26,-31 59,-46 100,-46 71,0 107,41 109,123l0 226 -77 0 0 -222c0,-22 -5,-38 -14,-48 -10,-11 -25,-16 -46,-16 -31,0 -54,14 -70,42l0 244 -77 0 0 -342 73 0z"/>
   <path class="fil0" d="M7507 3881c19,0 35,-6 48,-17 12,-11 19,-25 20,-41l72 0c-1,21 -7,41 -20,59 -12,19 -29,33 -50,44 -22,11 -45,16 -69,16 -48,0 -86,-15 -114,-46 -28,-31 -42,-74 -42,-129l0 -8c0,-52 14,-94 41,-125 28,-31 66,-47 114,-47 41,0 74,12 100,36 26,23 39,55 40,93l-72 0c-1,-19 -8,-36 -20,-48 -13,-13 -29,-19 -48,-19 -25,0 -44,9 -58,27 -13,18 -20,45 -20,82l0 12c0,37 6,65 20,83 13,19 32,28 58,28z"/>
   <path class="fil0" d="M7787 3936l-77 0 0 -342 77 0 0 342zm-81 -432c0,-12 3,-22 11,-30 7,-8 18,-11 32,-11 14,0 25,3 32,11 8,8 12,18 12,30 0,12 -4,21 -12,29 -7,8 -18,12 -32,12 -14,0 -25,-4 -32,-12 -8,-8 -11,-17 -11,-29z"/>
   <path class="fil0" d="M8076 3936c-4,-7 -7,-17 -9,-32 -25,26 -55,38 -90,38 -34,0 -62,-10 -84,-29 -22,-20 -33,-44 -33,-73 0,-37 14,-65 41,-84 27,-20 66,-30 116,-30l47 0 0 -22c0,-18 -5,-32 -14,-43 -10,-10 -26,-16 -46,-16 -17,0 -32,5 -43,14 -11,8 -17,19 -17,33l-77 0c0,-19 7,-36 19,-53 13,-16 30,-29 51,-38 21,-9 45,-14 72,-14 40,0 72,10 96,30 23,20 36,49 36,85l0 155c0,31 5,55 13,73l0 6 -78 0zm-85 -55c15,0 30,-4 43,-11 13,-8 24,-18 30,-30l0 -65 -41 0c-29,0 -50,5 -64,15 -15,10 -22,24 -22,42 0,15 5,27 15,36 10,8 23,13 39,13z"/>
   <path class="fil0" d="M8369 3762c0,-53 12,-95 36,-127 25,-32 58,-48 99,-48 36,0 66,13 88,38l0 -175 77 0 0 486 -70 0 -4 -36c-23,28 -53,42 -92,42 -40,0 -72,-16 -97,-48 -25,-32 -37,-76 -37,-132zm77 7c0,34 6,62 20,81 13,20 32,29 57,29 31,0 54,-14 69,-42l0 -146c-14,-27 -37,-41 -68,-41 -25,0 -45,10 -58,30 -14,19 -20,49 -20,89z"/>
   <path class="fil0" d="M8900 3942c-49,0 -88,-15 -118,-46 -31,-31 -46,-71 -46,-122l0 -10c0,-34 7,-65 20,-92 13,-26 32,-47 56,-62 23,-15 50,-23 79,-23 47,0 83,15 108,45 26,30 39,72 39,126l0 31 -224 0c2,29 12,51 28,67 17,17 38,25 63,25 35,0 64,-14 86,-43l41 40c-13,20 -32,36 -55,47 -23,12 -48,17 -77,17zm-9 -293c-21,0 -38,7 -51,22 -13,15 -21,35 -25,62l147 0 0 -6c-2,-26 -9,-45 -21,-58 -12,-14 -29,-20 -50,-20z"/>
   <polygon class="fil0" points="280,4538 86,4538 86,4684 313,4684 313,4750 3,4750 3,4275 311,4275 311,4342 86,4342 86,4473 280,4473 "/>
   <path class="fil0" d="M352 4571c0,-54 12,-98 38,-131 25,-33 58,-49 101,-49 37,0 68,13 91,39l0 -181 79 0 0 501 -72 0 -4 -37c-24,29 -55,43 -95,43 -41,0 -74,-16 -100,-49 -26,-34 -38,-79 -38,-136zm79 7c0,36 7,63 21,84 13,20 33,30 58,30 33,0 57,-15 72,-44l0 -150c-15,-28 -39,-43 -71,-43 -26,0 -45,11 -59,31 -14,20 -21,51 -21,92z"/>
   <path class="fil0" d="M957 4715c-23,28 -56,41 -99,41 -38,0 -67,-11 -87,-33 -19,-22 -29,-55 -29,-97l0 -229 79 0 0 228c0,44 19,67 56,67 38,0 64,-14 78,-42l0 -253 79 0 0 353 -75 0 -2 -35z"/>
   <path class="fil0" d="M1259 4693c20,0 36,-6 49,-17 13,-12 20,-26 21,-43l75 0c-1,22 -8,43 -21,62 -12,19 -30,34 -52,45 -22,11 -45,16 -71,16 -49,0 -88,-16 -117,-47 -29,-32 -44,-77 -44,-133l0 -8c0,-54 15,-97 44,-129 28,-32 67,-48 117,-48 42,0 76,12 102,36 27,25 41,57 42,97l-75 0c-1,-21 -7,-37 -20,-50 -13,-13 -30,-20 -50,-20 -25,0 -45,9 -59,28 -14,19 -21,47 -21,85l0 12c0,39 7,67 20,86 14,19 34,28 60,28z"/>
   <path class="fil0" d="M1675 4750c-4,-7 -7,-18 -9,-33 -26,26 -57,39 -93,39 -36,0 -64,-10 -87,-30 -22,-20 -33,-45 -33,-75 0,-38 14,-67 42,-87 27,-20 67,-30 119,-30l49 0 0 -23c0,-18 -5,-33 -15,-44 -11,-11 -26,-16 -47,-16 -18,0 -33,4 -44,13 -12,9 -18,21 -18,35l-79 0c0,-20 7,-38 19,-54 13,-17 31,-31 53,-40 22,-10 46,-14 74,-14 41,0 74,10 98,31 25,21 37,50 38,87l0 159c0,32 5,57 13,76l0 6 -80 0zm-87 -57c15,0 30,-4 44,-11 14,-8 24,-18 31,-31l0 -67 -43 0c-29,0 -51,5 -66,16 -15,10 -22,24 -22,43 0,15 5,27 15,36 10,9 24,14 41,14z"/>
   <path class="fil0" d="M1970 4693c20,0 36,-6 49,-17 13,-12 20,-26 21,-43l74 0c0,22 -7,43 -20,62 -13,19 -30,34 -52,45 -22,11 -46,16 -71,16 -50,0 -89,-16 -118,-47 -28,-32 -43,-77 -43,-133l0 -8c0,-54 14,-97 43,-129 29,-32 68,-48 117,-48 42,0 77,12 103,36 26,25 40,57 41,97l-74 0c-1,-21 -8,-37 -21,-50 -13,-13 -29,-20 -49,-20 -26,0 -46,9 -60,28 -13,19 -20,47 -21,85l0 12c0,39 7,67 21,86 14,19 34,28 60,28zm22 57l-4 18c33,6 49,25 49,56 0,23 -9,41 -28,54 -19,12 -45,19 -79,19l-2 -45c14,0 25,-3 33,-8 8,-5 12,-12 12,-21 0,-10 -4,-16 -12,-20 -8,-4 -20,-6 -37,-7l10 -46 58 0z"/>
   <path class="fil0" d="M2385 4750c-3,-7 -6,-18 -9,-33 -25,26 -56,39 -92,39 -36,0 -65,-10 -87,-30 -23,-20 -34,-45 -34,-75 0,-38 14,-67 42,-87 28,-20 68,-30 120,-30l48 0 0 -23c0,-18 -5,-33 -15,-44 -10,-11 -26,-16 -46,-16 -18,0 -33,4 -45,13 -11,9 -17,21 -17,35l-79 0c0,-20 6,-38 19,-54 13,-17 30,-31 52,-40 22,-10 47,-14 74,-14 41,0 74,10 99,31 24,21 37,50 38,87l0 159c0,32 4,57 13,76l0 6 -81 0zm-87 -57c16,0 31,-4 44,-11 14,-8 25,-18 31,-31l0 -67 -42 0c-30,0 -52,5 -66,16 -15,10 -23,24 -23,43 0,15 6,27 16,36 10,9 23,14 40,14zm141 -437c0,24 -7,44 -21,60 -14,16 -31,24 -52,24 -9,0 -16,-1 -22,-3 -6,-2 -15,-6 -26,-12 -12,-7 -20,-11 -25,-12 -4,-1 -9,-2 -15,-2 -8,0 -15,3 -21,9 -6,7 -9,15 -9,25l-48 -3c0,-24 7,-44 20,-60 14,-17 31,-25 52,-25 12,0 27,5 45,15 17,10 32,15 43,15 8,0 15,-4 21,-10 6,-6 9,-14 9,-24l49 3z"/>
   <path class="fil0" d="M2521 4570c0,-34 7,-65 20,-93 14,-28 33,-49 58,-64 25,-15 53,-22 85,-22 48,0 87,15 116,46 30,30 46,71 48,122l1 18c0,35 -7,66 -20,93 -14,28 -33,49 -58,64 -25,15 -53,22 -86,22 -50,0 -90,-16 -119,-49 -30,-33 -45,-78 -45,-133l0 -4zm79 7c0,36 7,65 22,85 15,21 36,31 63,31 27,0 48,-10 62,-31 15,-21 23,-52 23,-92 0,-35 -8,-64 -23,-85 -15,-20 -36,-31 -63,-31 -25,0 -46,10 -61,31 -15,20 -23,51 -23,92z"/>
   <path class="fil0" d="M3355 4640l-184 0 -38 110 -86 0 179 -475 74 0 180 475 -86 0 -39 -110zm-160 -67l137 0 -69 -197 -68 197z"/>
   <path class="fil0" d="M3836 4577c0,55 -12,98 -37,131 -24,32 -58,48 -101,48 -41,0 -73,-14 -96,-44l-4 38 -72 0 0 -501 79 0 0 182c23,-27 54,-40 92,-40 44,0 77,16 102,48 24,32 37,76 37,134l0 4zm-79 -7c0,-38 -7,-67 -21,-86 -13,-19 -33,-29 -58,-29 -35,0 -59,15 -73,45l0 146c14,30 39,46 73,46 25,0 44,-9 58,-28 13,-18 20,-46 21,-84l0 -10z"/>
   <path class="fil0" d="M4057 4756c-50,0 -90,-15 -122,-47 -31,-32 -46,-74 -46,-126l0 -10c0,-35 6,-67 20,-94 14,-28 33,-50 57,-65 25,-16 52,-23 82,-23 48,0 85,15 112,46 26,30 39,74 39,130l0 32 -231 0c3,29 13,52 30,69 17,17 38,25 64,25 36,0 66,-15 89,-44l42 41c-14,21 -33,37 -56,49 -24,12 -50,17 -80,17zm-9 -302c-22,0 -39,8 -53,23 -13,15 -22,37 -25,64l151 0 0 -6c-2,-27 -9,-47 -21,-60 -13,-14 -30,-21 -52,-21z"/>
   <path class="fil0" d="M4445 4469c-10,-1 -21,-2 -32,-2 -36,0 -61,14 -73,41l0 242 -80 0 0 -353 76 0 2 40c19,-31 45,-46 79,-46 12,0 21,1 28,4l0 74z"/>
   <path class="fil0" d="M4611 4312l0 85 62 0 0 59 -62 0 0 197c0,13 2,23 8,29 5,6 15,9 28,9 9,0 19,-1 28,-3l0 61c-18,5 -35,7 -52,7 -61,0 -91,-33 -91,-100l0 -200 -59 0 0 -59 59 0 0 -85 79 0z"/>
   <path class="fil0" d="M4944 4750c-4,-7 -7,-18 -9,-33 -25,26 -56,39 -93,39 -35,0 -64,-10 -86,-30 -23,-20 -34,-45 -34,-75 0,-38 14,-67 42,-87 28,-20 68,-30 120,-30l48 0 0 -23c0,-18 -5,-33 -15,-44 -10,-11 -26,-16 -47,-16 -18,0 -32,4 -44,13 -12,9 -17,21 -17,35l-80 0c0,-20 7,-38 20,-54 13,-17 30,-31 52,-40 22,-10 47,-14 74,-14 41,0 74,10 99,31 24,21 37,50 37,87l0 159c0,32 5,57 14,76l0 6 -81 0zm-87 -57c16,0 30,-4 44,-11 14,-8 24,-18 31,-31l0 -67 -43 0c-29,0 -51,5 -66,16 -14,10 -22,24 -22,43 0,15 5,27 15,36 10,9 24,14 41,14z"/>
   <path class="fil0" d="M5416 4756c-50,0 -91,-15 -122,-47 -31,-32 -47,-74 -47,-126l0 -10c0,-35 7,-67 21,-94 13,-28 32,-50 57,-65 24,-16 52,-23 82,-23 48,0 85,15 111,46 26,30 39,74 39,130l0 32 -230 0c2,29 12,52 29,69 17,17 39,25 65,25 36,0 65,-15 88,-44l43 41c-14,21 -33,37 -57,49 -23,12 -50,17 -79,17zm-9 -302c-22,0 -40,8 -53,23 -13,15 -22,37 -26,64l151 0 0 -6c-1,-27 -9,-47 -21,-60 -12,-14 -29,-21 -51,-21z"/>
   <path class="fil0" d="M5996 4750c-4,-7 -7,-18 -9,-33 -26,26 -56,39 -93,39 -35,0 -64,-10 -87,-30 -22,-20 -33,-45 -33,-75 0,-38 14,-67 42,-87 28,-20 68,-30 120,-30l48 0 0 -23c0,-18 -5,-33 -15,-44 -10,-11 -26,-16 -47,-16 -18,0 -33,4 -44,13 -12,9 -17,21 -17,35l-80 0c0,-20 7,-38 20,-54 12,-17 30,-31 52,-40 22,-10 47,-14 74,-14 41,0 74,10 98,31 25,21 38,50 38,87l0 159c0,32 5,57 14,76l0 6 -81 0zm-87 -57c15,0 30,-4 44,-11 14,-8 24,-18 31,-31l0 -67 -43 0c-29,0 -51,5 -66,16 -15,10 -22,24 -22,43 0,15 5,27 15,36 10,9 24,14 41,14z"/>
   <path class="fil0" d="M6320 4750l0 -475 140 0c42,0 79,10 112,28 32,19 57,45 75,80 18,34 27,73 27,118l0 24c0,45 -9,84 -27,118 -18,34 -43,61 -77,79 -33,19 -71,28 -113,28l-137 0zm82 -408l0 342 54 0c43,0 77,-14 100,-41 23,-27 35,-66 35,-116l0 -27c0,-51 -11,-90 -33,-117 -23,-27 -55,-41 -98,-41l-58 0z"/>
   <path class="fil0" d="M6833 4750l-80 0 0 -353 80 0 0 353zm-84 -445c0,-12 3,-22 11,-30 8,-9 19,-13 33,-13 15,0 26,4 34,13 7,8 11,18 11,30 0,12 -4,22 -11,30 -8,8 -19,12 -34,12 -14,0 -25,-4 -33,-12 -8,-8 -11,-18 -11,-30z"/>
   <path class="fil0" d="M7117 4654c0,-14 -6,-25 -18,-32 -11,-8 -31,-14 -58,-20 -27,-5 -49,-13 -67,-21 -40,-19 -59,-47 -59,-83 0,-31 12,-56 38,-77 26,-20 58,-30 98,-30 42,0 76,10 102,31 26,21 39,48 39,81l-79 0c0,-15 -6,-28 -17,-38 -12,-10 -26,-15 -45,-15 -18,0 -32,4 -43,12 -11,8 -16,19 -16,32 0,13 5,22 15,29 10,7 31,13 62,20 31,7 56,15 73,25 18,9 31,20 40,34 8,13 13,29 13,48 0,32 -14,57 -40,77 -26,20 -61,29 -103,29 -29,0 -55,-5 -77,-15 -23,-11 -41,-25 -53,-43 -13,-19 -19,-38 -19,-59l77 0c1,18 8,33 21,43 13,10 30,15 52,15 21,0 36,-4 47,-12 11,-8 17,-18 17,-31z"/>
   <path class="fil0" d="M7363 4312l0 85 62 0 0 59 -62 0 0 197c0,13 3,23 8,29 5,6 15,9 29,9 9,0 18,-1 27,-3l0 61c-18,5 -35,7 -52,7 -61,0 -91,-33 -91,-100l0 -200 -58 0 0 -59 58 0 0 -85 79 0z"/>
   <path class="fil0" d="M7696 4750c-3,-7 -6,-18 -9,-33 -25,26 -56,39 -92,39 -36,0 -65,-10 -87,-30 -23,-20 -34,-45 -34,-75 0,-38 14,-67 42,-87 28,-20 68,-30 120,-30l48 0 0 -23c0,-18 -5,-33 -15,-44 -10,-11 -26,-16 -46,-16 -18,0 -33,4 -45,13 -11,9 -17,21 -17,35l-79 0c0,-20 6,-38 19,-54 13,-17 30,-31 52,-40 22,-10 47,-14 74,-14 41,0 74,10 99,31 24,21 37,50 38,87l0 159c0,32 4,57 13,76l0 6 -81 0zm-87 -57c16,0 31,-4 44,-11 14,-8 25,-18 31,-31l0 -67 -42 0c-29,0 -52,5 -66,16 -15,10 -23,24 -23,43 0,15 6,27 16,36 10,9 23,14 40,14zm133 -354l0 4 -63 0 -49 -51 -49 51 -62 0 0 -4 88 -90 47 0 88 90z"/>
   <path class="fil0" d="M7920 4397l2 41c27,-32 61,-47 103,-47 73,0 111,42 112,126l0 233 -79 0 0 -229c0,-22 -5,-39 -14,-49 -10,-11 -26,-17 -48,-17 -32,0 -56,15 -71,44l0 251 -80 0 0 -353 75 0z"/>
   <path class="fil0" d="M8363 4693c19,0 36,-6 49,-17 13,-12 20,-26 21,-43l74 0c0,22 -7,43 -20,62 -13,19 -30,34 -52,45 -22,11 -46,16 -71,16 -50,0 -89,-16 -118,-47 -29,-32 -43,-77 -43,-133l0 -8c0,-54 14,-97 43,-129 29,-32 68,-48 117,-48 42,0 76,12 103,36 26,25 40,57 41,97l-74 0c-1,-21 -8,-37 -21,-50 -13,-13 -29,-20 -49,-20 -26,0 -46,9 -60,28 -14,19 -21,47 -21,85l0 12c0,39 7,67 21,86 14,19 34,28 60,28z"/>
   <path class="fil0" d="M8652 4750l-80 0 0 -353 80 0 0 353zm-85 -445c0,-12 4,-22 12,-30 8,-9 19,-13 33,-13 15,0 26,4 33,13 8,8 12,18 12,30 0,12 -4,22 -12,30 -7,8 -18,12 -33,12 -14,0 -25,-4 -33,-12 -8,-8 -12,-18 -12,-30z"/>
   <path class="fil0" d="M8949 4750c-4,-7 -7,-18 -10,-33 -25,26 -56,39 -92,39 -36,0 -64,-10 -87,-30 -22,-20 -33,-45 -33,-75 0,-38 14,-67 41,-87 28,-20 68,-30 120,-30l49 0 0 -23c0,-18 -5,-33 -15,-44 -11,-11 -26,-16 -47,-16 -18,0 -33,4 -44,13 -12,9 -18,21 -18,35l-79 0c0,-20 7,-38 19,-54 13,-17 31,-31 53,-40 22,-10 46,-14 74,-14 41,0 74,10 98,31 25,21 37,50 38,87l0 159c0,32 4,57 13,76l0 6 -80 0zm-87 -57c15,0 30,-4 44,-11 13,-8 24,-18 31,-31l0 -67 -43 0c-29,0 -51,5 -66,16 -15,10 -22,24 -22,43 0,15 5,27 15,36 10,9 24,14 41,14z"/>
   <path class="fil0" d="M6488 2699c0,-39 -13,-69 -41,-90 -27,-21 -77,-42 -148,-64 -71,-21 -128,-45 -170,-72 -81,-50 -122,-116 -122,-198 0,-72 29,-130 88,-177 58,-46 134,-69 227,-69 61,0 116,11 164,34 49,23 87,55 114,97 28,42 42,89 42,140l-154 0c0,-46 -14,-82 -43,-108 -29,-27 -71,-40 -125,-40 -50,0 -89,11 -117,33 -28,21 -42,51 -42,89 0,33 16,60 45,81 31,22 80,43 149,64 69,20 124,43 166,70 42,26 72,56 92,90 19,34 29,74 29,119 0,74 -28,133 -85,177 -56,43 -133,65 -230,65 -64,0 -123,-12 -177,-36 -54,-23 -95,-56 -125,-98 -30,-42 -45,-90 -45,-146l154 0c0,50 17,89 50,117 33,27 81,41 143,41 54,0 94,-11 121,-33 27,-21 40,-50 40,-86z"/>
   <polygon class="fil0" points="7295,2532 6931,2532 6931,2804 7356,2804 7356,2928 6777,2928 6777,2041 7352,2041 7352,2166 6931,2166 6931,2410 7295,2410 "/>
   <path class="fil0" d="M7978 2722l-343 0 -72 206 -160 0 334 -887 139 0 335 887 -161 0 -72 -206zm-300 -125l257 0 -129 -368 -128 368z"/>
   <path class="fil0" d="M8311 2928l0 -887 262 0c78,0 148,18 208,53 61,35 108,84 141,148 33,64 50,138 50,221l0 44c0,84 -17,158 -50,222 -33,63 -81,112 -143,147 -62,34 -133,52 -213,52l-255 0zm154 -762l0 638 100 0c81,0 143,-25 186,-75 44,-51 66,-123 66,-218l0 -49c0,-96 -20,-169 -62,-220 -42,-51 -103,-76 -182,-76l-108 0z"/>
   <polygon class="fil1" points="3,3233 3,3160 9026,3160 9026,3233 "/>
   <path class="fil0" d="M12271 772l0 1440c0,229 -73,410 -219,544 -147,134 -341,200 -585,200 -247,0 -443,-65 -588,-197 -144,-132 -217,-315 -217,-548l0 -1439 373 0 0 1475c0,144 37,254 110,330 72,76 180,114 322,114 288,0 432,-152 432,-456l0 -1463 372 0zm-1405 3764l-107 0 0 212 -96 0 0 -552 194 0c64,0 113,14 147,43 35,28 52,70 52,124 0,37 -9,68 -26,93 -18,25 -43,44 -75,57l124 230 0 5 -103 0 -110 -212zm-107 -78l98 0c32,0 58,-8 76,-24 18,-16 27,-39 27,-67 0,-30 -8,-52 -25,-69 -17,-16 -42,-24 -75,-25l-101 0 0 185zm560 298c-58,0 -105,-18 -142,-55 -36,-37 -54,-86 -54,-147l0 -12c0,-41 8,-77 24,-110 15,-32 38,-57 66,-75 29,-18 61,-27 96,-27 56,0 99,18 129,54 31,35 46,86 46,151l0 38 -268 0c3,33 14,60 34,80 20,19 45,29 75,29 42,0 76,-17 103,-51l50 47c-17,25 -39,44 -66,58 -28,13 -58,20 -93,20zm-11 -352c-25,0 -45,9 -61,27 -15,17 -25,42 -30,74l176 0 0 -7c-2,-31 -10,-54 -25,-70 -14,-16 -34,-24 -60,-24zm416 278c23,0 42,-7 57,-20 15,-13 24,-30 24,-50l87 0c-1,26 -9,50 -23,72 -15,22 -36,40 -61,53 -26,12 -53,19 -83,19 -57,0 -103,-19 -136,-56 -34,-37 -51,-88 -51,-154l0 -9c0,-63 17,-113 50,-151 34,-37 79,-56 137,-56 48,0 88,14 119,43 31,28 47,66 48,112l-87 0c0,-24 -8,-43 -24,-58 -15,-15 -34,-23 -57,-23 -30,0 -53,11 -69,32 -16,22 -24,55 -25,99l0 15c0,44 8,77 24,99 16,22 40,33 70,33zm221 -143c0,-40 8,-76 24,-109 16,-32 38,-56 67,-74 29,-17 62,-26 99,-26 56,0 101,18 135,54 35,35 53,83 56,142l1 21c0,41 -8,77 -24,109 -15,32 -38,56 -67,74 -29,17 -62,26 -100,26 -58,0 -104,-19 -139,-58 -35,-39 -52,-90 -52,-154l0 -5zm92 8c0,42 9,75 26,99 18,24 42,36 73,36 31,0 55,-12 73,-36 17,-25 26,-60 26,-107 0,-41 -9,-74 -27,-99 -18,-24 -42,-36 -73,-36 -30,0 -54,12 -71,36 -18,24 -27,59 -27,107zm227 -277l0 5 -74 0 -56 -59 -57 59 -73 0 0 -5 103 -105 54 0 103 105zm226 68l3 47c30,-36 70,-55 119,-55 86,0 129,49 131,147l0 271 -92 0 0 -266c0,-26 -6,-45 -17,-58 -11,-12 -30,-19 -55,-19 -38,0 -65,17 -84,51l0 292 -92 0 0 -410 87 0zm515 344c23,0 42,-7 58,-20 15,-13 23,-30 24,-50l87 0c-1,26 -9,50 -24,72 -15,22 -35,40 -61,53 -25,12 -53,19 -83,19 -57,0 -103,-19 -136,-56 -34,-37 -51,-88 -51,-154l0 -9c0,-63 17,-113 50,-151 34,-37 79,-56 137,-56 49,0 89,14 119,43 31,28 47,66 49,112l-87 0c-1,-24 -9,-43 -24,-58 -15,-15 -34,-23 -58,-23 -30,0 -53,11 -69,32 -16,22 -24,55 -24,99l0 15c0,44 8,77 24,99 16,22 39,33 69,33zm484 66c-4,-8 -8,-20 -11,-38 -29,31 -65,46 -107,46 -42,0 -75,-12 -101,-35 -27,-24 -39,-53 -39,-88 0,-44 16,-77 48,-101 33,-23 79,-35 140,-35l56 0 0 -27c0,-21 -6,-38 -18,-51 -11,-13 -30,-19 -54,-19 -21,0 -38,5 -52,16 -13,10 -20,24 -20,40l-92 0c0,-23 8,-44 23,-63 14,-20 35,-35 60,-46 26,-11 55,-17 86,-17 49,0 87,12 115,36 29,24 44,58 44,102l0 185c0,37 6,67 16,89l0 6 -94 0zm-102 -66c19,0 36,-4 52,-13 16,-9 28,-21 36,-36l0 -78 -50 0c-34,0 -59,6 -76,18 -18,12 -26,29 -26,51 0,18 6,32 17,42 12,11 28,16 47,16zm416 -51l87 -293 95 0 -142 410 -80 0 -143 -410 95 0 88 293zm216 -92c0,-40 9,-76 24,-109 16,-32 39,-56 68,-74 28,-17 62,-26 99,-26 55,0 100,18 135,54 34,35 53,83 56,142l0 21c0,41 -8,77 -23,109 -16,32 -38,56 -67,74 -29,17 -62,26 -100,26 -58,0 -104,-19 -139,-58 -35,-39 -53,-90 -53,-154l0 -5zm93 8c0,42 8,75 26,99 17,24 42,36 73,36 31,0 55,-12 72,-36 18,-25 26,-60 26,-107 0,-41 -8,-74 -26,-99 -18,-24 -42,-36 -73,-36 -30,0 -54,12 -72,36 -17,24 -26,59 -26,107zm543 -7c0,-63 15,-114 44,-152 30,-39 69,-58 118,-58 44,0 79,15 106,46l0 -211 92 0 0 583 -83 0 -5 -42c-28,33 -64,50 -110,50 -48,0 -87,-19 -117,-58 -30,-39 -45,-92 -45,-158zm93 8c0,42 8,74 24,97 16,24 38,36 68,36 38,0 65,-17 83,-51l0 -175c-17,-33 -44,-50 -82,-50 -30,0 -53,12 -69,36 -16,24 -24,59 -24,107zm609 200c-4,-8 -8,-20 -11,-38 -29,31 -65,46 -108,46 -41,0 -74,-12 -101,-35 -26,-24 -39,-53 -39,-88 0,-44 17,-77 49,-101 33,-23 79,-35 140,-35l56 0 0 -27c0,-21 -6,-38 -18,-51 -12,-13 -30,-19 -54,-19 -21,0 -38,5 -52,16 -13,10 -20,24 -20,40l-92 0c0,-23 8,-44 22,-63 15,-20 36,-35 61,-46 26,-11 55,-17 86,-17 48,0 87,12 115,36 29,24 43,58 44,102l0 185c0,37 5,67 16,89l0 6 -94 0zm-102 -66c19,0 36,-4 52,-13 16,-9 28,-21 36,-36l0 -78 -50 0c-34,0 -59,6 -77,18 -17,12 -26,29 -26,51 0,18 6,32 18,42 12,11 28,16 47,16zm479 66l0 -552 190 0c62,0 110,12 142,37 33,25 49,63 49,112 0,25 -7,48 -20,68 -14,21 -34,36 -60,47 30,8 53,24 69,46 16,23 24,49 24,81 0,52 -16,91 -49,119 -34,28 -81,42 -143,42l-202 0zm96 -249l0 172 107 0c30,0 53,-7 70,-22 17,-15 26,-36 26,-62 0,-58 -30,-87 -88,-88l-115 0zm0 -71l94 0c30,0 53,-7 70,-20 17,-14 26,-33 26,-58 0,-27 -8,-46 -24,-58 -15,-13 -40,-19 -72,-19l-94 0 0 155zm631 320c-4,-8 -8,-20 -11,-38 -29,31 -65,46 -108,46 -41,0 -74,-12 -101,-35 -26,-24 -39,-53 -39,-88 0,-44 17,-77 49,-101 33,-23 79,-35 140,-35l56 0 0 -27c0,-21 -6,-38 -18,-51 -12,-13 -30,-19 -54,-19 -21,0 -38,5 -52,16 -13,10 -20,24 -20,40l-92 0c0,-23 8,-44 23,-63 14,-20 35,-35 60,-46 26,-11 55,-17 86,-17 48,0 87,12 115,36 29,24 43,58 44,102l0 185c0,37 5,67 16,89l0 6 -94 0zm-102 -66c19,0 36,-4 52,-13 16,-9 28,-21 36,-36l0 -78 -50 0c-34,0 -59,6 -77,18 -17,12 -25,29 -25,51 0,18 5,32 17,42 12,11 28,16 47,16zm368 -300c30,-34 68,-52 114,-52 87,0 132,50 133,150l0 268 -92 0 0 -265c0,-28 -6,-48 -19,-60 -12,-12 -30,-18 -54,-18 -37,0 -64,17 -82,50l0 293 -93 0 0 -583 93 0 0 217zm438 366l-92 0 0 -410 92 0 0 410zm-98 -517c0,-15 5,-27 14,-36 9,-9 22,-14 38,-14 17,0 30,5 39,14 9,9 14,21 14,36 0,14 -5,25 -14,35 -9,9 -22,14 -39,14 -16,0 -29,-5 -38,-14 -9,-10 -14,-21 -14,-35zm444 517c-4,-8 -8,-20 -11,-38 -29,31 -65,46 -107,46 -42,0 -75,-12 -101,-35 -26,-24 -39,-53 -39,-88 0,-44 16,-77 48,-101 33,-23 79,-35 140,-35l56 0 0 -27c0,-21 -6,-38 -18,-51 -11,-13 -30,-19 -54,-19 -21,0 -38,5 -51,16 -14,10 -21,24 -21,40l-92 0c0,-23 8,-44 23,-63 15,-20 35,-35 61,-46 25,-11 54,-17 86,-17 48,0 86,12 114,36 29,24 44,58 44,102l0 185c0,37 6,67 16,89l0 6 -94 0zm-101 -66c18,0 35,-4 51,-13 16,-9 28,-21 36,-36l0 -78 -50 0c-34,0 -59,6 -76,18 -18,12 -26,29 -26,51 0,18 6,32 17,42 12,11 28,16 48,16zm-6402 -1211l0 309c0,50 -15,89 -47,117 -31,29 -73,43 -126,43 -53,0 -95,-14 -126,-42 -31,-28 -47,-68 -47,-118l0 -309 81 0 0 309c0,31 7,55 23,71 16,17 39,25 69,25 62,0 93,-33 93,-98l0 -307 80 0zm150 119l3 40c25,-31 58,-47 100,-47 71,0 108,42 109,124l0 227 -77 0 0 -223c0,-22 -5,-38 -14,-49 -10,-10 -25,-15 -46,-15 -32,0 -55,14 -70,42l0 245 -77 0 0 -344 72 0zm373 344l-77 0 0 -344 77 0 0 344zm-82 -434c0,-12 4,-22 11,-30 8,-8 19,-12 33,-12 14,0 24,4 32,12 8,8 12,18 12,30 0,12 -4,22 -12,29 -8,8 -18,12 -32,12 -14,0 -25,-4 -33,-12 -7,-7 -11,-17 -11,-29zm288 336l73 -246 79 0 -119 344 -67 0 -120 -344 80 0 74 246zm348 104c-49,0 -89,-15 -119,-46 -30,-31 -46,-72 -46,-123l0 -10c0,-34 7,-65 20,-92 13,-27 32,-48 56,-63 24,-15 51,-23 80,-23 47,0 83,15 109,45 25,30 38,73 38,127l0 32 -225 0c3,28 12,50 29,67 16,16 37,25 63,25 35,0 64,-15 86,-43l42 39c-14,21 -33,37 -56,48 -23,12 -48,17 -77,17zm-9 -295c-21,0 -39,8 -52,23 -13,15 -21,35 -24,62l147 0 0 -6c-2,-26 -9,-45 -21,-59 -12,-13 -29,-20 -50,-20zm387 15c-10,-1 -20,-2 -31,-2 -36,0 -59,13 -72,40l0 236 -77 0 0 -344 74 0 2 38c18,-30 44,-45 77,-45 11,0 20,2 28,5l-1 72zm242 180c0,-13 -6,-24 -17,-31 -12,-7 -30,-14 -57,-19 -26,-6 -48,-13 -66,-21 -38,-19 -57,-46 -57,-81 0,-30 12,-55 37,-75 25,-20 57,-30 96,-30 41,0 74,11 99,31 25,20 38,47 38,79l-77 0c0,-15 -6,-27 -17,-37 -11,-10 -25,-15 -43,-15 -18,0 -31,4 -42,12 -11,8 -16,19 -16,32 0,12 5,21 15,27 10,7 30,14 60,20 31,7 54,15 72,24 17,9 30,20 38,33 9,13 13,29 13,47 0,31 -13,56 -39,76 -25,19 -59,28 -101,28 -28,0 -53,-5 -75,-15 -22,-10 -39,-24 -52,-42 -12,-18 -18,-37 -18,-57l75 0c1,18 8,32 21,42 12,10 29,14 50,14 21,0 36,-3 47,-11 10,-8 16,-18 16,-31zm225 94l-77 0 0 -344 77 0 0 344zm-82 -434c0,-12 4,-22 11,-30 8,-8 19,-12 33,-12 14,0 24,4 32,12 8,8 12,18 12,30 0,12 -4,22 -12,29 -8,8 -18,12 -32,12 -14,0 -25,-4 -33,-12 -7,-7 -11,-17 -11,-29zm152 259c0,-53 12,-95 37,-127 24,-32 57,-49 99,-49 36,0 66,13 88,39l0 -177 77 0 0 489 -70 0 -4 -36c-23,28 -53,42 -92,42 -40,0 -73,-16 -98,-48 -25,-33 -37,-77 -37,-133zm77 7c0,35 7,62 20,82 14,19 33,29 58,29 31,0 54,-14 69,-42l0 -147c-14,-28 -37,-41 -69,-41 -25,0 -44,10 -58,29 -13,20 -20,50 -20,90zm511 168c-4,-7 -7,-17 -9,-32 -25,26 -55,38 -91,38 -34,0 -62,-9 -84,-29 -22,-20 -33,-44 -33,-74 0,-36 14,-64 41,-84 27,-20 66,-29 117,-29l47 0 0 -23c0,-18 -5,-32 -15,-43 -10,-11 -25,-16 -45,-16 -18,0 -32,5 -44,13 -11,9 -16,20 -16,34l-78 0c0,-19 7,-37 19,-53 13,-16 30,-29 51,-39 22,-9 46,-14 72,-14 40,0 73,11 96,31 25,20 37,49 37,85l0 155c0,31 5,56 13,74l0 6 -78 0zm-85 -55c15,0 29,-4 43,-12 13,-7 23,-17 30,-30l0 -65 -42 0c-28,0 -50,5 -64,15 -14,10 -22,24 -22,43 0,15 5,26 15,35 10,9 23,14 40,14zm217 -120c0,-53 12,-95 37,-127 24,-32 57,-49 99,-49 36,0 66,13 88,39l0 -177 77 0 0 489 -70 0 -4 -36c-23,28 -53,42 -92,42 -40,0 -73,-16 -98,-48 -25,-33 -37,-77 -37,-133zm77 7c0,35 7,62 20,82 14,19 33,29 58,29 31,0 54,-14 69,-42l0 -147c-14,-28 -37,-41 -69,-41 -25,0 -44,10 -58,29 -13,20 -20,50 -20,90zm457 174c-49,0 -89,-15 -119,-46 -31,-31 -46,-72 -46,-123l0 -10c0,-34 7,-65 20,-92 13,-27 32,-48 56,-63 24,-15 50,-23 80,-23 47,0 83,15 108,45 26,30 39,73 39,127l0 32 -225 0c2,28 12,50 28,67 17,16 38,25 63,25 36,0 64,-15 87,-43l41 39c-13,21 -32,37 -55,48 -23,12 -49,17 -77,17zm-10 -295c-21,0 -38,8 -51,23 -13,15 -21,35 -25,62l147 0 0 -6c-1,-26 -8,-45 -20,-59 -12,-13 -29,-20 -51,-20zm644 93l-186 0 0 196 -81 0 0 -463 294 0 0 65 -213 0 0 137 186 0 0 65zm228 202c-48,0 -88,-15 -119,-46 -30,-31 -45,-72 -45,-123l0 -10c0,-34 6,-65 20,-92 13,-27 31,-48 55,-63 24,-15 51,-23 81,-23 46,0 83,15 108,45 26,30 38,73 38,127l0 32 -224 0c2,28 11,50 28,67 17,16 38,25 63,25 35,0 64,-15 86,-43l42 39c-14,21 -32,37 -55,48 -23,12 -49,17 -78,17zm-9 -295c-21,0 -38,8 -51,23 -13,15 -21,35 -25,62l147 0 0 -6c-1,-26 -8,-45 -20,-59 -13,-13 -29,-20 -51,-20zm193 114c0,-53 12,-95 37,-127 24,-32 57,-49 99,-49 36,0 66,13 88,39l0 -177 77 0 0 489 -70 0 -4 -36c-23,28 -53,42 -92,42 -40,0 -73,-16 -98,-48 -25,-33 -37,-77 -37,-133zm77 7c0,35 7,62 20,82 14,19 33,29 58,29 31,0 54,-14 69,-42l0 -147c-14,-28 -37,-41 -69,-41 -25,0 -44,10 -58,29 -13,20 -20,50 -20,90zm457 174c-49,0 -89,-15 -119,-46 -31,-31 -46,-72 -46,-123l0 -10c0,-34 7,-65 20,-92 13,-27 32,-48 56,-63 24,-15 50,-23 80,-23 47,0 83,15 108,45 26,30 39,73 39,127l0 32 -225 0c2,28 12,50 28,67 17,16 38,25 63,25 36,0 64,-15 87,-43l41 39c-13,21 -32,37 -55,48 -23,12 -49,17 -77,17zm-10 -295c-21,0 -38,8 -51,23 -13,15 -21,35 -25,62l147 0 0 -6c-1,-26 -8,-45 -20,-59 -12,-13 -29,-20 -51,-20zm388 15c-10,-1 -21,-2 -32,-2 -35,0 -59,13 -71,40l0 236 -77 0 0 -344 73 0 2 38c19,-30 45,-45 78,-45 11,0 20,2 27,5l0 72zm245 274c-4,-7 -7,-17 -9,-32 -25,26 -55,38 -91,38 -34,0 -62,-9 -84,-29 -22,-20 -33,-44 -33,-74 0,-36 14,-64 41,-84 27,-20 66,-29 117,-29l47 0 0 -23c0,-18 -5,-32 -15,-43 -10,-11 -25,-16 -45,-16 -18,0 -32,5 -44,13 -11,9 -16,20 -16,34l-78 0c0,-19 7,-37 19,-53 13,-16 30,-29 51,-39 22,-9 46,-14 72,-14 40,0 73,11 96,31 24,20 37,49 37,85l0 155c0,31 5,56 13,74l0 6 -78 0zm-85 -55c15,0 29,-4 43,-12 13,-7 23,-17 30,-30l0 -65 -42 0c-28,0 -50,5 -64,15 -15,10 -22,24 -22,43 0,15 5,26 15,35 10,9 23,14 40,14zm314 55l-78 0 0 -489 78 0 0 489zm231 -175c0,-53 12,-95 37,-127 25,-32 58,-49 99,-49 36,0 66,13 88,39l0 -177 78 0 0 489 -70 0 -4 -36c-23,28 -54,42 -93,42 -40,0 -73,-16 -98,-48 -24,-33 -37,-77 -37,-133zm77 7c0,35 7,62 21,82 13,19 32,29 57,29 32,0 55,-14 69,-42l0 -147c-14,-28 -37,-41 -68,-41 -25,0 -45,10 -58,29 -14,20 -21,50 -21,90zm291 -7c0,-34 7,-64 20,-91 13,-27 32,-48 56,-63 24,-14 52,-22 84,-22 46,0 84,15 113,45 28,30 44,70 47,119l0 18c0,34 -7,65 -20,91 -13,27 -31,48 -56,62 -24,15 -52,22 -84,22 -48,0 -87,-16 -116,-48 -30,-32 -44,-76 -44,-129l0 -4zm77 6c0,36 7,63 22,83 15,21 35,31 61,31 26,0 47,-11 61,-31 15,-20 22,-50 22,-89 0,-35 -8,-63 -23,-83 -14,-20 -35,-31 -60,-31 -26,0 -46,10 -61,30 -14,20 -22,50 -22,90zm-1258 -839l0 -2154 739 0c243,0 429,49 556,146 127,98 190,243 190,436 0,99 -26,188 -79,267 -53,79 -132,140 -234,183 116,31 206,91 270,178 64,88 95,192 95,315 0,202 -64,357 -194,466 -130,108 -316,163 -557,163l-786 0zm375 -1007l0 742 415 0c118,0 209,-30 275,-88 66,-58 100,-173 100,-277 0,-223 -115,-377 -344,-377l-446 0zm0 -207l367 0c116,0 207,-26 272,-78 66,-53 99,-162 99,-259 0,-106 -30,-217 -91,-264 -61,-47 -155,-71 -283,-71l-364 0 0 672zm-2567 285l-867 0 0 929 -374 0 0 -2154 1368 0 0 303 -994 0 0 656 867 0 0 266z"/>
   <path class="fil1" d="M14693 2173c113,23 343,22 527,-9 100,-17 259,-31 242,-160 -7,-60 -13,-120 -21,-158 -8,-34 -6,-37 25,-53 70,-37 41,-122 10,-133 40,-46 42,-86 -2,-126 -49,-45 -10,-68 30,-105 121,-111 24,-133 -106,-269 -91,-96 -133,-171 -127,-328 35,-331 -128,-498 -433,-602 -360,-122 -774,-40 -1062,247 -5,5 -10,10 -15,15 41,-65 90,-128 147,-185 271,-271 656,-359 1001,-265 386,105 653,370 584,783 -21,123 2,192 63,238 83,63 273,96 273,236 -1,57 -49,133 -93,171 -26,24 -37,26 9,56 76,51 60,144 2,203 96,76 63,170 -22,196 -29,9 -62,-6 -51,40 40,158 25,233 -81,259 -99,23 -252,12 -354,14 -33,1 -48,13 -51,34 -7,38 19,147 31,189 130,448 545,753 1011,743 -75,18 -154,27 -234,27 -521,0 -952,-387 -1021,-888 -4,-32 -4,-86 -33,-107 -7,-5 -21,-11 -38,-13 -55,-9 -153,-25 -211,-50z"/>
  </g>
 </g>
</svg>
