<?xml version="1.0" encoding="UTF-8"?>
<!DOCTYPE svg PUBLIC "-//W3C//DTD SVG 1.1//EN" "http://www.w3.org/Graphics/SVG/1.1/DTD/svg11.dtd">
<!-- Creator: CorelDRAW X7 -->
<svg xmlns="http://www.w3.org/2000/svg" xml:space="preserve" width="2327px" height="606px" version="1.1" style="shape-rendering:geometricPrecision; text-rendering:geometricPrecision; image-rendering:optimizeQuality; fill-rule:evenodd; clip-rule:evenodd"
viewBox="0 0 2327 606"
 xmlns:xlink="http://www.w3.org/1999/xlink">
 <defs>
  <style type="text/css">
   <![CDATA[
    .fil1 {fill:#FAA831}
    .fil2 {fill:#51C8EB}
    .fil7 {fill:#0F7DAF}
    .fil5 {fill:#1E75A6}
    .fil3 {fill:#CCCCCC}
    .fil6 {fill:#0F7DAF;fill-rule:nonzero}
    .fil4 {fill:#1E75A6;fill-rule:nonzero}
    .fil0 {fill:#3E4095;fill-rule:nonzero}
   ]]>
  </style>
 </defs>
 <g id="Camada_x0020_1">
  <metadata id="CorelCorpID_0Corel-Layer"/>
  <g id="_2587265995888">
   <g>
    <path class="fil0" d="M3 433l7 0 0 34c0,6 1,9 3,12 2,2 5,4 10,4 4,0 7,-2 9,-4 2,-2 3,-6 3,-12l0 -34 6 0 0 34c0,5 0,9 -1,11 -1,3 -3,5 -5,7 -3,2 -7,3 -12,3 -7,0 -12,-1 -15,-5 -4,-3 -5,-9 -5,-16l0 -34zm52 54l0 -39 7 0 0 7c4,-6 8,-8 14,-8 3,0 6,1 8,3 2,2 3,5 3,9l0 28 -7 0 0 -26c0,-3 -1,-5 -2,-6 0,-2 -2,-2 -4,-2 -4,0 -8,3 -12,8l0 26 -7 0zm46 0l0 -39 7 0 0 39 -7 0zm0 -47l0 -7 7 0 0 7 -7 0zm29 47l-14 -39 7 0 11 30 12 -30 7 0 -16 39 -7 0zm59 -1c-5,1 -9,2 -12,2 -6,0 -11,-2 -14,-6 -4,-4 -6,-9 -6,-15 0,-6 2,-11 5,-15 3,-3 8,-5 13,-5 4,0 8,1 11,5 2,3 3,8 3,14l0 2 -24 0c1,10 5,14 13,14 3,0 7,0 11,-2l0 6zm-24 -23l17 0c0,-7 -2,-11 -8,-11 -5,0 -8,4 -9,11zm37 24l0 -39 7 0 0 7c3,-6 7,-8 12,-8 1,0 2,0 2,0l0 7c-1,-1 -2,-1 -3,-1 -4,0 -8,3 -11,8l0 26 -7 0zm29 -1l0 -7c4,2 8,4 12,4 2,0 4,-1 5,-2 1,-1 2,-3 2,-4 0,-3 -2,-5 -6,-6l-4 -2c-6,-3 -9,-6 -9,-11 0,-4 1,-6 3,-8 3,-2 6,-3 10,-3 3,0 5,0 9,1l1 0 0 6c-4,-1 -7,-2 -9,-2 -3,0 -4,1 -5,1 -2,1 -2,3 -2,4 0,2 1,4 5,6l3 1c4,2 7,3 9,5 1,2 2,4 2,7 0,3 -1,6 -4,9 -3,2 -6,3 -11,3 -3,0 -7,-1 -11,-2zm39 1l0 -39 7 0 0 39 -7 0zm0 -47l0 -7 7 0 0 7 -7 0zm46 47l0 -7c-2,5 -7,8 -13,8 -4,0 -8,-2 -11,-5 -3,-4 -4,-8 -4,-14 0,-7 2,-12 5,-16 3,-4 7,-6 12,-6 5,0 8,1 11,5l0 -22 8 0 0 57 -8 0zm0 -30c-3,-3 -7,-5 -10,-5 -3,0 -6,1 -8,4 -1,3 -2,7 -2,12 0,9 3,14 9,14 4,0 8,-3 11,-7l0 -18zm42 25c-4,4 -8,6 -12,6 -3,0 -6,-1 -8,-3 -2,-2 -4,-5 -4,-8 0,-4 2,-8 6,-10 3,-2 9,-3 15,-3l2 0 0 -5c0,-5 -2,-7 -7,-7 -4,0 -8,1 -12,4l0 -6c5,-2 9,-3 13,-3 5,0 8,1 10,3 2,2 3,5 3,9l0 18c0,4 1,6 4,6 0,0 1,0 1,0l1 4c-2,1 -4,1 -6,1 -3,0 -5,-2 -6,-6zm-1 -4l0 -10 -2 0c-4,0 -7,1 -10,2 -2,2 -3,3 -3,6 0,2 0,3 1,4 2,1 3,2 5,2 3,0 6,-1 9,-4zm47 9l0 -7c-3,5 -7,8 -13,8 -5,0 -9,-2 -11,-5 -3,-4 -4,-8 -4,-14 0,-7 1,-12 4,-16 3,-4 7,-6 12,-6 5,0 9,1 12,5l0 -22 7 0 0 57 -7 0zm0 -30c-4,-3 -7,-5 -11,-5 -3,0 -5,1 -7,4 -2,3 -3,7 -3,12 0,9 3,14 9,14 4,0 8,-3 12,-7l0 -18zm50 29c-5,1 -9,2 -12,2 -6,0 -11,-2 -14,-6 -4,-4 -6,-9 -6,-15 0,-6 2,-11 5,-15 3,-3 7,-5 12,-5 5,0 9,1 11,5 3,3 4,8 4,14l0 2 -24 0c1,10 5,14 13,14 3,0 7,0 11,-2l0 6zm-24 -23l17 0c0,-7 -3,-11 -8,-11 -5,0 -8,4 -9,11zm60 24l0 -54 30 0 0 6 -23 0 0 18 19 0 0 6 -19 0 0 24 -7 0zm69 -1c-5,1 -9,2 -13,2 -5,0 -10,-2 -14,-6 -3,-4 -5,-9 -5,-15 0,-6 1,-11 5,-15 3,-3 7,-5 12,-5 5,0 8,1 11,5 3,3 4,8 4,14l0 2 -25 0c1,10 6,14 14,14 3,0 6,0 11,-2l0 6zm-25 -23l18 0c0,-7 -3,-11 -9,-11 -5,0 -8,4 -9,11zm62 24l0 -7c-3,5 -7,8 -13,8 -5,0 -8,-2 -11,-5 -3,-4 -4,-8 -4,-14 0,-7 2,-12 5,-16 3,-4 7,-6 12,-6 4,0 8,1 11,5l0 -22 7 0 0 57 -7 0zm0 -30c-3,-3 -7,-5 -10,-5 -3,0 -6,1 -8,4 -2,3 -2,7 -2,12 0,9 3,14 9,14 4,0 8,-3 11,-7l0 -18zm51 29c-5,1 -9,2 -13,2 -6,0 -10,-2 -14,-6 -4,-4 -5,-9 -5,-15 0,-6 1,-11 4,-15 4,-3 8,-5 13,-5 5,0 8,1 11,5 2,3 4,8 4,14l0 2 -25 0c1,10 5,14 14,14 3,0 6,0 11,-2l0 6zm-25 -23l18 0c0,-7 -3,-11 -9,-11 -5,0 -8,4 -9,11zm37 24l0 -39 7 0 0 7c3,-6 7,-8 12,-8 1,0 2,0 3,0l0 7c-2,-1 -3,-1 -4,-1 -4,0 -8,3 -11,8l0 26 -7 0zm51 -5c-5,4 -9,6 -13,6 -3,0 -6,-1 -8,-3 -2,-2 -3,-5 -3,-8 0,-4 2,-8 5,-10 4,-2 9,-3 16,-3l2 0 0 -5c0,-5 -3,-7 -8,-7 -3,0 -7,1 -12,4l0 -6c5,-2 10,-3 14,-3 4,0 7,1 10,3 2,2 3,5 3,9l0 18c0,4 1,6 3,6 1,0 1,0 2,0l0 4c-1,1 -3,1 -5,1 -3,0 -6,-2 -6,-6zm-1 -4l0 -10 -3 0c-4,0 -7,1 -9,2 -3,2 -4,3 -4,6 0,2 1,3 2,4 1,1 3,2 4,2 3,0 6,-1 10,-4zm21 9l0 -57 7 0 0 57 -7 0zm70 0l0 -7c-3,5 -7,8 -13,8 -5,0 -8,-2 -11,-5 -3,-4 -4,-8 -4,-14 0,-7 1,-12 5,-16 3,-4 7,-6 12,-6 4,0 8,1 11,5l0 -22 7 0 0 57 -7 0zm0 -30c-3,-3 -7,-5 -10,-5 -3,0 -6,1 -8,4 -2,3 -2,7 -2,12 0,9 3,14 9,14 4,0 7,-3 11,-7l0 -18zm37 31c-5,0 -10,-2 -13,-6 -4,-3 -5,-8 -5,-15 0,-6 1,-11 5,-15 3,-3 8,-5 13,-5 6,0 11,2 14,5 3,4 5,9 5,15 0,7 -2,12 -5,15 -3,4 -8,6 -14,6zm0 -5c4,0 7,-2 9,-4 2,-3 2,-7 2,-12 0,-5 0,-8 -2,-11 -2,-3 -5,-4 -9,-4 -3,0 -6,1 -8,4 -2,3 -3,6 -3,11 0,5 1,9 3,12 2,2 5,4 8,4zm-755 107l0 -54 16 0c5,0 9,1 12,3 3,3 4,6 4,10 0,4 -1,7 -3,10 -2,2 -4,4 -8,6l18 25 -9 0 -16 -23 -7 0 0 23 -7 0zm7 -29l3 0c5,0 8,-1 11,-2 2,-2 3,-5 3,-9 0,-5 -4,-8 -12,-8l-5 0 0 19zm69 28c-5,1 -9,2 -13,2 -5,0 -10,-2 -14,-6 -3,-4 -5,-9 -5,-15 0,-6 1,-11 5,-15 3,-4 7,-6 12,-6 5,0 8,2 11,6 3,3 4,8 4,14l0 2 -25 0c1,10 6,14 14,14 3,0 6,-1 11,-2l0 6zm-25 -23l18 0c0,-7 -3,-11 -8,-11 -6,0 -9,4 -10,11zm64 23c-4,1 -8,2 -11,2 -6,0 -10,-2 -14,-6 -3,-4 -5,-9 -5,-15 0,-7 2,-12 5,-15 4,-4 9,-6 15,-6 3,0 6,1 10,2l0 6c-4,-1 -7,-2 -10,-2 -3,0 -6,1 -9,4 -2,3 -3,7 -3,11 0,5 1,8 4,11 2,3 5,4 8,4 4,0 7,-1 10,-3l0 7zm27 2c-6,0 -11,-2 -14,-6 -3,-4 -5,-9 -5,-15 0,-6 2,-11 5,-15 3,-4 8,-6 14,-6 6,0 10,2 13,6 4,4 5,9 5,15 0,6 -1,11 -5,15 -3,4 -7,6 -13,6zm0 -6c3,0 6,-1 8,-4 2,-2 3,-6 3,-11 0,-5 -1,-9 -3,-11 -2,-3 -5,-4 -8,-4 -4,0 -7,1 -8,4 -2,2 -3,6 -3,11 0,5 1,9 3,11 1,3 4,4 8,4zm-13 -42l9 -11 8 0 8 11 -5 0 -7 -7 -8 7 -5 0zm43 47l0 -40 7 0 0 8c4,-6 8,-9 14,-9 3,0 6,2 8,4 2,2 3,5 3,8l0 29 -7 0 0 -26c0,-3 -1,-5 -2,-6 0,-2 -2,-2 -4,-2 -4,0 -8,3 -12,8l0 26 -7 0zm73 -1c-5,1 -9,2 -12,2 -5,0 -10,-2 -13,-6 -4,-4 -5,-9 -5,-15 0,-7 1,-12 5,-15 3,-4 8,-6 14,-6 3,0 7,1 10,2l0 6c-4,-1 -7,-2 -9,-2 -4,0 -7,1 -9,4 -2,3 -3,7 -3,11 0,5 1,8 3,11 2,3 5,4 9,4 3,0 6,-1 10,-3l0 7zm31 -4c-4,4 -9,6 -13,6 -3,0 -5,-1 -8,-3 -2,-2 -3,-5 -3,-8 0,-4 2,-8 6,-10 3,-2 8,-4 15,-4l2 0 0 -4c0,-5 -3,-7 -7,-7 -4,0 -8,1 -12,3l0 -6c4,-2 9,-3 13,-3 4,0 8,2 10,3 2,2 3,6 3,10l0 18c0,4 1,6 4,6 0,0 0,0 1,0l1 4c-2,0 -4,1 -6,1 -3,0 -5,-2 -6,-6zm-1 -4l0 -10 -3 0c-3,0 -7,0 -9,2 -2,1 -4,3 -4,6 0,1 1,3 2,4 1,1 3,2 5,2 2,0 6,-1 9,-4zm30 9l-15 -40 7 0 12 31 12 -31 6 0 -15 40 -7 0zm45 1c-5,0 -10,-2 -13,-6 -4,-4 -5,-9 -5,-15 0,-6 1,-11 5,-15 3,-4 8,-6 13,-6 6,0 11,2 14,6 3,4 5,9 5,15 0,6 -2,11 -5,15 -3,4 -8,6 -14,6zm0 -6c4,0 7,-1 9,-4 2,-2 3,-6 3,-11 0,-5 -1,-9 -3,-11 -2,-3 -5,-4 -9,-4 -3,0 -6,1 -8,4 -2,2 -3,6 -3,11 0,5 1,9 3,11 2,3 5,4 8,4zm79 5l0 -8c-3,6 -7,9 -13,9 -5,0 -9,-2 -11,-5 -3,-4 -4,-9 -4,-15 0,-6 1,-12 4,-16 3,-4 7,-6 12,-6 5,0 9,2 12,6l0 -23 7 0 0 58 -7 0zm0 -30c-4,-3 -7,-5 -11,-5 -3,0 -5,1 -7,4 -2,3 -3,7 -3,12 0,9 3,13 9,13 4,0 8,-2 12,-6l0 -18zm42 25c-5,4 -9,6 -13,6 -3,0 -6,-1 -8,-3 -2,-2 -3,-5 -3,-8 0,-4 2,-8 5,-10 4,-2 9,-4 16,-4l2 0 0 -4c0,-5 -3,-7 -8,-7 -3,0 -7,1 -12,3l0 -6c5,-2 10,-3 14,-3 4,0 8,2 10,3 2,2 3,6 3,10l0 18c0,4 1,6 3,6 1,0 1,0 2,0l0 4c-1,0 -3,1 -5,1 -3,0 -5,-2 -6,-6zm-1 -4l0 -10 -3 0c-4,0 -7,0 -9,2 -3,1 -4,3 -4,6 0,1 1,3 2,4 1,1 3,2 4,2 3,0 6,-1 10,-4zm45 9l0 -54 13 0c6,0 10,1 13,3 3,2 4,5 4,9 0,3 -1,6 -3,8 -2,3 -4,4 -8,6 9,2 13,7 13,14 0,4 -1,6 -3,9 -1,2 -3,3 -5,4 -2,0 -5,1 -9,1l-15 0zm7 -6l2 0c5,0 9,0 10,-1 4,-1 5,-4 5,-7 0,-4 -1,-6 -4,-8 -3,-2 -7,-4 -11,-4l-2 0 0 20zm0 -24l2 0c5,0 8,-1 10,-3 2,-2 3,-4 3,-7 0,-6 -4,-8 -12,-8l-3 0 0 18zm56 25c-5,4 -9,6 -13,6 -3,0 -6,-1 -8,-3 -2,-2 -3,-5 -3,-8 0,-4 2,-8 5,-10 4,-2 9,-4 16,-4l2 0 0 -4c0,-5 -3,-7 -8,-7 -3,0 -7,1 -12,3l0 -6c5,-2 10,-3 14,-3 4,0 7,2 10,3 2,2 3,6 3,10l0 18c0,4 1,6 3,6 1,0 1,0 2,0l0 4c-1,0 -3,1 -5,1 -3,0 -5,-2 -6,-6zm-1 -4l0 -10 -3 0c-4,0 -7,0 -9,2 -3,1 -4,3 -4,6 0,1 1,3 2,4 1,1 3,2 4,2 3,0 6,-1 10,-4zm21 9l0 -58 7 0 0 26c4,-6 9,-9 14,-9 4,0 6,2 8,4 2,2 3,5 3,8l0 29 -7 0 0 -26c0,-3 0,-5 -1,-6 -1,-2 -2,-2 -4,-2 -5,0 -9,3 -13,8l0 26 -7 0zm46 0l0 -40 7 0 0 40 -7 0zm0 -47l0 -7 7 0 0 7 -7 0zm42 42c-4,4 -8,6 -12,6 -4,0 -6,-1 -9,-3 -2,-2 -3,-5 -3,-8 0,-4 2,-8 6,-10 3,-2 8,-4 15,-4l2 0 0 -4c0,-5 -3,-7 -7,-7 -4,0 -8,1 -12,3l0 -6c4,-2 9,-3 13,-3 5,0 8,2 10,3 2,2 3,6 3,10l0 18c0,4 1,6 4,6 0,0 1,0 1,0l1 4c-2,0 -4,1 -6,1 -3,0 -5,-2 -6,-6zm-1 -4l0 -10 -2 0c-4,0 -8,0 -10,2 -2,1 -4,3 -4,6 0,1 1,3 2,4 1,1 3,2 5,2 3,0 6,-1 9,-4z"/>
    <path class="fil1" d="M681 400c-24,4 -50,-2 -79,-19 -33,-20 -75,-69 -85,-107l-32 -5 88 -5c12,-3 13,-7 12,-15 -2,-11 -6,-21 -5,-25 2,-1 4,-3 6,-4 5,-2 1,-12 -2,-15 4,-4 6,-9 3,-14 -5,-3 -4,-4 -6,-9 18,-14 16,-15 11,-23 -24,-24 -34,-31 -33,-59 1,-39 -40,-74 -49,-78 -38,-20 -120,-9 -144,42 26,-57 130,-78 172,-53 28,10 55,44 49,84 -7,37 15,32 42,59 8,9 2,14 -15,28 1,6 2,5 9,9 4,5 1,17 -4,23 13,11 8,28 -8,25 -5,3 2,15 6,24 4,8 -3,26 -19,24l-50 -8 -1 0c7,35 16,61 45,86 27,24 57,34 89,35z"/>
    <path class="fil0" d="M191 307l0 -160c0,-16 -3,-26 -6,-33l-5 -10 0 -8 57 0 0 8 -4 9c-4,7 -7,18 -7,34l0 165c0,16 3,27 7,33l5 10 0 8 -47 0 0 -38c-25,30 -54,37 -89,37 -28,0 -50,-8 -66,-25 -16,-16 -24,-39 -24,-66l0 -131c0,-16 -2,-20 -6,-26l-5 -10 0 -7 57 -1 0 8 -4 9c-3,7 -6,11 -6,26l0 135c0,22 5,39 17,52 12,12 29,18 50,18 32,0 57,-8 76,-37zm575 56l-105 0 0 -8 7 -10c4,-6 6,-17 6,-33l0 -165c0,-17 -2,-27 -6,-34l-6 -9 0 -8 82 0c29,0 51,6 68,18 16,12 24,28 24,47 0,29 -18,49 -53,61l0 1c20,4 37,13 49,27 13,14 19,29 19,47 0,20 -7,36 -23,48 -16,12 -36,18 -62,18zm-57 -256l0 112 28 0c19,0 34,-5 45,-15 11,-10 17,-23 17,-40 0,-18 -5,-32 -16,-42 -12,-10 -27,-15 -47,-15l-27 0zm25 123l-25 0 0 78c0,17 2,29 6,35 4,6 11,9 22,9l21 0c16,0 28,-5 38,-15 10,-11 15,-24 15,-42 0,-20 -7,-35 -21,-47 -14,-12 -33,-18 -56,-18zm-358 4l-54 0 0 78c0,16 3,27 7,33l4 10 0 8 -57 0 0 -8 4 -10c4,-6 7,-17 7,-33l0 -165c0,-16 -3,-27 -6,-34l-5 -9 0 -8 163 0 0 27 -6 0 -12 -7c-5,-3 -15,-7 -31,-7l-68 0 0 112 53 0c9,0 15,-5 21,-8l9 -4 7 0 0 37 -7 0 -8 -4c-6,-3 -12,-8 -21,-8z"/>
   </g>
   <g>
    <path class="fil2" d="M1370 21l-64 0c-3,0 -6,2 -6,5l0 209 0 21 0 11 0 7 0 8c0,3 3,5 6,5l64 0c3,0 5,-2 5,-5l0 -8 0 -7 0 -11 0 -21 0 -209c0,-3 -2,-5 -5,-5z"/>
    <path class="fil3" d="M1316 55l43 0c3,0 5,3 5,6l0 3c0,3 -2,6 -5,6l-43 0c-3,0 -5,-3 -5,-6l0 -3c0,-3 2,-6 5,-6z"/>
    <path class="fil2" d="M1269 70l-63 0c-4,0 -6,2 -6,6l0 159 0 21 0 11 0 7 0 8c0,3 2,5 6,5l63 0c3,0 6,-2 6,-5l0 -8 0 -7 0 -11 0 -21 0 -159c0,-4 -3,-6 -6,-6z"/>
    <path class="fil3" d="M1216 105l43 0c3,0 5,2 5,5l0 4c0,3 -2,5 -5,5l-43 0c-3,0 -5,-2 -5,-5l0 -4c0,-3 2,-5 5,-5z"/>
    <path class="fil2" d="M1176 155l-63 -9c-3,0 -6,2 -6,5l-11 75 -3 20 -2 11 -1 7 -1 8c0,3 2,6 5,6l63 9c3,1 6,-1 6,-5l1 -7 2 -7 1 -11 3 -20 11 -75c0,-4 -2,-6 -5,-7z"/>
    <path class="fil3" d="M1118 182l43 6c3,0 5,3 4,6l0 4c-1,3 -4,5 -6,4l-43 -6c-3,0 -5,-3 -4,-6l0 -4c1,-3 4,-5 6,-4z"/>
    <path class="fil4" d="M1303 497l5 -23 1 0c0,2 0,4 0,6 0,4 1,7 4,10 2,2 6,3 10,3 4,0 7,-1 9,-3 2,-3 3,-5 3,-8 0,-3 -1,-4 -1,-6 -2,-3 -6,-7 -12,-13 -3,-3 -4,-5 -5,-7 -2,-2 -2,-5 -2,-7 0,-5 1,-8 4,-11 4,-3 8,-5 12,-5 2,0 4,0 5,1 1,0 3,1 5,2 2,0 3,1 3,1 1,0 1,0 1,0 1,0 2,0 3,-1 0,0 1,-1 2,-3l2 0 -5 20 -2 0c1,-1 1,-3 1,-4 0,-4 -2,-6 -4,-9 -2,-2 -5,-3 -9,-3 -3,0 -6,1 -8,3 -2,1 -3,3 -3,6 0,2 1,4 2,6 1,2 4,5 9,9 4,4 7,8 8,10 2,2 2,5 2,8 0,3 -1,6 -2,9 -2,3 -4,5 -7,6 -3,2 -7,3 -10,3 -2,0 -4,-1 -5,-1 -2,0 -4,-1 -8,-2 -1,-1 -2,-1 -2,-1 -2,0 -4,1 -5,4l-1 0zm88 -41l-8 27c-1,4 -2,6 -2,7 0,1 0,1 0,1 1,0 1,1 1,1 1,0 1,-1 2,-1 1,-1 2,-2 4,-6l2 1c-2,4 -5,7 -7,9 -2,1 -4,1 -5,1 -1,0 -2,0 -3,-1 0,0 -1,-1 -1,-2 0,-1 0,-3 1,-4 0,-2 2,-7 4,-15 -5,9 -9,14 -13,18 -3,3 -6,4 -9,4 -2,0 -3,0 -4,-1 -1,-1 -1,-2 -1,-4 0,-2 0,-5 2,-10l4 -14c1,-3 1,-5 1,-6 0,0 0,-1 0,-1 -1,0 -1,0 -1,0 -1,0 -1,0 -2,0 -1,1 -2,2 -4,5l-2 -1c3,-3 5,-6 7,-7 2,-2 4,-2 6,-2 1,0 2,0 2,1 1,1 1,1 1,3 0,1 0,4 -1,8l-4 15c-2,4 -2,6 -2,7 0,1 0,1 0,1 1,1 1,1 2,1 1,0 2,0 4,-1 1,-1 3,-4 6,-7 3,-3 5,-7 6,-10 2,-3 4,-7 6,-14l1 -3 7 0zm22 -1l-3 10c4,-4 7,-6 9,-8 3,-1 5,-2 8,-2 2,0 5,1 7,3 1,2 2,5 2,8 0,7 -2,13 -8,20 -5,7 -11,10 -18,10 -2,0 -3,0 -4,0 -1,0 -2,-1 -4,-2l-3 12c-1,2 -1,3 -1,4 0,1 0,1 0,2 1,0 1,1 2,1 1,0 2,0 5,0l-1 2 -21 0 1 -2c2,0 4,0 5,-1 1,-1 2,-3 3,-7l12 -39c0,-3 1,-4 1,-5 0,-1 -1,-1 -1,-2 -1,0 -1,0 -2,0 -1,0 -2,0 -4,0l0 -2 15 -2zm-10 36c2,2 4,3 8,3 1,0 3,-1 4,-1 2,-1 3,-3 5,-4 1,-2 3,-4 4,-6 1,-2 2,-5 3,-8 1,-3 2,-6 2,-9 0,-2 -1,-4 -2,-5 -1,-2 -2,-2 -4,-2 -3,0 -6,2 -9,5 -3,4 -6,8 -7,13l-4 14zm47 -13c0,2 -1,3 -1,4 0,3 1,5 3,7 2,2 4,3 7,3 2,0 4,-1 6,-2 2,-1 5,-2 9,-5l1 1c-7,7 -14,10 -20,10 -4,0 -8,-1 -10,-4 -2,-3 -3,-6 -3,-9 0,-4 1,-9 4,-13 3,-5 6,-9 10,-11 4,-3 8,-4 13,-4 3,0 5,0 7,2 1,1 2,3 2,4 0,3 -1,5 -3,7 -2,3 -6,6 -11,8 -4,1 -8,2 -14,2zm0 -2c4,0 8,-1 11,-2 3,-2 6,-4 8,-6 2,-3 3,-5 3,-7 0,-1 -1,-2 -1,-3 -1,-1 -2,-1 -4,-1 -3,0 -6,2 -9,5 -4,3 -6,8 -8,14zm34 -19l16 -2 -7 22c5,-9 10,-16 14,-19 3,-2 5,-3 6,-3 1,0 2,0 2,1 1,0 1,1 1,2 0,2 0,4 -1,6 -1,1 -2,2 -3,2 -1,0 -2,0 -2,-1 -1,0 -1,-1 -1,-2 0,0 0,-1 0,-1 -1,0 -1,0 -1,0 -1,0 -1,0 -2,0 0,0 -2,2 -3,4 -3,2 -5,6 -8,11 -1,2 -2,4 -3,7 -2,3 -2,5 -2,6l-2 5 -7 0 9 -27c0,-4 1,-6 1,-7 0,-1 0,-1 -1,-2 0,0 -1,0 -2,0 -1,0 -2,0 -4,0l0 -2zm51 -20c2,0 3,1 3,1 1,1 2,2 2,4 0,1 -1,2 -2,3 0,1 -1,1 -3,1 -1,0 -2,0 -3,-1 -1,-1 -1,-2 -1,-3 0,-2 0,-3 1,-4 1,0 2,-1 3,-1zm1 18l-9 31c-1,2 -1,4 -1,4 0,0 0,1 1,1 0,0 0,1 1,1 0,0 1,-1 1,-1 2,-2 4,-3 5,-6l2 1c-2,3 -5,6 -7,8 -2,2 -4,2 -6,2 -1,0 -2,0 -3,-1 -1,0 -1,-1 -1,-3 0,-1 0,-2 1,-5l6 -20c1,-3 1,-5 1,-6 0,-1 0,-1 -1,-2 0,0 -1,0 -1,0 -1,0 -2,0 -5,0l0 -2 16 -2zm24 0l-6 20c6,-8 10,-14 13,-16 3,-3 6,-4 9,-4 1,0 2,0 3,1 1,1 2,3 2,4 0,2 -1,4 -1,7l-6 19c0,2 -1,4 -1,4 0,1 0,1 1,1 0,0 0,1 0,1 1,0 1,-1 2,-1 1,-1 3,-3 5,-6l1 1c-3,4 -5,7 -8,9 -1,1 -3,1 -4,1 -1,0 -2,0 -3,-1 -1,0 -1,-1 -1,-2 0,-2 1,-4 2,-8l5 -18c0,-2 1,-4 1,-5 0,-1 0,-1 -1,-1 0,-1 -1,-1 -1,-1 -1,0 -2,0 -3,1 -2,1 -5,4 -7,7 -2,3 -5,7 -8,12 -1,2 -2,5 -3,8l-2 7 -7 0 8 -28c1,-3 2,-5 2,-6 0,0 -1,-1 -1,-1 -1,-1 -1,-1 -2,-1 -1,0 -1,0 -2,0l-2 0 0 -1 15 -3zm50 -11l-4 12 7 0 -1 3 -7 0 -7 26c-1,3 -2,5 -2,6 0,0 1,0 1,1 0,0 0,0 1,0 0,0 1,0 3,-1 0,-1 2,-3 4,-6l2 1c-3,4 -6,7 -8,9 -2,1 -3,1 -5,1 -1,0 -2,0 -3,-1 -1,-1 -1,-2 -1,-3 0,-2 0,-4 1,-7l7 -26 -6 0 0 -2c3,-1 6,-2 8,-4 2,-2 5,-5 8,-9l2 0zm12 34c0,2 0,3 0,4 0,3 1,5 3,7 1,2 4,3 6,3 2,0 5,-1 7,-2 2,-1 4,-2 8,-5l1 1c-7,7 -14,10 -20,10 -4,0 -7,-1 -10,-4 -2,-3 -3,-6 -3,-9 0,-4 1,-9 4,-13 3,-5 6,-9 10,-11 4,-3 9,-4 13,-4 3,0 6,0 7,2 2,1 2,3 2,4 0,3 -1,5 -3,7 -2,3 -6,6 -11,8 -3,1 -8,2 -14,2zm0 -2c5,0 8,-1 11,-2 4,-2 6,-4 8,-6 2,-3 3,-5 3,-7 0,-1 0,-2 -1,-3 -1,-1 -2,-1 -4,-1 -3,0 -6,2 -9,5 -4,3 -6,8 -8,14zm50 -21l-6 20c5,-8 10,-14 13,-16 3,-3 5,-4 8,-4 2,0 3,0 4,1 1,1 1,3 1,4 0,2 0,4 -1,7l-5 19c-1,2 -1,4 -1,4 0,1 0,1 0,1 0,0 0,1 1,1 0,0 0,-1 1,-1 2,-1 3,-3 5,-6l2 1c-3,4 -6,7 -8,9 -2,1 -4,1 -5,1 -1,0 -2,0 -3,-1 0,0 -1,-1 -1,-2 0,-2 1,-4 2,-8l5 -18c1,-2 1,-4 1,-5 0,-1 0,-1 0,-1 -1,-1 -1,-1 -2,-1 -1,0 -2,0 -3,1 -2,1 -4,4 -7,7 -2,3 -5,7 -7,12 -2,2 -3,5 -4,8l-2 7 -7 0 9 -28c0,-3 1,-5 1,-6 0,0 0,-1 -1,-1 0,-1 -1,-1 -2,-1 0,0 -1,0 -2,0l-1 0 -1 -1 16 -3zm75 -23l-16 52c-1,3 -1,5 -1,6 0,0 0,1 0,1 1,0 1,0 1,0 1,0 1,0 2,0 1,-1 2,-3 5,-6l1 1c-2,3 -4,6 -6,8 -3,1 -5,2 -6,2 -1,0 -2,0 -3,-1 -1,0 -1,-1 -1,-3 0,-1 1,-4 1,-7l2 -5c-4,7 -8,11 -12,14 -2,1 -4,2 -7,2 -2,0 -4,-1 -6,-3 -1,-2 -2,-4 -2,-8 0,-4 1,-9 4,-14 3,-5 7,-9 11,-12 4,-3 7,-4 10,-4 2,0 3,0 5,1 1,0 2,2 3,3l4 -15c1,-2 1,-2 1,-3 1,-1 1,-2 1,-3 0,-1 0,-1 -1,-2 -1,0 -1,0 -2,0 -1,0 -2,0 -4,0l0 -2 16 -2zm-17 31c0,-1 -1,-3 -2,-4 -1,-1 -2,-2 -4,-2 -4,0 -7,3 -11,9 -5,7 -7,13 -7,18 0,2 1,4 2,5 1,1 2,2 3,2 4,0 7,-3 12,-10 5,-7 7,-13 7,-18zm24 15c-1,2 -1,3 -1,4 0,3 1,5 3,7 2,2 4,3 7,3 2,0 4,-1 6,-2 2,-1 5,-2 9,-5l1 1c-7,7 -14,10 -20,10 -5,0 -8,-1 -10,-4 -2,-3 -3,-6 -3,-9 0,-4 1,-9 4,-13 3,-5 6,-9 10,-11 4,-3 8,-4 13,-4 3,0 5,0 7,2 1,1 2,3 2,4 0,3 -1,5 -3,7 -2,3 -6,6 -11,8 -4,1 -8,2 -14,2zm0 -2c4,0 8,-1 11,-2 3,-2 6,-4 8,-6 2,-3 3,-5 3,-7 0,-1 -1,-2 -2,-3 0,-1 -1,-1 -3,-1 -3,0 -6,2 -9,5 -4,3 -6,8 -8,14zm26 -43l3 14 -1 0 -7 -9 -14 9 -2 0 14 -14 7 0zm23 22l-5 20c5,-8 9,-14 12,-16 3,-3 6,-4 9,-4 1,0 3,0 3,1 1,1 2,3 2,4 0,2 -1,4 -1,7l-6 19c0,2 -1,4 -1,4 0,1 0,1 1,1 0,0 0,1 0,1 1,0 1,-1 2,-1 1,-1 3,-3 5,-6l1 1c-3,4 -5,7 -8,9 -1,1 -3,1 -4,1 -1,0 -2,0 -3,-1 -1,0 -1,-1 -1,-2 0,-2 1,-4 2,-8l5 -18c0,-2 1,-4 1,-5 0,-1 0,-1 -1,-1 0,-1 -1,-1 -1,-1 -1,0 -2,0 -3,1 -2,1 -5,4 -7,7 -2,3 -5,7 -8,12 -1,2 -2,5 -3,8l-2 7 -7 0 8 -28c1,-3 2,-5 2,-6 0,0 -1,-1 -1,-1 -1,-1 -1,-1 -2,-1 0,0 -1,0 -2,0l-2 0 0 -1 15 -3zm61 31c-3,3 -6,6 -9,8 -3,1 -7,2 -10,2 -4,0 -8,-1 -10,-3 -2,-3 -4,-6 -4,-10 0,-4 2,-9 4,-13 3,-5 6,-8 10,-11 5,-3 9,-4 13,-4 3,0 6,0 7,2 2,1 3,3 3,5 0,2 -1,3 -2,5 -1,1 -2,1 -3,1 -1,0 -2,0 -2,-1 -1,0 -1,-1 -1,-2 0,-1 0,-1 0,-2 0,0 1,-1 1,-1 1,-1 2,-1 2,-2 0,0 0,0 0,-1 0,0 0,-1 -1,-1 -1,-1 -2,-1 -4,-1 -2,0 -5,1 -8,3 -3,2 -5,5 -7,9 -3,4 -4,9 -4,13 0,3 1,6 2,8 2,1 5,2 7,2 3,0 5,0 7,-1 3,-2 5,-4 8,-7l1 2zm26 -49c1,0 2,1 3,1 1,1 1,2 1,4 0,1 0,2 -1,3 -1,1 -2,1 -3,1 -1,0 -2,0 -3,-1 -1,-1 -2,-2 -2,-3 0,-2 1,-3 2,-4 1,0 2,-1 3,-1zm0 18l-8 31c-1,2 -1,4 -1,4 0,0 0,1 0,1 0,0 1,1 1,1 1,0 1,-1 2,-1 1,-2 3,-3 5,-6l1 1c-2,3 -4,6 -7,8 -2,2 -4,2 -6,2 -1,0 -2,0 -3,-1 0,0 -1,-1 -1,-3 0,-1 1,-2 1,-5l6 -20c1,-3 2,-5 2,-6 0,-1 -1,-1 -1,-2 -1,0 -1,0 -2,0 -1,0 -2,0 -4,0l0 -2 15 -2zm48 0l-9 30 -1 4c0,1 0,1 0,1 0,1 0,1 0,1 0,1 1,1 1,1 0,0 1,0 2,-1 1,-1 2,-3 4,-5l2 1c-2,3 -4,5 -7,7 -2,2 -4,2 -6,2 -1,0 -2,0 -2,-1 -1,0 -1,-1 -1,-2 0,-2 0,-4 1,-6l1 -4c-4,6 -8,9 -11,11 -3,2 -5,2 -7,2 -2,0 -4,-1 -6,-2 -1,-2 -2,-5 -2,-8 0,-5 1,-10 4,-15 3,-5 7,-9 11,-12 3,-3 7,-4 10,-4 1,0 3,0 4,1 1,1 2,3 3,5l1 -5 8 -1zm-16 2c-2,0 -4,1 -6,3 -3,2 -6,6 -8,11 -3,5 -4,10 -4,14 0,2 0,3 1,4 2,2 3,2 4,2 3,0 7,-2 11,-7 5,-6 7,-13 7,-20 0,-2 0,-4 -1,-5 -1,-1 -3,-2 -4,-2zm90 -25l-15 52c-1,3 -1,5 -1,6 0,0 0,1 0,1 1,0 1,0 1,0 0,0 1,0 1,0 1,-1 3,-3 5,-6l2 1c-2,3 -4,6 -6,8 -3,1 -5,2 -7,2 -1,0 -1,0 -2,-1 -1,0 -1,-1 -1,-3 0,-1 0,-4 1,-7l2 -5c-4,7 -8,11 -12,14 -2,1 -5,2 -7,2 -2,0 -4,-1 -6,-3 -1,-2 -2,-4 -2,-8 0,-4 1,-9 4,-14 3,-5 7,-9 11,-12 4,-3 7,-4 10,-4 2,0 3,0 4,1 2,0 3,2 4,3l4 -15c1,-2 1,-2 1,-3 0,-1 1,-2 1,-3 0,-1 -1,-1 -1,-2 -1,0 -2,0 -3,0 0,0 -1,0 -3,0l0 -2 15 -2zm-16 31c0,-1 -1,-3 -2,-4 -1,-1 -2,-2 -4,-2 -4,0 -8,3 -12,9 -4,7 -6,13 -6,18 0,2 1,4 2,5 1,1 2,2 3,2 3,0 7,-3 12,-10 5,-7 7,-13 7,-18zm24 15c-1,2 -1,3 -1,4 0,3 1,5 3,7 2,2 4,3 7,3 2,0 4,-1 6,-2 2,-1 5,-2 9,-5l1 1c-7,7 -14,10 -20,10 -5,0 -8,-1 -10,-4 -2,-3 -3,-6 -3,-9 0,-4 1,-9 4,-13 2,-5 6,-9 10,-11 4,-3 8,-4 13,-4 3,0 5,0 7,2 1,1 2,3 2,4 0,3 -1,5 -3,7 -3,3 -6,6 -11,8 -4,1 -8,2 -14,2zm0 -2c4,0 8,-1 11,-2 3,-2 6,-4 8,-6 2,-3 3,-5 3,-7 0,-1 -1,-2 -2,-3 0,-1 -2,-1 -3,-1 -3,0 -6,2 -10,5 -3,3 -6,8 -7,14zm-887 55l-7 24 6 0c4,0 7,0 8,-2 2,-1 4,-3 5,-6l2 0 -7 22 -1 0c0,-2 0,-4 0,-5 0,-2 0,-3 0,-3 -1,-1 -2,-2 -2,-2 -1,0 -3,-1 -6,-1l-6 0 -6 20c0,2 -1,4 -1,5 0,1 1,1 2,2 0,0 1,1 3,1l6 0c5,0 10,-1 14,-4 3,-2 6,-5 9,-10l2 0 -6 17 -47 0 1 -2c2,0 4,0 5,-1 1,0 2,-1 2,-2 1,-1 2,-4 3,-7l11 -37c0,-3 1,-5 1,-7 0,-1 -1,-2 -1,-2 -1,-1 -3,-1 -5,-1l-1 0 1 -2 43 0 -4 15 -1 0c0,-2 0,-3 0,-4 0,-1 0,-3 -1,-4 -1,-1 -3,-2 -5,-3 -1,0 -4,-1 -10,-1l-7 0z"/>
    <path class="fil4" d="M1208 525l-15 53c-1,3 -1,5 -1,5 0,1 0,1 0,1 0,1 1,1 1,1 0,0 1,-1 1,-1 1,-1 3,-2 5,-5l2 1c-2,3 -4,5 -7,7 -2,2 -4,3 -6,3 -1,0 -2,-1 -2,-1 -1,-1 -1,-2 -1,-3 0,-2 0,-4 1,-7l2 -6c-4,7 -8,11 -12,14 -2,2 -5,3 -7,3 -2,0 -4,-1 -6,-3 -1,-2 -2,-5 -2,-9 0,-4 1,-9 4,-14 3,-5 7,-9 11,-12 4,-3 7,-4 10,-4 2,0 3,0 4,1 2,1 3,2 4,3l4 -15c0,-1 1,-2 1,-3 0,-1 1,-2 1,-3 0,0 -1,-1 -1,-1 -1,-1 -2,-1 -3,-1 0,0 -1,0 -3,0l0 -1 15 -3zm-16 32c0,-2 -1,-4 -2,-5 -1,-1 -2,-2 -4,-2 -4,0 -8,4 -12,10 -4,6 -6,12 -6,18 0,2 1,3 2,5 1,1 2,1 3,1 3,0 7,-3 12,-10 4,-6 7,-12 7,-17zm56 -8l-8 27c-1,4 -2,6 -2,7 0,1 0,1 0,2 1,0 1,0 1,0 1,0 1,0 2,-1 0,0 2,-2 4,-5l2 1c-3,3 -5,6 -7,8 -2,1 -4,2 -5,2 -1,0 -2,-1 -3,-1 -1,-1 -1,-2 -1,-3 0,-1 0,-2 1,-4 0,-2 1,-7 4,-14 -5,8 -10,14 -13,17 -3,3 -6,5 -9,5 -2,0 -3,-1 -4,-2 -1,-1 -1,-2 -1,-3 0,-3 0,-6 2,-11l4 -13c0,-4 1,-6 1,-7 0,0 0,0 0,-1 -1,0 -1,0 -1,0 -1,0 -1,0 -2,1 -1,0 -2,2 -4,5l-2 -1c3,-4 5,-6 7,-8 2,-1 4,-2 6,-2 1,0 2,1 2,1 1,1 1,2 1,3 0,2 0,4 -1,9l-5 14c-1,4 -1,6 -1,7 0,1 0,1 0,2 1,0 1,0 2,0 1,0 2,0 4,-1 1,-1 3,-3 6,-7 2,-3 5,-6 6,-9 2,-3 4,-8 6,-14l1 -4 7 0zm37 30c-3,4 -6,6 -9,8 -3,2 -6,3 -10,3 -4,0 -7,-2 -10,-4 -2,-2 -3,-5 -3,-9 0,-5 1,-10 3,-14 3,-4 6,-8 11,-11 4,-2 8,-4 12,-4 4,0 6,1 8,2 1,2 2,3 2,5 0,2 -1,4 -2,5 -1,1 -2,1 -3,1 -1,0 -1,0 -2,0 -1,-1 -1,-2 -1,-3 0,0 0,-1 0,-1 1,-1 1,-1 2,-2 0,-1 1,-1 1,-1 0,-1 0,-1 0,-1 0,-1 0,-2 -1,-2 0,-1 -2,-1 -3,-1 -3,0 -6,1 -9,3 -3,2 -5,5 -7,9 -3,5 -4,9 -4,14 0,3 1,5 3,7 1,2 4,3 7,3 2,0 4,-1 7,-2 2,-1 4,-3 7,-6l1 1zm49 -31l-9 30 -1 5c0,0 0,0 0,0 0,1 0,1 0,2 0,0 1,0 1,0 0,0 1,0 2,-1 1,0 2,-2 4,-5l2 1c-2,3 -4,6 -7,7 -2,2 -4,3 -6,3 -1,0 -2,-1 -3,-1 0,-1 0,-2 0,-3 0,-2 0,-3 1,-6l0 -3c-3,5 -7,8 -10,10 -3,2 -5,3 -7,3 -2,0 -4,-1 -6,-3 -1,-2 -2,-4 -2,-7 0,-5 1,-10 4,-15 3,-6 6,-10 11,-13 3,-3 6,-4 10,-4 1,0 3,1 4,2 1,1 2,2 3,4l1 -5 8 -1zm-16 2c-2,0 -4,1 -6,3 -3,3 -6,6 -9,11 -2,5 -3,10 -3,14 0,2 0,4 1,5 1,1 3,1 4,1 3,0 7,-2 10,-7 6,-6 8,-13 8,-19 0,-3 0,-5 -1,-6 -1,-1 -3,-2 -4,-2zm53 29c-3,4 -6,6 -9,8 -3,2 -6,3 -10,3 -4,0 -7,-2 -10,-4 -2,-2 -3,-5 -3,-9 0,-5 1,-10 4,-14 2,-4 6,-8 10,-11 4,-2 8,-4 12,-4 4,0 6,1 8,2 1,2 2,3 2,5 0,2 0,4 -2,5 0,1 -1,1 -3,1 -1,0 -1,0 -2,0 -1,-1 -1,-2 -1,-3 0,0 0,-1 0,-1 1,-1 1,-1 2,-2 1,-1 1,-1 1,-1 0,-1 0,-1 0,-1 0,-1 0,-2 0,-2 -1,-1 -3,-1 -4,-1 -3,0 -6,1 -9,3 -3,2 -5,5 -7,9 -3,5 -4,9 -4,14 0,3 1,5 3,7 2,2 4,3 7,3 2,0 4,-1 7,-2 2,-1 4,-3 7,-6l1 1zm-15 8l-2 4c2,0 4,1 5,2 0,1 1,3 1,4 0,2 -1,4 -3,5 -2,2 -4,3 -7,3 -2,0 -4,0 -7,-1l1 -1c1,0 3,0 4,0 1,0 3,0 4,-1 1,-1 2,-2 2,-3 0,-2 -1,-2 -1,-3 -1,-1 -2,-1 -4,-1l5 -8 2 0zm64 -39l-9 30 -1 5c0,0 0,0 0,0 0,1 0,1 0,2 0,0 1,0 1,0 0,0 1,0 2,-1 1,0 2,-2 4,-5l2 1c-2,3 -4,6 -7,7 -2,2 -4,3 -6,3 -1,0 -2,-1 -2,-1 -1,-1 -1,-2 -1,-3 0,-2 0,-3 1,-6l1 -3c-4,5 -8,8 -11,10 -3,2 -5,3 -7,3 -2,0 -4,-1 -6,-3 -1,-2 -2,-4 -2,-7 0,-5 1,-10 4,-15 3,-6 7,-10 11,-13 3,-3 7,-4 10,-4 1,0 3,1 4,2 1,1 2,2 3,4l1 -5 8 -1zm-16 2c-2,0 -4,1 -6,3 -3,3 -6,6 -8,11 -3,5 -4,10 -4,14 0,2 1,4 2,5 1,1 2,1 3,1 3,0 7,-2 11,-7 5,-6 7,-13 7,-19 0,-3 0,-5 -1,-6 -1,-1 -3,-2 -4,-2zm16 -22l2 0c0,3 -1,6 -3,8 -2,2 -3,3 -6,3 -2,0 -4,-1 -7,-2 -3,-2 -5,-3 -5,-4 -1,0 -1,0 -2,0 -1,0 -2,0 -3,1 0,1 -1,3 -1,5l-2 0c0,-4 1,-7 3,-9 1,-2 3,-2 6,-2 2,0 4,1 7,3 4,2 6,3 7,3 1,0 2,-1 2,-1 1,-1 2,-3 2,-5zm44 34c0,5 -1,9 -3,13 -2,5 -6,8 -10,11 -4,2 -8,4 -12,4 -4,0 -8,-2 -10,-4 -3,-3 -4,-6 -4,-10 0,-5 1,-9 4,-14 2,-4 6,-7 10,-10 4,-3 8,-4 12,-4 4,0 7,1 10,4 2,3 3,6 3,10zm-7 -3c0,-3 -1,-5 -2,-6 -1,-2 -3,-3 -5,-3 -5,0 -9,4 -12,10 -4,6 -6,12 -6,19 0,2 1,5 2,6 2,2 4,2 6,2 4,0 8,-3 12,-9 3,-6 5,-12 5,-19zm81 -32l-5 50c0,2 0,4 0,5 0,1 0,2 0,2 1,1 2,2 3,2 1,1 2,1 5,1l-1 2 -24 0 1 -2 1 0c2,0 3,0 5,-1 0,-1 1,-2 2,-3 0,-1 0,-3 1,-7l0 -7 -17 0 -6 8c-2,2 -3,3 -3,4 0,1 0,2 0,2 0,1 0,2 1,3 1,1 2,1 4,1l-1 2 -18 0 1 -2c2,0 4,-1 6,-2 1,-2 4,-5 7,-9l36 -49 2 0zm-9 15l-18 23 16 0 2 -23zm44 -17l-9 31c3,-3 5,-5 7,-6 3,-1 5,-2 7,-2 3,0 6,1 8,3 2,3 3,6 3,9 0,5 -1,10 -4,15 -3,4 -6,8 -10,11 -4,2 -8,4 -12,4 -5,0 -9,-2 -14,-5l13 -47c1,-4 2,-6 2,-7 0,0 0,-1 -1,-1 0,-1 -1,-1 -3,-1 0,0 -1,0 -3,0l0 -1 16 -3zm-18 60c3,2 6,3 8,3 3,0 6,-1 8,-3 3,-2 6,-5 8,-10 2,-5 3,-9 3,-14 0,-3 -1,-5 -2,-6 -1,-2 -3,-3 -5,-3 -3,0 -5,2 -8,4 -3,2 -5,5 -6,9l-6 20zm48 -13c0,1 0,2 0,3 0,3 0,5 2,7 2,2 4,3 7,3 2,0 4,0 6,-1 2,-1 5,-3 9,-6l1 1c-7,7 -14,11 -20,11 -4,0 -8,-2 -10,-4 -2,-3 -3,-6 -3,-9 0,-5 1,-9 4,-14 3,-5 6,-8 10,-11 4,-3 9,-4 13,-4 3,0 5,1 7,2 1,1 2,3 2,5 0,2 -1,4 -3,7 -2,3 -6,5 -11,7 -3,1 -8,2 -14,3zm0 -2c5,-1 8,-2 11,-3 4,-2 6,-4 8,-6 2,-2 3,-4 3,-6 0,-2 -1,-3 -1,-3 -1,-1 -2,-2 -4,-2 -3,0 -6,2 -9,5 -4,3 -6,8 -8,15zm34 -19l16 -3 -7 22c5,-9 10,-15 14,-19 3,-2 5,-3 6,-3 1,0 2,0 3,1 0,1 0,1 0,3 0,2 0,3 -1,5 -1,2 -2,2 -3,2 -1,0 -1,0 -2,0 0,-1 -1,-2 -1,-3 0,0 0,0 0,-1 -1,0 -1,0 -1,0 -1,0 -1,0 -2,0 0,1 -1,2 -3,4 -3,3 -5,7 -8,11 -1,2 -2,4 -3,7 -2,3 -2,5 -2,6l-2 6 -7 0 9 -28c1,-3 1,-6 1,-7 0,-1 0,-1 -1,-1 0,-1 -1,-1 -2,-1 -1,0 -2,0 -3,0l-1 -1zm55 -14l-4 12 7 0 -1 3 -6 0 -8 26c-1,3 -1,5 -1,6 0,0 0,1 0,1 0,0 0,1 1,1 1,0 1,-1 3,-2 0,-1 2,-3 5,-6l1 2c-3,4 -5,6 -8,8 -1,1 -3,2 -5,2 -1,0 -2,-1 -3,-2 -1,0 -1,-1 -1,-3 0,-1 0,-4 1,-7l8 -26 -7 0 0 -2c4,-1 6,-2 8,-4 3,-1 5,-5 8,-9l2 0zm44 11l-9 30 -1 5c0,0 0,0 0,0 0,1 1,1 1,2 0,0 0,0 1,0 0,0 1,0 1,-1 1,0 3,-2 5,-5l1 1c-2,3 -4,6 -6,7 -2,2 -4,3 -6,3 -1,0 -2,-1 -3,-1 -1,-1 -1,-2 -1,-3 0,-2 1,-3 1,-6l1 -3c-4,5 -7,8 -11,10 -2,2 -4,3 -7,3 -2,0 -4,-1 -5,-3 -2,-2 -3,-4 -3,-7 0,-5 2,-10 5,-15 3,-6 6,-10 11,-13 3,-3 6,-4 9,-4 2,0 4,1 5,2 1,1 2,2 2,4l2 -5 7 -1zm-16 2c-2,0 -4,1 -6,3 -3,3 -6,6 -8,11 -2,5 -3,10 -3,14 0,2 0,4 1,5 1,1 2,1 4,1 3,0 6,-2 10,-7 5,-6 8,-13 8,-19 0,-3 -1,-5 -2,-6 -1,-1 -2,-2 -4,-2zm53 22c-1,1 -1,2 -1,3 0,3 1,5 3,7 2,2 4,3 7,3 2,0 4,0 6,-1 2,-1 5,-3 9,-6l1 1c-7,7 -14,11 -20,11 -5,0 -8,-2 -10,-4 -2,-3 -3,-6 -3,-9 0,-5 1,-9 4,-14 2,-5 6,-8 10,-11 4,-3 8,-4 13,-4 3,0 5,1 7,2 1,1 2,3 2,5 0,2 -1,4 -3,7 -3,3 -6,5 -11,7 -4,1 -8,2 -14,3zm0 -2c4,-1 8,-2 11,-3 3,-2 6,-4 8,-6 2,-2 3,-4 3,-6 0,-2 -1,-3 -2,-3 0,-1 -2,-2 -3,-2 -3,0 -6,2 -10,5 -3,3 -5,8 -7,15zm95 -22l-9 30 -1 5c0,0 0,0 0,0 0,1 0,1 0,2 1,0 1,0 1,0 1,0 1,0 2,-1 1,0 3,-2 4,-5l2 1c-2,3 -4,6 -6,7 -3,2 -5,3 -6,3 -2,0 -3,-1 -3,-1 -1,-1 -1,-2 -1,-3 0,-2 0,-3 1,-6l1 -3c-4,5 -8,8 -11,10 -2,2 -5,3 -7,3 -2,0 -4,-1 -5,-3 -2,-2 -3,-4 -3,-7 0,-5 2,-10 4,-15 3,-6 7,-10 11,-13 4,-3 7,-4 10,-4 2,0 3,1 4,2 2,1 2,2 3,4l2 -5 7 -1zm-16 2c-2,0 -4,1 -6,3 -3,3 -6,6 -8,11 -3,5 -4,10 -4,14 0,2 1,4 2,5 1,1 2,1 3,1 3,0 7,-2 11,-7 5,-6 7,-13 7,-19 0,-3 0,-5 -1,-6 -1,-1 -2,-2 -4,-2zm55 -20l0 -2 20 0c8,0 14,1 18,3 4,2 7,5 9,9 2,4 4,8 4,13 0,4 -1,8 -2,11 -2,4 -3,7 -5,9 -2,2 -4,5 -8,8 -3,2 -7,4 -11,6 -4,1 -10,2 -16,2l-25 0 0 -2c3,0 4,0 5,-1 1,0 2,-1 3,-2 0,-1 1,-3 3,-7l10 -37c1,-3 1,-5 1,-7 0,-1 0,-2 -1,-2 -1,-1 -2,-1 -4,-1l-1 0zm16 1l-14 46c-1,3 -1,5 -1,6 0,0 0,1 0,1 1,1 1,1 2,1 0,1 2,1 3,1 5,0 9,-1 13,-2 4,-1 8,-2 10,-4 4,-3 7,-7 9,-11 2,-5 3,-11 3,-17 0,-7 -1,-12 -5,-16 -3,-3 -8,-5 -14,-5 -2,0 -4,0 -6,0zm57 -1c1,0 2,1 3,2 1,1 1,2 1,3 0,1 0,2 -1,3 -1,1 -2,1 -3,1 -2,0 -3,0 -4,-1 0,-1 -1,-2 -1,-3 0,-1 1,-2 1,-3 1,-1 2,-2 4,-2zm0 18l-9 32c0,2 0,3 0,3 0,1 0,1 0,1 0,1 1,1 1,1 0,0 1,0 2,-1 1,-1 3,-3 5,-6l1 2c-2,3 -4,5 -7,7 -2,2 -4,3 -6,3 -1,0 -2,-1 -3,-1 0,-1 -1,-2 -1,-3 0,-1 1,-3 1,-6l6 -20c1,-3 1,-5 1,-6 0,0 0,-1 0,-1 -1,-1 -1,-1 -2,-1 -1,0 -2,0 -4,0l0 -1 15 -3zm38 0l-3 14 -2 0c0,-4 -1,-7 -2,-9 -2,-2 -4,-3 -6,-3 -2,0 -3,1 -4,2 -1,1 -2,2 -2,4 0,1 0,2 1,2 0,1 1,3 2,4 4,4 7,8 8,10 1,2 2,4 2,6 0,3 -2,6 -4,8 -3,2 -6,4 -10,4 -2,0 -5,-1 -7,-2 -1,0 -2,0 -3,0 -1,0 -2,0 -3,2l-1 0 2 -15 2 0c0,5 1,8 3,10 2,2 4,3 7,3 2,0 4,-1 5,-2 2,-2 2,-3 2,-5 0,-1 0,-2 0,-3 -1,-2 -3,-5 -6,-8 -2,-3 -4,-5 -5,-7 -1,-1 -1,-3 -1,-5 0,-2 1,-5 3,-7 2,-2 5,-3 8,-3 1,0 2,0 3,0 0,0 1,1 3,1 1,1 2,1 3,1 1,0 2,0 3,-2l2 0zm26 -11l-4 12 7 0 0 3 -7 0 -8 26c-1,3 -1,5 -1,6 0,0 0,1 0,1 0,0 1,1 1,1 1,0 2,-1 3,-2 1,-1 2,-3 5,-6l1 2c-3,4 -5,6 -8,8 -1,1 -3,2 -5,2 -1,0 -2,-1 -3,-2 -1,0 -1,-1 -1,-3 0,-1 0,-4 1,-7l8 -26 -7 0 0 -2c4,-1 6,-2 9,-4 2,-1 4,-5 7,-9l2 0zm44 11l-8 30 -1 5c-1,0 -1,0 -1,0 0,1 1,1 1,2 0,0 0,0 1,0 0,0 1,0 1,-1 1,0 3,-2 5,-5l1 1c-2,3 -4,6 -6,7 -2,2 -4,3 -6,3 -1,0 -2,-1 -3,-1 0,-1 -1,-2 -1,-3 0,-2 1,-3 1,-6l1 -3c-4,5 -7,8 -11,10 -2,2 -4,3 -6,3 -3,0 -4,-1 -6,-3 -2,-2 -2,-4 -2,-7 0,-5 1,-10 4,-15 3,-6 6,-10 11,-13 3,-3 6,-4 9,-4 2,0 4,1 5,2 1,1 2,2 3,4l1 -5 7 -1zm-16 2c-2,0 -4,1 -6,3 -3,3 -5,6 -8,11 -2,5 -3,10 -3,14 0,2 0,4 1,5 1,1 2,1 4,1 3,0 6,-2 10,-7 5,-6 8,-13 8,-19 0,-3 -1,-5 -2,-6 -1,-1 -2,-2 -4,-2zm13 -23l3 14 -1 0 -7 -9 -14 9 -2 0 14 -14 7 0z"/>
    <path class="fil4" d="M2111 548l-6 21c6,-9 10,-14 13,-17 3,-3 6,-4 9,-4 1,0 2,1 3,2 1,1 2,2 2,3 0,2 -1,5 -2,8l-5 18c-1,3 -1,4 -1,4 0,1 0,1 0,1 1,1 1,1 1,1 0,0 1,0 1,-1 2,-1 4,-3 6,-5l1 0c-3,4 -5,7 -8,9 -2,1 -3,2 -5,2 -1,0 -2,-1 -2,-1 -1,-1 -1,-2 -1,-3 0,-1 0,-4 1,-7l6 -18c0,-3 0,-4 0,-6 0,0 0,-1 0,-1 0,0 -1,-1 -2,-1 0,0 -1,1 -2,1 -3,2 -5,4 -7,7 -3,3 -5,7 -8,12 -1,2 -2,5 -3,8l-3 8 -6 0 8 -28c1,-4 1,-6 1,-6 0,-1 0,-2 -1,-2 0,-1 -1,-1 -1,-1 -1,0 -1,0 -2,0l-2 1 0 -2 15 -3zm61 31c-3,4 -6,6 -10,8 -3,2 -6,3 -10,3 -4,0 -7,-2 -9,-4 -3,-2 -4,-5 -4,-9 0,-5 1,-10 4,-14 2,-4 6,-8 10,-11 4,-2 9,-4 13,-4 3,0 5,1 7,2 2,2 2,3 2,5 0,2 0,4 -1,5 -1,1 -2,1 -3,1 -1,0 -2,0 -3,0 0,-1 -1,-2 -1,-3 0,0 1,-1 1,-1 0,-1 0,-1 1,-2 1,-1 1,-1 1,-1 1,-1 1,-1 1,-1 0,-1 -1,-2 -1,-2 -1,-1 -2,-1 -4,-1 -3,0 -6,1 -8,3 -3,2 -6,5 -8,9 -2,5 -3,9 -3,14 0,3 0,5 2,7 2,2 4,3 7,3 2,0 5,-1 7,-2 2,-1 5,-3 8,-6l1 1zm26 -49c1,0 2,1 3,2 1,1 1,2 1,3 0,1 -1,2 -1,3 -1,1 -2,1 -3,1 -2,0 -3,0 -4,-1 -1,-1 -1,-2 -1,-3 0,-1 0,-2 1,-3 1,-1 2,-2 4,-2zm0 18l-9 32c0,2 -1,3 -1,3 0,1 1,1 1,1 0,1 0,1 1,1 0,0 1,0 1,-1 2,-1 4,-3 6,-6l1 2c-2,3 -4,5 -7,7 -2,2 -4,3 -6,3 -1,0 -2,-1 -3,-1 -1,-1 -1,-2 -1,-3 0,-1 0,-3 1,-6l6 -20c1,-3 1,-5 1,-6 0,0 0,-1 0,-1 -1,-1 -1,-1 -2,-1 -1,0 -2,0 -4,0l0 -1 15 -3zm47 0l-8 30 -1 5c-1,0 -1,0 -1,0 0,1 1,1 1,2 0,0 0,0 1,0 0,0 1,0 1,-1 1,0 3,-2 5,-5l1 1c-2,3 -4,6 -6,7 -2,2 -4,3 -6,3 -1,0 -2,-1 -3,-1 0,-1 -1,-2 -1,-3 0,-2 1,-3 1,-6l1 -3c-4,5 -7,8 -11,10 -2,2 -4,3 -6,3 -3,0 -4,-1 -6,-3 -2,-2 -2,-4 -2,-7 0,-5 1,-10 4,-15 3,-6 6,-10 11,-13 3,-3 6,-4 9,-4 2,0 4,1 5,2 1,1 2,2 3,4l1 -5 7 -1zm-16 2c-2,0 -4,1 -6,3 -3,3 -5,6 -8,11 -2,5 -3,10 -3,14 0,2 0,4 1,5 1,1 2,1 4,1 3,0 6,-2 10,-7 5,-6 8,-13 8,-19 0,-3 -1,-5 -2,-6 -1,-1 -2,-2 -4,-2z"/>
    <polygon class="fil5" points="1204,365 2146,365 2146,371 1204,371 "/>
    <path class="fil6" d="M1435 288l0 -98 32 0 0 9c0,11 3,20 10,28 14,19 31,28 51,28 13,0 24,-4 32,-12 9,-8 13,-18 13,-31 0,-12 -3,-21 -10,-26 -7,-6 -21,-11 -41,-16 -23,-6 -40,-12 -51,-18 -11,-5 -20,-13 -27,-23 -6,-11 -10,-23 -10,-37 0,-22 7,-39 22,-52 14,-13 32,-19 54,-19 21,0 40,6 58,20l0 -20 31 0 0 81 -31 0 0 0c0,-18 -10,-34 -27,-42 -8,-4 -18,-6 -28,-6 -14,0 -25,3 -33,10 -7,6 -11,14 -11,23 0,7 2,13 6,18 4,6 9,10 14,12 6,3 18,6 35,11 23,5 40,11 50,16 10,5 19,14 27,26 7,12 11,26 11,41 0,23 -8,41 -24,55 -15,15 -34,22 -57,22 -24,0 -45,-9 -64,-26l0 26 -32 0z"/>
    <polygon class="fil6" points="1663,254 1663,54 1630,54 1630,21 1833,21 1833,88 1801,88 1801,54 1703,54 1703,134 1786,134 1786,167 1703,167 1703,254 1801,254 1801,221 1833,221 1833,288 1630,288 1630,254 "/>
    <path class="fil6" d="M2101 254l0 -113 0 -87 -33 0 0 -33 100 0c29,0 51,1 66,4 15,3 30,10 45,20 14,10 26,25 34,43 9,18 13,39 13,62 0,26 -4,49 -12,68 -9,20 -20,34 -33,44 -14,10 -30,16 -48,20 -19,4 -42,6 -71,6l-61 0 0 -34zm41 0l21 0c23,0 42,-1 55,-4 14,-3 26,-8 35,-15 10,-7 17,-18 23,-32 6,-15 9,-32 9,-51 0,-23 -5,-43 -15,-59 -9,-16 -22,-27 -36,-32 -15,-4 -39,-7 -70,-7l-22 0 0 200z"/>
    <polygon class="fil7" points="1467,288 1531,288 1531,276 1462,240 1461,263 "/>
    <polygon class="fil7" points="1568,21 1510,21 1542,50 1589,55 "/>
    <path class="fil6" d="M2016 194l-96 0 -21 60 -12 34 -40 0 12 -34 73 -203 -33 0 0 -30 92 0 11 30 75 203 12 34 -43 0 -11 -34 -19 -60zm-10 -31l-36 -112 -3 0 -37 112 76 0z"/>
   </g>
  </g>
 </g>
</svg>
