<?xml version="1.0" encoding="UTF-8"?>
<!DOCTYPE svg PUBLIC "-//W3C//DTD SVG 1.1//EN" "http://www.w3.org/Graphics/SVG/1.1/DTD/svg11.dtd">
<!-- Creator: CorelDRAW X7 -->
<svg xmlns="http://www.w3.org/2000/svg" xml:space="preserve" width="1189px" height="1773px" version="1.1" style="shape-rendering:geometricPrecision; text-rendering:geometricPrecision; image-rendering:optimizeQuality; fill-rule:evenodd; clip-rule:evenodd"
viewBox="0 0 1189 1773"
 xmlns:xlink="http://www.w3.org/1999/xlink">
 <defs>
  <style type="text/css">
   <![CDATA[
    .str0 {stroke:#0E9FAF;stroke-width:2.36221}
    .fil2 {fill:#E6E7E8}
    .fil16 {fill:#0D94A5}
    .fil1 {fill:#0E304C}
    .fil0 {fill:#0E9FAF}
    .fil7 {fill:#119EAF}
    .fil11 {fill:#189AAA}
    .fil8 {fill:#252727}
    .fil12 {fill:#2A3437}
    .fil13 {fill:#2B2B24}
    .fil10 {fill:#2B2C33}
    .fil17 {fill:#2E3129}
    .fil6 {fill:#303847}
    .fil3 {fill:#322C50}
    .fil18 {fill:#37352C}
    .fil14 {fill:#97754E}
    .fil19 {fill:#C79E61}
    .fil15 {fill:#F2B44E}
    .fil4 {fill:#F6B54E}
    .fil9 {fill:#F7B74E}
    .fil5 {fill:#FEFEFE}
   ]]>
  </style>
 </defs>
 <g id="Camada_x0020_1">
  <metadata id="CorelCorpID_0Corel-Layer"/>
  <g id="_2587156122176">
   <rect class="fil0 str0" transform="matrix(-2.51426E-014 -0.941639 -0.941639 2.51426E-014 1188.94 1772.97)" width="1883" height="1263" rx="5" ry="5"/>
   <path class="fil1" d="M247 364c18,20 30,36 58,43 45,11 144,-17 193,-31 11,-4 25,-7 36,-12 6,-1 14,-4 20,-6l136 -46c53,-17 105,-35 158,-50 27,-8 53,-17 80,-23 67,-16 196,-40 261,-36l0 -5c-47,-4 -123,8 -171,17 -62,11 -98,19 -159,38 -101,31 -201,64 -301,97 -57,19 -181,59 -240,54 -32,-4 -46,-19 -65,-40 -7,-8 -20,-23 -25,-32 -7,-10 -17,-20 -26,-29 -55,-55 -120,-79 -183,-104l-18 -6 -1 4 36 15c44,17 93,36 133,68 16,12 29,24 42,39 9,10 31,41 36,45z"/>
   <path class="fil2" d="M376 1380c0,-11 3,-20 9,-26 6,-6 13,-9 23,-9 6,0 12,1 17,4 5,3 9,7 11,13 3,5 4,11 4,18 0,6 -1,13 -4,18 -3,5 -7,9 -12,12 -5,3 -10,4 -16,4 -6,0 -12,-1 -17,-4 -5,-3 -9,-7 -12,-13 -2,-5 -3,-11 -3,-17zm9 1c0,8 2,14 6,19 5,4 10,7 17,7 7,0 12,-3 16,-7 5,-5 7,-12 7,-20 0,-6 -1,-11 -3,-15 -2,-4 -4,-7 -8,-9 -4,-2 -8,-4 -12,-4 -6,0 -12,3 -16,7 -5,4 -7,11 -7,22zm65 32l0 -49 8 0 0 8c2,-4 4,-6 5,-7 2,-1 4,-2 6,-2 2,0 5,1 8,3l-3 8c-2,-2 -4,-2 -6,-2 -2,0 -3,0 -5,2 -1,1 -2,2 -3,4 -1,3 -1,6 -1,10l0 25 -9 0zm30 4l8 1c1,3 2,5 3,6 2,1 5,2 9,2 3,0 6,-1 9,-2 2,-2 3,-4 4,-7 0,-1 0,-5 0,-10 -3,4 -8,6 -13,6 -7,0 -12,-2 -16,-7 -3,-5 -5,-11 -5,-17 0,-5 1,-9 2,-13 2,-4 4,-7 8,-9 3,-3 7,-4 11,-4 6,0 10,3 14,7l0 -6 8 0 0 43c0,7 -1,13 -3,16 -1,3 -4,5 -7,7 -3,2 -7,3 -12,3 -6,0 -11,-1 -14,-4 -4,-3 -6,-6 -6,-12zm7 -29c0,6 1,11 4,14 3,3 6,4 10,4 3,0 7,-1 9,-4 3,-3 4,-8 4,-14 0,-6 -1,-10 -4,-13 -3,-3 -6,-5 -10,-5 -3,0 -6,2 -9,5 -3,3 -4,7 -4,13zm79 19c-3,3 -6,5 -9,6 -3,1 -6,1 -9,1 -5,0 -9,-1 -12,-4 -3,-2 -5,-6 -5,-10 0,-2 1,-4 2,-6 1,-2 3,-4 4,-5 2,-1 4,-2 6,-3 2,0 4,0 8,-1 6,-1 11,-2 15,-3 0,-1 0,-2 0,-2 0,-3 -1,-6 -3,-7 -2,-2 -5,-3 -9,-3 -4,0 -7,1 -9,2 -2,2 -3,4 -4,8l-8 -2c1,-3 2,-6 4,-8 1,-2 4,-4 7,-5 3,-1 7,-2 11,-2 4,0 8,1 10,2 3,1 5,2 6,4 1,1 2,3 3,5 0,2 0,4 0,8l0 11c0,7 0,12 0,14 1,2 1,4 2,6l-8 0c-1,-2 -2,-4 -2,-6zm0 -18c-3,1 -8,2 -14,3 -3,0 -6,1 -7,2 -2,0 -3,1 -4,2 0,1 -1,3 -1,4 0,2 1,4 3,6 2,1 4,2 7,2 3,0 6,-1 9,-2 2,-2 4,-4 5,-6 1,-2 2,-5 2,-8l0 -3zm21 24l0 -49 7 0 0 7c4,-5 9,-8 16,-8 3,0 5,1 8,2 2,1 4,2 5,4 1,2 2,4 3,6 0,2 0,4 0,8l0 30 -8 0 0 -29c0,-4 0,-6 -1,-8 -1,-2 -2,-3 -3,-4 -2,-1 -4,-2 -6,-2 -4,0 -7,2 -9,4 -3,2 -4,6 -4,13l0 26 -8 0zm52 -58l0 -9 8 0 0 9 -8 0zm0 58l0 -49 8 0 0 49 -8 0zm17 0l0 -7 31 -35c-4,0 -7,0 -10,0l-20 0 0 -7 40 0 0 6 -26 31 -5 6c3,-1 7,-1 10,-1l23 0 0 7 -43 0zm83 -6c-3,3 -6,5 -9,6 -3,1 -6,1 -9,1 -5,0 -10,-1 -12,-4 -3,-2 -5,-6 -5,-10 0,-2 1,-4 2,-6 1,-2 2,-4 4,-5 2,-1 4,-2 6,-3 2,0 4,0 7,-1 7,-1 12,-2 15,-3 0,-1 0,-2 0,-2 0,-3 0,-6 -2,-7 -2,-2 -5,-3 -10,-3 -3,0 -6,1 -8,2 -2,2 -3,4 -4,8l-8 -2c0,-3 2,-6 3,-8 2,-2 4,-4 8,-5 3,-1 7,-2 11,-2 4,0 7,1 10,2 3,1 4,2 6,4 1,1 2,3 2,5 1,2 1,4 1,8l0 11c0,7 0,12 0,14 1,2 1,4 2,6l-8 0c-1,-2 -2,-4 -2,-6zm-1 -18c-3,1 -7,2 -13,3 -4,0 -6,1 -8,2 -1,0 -2,1 -3,2 -1,1 -1,3 -1,4 0,2 1,4 3,6 1,1 4,2 7,2 3,0 6,-1 8,-2 3,-2 5,-4 6,-6 1,-2 1,-5 1,-8l0 -3zm53 24l0 -6c-3,5 -8,7 -14,7 -4,0 -7,-1 -10,-3 -4,-2 -6,-5 -8,-9 -2,-4 -3,-8 -3,-13 0,-5 1,-9 3,-13 1,-4 4,-7 7,-9 3,-3 7,-4 11,-4 3,0 5,1 8,2 2,1 4,3 5,5l0 -24 9 0 0 67 -8 0zm-26 -24c0,6 1,11 4,14 2,3 5,4 9,4 4,0 7,-1 9,-4 3,-3 4,-7 4,-13 0,-7 -1,-12 -4,-15 -2,-3 -6,-5 -9,-5 -4,0 -7,2 -10,5 -2,3 -3,7 -3,14zm44 0c0,-9 2,-16 7,-20 4,-4 10,-6 16,-6 6,0 12,3 16,7 4,4 6,10 6,18 0,6 -1,11 -2,15 -2,4 -5,6 -9,8 -3,2 -7,3 -11,3 -7,0 -13,-2 -17,-6 -4,-5 -6,-11 -6,-19zm8 0c0,6 2,11 4,14 3,3 6,4 11,4 4,0 7,-1 10,-4 3,-3 4,-8 4,-14 0,-6 -1,-11 -4,-14 -3,-3 -6,-5 -10,-5 -5,0 -8,2 -11,5 -2,3 -4,8 -4,14zm47 24l0 -49 7 0 0 8c2,-4 4,-6 6,-7 1,-1 3,-2 5,-2 3,0 6,1 9,3l-3 8c-2,-2 -4,-2 -6,-2 -2,0 -4,0 -5,2 -2,1 -3,2 -3,4 -1,3 -2,6 -2,10l0 25 -8 0zm65 -16l8 2c-1,5 -3,8 -7,11 -4,3 -8,4 -14,4 -7,0 -13,-2 -17,-6 -4,-5 -6,-11 -6,-19 0,-8 2,-14 6,-19 4,-4 10,-7 17,-7 6,0 11,3 15,7 5,4 7,11 7,19 0,0 0,1 0,2l-37 0c1,5 2,9 5,12 3,3 6,4 10,4 3,0 6,0 8,-2 2,-2 4,-4 5,-8zm-27 -13l27 0c0,-4 -1,-7 -3,-9 -3,-3 -6,-5 -10,-5 -4,0 -7,1 -10,4 -3,2 -4,6 -4,10zm43 15l8 -2c0,4 2,6 4,8 2,2 5,2 8,2 4,0 7,0 9,-2 2,-1 3,-3 3,-5 0,-2 -1,-4 -3,-5 -1,0 -4,-1 -8,-2 -6,-2 -11,-3 -13,-4 -2,-2 -4,-3 -5,-5 -1,-2 -2,-4 -2,-7 0,-2 0,-4 1,-6 1,-2 3,-3 5,-4 1,-1 3,-2 5,-3 2,0 4,-1 7,-1 4,0 7,1 10,2 3,1 5,3 6,4 2,2 3,5 3,8l-8 1c0,-2 -1,-4 -3,-6 -2,-1 -4,-2 -7,-2 -4,0 -7,1 -9,2 -1,1 -2,3 -2,4 0,1 0,2 1,3 1,1 2,2 3,3 1,0 3,1 7,2 6,1 10,2 13,3 2,1 4,3 5,5 1,2 2,4 2,7 0,3 -1,5 -2,8 -2,2 -4,4 -7,5 -3,2 -7,2 -11,2 -6,0 -11,-1 -14,-4 -3,-2 -6,-6 -6,-11z"/>
   <g>
    <path class="fil1" d="M148 1349c0,-12 -10,-21 -21,-21 -12,0 -21,9 -21,21 0,12 9,21 21,21 11,0 21,-9 21,-21zm-21 10c-6,0 -11,-4 -11,-10 0,-6 5,-10 11,-10 6,0 10,4 10,10 0,6 -4,10 -10,10z"/>
    <path class="fil1" d="M95 1417l63 0c3,0 5,-2 5,-5l0 -5c0,-21 -16,-37 -36,-37 -20,0 -37,16 -37,37l0 5c0,3 3,5 5,5zm32 -37c14,0 26,12 26,27l-52 0c0,-15 11,-27 26,-27z"/>
    <path class="fil1" d="M327 1380c0,-3 -3,-5 -6,-5l-100 0c-3,0 -5,2 -5,5 0,3 2,6 5,6l100 0c3,0 6,-3 6,-6z"/>
    <path class="fil1" d="M321 1344l-100 0c-20,0 -37,16 -37,36 0,21 17,37 37,37l27 0c2,0 5,-2 5,-5 0,-3 -3,-5 -5,-5l-27 0c-14,0 -26,-12 -26,-27 0,-14 12,-26 26,-26l100 0c15,0 26,12 26,26 0,15 -11,27 -26,27l-26 0c-3,0 -6,2 -6,5 0,3 3,5 6,5l26 0c21,0 37,-16 37,-37 0,-20 -16,-36 -37,-36z"/>
    <path class="fil1" d="M276 1412c0,3 -2,5 -5,5 -3,0 -5,-2 -5,-5 0,-3 2,-5 5,-5 3,0 5,2 5,5z"/>
   </g>
   <path class="fil3" d="M124 584l0 -103 -38 0 0 -14 93 0 0 14 -39 0 0 103 -16 0zm109 -27l15 2c-3,9 -7,15 -13,20 -7,5 -15,7 -25,7 -12,0 -22,-4 -29,-11 -7,-8 -11,-19 -11,-32 0,-15 4,-26 11,-34 7,-8 17,-11 29,-11 11,0 20,3 27,11 7,8 11,19 11,33 0,1 0,2 0,4l-63 0c0,9 3,16 8,21 4,5 10,7 17,7 6,0 10,-1 14,-4 4,-3 6,-7 9,-13zm-48 -23l48 0c-1,-7 -3,-13 -6,-16 -4,-6 -10,-9 -17,-9 -7,0 -13,3 -17,7 -5,4 -7,10 -8,18zm136 19l15 2c-2,10 -6,18 -12,23 -7,6 -15,8 -24,8 -11,0 -21,-4 -28,-11 -7,-8 -10,-19 -10,-33 0,-9 1,-17 4,-24 3,-7 8,-12 14,-15 6,-4 13,-5 20,-5 10,0 17,2 23,7 6,4 10,11 11,19l-14 3c-1,-6 -3,-10 -7,-13 -3,-3 -7,-5 -12,-5 -7,0 -13,3 -18,8 -4,5 -7,14 -7,25 0,11 3,20 7,25 4,5 10,7 17,7 6,0 10,-1 14,-5 4,-3 6,-9 7,-16zm27 31l0 -85 13 0 0 12c6,-9 15,-13 27,-13 5,0 10,0 14,2 4,2 7,5 10,8 2,3 3,6 4,10 1,3 1,8 1,14l0 52 -15 0 0 -51c0,-6 0,-11 -1,-13 -1,-3 -3,-6 -6,-7 -3,-2 -6,-3 -10,-3 -6,0 -12,2 -16,6 -5,4 -7,11 -7,22l0 46 -14 0zm86 -42c0,-16 4,-27 13,-35 7,-6 16,-9 27,-9 11,0 21,3 28,11 8,8 11,18 11,32 0,11 -1,19 -5,25 -3,7 -8,12 -14,15 -6,4 -13,5 -20,5 -12,0 -22,-4 -29,-11 -8,-8 -11,-19 -11,-33zm14 0c0,11 3,19 7,24 5,6 11,8 19,8 7,0 13,-2 17,-8 5,-5 8,-13 8,-25 0,-10 -3,-18 -8,-23 -4,-6 -10,-8 -17,-8 -8,0 -14,2 -19,8 -4,5 -7,13 -7,24zm82 42l0 -117 14 0 0 117 -14 0zm31 -42c0,-16 5,-27 13,-35 8,-6 17,-9 27,-9 12,0 21,3 29,11 7,8 11,18 11,32 0,11 -2,19 -5,25 -3,7 -8,12 -14,15 -7,4 -13,5 -21,5 -12,0 -21,-4 -29,-11 -7,-8 -11,-19 -11,-33zm15 0c0,11 2,19 7,24 5,6 11,8 18,8 7,0 13,-2 18,-8 5,-5 7,-13 7,-25 0,-10 -2,-18 -7,-23 -5,-6 -11,-8 -18,-8 -7,0 -13,2 -18,8 -5,5 -7,13 -7,24zm79 49l14 2c1,5 2,8 5,10 4,3 8,4 15,4 6,0 12,-1 15,-4 4,-3 6,-6 8,-11 0,-3 1,-9 1,-19 -7,8 -15,11 -24,11 -12,0 -21,-4 -27,-12 -7,-9 -10,-19 -10,-31 0,-8 2,-15 5,-22 3,-7 7,-12 12,-16 6,-4 13,-5 20,-5 10,0 18,4 25,12l0 -11 13 0 0 74c0,13 -1,22 -4,28 -3,6 -7,10 -13,13 -6,3 -13,5 -21,5 -10,0 -19,-2 -25,-7 -6,-4 -9,-11 -9,-21zm12 -51c0,12 2,20 7,25 4,5 10,7 16,7 7,0 12,-2 17,-7 4,-5 7,-13 7,-24 0,-10 -3,-18 -7,-24 -5,-5 -10,-7 -17,-7 -6,0 -12,2 -16,7 -5,5 -7,13 -7,23zm82 -57l0 -16 14 0 0 16 -14 0zm0 101l0 -85 14 0 0 85 -14 0zm92 -10c-5,4 -10,8 -15,9 -5,2 -11,3 -16,3 -10,0 -17,-2 -22,-7 -5,-4 -7,-10 -7,-17 0,-4 0,-8 2,-11 2,-4 5,-7 8,-9 3,-2 6,-3 10,-4 3,-1 7,-2 13,-3 12,-1 20,-3 26,-4 0,-2 0,-4 0,-4 0,-6 -1,-10 -4,-13 -4,-3 -9,-4 -17,-4 -6,0 -11,1 -15,3 -3,2 -5,7 -7,13l-14 -2c1,-6 3,-11 6,-15 3,-4 8,-6 13,-8 6,-2 12,-3 19,-3 8,0 14,0 18,2 5,2 8,4 10,7 2,2 4,5 5,9 0,3 0,7 0,14l0 19c0,13 1,22 1,25 1,4 2,7 4,10l-15 0c-2,-3 -3,-6 -3,-10zm-1 -32c-5,2 -13,4 -24,5 -6,1 -10,2 -12,3 -3,1 -5,3 -6,5 -1,2 -2,4 -2,7 0,3 1,7 4,9 3,3 8,4 13,4 6,0 11,-1 15,-4 4,-2 7,-5 9,-10 2,-3 3,-8 3,-14l0 -5zm31 17l14 -2c1,5 3,10 7,13 4,3 9,4 15,4 7,0 12,-1 15,-4 3,-2 5,-5 5,-9 0,-3 -2,-6 -4,-8 -3,-1 -7,-3 -15,-5 -11,-2 -18,-5 -22,-7 -4,-2 -7,-4 -9,-8 -3,-3 -4,-7 -4,-11 0,-4 1,-7 3,-11 2,-3 4,-5 7,-8 2,-1 5,-3 9,-4 4,-1 8,-1 13,-1 6,0 12,1 17,2 5,2 9,5 11,8 3,4 4,8 5,13l-14 2c0,-4 -2,-7 -5,-10 -3,-2 -8,-4 -13,-4 -7,0 -12,1 -14,4 -3,2 -5,4 -5,7 0,2 1,4 2,5 1,2 3,3 6,4 1,1 5,2 12,4 10,3 18,5 22,7 4,1 7,4 9,7 2,3 4,7 4,12 0,5 -2,10 -5,14 -2,4 -6,7 -12,10 -5,2 -11,3 -18,3 -11,0 -19,-2 -25,-7 -6,-4 -9,-11 -11,-20zm-720 181l15 2c-3,9 -7,15 -13,20 -7,5 -15,7 -25,7 -12,0 -22,-3 -29,-11 -7,-8 -11,-18 -11,-32 0,-14 4,-26 11,-33 7,-8 17,-12 29,-12 11,0 20,4 27,11 8,8 11,19 11,33 0,1 0,2 0,4l-63 0c0,9 3,16 8,21 4,5 10,8 17,8 6,0 10,-2 14,-5 4,-2 7,-7 9,-13zm-48 -23l48 0c-1,-7 -3,-13 -6,-16 -4,-6 -10,-8 -17,-8 -7,0 -13,2 -17,6 -5,5 -7,11 -8,18zm129 51l0 -118 84 0 0 14 -69 0 0 36 65 0 0 14 -65 0 0 40 72 0 0 14 -87 0zm162 0l0 -11c-6,8 -14,12 -24,12 -7,0 -13,-1 -19,-5 -5,-4 -10,-9 -13,-16 -3,-6 -5,-14 -5,-23 0,-8 2,-16 5,-23 2,-7 7,-12 12,-16 6,-3 12,-5 19,-5 5,0 10,1 14,3 4,2 7,5 10,8l0 -42 14 0 0 118 -13 0zm-46 -43c0,11 2,19 7,25 5,5 10,8 16,8 7,0 12,-3 16,-8 5,-5 7,-13 7,-24 0,-11 -2,-20 -7,-25 -4,-6 -10,-8 -16,-8 -7,0 -12,2 -16,8 -5,5 -7,13 -7,24zm138 43l0 -13c-7,10 -16,14 -27,14 -5,0 -10,-1 -14,-2 -5,-2 -8,-5 -10,-8 -2,-3 -4,-6 -4,-10 -1,-3 -1,-8 -1,-14l0 -52 14 0 0 47c0,7 0,12 1,15 1,4 3,7 6,9 3,2 6,3 11,3 4,0 8,-1 12,-3 3,-3 6,-6 8,-9 1,-4 2,-10 2,-17l0 -45 15 0 0 85 -13 0zm91 -32l14 2c-2,10 -6,18 -12,23 -6,6 -14,8 -23,8 -12,0 -21,-3 -28,-11 -8,-8 -11,-18 -11,-33 0,-9 1,-17 4,-24 3,-7 8,-12 14,-15 7,-4 13,-5 21,-5 9,0 16,2 22,7 6,4 10,11 12,20l-14 2c-2,-6 -4,-10 -8,-13 -3,-3 -7,-4 -12,-4 -7,0 -13,2 -18,7 -4,6 -6,14 -6,25 0,11 2,20 6,25 5,5 10,8 17,8 6,0 11,-2 15,-6 3,-3 6,-8 7,-16zm82 21c-6,5 -11,8 -16,10 -5,2 -10,2 -16,2 -9,0 -16,-2 -21,-6 -5,-5 -8,-11 -8,-18 0,-4 1,-8 3,-11 2,-4 4,-6 8,-8 3,-3 6,-4 10,-5 3,-1 7,-2 13,-2 11,-2 20,-3 26,-5 0,-2 0,-4 0,-4 0,-6 -2,-10 -5,-12 -3,-4 -9,-5 -16,-5 -7,0 -12,1 -15,3 -3,3 -6,7 -7,13l-14 -2c1,-6 3,-11 6,-15 3,-3 7,-6 13,-8 5,-2 12,-3 19,-3 7,0 13,1 18,2 4,2 8,4 10,7 2,2 4,6 4,10 1,2 1,6 1,13l0 19c0,13 0,22 1,25 1,4 2,7 4,11l-15 0c-2,-3 -3,-7 -3,-11zm-1 -32c-6,2 -14,4 -24,5 -6,1 -10,2 -13,3 -2,1 -4,3 -5,5 -2,2 -2,4 -2,7 0,4 1,7 4,9 3,3 7,4 13,4 5,0 10,-1 15,-4 4,-2 7,-5 9,-9 2,-4 3,-8 3,-15l0 -5zm92 11l14 2c-2,10 -5,18 -12,23 -6,6 -14,8 -23,8 -12,0 -21,-3 -28,-11 -7,-8 -11,-18 -11,-33 0,-9 2,-17 5,-24 3,-7 7,-12 14,-15 6,-4 12,-5 20,-5 9,0 17,2 22,7 6,4 10,11 12,20l-14 2c-2,-6 -4,-10 -7,-13 -4,-3 -8,-4 -13,-4 -7,0 -13,2 -17,7 -5,6 -7,14 -7,25 0,11 2,20 6,25 5,5 11,8 18,8 5,0 10,-2 14,-6 4,-3 6,-8 7,-16zm-34 46l4 -14 11 0 -3 8c5,1 8,2 11,4 2,3 3,5 3,8 0,4 -2,7 -6,10 -3,4 -9,5 -17,5 -4,0 -8,0 -12,0l1 -10c4,0 6,0 8,0 5,0 8,-1 10,-2 2,-1 3,-2 3,-4 0,-1 -1,-2 -1,-2 -1,-1 -2,-2 -4,-2 -1,-1 -4,-1 -8,-1zm116 -25c-5,5 -11,8 -16,10 -5,2 -10,2 -15,2 -10,0 -17,-2 -22,-6 -5,-5 -8,-11 -8,-18 0,-4 1,-8 3,-11 2,-4 5,-6 8,-8 3,-3 6,-4 10,-5 3,-1 7,-2 13,-2 12,-2 20,-3 26,-5 0,-2 0,-4 0,-4 0,-6 -2,-10 -4,-12 -4,-4 -10,-5 -17,-5 -7,0 -12,1 -15,3 -3,3 -5,7 -7,13l-14 -2c1,-6 3,-11 6,-15 3,-3 7,-6 13,-8 6,-2 12,-3 19,-3 8,0 14,1 18,2 5,2 8,4 10,7 2,2 4,6 5,10 0,2 0,6 0,13l0 19c0,13 1,22 1,25 1,4 2,7 4,11l-15 0c-2,-3 -3,-7 -3,-11zm-1 -32c-5,2 -13,4 -24,5 -6,1 -10,2 -12,3 -3,1 -5,3 -6,5 -1,2 -2,4 -2,7 0,4 1,7 4,9 3,3 7,4 13,4 6,0 10,-1 15,-4 4,-2 7,-5 9,-9 2,-4 3,-8 3,-15l0 -5zm-47 -53c0,-5 1,-10 4,-13 3,-3 7,-5 12,-5 3,0 8,2 14,4 3,2 5,3 7,3 2,0 3,-1 4,-2 1,-1 2,-2 2,-5l10 0c0,6 -1,10 -4,13 -3,4 -7,5 -11,5 -4,0 -8,-1 -14,-4 -3,-2 -6,-3 -7,-3 -2,0 -4,0 -5,2 -1,1 -2,3 -1,5l-11 0zm78 53c0,-16 4,-27 13,-35 8,-6 16,-9 27,-9 12,0 21,4 29,11 7,8 11,18 11,32 0,11 -2,19 -5,26 -3,6 -8,11 -14,14 -7,4 -14,5 -21,5 -12,0 -22,-3 -29,-11 -7,-8 -11,-19 -11,-33zm15 0c0,11 2,19 7,25 5,5 11,8 18,8 7,0 13,-3 18,-9 5,-5 7,-13 7,-24 0,-11 -2,-19 -7,-24 -5,-6 -11,-8 -18,-8 -7,0 -13,2 -18,8 -5,5 -7,13 -7,24zm-783 226l0 -118 41 0c9,0 16,1 21,2 7,2 12,4 17,8 6,6 11,12 14,21 3,8 5,17 5,27 0,9 -2,17 -4,24 -2,7 -4,13 -8,17 -3,5 -6,8 -10,11 -4,3 -9,4 -14,6 -6,1 -12,2 -19,2l-43 0zm16 -14l25 0c8,0 14,-1 18,-2 5,-2 8,-4 11,-6 3,-4 6,-9 8,-15 2,-6 3,-14 3,-23 0,-12 -2,-22 -6,-28 -4,-7 -8,-11 -14,-13 -4,-2 -11,-3 -20,-3l-25 0 0 90zm101 -87l0 -17 14 0 0 17 -14 0zm0 101l0 -85 14 0 0 85 -14 0zm34 7l14 2c0,4 2,7 5,9 3,3 8,4 14,4 7,0 12,-1 16,-4 3,-2 6,-6 7,-11 1,-3 1,-9 1,-18 -6,7 -14,11 -23,11 -12,0 -21,-4 -27,-13 -7,-8 -10,-18 -10,-30 0,-8 1,-16 4,-23 3,-6 7,-12 13,-15 6,-4 12,-6 20,-6 10,0 18,4 25,12l0 -10 13 0 0 73c0,13 -2,23 -4,28 -3,6 -7,10 -13,13 -6,4 -13,5 -22,5 -10,0 -18,-2 -24,-7 -6,-4 -9,-11 -9,-20zm12 -51c0,11 2,19 6,24 5,5 10,8 17,8 7,0 12,-3 17,-8 4,-5 6,-13 6,-24 0,-10 -2,-18 -7,-23 -4,-6 -10,-8 -16,-8 -7,0 -12,2 -17,8 -4,5 -6,13 -6,23zm82 -57l0 -17 14 0 0 17 -14 0zm0 101l0 -85 14 0 0 85 -14 0zm67 -13l2 13c-4,1 -7,1 -10,1 -6,0 -10,-1 -13,-3 -2,-1 -4,-3 -6,-6 -1,-3 -1,-8 -1,-17l0 -49 -11 0 0 -11 11 0 0 -21 14 -9 0 30 14 0 0 11 -14 0 0 50c0,4 0,6 1,8 0,1 1,2 2,2 1,1 3,2 5,2 2,0 4,-1 6,-1zm70 2c-5,5 -10,8 -15,10 -5,2 -10,3 -16,3 -9,0 -17,-3 -22,-7 -5,-5 -7,-11 -7,-18 0,-4 1,-8 3,-11 2,-3 4,-6 7,-8 3,-2 7,-4 10,-5 3,-1 8,-1 13,-2 12,-2 21,-3 26,-5 0,-2 0,-3 0,-4 0,-6 -1,-10 -4,-12 -4,-4 -9,-5 -16,-5 -7,0 -12,1 -15,3 -4,3 -6,7 -8,13l-14 -2c2,-6 4,-11 7,-15 3,-3 7,-6 12,-8 6,-2 12,-3 20,-3 7,0 13,1 17,2 5,2 8,4 10,7 3,3 4,6 5,10 0,2 1,7 1,13l0 19c0,14 0,22 1,26 0,3 1,7 3,10l-15 0c-1,-3 -2,-7 -3,-11zm-1 -32c-5,2 -13,4 -23,6 -6,0 -11,1 -13,2 -3,2 -4,3 -6,5 -1,2 -2,4 -2,7 0,4 2,7 5,9 2,3 7,4 12,4 6,0 11,-1 15,-3 4,-3 8,-6 10,-10 1,-3 2,-8 2,-15l0 -5zm37 43l0 -118 14 0 0 118 -14 0zm40 -69l0 -16 17 0 0 16 -17 0zm0 69l0 -17 17 0 0 17 -17 0z"/>
   <path class="fil2" d="M93 1116l0 -91 31 0c8,0 13,0 17,1 5,1 9,4 13,7 5,4 9,9 11,15 2,7 3,14 3,22 0,7 0,13 -2,18 -2,6 -4,10 -6,14 -3,3 -5,6 -8,8 -3,2 -7,4 -11,5 -5,1 -10,1 -15,1l-33 0zm12 -11l20 0c6,0 10,0 14,-1 3,-1 6,-3 8,-5 3,-3 5,-7 7,-12 1,-4 2,-10 2,-17 0,-10 -2,-17 -5,-22 -3,-5 -7,-9 -11,-11 -3,-1 -9,-1 -16,-1l-19 0 0 69zm79 -67l0 -13 11 0 0 13 -11 0zm0 78l0 -66 11 0 0 66 -11 0zm71 -8c-4,3 -8,6 -12,7 -4,2 -8,3 -12,3 -7,0 -13,-2 -17,-6 -4,-3 -6,-8 -6,-13 0,-4 1,-6 2,-9 2,-3 4,-5 6,-7 3,-1 5,-2 8,-3 2,-1 6,-1 10,-2 9,-1 16,-2 20,-4 0,-1 0,-2 0,-3 0,-4 -1,-7 -3,-9 -3,-3 -7,-4 -13,-4 -5,0 -9,1 -11,3 -3,2 -5,5 -6,10l-11 -2c1,-5 3,-9 5,-11 2,-3 6,-6 10,-7 4,-2 9,-2 15,-2 6,0 10,0 14,2 3,1 6,3 8,5 1,2 2,4 3,7 1,2 1,6 1,11l0 14c0,11 0,17 0,20 1,3 2,6 3,8l-12 0c-1,-2 -1,-5 -2,-8zm-1 -25c-4,2 -10,3 -18,4 -5,1 -8,2 -10,2 -2,1 -3,2 -4,4 -1,2 -2,3 -2,5 0,3 1,6 4,8 2,2 5,3 10,3 4,0 8,-1 11,-3 3,-2 6,-5 7,-8 2,-2 2,-6 2,-11l0 -4zm-23 -41l8 -18 15 0 -14 18 -9 0zm52 74l0 -91 11 0 0 91 -11 0zm24 -33c0,-12 3,-21 10,-27 6,-5 13,-7 21,-7 9,0 17,3 22,9 6,5 9,14 9,24 0,9 -1,15 -4,20 -2,5 -6,9 -11,12 -5,2 -10,4 -16,4 -9,0 -17,-3 -22,-9 -6,-6 -9,-15 -9,-26zm12 0c0,9 1,15 5,19 4,4 8,6 14,6 6,0 10,-2 14,-6 4,-4 6,-11 6,-19 0,-8 -2,-15 -6,-19 -4,-4 -8,-6 -14,-6 -6,0 -10,2 -14,6 -4,4 -5,11 -5,19zm61 39l11 1c0,4 2,6 4,8 3,2 6,3 11,3 5,0 9,-1 12,-3 3,-3 5,-5 6,-9 1,-2 1,-7 1,-15 -5,6 -11,9 -19,9 -9,0 -16,-3 -21,-10 -5,-6 -7,-14 -7,-23 0,-7 1,-12 3,-18 3,-5 6,-9 10,-12 5,-3 10,-4 15,-4 8,0 15,3 20,9l0 -8 10 0 0 57c0,10 -1,18 -3,22 -2,4 -5,8 -10,10 -5,3 -10,4 -17,4 -8,0 -14,-2 -19,-5 -5,-4 -7,-9 -7,-16zm9 -40c0,9 2,15 5,19 4,4 8,6 13,6 6,0 10,-2 13,-6 4,-4 6,-10 6,-19 0,-8 -2,-14 -6,-18 -3,-4 -8,-6 -13,-6 -5,0 -9,2 -12,6 -4,4 -6,10 -6,18zm60 1c0,-12 3,-21 10,-27 6,-5 13,-7 21,-7 9,0 16,3 22,9 6,5 9,14 9,24 0,9 -1,15 -4,20 -3,5 -6,9 -11,12 -5,2 -10,4 -16,4 -9,0 -17,-3 -23,-9 -5,-6 -8,-15 -8,-26zm11 0c0,9 2,15 6,19 4,4 8,6 14,6 5,0 10,-2 14,-6 4,-4 5,-11 5,-19 0,-8 -1,-15 -5,-19 -4,-4 -9,-6 -14,-6 -6,0 -10,2 -14,6 -4,4 -6,11 -6,19zm60 13l11 -1c0,4 2,7 5,10 3,2 7,3 12,3 5,0 9,-1 11,-3 3,-2 4,-4 4,-7 0,-3 -1,-5 -3,-6 -2,-1 -6,-2 -12,-4 -8,-2 -14,-4 -17,-5 -3,-2 -5,-4 -7,-7 -2,-2 -3,-5 -3,-8 0,-3 1,-6 2,-9 2,-2 4,-4 6,-6 2,-1 4,-2 7,-3 3,-1 6,-1 10,-1 5,0 10,0 13,2 4,1 7,3 9,6 2,2 3,6 4,10l-11 2c0,-4 -2,-6 -4,-8 -3,-2 -6,-3 -10,-3 -6,0 -9,1 -11,2 -3,2 -4,4 -4,6 0,2 1,3 2,4 1,1 2,2 4,3 1,1 4,2 10,3 8,2 13,4 16,5 4,2 6,4 8,6 2,3 3,6 3,10 0,3 -2,7 -4,10 -2,4 -5,6 -9,8 -4,2 -9,3 -14,3 -9,0 -15,-2 -20,-6 -4,-3 -7,-9 -8,-16zm-362 131l12 3c-2,10 -7,17 -13,22 -7,6 -15,8 -25,8 -9,0 -17,-2 -24,-6 -6,-4 -10,-10 -14,-17 -3,-8 -4,-16 -4,-25 0,-9 1,-18 5,-25 4,-7 9,-12 15,-16 7,-3 15,-5 23,-5 9,0 16,2 23,7 6,4 10,11 13,19l-12 3c-2,-6 -5,-11 -9,-14 -4,-3 -10,-5 -16,-5 -7,0 -12,2 -17,5 -5,4 -8,8 -10,14 -2,5 -3,11 -3,17 0,8 1,15 3,21 3,5 6,10 11,13 5,2 10,4 15,4 7,0 13,-2 18,-6 4,-4 7,-10 9,-17zm21 -1c0,-13 4,-22 11,-28 5,-5 12,-7 21,-7 9,0 16,3 22,9 6,6 8,14 8,25 0,8 -1,15 -3,20 -3,4 -7,8 -12,11 -4,3 -10,4 -15,4 -10,0 -17,-3 -23,-9 -6,-6 -9,-14 -9,-25zm12 0c0,8 2,14 5,19 4,4 9,6 15,6 5,0 10,-2 13,-6 4,-5 6,-11 6,-20 0,-8 -2,-14 -6,-18 -3,-5 -8,-7 -13,-7 -6,0 -11,2 -15,7 -3,4 -5,10 -5,19zm64 33l0 -67 10 0 0 10c5,-7 12,-11 21,-11 4,0 7,1 11,2 3,2 6,3 7,6 2,2 3,5 4,8 0,2 0,6 0,11l0 41 -11 0 0 -41c0,-4 0,-8 -1,-10 -1,-2 -3,-4 -5,-5 -2,-2 -5,-2 -8,-2 -4,0 -9,1 -12,4 -3,3 -5,9 -5,18l0 36 -11 0zm95 -10l1 10c-3,0 -6,1 -8,1 -4,0 -7,-1 -9,-2 -3,-2 -4,-3 -5,-6 -1,-2 -2,-6 -2,-13l0 -38 -8 0 0 -9 8 0 0 -16 12 -7 0 23 11 0 0 9 -11 0 0 39c0,3 0,5 0,6 1,1 1,2 2,2 1,1 2,1 4,1 1,0 3,0 5,0zm56 -12l12 2c-2,6 -5,12 -10,15 -5,4 -12,6 -19,6 -10,0 -18,-3 -23,-9 -6,-6 -9,-14 -9,-25 0,-11 3,-20 9,-26 6,-6 13,-9 22,-9 9,0 16,3 22,9 5,6 8,15 8,25 0,1 0,2 0,3l-49 0c0,8 2,13 6,17 4,4 8,6 14,6 4,0 7,-1 10,-3 3,-3 5,-6 7,-11zm-37 -18l37 0c0,-5 -2,-10 -4,-12 -4,-5 -8,-7 -14,-7 -5,0 -9,2 -13,5 -3,4 -5,8 -6,14zm63 40l0 -67 10 0 0 10c2,-3 5,-6 8,-8 4,-2 8,-3 12,-3 5,0 9,1 12,3 3,2 5,5 7,9 5,-8 12,-12 20,-12 7,0 12,2 15,5 4,4 6,10 6,17l0 46 -12 0 0 -42c0,-5 0,-8 -1,-10 0,-2 -2,-3 -4,-4 -2,-2 -4,-2 -6,-2 -5,0 -9,1 -12,4 -3,3 -5,8 -5,15l0 39 -11 0 0 -43c0,-5 -1,-9 -3,-12 -1,-2 -4,-3 -9,-3 -3,0 -6,1 -8,2 -3,2 -5,4 -6,7 -1,4 -2,8 -2,14l0 35 -11 0zm106 25l0 -92 10 0 0 9c3,-3 5,-6 8,-7 3,-2 7,-3 11,-3 6,0 11,1 15,4 5,3 8,7 10,13 2,5 3,11 3,17 0,7 -1,13 -3,18 -3,6 -6,10 -11,13 -4,3 -9,4 -14,4 -4,0 -7,-1 -10,-2 -3,-2 -6,-4 -8,-6l0 32 -11 0zm10 -58c0,8 2,15 5,19 4,4 8,6 13,6 5,0 9,-2 13,-6 3,-5 5,-11 5,-20 0,-8 -2,-15 -5,-19 -4,-4 -8,-6 -13,-6 -4,0 -9,2 -12,7 -4,4 -6,10 -6,19zm57 0c0,-13 3,-22 10,-28 6,-5 13,-7 21,-7 9,0 16,3 22,9 6,6 9,14 9,25 0,8 -2,15 -4,20 -3,4 -6,8 -11,11 -5,3 -10,4 -16,4 -9,0 -17,-3 -23,-9 -5,-6 -8,-14 -8,-25zm11 0c0,8 2,14 6,19 4,4 8,6 14,6 5,0 10,-2 14,-6 3,-5 5,-11 5,-20 0,-8 -2,-14 -5,-18 -4,-5 -9,-7 -14,-7 -6,0 -10,2 -14,7 -4,4 -6,10 -6,19zm64 33l0 -67 10 0 0 11c2,-5 5,-8 7,-10 2,-1 5,-2 7,-2 4,0 8,1 12,4l-4 10c-3,-2 -6,-2 -8,-2 -3,0 -5,0 -7,2 -2,1 -3,3 -4,6 -1,4 -2,8 -2,13l0 35 -11 0zm86 -9c-5,4 -9,6 -12,8 -4,1 -8,2 -13,2 -7,0 -13,-2 -17,-5 -3,-4 -5,-8 -5,-14 0,-3 0,-6 2,-9 1,-2 3,-5 6,-6 2,-2 5,-3 8,-4 2,0 5,-1 10,-1 9,-2 15,-3 20,-4 0,-2 0,-3 0,-3 0,-5 -1,-8 -3,-10 -3,-2 -8,-4 -13,-4 -6,0 -9,1 -12,3 -3,2 -4,5 -6,10l-11 -2c1,-4 3,-8 5,-11 3,-3 6,-5 10,-7 5,-1 10,-2 15,-2 6,0 11,1 14,2 4,1 6,3 8,5 2,2 3,5 4,8 0,2 0,5 0,10l0 15c0,10 0,17 1,20 0,2 1,5 3,8l-12 0c-1,-3 -2,-6 -2,-9zm-1 -25c-4,2 -10,4 -19,5 -4,0 -8,1 -9,2 -2,1 -4,2 -5,4 -1,1 -1,3 -1,5 0,3 1,5 3,7 2,2 6,3 10,3 4,0 8,-1 11,-3 4,-1 6,-4 8,-7 1,-3 2,-7 2,-11l0 -5zm-16 -51l-7 10 -13 0 14 -17 12 0 14 17 -13 0 -7 -10zm44 85l0 -67 10 0 0 10c5,-7 12,-11 21,-11 4,0 8,1 11,2 4,2 6,3 8,6 2,2 3,5 3,8 1,2 1,6 1,11l0 41 -11 0 0 -41c0,-4 -1,-8 -2,-10 0,-2 -2,-4 -4,-5 -2,-2 -5,-2 -8,-2 -5,0 -9,1 -12,4 -4,3 -5,9 -5,18l0 36 -12 0zm116 -22l12 2c-2,6 -5,12 -10,15 -5,4 -11,6 -19,6 -10,0 -17,-3 -23,-9 -6,-6 -8,-14 -8,-25 0,-11 2,-20 8,-26 6,-6 13,-9 22,-9 9,0 16,3 22,9 6,6 8,15 8,25 0,1 0,2 0,3l-49 0c0,8 2,13 6,17 4,4 8,6 14,6 4,0 8,-1 10,-3 3,-3 6,-6 7,-11zm-36 -18l36 0c0,-5 -1,-10 -4,-12 -3,-5 -8,-7 -14,-7 -5,0 -9,2 -13,5 -3,4 -5,8 -5,14zm58 7c0,-13 3,-22 10,-28 6,-5 13,-7 21,-7 9,0 16,3 22,9 6,6 9,14 9,25 0,8 -1,15 -4,20 -2,4 -6,8 -11,11 -5,3 -10,4 -16,4 -9,0 -17,-3 -23,-9 -5,-6 -8,-14 -8,-25zm11 0c0,8 2,14 6,19 4,4 8,6 14,6 6,0 10,-2 14,-6 4,-5 5,-11 5,-20 0,-8 -1,-14 -5,-18 -4,-5 -9,-7 -14,-7 -6,0 -10,2 -14,7 -4,4 -6,10 -6,19zm60 13l11 -2c0,5 2,8 5,10 3,3 7,4 12,4 5,0 9,-1 11,-3 3,-2 4,-5 4,-8 0,-2 -1,-4 -3,-6 -2,-1 -6,-2 -12,-3 -8,-3 -14,-4 -17,-6 -3,-1 -5,-3 -7,-6 -2,-3 -2,-6 -2,-9 0,-3 0,-6 2,-8 1,-3 3,-5 5,-6 2,-2 4,-3 7,-4 3,-1 6,-1 10,-1 5,0 10,1 13,2 4,2 7,4 9,6 2,3 3,6 4,11l-11 1c0,-3 -2,-6 -4,-8 -3,-2 -6,-3 -10,-3 -5,0 -9,1 -11,3 -3,1 -4,3 -4,6 0,1 1,2 2,4 1,1 2,2 4,3 1,0 4,1 10,3 8,2 13,3 16,5 4,1 6,3 8,6 2,2 3,5 3,9 0,4 -2,7 -4,11 -2,3 -5,6 -9,7 -4,2 -9,3 -14,3 -9,0 -15,-2 -20,-5 -4,-4 -7,-9 -8,-16z"/>
   <g>
    <path class="fil1" d="M90 1512l21 -56 8 0 23 56 -8 0 -7 -17 -23 0 -6 17 -8 0zm16 -23l19 0 -6 -16c-2,-4 -3,-8 -4,-11 -1,3 -2,7 -3,11l-6 16zm41 23l0 -41 6 0 0 7c2,-3 3,-5 4,-6 2,-1 3,-1 5,-1 2,0 4,0 7,2l-3 6c-1,-1 -3,-1 -5,-1 -1,0 -2,0 -4,1 -1,1 -2,2 -2,4 -1,2 -1,5 -1,8l0 21 -7 0zm26 -48l0 -8 7 0 0 8 -7 0zm0 48l0 -41 7 0 0 41 -7 0zm14 -12l7 -1c1,2 2,4 3,6 2,1 5,2 8,2 3,0 5,-1 7,-2 1,-1 2,-3 2,-4 0,-2 -1,-3 -2,-4 -1,-1 -3,-1 -7,-2 -5,-2 -9,-3 -10,-4 -2,-1 -4,-2 -5,-3 -1,-2 -1,-4 -1,-6 0,-2 0,-3 1,-5 1,-1 2,-3 3,-4 1,0 3,-1 5,-2 1,0 3,0 5,0 4,0 6,0 9,1 2,1 4,2 5,4 1,1 2,3 2,6l-6 1c-1,-2 -1,-4 -3,-5 -1,-1 -3,-2 -6,-2 -3,0 -5,1 -7,2 -1,1 -2,2 -2,3 0,1 0,2 1,3 1,0 1,1 3,2 0,0 2,0 6,1 5,2 8,3 10,3 2,1 3,3 4,4 1,2 2,4 2,6 0,2 -1,4 -2,6 -1,2 -3,4 -6,5 -2,1 -5,2 -8,2 -6,0 -10,-1 -12,-4 -3,-2 -5,-5 -6,-9zm57 6l1 6c-2,0 -4,0 -5,0 -3,0 -5,0 -6,-1 -1,-1 -2,-2 -3,-3 0,-1 -1,-4 -1,-8l0 -23 -5 0 0 -6 5 0 0 -10 7 -4 0 14 7 0 0 6 -7 0 0 23c0,2 0,4 0,4 1,1 1,1 2,1 0,1 1,1 2,1 1,0 2,0 3,0zm4 -14c0,-8 2,-13 6,-17 4,-3 8,-4 13,-4 6,0 10,1 14,5 3,4 5,9 5,15 0,5 -1,9 -2,12 -2,3 -4,6 -7,7 -3,2 -6,3 -10,3 -6,0 -10,-2 -14,-6 -3,-3 -5,-9 -5,-15zm7 0c0,5 1,9 4,11 2,3 5,4 8,4 4,0 6,-1 9,-4 2,-2 3,-6 3,-12 0,-5 -1,-8 -3,-11 -3,-3 -6,-4 -9,-4 -3,0 -6,1 -8,4 -3,3 -4,6 -4,12zm39 20l0 -41 6 0 0 6c3,-4 7,-6 13,-6 2,0 5,0 7,1 2,1 3,2 4,3 1,2 2,3 2,5 1,2 1,4 1,7l0 25 -7 0 0 -25c0,-3 0,-5 -1,-6 0,-1 -1,-2 -3,-3 -1,-1 -3,-2 -4,-2 -3,0 -6,1 -8,3 -2,2 -3,6 -3,11l0 22 -7 0zm91 0l0 -5c-2,4 -6,6 -11,6 -3,0 -6,-1 -9,-3 -3,-2 -5,-4 -6,-7 -2,-4 -3,-7 -3,-11 0,-4 1,-8 2,-11 2,-4 4,-6 7,-8 2,-2 5,-2 9,-2 2,0 4,0 6,1 2,1 3,2 5,4l0 -20 6 0 0 56 -6 0zm-22 -20c0,5 2,9 4,11 2,3 5,4 7,4 3,0 6,-1 8,-4 2,-2 3,-6 3,-11 0,-5 -1,-9 -3,-12 -2,-3 -5,-4 -8,-4 -3,0 -5,1 -7,4 -3,2 -4,6 -4,12zm67 7l7 1c-1,4 -3,7 -6,9 -3,3 -7,4 -12,4 -6,0 -10,-2 -14,-6 -3,-3 -5,-9 -5,-15 0,-7 2,-12 5,-16 4,-4 8,-5 14,-5 5,0 10,1 13,5 4,4 5,9 5,16 0,0 0,1 0,1l-30 0c0,5 2,8 4,11 2,2 5,3 8,3 3,0 5,-1 7,-2 1,-1 3,-3 4,-6zm-23 -11l23 0c0,-4 -1,-6 -3,-8 -2,-3 -5,-4 -8,-4 -3,0 -6,1 -8,3 -2,2 -3,5 -4,9zm61 24l0 -56 7 0 0 49 28 0 0 7 -35 0zm43 -48l0 -8 6 0 0 8 -6 0zm0 48l0 -41 6 0 0 41 -6 0zm17 0l0 -41 6 0 0 6c1,-2 3,-3 5,-5 2,-1 5,-1 7,-1 3,0 6,0 8,1 2,2 3,3 4,6 3,-5 7,-7 12,-7 4,0 7,1 9,3 3,2 4,5 4,10l0 28 -7 0 0 -26c0,-2 0,-4 -1,-6 0,-1 -1,-2 -2,-2 -1,-1 -3,-2 -4,-2 -3,0 -6,1 -7,3 -2,2 -3,5 -3,9l0 24 -7 0 0 -26c0,-3 -1,-6 -2,-7 -1,-2 -3,-3 -5,-3 -2,0 -4,1 -6,2 -1,1 -2,2 -3,4 -1,2 -1,5 -1,9l0 21 -7 0zm91 -5c-2,2 -5,3 -7,4 -3,1 -5,2 -8,2 -4,0 -8,-1 -10,-4 -2,-2 -4,-5 -4,-8 0,-2 1,-4 2,-5 1,-2 2,-3 3,-4 2,-1 3,-2 5,-2 2,-1 4,-1 6,-1 6,-1 10,-2 13,-3 0,-1 0,-1 0,-2 0,-2 -1,-4 -2,-5 -2,-2 -5,-3 -8,-3 -3,0 -6,1 -7,2 -2,1 -3,3 -4,6l-6 -1c0,-3 1,-5 3,-7 1,-2 3,-3 6,-4 2,-1 5,-1 9,-1 3,0 6,0 8,1 2,1 4,2 5,3 1,1 2,3 2,4 0,2 1,4 1,7l0 9c0,6 0,10 0,12 0,2 1,3 2,5l-7 0c-1,-2 -2,-3 -2,-5zm0 -15c-3,1 -7,1 -12,2 -2,1 -4,1 -6,1 -1,1 -2,2 -2,3 -1,1 -1,2 -1,3 0,2 0,3 2,4 1,2 3,2 6,2 3,0 5,0 7,-1 2,-2 4,-3 5,-5 0,-2 1,-4 1,-7l0 -2zm79 0l8 2c-2,6 -5,11 -9,14 -4,3 -9,5 -14,5 -6,0 -11,-1 -15,-4 -4,-2 -7,-6 -9,-11 -2,-4 -3,-9 -3,-14 0,-6 2,-11 4,-16 2,-4 5,-7 9,-10 4,-2 9,-3 14,-3 5,0 10,2 14,4 4,3 6,7 8,12l-7 2c-2,-4 -4,-7 -6,-9 -3,-2 -6,-3 -9,-3 -5,0 -8,1 -11,3 -3,3 -5,5 -6,9 -1,3 -2,7 -2,10 0,5 1,9 2,13 2,3 4,6 7,8 3,2 6,2 9,2 4,0 8,-1 11,-3 2,-3 4,-6 5,-11zm42 15c-2,2 -5,3 -7,4 -2,1 -5,2 -8,2 -4,0 -7,-1 -10,-4 -2,-2 -3,-5 -3,-8 0,-2 0,-4 1,-5 1,-2 2,-3 4,-4 1,-1 3,-2 4,-2 2,-1 4,-1 7,-1 5,-1 9,-2 12,-3 0,-1 0,-1 0,-2 0,-2 -1,-4 -2,-5 -2,-2 -4,-3 -8,-3 -3,0 -6,1 -7,2 -2,1 -3,3 -3,6l-7 -1c0,-3 1,-5 3,-7 1,-2 3,-3 6,-4 3,-1 6,-1 9,-1 4,0 6,0 9,1 2,1 3,2 4,3 1,1 2,3 2,4 1,2 1,4 1,7l0 9c0,6 0,10 0,12 0,2 1,3 2,5l-7 0c-1,-2 -1,-3 -2,-5zm0 -15c-3,1 -6,1 -11,2 -3,1 -5,1 -6,1 -2,1 -2,2 -3,3 -1,1 -1,2 -1,3 0,2 1,3 2,4 1,2 3,2 6,2 3,0 5,0 7,-1 2,-2 4,-3 5,-5 0,-2 1,-4 1,-7l0 -2zm17 20l0 -41 6 0 0 7c2,-3 3,-5 5,-6 1,-1 3,-1 4,-1 2,0 5,0 7,2l-2 6c-2,-1 -4,-1 -5,-1 -2,0 -3,0 -4,1 -1,1 -2,2 -3,4 -1,2 -1,5 -1,8l0 21 -7 0zm52 0l0 -5c-2,4 -6,6 -11,6 -3,0 -6,-1 -9,-3 -3,-2 -5,-4 -6,-7 -2,-4 -2,-7 -2,-11 0,-4 0,-8 2,-11 1,-4 3,-6 6,-8 2,-2 5,-2 9,-2 2,0 4,0 6,1 2,1 4,2 5,4l0 -20 7 0 0 56 -7 0zm-21 -20c0,5 1,9 3,11 2,3 5,4 8,4 3,0 5,-1 7,-4 2,-2 3,-6 3,-11 0,-5 -1,-9 -3,-12 -2,-3 -4,-4 -8,-4 -3,0 -5,1 -7,4 -2,2 -3,6 -3,12zm36 0c0,-8 2,-13 6,-17 4,-3 8,-4 13,-4 5,0 10,1 14,5 3,4 5,9 5,15 0,5 -1,9 -2,12 -2,3 -4,6 -7,7 -3,2 -7,3 -10,3 -6,0 -10,-2 -14,-6 -3,-3 -5,-9 -5,-15zm7 0c0,5 1,9 3,11 3,3 6,4 9,4 3,0 6,-1 8,-4 3,-2 4,-6 4,-12 0,-5 -1,-8 -4,-11 -2,-3 -5,-4 -8,-4 -3,0 -6,1 -9,4 -2,3 -3,6 -3,12zm36 8l7 -1c0,2 1,4 3,6 2,1 4,2 7,2 4,0 6,-1 7,-2 2,-1 3,-3 3,-4 0,-2 -1,-3 -2,-4 -1,-1 -4,-1 -7,-2 -5,-2 -9,-3 -11,-4 -2,-1 -3,-2 -4,-3 -1,-2 -2,-4 -2,-6 0,-2 1,-3 2,-5 0,-1 1,-3 3,-4 1,0 2,-1 4,-2 2,0 4,0 6,0 3,0 6,0 9,1 2,1 4,2 5,4 1,1 2,3 2,6l-7 1c0,-2 -1,-4 -2,-5 -2,-1 -4,-2 -6,-2 -3,0 -6,1 -7,2 -1,1 -2,2 -2,3 0,1 0,2 1,3 0,0 1,1 2,2 1,0 3,0 6,1 5,2 9,3 11,3 1,1 3,3 4,4 1,2 2,4 2,6 0,2 -1,4 -2,6 -2,2 -4,4 -6,5 -3,1 -5,2 -9,2 -5,0 -9,-1 -12,-4 -2,-2 -4,-5 -5,-9zm39 -8c0,-8 2,-13 6,-17 4,-3 8,-4 13,-4 6,0 10,1 14,5 3,4 5,9 5,15 0,5 -1,9 -2,12 -2,3 -4,6 -7,7 -3,2 -6,3 -10,3 -5,0 -10,-2 -14,-6 -3,-3 -5,-9 -5,-15zm7 0c0,5 1,9 4,11 2,3 5,4 8,4 4,0 6,-1 9,-4 2,-2 3,-6 3,-12 0,-5 -1,-8 -3,-11 -3,-3 -5,-4 -9,-4 -3,0 -6,1 -8,4 -3,3 -4,6 -4,12zm-823 107l21 -56 8 0 23 56 -8 0 -7 -17 -23 0 -6 17 -8 0zm16 -23l19 0 -6 -16c-2,-4 -3,-8 -4,-11 -1,3 -2,7 -3,11l-6 16zm67 23l0 -5c-3,4 -6,6 -11,6 -3,0 -6,-1 -9,-3 -3,-2 -5,-4 -6,-7 -2,-4 -3,-7 -3,-11 0,-4 1,-8 2,-11 2,-4 4,-6 6,-8 3,-2 6,-2 9,-2 3,0 5,0 7,1 2,1 3,2 5,4l0 -20 6 0 0 56 -6 0zm-22 -20c0,5 1,9 4,11 2,3 4,4 7,4 3,0 6,-1 8,-4 2,-2 3,-6 3,-11 0,-5 -1,-9 -3,-12 -2,-2 -5,-4 -8,-4 -3,0 -6,1 -8,4 -2,2 -3,6 -3,12zm39 -28l0 -8 7 0 0 8 -7 0zm0 48l0 -41 7 0 0 41 -7 0zm17 0l0 -56 7 0 0 56 -7 0zm15 -12l7 -1c0,2 1,4 3,6 2,1 4,2 7,2 4,0 6,-1 7,-2 2,-1 3,-3 3,-4 0,-2 -1,-3 -2,-4 -1,-1 -4,-1 -7,-2 -5,-2 -9,-3 -11,-4 -2,-1 -3,-2 -4,-3 -1,-2 -2,-4 -2,-6 0,-2 1,-3 2,-5 0,-1 1,-3 3,-4 1,0 2,-1 4,-2 2,0 4,0 6,0 3,0 6,0 8,1 3,1 5,2 6,4 1,1 2,3 2,6l-7 1c0,-2 -1,-4 -2,-5 -2,-1 -4,-2 -6,-2 -3,0 -6,1 -7,2 -1,1 -2,2 -2,3 0,1 0,2 1,3 0,0 1,1 2,2 1,0 3,0 6,1 5,2 9,3 11,3 1,1 3,3 4,4 1,2 2,4 2,6 0,2 -1,4 -2,6 -2,2 -4,4 -6,5 -3,1 -5,2 -9,2 -5,0 -9,-1 -12,-4 -2,-2 -4,-5 -5,-9zm39 -8c0,-8 2,-13 6,-17 4,-3 8,-4 13,-4 6,0 10,1 14,5 3,4 5,9 5,15 0,5 -1,9 -2,12 -2,3 -4,6 -7,7 -3,2 -6,3 -10,3 -5,0 -10,-2 -14,-6 -3,-3 -5,-9 -5,-15zm7 0c0,5 1,9 4,11 2,3 5,4 8,4 4,0 6,-1 9,-4 2,-2 3,-6 3,-12 0,-5 -1,-8 -3,-11 -3,-2 -5,-4 -9,-4 -3,0 -6,1 -8,4 -3,3 -4,6 -4,12zm39 20l0 -41 6 0 0 6c3,-4 8,-6 13,-6 3,0 5,0 7,1 2,1 3,2 4,3 1,2 2,3 3,5 0,2 0,4 0,7l0 25 -7 0 0 -25c0,-3 0,-5 -1,-6 0,-1 -1,-2 -3,-3 -1,-1 -3,-2 -4,-2 -3,0 -6,1 -8,3 -2,2 -3,6 -3,11l0 22 -7 0zm92 -22l0 -7 24 0 0 21c-4,3 -8,5 -12,7 -3,1 -7,2 -11,2 -6,0 -11,-1 -15,-4 -5,-2 -8,-6 -11,-10 -2,-4 -3,-9 -3,-15 0,-5 1,-10 3,-15 3,-5 6,-8 10,-10 4,-3 9,-4 15,-4 4,0 8,1 11,2 3,1 6,3 8,6 1,2 3,5 4,9l-7 1c-1,-2 -2,-5 -3,-6 -1,-2 -3,-3 -5,-4 -3,-1 -5,-2 -8,-2 -3,0 -6,1 -9,2 -2,1 -4,2 -6,4 -1,2 -2,4 -3,6 -2,3 -2,7 -2,11 0,5 1,9 2,12 2,4 4,6 8,8 3,1 6,2 10,2 3,0 6,0 9,-2 3,-1 6,-2 7,-4l0 -10 -16 0zm31 2c0,-8 2,-13 6,-17 4,-3 8,-4 13,-4 6,0 10,1 14,5 3,4 5,9 5,15 0,5 -1,9 -2,12 -2,3 -4,6 -7,7 -3,2 -6,3 -10,3 -6,0 -10,-2 -14,-6 -3,-3 -5,-9 -5,-15zm7 0c0,5 1,9 3,11 3,3 6,4 9,4 3,0 6,-1 9,-4 2,-2 3,-6 3,-12 0,-5 -1,-8 -3,-11 -3,-2 -6,-4 -9,-4 -3,0 -6,1 -9,4 -2,3 -3,6 -3,12zm39 20l0 -41 6 0 0 6c1,-2 3,-3 5,-5 2,-1 5,-1 7,-1 3,0 6,0 8,1 2,2 3,3 4,6 3,-5 7,-7 12,-7 4,0 7,1 10,3 2,2 3,5 3,10l0 28 -7 0 0 -26c0,-2 0,-4 -1,-6 0,-1 -1,-2 -2,-2 -1,-1 -3,-2 -4,-2 -3,0 -5,1 -7,3 -2,2 -3,5 -3,9l0 24 -7 0 0 -26c0,-3 -1,-6 -2,-7 -1,-2 -3,-3 -5,-3 -2,0 -4,1 -6,2 -1,1 -2,2 -3,4 -1,2 -1,5 -1,9l0 21 -7 0zm92 -13l7 1c-1,4 -3,7 -6,9 -3,3 -7,4 -11,4 -6,0 -11,-2 -14,-6 -4,-3 -5,-9 -5,-15 0,-7 1,-12 5,-16 3,-4 8,-5 13,-5 6,0 10,1 14,5 3,4 5,9 5,16 0,0 0,1 0,1l-30 0c0,5 1,8 3,11 3,2 5,3 9,3 2,0 4,-1 6,-2 2,-1 3,-3 4,-6zm-22 -11l22 0c0,-4 -1,-6 -2,-8 -2,-3 -5,-4 -9,-4 -3,0 -5,1 -7,3 -3,2 -4,5 -4,9zm35 12l7 -1c1,2 2,4 3,6 2,1 5,2 8,2 3,0 5,-1 7,-2 1,-1 2,-3 2,-4 0,-2 -1,-3 -2,-4 -1,-1 -3,-1 -7,-2 -5,-2 -9,-3 -10,-4 -2,-1 -4,-2 -5,-3 -1,-2 -1,-4 -1,-6 0,-2 0,-3 1,-5 1,-1 2,-3 3,-4 1,0 3,-1 5,-2 1,0 3,0 5,0 4,0 6,0 9,1 2,1 4,2 5,4 1,1 2,3 2,6l-6 1c-1,-2 -1,-4 -3,-5 -1,-1 -3,-2 -6,-2 -3,0 -5,1 -7,2 -1,1 -2,2 -2,3 0,1 0,2 1,3 1,0 1,1 3,2 0,0 2,0 6,1 5,2 8,3 10,3 2,1 3,3 4,4 1,2 2,4 2,6 0,2 -1,4 -2,6 -1,2 -3,4 -6,5 -2,1 -5,2 -8,2 -6,0 -10,-1 -12,-4 -3,-2 -5,-5 -6,-9z"/>
    <path class="fil1" d="M671 1599l0 -5c-3,4 -6,6 -11,6 -4,0 -7,-1 -9,-3 -3,-2 -5,-4 -7,-7 -1,-4 -2,-7 -2,-11 0,-4 1,-8 2,-11 2,-4 4,-6 6,-8 3,-2 6,-2 9,-2 3,0 5,0 7,1 2,1 3,2 4,4l0 -20 7 0 0 56 -6 0zm-22 -20c0,5 1,9 3,11 3,3 5,4 8,4 3,0 6,-1 8,-4 2,-2 3,-6 3,-11 0,-5 -1,-9 -3,-12 -2,-2 -5,-4 -8,-4 -3,0 -6,1 -8,4 -2,2 -3,6 -3,12zm36 0c0,-8 3,-13 7,-17 3,-3 7,-4 12,-4 6,0 11,1 14,5 4,4 5,9 5,15 0,5 0,9 -2,12 -2,3 -4,6 -7,7 -3,2 -6,3 -10,3 -5,0 -10,-2 -13,-6 -4,-3 -6,-9 -6,-15zm7 0c0,5 2,9 4,11 2,3 5,4 8,4 4,0 7,-1 9,-4 2,-2 3,-6 3,-12 0,-5 -1,-8 -3,-11 -2,-2 -5,-4 -9,-4 -3,0 -6,1 -8,4 -2,3 -4,6 -4,12zm37 8l6 -1c1,2 2,4 4,6 1,1 4,2 7,2 3,0 5,-1 7,-2 1,-1 2,-3 2,-4 0,-2 0,-3 -2,-4 -1,-1 -3,-1 -7,-2 -5,-2 -8,-3 -10,-4 -2,-1 -4,-2 -5,-3 -1,-2 -1,-4 -1,-6 0,-2 0,-3 1,-5 1,-1 2,-3 3,-4 1,0 3,-1 5,-2 2,0 4,0 6,0 3,0 6,0 8,1 2,1 4,2 5,4 1,1 2,3 3,6l-7 1c0,-2 -1,-4 -3,-5 -1,-1 -3,-2 -6,-2 -3,0 -5,1 -7,2 -1,1 -2,2 -2,3 0,1 1,2 1,3 1,0 2,1 3,2 1,0 3,0 6,1 5,2 8,3 10,3 2,1 3,3 5,4 1,2 1,4 1,6 0,2 0,4 -2,6 -1,2 -3,4 -6,5 -2,1 -5,2 -8,2 -5,0 -9,-1 -12,-4 -3,-2 -5,-5 -5,-9zm61 -6l7 -1c1,3 1,5 3,7 1,2 3,3 5,5 3,1 6,1 9,1 3,0 5,0 7,-1 2,-1 4,-2 5,-4 1,-1 2,-3 2,-4 0,-2 -1,-4 -2,-5 -1,-1 -3,-2 -5,-3 -1,-1 -5,-2 -10,-3 -5,-1 -9,-2 -11,-3 -2,-2 -4,-3 -6,-6 -1,-2 -2,-4 -2,-6 0,-3 1,-6 3,-8 1,-3 4,-5 7,-6 3,-1 6,-2 10,-2 4,0 8,1 11,2 3,1 6,3 7,6 2,3 3,6 3,9l-7 0c0,-3 -2,-6 -4,-8 -2,-1 -5,-2 -10,-2 -4,0 -7,0 -9,2 -2,2 -3,4 -3,6 0,2 0,4 2,5 1,1 5,3 11,4 6,1 10,2 12,4 3,1 6,3 7,5 2,2 3,5 3,8 0,3 -1,6 -3,8 -2,3 -4,5 -7,7 -3,1 -7,2 -11,2 -5,0 -9,-1 -13,-2 -3,-2 -6,-4 -8,-7 -1,-3 -3,-6 -3,-10zm80 13c-2,2 -5,3 -7,4 -2,1 -5,2 -8,2 -4,0 -7,-1 -10,-4 -2,-2 -3,-4 -3,-8 0,-2 0,-4 1,-5 1,-2 2,-3 3,-4 2,-1 4,-2 5,-2 2,-1 4,-1 6,-1 6,-1 10,-2 13,-3 0,-1 0,-1 0,-2 0,-2 -1,-4 -2,-5 -2,-2 -5,-3 -8,-3 -3,0 -6,1 -7,2 -2,1 -3,3 -4,6l-6 -1c0,-3 1,-5 3,-7 1,-2 3,-3 6,-4 2,-1 6,-1 9,-1 3,0 6,0 8,1 3,1 4,2 5,3 1,1 2,3 2,4 1,2 1,4 1,7l0 9c0,6 0,10 0,12 0,2 1,3 2,5l-7 0c-1,-2 -1,-3 -2,-5zm0 -15c-3,1 -6,1 -11,2 -3,1 -5,1 -6,2 -2,0 -3,1 -3,2 -1,1 -1,2 -1,3 0,2 1,3 2,4 1,2 3,2 6,2 3,0 5,0 7,-1 2,-2 4,-3 5,-5 0,-2 1,-4 1,-7l0 -2zm17 20l0 -41 6 0 0 6c3,-4 8,-6 13,-6 3,0 5,0 7,1 2,1 3,2 5,3 1,2 1,3 2,5 0,2 0,4 0,7l0 25 -7 0 0 -25c0,-3 0,-5 -1,-6 0,-1 -1,-2 -2,-3 -2,-1 -3,-2 -5,-2 -3,0 -6,1 -8,3 -2,2 -3,6 -3,11l0 22 -7 0zm58 -6l1 6c-2,0 -3,0 -5,0 -2,0 -4,0 -6,-1 -1,-1 -2,-2 -2,-3 -1,-1 -1,-4 -1,-8l0 -23 -5 0 0 -6 5 0 0 -10 7 -4 0 14 6 0 0 6 -6 0 0 23c0,2 0,4 0,4 0,1 1,1 1,1 1,1 1,1 2,1 1,0 2,0 3,0zm5 -14c0,-8 2,-13 6,-17 3,-3 8,-4 13,-4 5,0 10,1 13,5 4,4 5,9 5,15 0,5 0,9 -2,12 -1,3 -4,6 -7,7 -3,2 -6,3 -9,3 -6,0 -11,-2 -14,-6 -4,-3 -5,-9 -5,-15zm7 0c0,5 1,9 3,11 2,3 5,4 9,4 3,0 6,-1 8,-4 2,-2 3,-6 3,-12 0,-5 -1,-8 -3,-11 -2,-2 -5,-4 -8,-4 -4,0 -7,1 -9,4 -2,3 -3,6 -3,12zm36 8l7 -1c0,2 1,4 3,6 1,1 4,2 7,2 3,0 6,-1 7,-2 2,-1 2,-3 2,-4 0,-2 0,-3 -2,-4 -1,-1 -3,-1 -7,-2 -5,-2 -8,-3 -10,-4 -2,-1 -4,-2 -5,-3 -1,-2 -1,-4 -1,-6 0,-2 0,-3 1,-5 1,-1 2,-3 4,-4 1,0 2,-1 4,-2 2,0 4,0 6,0 3,0 6,0 8,1 3,1 4,2 5,4 2,1 2,3 3,6l-7 1c0,-2 -1,-4 -3,-5 -1,-1 -3,-2 -6,-2 -3,0 -5,1 -6,2 -2,1 -2,2 -2,3 0,1 0,2 0,3 1,0 2,1 3,2 1,0 3,0 6,1 5,2 8,3 10,3 2,1 4,3 5,4 1,2 1,4 1,6 0,2 0,4 -2,6 -1,2 -3,4 -5,5 -3,1 -6,2 -9,2 -5,0 -9,-1 -12,-4 -3,-2 -4,-5 -5,-9zm-897 99l0 -56 40 0 0 7 -33 0 0 17 31 0 0 6 -31 0 0 19 35 0 0 7 -42 0zm51 0l0 -41 6 0 0 6c3,-4 7,-6 13,-6 2,0 5,0 7,1 2,1 3,2 4,3 1,2 2,3 2,5 1,2 1,4 1,7l0 25 -7 0 0 -25c0,-3 0,-5 -1,-6 0,-1 -1,-2 -3,-3 -1,-1 -3,-2 -5,-2 -2,0 -5,1 -7,3 -2,2 -3,6 -3,11l0 22 -7 0zm43 -48l0 -8 7 0 0 8 -7 0zm0 48l0 -41 7 0 0 41 -7 0zm45 -13l7 1c-1,4 -3,7 -6,9 -3,3 -7,4 -12,4 -5,0 -10,-2 -14,-6 -3,-3 -5,-8 -5,-15 0,-7 2,-12 6,-16 3,-4 8,-5 13,-5 5,0 10,1 13,5 4,4 5,9 5,16 0,0 0,1 0,1l-30 0c1,5 2,8 4,11 2,2 5,3 8,3 3,0 5,-1 7,-2 2,-1 3,-3 4,-6zm-22 -11l22 0c0,-4 -1,-6 -2,-8 -3,-3 -5,-4 -9,-4 -3,0 -6,1 -8,3 -2,2 -3,5 -3,9zm38 24l0 -56 7 0 0 56 -7 0zm65 0l0 -5c-3,4 -6,6 -11,6 -4,0 -7,-1 -9,-3 -3,-2 -5,-4 -7,-7 -1,-4 -2,-7 -2,-11 0,-4 1,-8 2,-11 2,-4 4,-6 6,-8 3,-2 6,-2 9,-2 3,0 5,0 7,1 2,1 3,2 4,4l0 -20 7 0 0 56 -6 0zm-22 -20c0,5 1,9 4,11 2,3 4,4 7,4 3,0 6,-1 8,-4 2,-2 3,-6 3,-11 0,-5 -1,-9 -3,-12 -2,-2 -5,-4 -8,-4 -3,0 -6,1 -8,4 -2,2 -3,6 -3,12zm37 0c0,-8 2,-13 6,-17 3,-3 8,-4 13,-4 5,0 10,1 13,5 4,4 5,9 5,15 0,5 0,9 -2,12 -1,3 -4,6 -7,7 -3,2 -6,3 -9,3 -6,0 -11,-2 -14,-6 -4,-3 -5,-9 -5,-15zm7 0c0,5 1,9 3,11 2,3 5,4 9,4 3,0 6,-1 8,-4 2,-2 3,-6 3,-12 0,-5 -1,-8 -3,-11 -2,-2 -5,-4 -8,-4 -4,0 -7,2 -9,4 -2,3 -3,6 -3,12zm61 20l0 -56 40 0 0 7 -33 0 0 17 31 0 0 6 -31 0 0 19 35 0 0 7 -42 0zm48 -12l7 -1c0,2 2,4 3,6 2,1 4,2 8,2 3,0 5,-1 7,-2 1,-1 2,-3 2,-4 0,-2 -1,-3 -2,-4 -1,-1 -3,-1 -7,-2 -5,-2 -9,-3 -11,-4 -2,-1 -3,-2 -4,-3 -1,-2 -2,-4 -2,-6 0,-2 1,-3 2,-5 1,-1 2,-3 3,-4 1,0 3,-1 4,-2 2,0 4,0 6,0 3,0 6,0 9,1 2,1 4,2 5,4 1,1 2,3 2,6l-6 1c-1,-2 -2,-4 -3,-5 -1,-1 -4,-2 -6,-2 -3,0 -6,1 -7,2 -1,1 -2,2 -2,3 0,1 0,2 1,3 0,0 1,1 3,2 0,0 2,0 6,1 4,2 8,3 10,4 2,0 3,2 4,3 1,2 2,4 2,6 0,2 -1,4 -2,6 -1,2 -3,4 -6,5 -2,1 -5,2 -8,2 -6,0 -10,-1 -12,-4 -3,-2 -5,-5 -6,-9zm42 27l0 -56 6 0 0 6c2,-2 3,-4 5,-5 2,-1 4,-1 7,-1 3,0 6,0 9,2 3,2 5,4 6,8 1,3 2,6 2,10 0,4 -1,8 -2,11 -2,4 -4,6 -7,8 -2,2 -5,3 -9,3 -2,0 -4,-1 -6,-2 -2,-1 -3,-2 -4,-3l0 19 -7 0zm6 -35c0,5 1,9 3,11 2,3 5,4 8,4 3,0 6,-1 8,-4 2,-2 3,-6 3,-12 0,-5 -1,-9 -3,-11 -2,-3 -5,-4 -8,-4 -3,0 -5,1 -7,4 -3,3 -4,7 -4,12zm40 20l0 -41 7 0 0 41 -7 0zm-3 -46l5 -10 9 0 -8 10 -6 0zm22 46l0 -41 6 0 0 7c2,-3 3,-5 4,-6 2,-1 3,-1 5,-1 2,0 4,0 7,2l-3 6c-1,-1 -3,-1 -5,-1 -1,0 -2,0 -4,1 -1,1 -2,2 -2,4 -1,2 -1,5 -1,8l0 21 -7 0zm26 -48l0 -8 7 0 0 8 -7 0zm0 48l0 -41 7 0 0 41 -7 0zm32 -6l1 6c-2,0 -4,0 -5,0 -3,0 -5,0 -6,-1 -1,-1 -2,-2 -3,-3 0,-1 -1,-4 -1,-8l0 -23 -5 0 0 -6 5 0 0 -10 7 -4 0 14 7 0 0 6 -7 0 0 23c0,2 0,4 1,4 0,1 0,1 1,1 0,1 1,1 2,1 1,0 2,0 3,0zm4 -14c0,-8 2,-13 6,-17 4,-3 8,-4 13,-4 6,0 10,1 14,5 3,4 5,9 5,15 0,5 -1,9 -2,12 -2,3 -4,6 -7,7 -3,2 -6,3 -10,3 -5,0 -10,-2 -14,-6 -3,-3 -5,-9 -5,-15zm7 0c0,5 1,9 4,11 2,3 5,4 8,4 4,0 6,-1 9,-4 2,-2 3,-6 3,-12 0,-5 -1,-8 -3,-11 -3,-2 -5,-4 -9,-4 -3,0 -6,2 -8,4 -3,3 -4,6 -4,12zm59 2l7 -1c0,3 1,5 2,7 2,2 4,3 6,5 3,1 5,1 9,1 2,0 5,0 7,-1 2,-1 4,-2 5,-4 1,-1 1,-3 1,-4 0,-2 0,-4 -1,-5 -1,-1 -3,-2 -5,-3 -2,-1 -5,-2 -10,-3 -5,-1 -9,-2 -11,-3 -2,-2 -4,-3 -6,-6 -1,-2 -2,-4 -2,-6 0,-3 1,-6 3,-8 1,-3 4,-5 7,-6 3,-1 6,-2 10,-2 4,0 8,1 11,2 3,1 5,3 7,6 2,3 3,6 3,9l-7 0c-1,-3 -2,-6 -4,-8 -2,-1 -6,-2 -10,-2 -4,0 -8,0 -10,2 -2,2 -3,4 -3,6 0,2 1,4 3,5 1,1 5,3 11,4 6,1 10,3 12,4 3,1 6,3 7,5 2,2 3,5 3,8 0,3 -1,6 -3,8 -2,3 -4,5 -7,7 -4,1 -7,2 -11,2 -5,0 -9,-1 -13,-2 -3,-2 -6,-4 -8,-7 -2,-3 -3,-6 -3,-10zm80 13c-2,2 -5,3 -7,4 -3,1 -5,2 -8,2 -4,0 -8,-1 -10,-4 -2,-2 -4,-4 -4,-8 0,-2 1,-4 2,-5 1,-2 2,-3 3,-4 2,-1 3,-2 5,-2 2,-1 4,-1 6,-1 6,-1 10,-2 13,-3 0,-1 0,-1 0,-2 0,-2 -1,-4 -2,-5 -2,-2 -5,-3 -8,-3 -3,0 -6,1 -7,2 -2,1 -3,3 -4,6l-6 -1c0,-3 1,-5 3,-7 1,-2 3,-3 6,-4 2,-1 5,-1 9,-1 3,0 6,0 8,1 2,1 4,2 5,3 1,1 2,3 2,5 0,1 0,3 0,6l0 9c0,6 1,10 1,12 0,2 1,3 2,5l-8 0c0,-2 -1,-3 -1,-5zm0 -15c-3,1 -7,1 -12,2 -2,1 -4,1 -6,2 -1,0 -2,1 -2,2 -1,1 -1,2 -1,3 0,2 0,3 2,4 1,2 3,2 6,2 2,0 5,0 7,-1 2,-2 3,-3 4,-5 1,-2 2,-4 2,-7l0 -2zm17 20l0 -41 6 0 0 6c3,-4 7,-6 13,-6 2,0 5,0 7,1 2,1 3,2 4,3 1,2 2,3 2,5 1,2 1,4 1,7l0 25 -7 0 0 -25c0,-3 0,-5 -1,-6 0,-1 -1,-2 -3,-3 -1,-1 -3,-2 -4,-2 -3,0 -6,1 -8,3 -2,2 -3,6 -3,11l0 22 -7 0zm58 -6l1 6c-2,0 -3,0 -5,0 -2,0 -4,0 -6,-1 -1,-1 -2,-2 -3,-3 0,-1 0,-4 0,-8l0 -23 -6 0 0 -6 6 0 0 -10 6 -4 0 14 7 0 0 6 -7 0 0 23c0,2 0,4 1,4 0,1 0,1 1,1 0,1 1,1 2,1 1,0 2,0 3,0zm4 -14c0,-8 2,-13 7,-17 3,-3 7,-4 12,-4 6,0 10,1 14,5 3,4 5,9 5,15 0,5 -1,9 -2,12 -2,3 -4,6 -7,7 -3,2 -6,3 -10,3 -5,0 -10,-2 -13,-6 -4,-3 -6,-9 -6,-15zm7 0c0,5 2,9 4,11 2,3 5,4 8,4 4,0 7,-1 9,-4 2,-2 3,-6 3,-12 0,-5 -1,-8 -3,-11 -2,-2 -5,-4 -9,-4 -3,0 -6,2 -8,4 -2,3 -4,6 -4,12z"/>
   </g>
   <g>
    <path class="fil4" d="M991 621l16 -23 15 24 -31 -1zm-17 22c3,15 12,15 25,16 10,1 27,1 34,-5 11,-10 7,-60 5,-74 -2,-24 -50,-20 -59,-12 -8,8 -6,63 -5,75z"/>
    <path class="fil4" d="M1011 459c-6,3 -10,0 -8,-7 7,-4 12,1 8,7zm-7 8l8 -1c-2,-6 2,-10 7,-6 6,4 3,9 -6,8 1,7 -1,9 -8,7 -2,-4 -3,-3 -1,-8zm4 72c-3,-3 -2,-5 -2,-9 -6,0 -8,1 -9,-4 2,-2 5,-2 9,-2 0,-5 -1,-7 3,-9 4,2 2,3 3,9 6,1 6,-1 9,3 -3,4 -4,2 -9,3 -1,6 1,7 -4,9zm-4 -72l0 0zm-7 25c-3,-3 -3,-3 0,-6 2,3 2,3 0,6zm0 10c-3,-4 -2,-2 0,-6 1,3 3,2 0,6zm-18 -12c2,2 1,-2 1,2 -1,1 -1,2 -2,3 0,10 0,34 5,42 17,25 56,11 51,-18 -4,-19 -18,-17 -27,-22l0 -6c11,-5 22,-3 27,-21 6,-28 -34,-43 -50,-20 -6,9 -6,30 -5,40z"/>
    <path class="fil4" d="M987 863l0 -38c5,-1 5,0 8,-2 -2,-4 -4,-10 -4,-15l27 0c0,5 -3,11 -4,15 2,2 0,0 3,1 4,2 0,0 4,2l0 37 -34 0zm38 11l11 -6 21 13c0,-7 -5,-14 -8,-20 -7,-10 -4,-12 -4,-25 -1,-15 -5,-31 -20,-38 -29,-14 -69,13 -61,47 4,28 47,44 61,29z"/>
    <path class="fil4" d="M1013 276c-3,-1 -7,-4 -8,-8 4,1 7,5 8,8zm-10 12c-4,0 -7,-3 -9,-7 4,1 8,3 9,7zm16 4c-6,-2 -25,-22 -27,-28 3,1 11,10 14,13 3,4 13,11 13,15zm-48 -2c3,10 13,7 22,8 10,0 20,0 30,0 7,0 19,1 22,-7 0,-4 0,-27 0,-30 -3,-10 -44,-7 -53,-7 -8,0 -19,-1 -21,8 -1,4 -1,25 0,28z"/>
    <path class="fil5" d="M1037 1128l0 -35c-15,0 -30,0 -44,0 -12,0 -26,2 -27,17 0,15 13,18 26,18 15,0 30,0 45,0z"/>
    <path class="fil0" d="M1019 406c-6,-10 11,-17 16,-7 5,10 -10,17 -16,7zm-7 10c-5,2 -15,1 -22,1 -10,0 -7,-5 -7,-15 0,-11 -3,-14 9,-14 5,0 15,-1 20,1 3,4 2,22 0,27zm-33 5c5,2 56,2 62,0 2,-4 2,-75 0,-83 -4,-2 -11,-1 -17,-1 2,9 3,42 -2,48 -6,2 -37,1 -44,0 0,10 -2,28 1,36z"/>
    <path class="fil6" d="M1047 368c-2,-2 -1,1 -2,-4l0 -19c3,2 3,-4 3,12 0,5 1,8 -1,11zm-1 47c-1,-2 -2,-21 1,-25 2,4 1,22 1,23 -1,3 1,0 -2,2zm-16 13c-6,0 -10,1 -13,-2 3,-1 3,-1 7,-1 7,0 5,-1 6,3zm-51 -47c-1,-4 -2,-40 0,-42 2,-3 37,-2 43,-1l-1 43c-5,3 -36,3 -42,0zm0 40c-3,-8 -1,-26 -1,-36 7,1 38,2 44,0 5,-6 4,-39 2,-48 6,0 13,-1 17,1 2,8 2,79 0,83 -6,2 -57,2 -62,0zm-5 -10c-1,-1 -6,1 -3,-12 1,-5 0,-1 2,-3 0,0 0,0 0,0 0,1 1,1 1,2 1,3 0,-1 0,2 0,0 0,3 0,3 0,3 0,5 0,8zm57 19c2,-1 1,-3 4,-4 2,-1 5,-1 7,-2 3,-2 2,-3 4,-5l5 -3c0,-19 2,-23 -4,-29 5,-2 3,1 3,-4 0,-5 2,-1 -3,-4 7,-5 5,-3 0,-8 5,-2 4,2 4,-26 -11,-7 -2,-6 -9,-10 -5,-2 -57,-2 -64,0 -2,1 -3,3 -5,6 -3,4 -2,0 -3,6l0 42c-1,7 -2,10 -2,19 1,6 2,7 4,10 9,9 6,7 21,7 6,0 17,-1 20,1 4,3 -4,6 18,4z"/>
    <path class="fil7" d="M1048 278c1,-6 3,-7 9,-5l-1 5 -6 2c1,-3 5,0 5,-5 -4,-1 -4,0 -7,3zm-77 12c-1,-3 -1,-24 0,-28 2,-9 13,-8 21,-8 9,0 50,-3 53,7 0,3 0,26 0,30 -3,8 -15,7 -22,7 -10,0 -20,0 -30,0 -9,-1 -19,2 -22,-8zm-6 6c4,9 20,6 29,7 12,0 25,0 37,0 10,0 25,1 27,-11 0,-5 0,-33 -2,-36 -3,-8 -20,-6 -28,-7 -12,0 -25,0 -38,0 -9,0 -24,-1 -26,11 0,5 -1,32 1,36z"/>
    <path class="fil8" d="M1052 997c-4,2 -13,3 -17,1 -3,-2 -2,-11 -2,-15l0 -70c0,-4 -2,-12 3,-14 4,-1 12,0 16,1 2,5 2,92 0,97zm-53 -4l30 -20c0,9 -2,21 3,27 7,3 19,4 24,-2 2,-8 2,-94 -1,-99 -5,-6 -15,-3 -22,-3 -6,11 -3,16 -4,28 -8,-4 -29,-23 -36,-18 0,7 12,12 17,15 25,14 19,6 19,44 -13,11 -50,25 -30,28z"/>
    <path class="fil9" d="M1050 995c2,-8 2,-87 -1,-92 -3,-1 -8,-1 -12,0 -3,6 -3,84 0,91l13 1z"/>
    <path class="fil7" d="M982 364c-7,-21 27,-30 33,-11 8,22 -26,34 -33,11zm-3 17c6,3 37,3 42,0l1 -43c-6,-1 -41,-2 -43,1 -2,2 -1,38 0,42z"/>
    <path class="fil4" d="M1012 416c2,-5 3,-23 0,-27 -5,-2 -15,-1 -20,-1 -12,0 -9,3 -9,14 0,10 -3,15 7,15 7,0 17,1 22,-1z"/>
    <polygon class="fil4" points="990,828 990,860 1017,859 1017,828 "/>
    <path class="fil4" d="M1022 1065c6,-2 5,-20 4,-24 -2,-5 -21,-4 -26,-3 -7,2 -6,19 -3,24 3,5 19,5 25,3z"/>
    <path class="fil8" d="M965 296c-2,-4 -1,-31 -1,-36 2,-12 17,-11 26,-11 13,0 26,0 38,0 8,1 25,-1 28,7 2,3 2,31 2,36 -2,12 -17,11 -27,11 -12,0 -25,0 -37,0 -9,-1 -25,2 -29,-7zm-2 1c4,10 21,8 30,8 13,1 26,1 40,1 10,-1 25,0 27,-13 1,-6 1,-34 -1,-39 -4,-9 -21,-7 -30,-7 -13,-1 -27,-1 -40,-1 -10,1 -25,0 -27,12 -1,6 -1,35 1,39z"/>
    <path class="fil8" d="M1037 1128c-15,0 -30,0 -45,0 -13,0 -26,-3 -26,-18 1,-15 15,-17 27,-17 14,0 29,0 44,0l0 35zm3 -3l0 -29 -1 -6c-16,-1 -34,-1 -51,-1 -14,1 -27,9 -25,25 3,16 15,18 30,18 15,0 31,0 47,0l0 -7z"/>
    <path class="fil10" d="M1030 1069c-8,3 -20,2 -29,1 -12,-1 -12,-5 -12,-18 0,-12 -2,-19 11,-19 7,0 23,-1 30,1 3,6 3,29 0,35zm-19 11c-1,-3 -1,-4 1,-6 5,2 1,2 5,6 4,-7 -3,-5 5,-6 4,3 -1,1 3,5 3,-3 0,-2 3,-5l8 -8c4,-2 3,1 6,-3 -6,-3 -7,2 -7,-3 0,-7 2,1 6,-5 -7,-3 -4,2 -6,-4 0,0 0,0 1,0 0,0 0,0 1,-1l5 -1c-5,-5 -4,1 -7,-4 1,-7 2,1 7,-5l-8 -1c-1,-7 -1,-8 -8,-9 -1,-5 1,-3 -2,-6 -4,5 2,5 -4,6 -5,1 -1,-1 -4,-6l-2 3c-1,3 1,1 -2,3 -4,-2 -1,-2 -3,-6 -4,2 0,-1 -3,4 -3,3 2,0 -2,2 -3,-1 -1,0 -2,-3 -1,-2 0,0 -2,-3 -3,3 -1,1 -2,6l-9 3 -2 7 -7 2c5,3 7,-1 7,3 0,4 -3,2 -7,4 2,4 0,0 7,3 -4,7 -1,0 -7,4 5,4 6,-1 7,4 1,5 -1,2 -6,4 3,3 3,0 9,5 3,4 3,3 9,4l2 7c3,-4 0,-5 4,-7 4,3 0,5 6,7z"/>
    <path class="fil7" d="M1022 1065c-6,2 -22,2 -25,-3 -3,-5 -4,-22 3,-24 5,-1 24,-2 26,3 1,4 2,22 -4,24zm8 4c3,-6 3,-29 0,-35 -7,-2 -23,-1 -30,-1 -13,0 -11,7 -11,19 0,13 0,17 12,18 9,1 21,2 29,-1z"/>
    <path class="fil11" d="M1037 994c-3,-7 -3,-85 0,-91 4,-1 9,-1 12,0 3,5 3,84 1,92l-13 -1zm15 3c2,-5 2,-92 0,-97 -4,-1 -12,-2 -16,-1 -5,2 -3,10 -3,14l0 70c0,4 -1,13 2,15 4,2 13,1 17,-1z"/>
    <path class="fil8" d="M990 860l0 -32c2,-1 1,0 3,-1l25 0c1,6 1,27 0,33 -7,1 -23,2 -28,0zm5 -49l19 0 -4 13 -11 0 -4 -13zm26 52l0 -37c-4,-2 0,0 -4,-2 -3,-1 -1,1 -3,-1 1,-4 4,-10 4,-15l-27 0c0,5 2,11 4,15 -3,2 -3,1 -8,2l0 38 34 0z"/>
    <path class="fil4" d="M1048 1106c-5,0 -3,-2 -3,-2 3,-2 4,-1 7,0 -2,1 3,2 -4,2zm-3 11c0,0 -2,-1 3,-2 6,0 3,1 4,2 -3,2 -4,2 -7,0zm-5 -21l0 29c6,1 13,2 18,-1 3,-4 2,-21 0,-27 -5,-2 -12,-1 -18,-1z"/>
    <path class="fil4" d="M1015 748c0,-6 4,-5 -21,-5l0 -6c27,0 21,1 23,-4l8 7 -10 8zm-10 -26l20 0 0 5 -18 1c-4,1 -2,-1 -3,5 -3,-3 -7,-5 -9,-9l8 -7c1,2 0,2 2,5zm-6 45c0,0 0,0 0,0z"/>
    <polygon class="fil8" points="1022,622 1007,598 991,621 "/>
    <path class="fil4" d="M996 362c-2,-5 2,-8 6,-5 1,5 -1,7 -6,5zm-8 0c6,15 27,7 21,-7 -4,-12 -26,-6 -21,7z"/>
    <path class="fil7" d="M988 362c-5,-13 17,-19 21,-7 6,14 -15,22 -21,7zm-4 2c7,19 36,9 29,-10 -6,-17 -35,-8 -29,10z"/>
    <path class="fil4" d="M1019 406c6,10 21,3 16,-7 -5,-10 -22,-3 -16,7z"/>
    <path class="fil12" d="M984 364c-6,-18 23,-27 29,-10 7,19 -22,29 -29,10zm-2 0c7,23 41,11 33,-11 -6,-19 -40,-10 -33,11z"/>
    <path class="fil8" d="M978 495c1,-1 1,-2 2,-3 0,-4 1,0 -1,-2l-5 1c-10,-14 6,-47 -13,-47 2,7 5,0 6,11 1,13 -6,40 11,40z"/>
    <path class="fil8" d="M1021 527c-3,-4 -3,-2 -9,-3 -1,-6 1,-7 -3,-9 -4,2 -3,4 -3,9 -4,0 -7,0 -9,2 1,5 3,4 9,4 0,4 -1,6 2,9 5,-2 3,-3 4,-9 5,-1 6,1 9,-3z"/>
    <path class="fil8" d="M1005 722c-2,-3 -1,-3 -2,-5l-8 7c2,4 6,6 9,9 1,-6 -1,-4 3,-5l18 -1 0 -5 -20 0z"/>
    <polygon class="fil4" points="999,824 1010,824 1014,811 995,811 "/>
    <path class="fil8" d="M1025 740l-8 -7c-2,5 4,4 -23,4l0 6c25,0 21,-1 21,5l10 -8z"/>
    <path class="fil8" d="M1004 467c-2,5 -1,4 1,8 7,2 9,0 8,-7 9,1 12,-4 6,-8 -5,-4 -9,0 -7,6l-8 1z"/>
    <path class="fil8" d="M972 914c4,-4 1,-13 6,-18 4,-7 12,-6 14,-10 -12,-8 -29,22 -20,28z"/>
    <path class="fil8" d="M987 1014l4 -1c-2,-4 1,-1 -5,-3 -6,-3 -9,-4 -11,-10 -5,-10 2,-13 -5,-16 -8,20 17,30 17,30z"/>
    <path class="fil8" d="M995 1006l-1 -3c-17,-5 -9,-15 -14,-19 -4,4 -2,11 1,15 4,5 8,6 14,7z"/>
    <path class="fil8" d="M981 914c4,-2 2,1 2,-5 2,-13 8,-9 13,-15 0,0 0,-3 -8,0 -8,4 -11,15 -7,20z"/>
    <path class="fil13" d="M1019 292c0,-4 -10,-11 -13,-15 -3,-3 -11,-12 -14,-13 2,6 21,26 27,28z"/>
    <path class="fil14" d="M990 828l27 0 0 31 -27 1c5,2 21,1 28,0 1,-6 1,-27 0,-33l-25 0c-2,1 -1,0 -3,1z"/>
    <path class="fil8" d="M1011 459c4,-6 -1,-11 -8,-7 -2,7 2,10 8,7z"/>
    <path class="fil7" d="M1046 415c3,-2 1,1 2,-2 0,-1 1,-19 -1,-23 -3,4 -2,23 -1,25z"/>
    <path class="fil7" d="M1047 368c2,-3 1,-6 1,-11 0,-16 0,-10 -3,-12l0 19c1,5 0,2 2,4z"/>
    <path class="fil8" d="M990 912c3,-2 1,-2 2,-7l6 -3c0,0 -2,-6 -8,1 -6,7 0,9 0,9z"/>
    <path class="fil8" d="M997 998l-1 -2 -3 -1c-6,-5 0,-5 -5,-9 -2,2 -2,-3 -2,4 0,6 5,8 11,8z"/>
    <path class="fil7" d="M974 411c0,-3 0,-5 0,-8 0,0 0,-3 0,-3 0,-3 1,1 0,-2 0,-1 -1,-1 -1,-2 0,0 0,0 0,0 -2,2 -1,-2 -2,3 -3,13 2,11 3,12z"/>
    <path class="fil15" d="M1015 231c1,-5 -2,-6 -7,-4l0 4c4,2 3,2 7,0z"/>
    <path class="fil8" d="M996 362c5,2 7,0 6,-5 -4,-3 -8,0 -6,5z"/>
    <path class="fil6" d="M1048 278c3,-3 3,-4 7,-3 0,5 -4,2 -5,5l6 -2 1 -5c-6,-2 -8,-1 -9,5z"/>
    <path class="fil16" d="M1030 428c-1,-4 1,-3 -6,-3 -4,0 -4,0 -7,1 3,3 7,2 13,2z"/>
    <path class="fil15" d="M988 1146c-4,-3 -2,-2 -6,0 -1,5 5,7 6,0z"/>
    <path class="fil13" d="M1013 276c-1,-3 -4,-7 -8,-8 1,4 5,7 8,8z"/>
    <path class="fil17" d="M1003 288c-1,-4 -5,-6 -9,-7 2,4 5,7 9,7z"/>
    <path class="fil15" d="M1063 317c5,0 4,-1 5,-5l-5 0c-1,3 -1,1 0,5z"/>
    <path class="fil17" d="M1052 1117c-1,-1 2,-2 -4,-2 -5,1 -3,2 -3,2 3,2 4,2 7,0z"/>
    <path class="fil13" d="M1052 1104c-3,-1 -4,-2 -7,0 0,0 -2,2 3,2 7,0 2,-1 4,-2z"/>
    <path class="fil18" d="M997 492c2,-3 2,-3 0,-6 -3,3 -3,3 0,6z"/>
    <path class="fil17" d="M997 502c3,-4 1,-3 0,-6 -2,4 -3,2 0,6z"/>
    <path class="fil19" d="M965 1023c-3,-3 -2,-1 -4,1 3,1 3,0 4,-1z"/>
    <line class="fil8" x1="1004" y1="467" x2="1004" y2= "467" />
   </g>
  </g>
 </g>
</svg>
