<?xml version="1.0" encoding="UTF-8"?>
<!DOCTYPE svg PUBLIC "-//W3C//DTD SVG 1.1//EN" "http://www.w3.org/Graphics/SVG/1.1/DTD/svg11.dtd">
<!-- Creator: CorelDRAW X7 -->
<svg xmlns="http://www.w3.org/2000/svg" xml:space="preserve" width="2480px" height="497px" version="1.1" style="shape-rendering:geometricPrecision; text-rendering:geometricPrecision; image-rendering:optimizeQuality; fill-rule:evenodd; clip-rule:evenodd"
viewBox="0 0 2480 497"
 xmlns:xlink="http://www.w3.org/1999/xlink">
 <defs>
  <style type="text/css">
   <![CDATA[
    .str0 {stroke:#008891;stroke-width:0.899886}
    .fil1 {fill:#FEFEFE}
    .fil0 {fill:#008891;fill-rule:nonzero}
   ]]>
  </style>
 </defs>
 <g id="Camada_x0020_1">
  <metadata id="CorelCorpID_0Corel-Layer"/>
  <g id="_2587369126192">
   <polygon class="fil0 str0" points="0,0 2480,0 2480,495 0,495 "/>
   <g>
    <path class="fil1" d="M70 298c-6,5 -8,13 -6,20l-64 54 0 15 72 -60c6,4 15,3 21,-2 7,-6 8,-17 2,-25 -6,-7 -18,-8 -25,-2zm15 18c-2,2 -6,2 -8,-1 -2,-2 -2,-6 0,-8 3,-2 7,-2 9,1 2,2 2,6 -1,8z"/>
    <path class="fil1" d="M365 226c-6,5 -7,13 -5,20l-64 54 -41 0c3,-6 5,-13 7,-21 5,-25 1,-52 -10,-75 -2,-3 -5,-4 -8,-2 -3,1 -4,5 -3,8 10,20 14,44 9,67 -5,23 -17,44 -35,59 -18,15 -41,24 -65,24 -23,1 -46,-6 -64,-20 -3,-2 -7,-1 -9,1 -2,3 -1,7 2,9 20,15 46,23 72,22 7,0 14,-1 22,-2l-7 39 -65 54c-6,-3 -14,-3 -20,2 -8,6 -9,18 -2,25 6,8 17,9 25,3 6,-5 7,-13 5,-20l66 -56c1,-1 2,-2 2,-3l8 -48c8,-2 15,-6 22,-10l10 13c2,3 6,3 8,1 0,0 1,0 1,0 2,-2 3,-6 1,-8l-10 -13c2,-1 4,-2 6,-4 1,-1 3,-3 5,-5l40 42 -16 14 -9 -11c-1,-3 -5,-3 -8,-1 -3,2 -3,5 -1,8l18 25c4,5 10,8 16,9 7,1 13,-1 18,-5l1 0c5,-5 8,-11 8,-17 0,-7 -2,-13 -7,-18l-52 -54c5,-6 10,-13 14,-20l48 0c1,0 2,0 4,-1l66 -56c6,4 14,4 20,-1 8,-7 9,-18 3,-25 -7,-8 -18,-9 -26,-3zm-269 257c-2,3 -6,2 -8,0 -2,-3 -2,-7 0,-9 3,-2 7,-1 9,1 2,3 2,6 -1,8zm187 -80c0,4 -2,7 -4,9 -3,2 -6,3 -9,2 -4,0 -6,-2 -8,-4l-3 -4 17 -15 4 3c2,3 3,6 3,9zm98 -158c-3,2 -7,1 -9,-1 -2,-3 -2,-6 1,-8 2,-3 6,-2 8,0 2,3 2,7 0,9z"/>
    <path class="fil1" d="M0 211l40 0c-13,30 -12,65 3,96 1,3 5,4 8,2 0,0 1,0 1,0 2,-2 3,-5 2,-7 -22,-44 -10,-95 26,-126 22,-19 50,-27 78,-24 3,0 6,-2 7,-5 0,-4 -2,-7 -6,-7 -12,-1 -25,-1 -36,2l6 -40 65 -54c6,4 15,4 21,-1 7,-7 8,-18 2,-26 -7,-7 -18,-8 -26,-2 -5,5 -7,13 -5,20l-66 56c-1,1 -2,2 -2,3l-8 48c-12,3 -22,9 -32,17l-26 -31c3,-7 3,-15 -2,-21 -6,-8 -18,-9 -25,-2 -8,6 -9,17 -3,25 5,6 14,8 20,5l26 31c-9,9 -17,19 -22,29l-46 0 0 12zm199 -183c3,-2 6,-1 9,1 2,3 1,6 -1,8 -3,3 -6,2 -9,0 -2,-3 -1,-7 1,-9zm-167 90c3,-2 7,-2 9,1 2,2 2,6 -1,8 -3,2 -6,2 -8,-1 -2,-2 -2,-6 0,-8z"/>
   </g>
   <g>
    <path class="fil1" d="M2009 304c8,-7 19,-15 30,-21 10,-5 20,-10 28,-12 29,-7 37,8 47,25 4,8 8,15 14,22 0,0 0,0 0,0l2 3c0,0 0,0 0,0 7,6 15,11 22,15 17,11 31,20 23,48 -3,8 -8,18 -14,28 -7,10 -14,20 -22,28 -8,9 -15,14 -20,16 -4,1 -7,1 -9,0 -3,-2 -5,-5 -7,-9 -3,-9 -5,-22 -5,-36 0,-14 -8,-30 -20,-43 -12,-12 -27,-21 -41,-22 -15,-1 -28,-3 -36,-7 -4,-2 -7,-4 -9,-7 -1,-2 -1,-5 1,-9 2,-5 7,-11 16,-19zm-22 37l0 1c3,2 6,4 10,6 10,4 24,7 40,7 11,1 24,9 34,20 10,11 18,24 18,35 0,16 2,30 6,41 2,6 6,10 10,13 5,2 10,3 17,1 6,-2 12,-7 20,-14l0 0c1,-2 3,-3 4,-4 8,-9 16,-19 23,-30 7,-11 12,-21 15,-30 10,-35 -7,-46 -27,-59 -7,-4 -14,-8 -20,-14l-2 -2c-5,-6 -9,-14 -13,-20 -12,-21 -22,-39 -58,-30 -9,2 -20,7 -30,13 -11,7 -22,14 -31,22 -10,9 -16,16 -19,23 -3,6 -3,12 0,17 1,2 2,3 3,4z"/>
    <path class="fil1" d="M2057 296c1,-1 2,-2 3,-2 0,0 0,0 1,0 1,0 2,1 3,2l3 2c2,2 5,3 7,1l2 -3c1,-1 3,-2 4,-2 2,1 3,1 4,2l0 0c1,1 2,3 2,4 0,0 0,0 0,0 -1,2 -1,3 -2,4l-3 2c-2,2 -2,5 0,7l3 3c1,1 1,2 1,4l0 0c0,1 -1,3 -2,4l0 0c-1,1 -2,1 -4,1 -1,0 -2,0 -3,-2l-3 -2c-2,-2 -5,-2 -7,0l-2 2c-1,1 -3,2 -4,2l0 0c-2,0 -3,-1 -4,-2l0 0c-1,-1 -1,-3 -1,-4 0,-2 0,-3 1,-4l3 -2c2,-2 2,-5 0,-7l-2 -3c-2,-1 -2,-2 -2,-4 0,-1 0,-2 2,-3l0 0zm-8 13c-3,3 -4,6 -4,10 0,4 1,7 4,10l0 0c3,3 7,5 11,5l0 0c3,0 7,-1 9,-3 3,2 7,4 10,4 4,0 8,-2 11,-5l0 0c3,-2 4,-6 4,-10l0 0c0,-4 -1,-7 -3,-10 2,-2 4,-6 4,-9l0 0c0,-5 -1,-8 -4,-11l0 0c-3,-3 -7,-5 -11,-5 -3,0 -7,1 -10,3 -2,-2 -6,-3 -9,-3l0 0c-4,-1 -8,1 -11,4l0 0c-3,3 -5,7 -5,10 0,4 1,7 4,10z"/>
    <path class="fil1" d="M2154 358c3,4 3,9 0,13 -4,3 -10,3 -13,0 -4,-4 -3,-10 0,-13 4,-4 10,-4 13,0z"/>
    <path class="fil1" d="M2127 383c4,4 4,10 0,13 -3,4 -9,3 -13,0 -3,-4 -3,-9 1,-13 3,-3 9,-3 12,0z"/>
    <path class="fil1" d="M2128 357c3,4 3,10 0,13 -4,4 -10,4 -13,0 -3,-4 -3,-9 0,-13 4,-3 10,-3 13,0z"/>
    <path class="fil1" d="M2153 384c4,4 4,9 0,13 -4,3 -9,3 -13,-1 -3,-3 -3,-9 1,-12 3,-4 9,-4 12,0z"/>
   </g>
   <g>
    <path class="fil1" d="M2384 250l-77 0c-5,0 -10,4 -10,10l0 6 -30 0c-5,0 -10,4 -10,10l0 101c0,5 5,10 10,10l117 0c6,0 10,-5 10,-10l0 -117c0,-6 -4,-10 -10,-10zm-117 133c-3,0 -6,-3 -6,-6l0 -101c0,-4 3,-6 6,-6l52 0c4,0 6,2 6,6l0 101c0,3 -2,6 -6,6l-52 0zm123 -6c0,3 -3,6 -6,6l-57 0c2,-2 2,-4 2,-6l0 -14 55 0c1,0 2,-1 2,-2l0 -47c0,-1 -1,-2 -2,-2 -1,0 -2,1 -2,2l0 45 -53 0 0 -83c0,-6 -4,-10 -10,-10l-10 0 0 -4 73 0 0 44c0,1 1,2 2,2 1,0 2,-1 2,-2l0 -46c0,-1 -1,-2 -2,-2l-77 0c-1,0 -2,1 -2,2l0 6 -4 0 0 -6c0,-4 3,-6 6,-6l77 0c3,0 6,2 6,6l0 117z"/>
    <path class="fil1" d="M2352 367l-13 0c-3,0 -6,2 -6,6 0,3 3,6 6,6l13 0c3,0 6,-3 6,-6 0,-4 -3,-6 -6,-6zm0 8l-13 0c-1,0 -2,-1 -2,-2 0,-2 1,-2 2,-2l13 0c1,0 2,0 2,2 0,1 -1,2 -2,2z"/>
    <path class="fil1" d="M2293 282c-4,0 -8,3 -8,8 0,4 4,8 8,8 5,0 8,-4 8,-8 0,-5 -3,-8 -8,-8zm0 12c-2,0 -4,-2 -4,-4 0,-2 2,-4 4,-4 3,0 4,2 4,4 0,2 -1,4 -4,4z"/>
    <path class="fil1" d="M2293 330c-3,0 -6,3 -6,6 0,3 3,6 6,6 4,0 6,-3 6,-6 0,-3 -2,-6 -6,-6zm0 8c-1,0 -2,-1 -2,-2 0,-1 1,-2 2,-2 1,0 2,1 2,2 0,1 -1,2 -2,2z"/>
    <path class="fil1" d="M2293 302c-4,0 -8,3 -8,8 0,4 4,8 8,8 5,0 8,-4 8,-8 0,-5 -3,-8 -8,-8zm0 12c-2,0 -4,-2 -4,-4 0,-2 2,-4 4,-4 3,0 4,2 4,4 0,2 -1,4 -4,4z"/>
    <path class="fil1" d="M2293 274c-9,0 -16,7 -16,16l0 20c0,9 7,16 16,16 9,0 16,-7 16,-16l0 -20c0,-9 -7,-16 -16,-16zm12 36c0,7 -5,12 -12,12 -6,0 -12,-5 -12,-12l0 -20c0,-7 6,-12 12,-12 7,0 12,5 12,12l0 20z"/>
   </g>
   <path class="fil1" d="M2168 198l6 0 0 5 -6 0 0 -5zm0 -28l6 0 0 -5 -6 0 0 5zm6 -17l-6 0 0 6 6 0 0 -6zm0 -11l-6 0 0 6 6 0 0 -6zm5 56l0 5 6 0 0 -5 -6 0zm12 0l0 5 5 0 0 -5 -5 0zm22 -39c0,-1 -1,-1 -2,-2 -1,0 -2,1 -3,2l-12 17 -3 -7c0,-1 -1,-2 -2,-2 -1,0 -2,1 -3,2l-11 19 5 3 8 -15 4 6c0,1 1,2 2,2 1,0 2,0 2,-1l12 -17 3 8c0,1 1,2 2,2 1,0 2,-1 3,-2l14 -20 0 2 6 0 0 -11c0,-1 -1,-2 -1,-2 -1,-1 -2,-1 -3,-1l-11 3 2 6 4 -1 -13 17 -3 -8zm-20 -17l-14 0 0 6 14 0 0 -6zm-14 17l6 0 0 -6 -6 0 0 6zm62 17l0 9c2,-1 6,-1 8,1 3,-3 8,-3 11,0 2,-1 4,-2 6,-2 5,0 8,4 8,9l0 22c0,6 -5,11 -11,11l-39 0c-1,0 -1,0 -2,-1l-12 -10 -50 0c0,0 -1,0 -1,-1 -2,7 -9,12 -16,12l-14 0c-1,0 -2,-2 -2,-3l0 -34c0,-12 6,-23 16,-29l0 -23c0,-6 5,-11 11,-11l39 0 0 5 -30 0 0 42c2,0 4,1 6,3l5 0 0 5 -3 0c0,0 0,0 0,1l0 0c0,2 0,3 -1,5l4 0 0 5 -6 0 0 -4 -5 7 0 14 40 0c-1,-2 -2,-5 -1,-7 1,-4 4,-7 8,-7l1 0c2,0 4,1 5,2l8 6 0 -28c0,-2 1,-4 3,-6 1,-1 3,-2 6,-2 4,0 8,4 8,9zm-92 7l7 -8c1,0 1,0 1,0l0 -44 -3 0c-3,0 -5,3 -5,6l0 46zm16 1c0,-1 1,-1 1,-2l0 0c0,-2 -1,-3 -2,-3 -2,-1 -3,-1 -4,0l-12 13c-1,0 -2,1 -3,0 -1,0 -2,-1 -2,-2l0 -23c-7,5 -11,13 -11,22l0 31 11 0c6,0 11,-5 11,-11l0 -9c0,-2 1,-4 2,-5l9 -11zm76 8c0,2 -2,3 -3,3 -2,0 -3,-1 -3,-3l0 -16c0,-2 -1,-3 -3,-3 0,0 -1,0 -2,0 0,1 -1,2 -1,2l0 34c0,1 0,2 -1,3 -1,0 -2,0 -3,-1l-12 -10c-1,0 -2,0 -2,0l-1 0c-1,0 -2,1 -3,2 0,1 0,2 1,3l17 14 38 0c3,0 5,-2 5,-5l0 -22c0,-2 -1,-3 -2,-3 -1,0 -2,0 -2,0 -1,1 -1,2 -1,2 0,2 -1,3 -3,3 -1,0 -3,-1 -3,-3 0,-1 -1,-2 -2,-2 -2,0 -3,1 -3,2 0,2 -2,3 -3,3 -2,0 -3,-1 -3,-3 0,-1 -1,-2 -3,-2 -1,0 -2,1 -2,2zm52 -119l0 49c0,8 -6,15 -14,15l-9 0 -4 4 0 37 -6 0 0 -32 -8 9 0 23 -6 0 0 -41 -33 0c-8,0 -14,-7 -14,-15l0 -49c0,-8 6,-14 14,-14l66 0c8,0 14,6 14,14zm-5 0c0,-5 -4,-9 -9,-9l-66 0c-5,0 -9,4 -9,9l0 49c0,5 4,9 9,9l36 0c1,0 3,1 3,3l0 13 14 -15c1,-1 2,-1 2,-1l11 0c5,0 9,-4 9,-9l0 -49zm-8 28l0 2c0,2 -2,3 -3,3l-28 0 0 14 31 0 0 6 -67 0 0 -6 30 0 0 -6 -2 0c-5,0 -10,-3 -11,-8l-14 0c-2,0 -3,-1 -3,-3l0 -2c0,-7 5,-12 11,-12 0,-6 5,-11 11,-11 0,-6 5,-11 11,-11 6,0 11,5 11,11 6,0 11,5 11,11 7,0 12,5 12,12zm-37 5l-7 0c1,2 3,3 5,3l2 0 0 -3zm31 -5c0,-4 -3,-6 -6,-6l-2 0c-2,0 -3,-1 -3,-3l0 -3c0,-3 -3,-5 -6,-5l-2 0c-2,0 -3,-1 -3,-3l0 -3c0,-3 -3,-5 -6,-5 -3,0 -5,2 -5,5l0 3c0,2 -2,3 -3,3l-3 0c-3,0 -6,2 -6,5l0 3c0,2 -1,3 -2,3l-3 0c-3,0 -6,2 -6,6l25 0 0 -12 6 0 0 12c3,0 6,-3 6,-6l5 0c0,2 0,4 -1,6l15 0zm-50 -31l-11 0 0 6 11 0 0 -6zm-6 11l-8 0 0 6 8 0 0 -6zm56 -11l-11 0 0 6 11 0 0 -6zm0 17l8 0 0 -6 -8 0 0 6z"/>
   <g>
    <path class="fil1" d="M2039 70c1,0 2,-1 2,-2l0 -9c0,-5 -4,-9 -9,-9l-121 0c-5,0 -9,4 -9,9l0 152c0,5 4,10 9,10l121 0c5,0 9,-5 9,-10l0 -131c0,-2 -1,-3 -2,-3 -1,0 -3,1 -3,3l0 131c0,3 -1,5 -4,5l-121 0c-2,0 -4,-2 -4,-5l0 -152c0,-2 2,-4 4,-4l121 0c3,0 4,2 4,4l0 9c0,1 2,2 3,2z"/>
    <path class="fil1" d="M1923 196c0,2 1,3 3,3l91 0c2,0 3,-1 3,-3l0 -19c0,-1 -1,-3 -3,-3l-91 0c-2,0 -3,2 -3,3l0 19zm5 -17l87 0 0 15 -87 0 0 -15z"/>
    <path class="fil1" d="M1980 110c0,1 1,3 3,3l34 0c2,0 3,-2 3,-3 0,-1 -1,-2 -3,-2l-34 0c-2,0 -3,1 -3,2z"/>
    <path class="fil1" d="M2017 101c2,0 3,-1 3,-2 0,-2 -1,-3 -3,-3l-28 0c-1,0 -2,1 -2,3 0,1 1,2 2,2l28 0z"/>
    <path class="fil1" d="M1983 124l34 0c2,0 3,-1 3,-3 0,-1 -1,-2 -3,-2l-34 0c-2,0 -3,1 -3,2 0,2 1,3 3,3z"/>
    <path class="fil1" d="M1983 135l34 0c2,0 3,-1 3,-3 0,-1 -1,-2 -3,-2l-34 0c-2,0 -3,1 -3,2 0,2 1,3 3,3z"/>
    <path class="fil1" d="M1926 146l91 0c2,0 3,-1 3,-2 0,-2 -1,-3 -3,-3l-91 0c-2,0 -3,1 -3,3 0,1 1,2 3,2z"/>
    <path class="fil1" d="M1926 157l91 0c2,0 3,-1 3,-2 0,-1 -1,-3 -3,-3l-91 0c-2,0 -3,2 -3,3 0,1 1,2 3,2z"/>
    <path class="fil1" d="M1926 169l64 0c2,0 3,-1 3,-3 0,-1 -1,-2 -3,-2l-64 0c-2,0 -3,1 -3,2 0,2 1,3 3,3z"/>
    <path class="fil1" d="M1926 135l46 0c1,0 2,-1 2,-3l0 -33c0,-2 -1,-3 -2,-3l-46 0c-2,0 -3,1 -3,3l0 33c0,2 1,3 3,3zm2 -34l41 0 0 29 -41 0 0 -29z"/>
    <path class="fil1" d="M2020 74c0,1 -1,3 -3,3 -1,0 -2,-2 -2,-3 0,-2 1,-3 2,-3 2,0 3,1 3,3z"/>
    <path class="fil1" d="M2009 74c0,1 -1,3 -2,3 -2,0 -3,-2 -3,-3 0,-2 1,-3 3,-3 1,0 2,1 2,3z"/>
    <path class="fil1" d="M1999 74c0,1 -2,3 -3,3 -2,0 -3,-2 -3,-3 0,-2 1,-3 3,-3 1,0 3,1 3,3z"/>
    <path class="fil1" d="M1915 183c-1,0 -2,1 -2,2l0 22c0,2 1,3 2,3l113 0c2,0 3,-1 3,-3l0 -144c0,-1 -1,-2 -3,-2l-113 0c-1,0 -2,1 -2,2l0 111c0,1 1,2 2,2 1,0 3,-1 3,-2l0 -87 9 0c1,0 2,-1 2,-2 0,-2 -1,-3 -2,-3l-9 0 0 -16 108 0 0 16 -88 0c-1,0 -2,1 -2,3 0,1 1,2 2,2l88 0 0 118 -108 0 0 -20c0,-1 -2,-2 -3,-2z"/>
   </g>
   <g>
    <path class="fil1" d="M1711 349c1,0 3,-2 3,-4l0 -37c0,-7 5,-13 13,-13l135 0c2,0 4,-1 4,-3 0,-2 -2,-3 -4,-3l-135 0c-11,0 -20,9 -20,19l0 37c0,2 2,4 4,4z"/>
    <path class="fil1" d="M1907 289l-30 0c-1,0 -3,1 -3,3 0,2 2,3 3,3l30 0c7,0 12,6 12,13l0 91c0,7 -5,13 -12,13l-180 0c-8,0 -13,-6 -13,-13l0 -39c0,-2 -2,-3 -3,-3 -2,0 -4,1 -4,3l0 39c0,11 9,19 20,19l180 0c10,0 19,-8 19,-19l0 -91c0,-10 -9,-19 -19,-19z"/>
    <path class="fil1" d="M1720 369c0,2 2,4 3,4 2,0 4,-2 4,-4l0 -21c0,-2 -2,-3 -4,-3 -1,0 -3,1 -3,3l0 21z"/>
    <path class="fil1" d="M1783 392c1,0 3,-1 3,-3l0 -2 103 0c2,0 3,-2 3,-3 0,-2 -1,-3 -3,-3l-103 0 0 -3c0,-1 -2,-3 -3,-3 -2,0 -4,2 -4,3l0 3 -35 0c-2,0 -3,1 -3,3 0,1 1,3 3,3l35 0 0 2c0,2 2,3 4,3z"/>
    <path class="fil1" d="M1910 362c2,0 3,-1 3,-3l0 -50c0,-4 -3,-7 -7,-7l-178 0c-5,0 -8,3 -8,7l0 12c0,3 2,6 4,8l7 5c1,0 2,1 2,2l0 34c0,2 -1,3 -2,3l-7 5c-2,2 -4,5 -4,8l0 12c0,4 3,7 8,7l178 0c4,0 7,-3 7,-7l0 -24c0,-2 -1,-3 -3,-3 -2,0 -3,1 -3,3l0 24c0,0 -1,1 -1,1l-178 0c-1,0 -1,-1 -1,-1l0 -12c0,-1 0,-2 1,-3l7 -5c3,-1 4,-4 4,-8l0 -34c0,-3 -1,-6 -4,-8l-7 -4c-1,-1 -1,-2 -1,-3l0 -12c0,-1 0,-1 1,-1l178 0c0,0 1,0 1,1l0 50c0,2 1,3 3,3z"/>
    <path class="fil1" d="M1770 315l-14 0c-6,0 -10,5 -10,10l0 25c0,6 4,10 10,10l2 0c0,0 1,1 1,1l0 7c0,2 1,4 3,5 1,0 4,0 6,-1l12 -10c1,-1 3,-2 5,-2l16 0c6,0 10,-4 10,-10l0 -25c0,-5 -4,-10 -10,-10l-16 0c-2,0 -3,2 -3,3 0,2 1,4 3,4l16 0c2,0 4,1 4,3l0 25c0,2 -2,4 -4,4l-16 0c-3,0 -7,1 -9,3l-11 8 0 -4c0,-4 -3,-7 -7,-7l-2 0c-2,0 -3,-2 -3,-4l0 -25c0,-2 1,-3 3,-3l14 0c2,0 3,-2 3,-4 0,-1 -1,-3 -3,-3z"/>
    <path class="fil1" d="M1798 331c0,-2 -1,-3 -3,-3l-33 0c-2,0 -3,1 -3,3 0,2 1,3 3,3l33 0c2,0 3,-1 3,-3z"/>
    <path class="fil1" d="M1762 341c-2,0 -3,1 -3,3 0,2 1,3 3,3l20 0c2,0 3,-1 3,-3 0,-2 -1,-3 -3,-3l-20 0z"/>
    <path class="fil1" d="M1900 350l0 -25c0,-5 -4,-10 -9,-10l-46 0c-5,0 -10,5 -10,10l0 25c0,6 5,10 10,10l17 0c1,0 3,1 4,2l13 10c1,1 2,2 5,1 2,-1 3,-3 3,-5l0 -7c0,0 1,-1 1,-1l3 0c5,0 9,-4 9,-10zm-6 0c0,2 -2,4 -3,4l-3 0c-4,0 -7,3 -7,7l0 4 -11 -8c-2,-2 -5,-3 -8,-3l-17 0c-2,0 -3,-2 -3,-4l0 -25c0,-2 1,-3 3,-3l46 0c1,0 3,1 3,3l0 25z"/>
    <path class="fil1" d="M1884 328l-33 0c-1,0 -3,1 -3,3 0,2 2,3 3,3l33 0c2,0 3,-1 3,-3 0,-2 -1,-3 -3,-3z"/>
    <path class="fil1" d="M1862 341l-11 0c-1,0 -3,1 -3,3 0,2 2,3 3,3l11 0c1,0 3,-1 3,-3 0,-2 -2,-3 -3,-3z"/>
    <path class="fil1" d="M1727 337c0,2 -2,4 -4,4 -1,0 -3,-2 -3,-4 0,-1 2,-3 3,-3 2,0 4,2 4,3z"/>
   </g>
  </g>
 </g>
</svg>
