<?xml version="1.0" encoding="UTF-8"?>
<!DOCTYPE svg PUBLIC "-//W3C//DTD SVG 1.1//EN" "http://www.w3.org/Graphics/SVG/1.1/DTD/svg11.dtd">
<!-- Creator: CorelDRAW X7 -->
<svg xmlns="http://www.w3.org/2000/svg" xml:space="preserve" width="1189px" height="1773px" version="1.1" style="shape-rendering:geometricPrecision; text-rendering:geometricPrecision; image-rendering:optimizeQuality; fill-rule:evenodd; clip-rule:evenodd"
viewBox="0 0 1189 1773"
 xmlns:xlink="http://www.w3.org/1999/xlink">
 <defs>
  <style type="text/css">
   <![CDATA[
    .str0 {stroke:#2DA76C;stroke-width:2.36221}
    .fil3 {fill:#FEFEFE}
    .fil4 {fill:#E6E7E8}
    .fil2 {fill:#01172C}
    .fil0 {fill:#2DA76C}
    .fil1 {fill:#A8C978}
    .fil5 {fill:white}
   ]]>
  </style>
 </defs>
 <g id="Camada_x0020_1">
  <metadata id="CorelCorpID_0Corel-Layer"/>
  <g id="_2587266009136">
   <rect class="fil0 str0" transform="matrix(-2.51426E-014 -0.941639 -0.941639 2.51426E-014 1188.94 1772.97)" width="1883" height="1263" rx="5" ry="5"/>
   <path class="fil1" d="M247 364c18,20 30,36 58,43 45,11 144,-17 193,-31 11,-4 25,-7 36,-12 6,-1 14,-4 20,-6l136 -46c53,-17 105,-35 158,-50 27,-8 53,-17 80,-23 67,-16 196,-40 261,-36l0 -5c-47,-4 -123,8 -171,17 -62,11 -98,19 -159,38 -101,31 -201,64 -301,97 -57,19 -181,59 -240,54 -32,-4 -46,-19 -65,-40 -7,-8 -20,-23 -25,-32 -7,-10 -17,-20 -26,-29 -55,-55 -120,-79 -183,-104l-18 -6 -1 4 36 15c44,17 93,36 133,68 16,12 29,24 42,39 9,10 31,41 36,45z"/>
   <g>
    <path class="fil2" d="M158 1087c0,-11 -9,-21 -21,-21 -11,0 -21,10 -21,21 0,12 10,21 21,21 12,0 21,-9 21,-21zm-21 11c-6,0 -10,-5 -10,-11 0,-5 4,-10 10,-10 6,0 11,5 11,10 0,6 -5,11 -11,11z"/>
    <path class="fil2" d="M106 1155l63 0c2,0 5,-2 5,-5l0 -5c0,-20 -17,-37 -37,-37 -20,0 -36,17 -36,37l0 5c0,3 2,5 5,5zm31 -36c15,0 26,11 26,26l-52 0c0,-15 12,-26 26,-26z"/>
    <path class="fil2" d="M337 1119c0,-3 -2,-6 -5,-6l-101 0c-3,0 -5,3 -5,6 0,3 2,5 5,5l101 0c3,0 5,-2 5,-5z"/>
    <path class="fil2" d="M332 1082l-101 0c-20,0 -36,17 -36,37 0,20 16,36 36,36l27 0c3,0 5,-2 5,-5 0,-3 -2,-5 -5,-5l-27 0c-14,0 -26,-12 -26,-26 0,-15 12,-26 26,-26l101 0c14,0 26,11 26,26 0,14 -12,26 -26,26l-27 0c-3,0 -5,2 -5,5 0,3 2,5 5,5l27 0c20,0 36,-16 36,-36 0,-20 -16,-37 -36,-37z"/>
    <path class="fil2" d="M287 1150c0,3 -3,5 -5,5 -3,0 -6,-2 -6,-5 0,-3 3,-5 6,-5 2,0 5,2 5,5z"/>
   </g>
   <g>
    <path class="fil3" d="M108 500l28 -74 11 0 30 74 -11 0 -9 -22 -31 0 -8 22 -10 0zm21 -30l25 0 -7 -21c-3,-6 -5,-11 -6,-15 -1,5 -2,9 -4,14l-8 22zm89 30l0 -6c-3,5 -8,8 -15,8 -4,0 -8,-2 -11,-4 -4,-2 -7,-6 -9,-10 -2,-4 -3,-9 -3,-14 0,-6 1,-11 3,-15 2,-4 4,-8 8,-10 4,-2 8,-4 12,-4 3,0 6,1 9,3 2,1 4,3 6,5l0 -27 9 0 0 74 -9 0zm-28 -26c0,6 1,12 4,15 3,3 6,5 10,5 4,0 8,-2 10,-5 3,-3 5,-8 5,-15 0,-7 -2,-12 -5,-16 -2,-3 -6,-5 -10,-5 -4,0 -8,2 -10,5 -3,3 -4,8 -4,16zm48 -1c0,-9 3,-17 8,-22 5,-4 11,-6 17,-6 8,0 14,3 18,8 5,5 7,11 7,20 0,7 -1,12 -3,16 -2,4 -5,7 -9,9 -4,2 -8,4 -13,4 -7,0 -13,-3 -18,-8 -5,-5 -7,-11 -7,-21zm9 1c0,6 2,12 5,15 3,3 7,5 11,5 5,0 8,-2 11,-5 3,-4 5,-9 5,-16 0,-6 -2,-11 -5,-15 -3,-3 -6,-5 -11,-5 -4,0 -8,2 -11,5 -3,4 -5,9 -5,16zm87 7l9 1c-1,6 -3,11 -7,14 -4,4 -9,6 -15,6 -8,0 -14,-3 -18,-8 -4,-4 -7,-11 -7,-20 0,-6 1,-11 3,-16 2,-4 5,-7 9,-9 4,-2 8,-4 13,-4 6,0 10,2 14,5 4,3 6,7 7,12l-9 2c0,-4 -2,-7 -4,-8 -2,-2 -5,-3 -8,-3 -4,0 -8,2 -11,5 -3,3 -4,8 -4,15 0,8 1,13 4,16 3,3 6,5 11,5 3,0 6,-1 9,-3 2,-2 3,-6 4,-10zm-21 28l2 -9 7 0 -1 6c2,0 5,1 6,2 2,2 2,3 2,5 0,3 -1,5 -3,7 -3,2 -7,3 -11,3 -3,0 -6,0 -8,0l1 -7c2,0 3,0 5,0 3,0 5,0 6,-1 1,-1 2,-1 2,-2 0,-1 0,-1 -1,-2 0,0 -1,-1 -2,-1 -1,0 -3,-1 -5,-1zm73 -15c-3,3 -7,5 -10,6 -3,1 -6,2 -10,2 -6,0 -10,-2 -14,-5 -3,-3 -4,-6 -4,-11 0,-2 0,-5 1,-7 2,-2 3,-4 5,-5 2,-2 4,-3 7,-3 2,-1 4,-1 8,-2 7,0 13,-2 16,-3 0,-1 0,-2 0,-2 0,-4 -1,-6 -2,-8 -3,-2 -6,-3 -11,-3 -4,0 -7,1 -9,2 -2,2 -4,4 -5,8l-9 -1c1,-4 2,-7 4,-9 2,-3 5,-4 8,-6 4,-1 8,-2 13,-2 4,0 8,1 11,2 3,1 5,3 6,4 1,2 2,4 3,6 0,2 0,5 0,9l0 12c0,8 1,14 1,16 0,2 1,4 2,6l-9 0c-1,-2 -2,-4 -2,-6zm-1 -21c-3,2 -8,3 -15,4 -3,0 -6,1 -8,2 -1,0 -2,1 -3,3 -1,1 -2,2 -2,4 0,2 1,4 3,6 2,2 5,2 8,2 4,0 7,0 10,-2 2,-1 4,-4 6,-6 1,-2 1,-5 1,-9l0 -4zm-29 -33c0,-3 0,-6 2,-8 2,-2 5,-3 8,-3 2,0 5,1 8,2 2,1 4,2 5,2 1,0 2,0 3,-1 0,-1 1,-2 1,-4l6 0c0,4 -1,7 -3,9 -1,2 -4,3 -7,3 -2,0 -4,-1 -8,-3 -2,-1 -4,-2 -5,-2 -1,0 -2,1 -3,2 0,0 -1,2 -1,3l-6 0zm49 33c0,-9 3,-17 8,-22 5,-4 11,-6 17,-6 8,0 14,3 18,8 5,5 7,11 7,20 0,7 -1,12 -3,16 -2,4 -5,7 -9,9 -4,2 -8,4 -13,4 -7,0 -13,-3 -18,-8 -5,-5 -7,-11 -7,-21zm9 1c0,6 2,12 5,15 3,3 7,5 11,5 5,0 9,-2 12,-5 3,-4 4,-9 4,-16 0,-6 -1,-11 -5,-15 -3,-3 -6,-5 -11,-5 -4,0 -8,2 -11,5 -3,4 -5,9 -5,16zm116 26l0 -6c-4,5 -9,8 -15,8 -5,0 -9,-2 -12,-4 -4,-2 -7,-6 -9,-10 -2,-4 -3,-9 -3,-14 0,-6 1,-11 3,-15 2,-4 5,-8 8,-10 4,-2 8,-4 12,-4 3,0 6,1 9,3 2,1 4,3 6,5l0 -27 9 0 0 74 -8 0zm-29 -26c0,6 1,12 4,15 3,3 6,5 10,5 4,0 8,-2 11,-5 2,-3 4,-8 4,-15 0,-7 -2,-12 -5,-16 -2,-3 -6,-5 -10,-5 -4,0 -7,2 -10,5 -3,3 -4,8 -4,16zm88 9l10 1c-2,6 -5,10 -9,13 -4,3 -9,5 -15,5 -8,0 -14,-3 -19,-8 -4,-5 -7,-11 -7,-20 0,-9 3,-16 7,-21 5,-5 11,-8 18,-8 8,0 14,3 18,8 5,5 7,12 7,20 0,1 0,2 0,3l-40 0c0,6 2,10 5,13 3,3 7,5 11,5 3,0 6,-1 9,-3 2,-1 4,-4 5,-8zm-30 -15l30 0c0,-4 -1,-8 -3,-10 -3,-3 -7,-5 -11,-5 -5,0 -8,1 -11,4 -3,3 -4,7 -5,11zm80 53l0 -74 8 0 0 7c2,-3 4,-5 7,-6 2,-2 5,-3 9,-3 4,0 8,2 12,4 3,2 6,6 8,10 2,4 3,9 3,14 0,6 -1,11 -3,15 -2,4 -5,8 -9,10 -4,2 -8,4 -12,4 -3,0 -6,-1 -8,-2 -2,-2 -4,-3 -6,-5l0 26 -9 0zm8 -47c0,7 2,12 4,15 3,3 7,5 10,5 5,0 8,-2 11,-5 3,-3 4,-9 4,-16 0,-7 -1,-12 -4,-15 -3,-4 -6,-5 -10,-5 -4,0 -7,1 -10,5 -3,4 -5,9 -5,16zm49 26l0 -53 9 0 0 8c2,-4 4,-6 5,-8 2,-1 4,-2 6,-2 3,0 6,1 10,3l-4 9c-2,-1 -4,-2 -6,-2 -2,0 -4,0 -6,2 -1,1 -2,3 -3,5 -1,3 -1,6 -1,10l0 28 -10 0zm70 -6c-3,3 -7,5 -10,6 -3,1 -6,2 -10,2 -6,0 -10,-2 -13,-5 -4,-3 -5,-6 -5,-11 0,-2 0,-5 2,-7 1,-2 2,-4 4,-5 2,-2 5,-3 7,-3 2,-1 4,-1 8,-2 7,0 13,-2 16,-3 0,-1 0,-2 0,-2 0,-4 0,-6 -2,-8 -3,-2 -6,-3 -11,-3 -4,0 -7,1 -9,2 -2,2 -4,4 -5,8l-9 -1c1,-4 3,-7 4,-9 2,-3 5,-4 9,-6 3,-1 7,-2 12,-2 4,0 8,1 11,2 3,1 5,3 6,4 2,2 3,4 3,6 0,2 1,5 1,9l0 12c0,8 0,14 0,16 1,2 1,4 2,6l-9 0c-1,-2 -2,-4 -2,-6zm-1 -21c-3,2 -8,3 -15,4 -3,0 -6,1 -7,2 -2,0 -3,1 -4,3 -1,1 -1,2 -1,4 0,2 1,4 2,6 2,2 5,2 8,2 4,0 7,0 10,-2 3,-1 5,-4 6,-6 1,-2 1,-5 1,-9l0 -4zm-19 -33l7 -14 12 0 -11 14 -8 0zm62 52l2 8c-3,1 -5,1 -7,1 -3,0 -6,0 -8,-1 -2,-2 -3,-3 -4,-5 0,-1 -1,-5 -1,-10l0 -31 -7 0 0 -7 7 0 0 -14 9 -5 0 19 9 0 0 7 -9 0 0 31c0,3 0,4 1,5 0,1 1,2 1,2 1,0 2,1 3,1 1,0 3,-1 4,-1zm9 -55l0 -11 10 0 0 11 -10 0zm0 63l0 -53 10 0 0 53 -10 0zm59 -19l8 1c-1,6 -3,11 -7,14 -4,4 -9,6 -15,6 -7,0 -13,-3 -18,-8 -4,-4 -6,-11 -6,-20 0,-6 1,-11 3,-16 2,-4 4,-7 8,-9 4,-2 9,-4 13,-4 6,0 11,2 15,5 3,3 6,7 7,12l-9 2c-1,-4 -2,-7 -5,-8 -2,-2 -4,-3 -7,-3 -5,0 -9,2 -12,5 -2,3 -4,8 -4,15 0,8 1,13 4,16 3,3 7,5 11,5 4,0 7,-1 9,-3 2,-2 4,-6 5,-10zm51 13c-3,3 -6,5 -9,6 -4,1 -7,2 -10,2 -6,0 -11,-2 -14,-5 -3,-3 -5,-6 -5,-11 0,-2 1,-5 2,-7 1,-2 3,-4 5,-5 2,-2 4,-3 6,-3 2,-1 5,-1 8,-2 8,0 13,-2 17,-3 0,-1 0,-2 0,-2 0,-4 -1,-6 -3,-8 -2,-2 -6,-3 -10,-3 -5,0 -8,1 -10,2 -2,2 -3,4 -4,8l-9 -1c1,-4 2,-7 4,-9 2,-3 4,-4 8,-6 3,-1 7,-2 12,-2 5,0 8,1 11,2 3,1 5,3 7,4 1,2 2,4 2,6 1,2 1,5 1,9l0 12c0,8 0,14 0,16 1,2 2,4 3,6l-10 0c-1,-2 -1,-4 -2,-6zm0 -21c-4,2 -9,3 -15,4 -4,0 -7,1 -8,2 -2,0 -3,1 -4,3 -1,1 -1,2 -1,4 0,2 1,4 3,6 1,2 4,2 8,2 3,0 6,0 9,-2 3,-1 5,-4 6,-6 1,-2 2,-5 2,-9l0 -4zm19 11l9 -1c1,3 2,6 4,8 3,2 6,3 10,3 4,0 7,-1 10,-2 2,-2 3,-4 3,-6 0,-3 -1,-4 -3,-5 -1,-1 -5,-2 -9,-3 -7,-2 -12,-4 -14,-5 -3,-1 -5,-3 -6,-5 -2,-2 -2,-4 -2,-7 0,-2 0,-5 1,-7 2,-2 3,-3 5,-5 1,-1 3,-2 6,-2 2,-1 5,-2 8,-2 4,0 7,1 11,2 3,2 5,3 7,5 1,2 2,5 3,9l-9 1c0,-3 -2,-5 -4,-7 -2,-1 -4,-2 -8,-2 -4,0 -7,1 -9,2 -1,1 -2,3 -2,5 0,1 0,2 1,3 0,1 2,2 3,2 1,1 4,2 8,3 7,2 11,3 14,4 2,1 4,3 6,5 1,2 2,4 2,8 0,3 -1,5 -3,8 -2,3 -4,5 -7,6 -4,2 -8,3 -12,3 -7,0 -12,-2 -16,-5 -3,-3 -6,-7 -7,-13zm-797 132l0 -7c-3,6 -8,8 -15,8 -4,0 -8,-1 -11,-3 -4,-3 -7,-6 -9,-10 -2,-4 -3,-9 -3,-15 0,-5 1,-10 3,-14 2,-5 4,-8 8,-10 3,-3 7,-4 12,-4 3,0 6,1 9,2 2,2 4,3 6,6l0 -27 9 0 0 74 -9 0zm-28 -27c0,7 1,12 4,16 3,3 6,5 10,5 4,0 8,-2 10,-5 3,-3 5,-8 5,-15 0,-7 -2,-13 -5,-16 -3,-4 -6,-5 -10,-5 -4,0 -8,1 -10,5 -3,3 -4,8 -4,15zm88 10l9 1c-1,5 -4,10 -8,13 -4,3 -9,4 -15,4 -8,0 -14,-2 -19,-7 -4,-5 -7,-12 -7,-20 0,-9 3,-16 7,-21 5,-5 11,-8 18,-8 7,0 13,3 18,8 4,4 7,11 7,20 0,1 0,2 0,3l-40 0c0,5 2,10 5,13 3,3 6,5 11,5 3,0 6,-1 8,-3 3,-2 5,-4 6,-8zm-30 -15l30 0c0,-4 -2,-8 -3,-10 -3,-4 -7,-5 -12,-5 -4,0 -7,1 -10,4 -3,3 -5,6 -5,11zm76 16l9 -1c1,3 2,6 4,8 3,2 6,3 10,3 4,0 7,-1 9,-3 2,-1 3,-3 3,-6 0,-2 -1,-3 -2,-5 -2,0 -5,-1 -10,-3 -6,-1 -11,-3 -14,-4 -2,-1 -4,-3 -5,-5 -2,-2 -2,-5 -2,-7 0,-3 0,-5 1,-7 1,-2 3,-4 5,-5 1,-1 3,-2 5,-3 3,0 6,-1 8,-1 5,0 8,1 11,2 4,1 6,3 7,5 2,2 3,5 4,8l-9 2c-1,-3 -2,-5 -4,-7 -2,-2 -4,-2 -8,-2 -4,0 -7,0 -9,2 -2,1 -3,3 -3,5 0,1 1,2 2,3 0,1 1,2 3,2 1,1 4,1 8,3 6,1 11,3 13,4 3,1 5,2 7,5 1,2 2,4 2,7 0,3 -1,6 -3,9 -2,3 -4,5 -8,6 -3,2 -7,2 -11,2 -7,0 -12,-1 -16,-4 -4,-3 -6,-7 -7,-13zm92 -1l10 1c-2,5 -5,10 -9,13 -4,3 -9,4 -15,4 -8,0 -14,-2 -19,-7 -4,-5 -7,-12 -7,-20 0,-9 3,-16 7,-21 5,-5 11,-8 19,-8 7,0 13,3 17,8 5,4 7,11 7,20 0,1 0,2 0,3l-40 0c0,5 2,10 5,13 3,3 7,5 11,5 3,0 6,-1 9,-3 2,-2 4,-4 5,-8zm-30 -15l30 0c0,-4 -1,-8 -3,-10 -3,-4 -7,-5 -11,-5 -5,0 -8,1 -11,4 -3,3 -4,6 -5,11zm49 37l9 1c1,3 2,5 3,6 3,1 6,2 10,2 4,0 7,-1 9,-2 3,-2 4,-4 5,-7 0,-2 1,-6 1,-12 -4,5 -9,7 -15,7 -8,0 -13,-3 -17,-8 -4,-5 -6,-12 -6,-19 0,-5 0,-10 2,-14 2,-5 5,-8 8,-10 4,-3 8,-4 13,-4 6,0 11,3 16,8l0 -7 8 0 0 47c0,8 -1,14 -3,18 -1,3 -4,6 -8,8 -3,2 -8,3 -13,3 -7,0 -12,-2 -16,-4 -4,-3 -6,-8 -6,-13zm8 -33c0,7 1,12 4,16 3,3 6,5 11,5 4,0 7,-2 10,-5 3,-3 4,-9 4,-15 0,-7 -1,-12 -4,-15 -3,-4 -6,-5 -11,-5 -4,0 -7,1 -10,5 -3,3 -4,8 -4,14zm87 28l0 -8c-4,6 -10,9 -17,9 -3,0 -6,0 -9,-2 -3,-1 -5,-2 -6,-4 -1,-2 -2,-4 -3,-7 0,-2 0,-4 0,-8l0 -34 9 0 0 30c0,5 0,8 0,10 1,2 2,4 4,5 2,2 4,2 7,2 2,0 5,0 7,-2 3,-1 4,-3 5,-5 1,-3 2,-6 2,-11l0 -29 9 0 0 54 -8 0zm22 0l0 -54 8 0 0 9c3,-4 4,-7 6,-8 2,-1 4,-2 6,-2 3,0 6,1 9,3l-3 9c-2,-2 -4,-2 -6,-2 -2,0 -4,0 -6,1 -1,2 -2,3 -3,5 -1,4 -2,7 -2,11l0 28 -9 0zm70 -7c-3,3 -7,5 -10,6 -3,2 -6,2 -10,2 -6,0 -10,-1 -13,-4 -4,-3 -5,-7 -5,-11 0,-3 0,-5 2,-7 1,-2 2,-4 4,-5 2,-2 4,-3 7,-3 2,-1 4,-1 8,-2 7,-1 13,-2 16,-3 0,-1 0,-2 0,-2 0,-4 -1,-7 -2,-8 -3,-2 -6,-3 -11,-3 -4,0 -7,1 -9,2 -2,2 -4,4 -5,8l-9 -1c1,-4 2,-7 4,-9 2,-3 5,-5 8,-6 4,-1 8,-2 13,-2 4,0 8,1 11,2 3,1 5,2 6,4 2,2 2,4 3,6 0,2 0,4 0,9l0 12c0,8 1,13 1,16 0,2 1,4 2,6l-9 0c-1,-2 -2,-4 -2,-7zm-1 -20c-3,2 -8,3 -15,4 -3,0 -6,1 -8,1 -1,1 -2,2 -3,3 -1,2 -2,3 -2,5 0,2 1,4 3,6 2,1 5,2 8,2 4,0 7,-1 10,-2 2,-2 4,-4 6,-6 1,-2 1,-6 1,-9l0 -4zm23 27l0 -54 9 0 0 8c4,-6 9,-9 17,-9 3,0 6,1 9,2 2,1 4,3 6,5 1,1 2,4 3,6 0,2 0,5 0,9l0 33 -9 0 0 -33c0,-3 0,-6 -1,-8 -1,-2 -2,-3 -4,-4 -2,-1 -4,-2 -6,-2 -4,0 -7,1 -10,4 -3,2 -4,7 -4,14l0 29 -10 0z"/>
    <path class="fil3" d="M668 596l9 2c-1,6 -3,11 -7,14 -4,4 -9,5 -15,5 -8,0 -13,-2 -18,-7 -4,-5 -7,-12 -7,-21 0,-5 1,-10 3,-15 2,-4 5,-7 9,-10 4,-2 8,-3 13,-3 6,0 10,2 14,5 4,3 6,7 7,12l-8 2c-1,-4 -3,-7 -5,-9 -2,-1 -5,-2 -8,-2 -4,0 -8,1 -11,5 -3,3 -4,8 -4,15 0,7 1,13 4,16 3,3 6,5 11,5 3,0 6,-1 9,-3 2,-3 4,-6 4,-11zm-21 29l3 -9 6 0 -1 6c3,0 5,1 6,2 2,2 2,3 2,5 0,2 -1,5 -3,7 -3,2 -6,3 -11,3 -3,0 -6,0 -8,0l1 -7c2,0 4,0 5,0 3,0 5,0 6,-1 1,-1 2,-2 2,-3 0,0 0,-1 -1,-1 0,-1 -1,-1 -2,-1 -1,-1 -3,-1 -5,-1zm73 -16c-3,3 -7,5 -10,6 -3,2 -6,2 -10,2 -6,0 -10,-1 -13,-4 -4,-3 -5,-7 -5,-11 0,-3 0,-5 2,-7 1,-2 2,-4 4,-5 2,-2 4,-3 7,-3 2,-1 4,-1 8,-2 7,-1 13,-2 16,-3 0,-1 0,-2 0,-2 0,-4 -1,-7 -2,-8 -3,-2 -6,-3 -11,-3 -4,0 -7,1 -9,2 -2,2 -4,4 -5,8l-9 -1c1,-4 3,-7 4,-9 2,-3 5,-5 8,-6 4,-1 8,-2 13,-2 4,0 8,1 11,2 3,1 5,2 6,4 2,2 3,4 3,6 0,2 1,4 1,9l0 12c0,8 0,13 0,16 0,2 1,4 2,6l-9 0c-1,-2 -2,-4 -2,-7zm-1 -20c-3,2 -8,3 -15,4 -3,0 -6,1 -8,1 -1,1 -2,2 -3,3 -1,2 -1,3 -1,5 0,2 0,4 2,6 2,1 5,2 8,2 4,0 7,-1 10,-2 2,-2 5,-4 6,-6 1,-2 1,-6 1,-9l0 -4zm52 27l0 -74 9 0 0 74 -9 0zm58 -7c-3,3 -6,5 -9,6 -3,2 -7,2 -10,2 -6,0 -11,-1 -14,-4 -3,-3 -5,-7 -5,-11 0,-3 1,-5 2,-7 1,-2 3,-4 5,-5 2,-2 4,-3 6,-3 2,-1 5,-1 8,-2 8,-1 13,-2 17,-3 0,-1 0,-2 0,-2 0,-4 -1,-7 -3,-8 -2,-2 -6,-3 -10,-3 -5,0 -8,1 -10,2 -2,2 -3,4 -4,8l-9 -1c1,-4 2,-7 4,-9 2,-3 4,-5 8,-6 3,-1 7,-2 12,-2 5,0 8,1 11,2 3,1 5,2 7,4 1,2 2,4 3,6 0,2 0,4 0,9l0 12c0,8 0,13 1,16 0,2 1,4 2,6l-10 0c-1,-2 -1,-4 -2,-7zm0 -20c-4,2 -9,3 -15,4 -4,0 -7,1 -8,1 -2,1 -3,2 -4,3 -1,2 -1,3 -1,5 0,2 1,4 3,6 2,1 4,2 8,2 3,0 6,-1 9,-2 3,-2 5,-4 6,-6 1,-2 2,-6 2,-9l0 -4zm31 27l-8 0 0 -74 9 0 0 26c4,-4 9,-7 15,-7 3,0 6,1 9,2 3,2 5,3 7,6 2,2 4,5 5,9 1,3 1,7 1,10 0,10 -2,17 -6,22 -5,5 -10,7 -17,7 -6,0 -11,-2 -15,-8l0 7zm0 -27c0,6 1,11 3,14 3,4 7,7 12,7 3,0 7,-2 10,-5 3,-4 4,-9 4,-16 0,-7 -1,-12 -4,-15 -3,-4 -6,-5 -10,-5 -4,0 -8,1 -10,5 -3,3 -5,8 -5,15zm46 0c0,-10 3,-17 8,-22 5,-4 11,-6 17,-6 8,0 14,3 19,7 4,5 7,12 7,20 0,7 -2,13 -4,17 -2,4 -5,7 -9,9 -4,2 -8,3 -13,3 -7,0 -13,-2 -18,-7 -5,-5 -7,-12 -7,-21zm10 0c0,7 1,12 4,16 3,3 7,5 11,5 5,0 9,-2 12,-5 3,-4 4,-9 4,-16 0,-7 -1,-12 -4,-15 -3,-4 -7,-5 -12,-5 -4,0 -8,1 -11,5 -3,3 -4,8 -4,15zm51 27l0 -54 8 0 0 9c2,-4 4,-7 6,-8 2,-1 4,-2 6,-2 3,0 6,1 9,3l-3 9c-2,-2 -4,-2 -7,-2 -2,0 -3,0 -5,1 -1,2 -3,3 -3,5 -1,4 -2,7 -2,11l0 28 -9 0zm70 -7c-4,3 -7,5 -10,6 -3,2 -6,2 -10,2 -6,0 -10,-1 -14,-4 -3,-3 -4,-7 -4,-11 0,-3 0,-5 1,-7 2,-2 3,-4 5,-5 2,-2 4,-3 7,-3 1,-1 4,-1 8,-2 7,-1 13,-2 16,-3 0,-1 0,-2 0,-2 0,-4 -1,-7 -2,-8 -3,-2 -6,-3 -11,-3 -4,0 -7,1 -9,2 -2,2 -4,4 -5,8l-9 -1c1,-4 2,-7 4,-9 2,-3 5,-5 8,-6 4,-1 8,-2 12,-2 5,0 9,1 12,2 3,1 5,2 6,4 1,2 2,4 3,6 0,2 0,4 0,9l0 12c0,8 1,13 1,16 0,2 1,4 2,6l-9 0c-1,-2 -2,-4 -2,-7zm-1 -20c-3,2 -8,3 -15,4 -4,0 -6,1 -8,1 -1,1 -3,2 -3,3 -1,2 -2,3 -2,5 0,2 1,4 3,6 2,1 5,2 8,2 4,0 7,-1 10,-2 2,-2 4,-4 6,-6 1,-2 1,-6 1,-9l0 -4zm23 27l0 -74 9 0 0 74 -9 0zm-908 98l10 2c-2,5 -4,9 -8,12 -4,4 -10,5 -16,5 -8,0 -14,-2 -18,-7 -5,-5 -7,-12 -7,-21 0,-9 2,-16 7,-21 4,-5 10,-7 18,-7 7,0 13,2 17,7 5,5 7,12 7,21 0,0 0,1 0,2l-40 0c0,6 2,11 5,14 3,3 7,5 11,5 3,0 6,-1 9,-3 2,-2 4,-5 5,-9zm-30 -14l30 0c0,-5 -1,-8 -3,-10 -3,-4 -7,-6 -11,-6 -4,0 -8,2 -11,5 -3,2 -4,6 -5,11zm51 32l0 -54 8 0 0 8c2,-3 4,-5 7,-7 3,-1 6,-2 10,-2 4,0 7,1 9,2 3,2 5,4 6,7 4,-6 10,-9 17,-9 5,0 9,1 12,4 3,3 4,8 4,14l0 37 -9 0 0 -34c0,-4 0,-6 -1,-8 0,-1 -1,-3 -3,-4 -2,-1 -3,-1 -6,-1 -3,0 -6,1 -9,4 -2,2 -4,6 -4,12l0 31 -9 0 0 -35c0,-4 -1,-7 -2,-9 -2,-2 -4,-3 -7,-3 -3,0 -5,1 -7,2 -3,1 -4,3 -5,6 -1,2 -2,6 -2,11l0 28 -9 0zm152 -18l9 2c-1,5 -4,9 -8,12 -4,4 -9,5 -15,5 -8,0 -14,-2 -19,-7 -4,-5 -7,-12 -7,-21 0,-9 3,-16 7,-21 5,-5 11,-7 18,-7 8,0 13,2 18,7 4,5 7,12 7,21 0,0 0,1 0,2l-40 0c0,6 2,11 5,14 3,3 6,5 11,5 3,0 6,-1 8,-3 3,-2 5,-5 6,-9zm-30 -14l30 0c0,-5 -1,-8 -3,-10 -3,-4 -7,-6 -12,-6 -4,0 -7,2 -10,5 -3,2 -5,6 -5,11zm51 32l0 -54 8 0 0 8c2,-3 4,-5 7,-7 3,-1 6,-2 9,-2 4,0 8,1 10,2 3,2 5,4 6,7 4,-6 9,-9 16,-9 6,0 10,1 13,4 2,3 4,8 4,14l0 37 -9 0 0 -34c0,-4 -1,-6 -1,-8 -1,-1 -2,-3 -3,-4 -2,-1 -4,-1 -6,-1 -4,0 -7,1 -9,4 -3,2 -4,6 -4,12l0 31 -9 0 0 -35c0,-4 -1,-7 -2,-9 -2,-2 -4,-3 -8,-3 -2,0 -5,1 -7,2 -2,1 -3,3 -4,6 -1,2 -2,6 -2,11l0 28 -9 0zm86 21l0 -75 9 0 0 7c2,-3 4,-5 6,-6 3,-1 6,-2 9,-2 5,0 9,1 12,4 4,2 6,5 8,9 2,5 3,9 3,15 0,5 -1,10 -3,14 -2,5 -5,8 -9,11 -3,2 -7,3 -11,3 -4,0 -6,-1 -9,-2 -2,-1 -4,-3 -6,-5l0 27 -9 0zm9 -48c0,7 1,12 4,16 3,3 6,5 10,5 4,0 7,-2 10,-6 3,-3 5,-8 5,-15 0,-7 -2,-12 -5,-16 -2,-3 -6,-5 -10,-5 -4,0 -7,2 -10,6 -3,3 -4,8 -4,15zm49 27l0 -54 8 0 0 8c2,-3 4,-6 6,-7 2,-1 4,-2 6,-2 3,0 6,1 9,3l-3 8c-2,-1 -5,-2 -7,-2 -2,0 -4,1 -5,2 -2,1 -3,3 -4,5 -1,3 -1,7 -1,11l0 28 -9 0zm71 -18l10 2c-2,5 -5,9 -9,12 -4,4 -9,5 -15,5 -8,0 -14,-2 -19,-7 -4,-5 -7,-12 -7,-21 0,-9 3,-16 7,-21 5,-5 11,-7 18,-7 8,0 13,2 18,7 5,5 7,12 7,21 0,0 0,1 0,2l-40 0c0,6 2,11 5,14 3,3 6,5 11,5 3,0 6,-1 8,-3 3,-2 5,-5 6,-9zm-30 -14l30 0c0,-5 -1,-8 -3,-10 -3,-4 -7,-6 -11,-6 -5,0 -8,2 -11,5 -3,2 -4,6 -5,11zm88 14l9 2c-1,5 -4,9 -8,12 -4,4 -9,5 -15,5 -8,0 -14,-2 -19,-7 -5,-5 -7,-12 -7,-21 0,-9 2,-16 7,-21 5,-5 11,-7 18,-7 7,0 13,2 18,7 4,5 6,12 6,21 0,0 0,1 0,2l-40 0c1,6 2,11 5,14 3,3 7,5 12,5 3,0 6,-1 8,-3 2,-2 4,-5 6,-9zm-30 -14l30 0c-1,-5 -2,-8 -4,-10 -2,-4 -6,-6 -11,-6 -4,0 -8,2 -10,5 -3,2 -5,6 -5,11zm51 32l0 -54 8 0 0 8c4,-6 9,-9 17,-9 3,0 6,1 9,2 3,1 5,2 6,4 1,2 2,4 3,7 0,2 0,5 0,9l0 33 -9 0 0 -33c0,-4 0,-6 -1,-8 -1,-2 -2,-3 -4,-5 -1,-1 -4,-1 -6,-1 -4,0 -7,1 -10,4 -3,2 -4,7 -4,14l0 29 -9 0zm92 0l0 -7c-3,5 -8,8 -15,8 -4,0 -8,-1 -12,-4 -3,-2 -6,-5 -8,-9 -2,-5 -3,-9 -3,-15 0,-5 1,-10 3,-15 1,-4 4,-7 8,-10 3,-2 7,-3 12,-3 3,0 6,1 8,2 3,1 5,3 6,5l0 -26 10 0 0 74 -9 0zm-29 -27c0,7 2,12 5,15 2,4 6,6 10,6 4,0 7,-2 10,-5 3,-4 4,-9 4,-15 0,-7 -1,-13 -4,-16 -3,-4 -6,-5 -11,-5 -4,0 -7,1 -10,4 -2,4 -4,9 -4,16zm52 -37l0 -10 9 0 0 10 -9 0zm0 64l0 -54 9 0 0 54 -9 0zm23 0l0 -54 8 0 0 8c2,-3 4,-5 7,-7 3,-1 6,-2 9,-2 4,0 8,1 10,2 3,2 5,4 6,7 4,-6 9,-9 16,-9 6,0 10,1 13,4 2,3 4,8 4,14l0 37 -9 0 0 -34c0,-4 -1,-6 -1,-8 -1,-1 -2,-3 -3,-4 -2,-1 -4,-1 -6,-1 -4,0 -7,1 -9,4 -3,2 -4,6 -4,12l0 31 -9 0 0 -35c0,-4 -1,-7 -2,-9 -2,-2 -4,-3 -8,-3 -2,0 -5,1 -7,2 -2,1 -4,3 -4,6 -1,2 -2,6 -2,11l0 28 -9 0zm123 -18l9 2c-1,5 -4,9 -8,12 -4,4 -9,5 -15,5 -8,0 -14,-2 -19,-7 -4,-5 -7,-12 -7,-21 0,-9 3,-16 7,-21 5,-5 11,-7 18,-7 7,0 13,2 18,7 4,5 7,12 7,21 0,0 0,1 0,2l-40 0c0,6 2,11 5,14 3,3 6,5 11,5 3,0 6,-1 8,-3 3,-2 5,-5 6,-9zm-30 -14l30 0c0,-5 -2,-8 -3,-10 -3,-4 -7,-6 -12,-6 -4,0 -7,2 -10,5 -3,2 -5,6 -5,11zm51 32l0 -54 8 0 0 8c4,-6 10,-9 17,-9 3,0 6,1 9,2 3,1 5,2 6,4 2,2 2,4 3,7 0,2 0,5 0,9l0 33 -9 0 0 -33c0,-4 0,-6 -1,-8 0,-2 -2,-3 -3,-5 -2,-1 -4,-1 -7,-1 -4,0 -7,1 -10,4 -3,2 -4,7 -4,14l0 29 -9 0zm77 -8l2 8c-3,0 -5,1 -7,1 -4,0 -6,-1 -8,-2 -2,-1 -3,-2 -4,-4 -1,-2 -1,-5 -1,-11l0 -31 -7 0 0 -7 7 0 0 -13 9 -6 0 19 9 0 0 7 -9 0 0 32c0,2 0,4 1,5 0,0 0,1 1,1 1,1 2,1 3,1 1,0 3,0 4,0zm6 -19c0,-10 3,-17 8,-22 5,-4 10,-6 17,-6 7,0 14,2 18,7 5,5 7,12 7,20 0,7 -1,13 -3,17 -2,3 -5,7 -9,9 -4,2 -8,3 -13,3 -7,0 -14,-2 -18,-7 -5,-5 -7,-12 -7,-21zm9 0c0,7 2,12 5,15 3,4 7,6 11,6 5,0 8,-2 11,-6 3,-3 5,-8 5,-15 0,-7 -2,-12 -5,-15 -3,-4 -6,-5 -11,-5 -4,0 -8,1 -11,5 -3,3 -5,8 -5,15zm48 11l9 -2c1,4 2,7 5,9 2,2 5,3 9,3 4,0 8,-1 10,-3 2,-2 3,-4 3,-6 0,-2 -1,-4 -3,-5 -1,-1 -4,-2 -9,-3 -7,-2 -12,-3 -14,-4 -3,-2 -5,-3 -6,-5 -1,-3 -2,-5 -2,-8 0,-2 0,-4 1,-6 2,-2 3,-4 5,-5 1,-1 3,-2 6,-3 2,-1 5,-1 8,-1 4,0 8,1 11,2 3,1 5,3 7,5 1,2 2,5 3,8l-9 1c0,-2 -2,-5 -4,-6 -1,-2 -4,-3 -8,-3 -4,0 -7,1 -9,3 -1,1 -2,3 -2,4 0,2 0,3 1,4 0,1 2,1 3,2 1,0 4,1 8,2 7,2 11,3 14,5 2,1 4,2 6,4 1,2 2,5 2,8 0,3 -1,6 -3,9 -1,2 -4,4 -7,6 -4,1 -8,2 -12,2 -7,0 -12,-1 -16,-4 -3,-3 -6,-7 -7,-13zm-911 112l9 1c-1,6 -4,11 -8,15 -4,3 -9,5 -15,5 -7,0 -13,-3 -17,-7 -5,-5 -7,-12 -7,-21 0,-6 1,-11 3,-15 2,-5 5,-8 9,-10 4,-2 8,-3 12,-3 6,0 11,1 15,4 3,3 6,7 7,13l-9 1c-1,-4 -2,-6 -4,-8 -3,-2 -5,-3 -8,-3 -5,0 -9,2 -11,5 -3,3 -5,9 -5,16 0,7 2,12 4,15 3,4 7,5 11,5 4,0 7,-1 9,-3 3,-2 4,-6 5,-10zm13 -7c0,-10 3,-18 8,-22 5,-4 11,-6 17,-6 8,0 14,2 18,7 5,5 7,11 7,20 0,7 -1,12 -3,16 -2,4 -5,7 -9,9 -4,3 -8,4 -13,4 -7,0 -13,-3 -18,-7 -5,-5 -7,-12 -7,-21zm9 0c0,7 2,12 5,15 3,4 7,5 11,5 5,0 9,-1 12,-5 3,-3 4,-8 4,-16 0,-6 -1,-11 -4,-15 -4,-3 -7,-5 -12,-5 -4,0 -8,2 -11,5 -3,4 -5,9 -5,16zm49 0c0,-10 2,-18 8,-22 5,-4 10,-6 17,-6 7,0 13,2 18,7 5,5 7,11 7,20 0,7 -1,12 -3,16 -2,4 -5,7 -9,9 -4,3 -8,4 -13,4 -8,0 -14,-3 -18,-7 -5,-5 -7,-12 -7,-21zm9 0c0,7 1,12 4,15 3,4 7,5 12,5 4,0 8,-1 11,-5 3,-3 5,-8 5,-16 0,-6 -2,-11 -5,-15 -3,-3 -7,-5 -11,-5 -5,0 -9,2 -12,5 -3,4 -4,9 -4,16zm52 47l0 -74 8 0 0 7c2,-3 4,-5 7,-6 2,-2 5,-2 9,-2 4,0 8,1 12,3 3,3 6,6 8,10 1,5 2,9 2,14 0,6 -1,11 -3,15 -2,5 -4,8 -8,10 -4,3 -8,4 -12,4 -3,0 -6,-1 -8,-2 -3,-1 -5,-3 -6,-5l0 26 -9 0zm8 -47c0,7 1,12 4,15 3,4 6,5 10,5 4,0 8,-1 11,-5 3,-3 4,-9 4,-16 0,-7 -1,-12 -4,-15 -3,-3 -6,-5 -10,-5 -4,0 -8,2 -11,5 -3,4 -4,9 -4,16z"/>
    <path class="fil3" d="M376 830l9 1c-1,6 -4,10 -8,13 -4,3 -9,5 -15,5 -8,0 -14,-3 -19,-7 -4,-5 -7,-12 -7,-21 0,-9 3,-16 7,-21 5,-5 11,-7 18,-7 8,0 13,2 18,7 4,5 7,12 7,21 0,0 0,1 0,2l-40 0c0,6 2,10 5,14 3,3 6,4 11,4 3,0 6,-1 8,-2 3,-2 5,-5 6,-9zm-30 -14l30 0c0,-5 -1,-8 -3,-11 -3,-3 -7,-5 -12,-5 -4,0 -7,2 -10,4 -3,3 -5,7 -5,12zm51 32l0 -54 8 0 0 8c2,-4 4,-6 6,-7 2,-2 4,-2 6,-2 3,0 6,1 9,3l-3 8c-2,-1 -5,-2 -7,-2 -2,0 -4,1 -5,2 -2,1 -3,3 -4,5 -1,3 -1,7 -1,11l0 28 -9 0zm70 -7c-4,3 -7,5 -10,6 -3,1 -7,2 -10,2 -6,0 -11,-2 -14,-5 -3,-2 -5,-6 -5,-11 0,-2 1,-5 2,-7 1,-2 3,-4 5,-5 2,-1 4,-2 6,-3 2,0 5,-1 9,-1 7,-1 12,-2 16,-3 0,-2 0,-2 0,-3 0,-4 -1,-6 -3,-8 -2,-2 -6,-3 -10,-3 -4,0 -8,1 -10,3 -2,1 -3,4 -4,8l-9 -2c1,-4 2,-7 4,-9 2,-2 4,-4 8,-5 3,-2 8,-2 12,-2 5,0 9,0 11,1 3,1 5,3 7,4 1,2 2,4 3,7 0,1 0,4 0,8l0 12c0,9 0,14 1,16 0,2 1,5 2,7l-10 0c-1,-2 -1,-5 -1,-7zm-1 -20c-3,1 -8,2 -15,3 -4,1 -7,1 -8,2 -2,1 -3,2 -4,3 0,1 -1,3 -1,4 0,3 1,5 3,6 2,2 4,3 8,3 3,0 7,-1 9,-3 3,-1 5,-3 6,-6 1,-2 2,-5 2,-9l0 -3zm43 19l1 8c-2,0 -5,0 -7,0 -3,0 -6,0 -7,-1 -2,-1 -4,-3 -4,-4 -1,-2 -1,-6 -1,-11l0 -31 -7 0 0 -7 7 0 0 -13 9 -6 0 19 9 0 0 7 -9 0 0 31c0,3 0,5 0,5 1,1 1,2 2,2 1,1 2,1 3,1 1,0 2,0 4,0zm9 -56l0 -11 9 0 0 11 -9 0zm0 64l0 -54 9 0 0 54 -9 0zm38 0l-21 -54 10 0 12 32c1,4 2,7 3,11 1,-3 2,-6 3,-10l12 -33 10 0 -21 54 -8 0zm33 -27c0,-10 3,-18 9,-22 4,-4 10,-6 16,-6 8,0 14,2 19,7 4,5 7,11 7,20 0,7 -1,12 -3,16 -3,4 -6,7 -10,9 -4,3 -8,4 -13,4 -7,0 -13,-3 -18,-7 -4,-5 -7,-12 -7,-21zm10 0c0,7 1,12 4,15 3,4 7,5 11,5 5,0 9,-1 12,-5 3,-3 4,-8 4,-16 0,-6 -1,-11 -4,-15 -3,-3 -7,-5 -12,-5 -4,0 -8,2 -11,5 -3,4 -4,9 -4,16zm48 11l9 -2c0,4 2,6 4,8 2,2 5,3 10,3 4,0 7,-1 9,-2 2,-2 3,-4 3,-6 0,-2 -1,-4 -3,-5 -1,-1 -4,-2 -9,-3 -7,-2 -11,-3 -14,-5 -2,-1 -4,-2 -6,-5 -1,-2 -2,-4 -2,-7 0,-2 1,-4 2,-6 1,-3 2,-4 4,-6 2,-1 4,-1 6,-2 3,-1 5,-1 8,-1 4,0 8,0 11,2 3,1 6,2 7,4 2,3 3,5 3,9l-9 1c0,-3 -1,-5 -3,-6 -2,-2 -5,-3 -8,-3 -5,0 -8,1 -9,2 -2,2 -3,3 -3,5 0,1 0,2 1,3 1,1 2,2 4,3 1,0 3,1 8,2 6,2 11,3 13,4 3,1 5,3 6,5 2,2 2,5 2,8 0,3 -1,6 -2,8 -2,3 -5,5 -8,7 -3,1 -7,2 -11,2 -7,0 -13,-2 -16,-5 -4,-2 -6,-7 -7,-12z"/>
   </g>
   <path class="fil4" d="M107 1250l0 -56 37 0 0 7 -30 0 0 17 26 0 0 7 -26 0 0 25 -7 0zm72 -5c-2,2 -5,4 -7,5 -2,1 -5,1 -8,1 -4,0 -7,-1 -10,-3 -2,-2 -3,-5 -3,-9 0,-2 0,-3 1,-5 1,-2 2,-3 4,-4 1,-1 3,-2 4,-2 2,0 4,-1 7,-1 5,-1 9,-2 12,-2 0,-1 0,-2 0,-2 0,-3 -1,-5 -2,-6 -2,-2 -4,-2 -8,-2 -3,0 -6,0 -7,1 -2,1 -3,3 -4,6l-6 -1c0,-3 1,-5 3,-7 1,-1 3,-3 6,-4 3,-1 6,-1 9,-1 4,0 6,0 9,1 2,1 3,2 4,3 1,1 2,3 2,5 1,1 1,3 1,6l0 9c0,7 0,11 0,12 0,2 1,4 2,5l-7 0c-1,-1 -1,-3 -2,-5zm0 -15c-3,1 -6,2 -11,2 -3,1 -5,1 -6,2 -2,0 -2,1 -3,2 -1,1 -1,2 -1,3 0,2 1,4 2,5 1,1 3,2 6,2 3,0 5,-1 7,-2 2,-1 4,-3 5,-5 0,-1 1,-4 1,-7l0 -2zm24 20l-7 0 0 -56 7 0 0 20c3,-3 7,-5 11,-5 3,0 5,0 7,1 2,1 4,3 6,5 1,1 2,4 3,6 1,3 1,5 1,8 0,7 -1,13 -5,16 -3,4 -7,6 -12,6 -5,0 -9,-2 -11,-6l0 5zm0 -20c0,4 0,8 1,10 3,4 6,5 9,5 3,0 6,-1 8,-4 2,-2 3,-6 3,-11 0,-5 -1,-9 -3,-12 -2,-2 -5,-4 -7,-4 -3,0 -6,2 -8,4 -2,3 -3,7 -3,12zm37 -28l0 -8 6 0 0 8 -6 0zm0 48l0 -40 6 0 0 40 -6 0zm43 -5c-2,2 -5,4 -7,5 -2,1 -5,1 -8,1 -4,0 -7,-1 -10,-3 -2,-2 -3,-5 -3,-9 0,-2 0,-3 1,-5 1,-2 2,-3 3,-4 2,-1 4,-2 5,-2 2,0 4,-1 6,-1 6,-1 10,-2 13,-2 0,-1 0,-2 0,-2 0,-3 -1,-5 -2,-6 -2,-2 -5,-2 -8,-2 -3,0 -6,0 -7,1 -2,1 -3,3 -4,6l-6 -1c0,-3 1,-5 3,-7 1,-1 3,-3 6,-4 2,-1 6,-1 9,-1 3,0 6,0 8,1 3,1 4,2 5,3 1,1 2,3 2,5 1,1 1,3 1,6l0 9c0,7 0,11 0,12 0,2 1,4 2,5l-7 0c-1,-1 -1,-3 -2,-5zm0 -15c-3,1 -6,2 -11,2 -3,1 -5,1 -6,2 -2,0 -3,1 -3,2 -1,1 -1,2 -1,3 0,2 1,4 2,5 1,1 3,2 6,2 3,0 5,-1 7,-2 2,-1 4,-3 5,-5 0,-1 1,-4 1,-7l0 -2zm17 20l0 -40 6 0 0 5c3,-4 8,-6 13,-6 3,0 5,0 7,1 2,1 3,2 5,4 1,1 1,3 2,5 0,1 0,3 0,6l0 25 -7 0 0 -24c0,-3 0,-5 -1,-7 0,-1 -1,-2 -2,-3 -2,-1 -3,-1 -5,-1 -3,0 -6,1 -8,3 -2,1 -3,5 -3,10l0 22 -7 0zm70 -5c-3,2 -5,4 -7,5 -3,1 -5,1 -8,1 -4,0 -8,-1 -10,-3 -3,-2 -4,-5 -4,-9 0,-2 1,-3 2,-5 0,-2 2,-3 3,-4 2,-1 3,-2 5,-2 1,0 3,-1 6,-1 6,-1 10,-2 12,-2 0,-1 0,-2 0,-2 0,-3 0,-5 -2,-6 -1,-2 -4,-2 -7,-2 -4,0 -6,0 -8,1 -1,1 -2,3 -3,6l-7 -1c1,-3 2,-5 3,-7 2,-1 4,-3 6,-4 3,-1 6,-1 10,-1 3,0 6,0 8,1 2,1 4,2 5,3 1,1 2,3 2,5 0,1 0,3 0,6l0 9c0,7 0,11 1,12 0,2 1,4 1,5l-7 0c0,-1 -1,-3 -1,-5zm-1 -15c-2,1 -6,2 -11,2 -3,1 -5,1 -6,2 -1,0 -2,1 -3,2 0,1 0,2 0,3 0,2 0,4 2,5 1,1 3,2 6,2 2,0 5,-1 7,-2 2,-1 3,-3 4,-5 1,-1 1,-4 1,-7l0 -2zm38 2l7 0c0,2 1,5 2,7 1,1 3,3 6,4 2,1 5,2 8,2 3,0 6,-1 8,-2 2,-1 4,-2 5,-3 1,-2 1,-3 1,-5 0,-2 0,-3 -1,-5 -1,-1 -3,-2 -5,-3 -2,0 -5,-1 -10,-3 -5,-1 -9,-2 -11,-3 -3,-1 -5,-3 -6,-5 -1,-2 -2,-5 -2,-7 0,-3 1,-6 2,-8 2,-3 4,-4 7,-6 3,-1 7,-2 11,-2 4,0 7,1 11,2 3,2 5,4 7,6 2,3 2,6 3,9l-7 1c-1,-4 -2,-7 -4,-8 -3,-2 -6,-3 -10,-3 -5,0 -8,1 -10,2 -2,2 -3,4 -3,6 0,2 1,4 2,5 2,2 5,3 11,4 6,2 11,3 13,4 3,1 5,3 7,5 1,3 2,5 2,8 0,3 -1,6 -2,9 -2,2 -4,4 -8,6 -3,1 -6,2 -10,2 -5,0 -10,-1 -13,-2 -3,-2 -6,-4 -8,-7 -2,-3 -3,-6 -3,-10zm51 -2c0,-8 2,-13 6,-17 4,-3 8,-4 13,-4 5,0 10,2 13,5 4,4 6,9 6,15 0,6 -1,10 -3,13 -1,3 -3,5 -6,7 -3,1 -7,2 -10,2 -6,0 -10,-2 -14,-5 -3,-4 -5,-9 -5,-16zm7 0c0,5 1,9 3,12 3,2 5,3 9,3 3,0 6,-1 8,-3 3,-3 4,-7 4,-12 0,-5 -1,-9 -4,-12 -2,-2 -5,-3 -8,-3 -4,0 -6,1 -9,3 -2,3 -3,7 -3,12zm65 20l0 -6c-3,5 -7,7 -13,7 -2,0 -4,0 -6,-1 -2,-1 -4,-2 -5,-4 -1,-1 -2,-3 -2,-5 0,-1 0,-3 0,-6l0 -25 6 0 0 22c0,4 1,6 1,7 0,2 1,4 3,5 1,1 3,1 5,1 2,0 4,0 6,-1 1,-2 3,-3 3,-5 1,-2 1,-4 1,-8l0 -21 7 0 0 40 -6 0zm13 0l0 -5 26 -30c-3,0 -5,0 -8,0l-16 0 0 -5 33 0 0 4 -22 26 -4 5c3,-1 6,-1 8,-1l19 0 0 6 -36 0zm69 -5c-2,2 -5,4 -7,5 -2,1 -5,1 -7,1 -5,0 -8,-1 -11,-3 -2,-2 -3,-5 -3,-9 0,-2 0,-3 1,-5 1,-2 2,-3 4,-4 1,-1 3,-2 5,-2 1,0 3,-1 6,-1 5,-1 9,-2 12,-2 0,-1 0,-2 0,-2 0,-3 -1,-5 -2,-6 -2,-2 -4,-2 -8,-2 -3,0 -6,0 -7,1 -2,1 -3,3 -3,6l-7 -1c0,-3 1,-5 3,-7 1,-1 3,-3 6,-4 3,-1 6,-1 9,-1 4,0 6,0 9,1 2,1 3,2 4,3 1,1 2,3 2,5 1,1 1,3 1,6l0 9c0,7 0,11 0,12 1,2 1,4 2,5l-7 0c-1,-1 -1,-3 -2,-5zm0 -15c-3,1 -6,2 -11,2 -3,1 -5,1 -6,2 -2,0 -2,1 -3,2 -1,1 -1,2 -1,3 0,2 1,4 2,5 1,1 3,2 6,2 3,0 5,-1 7,-2 2,-1 4,-3 5,-5 0,-1 1,-4 1,-7l0 -2zm40 20l0 -56 11 0 13 40c1,4 2,6 3,8 0,-2 1,-5 3,-9l13 -39 10 0 0 56 -7 0 0 -47 -16 47 -7 0 -16 -47 0 47 -7 0zm91 -13l8 1c-2,4 -4,7 -7,10 -3,2 -7,3 -11,3 -6,0 -11,-2 -14,-5 -4,-4 -5,-9 -5,-16 0,-7 1,-12 5,-16 3,-3 8,-5 13,-5 6,0 10,2 14,5 3,4 5,9 5,16 0,0 0,1 0,2l-30 0c0,4 1,8 3,10 3,2 5,3 9,3 2,0 4,0 6,-2 2,-1 3,-3 4,-6zm-22 -11l23 0c-1,-3 -2,-6 -3,-8 -2,-2 -5,-4 -9,-4 -3,0 -5,2 -7,4 -3,2 -4,5 -4,8zm38 24l0 -40 6 0 0 5c3,-4 8,-6 13,-6 3,0 5,0 7,1 2,1 3,2 4,4 1,1 2,3 3,5 0,1 0,3 0,6l0 25 -7 0 0 -24c0,-3 0,-5 -1,-7 0,-1 -1,-2 -3,-3 -1,-1 -2,-1 -4,-1 -3,0 -6,1 -8,3 -2,1 -3,5 -3,10l0 22 -7 0zm70 0l0 -5c-3,4 -7,6 -12,6 -3,0 -6,-1 -9,-3 -2,-1 -4,-4 -6,-7 -1,-3 -2,-7 -2,-11 0,-4 1,-8 2,-11 1,-3 3,-6 6,-8 3,-1 6,-2 9,-2 2,0 5,0 6,1 2,1 4,3 5,4l0 -20 7 0 0 56 -6 0zm-22 -20c0,5 1,9 3,12 2,2 5,3 8,3 3,0 5,-1 8,-3 2,-3 3,-6 3,-11 0,-6 -1,-10 -3,-13 -3,-2 -5,-3 -8,-3 -3,0 -6,1 -8,3 -2,3 -3,7 -3,12zm66 7l7 1c-1,4 -3,7 -6,10 -3,2 -7,3 -11,3 -6,0 -11,-2 -14,-5 -4,-4 -5,-9 -5,-16 0,-7 1,-12 5,-16 3,-3 8,-5 13,-5 6,0 10,2 14,5 3,4 5,9 5,16 0,0 0,1 0,2l-30 0c0,4 1,8 3,10 3,2 5,3 9,3 2,0 4,0 6,-2 2,-1 3,-3 4,-6zm-22 -11l22 0c0,-3 -1,-6 -2,-8 -2,-2 -5,-4 -9,-4 -3,0 -5,2 -8,4 -2,2 -3,5 -3,8zm35 12l7 -1c1,3 2,5 3,6 2,2 5,2 8,2 3,0 5,0 7,-2 1,-1 2,-2 2,-4 0,-2 -1,-3 -2,-4 -1,0 -3,-1 -7,-2 -5,-1 -9,-2 -11,-3 -1,-1 -3,-2 -4,-4 -1,-2 -1,-4 -1,-6 0,-1 0,-3 1,-5 1,-1 2,-2 3,-3 1,-1 3,-2 5,-2 1,-1 3,-1 5,-1 4,0 6,0 9,1 2,1 4,2 5,4 1,2 2,4 2,6l-6 1c-1,-2 -1,-4 -3,-5 -1,-1 -3,-2 -6,-2 -3,0 -5,1 -7,2 -1,1 -2,2 -2,4 0,1 0,1 1,2 1,1 1,1 3,2 0,0 2,1 6,2 5,1 8,2 10,3 2,1 3,2 4,3 1,2 2,4 2,6 0,3 -1,5 -2,7 -1,2 -3,3 -6,4 -2,1 -5,2 -8,2 -6,0 -10,-1 -12,-3 -3,-2 -5,-6 -6,-10zm-780 99l0 -56 11 0 13 40c2,4 2,6 3,8 1,-2 2,-5 3,-9l13 -39 10 0 0 56 -7 0 0 -47 -16 47 -7 0 -16 -47 0 47 -7 0zm64 -48l0 -8 7 0 0 8 -7 0zm0 48l0 -40 7 0 0 40 -7 0zm17 0l0 -40 7 0 0 6c1,-3 3,-5 4,-6 1,-1 3,-1 4,-1 3,0 5,1 7,2l-2 6c-2,-1 -3,-1 -5,-1 -1,0 -3,0 -4,1 -1,1 -2,2 -3,4 0,2 -1,5 -1,8l0 21 -7 0zm53 -5c-3,2 -5,4 -7,5 -3,1 -5,1 -8,1 -4,0 -8,-1 -10,-3 -3,-2 -4,-5 -4,-9 0,-1 1,-3 2,-5 0,-2 2,-3 3,-4 2,-1 3,-2 5,-2 1,0 3,-1 6,-1 6,-1 10,-2 12,-2 0,-1 0,-2 0,-2 0,-3 0,-5 -2,-6 -1,-2 -4,-2 -7,-2 -4,0 -6,0 -8,1 -1,1 -2,3 -3,6l-7 -1c1,-3 2,-5 3,-7 2,-1 4,-3 6,-4 3,-1 6,-1 10,-1 3,0 6,0 8,1 2,1 4,2 5,3 1,1 2,3 2,5 0,1 0,3 0,6l0 9c0,7 0,11 1,12 0,2 1,4 1,5l-7 0c0,-1 -1,-3 -1,-5zm-1 -15c-2,1 -6,2 -11,2 -3,1 -5,1 -6,2 -1,0 -2,1 -3,2 0,1 -1,2 -1,3 0,2 1,4 3,5 1,1 3,2 6,2 2,0 5,-1 7,-2 2,-1 3,-3 4,-5 1,-1 1,-4 1,-7l0 -2zm18 20l0 -40 6 0 0 5c3,-4 7,-6 13,-6 2,0 4,0 7,1 2,1 3,2 4,4 1,1 2,3 2,5 0,1 1,3 1,6l0 25 -7 0 0 -24c0,-3 0,-5 -1,-7 -1,-1 -2,-2 -3,-3 -1,-1 -3,-1 -5,-1 -3,0 -5,1 -7,3 -2,1 -3,5 -3,10l0 22 -7 0zm69 0l0 -5c-2,4 -6,6 -11,6 -3,0 -6,-1 -9,-3 -3,-1 -5,-4 -6,-7 -2,-3 -2,-7 -2,-11 0,-4 0,-8 2,-11 1,-3 3,-6 6,-8 2,-1 5,-2 9,-2 2,0 4,0 6,1 2,1 4,3 5,4l0 -20 7 0 0 56 -7 0zm-21 -20c0,5 1,9 3,12 2,2 5,3 8,3 3,0 5,-1 7,-3 2,-3 3,-6 3,-11 0,-6 -1,-10 -3,-13 -2,-2 -5,-3 -8,-3 -3,0 -5,1 -7,3 -2,3 -3,7 -3,12zm65 15c-3,2 -5,4 -7,5 -3,1 -5,1 -8,1 -4,0 -8,-1 -10,-3 -3,-2 -4,-5 -4,-9 0,-1 1,-3 1,-5 1,-2 3,-3 4,-4 1,-1 3,-2 5,-2 1,0 3,-1 6,-1 6,-1 10,-2 12,-2 0,-1 0,-2 0,-2 0,-3 0,-5 -2,-6 -1,-2 -4,-2 -7,-2 -4,0 -6,0 -8,1 -1,1 -2,3 -3,6l-7 -1c1,-3 2,-5 3,-7 2,-1 4,-3 6,-4 3,-1 6,-1 10,-1 3,0 6,0 8,1 2,1 4,2 5,3 1,1 1,3 2,5 0,1 0,3 0,6l0 9c0,7 0,11 1,12 0,2 1,4 1,5l-7 0c-1,-1 -1,-3 -1,-5zm-1 -15c-2,1 -6,2 -11,2 -3,1 -5,1 -6,2 -1,0 -2,1 -3,2 0,1 -1,2 -1,3 0,2 1,4 3,5 1,1 3,2 6,2 2,0 5,-1 7,-2 2,-1 3,-3 4,-5 1,-1 1,-4 1,-7l0 -2z"/>
   <g>
    <path class="fil1" d="M1048 1000c0,3 -2,5 -5,5l-306 0c-3,0 -6,-2 -6,-5l0 -12c0,-3 3,-5 6,-5l306 0c3,0 5,2 5,5l0 12zm-209 -155l0 98c0,3 2,6 5,6 4,0 6,-3 6,-6l0 -108c0,-3 3,-5 6,-5l28 0 0 124c0,4 3,6 6,6 3,0 5,-2 5,-6l0 -124 29 0c3,0 5,2 5,5l0 108c0,3 3,6 6,6 3,0 6,-3 6,-6l0 -98c53,20 88,70 90,126l-283 0c3,-56 38,-106 91,-126zm204 126l0 0c-3,-62 -43,-117 -102,-138 -2,-8 -9,-15 -17,-15l-68 0c-9,0 -16,7 -17,15 -59,21 -100,76 -102,138l0 0c-10,0 -17,8 -17,17l0 12c0,9 7,17 17,17l306 0c9,0 17,-8 17,-17l0 -12c0,-9 -8,-17 -17,-17z"/>
    <path class="fil5" d="M861 1068l-73 0c-10,0 -17,7 -17,17l0 22c0,3 2,6 6,6 3,0 5,-3 5,-6l0 -22c0,-3 3,-6 6,-6l73 0c4,0 6,-3 6,-6 0,-3 -2,-5 -6,-5z"/>
    <path class="fil1" d="M1031 1113l0 -17 17 0 0 17 -17 0zm-39 34l-34 0c-22,0 -42,-12 -54,-30 -5,-8 -15,-11 -23,-6 -2,1 -4,3 -6,6 -11,18 -31,30 -53,30l-34 0c-16,0 -28,-13 -28,-28l0 -46c0,-9 7,-17 17,-17l226 0c9,0 17,8 17,17l0 46c0,15 -13,28 -28,28zm-261 -28l0 -17 17 0 0 17 -17 0zm17 -34l0 5 -17 0 0 -5 17 0zm300 0l-17 0 0 -6 17 0 0 6zm6 -17l-23 0c-3,-13 -14,-23 -28,-23l-226 0c-16,0 -29,13 -29,28l-22 0c-4,0 -6,3 -6,6l0 45c0,3 2,6 6,6l24 0c5,17 20,28 38,28l34 0c26,0 50,-13 63,-36 2,-2 5,-3 8,-1 0,0 1,1 2,1 13,23 37,36 63,36l34 0c19,0 36,-14 39,-34l23 0c3,0 6,-2 6,-5l0 -46c0,-3 -3,-5 -6,-5z"/>
    <path class="fil5" d="M895 1068l-11 0c-3,0 -6,2 -6,5 0,3 3,6 6,6l11 0c4,0 6,-3 6,-6 0,-3 -2,-5 -6,-5z"/>
   </g>
   <path class="fil4" d="M107 1446l7 0c0,3 1,5 2,7 2,1 3,3 6,4 3,1 5,2 9,2 2,0 5,-1 7,-2 2,0 4,-2 5,-3 1,-1 1,-3 1,-5 0,-2 0,-3 -1,-4 -1,-2 -3,-3 -5,-4 -2,0 -5,-1 -10,-2 -5,-2 -9,-3 -11,-4 -2,-1 -4,-3 -6,-5 -1,-2 -2,-4 -2,-7 0,-3 1,-5 3,-8 1,-2 4,-4 7,-5 3,-2 6,-2 10,-2 4,0 8,0 11,2 3,1 5,3 7,6 2,2 3,5 3,8l-7 1c-1,-4 -2,-6 -4,-8 -2,-2 -6,-3 -10,-3 -4,0 -8,1 -10,3 -2,1 -3,3 -3,6 0,2 1,3 3,4 1,2 5,3 11,4 6,2 10,3 12,4 3,2 6,3 7,6 2,2 2,5 2,8 0,3 0,5 -2,8 -2,3 -4,5 -7,6 -4,2 -7,2 -11,2 -5,0 -9,0 -13,-2 -3,-1 -6,-4 -8,-7 -2,-3 -3,-6 -3,-10zm80 18l0 -6c-3,5 -7,7 -13,7 -2,0 -4,0 -6,-1 -2,-1 -4,-2 -5,-4 -1,-1 -2,-3 -2,-5 0,-1 0,-3 0,-6l0 -25 6 0 0 22c0,4 1,6 1,7 0,2 1,4 3,5 1,1 3,1 5,1 2,0 4,0 5,-1 2,-1 4,-3 4,-5 1,-1 1,-4 1,-7l0 -22 7 0 0 40 -6 0zm45 -13l7 1c-1,4 -4,7 -7,10 -3,2 -6,3 -11,3 -6,0 -11,-2 -14,-5 -4,-4 -5,-9 -5,-16 0,-6 1,-12 5,-15 3,-4 8,-6 14,-6 5,0 9,2 13,6 3,3 5,8 5,15 0,0 0,1 0,2l-30 0c0,4 1,8 4,10 2,2 5,4 8,4 2,0 5,-1 6,-2 2,-2 4,-4 5,-7zm-23 -11l23 0c-1,-3 -2,-6 -3,-7 -2,-3 -5,-4 -8,-4 -4,0 -6,1 -8,3 -2,2 -4,5 -4,8zm38 24l0 -55 7 0 0 55 -7 0zm18 -48l0 -7 6 0 0 7 -6 0zm0 48l0 -40 6 0 0 40 -6 0zm17 0l0 -40 6 0 0 6c3,-5 7,-7 13,-7 2,0 5,0 7,1 2,1 3,2 4,4 1,1 2,3 2,5 1,1 1,3 1,7l0 24 -7 0 0 -24c0,-3 0,-5 -1,-6 0,-2 -1,-3 -3,-4 -1,-1 -3,-1 -5,-1 -2,0 -5,1 -7,3 -2,2 -3,5 -3,10l0 22 -7 0zm71 -13l7 1c-1,4 -3,7 -6,10 -3,2 -7,3 -12,3 -6,0 -10,-2 -14,-5 -3,-4 -5,-9 -5,-16 0,-6 2,-12 5,-15 4,-4 8,-6 14,-6 5,0 10,2 13,6 3,3 5,8 5,15 0,0 0,1 0,2l-30 0c0,4 1,8 4,10 2,2 5,4 8,4 3,0 5,-1 7,-2 1,-2 3,-4 4,-7zm-23 -11l23 0c0,-3 -1,-6 -3,-7 -2,-3 -5,-4 -8,-4 -3,0 -6,1 -8,3 -2,2 -3,5 -4,8zm59 6l7 0c0,3 1,5 2,7 1,1 3,3 5,4 3,1 6,2 9,2 3,0 5,-1 7,-2 3,0 4,-2 5,-3 1,-1 2,-3 2,-5 0,-2 -1,-3 -2,-4 -1,-2 -2,-3 -5,-4 -1,0 -4,-1 -10,-2 -5,-2 -8,-3 -10,-4 -3,-1 -5,-3 -6,-5 -2,-2 -2,-4 -2,-7 0,-3 1,-5 2,-8 2,-2 4,-4 7,-5 3,-2 7,-2 10,-2 4,0 8,0 11,2 3,1 6,3 8,6 1,2 2,5 2,8l-7 1c0,-4 -1,-6 -4,-8 -2,-2 -5,-3 -9,-3 -5,0 -8,1 -10,3 -2,1 -3,3 -3,6 0,2 1,3 2,4 1,2 5,3 11,4 6,2 10,3 12,4 4,2 6,3 8,6 1,2 2,5 2,8 0,3 -1,5 -3,8 -1,3 -4,5 -7,6 -3,2 -7,2 -11,2 -5,0 -9,0 -12,-2 -4,-1 -6,-4 -8,-7 -2,-3 -3,-6 -3,-10zm53 -30l0 -7 7 0 0 7 -7 0zm0 48l0 -40 7 0 0 40 -7 0zm17 0l0 -55 7 0 0 55 -7 0zm29 0l-15 -40 7 0 9 24c0,3 1,5 2,8 1,-2 2,-4 3,-7l9 -25 7 0 -16 40 -6 0zm54 -5c-2,2 -5,4 -7,5 -3,1 -5,1 -8,1 -4,0 -8,-1 -10,-3 -2,-2 -4,-5 -4,-8 0,-2 1,-4 2,-6 1,-1 2,-3 3,-4 2,-1 3,-1 5,-2 2,0 4,-1 6,-1 6,-1 10,-1 13,-2 0,-1 0,-2 0,-2 0,-3 -1,-5 -2,-6 -2,-2 -5,-2 -8,-2 -3,0 -6,0 -7,1 -2,2 -3,4 -4,6l-6 0c0,-3 1,-6 3,-7 1,-2 3,-4 6,-5 2,0 5,-1 9,-1 3,0 6,0 8,1 2,1 4,2 5,3 1,2 2,3 2,5 0,1 0,3 0,6l0 9c0,7 1,11 1,12 0,2 1,4 2,5l-8 0c0,-1 -1,-3 -1,-5zm0 -15c-3,1 -7,2 -12,3 -3,0 -5,1 -6,1 -1,1 -2,1 -2,2 -1,1 -1,2 -1,3 0,2 0,4 2,5 1,1 3,2 6,2 2,0 5,-1 7,-2 2,-1 3,-3 4,-5 1,-1 2,-3 2,-6l0 -3zm65 20l0 -5c-3,4 -7,6 -12,6 -3,0 -6,-1 -8,-2 -3,-2 -5,-5 -7,-8 -1,-3 -2,-7 -2,-11 0,-4 1,-8 2,-11 1,-3 3,-6 6,-7 3,-2 6,-3 9,-3 3,0 5,1 7,2 2,1 3,2 4,4l0 -20 7 0 0 55 -6 0zm-22 -20c0,5 1,9 3,12 3,2 5,4 8,4 3,0 6,-2 8,-4 2,-3 3,-6 3,-11 0,-6 -1,-10 -3,-12 -2,-3 -5,-4 -8,-4 -3,0 -6,1 -8,3 -2,3 -3,7 -3,12zm67 7l7 1c-1,4 -4,7 -7,10 -3,2 -6,3 -11,3 -6,0 -11,-2 -14,-5 -4,-4 -5,-9 -5,-16 0,-6 1,-12 5,-15 3,-4 8,-6 14,-6 5,0 9,2 13,6 3,3 5,8 5,15 0,0 0,1 0,2l-30 0c0,4 1,8 3,10 3,2 6,4 9,4 2,0 5,-1 6,-2 2,-2 3,-4 5,-7zm-23 -11l23 0c-1,-3 -2,-6 -3,-7 -2,-3 -5,-4 -8,-4 -4,0 -6,1 -8,3 -2,2 -4,5 -4,8zm58 6l7 0c1,3 1,5 3,7 1,1 3,3 5,4 3,1 6,2 9,2 3,0 5,-1 7,-2 2,0 4,-2 5,-3 1,-1 2,-3 2,-5 0,-2 -1,-3 -2,-4 -1,-2 -3,-3 -5,-4 -1,0 -5,-1 -10,-2 -5,-2 -9,-3 -11,-4 -2,-1 -4,-3 -6,-5 -1,-2 -2,-4 -2,-7 0,-3 1,-5 3,-8 1,-2 4,-4 7,-5 3,-2 6,-2 10,-2 4,0 8,0 11,2 3,1 6,3 7,6 2,2 3,5 3,8l-7 1c0,-4 -2,-6 -4,-8 -2,-2 -5,-3 -10,-3 -4,0 -7,1 -9,3 -2,1 -3,3 -3,6 0,2 0,3 2,4 1,2 5,3 11,4 6,2 10,3 12,4 3,2 6,3 7,6 2,2 3,5 3,8 0,3 -1,5 -3,8 -2,3 -4,5 -7,6 -3,2 -7,2 -11,2 -5,0 -9,0 -13,-2 -3,-1 -6,-4 -8,-7 -2,-3 -3,-6 -3,-10zm51 -2c0,-7 2,-13 7,-16 3,-3 7,-5 12,-5 6,0 10,2 14,5 3,4 5,9 5,16 0,5 -1,9 -2,12 -2,3 -4,5 -7,7 -3,1 -6,2 -10,2 -5,0 -10,-2 -13,-5 -4,-4 -6,-9 -6,-16zm7 0c0,5 1,9 4,12 2,2 5,4 8,4 4,0 6,-2 9,-4 2,-3 3,-7 3,-12 0,-5 -1,-9 -3,-11 -3,-3 -5,-4 -9,-4 -3,0 -6,1 -8,4 -3,2 -4,6 -4,11zm66 20l0 -6c-4,5 -8,7 -13,7 -3,0 -5,0 -7,-1 -2,-1 -3,-2 -4,-4 -1,-1 -2,-3 -3,-5 0,-1 0,-3 0,-6l0 -25 7 0 0 22c0,4 0,6 0,7 1,2 2,4 3,5 1,1 3,1 5,1 2,0 4,0 6,-1 2,-1 3,-3 4,-5 1,-1 1,-4 1,-7l0 -22 7 0 0 40 -6 0zm13 0l0 -5 25 -30c-2,0 -5,0 -7,0l-17 0 0 -5 33 0 0 4 -22 26 -4 5c3,0 6,-1 9,-1l19 0 0 6 -36 0zm69 -5c-3,2 -5,4 -8,5 -2,1 -4,1 -7,1 -5,0 -8,-1 -10,-3 -3,-2 -4,-5 -4,-8 0,-2 1,-4 1,-6 1,-1 3,-3 4,-4 1,-1 3,-1 5,-2 1,0 3,-1 6,-1 6,-1 10,-1 12,-2 0,-1 0,-2 0,-2 0,-3 0,-5 -2,-6 -1,-2 -4,-2 -7,-2 -4,0 -6,0 -8,1 -1,2 -2,4 -3,6l-7 0c1,-3 2,-6 3,-7 2,-2 4,-4 6,-5 3,0 6,-1 10,-1 3,0 6,0 8,1 2,1 4,2 5,3 1,2 1,3 2,5 0,1 0,3 0,6l0 9c0,7 0,11 1,12 0,2 1,4 1,5l-7 0c-1,-1 -1,-3 -1,-5zm-1 -15c-2,1 -6,2 -11,3 -3,0 -5,1 -6,1 -1,1 -2,1 -3,2 0,1 -1,2 -1,3 0,2 1,4 3,5 1,1 3,2 6,2 2,0 5,-1 7,-2 2,-1 3,-3 4,-5 1,-1 1,-3 1,-6l0 -3z"/>
   <g>
    <path class="fil4" d="M107 1605l21 -56 8 0 23 56 -8 0 -7 -17 -23 0 -6 17 -8 0zm16 -23l19 0 -6 -16c-2,-4 -3,-8 -4,-11 -1,3 -2,7 -3,10l-6 17zm41 23l0 -56 7 0 0 56 -7 0zm45 -13l7 1c-1,4 -3,7 -6,9 -3,2 -7,4 -12,4 -6,0 -10,-2 -14,-6 -3,-4 -5,-9 -5,-15 0,-7 2,-12 5,-16 4,-4 8,-6 14,-6 5,0 10,2 13,6 3,4 5,9 5,15 0,1 0,1 0,2l-30 0c0,5 1,8 4,10 2,3 5,4 8,4 3,0 5,-1 7,-2 1,-1 3,-3 4,-6zm-23 -11l23 0c0,-4 -1,-6 -3,-8 -2,-3 -5,-4 -8,-4 -3,0 -6,1 -8,3 -2,2 -3,5 -4,9zm36 12l7 -1c0,2 1,4 3,6 2,1 4,2 7,2 3,0 6,-1 7,-2 2,-1 2,-3 2,-4 0,-2 0,-3 -2,-4 -1,-1 -3,-2 -7,-2 -5,-2 -8,-3 -10,-4 -2,-1 -4,-2 -5,-4 -1,-1 -1,-3 -1,-5 0,-2 0,-3 1,-5 1,-2 2,-3 4,-4 1,-1 2,-1 4,-2 2,0 4,-1 6,-1 3,0 6,1 8,2 3,1 4,2 5,3 2,2 2,4 3,7l-7 1c0,-2 -1,-4 -2,-5 -2,-1 -4,-2 -7,-2 -3,0 -5,1 -6,2 -2,1 -2,2 -2,3 0,1 0,2 0,3 1,0 2,1 3,1 1,1 3,1 6,2 5,1 8,3 10,3 2,1 4,2 5,4 1,2 1,3 1,6 0,2 0,4 -2,6 -1,2 -3,4 -5,5 -3,1 -6,2 -9,2 -5,0 -9,-2 -12,-4 -3,-2 -4,-5 -5,-9zm39 0l7 -1c0,2 1,4 3,6 1,1 4,2 7,2 3,0 6,-1 7,-2 2,-1 2,-3 2,-4 0,-2 0,-3 -2,-4 -1,-1 -3,-2 -7,-2 -5,-2 -8,-3 -10,-4 -2,-1 -4,-2 -5,-4 -1,-1 -1,-3 -1,-5 0,-2 0,-3 1,-5 1,-2 2,-3 4,-4 1,-1 2,-1 4,-2 2,0 4,-1 6,-1 3,0 6,1 8,2 3,1 4,2 5,3 2,2 2,4 3,7l-7 1c0,-2 -1,-4 -3,-5 -1,-1 -3,-2 -6,-2 -3,0 -5,1 -6,2 -2,1 -2,2 -2,3 0,1 0,2 0,3 1,0 2,1 3,1 1,1 3,1 6,2 5,1 8,3 10,3 2,1 4,2 5,4 1,2 1,3 1,6 0,2 0,4 -2,6 -1,2 -3,4 -5,5 -3,1 -6,2 -9,2 -5,0 -9,-2 -12,-4 -3,-2 -4,-5 -5,-9zm68 7c-3,2 -5,3 -8,4 -2,1 -4,2 -7,2 -5,0 -8,-2 -10,-4 -3,-2 -4,-5 -4,-8 0,-2 1,-4 1,-5 1,-2 3,-3 4,-4 1,-1 3,-2 5,-3 1,0 3,0 6,-1 6,0 10,-1 12,-2 0,-1 0,-1 0,-2 0,-2 0,-4 -2,-6 -1,-1 -4,-2 -7,-2 -4,0 -6,1 -8,2 -1,1 -2,3 -3,6l-7 -1c1,-3 2,-5 3,-7 2,-2 4,-3 6,-4 3,-1 6,-2 10,-2 3,0 6,1 8,2 2,0 4,1 5,3 1,1 1,2 2,4 0,2 0,4 0,7l0 9c0,6 0,10 1,12 0,2 0,3 1,5l-7 0c-1,-2 -1,-3 -1,-5zm-1 -16c-2,1 -6,2 -11,3 -3,0 -5,1 -6,1 -1,1 -2,2 -3,3 0,1 -1,2 -1,3 0,2 1,3 2,4 2,2 4,2 7,2 2,0 5,0 7,-2 2,-1 3,-2 4,-4 1,-2 1,-4 1,-7l0 -3zm18 21l0 -41 6 0 0 6c3,-4 7,-7 13,-7 2,0 4,1 6,2 2,1 4,2 5,3 1,2 2,3 2,5 0,1 1,4 1,7l0 25 -7 0 0 -25c0,-3 -1,-5 -1,-6 -1,-2 -2,-3 -3,-3 -1,-1 -3,-2 -5,-2 -3,0 -5,1 -7,3 -2,2 -3,5 -3,11l0 22 -7 0zm69 0l0 -5c-2,4 -6,6 -11,6 -3,0 -6,-1 -9,-3 -3,-2 -5,-4 -6,-8 -2,-3 -3,-6 -3,-10 0,-5 1,-8 3,-11 1,-4 3,-6 6,-8 2,-2 5,-3 9,-3 2,0 4,1 6,2 2,1 3,2 5,4l0 -20 7 0 0 56 -7 0zm-21 -20c0,5 1,9 3,11 2,3 5,4 8,4 3,0 5,-1 7,-4 2,-2 3,-6 3,-11 0,-5 -1,-9 -3,-12 -2,-3 -5,-4 -8,-4 -3,0 -5,1 -7,4 -2,2 -3,6 -3,12zm38 20l0 -41 6 0 0 6c2,-2 3,-4 5,-5 1,-1 3,-2 4,-2 3,0 5,1 7,3l-2 6c-2,-1 -3,-2 -5,-2 -2,0 -3,1 -4,2 -1,1 -2,2 -3,4 0,2 -1,5 -1,8l0 21 -7 0zm53 -5c-3,2 -5,3 -8,4 -2,1 -4,2 -7,2 -5,0 -8,-2 -10,-4 -3,-2 -4,-5 -4,-8 0,-2 0,-4 1,-5 1,-2 2,-3 4,-4 1,-1 3,-2 5,-3 1,0 3,0 6,-1 5,0 10,-1 12,-2 0,-1 0,-1 0,-2 0,-2 0,-4 -2,-6 -2,-1 -4,-2 -8,-2 -3,0 -5,1 -7,2 -1,1 -2,3 -3,6l-7 -1c1,-3 2,-5 3,-7 2,-2 4,-3 6,-4 3,-1 6,-2 9,-2 4,0 7,1 9,2 2,0 4,1 5,3 1,1 1,2 2,4 0,2 0,4 0,7l0 9c0,6 0,10 1,12 0,2 0,3 1,5l-7 0c-1,-2 -1,-3 -1,-5zm-1 -16c-2,1 -6,2 -11,3 -3,0 -5,1 -6,1 -1,1 -2,2 -3,3 0,1 -1,2 -1,3 0,2 1,3 2,4 2,2 4,2 6,2 3,0 5,0 8,-2 2,-1 3,-2 4,-4 1,-2 1,-4 1,-7l0 -3zm40 21l0 -56 21 0c4,0 7,0 10,2 3,1 5,2 6,5 2,2 2,5 2,7 0,3 0,5 -2,7 -1,2 -3,4 -6,5 4,1 6,3 8,5 2,2 3,5 3,9 0,2 -1,5 -2,7 -1,2 -2,4 -4,5 -1,1 -3,2 -6,3 -2,0 -5,1 -9,1l-21 0zm7 -33l12 0c4,0 6,0 7,0 2,-1 4,-2 5,-3 1,-1 1,-3 1,-5 0,-2 0,-3 -1,-5 -1,-1 -3,-2 -4,-3 -2,0 -5,-1 -9,-1l-11 0 0 17zm0 26l14 0c2,0 4,0 5,0 2,0 3,-1 4,-2 2,0 2,-1 3,-3 1,-1 1,-3 1,-4 0,-3 0,-4 -1,-6 -1,-1 -3,-3 -5,-3 -2,-1 -4,-1 -8,-1l-13 0 0 19zm71 2c-3,2 -5,3 -8,4 -2,1 -5,2 -7,2 -5,0 -8,-2 -11,-4 -2,-2 -3,-5 -3,-8 0,-2 0,-4 1,-5 1,-2 2,-3 4,-4 1,-1 3,-2 5,-3 1,0 3,0 6,-1 5,0 9,-1 12,-2 0,-1 0,-1 0,-2 0,-2 -1,-4 -2,-6 -2,-1 -4,-2 -8,-2 -3,0 -5,1 -7,2 -1,1 -3,3 -3,6l-7 -1c1,-3 2,-5 3,-7 1,-2 3,-3 6,-4 3,-1 6,-2 9,-2 4,0 7,1 9,2 2,0 4,1 5,3 1,1 1,2 2,4 0,2 0,4 0,7l0 9c0,6 0,10 0,12 1,2 1,3 2,5l-7 0c-1,-2 -1,-3 -1,-5zm-1 -16c-2,1 -6,2 -11,3 -3,0 -5,1 -6,1 -1,1 -2,2 -3,3 0,1 -1,2 -1,3 0,2 1,3 2,4 2,2 4,2 6,2 3,0 5,0 7,-2 2,-1 4,-2 5,-4 1,-2 1,-4 1,-7l0 -3zm18 21l0 -41 6 0 0 6c3,-4 7,-7 13,-7 2,0 4,1 6,2 2,1 4,2 5,3 1,2 2,3 2,5 0,1 0,4 0,7l0 25 -7 0 0 -25c0,-3 0,-5 0,-6 -1,-2 -2,-3 -3,-3 -1,-1 -3,-2 -5,-2 -3,0 -5,1 -7,3 -3,2 -4,5 -4,11l0 22 -6 0zm69 0l0 -5c-3,4 -6,6 -11,6 -4,0 -7,-1 -9,-3 -3,-2 -5,-4 -6,-8 -2,-3 -3,-6 -3,-10 0,-5 1,-8 2,-11 2,-4 4,-6 6,-8 3,-2 6,-3 9,-3 3,0 5,1 7,2 2,1 3,2 4,4l0 -20 7 0 0 56 -6 0zm-22 -20c0,5 1,9 4,11 2,3 4,4 7,4 3,0 6,-1 8,-4 2,-2 3,-6 3,-11 0,-5 -1,-9 -3,-12 -2,-3 -5,-4 -8,-4 -3,0 -6,1 -8,4 -2,2 -3,6 -3,12zm67 7l7 1c-1,4 -3,7 -6,9 -3,2 -7,4 -12,4 -6,0 -10,-2 -14,-6 -3,-4 -5,-9 -5,-15 0,-7 2,-12 5,-16 4,-4 8,-6 14,-6 5,0 10,2 13,6 3,4 5,9 5,15 0,1 0,1 0,2l-30 0c0,5 1,8 4,10 2,3 5,4 8,4 3,0 5,-1 7,-2 1,-1 3,-3 4,-6zm-23 -11l23 0c0,-4 -1,-6 -3,-8 -2,-3 -5,-4 -8,-4 -3,0 -6,1 -8,3 -2,2 -3,5 -4,9zm38 -24l0 -8 7 0 0 8 -7 0zm0 48l0 -41 7 0 0 41 -7 0zm18 0l0 -41 6 0 0 6c1,-2 3,-4 4,-5 2,-1 3,-2 5,-2 2,0 4,1 7,3l-3 6c-1,-1 -3,-2 -5,-2 -1,0 -3,1 -4,2 -1,1 -2,2 -2,4 -1,2 -1,5 -1,8l0 21 -7 0zm52 -5c-2,2 -5,3 -7,4 -3,1 -5,2 -8,2 -4,0 -8,-2 -10,-4 -2,-2 -4,-5 -4,-8 0,-2 1,-4 2,-5 1,-2 2,-3 3,-4 2,-1 3,-2 5,-3 2,0 4,0 6,-1 6,0 10,-1 13,-2 0,-1 0,-1 0,-2 0,-2 -1,-4 -2,-6 -2,-1 -5,-2 -8,-2 -3,0 -6,1 -7,2 -2,1 -3,3 -4,6l-6 -1c0,-3 1,-5 3,-7 1,-2 3,-3 6,-4 2,-1 5,-2 9,-2 3,0 6,1 8,2 2,0 4,1 5,3 1,1 2,2 2,4 0,2 1,4 1,7l0 9c0,6 0,10 0,12 0,2 1,3 2,5l-8 0c0,-2 -1,-3 -1,-5zm0 -16c-3,1 -7,2 -12,3 -2,0 -4,1 -6,1 -1,1 -2,2 -2,3 -1,1 -1,2 -1,3 0,2 0,3 2,4 1,2 3,2 6,2 3,0 5,0 7,-2 2,-1 3,-2 4,-4 1,-2 2,-4 2,-7l0 -3zm29 21l22 -56 8 0 22 56 -8 0 -7 -17 -23 0 -6 17 -8 0zm16 -23l19 0 -6 -16c-1,-4 -3,-8 -4,-11 0,3 -1,7 -3,10l-6 17zm41 23l0 -41 6 0 0 6c3,-4 8,-7 13,-7 3,0 5,1 7,2 2,1 4,2 5,3 1,2 1,3 2,5 0,1 0,4 0,7l0 25 -7 0 0 -25c0,-3 0,-5 -1,-6 0,-2 -1,-3 -2,-3 -2,-1 -3,-2 -5,-2 -3,0 -6,1 -8,3 -2,2 -3,5 -3,11l0 22 -7 0zm59 -6l0 6c-1,0 -3,0 -5,0 -2,0 -4,0 -5,-1 -2,-1 -3,-2 -3,-3 -1,-1 -1,-4 -1,-8l0 -23 -5 0 0 -6 5 0 0 -10 7 -4 0 14 7 0 0 6 -7 0 0 23c0,2 0,3 0,4 0,1 1,1 1,1 1,1 2,1 3,1 0,0 1,0 3,0zm33 6l0 -6c-3,4 -8,7 -13,7 -2,0 -5,-1 -7,-2 -2,-1 -3,-2 -4,-3 -1,-2 -2,-3 -2,-5 -1,-2 -1,-4 -1,-7l0 -25 7 0 0 23c0,3 0,6 0,7 1,2 2,3 3,4 2,1 3,2 5,2 2,0 4,-1 6,-2 2,-1 3,-2 4,-4 1,-2 1,-5 1,-8l0 -22 7 0 0 41 -6 0zm17 0l0 -41 6 0 0 6c3,-4 7,-7 13,-7 2,0 4,1 6,2 2,1 4,2 5,3 1,2 2,3 2,5 0,1 0,4 0,7l0 25 -6 0 0 -25c0,-3 -1,-5 -1,-6 -1,-2 -2,-3 -3,-3 -1,-1 -3,-2 -5,-2 -3,0 -5,1 -7,3 -2,2 -4,5 -4,11l0 22 -6 0zm71 -13l7 1c-2,4 -4,7 -7,9 -3,2 -6,4 -11,4 -6,0 -11,-2 -14,-6 -4,-4 -5,-9 -5,-15 0,-7 1,-12 5,-16 3,-4 8,-6 13,-6 6,0 10,2 14,6 3,4 5,9 5,15 0,1 0,1 0,2l-30 0c0,5 1,8 3,10 3,3 6,4 9,4 2,0 5,-1 6,-2 2,-1 3,-3 5,-6zm-23 -11l23 0c-1,-4 -2,-6 -3,-8 -2,-3 -5,-4 -8,-4 -4,0 -6,1 -8,3 -3,2 -4,5 -4,9zm36 12l6 -1c1,2 2,4 3,6 2,1 5,2 8,2 3,0 5,-1 7,-2 1,-1 2,-3 2,-4 0,-2 -1,-3 -2,-4 -1,-1 -3,-2 -7,-2 -5,-2 -8,-3 -10,-4 -2,-1 -4,-2 -5,-4 -1,-1 -1,-3 -1,-5 0,-2 0,-3 1,-5 1,-2 2,-3 3,-4 1,-1 3,-1 5,-2 1,0 3,-1 6,-1 3,0 5,1 8,2 2,1 4,2 5,3 1,2 2,4 3,7l-7 1c0,-2 -1,-4 -3,-5 -1,-1 -3,-2 -6,-2 -3,0 -5,1 -7,2 -1,1 -2,2 -2,3 0,1 1,2 1,3 1,0 2,1 3,1 0,1 2,1 6,2 5,1 8,3 10,3 2,1 3,2 4,4 2,2 2,3 2,6 0,2 -1,4 -2,6 -1,2 -3,4 -6,5 -2,1 -5,2 -8,2 -5,0 -9,-2 -12,-4 -3,-2 -5,-5 -5,-9zm-959 99l0 -5c-2,4 -6,6 -11,6 -3,0 -6,-1 -9,-3 -3,-2 -5,-4 -6,-8 -2,-3 -3,-6 -3,-10 0,-4 1,-8 2,-11 2,-4 4,-6 6,-8 3,-2 6,-3 9,-3 3,0 5,1 7,2 2,1 3,2 5,4l0 -20 6 0 0 56 -6 0zm-22 -20c0,5 2,9 4,11 2,3 4,4 7,4 3,0 6,-1 8,-4 2,-2 3,-6 3,-11 0,-5 -1,-9 -3,-12 -2,-3 -5,-4 -8,-4 -3,0 -5,1 -8,4 -2,2 -3,6 -3,12zm67 7l7 1c-1,4 -3,7 -6,9 -3,2 -7,4 -12,4 -6,0 -10,-2 -14,-6 -3,-4 -5,-9 -5,-15 0,-7 2,-12 5,-16 4,-4 8,-6 14,-6 5,0 10,2 13,6 3,4 5,9 5,15 0,1 0,1 0,2l-30 0c0,5 2,8 4,10 2,3 5,4 8,4 3,0 5,-1 7,-2 1,-1 3,-3 4,-6zm-23 -11l23 0c0,-4 -1,-6 -3,-8 -2,-3 -5,-4 -8,-4 -3,0 -6,1 -8,3 -2,2 -3,5 -4,9zm51 24l21 -56 8 0 23 56 -8 0 -7 -17 -23 0 -6 17 -8 0zm16 -23l19 0 -6 -16c-2,-4 -3,-8 -4,-11 -1,3 -2,7 -3,10l-6 17zm37 23l0 -6 26 -29c-3,0 -6,0 -8,0l-16 0 0 -6 33 0 0 5 -22 25 -4 5c3,0 6,0 8,0l19 0 0 6 -36 0zm70 -13l8 1c-2,4 -4,7 -7,9 -3,2 -7,4 -11,4 -6,0 -11,-2 -14,-6 -4,-4 -5,-9 -5,-15 0,-7 1,-12 5,-16 3,-4 8,-6 13,-6 6,0 10,2 14,6 3,4 5,9 5,15 0,1 0,1 0,2l-30 0c0,5 1,8 3,10 3,3 5,4 9,4 2,0 4,-1 6,-2 2,-1 3,-3 4,-6zm-22 -11l22 0c0,-4 -1,-6 -2,-8 -2,-3 -5,-4 -9,-4 -3,0 -5,1 -7,3 -3,2 -4,5 -4,9zm49 24l-15 -41 7 0 9 24c1,3 2,6 3,9 0,-3 1,-5 2,-8l9 -25 7 0 -15 41 -7 0zm56 -13l7 1c-1,4 -3,7 -6,9 -3,2 -7,4 -12,4 -6,0 -11,-2 -14,-6 -3,-4 -5,-9 -5,-15 0,-7 2,-12 5,-16 4,-4 8,-6 14,-6 5,0 9,2 13,6 3,4 5,9 5,15 0,1 0,1 0,2l-30 0c0,5 1,8 4,10 2,3 5,4 8,4 3,0 5,-1 6,-2 2,-1 4,-3 5,-6zm-23 -11l23 0c-1,-4 -1,-6 -3,-8 -2,-3 -5,-4 -8,-4 -3,0 -6,1 -8,3 -2,2 -4,5 -4,9z"/>
    <path class="fil4" d="M459 1692l0 -5c-3,4 -7,6 -12,6 -3,0 -6,-1 -9,-3 -2,-2 -4,-4 -6,-8 -1,-3 -2,-6 -2,-10 0,-4 1,-8 2,-11 1,-4 3,-6 6,-8 3,-2 6,-3 9,-3 2,0 5,1 6,2 2,1 4,2 5,4l0 -20 7 0 0 56 -6 0zm-22 -20c0,5 1,9 3,11 2,3 5,4 8,4 3,0 5,-1 8,-4 2,-2 3,-6 3,-11 0,-5 -1,-9 -4,-12 -2,-3 -4,-4 -7,-4 -3,0 -6,1 -8,4 -2,2 -3,6 -3,12zm36 -1c0,-7 2,-13 6,-16 4,-3 8,-5 13,-5 6,0 10,2 14,6 3,3 5,9 5,15 0,5 -1,9 -2,12 -2,3 -4,5 -7,7 -3,2 -6,3 -10,3 -6,0 -10,-2 -14,-6 -3,-3 -5,-9 -5,-16zm7 1c0,5 1,9 4,11 2,3 5,4 8,4 4,0 6,-1 9,-4 2,-3 3,-6 3,-12 0,-5 -1,-8 -3,-11 -3,-3 -6,-4 -9,-4 -3,0 -6,1 -8,4 -3,2 -4,6 -4,12z"/>
   </g>
  </g>
 </g>
</svg>
