<?xml version="1.0" encoding="UTF-8"?>
<!DOCTYPE svg PUBLIC "-//W3C//DTD SVG 1.1//EN" "http://www.w3.org/Graphics/SVG/1.1/DTD/svg11.dtd">
<!-- Creator: CorelDRAW X7 -->
<svg xmlns="http://www.w3.org/2000/svg" xml:space="preserve" width="1189px" height="1773px" version="1.1" style="shape-rendering:geometricPrecision; text-rendering:geometricPrecision; image-rendering:optimizeQuality; fill-rule:evenodd; clip-rule:evenodd"
viewBox="0 0 1189 1773"
 xmlns:xlink="http://www.w3.org/1999/xlink">
 <defs>
  <style type="text/css">
   <![CDATA[
    .str0 {stroke:#303847;stroke-width:2.36221}
    .fil4 {fill:#FEFEFE}
    .fil0 {fill:#303847}
    .fil1 {fill:#BD9E68}
    .fil2 {fill:#F68C3F}
    .fil3 {fill:white}
   ]]>
  </style>
 </defs>
 <g id="Camada_x0020_1">
  <metadata id="CorelCorpID_0Corel-Layer"/>
  <g id="_2587210919216">
   <rect class="fil0 str0" transform="matrix(-2.51426E-014 -0.941639 -0.941639 2.51426E-014 1188.94 1772.97)" width="1883" height="1263" rx="5" ry="5"/>
   <path class="fil1" d="M247 364c18,20 30,36 58,43 45,11 144,-17 193,-31 11,-4 25,-7 36,-12 6,-1 14,-4 20,-6l136 -46c53,-17 105,-35 158,-50 27,-8 53,-17 80,-23 67,-16 196,-40 261,-36l0 -5c-47,-4 -123,8 -171,17 -62,11 -98,19 -159,38 -101,31 -201,64 -301,97 -57,19 -181,59 -240,54 -32,-4 -46,-19 -65,-40 -7,-8 -20,-23 -25,-32 -7,-10 -17,-20 -26,-29 -55,-55 -120,-79 -183,-104l-18 -6 -1 4 36 15c44,17 93,36 133,68 16,12 29,24 42,39 9,10 31,41 36,45z"/>
   <path class="fil2" d="M162 1597l9 2c-2,7 -6,13 -10,17 -5,3 -11,5 -18,5 -7,0 -13,-1 -18,-4 -4,-3 -8,-7 -10,-13 -3,-6 -4,-12 -4,-18 0,-7 1,-13 4,-18 3,-6 7,-10 12,-12 5,-3 10,-4 16,-4 7,0 12,1 17,5 5,3 8,8 10,14l-9 2c-2,-4 -4,-8 -7,-10 -3,-3 -7,-4 -11,-4 -5,0 -10,2 -13,4 -4,3 -6,6 -7,10 -2,4 -3,9 -3,13 0,6 1,11 3,15 2,4 4,7 8,10 3,2 7,3 11,3 5,0 9,-2 13,-5 3,-2 6,-7 7,-12zm16 -1c0,-9 2,-16 7,-20 4,-4 9,-6 15,-6 7,0 13,3 17,7 4,4 6,10 6,18 0,6 -1,11 -2,15 -2,4 -5,6 -9,8 -3,2 -7,3 -12,3 -6,0 -12,-2 -16,-6 -4,-5 -6,-11 -6,-19zm8 0c0,6 1,11 4,14 3,3 6,5 10,5 5,0 8,-2 11,-5 2,-3 4,-8 4,-14 0,-6 -2,-11 -4,-14 -3,-3 -6,-5 -11,-5 -4,0 -7,2 -10,5 -3,3 -4,8 -4,14zm47 24l0 -67 8 0 0 67 -8 0zm54 -16l9 2c-1,5 -4,8 -8,11 -3,3 -8,4 -14,4 -7,0 -12,-2 -17,-6 -4,-5 -6,-11 -6,-19 0,-8 2,-14 7,-19 4,-4 9,-7 16,-7 7,0 12,3 16,7 4,4 6,11 6,19 0,0 0,1 0,2l-36 0c0,5 2,9 4,12 3,3 6,5 10,5 3,0 6,-1 8,-3 2,-1 4,-4 5,-8zm-27 -13l27 0c0,-4 -1,-7 -3,-9 -2,-3 -6,-5 -10,-5 -4,0 -7,1 -10,4 -2,2 -4,6 -4,10zm45 33l8 1c0,3 1,5 3,6 2,1 4,2 8,2 4,0 7,-1 9,-2 2,-2 3,-4 4,-7 1,-1 1,-5 1,-10 -4,4 -8,6 -14,6 -6,0 -12,-2 -15,-7 -4,-5 -6,-11 -6,-17 0,-5 1,-9 3,-13 1,-4 4,-7 7,-9 3,-3 7,-4 11,-4 6,0 11,3 15,7l0 -6 7 0 0 43c0,7 -1,13 -2,16 -2,3 -4,5 -8,7 -3,2 -7,3 -12,3 -6,0 -10,-1 -14,-4 -4,-2 -5,-6 -5,-12zm7 -29c0,6 1,11 3,14 3,3 6,4 10,4 4,0 7,-1 10,-4 2,-3 3,-7 3,-14 0,-6 -1,-10 -4,-13 -2,-3 -5,-5 -9,-5 -4,0 -7,2 -10,5 -2,3 -3,7 -3,13zm47 -33l0 -9 8 0 0 9 -8 0zm0 58l0 -49 8 0 0 49 -8 0zm53 -6c-4,3 -6,5 -9,6 -3,1 -6,1 -9,1 -6,0 -10,-1 -13,-4 -3,-2 -4,-6 -4,-10 0,-2 0,-4 1,-6 2,-2 3,-4 5,-5 1,-1 3,-2 6,-3 1,0 4,0 7,-1 7,-1 12,-2 15,-3 0,-1 0,-2 0,-2 0,-3 -1,-6 -2,-7 -3,-2 -6,-3 -10,-3 -4,0 -7,1 -9,2 -1,2 -3,4 -4,8l-8 -2c1,-3 2,-6 4,-8 2,-2 4,-4 7,-5 3,-1 7,-2 11,-2 4,0 8,1 11,2 2,1 4,2 5,4 1,1 2,3 3,5 0,2 0,4 0,8l0 11c0,7 0,12 1,14 0,2 1,4 2,6l-9 0c-1,-1 -1,-4 -1,-6zm-1 -18c-3,1 -8,2 -14,3 -3,0 -6,1 -7,2 -1,0 -2,1 -3,2 -1,1 -1,3 -1,4 0,2 0,4 2,6 2,1 4,2 8,2 3,0 6,-1 8,-2 3,-2 4,-4 6,-6 0,-2 1,-5 1,-8l0 -3zm53 24l0 -6c-4,5 -8,7 -14,7 -4,0 -8,-1 -11,-3 -3,-2 -6,-5 -7,-9 -2,-4 -3,-8 -3,-13 0,-5 1,-9 2,-13 2,-4 4,-7 8,-9 3,-3 7,-4 11,-4 2,0 5,1 7,2 3,1 5,3 6,5l0 -24 8 0 0 67 -7 0zm-27 -24c0,6 2,11 4,14 3,3 6,5 10,5 3,0 6,-2 9,-5 2,-3 4,-7 4,-13 0,-7 -2,-12 -4,-15 -3,-3 -6,-5 -10,-5 -3,0 -6,2 -9,5 -2,3 -4,7 -4,14zm44 0c0,-9 3,-16 8,-20 4,-4 9,-6 15,-6 7,0 12,3 17,7 4,4 6,10 6,18 0,6 -1,11 -3,15 -2,4 -4,6 -8,8 -4,2 -8,3 -12,3 -7,0 -12,-2 -16,-6 -5,-5 -7,-11 -7,-19zm9 0c0,6 1,11 4,14 3,3 6,5 10,5 4,0 8,-2 10,-5 3,-3 5,-8 5,-14 0,-6 -2,-11 -5,-14 -2,-3 -6,-5 -10,-5 -4,0 -7,2 -10,5 -3,3 -4,8 -4,14zm104 24l0 -6c-3,5 -7,7 -13,7 -4,0 -8,-1 -11,-3 -3,-2 -6,-5 -8,-9 -1,-4 -2,-8 -2,-13 0,-5 1,-9 2,-13 2,-4 4,-7 8,-9 3,-3 6,-4 10,-4 3,0 6,1 8,2 3,1 4,3 6,5l0 -24 8 0 0 67 -8 0zm-26 -24c0,6 2,11 4,14 3,3 6,5 10,5 3,0 6,-2 9,-5 2,-3 4,-7 4,-13 0,-7 -2,-12 -4,-15 -3,-3 -6,-5 -10,-5 -3,0 -7,2 -9,5 -2,3 -4,7 -4,14zm44 0c0,-9 3,-16 8,-20 4,-4 9,-6 15,-6 7,0 12,3 17,7 4,4 6,10 6,18 0,6 -1,11 -3,15 -2,4 -5,6 -8,8 -4,2 -8,3 -12,3 -7,0 -12,-2 -17,-6 -4,-5 -6,-11 -6,-19zm9 0c0,6 1,11 4,14 2,3 6,5 10,5 4,0 8,-2 10,-5 3,-3 4,-8 4,-14 0,-6 -1,-11 -4,-14 -2,-3 -6,-5 -10,-5 -4,0 -8,2 -10,5 -3,3 -4,8 -4,14zm105 6l8 1c-1,6 -3,10 -7,14 -4,3 -8,4 -13,4 -7,0 -13,-2 -17,-6 -4,-5 -6,-11 -6,-19 0,-5 1,-10 3,-14 2,-4 4,-7 8,-9 4,-2 7,-3 12,-3 5,0 9,2 13,4 3,3 5,7 6,12l-8 1c-1,-3 -2,-6 -4,-7 -2,-2 -4,-3 -7,-3 -4,0 -8,2 -10,5 -3,3 -4,7 -4,14 0,6 1,11 4,14 2,3 5,5 9,5 4,0 6,-1 9,-3 2,-2 3,-6 4,-10zm47 18l0 -7c-4,6 -9,8 -16,8 -3,0 -5,0 -8,-1 -2,-1 -4,-3 -5,-5 -1,-1 -2,-3 -3,-6 0,-1 0,-4 0,-7l0 -31 8 0 0 27c0,5 0,8 0,9 1,2 2,4 4,5 1,2 4,2 6,2 2,0 5,0 7,-2 2,-1 4,-3 5,-5 0,-2 1,-5 1,-9l0 -27 8 0 0 49 -7 0zm20 0l0 -49 8 0 0 8c1,-4 3,-6 5,-7 1,-1 3,-2 5,-2 3,0 6,1 9,3l-3 8c-2,-2 -4,-2 -6,-2 -2,0 -4,0 -5,2 -2,1 -3,2 -3,4 -1,3 -2,6 -2,10l0 25 -8 0zm28 -14l9 -2c0,4 1,6 3,8 2,2 5,3 9,3 4,0 7,-1 9,-3 1,-1 2,-3 2,-5 0,-2 0,-4 -2,-5 -1,0 -4,-1 -9,-2 -6,-2 -10,-3 -12,-4 -2,-2 -4,-3 -5,-5 -2,-2 -2,-4 -2,-7 0,-2 0,-4 1,-6 1,-1 3,-3 4,-4 2,-1 3,-2 6,-3 2,0 4,-1 7,-1 4,0 7,1 10,2 3,1 5,3 6,5 2,1 2,4 3,7l-8 1c0,-2 -2,-4 -3,-6 -2,-1 -5,-2 -8,-2 -4,0 -6,1 -8,2 -1,1 -2,3 -2,4 0,1 0,2 1,3 0,1 1,2 3,3 1,0 3,1 7,2 6,1 10,2 12,3 3,1 5,3 6,5 1,2 2,4 2,7 0,3 -1,5 -3,8 -1,2 -3,4 -6,5 -4,2 -7,2 -11,2 -6,0 -11,-1 -14,-4 -4,-2 -6,-6 -7,-11zm48 -10c0,-9 2,-16 7,-20 4,-4 9,-6 15,-6 7,0 13,3 17,7 4,4 6,10 6,18 0,6 -1,11 -2,15 -2,4 -5,6 -9,8 -3,2 -7,3 -12,3 -6,0 -12,-2 -16,-6 -4,-5 -6,-11 -6,-19zm8 0c0,6 1,11 4,14 3,3 6,5 10,5 5,0 8,-2 11,-5 3,-3 4,-8 4,-14 0,-6 -2,-11 -4,-14 -3,-3 -6,-5 -11,-5 -4,0 -7,2 -10,5 -3,3 -4,8 -4,14z"/>
   <g>
    <path class="fil3" d="M168 1449c0,-12 -10,-21 -21,-21 -12,0 -21,9 -21,21 0,12 9,21 21,21 11,0 21,-9 21,-21zm-21 10c-6,0 -11,-4 -11,-10 0,-6 5,-10 11,-10 6,0 10,4 10,10 0,6 -4,10 -10,10z"/>
    <path class="fil3" d="M115 1517l63 0c3,0 5,-2 5,-5l0 -5c0,-21 -16,-37 -36,-37 -20,0 -37,16 -37,37l0 5c0,3 3,5 5,5zm32 -37c14,0 26,12 26,27l-52 0c0,-15 11,-27 26,-27z"/>
    <path class="fil3" d="M347 1480c0,-3 -3,-5 -6,-5l-100 0c-3,0 -5,2 -5,5 0,3 2,6 5,6l100 0c3,0 6,-3 6,-6z"/>
    <path class="fil3" d="M341 1444l-100 0c-20,0 -37,16 -37,36 0,21 17,37 37,37l27 0c2,0 5,-2 5,-5 0,-3 -3,-5 -5,-5l-27 0c-14,0 -26,-12 -26,-27 0,-14 12,-26 26,-26l100 0c15,0 26,12 26,26 0,15 -11,27 -26,27l-26 0c-3,0 -6,2 -6,5 0,3 3,5 6,5l26 0c21,0 37,-16 37,-37 0,-20 -16,-36 -37,-36z"/>
    <path class="fil3" d="M296 1512c0,3 -2,5 -5,5 -3,0 -5,-2 -5,-5 0,-3 2,-5 5,-5 3,0 5,2 5,5z"/>
   </g>
   <path class="fil1" d="M116 871l0 -118 79 0 0 14 -64 0 0 37 55 0 0 13 -55 0 0 54 -15 0zm92 -43c0,-16 4,-27 13,-35 7,-6 16,-9 27,-9 11,0 21,4 28,11 8,8 11,18 11,32 0,11 -1,19 -4,26 -4,6 -9,11 -15,14 -6,4 -13,6 -20,6 -12,0 -22,-4 -29,-12 -8,-8 -11,-19 -11,-33zm15 0c0,11 2,19 7,25 4,5 10,8 18,8 7,0 13,-3 18,-8 4,-6 7,-14 7,-25 0,-11 -3,-19 -7,-24 -5,-6 -11,-8 -18,-8 -8,0 -14,2 -18,8 -5,5 -7,13 -7,24zm81 43l0 -85 13 0 0 13c3,-6 7,-10 9,-12 3,-2 6,-3 10,-3 4,0 9,1 14,4l-5 14c-3,-2 -7,-3 -10,-3 -3,0 -6,1 -9,3 -2,1 -4,4 -5,7 -2,6 -2,11 -2,17l0 45 -15 0zm55 0l0 -85 13 0 0 12c3,-5 6,-8 11,-10 4,-3 9,-4 15,-4 6,0 11,1 15,4 4,2 7,6 9,11 6,-10 15,-15 26,-15 8,0 15,2 20,7 4,4 6,12 6,21l0 59 -14 0 0 -54c0,-6 -1,-10 -1,-12 -1,-3 -3,-5 -6,-6 -2,-2 -5,-3 -8,-3 -6,0 -11,2 -15,6 -4,4 -6,11 -6,19l0 50 -15 0 0 -56c0,-6 -1,-11 -3,-14 -2,-3 -6,-5 -12,-5 -4,0 -7,1 -11,3 -3,3 -6,6 -7,10 -2,4 -3,10 -3,18l0 44 -14 0zm192 -11c-5,5 -10,8 -15,10 -5,2 -11,3 -16,3 -10,0 -17,-3 -22,-7 -5,-5 -7,-11 -7,-18 0,-4 1,-8 2,-11 2,-4 5,-6 8,-8 3,-2 6,-4 10,-5 3,-1 7,-2 13,-2 12,-2 20,-3 26,-5 0,-2 0,-3 0,-4 0,-6 -1,-10 -4,-12 -4,-4 -9,-5 -17,-5 -6,0 -11,1 -15,3 -3,3 -5,7 -7,13l-14 -2c1,-6 3,-11 6,-15 3,-3 8,-6 13,-8 6,-2 12,-3 20,-3 7,0 13,1 17,2 5,2 8,4 10,7 3,2 4,6 5,10 0,2 1,7 1,13l0 19c0,13 0,22 1,25 0,4 1,7 3,11l-15 0c-2,-3 -2,-7 -3,-11zm-1 -32c-5,2 -13,4 -24,6 -6,0 -10,1 -12,2 -3,1 -5,3 -6,5 -1,2 -2,4 -2,7 0,4 2,7 4,9 3,3 8,4 13,4 6,0 11,-1 15,-3 4,-3 8,-6 10,-10 1,-4 2,-8 2,-15l0 -5zm68 30l2 13c-4,0 -8,1 -11,1 -5,0 -9,-1 -12,-3 -3,-1 -5,-3 -6,-6 -1,-3 -2,-9 -2,-17l0 -49 -10 0 0 -11 10 0 0 -21 15 -9 0 30 14 0 0 11 -14 0 0 50c0,4 0,6 0,8 1,1 2,2 3,2 1,1 3,1 5,1 1,0 3,0 6,0zm70 13l0 -13c-7,10 -16,15 -27,15 -5,0 -10,-1 -14,-3 -4,-2 -8,-5 -10,-8 -2,-3 -3,-6 -4,-10 -1,-3 -1,-8 -1,-14l0 -52 14 0 0 47c0,7 1,12 1,15 1,4 3,7 6,9 3,2 7,3 11,3 4,0 8,-1 12,-3 4,-2 6,-5 8,-9 2,-4 2,-10 2,-17l0 -45 15 0 0 85 -13 0zm35 0l0 -85 13 0 0 13c4,-6 7,-10 9,-12 3,-2 6,-3 10,-3 5,0 10,1 15,4l-6 14c-3,-2 -7,-3 -10,-3 -3,0 -6,1 -8,3 -3,1 -5,4 -6,7 -1,6 -2,11 -2,17l0 45 -15 0zm111 -11c-6,5 -11,8 -16,10 -5,2 -10,3 -16,3 -9,0 -16,-3 -21,-7 -5,-5 -8,-11 -8,-18 0,-4 1,-8 3,-11 2,-4 4,-6 8,-8 3,-2 6,-4 10,-5 3,-1 7,-2 13,-2 11,-2 20,-3 25,-5 1,-2 1,-3 1,-4 0,-6 -2,-10 -5,-12 -3,-4 -9,-5 -16,-5 -7,0 -12,1 -15,3 -3,3 -6,7 -7,13l-14 -2c1,-6 3,-11 6,-15 3,-3 7,-6 13,-8 5,-2 12,-3 19,-3 7,0 13,1 18,2 4,2 8,4 10,7 2,2 4,6 4,10 1,2 1,7 1,13l0 19c0,13 0,22 1,25 1,4 2,7 4,11l-16 0c-1,-3 -2,-7 -2,-11zm-1 -32c-6,2 -14,4 -24,6 -6,0 -10,1 -13,2 -2,1 -4,3 -5,5 -2,2 -2,4 -2,7 0,4 1,7 4,9 3,3 7,4 13,4 5,0 10,-1 15,-3 4,-3 7,-6 9,-10 2,-4 2,-8 2,-15l1 -5z"/>
   <path class="fil1" d="M115 1045l0 -109 15 0 0 96 53 0 0 13 -68 0zm84 -94l0 -15 13 0 0 15 -13 0zm0 94l0 -79 13 0 0 79 -13 0zm85 -29l13 2c-2,9 -5,16 -11,21 -6,5 -13,8 -22,8 -11,0 -19,-4 -26,-11 -6,-7 -10,-17 -10,-30 0,-9 2,-16 5,-22 2,-7 7,-12 12,-15 6,-3 12,-4 19,-4 9,0 16,2 21,6 6,4 9,11 11,18l-13 2c-2,-5 -4,-9 -7,-12 -3,-2 -7,-4 -11,-4 -7,0 -12,3 -17,8 -4,5 -6,12 -6,23 0,10 2,18 6,23 4,4 9,7 16,7 5,0 10,-2 13,-5 4,-3 6,-8 7,-15zm78 4l14 1c-2,8 -6,15 -12,19 -6,4 -14,7 -23,7 -11,0 -20,-4 -27,-11 -7,-7 -10,-17 -10,-30 0,-13 3,-23 10,-30 7,-8 16,-11 27,-11 10,0 19,3 25,10 7,7 10,18 10,30 0,1 0,2 0,4l-59 0c1,9 3,15 8,20 4,4 10,7 16,7 5,0 9,-2 13,-4 3,-3 6,-7 8,-12zm-44 -22l44 0c0,-7 -2,-11 -5,-15 -4,-5 -10,-8 -16,-8 -7,0 -12,3 -16,7 -4,4 -6,9 -7,16zm75 47l0 -79 12 0 0 11c5,-8 14,-12 25,-12 4,0 9,0 13,2 4,2 7,4 9,7 2,3 3,6 4,10 0,2 1,6 1,13l0 48 -14 0 0 -48c0,-5 0,-9 -1,-12 -1,-3 -3,-5 -6,-7 -2,-1 -6,-2 -9,-2 -6,0 -11,2 -15,6 -4,3 -6,10 -6,20l0 43 -13 0zm136 -29l13 2c-2,9 -5,16 -11,21 -6,5 -13,8 -22,8 -11,0 -19,-4 -26,-11 -7,-7 -10,-17 -10,-30 0,-9 2,-16 4,-22 3,-7 8,-12 13,-15 6,-3 12,-4 19,-4 9,0 16,2 21,6 6,4 9,11 11,18l-13 2c-2,-5 -4,-9 -7,-12 -3,-2 -7,-4 -11,-4 -7,0 -13,3 -17,8 -4,5 -6,12 -6,23 0,10 2,18 6,23 4,4 9,7 16,7 5,0 9,-2 13,-5 4,-3 6,-8 7,-15zm24 -65l0 -15 13 0 0 15 -13 0zm0 94l0 -79 13 0 0 79 -13 0zm85 -10c-5,4 -9,7 -14,9 -5,2 -9,3 -15,3 -8,0 -15,-2 -20,-7 -4,-4 -7,-9 -7,-16 0,-4 1,-7 3,-10 2,-4 4,-6 7,-8 3,-2 6,-3 9,-4 3,-1 7,-2 12,-2 11,-2 19,-3 24,-5 0,-2 0,-3 0,-3 0,-6 -1,-10 -4,-12 -3,-3 -8,-4 -15,-4 -6,0 -11,1 -14,3 -3,2 -5,6 -6,12l-13 -2c1,-6 3,-10 5,-14 3,-3 7,-6 12,-8 5,-2 11,-2 18,-2 7,0 12,0 17,2 4,2 7,3 9,6 2,2 3,5 4,9 1,2 1,6 1,12l0 18c0,12 0,20 1,24 0,3 1,6 3,9l-14 0c-1,-3 -2,-6 -3,-10zm-1 -29c-5,2 -12,3 -22,5 -5,0 -9,1 -11,2 -3,1 -4,3 -6,5 -1,1 -1,4 -1,6 0,3 1,6 4,9 2,2 6,3 11,3 6,0 10,-1 14,-3 4,-2 7,-5 9,-9 2,-3 2,-8 2,-14l0 -4zm63 27l2 12c-4,1 -7,1 -10,1 -5,0 -8,-1 -11,-2 -3,-2 -5,-4 -6,-6 -1,-3 -1,-8 -1,-16l0 -45 -10 0 0 -11 10 0 0 -19 13 -8 0 27 13 0 0 11 -13 0 0 46c0,4 0,6 1,7 0,1 1,2 2,3 1,0 3,1 5,1 1,0 3,-1 5,-1zm65 12l0 -12c-6,9 -14,14 -25,14 -5,0 -9,-1 -13,-3 -4,-2 -7,-4 -9,-7 -2,-2 -3,-6 -4,-10 0,-2 -1,-6 -1,-12l0 -49 14 0 0 44c0,7 0,11 0,14 1,3 3,6 6,8 2,2 6,3 10,3 4,0 8,-1 11,-3 4,-2 6,-5 7,-8 2,-4 3,-9 3,-16l0 -42 13 0 0 79 -12 0zm33 0l0 -79 12 0 0 12c3,-5 6,-9 8,-11 3,-2 6,-2 9,-2 4,0 9,1 14,4l-5 12c-3,-2 -7,-3 -10,-3 -3,0 -5,1 -8,3 -2,2 -4,4 -5,7 -1,5 -2,10 -2,16l0 41 -13 0zm102 -10c-5,4 -10,7 -14,9 -5,2 -10,3 -15,3 -9,0 -15,-2 -20,-7 -5,-4 -7,-9 -7,-16 0,-4 1,-7 3,-10 1,-4 4,-6 7,-8 2,-2 6,-3 9,-4 3,-1 7,-2 12,-2 11,-2 19,-3 24,-5 0,-2 0,-3 0,-3 0,-6 -1,-10 -4,-12 -3,-3 -8,-4 -15,-4 -6,0 -11,1 -14,3 -3,2 -5,6 -7,12l-13 -2c1,-6 3,-10 6,-14 3,-3 7,-6 12,-8 5,-2 11,-2 18,-2 7,0 12,0 16,2 5,2 8,3 10,6 2,2 3,5 4,9 0,2 1,6 1,12l0 18c0,12 0,20 0,24 1,3 2,6 4,9l-14 0c-2,-3 -3,-6 -3,-10zm-1 -29c-5,2 -12,3 -22,5 -5,0 -9,1 -12,2 -2,1 -4,3 -5,5 -1,1 -2,4 -2,6 0,3 2,6 4,9 3,2 7,3 12,3 5,0 10,-1 14,-3 4,-2 7,-5 9,-9 1,-3 2,-8 2,-14l0 -4zm-731 183l14 2c-2,8 -7,14 -12,19 -6,4 -14,6 -23,6 -11,0 -20,-3 -27,-10 -7,-7 -10,-17 -10,-30 0,-13 3,-24 10,-31 7,-7 16,-11 26,-11 11,0 19,4 26,11 7,7 10,17 10,30 0,1 0,2 0,4l-59 0c1,8 3,15 8,20 4,4 10,6 16,6 5,0 9,-1 13,-3 3,-3 6,-7 8,-13zm-44 -21l44 0c-1,-7 -2,-12 -5,-15 -4,-5 -10,-8 -17,-8 -6,0 -11,2 -15,6 -4,4 -6,10 -7,17zm75 47l0 -79 12 0 0 11c2,-4 5,-7 9,-9 4,-3 9,-4 14,-4 6,0 11,1 15,4 3,2 6,6 8,10 6,-9 14,-14 24,-14 8,0 14,2 18,7 4,4 6,11 6,20l0 54 -13 0 0 -50c0,-5 0,-9 -1,-11 -1,-3 -3,-5 -5,-6 -2,-2 -5,-2 -8,-2 -6,0 -10,2 -14,5 -3,4 -5,10 -5,18l0 46 -14 0 0 -51c0,-6 -1,-11 -3,-14 -2,-3 -6,-4 -11,-4 -3,0 -7,1 -10,3 -3,2 -6,5 -7,8 -1,4 -2,10 -2,17l0 41 -13 0zm170 0l0 -109 21 0 26 77c2,7 4,12 5,16 1,-4 3,-10 6,-17l26 -76 19 0 0 109 -13 0 0 -91 -32 91 -13 0 -32 -93 0 93 -13 0zm176 -10c-5,4 -9,7 -14,9 -5,2 -10,2 -15,2 -8,0 -15,-2 -20,-6 -4,-4 -7,-10 -7,-16 0,-4 1,-7 3,-11 2,-3 4,-5 7,-7 3,-2 6,-4 9,-5 3,0 7,-1 12,-2 11,-1 19,-2 24,-4 0,-2 0,-3 0,-4 0,-5 -1,-9 -4,-11 -3,-3 -8,-5 -15,-5 -6,0 -11,1 -14,4 -3,2 -5,6 -6,11l-13 -1c1,-6 3,-11 5,-14 3,-3 7,-6 12,-8 5,-2 11,-3 18,-3 7,0 12,1 17,3 4,1 7,3 9,6 2,2 3,5 4,9 1,2 1,6 1,12l0 18c0,12 0,20 1,23 0,4 1,7 3,10l-14 0c-1,-3 -2,-6 -3,-10zm-1 -30c-5,2 -12,4 -22,5 -5,1 -9,2 -11,3 -3,1 -4,2 -6,4 -1,2 -1,4 -1,7 0,3 1,6 4,8 2,3 6,4 11,4 6,0 10,-1 14,-3 4,-3 7,-6 9,-10 1,-3 2,-7 2,-13l0 -5zm63 28l2 12c-4,0 -7,1 -10,1 -5,0 -9,-1 -11,-3 -3,-1 -5,-3 -6,-6 -1,-2 -1,-7 -1,-15l0 -46 -10 0 0 -10 10 0 0 -20 13 -8 0 28 13 0 0 10 -13 0 0 46c0,4 0,7 1,8 0,1 1,2 2,2 1,1 2,1 4,1 2,0 4,0 6,0zm67 -14l14 2c-2,8 -6,14 -12,19 -6,4 -13,6 -23,6 -11,0 -20,-3 -27,-10 -7,-7 -10,-17 -10,-30 0,-13 3,-24 10,-31 7,-7 16,-11 27,-11 10,0 19,4 26,11 6,7 10,17 10,30 0,1 -1,2 -1,4l-58 0c0,8 3,15 7,20 4,4 10,6 16,6 5,0 10,-1 13,-3 3,-3 6,-7 8,-13zm-44 -21l44 0c0,-7 -2,-12 -5,-15 -4,-5 -9,-8 -16,-8 -6,0 -11,2 -16,6 -4,4 -6,10 -7,17zm75 47l0 -79 12 0 0 11c2,-4 6,-7 10,-9 4,-3 9,-4 14,-4 6,0 10,1 14,4 4,2 6,6 8,10 6,-9 14,-14 24,-14 8,0 14,2 19,7 4,4 6,11 6,20l0 54 -14 0 0 -50c0,-5 0,-9 -1,-11 -1,-3 -2,-5 -5,-6 -2,-2 -5,-2 -8,-2 -5,0 -10,2 -13,5 -4,4 -6,10 -6,18l0 46 -13 0 0 -51c0,-6 -1,-11 -4,-14 -2,-3 -5,-4 -10,-4 -4,0 -7,1 -11,3 -3,2 -5,5 -7,8 -1,4 -2,10 -2,17l0 41 -13 0zm178 -10c-5,4 -10,7 -14,9 -5,2 -10,2 -15,2 -9,0 -15,-2 -20,-6 -5,-4 -7,-10 -7,-16 0,-4 1,-7 3,-11 1,-3 4,-5 6,-7 3,-2 6,-4 10,-5 3,0 7,-1 12,-2 11,-1 19,-2 24,-4 0,-2 0,-3 0,-4 0,-5 -1,-9 -4,-11 -3,-3 -8,-5 -15,-5 -6,0 -11,1 -14,4 -3,2 -5,6 -7,11l-13 -1c1,-6 3,-11 6,-14 3,-3 7,-6 12,-8 5,-2 11,-3 18,-3 7,0 12,1 16,3 4,1 8,3 10,6 2,2 3,5 4,9 0,2 0,6 0,12l0 18c0,12 1,20 1,23 1,4 2,7 3,10l-13 0c-2,-3 -3,-6 -3,-10zm-1 -30c-5,2 -12,4 -22,5 -6,1 -9,2 -12,3 -2,1 -4,2 -5,4 -1,2 -2,4 -2,7 0,3 2,6 4,8 3,3 7,4 12,4 5,0 10,-1 14,-3 4,-3 7,-6 9,-10 1,-3 2,-7 2,-13l0 -5zm-28 -49l9 -21 18 0 -16 21 -11 0zm91 77l2 12c-4,0 -7,1 -10,1 -5,0 -9,-1 -12,-3 -2,-1 -4,-3 -5,-6 -1,-2 -2,-7 -2,-15l0 -46 -10 0 0 -10 10 0 0 -20 14 -8 0 28 13 0 0 10 -13 0 0 46c0,4 0,7 0,8 1,1 1,2 3,2 1,1 2,1 4,1 2,0 4,0 6,0zm13 -82l0 -15 13 0 0 15 -13 0zm0 94l0 -79 13 0 0 79 -13 0zm85 -29l13 2c-1,9 -5,16 -11,21 -5,5 -13,7 -21,7 -11,0 -20,-3 -26,-10 -7,-7 -10,-17 -10,-30 0,-9 1,-16 4,-23 3,-6 7,-11 13,-14 6,-3 12,-5 19,-5 8,0 15,2 21,7 5,4 9,10 10,18l-13 2c-1,-5 -3,-9 -6,-12 -3,-3 -7,-4 -12,-4 -6,0 -12,3 -16,7 -4,5 -6,13 -6,23 0,11 2,18 6,23 4,5 9,7 16,7 5,0 9,-1 13,-4 3,-4 5,-8 6,-15zm76 19c-5,4 -9,7 -14,9 -5,2 -10,2 -15,2 -8,0 -15,-2 -20,-6 -4,-4 -7,-10 -7,-16 0,-4 1,-7 3,-11 2,-3 4,-5 7,-7 3,-2 6,-4 9,-5 3,0 7,-1 12,-2 11,-1 19,-2 24,-4 0,-2 0,-3 0,-4 0,-5 -1,-9 -4,-11 -3,-3 -8,-5 -15,-5 -6,0 -11,1 -14,4 -3,2 -5,6 -6,11l-13 -1c1,-6 3,-11 5,-14 3,-3 7,-6 12,-8 5,-2 11,-3 18,-3 7,0 12,1 17,3 4,1 7,3 9,6 2,2 3,5 4,9 1,2 1,6 1,12l0 18c0,12 0,20 1,23 0,4 1,7 3,10l-14 0c-1,-3 -2,-6 -3,-10zm-1 -30c-5,2 -12,4 -22,5 -5,1 -9,2 -11,3 -3,1 -4,2 -6,4 -1,2 -1,4 -1,7 0,3 1,6 4,8 2,3 6,4 11,4 6,0 10,-1 14,-3 4,-3 7,-6 9,-10 1,-3 2,-7 2,-13l0 -5zm-938 197l0 12 -72 0c0,-3 1,-6 2,-9 2,-5 5,-10 9,-14 4,-5 10,-11 17,-17 12,-9 20,-17 24,-23 5,-5 7,-11 7,-16 0,-5 -2,-10 -6,-13 -4,-4 -9,-6 -15,-6 -6,0 -12,2 -15,6 -4,4 -6,9 -6,16l-14 -1c1,-11 5,-18 11,-24 6,-5 14,-8 24,-8 11,0 19,3 25,9 6,6 9,13 9,21 0,5 -1,9 -2,13 -2,4 -5,9 -9,14 -4,4 -11,11 -21,19 -8,6 -13,11 -15,13 -3,3 -4,5 -6,8l53 0zm15 -41c0,-13 1,-23 4,-31 3,-8 6,-14 12,-18 5,-5 11,-7 19,-7 6,0 11,1 16,4 4,2 8,5 11,10 2,4 5,10 6,16 2,6 3,15 3,26 0,12 -2,23 -4,31 -3,8 -7,14 -12,18 -5,4 -12,6 -20,6 -10,0 -18,-3 -24,-11 -8,-9 -11,-24 -11,-44zm14 0c0,18 2,30 6,35 4,6 9,9 15,9 6,0 12,-3 16,-9 4,-5 6,-17 6,-35 0,-18 -2,-30 -6,-36 -4,-6 -10,-9 -16,-9 -6,0 -11,3 -15,8 -4,7 -6,19 -6,37zm120 53l-13 0 0 -85c-3,3 -7,6 -13,10 -5,3 -9,5 -14,6l0 -13c8,-3 14,-7 20,-12 6,-5 10,-10 12,-15l8 0 0 109zm55 -59c-5,-2 -9,-4 -12,-8 -3,-4 -4,-9 -4,-14 0,-8 3,-14 9,-20 5,-5 13,-8 22,-8 10,0 17,3 23,8 6,6 9,13 9,21 0,5 -1,9 -4,13 -3,4 -7,6 -12,8 7,3 12,6 15,11 3,5 5,11 5,17 0,10 -3,17 -10,24 -6,6 -15,9 -26,9 -10,0 -19,-3 -25,-9 -7,-7 -10,-15 -10,-24 0,-7 1,-13 5,-18 4,-5 9,-8 15,-10zm-2 -22c0,5 1,9 5,12 3,4 7,5 13,5 5,0 9,-1 12,-5 4,-3 5,-7 5,-11 0,-5 -2,-10 -5,-13 -3,-3 -7,-5 -13,-5 -5,0 -9,2 -12,5 -4,3 -5,7 -5,12zm-5 50c0,4 1,8 3,11 2,4 4,6 8,8 4,2 7,3 12,3 6,0 11,-2 15,-6 5,-4 7,-9 7,-16 0,-6 -3,-11 -7,-15 -4,-5 -9,-7 -16,-7 -6,0 -11,2 -15,6 -5,5 -7,10 -7,16zm79 31l0 -15 15 0 0 15 -15 0zm105 -12l0 12 -72 0c-1,-3 0,-6 1,-9 2,-5 5,-10 9,-14 4,-5 10,-11 17,-17 12,-9 20,-17 24,-23 5,-5 7,-11 7,-16 0,-5 -2,-10 -6,-13 -4,-4 -9,-6 -15,-6 -6,0 -11,2 -15,6 -4,4 -6,9 -6,16l-14 -1c1,-11 5,-18 11,-24 6,-5 14,-8 24,-8 11,0 19,3 25,9 6,6 9,13 9,21 0,5 0,9 -2,13 -2,4 -5,9 -9,14 -4,4 -11,11 -21,19 -8,6 -13,11 -15,13 -2,3 -4,5 -6,8l54 0z"/>
   <g>
    <path class="fil2" d="M955 606c4,3 9,2 12,-1l123 -131c1,-1 2,-3 2,-6 0,-2 -1,-4 -3,-6 -1,-1 -3,-2 -6,-2 -2,0 -4,1 -5,3l-123 131c-3,3 -3,8 0,12z"/>
    <path class="fil2" d="M759 605c1,2 3,3 5,3 3,0 5,-1 6,-2 2,-2 3,-4 3,-6 0,-2 -1,-4 -2,-6l-123 -131c-2,-2 -4,-3 -6,-3 -2,0 -4,1 -6,2 -2,2 -2,4 -3,6 0,3 1,5 3,6l123 131z"/>
    <path class="fil2" d="M1053 561l-41 41c-1,1 -2,4 -2,6 0,2 1,4 2,6 2,1 4,2 6,2 2,0 4,-1 6,-2l41 -41c3,-4 3,-9 0,-12 -3,-3 -8,-3 -12,0z"/>
    <path class="fil2" d="M661 561c-4,3 -4,8 0,12l40 41c4,3 9,3 12,-1 3,-3 3,-8 0,-11l-41 -41c-3,-3 -8,-3 -11,0z"/>
    <path class="fil2" d="M688 378l68 29 0 111c0,3 3,6 6,7 32,11 66,17 101,17 34,0 68,-6 101,-17 3,-1 5,-4 5,-7l0 -83c0,-5 -4,-8 -8,-8 -5,0 -8,3 -8,8l0 77c-59,18 -122,18 -180,0l0 -98 87 38c2,0 4,0 6,0l160 -69 0 46c-11,4 -18,16 -16,28 2,11 13,20 25,20 12,0 22,-9 24,-20 2,-12 -5,-24 -16,-28l0 -59c0,-3 -2,-6 -5,-7l-172 -74c-2,-1 -4,-1 -6,0l-70 30c-2,1 -4,3 -5,5 -1,2 -1,4 0,6 1,2 3,4 5,4 2,1 4,1 6,0l67 -28 151 64 -151 65 -151 -65 56 -24c2,0 3,-2 4,-4 1,-2 1,-4 0,-6 -1,-2 -2,-4 -4,-5 -2,-1 -5,-1 -7,0l-73 32c-3,1 -5,4 -5,7 0,4 2,7 5,8zm347 82c-4,0 -7,-2 -8,-5 -1,-3 -1,-6 2,-9 2,-2 6,-3 9,-1 3,1 5,4 5,7 0,5 -4,8 -8,8z"/>
    <path class="fil2" d="M855 567l0 16c0,5 3,8 8,8 4,0 8,-3 8,-8l0 -16c0,-5 -4,-8 -8,-8 -5,0 -8,3 -8,8z"/>
    <path class="fil2" d="M914 561l-16 16c-2,2 -3,4 -3,6 0,2 1,5 3,6 1,2 3,2 6,2 2,0 4,0 5,-2l17 -16c3,-4 3,-9 0,-12 -3,-3 -9,-3 -12,0z"/>
    <path class="fil2" d="M800 561c-4,3 -4,8 0,12l16 16c3,3 8,3 12,0 3,-3 3,-8 0,-12l-17 -16c-3,-3 -8,-3 -11,0z"/>
    <path class="fil2" d="M1102 698l-231 -48c0,-7 4,-15 10,-19 6,-5 13,-6 21,-4l153 41c1,0 2,0 2,0 4,0 8,-3 8,-7 1,-4 -2,-8 -6,-9l-153 -41c-12,-3 -25,-1 -35,7 -3,2 -6,5 -8,8 -2,-3 -5,-6 -8,-8 -10,-8 -23,-10 -36,-7l-153 41c-14,4 -24,17 -24,32l0 10 -18 4c-4,1 -7,4 -7,8l0 33c0,2 1,4 3,6 2,1 4,2 6,2l107 -11c5,-1 8,-5 8,-9 -1,-5 -5,-8 -9,-8l-98 11 0 -17 221 -46 0 31c0,4 3,8 8,8 4,0 8,-4 8,-8l0 -31 221 46 0 17 -196 -21c-2,0 -4,1 -6,2 -2,2 -3,4 -3,6l0 5c0,5 -3,8 -8,8l-33 0c-4,0 -8,-3 -8,-8l0 -5c0,-2 -1,-4 -3,-6 -1,-1 -4,-2 -6,-2l-65 7c-4,1 -8,5 -7,9 0,5 4,8 9,7l56 -5c2,11 12,20 24,20l33 0c12,0 22,-9 24,-20l196 20c1,0 1,0 1,0 5,0 8,-4 8,-8l0 -33c0,-4 -3,-7 -6,-8zm-444 -14c0,-8 5,-14 12,-16l154 -41c7,-2 15,-1 21,4 6,4 9,12 10,19l-197 41 0 -7z"/>
   </g>
   <path class="fil4" d="M193 565l15 4c-3,12 -9,21 -16,27 -8,6 -18,9 -29,9 -12,0 -21,-2 -29,-7 -7,-5 -12,-12 -16,-21 -4,-9 -6,-18 -6,-29 0,-11 2,-21 7,-29 4,-9 10,-15 18,-19 8,-5 17,-7 26,-7 11,0 20,3 27,8 8,6 13,14 16,24l-14 3c-3,-8 -6,-14 -11,-17 -5,-4 -11,-6 -18,-6 -8,0 -15,2 -21,6 -6,4 -9,10 -12,16 -2,7 -3,14 -3,21 0,9 1,17 4,24 3,7 7,12 12,16 6,3 12,5 19,5 8,0 15,-3 20,-7 6,-5 9,-12 11,-21zm26 -1c0,-15 4,-25 12,-32 7,-6 15,-9 25,-9 10,0 19,4 26,11 7,7 10,16 10,29 0,10 -1,18 -4,24 -3,5 -8,10 -13,13 -6,3 -13,5 -19,5 -11,0 -20,-4 -27,-11 -7,-7 -10,-17 -10,-30zm13 0c0,10 3,18 7,22 4,5 10,8 17,8 6,0 12,-3 16,-8 5,-5 7,-12 7,-22 0,-10 -2,-17 -7,-22 -4,-5 -10,-8 -16,-8 -7,0 -13,3 -17,7 -4,5 -7,13 -7,23zm76 39l0 -78 12 0 0 11c6,-9 14,-13 25,-13 5,0 9,1 13,3 4,1 7,3 9,6 2,3 3,6 4,10 0,3 1,7 1,13l0 48 -14 0 0 -48c0,-5 0,-9 -1,-12 -1,-2 -3,-4 -6,-6 -2,-2 -5,-3 -9,-3 -6,0 -10,2 -15,6 -4,3 -6,10 -6,20l0 43 -13 0zm106 0l-30 -78 14 0 17 47c2,5 4,10 5,16 1,-5 3,-10 5,-15l18 -48 13 0 -30 78 -12 0zm54 -93l0 -15 13 0 0 15 -13 0zm0 93l0 -78 13 0 0 78 -13 0zm62 -12l2 12c-4,1 -7,1 -10,1 -5,0 -8,0 -11,-2 -3,-2 -5,-4 -6,-6 -1,-3 -1,-8 -1,-16l0 -45 -10 0 0 -10 10 0 0 -20 13 -8 0 28 13 0 0 10 -13 0 0 46c0,4 0,6 1,7 0,1 1,2 2,3 1,1 3,1 5,1 1,0 3,0 5,-1zm67 -13l14 2c-2,8 -6,14 -12,18 -6,5 -13,7 -23,7 -11,0 -20,-4 -27,-11 -6,-7 -10,-17 -10,-29 0,-14 4,-24 10,-31 7,-7 16,-11 27,-11 10,0 19,4 25,11 7,7 10,17 10,30 0,1 0,2 0,3l-58 0c0,9 3,16 7,20 4,5 10,7 16,7 5,0 10,-1 13,-4 3,-2 6,-7 8,-12zm-43 -22l43 0c0,-6 -2,-11 -5,-14 -4,-6 -9,-8 -16,-8 -6,0 -11,2 -16,6 -4,4 -6,10 -6,16z"/>
  </g>
 </g>
</svg>
