<?xml version="1.0" encoding="UTF-8"?>
<!DOCTYPE svg PUBLIC "-//W3C//DTD SVG 1.1//EN" "http://www.w3.org/Graphics/SVG/1.1/DTD/svg11.dtd">
<!-- Creator: CorelDRAW X7 -->
<svg xmlns="http://www.w3.org/2000/svg" xml:space="preserve" width="1189px" height="1773px" version="1.1" style="shape-rendering:geometricPrecision; text-rendering:geometricPrecision; image-rendering:optimizeQuality; fill-rule:evenodd; clip-rule:evenodd"
viewBox="0 0 1189 1773"
 xmlns:xlink="http://www.w3.org/1999/xlink">
 <defs>
  <style type="text/css">
   <![CDATA[
    .str0 {stroke:#F5C09B;stroke-width:2.36221}
    .fil4 {fill:#FEFEFE}
    .fil1 {fill:#3F3D56}
    .fil3 {fill:#EE4622}
    .fil0 {fill:#F5C09B}
    .fil2 {fill:white}
   ]]>
  </style>
 </defs>
 <g id="Camada_x0020_1">
  <metadata id="CorelCorpID_0Corel-Layer"/>
  <g id="_2586630770720">
   <rect class="fil0 str0" transform="matrix(-2.51426E-014 -0.941639 -0.941639 2.51426E-014 1188.94 1772.97)" width="1883" height="1263" rx="5" ry="5"/>
   <path class="fil1" d="M247 364c18,20 30,36 58,43 45,11 144,-17 193,-31 11,-4 25,-7 36,-12 6,-1 14,-4 20,-6l136 -46c53,-17 105,-35 158,-50 27,-8 53,-17 80,-23 67,-16 196,-40 261,-36l0 -5c-47,-4 -123,8 -171,17 -62,11 -98,19 -159,38 -101,31 -201,64 -301,97 -57,19 -181,59 -240,54 -32,-4 -46,-19 -65,-40 -7,-8 -20,-23 -25,-32 -7,-10 -17,-20 -26,-29 -55,-55 -120,-79 -183,-104l-18 -6 -1 4 36 15c44,17 93,36 133,68 16,12 29,24 42,39 9,10 31,41 36,45z"/>
   <path class="fil1" d="M80 1444l0 -68 13 0 16 48c2,4 3,8 3,10 1,-3 2,-6 4,-11l16 -47 12 0 0 68 -8 0 0 -57 -20 57 -8 0 -20 -58 0 58 -8 0zm109 -7c-3,3 -6,5 -9,6 -2,1 -5,2 -9,2 -5,0 -9,-2 -12,-4 -3,-3 -4,-6 -4,-10 0,-3 0,-5 1,-7 1,-2 3,-3 4,-5 2,-1 4,-2 6,-2 2,-1 5,-1 8,-2 7,0 11,-1 15,-2 0,-2 0,-2 0,-3 0,-3 -1,-5 -3,-7 -2,-2 -5,-3 -9,-3 -4,0 -7,1 -9,3 -2,1 -3,3 -4,7l-8 -1c1,-4 2,-7 4,-9 1,-2 4,-3 7,-5 3,-1 7,-1 11,-1 4,0 8,0 10,1 3,1 5,2 6,4 1,1 2,3 3,5 0,2 0,4 0,8l0 11c0,8 0,13 1,15 0,2 1,4 2,6l-9 0c-1,-2 -1,-4 -2,-7zm0 -18c-3,1 -8,2 -14,3 -3,1 -6,1 -7,2 -2,0 -3,1 -3,2 -1,2 -2,3 -2,4 0,3 1,4 3,6 2,1 4,2 7,2 3,0 6,-1 9,-2 2,-1 4,-3 5,-6 1,-2 2,-4 2,-8l0 -3zm21 25l0 -49 7 0 0 7c2,-3 4,-6 5,-7 2,-1 4,-1 6,-1 2,0 5,1 8,2l-3 8c-2,-1 -4,-2 -6,-2 -2,0 -3,1 -5,2 -1,1 -2,2 -3,4 -1,3 -1,6 -1,10l0 26 -8 0zm63 -18l8 1c-1,5 -3,10 -7,13 -3,3 -8,5 -13,5 -7,0 -12,-3 -16,-7 -4,-4 -6,-11 -6,-19 0,-5 1,-10 2,-14 2,-3 5,-6 8,-8 4,-2 8,-3 12,-3 5,0 10,1 13,4 3,2 5,6 6,11l-8 1c0,-3 -2,-5 -4,-7 -2,-2 -4,-3 -7,-3 -4,0 -7,2 -10,5 -3,3 -4,8 -4,14 0,7 1,11 4,14 2,3 6,5 10,5 3,0 6,-1 8,-3 2,-2 3,-5 4,-9zm49 2l8 1c-1,5 -4,9 -7,11 -4,3 -9,5 -14,5 -7,0 -13,-3 -17,-7 -4,-4 -7,-11 -7,-18 0,-9 3,-15 7,-20 4,-4 9,-6 16,-6 7,0 12,2 16,6 4,5 6,11 6,19 0,1 0,1 0,2l-36 0c0,6 2,10 4,13 3,2 7,4 11,4 3,0 5,-1 7,-3 3,-1 4,-4 6,-7zm-28 -14l28 0c-1,-4 -2,-7 -3,-9 -3,-3 -7,-5 -11,-5 -4,0 -7,2 -9,4 -3,3 -4,6 -5,10zm46 30l0 -68 9 0 0 68 -9 0zm18 -25c0,-9 3,-16 8,-20 4,-4 9,-5 15,-5 7,0 12,2 17,6 4,5 6,11 6,18 0,7 -1,12 -3,15 -2,4 -4,7 -8,9 -4,2 -7,3 -12,3 -7,0 -12,-3 -16,-7 -5,-4 -7,-11 -7,-19zm9 0c0,6 1,11 4,14 3,3 6,5 10,5 4,0 8,-2 11,-5 2,-3 4,-8 4,-14 0,-6 -2,-11 -4,-14 -3,-3 -7,-5 -11,-5 -4,0 -7,2 -10,5 -3,3 -4,8 -4,14zm74 25l0 -68 9 0 0 28 35 0 0 -28 9 0 0 68 -9 0 0 -32 -35 0 0 32 -9 0zm100 -16l9 1c-1,5 -4,9 -8,11 -3,3 -8,5 -13,5 -8,0 -13,-3 -17,-7 -5,-4 -7,-11 -7,-18 0,-9 2,-15 7,-20 4,-4 9,-6 16,-6 7,0 12,2 16,6 4,5 6,11 6,19 0,1 0,1 0,2l-36 0c0,6 2,10 4,13 3,2 6,4 11,4 3,0 5,-1 7,-3 2,-1 4,-4 5,-7zm-27 -14l27 0c0,-4 -1,-7 -3,-9 -2,-3 -6,-5 -10,-5 -4,0 -7,2 -9,4 -3,3 -4,6 -5,10zm46 30l0 -49 8 0 0 7c3,-6 9,-8 15,-8 3,0 6,0 8,1 3,1 5,3 6,4 1,2 2,4 3,6 0,2 0,5 0,9l0 30 -8 0 0 -30c0,-4 -1,-6 -1,-8 -1,-1 -2,-3 -4,-4 -1,-1 -3,-1 -5,-1 -4,0 -7,1 -9,3 -3,2 -4,7 -4,13l0 27 -9 0zm53 0l0 -49 7 0 0 7c2,-3 4,-6 5,-7 2,-1 4,-1 6,-1 2,0 5,1 8,2l-3 8c-2,-1 -4,-2 -6,-2 -2,0 -3,1 -5,2 -1,1 -2,2 -3,4 -1,3 -1,6 -1,10l0 26 -8 0zm31 -58l0 -10 8 0 0 10 -8 0zm0 58l0 -49 8 0 0 49 -8 0zm52 18l0 -24c-1,2 -3,4 -5,5 -3,1 -5,2 -8,2 -5,0 -10,-3 -15,-7 -4,-5 -6,-11 -6,-19 0,-5 1,-10 3,-14 1,-3 4,-6 7,-8 3,-2 7,-3 11,-3 6,0 11,2 14,7l0 -6 7 0 0 67 -8 0zm-25 -43c0,6 1,11 4,14 2,3 5,5 9,5 4,0 7,-2 9,-5 3,-3 4,-7 4,-13 0,-7 -1,-12 -4,-15 -3,-3 -6,-5 -9,-5 -4,0 -7,2 -10,5 -2,3 -3,7 -3,14zm78 25l0 -8c-3,6 -9,9 -15,9 -3,0 -6,-1 -8,-2 -3,-1 -5,-3 -6,-4 -1,-2 -2,-4 -2,-6 -1,-2 -1,-5 -1,-8l0 -30 9 0 0 27c0,4 0,7 0,8 1,3 2,4 3,6 2,1 4,1 7,1 2,0 4,0 7,-1 2,-2 3,-4 4,-6 1,-2 1,-5 1,-9l0 -26 9 0 0 49 -8 0zm54 -16l9 1c-2,5 -4,9 -8,11 -3,3 -8,5 -14,5 -7,0 -13,-3 -17,-7 -4,-4 -6,-11 -6,-18 0,-9 2,-15 6,-20 5,-4 10,-6 17,-6 6,0 12,2 16,6 4,5 6,11 6,19 0,1 0,1 0,2l-36 0c0,6 1,10 4,13 3,2 6,4 10,4 3,0 6,-1 8,-3 2,-1 4,-4 5,-7zm-27 -14l27 0c0,-4 -1,-7 -3,-9 -3,-3 -6,-5 -10,-5 -4,0 -7,2 -10,4 -2,3 -4,6 -4,10zm-699 113l8 -1c1,4 2,6 3,9 2,2 4,4 7,5 3,1 7,2 10,2 4,0 7,-1 9,-2 3,-1 5,-2 6,-4 1,-2 2,-3 2,-6 0,-2 -1,-3 -2,-5 -1,-2 -3,-3 -6,-4 -2,-1 -6,-2 -12,-3 -6,-2 -10,-3 -13,-5 -3,-1 -5,-3 -7,-6 -2,-2 -2,-5 -2,-8 0,-4 1,-7 3,-10 1,-3 4,-5 8,-7 4,-1 8,-2 12,-2 5,0 10,1 14,3 3,1 6,4 8,7 2,3 4,6 4,10l-9 1c0,-4 -2,-7 -5,-10 -2,-2 -6,-3 -11,-3 -6,0 -10,1 -12,3 -3,2 -4,4 -4,7 0,3 1,5 3,6 2,2 6,3 13,5 8,2 12,3 15,4 4,2 7,4 9,7 2,3 3,6 3,10 0,3 -1,7 -3,10 -2,3 -5,5 -9,7 -4,2 -8,3 -13,3 -6,0 -11,-1 -16,-3 -4,-2 -7,-4 -9,-8 -3,-3 -4,-7 -4,-12zm65 -36l0 -10 8 0 0 10 -8 0zm0 58l0 -49 8 0 0 49 -8 0zm52 18l0 -24c-1,2 -3,4 -6,5 -2,1 -4,2 -7,2 -6,0 -11,-3 -15,-7 -4,-5 -6,-11 -6,-19 0,-5 1,-9 2,-13 2,-4 5,-7 8,-9 3,-2 7,-3 10,-3 6,0 11,2 15,7l0 -6 7 0 0 67 -8 0zm-26 -43c0,6 2,11 4,14 3,3 6,5 10,5 3,0 6,-2 9,-4 2,-3 4,-8 4,-14 0,-7 -2,-11 -4,-15 -3,-3 -6,-5 -10,-5 -3,0 -6,2 -9,5 -2,3 -4,8 -4,14zm79 25l0 -8c-4,6 -9,9 -15,9 -3,0 -6,-1 -9,-2 -2,-1 -4,-2 -5,-4 -1,-2 -2,-4 -3,-6 0,-2 0,-4 0,-8l0 -30 8 0 0 27c0,4 0,7 1,9 0,2 1,3 3,5 2,1 4,2 6,2 3,0 5,-1 7,-2 2,-2 4,-3 5,-5 1,-3 1,-6 1,-10l0 -26 8 0 0 49 -7 0zm54 -16l8 1c-1,5 -4,9 -7,12 -4,2 -8,4 -14,4 -7,0 -13,-2 -17,-7 -4,-4 -6,-10 -6,-18 0,-8 2,-15 6,-19 4,-5 10,-7 16,-7 7,0 12,2 16,6 5,5 7,11 7,19 0,1 0,1 0,2l-37 0c0,6 2,10 5,13 2,3 6,4 10,4 3,0 6,-1 8,-2 2,-2 4,-5 5,-8zm-27 -13l27 0c-1,-4 -2,-8 -3,-10 -3,-3 -6,-4 -11,-4 -3,0 -6,1 -9,3 -3,3 -4,6 -4,11zm46 -29l0 -10 8 0 0 10 -8 0zm0 58l0 -49 8 0 0 49 -8 0zm21 0l0 -49 7 0 0 7c2,-3 4,-5 5,-7 2,-1 4,-1 6,-1 2,0 5,1 8,2l-3 8c-2,-1 -4,-2 -6,-2 -2,0 -3,1 -5,2 -1,1 -2,3 -3,5 -1,2 -1,6 -1,9l0 26 -8 0zm63 -6c-3,2 -6,4 -9,5 -3,1 -6,2 -9,2 -5,0 -10,-2 -12,-4 -3,-3 -5,-6 -5,-10 0,-3 1,-5 2,-7 1,-2 2,-3 4,-4 2,-2 4,-3 6,-3 2,-1 4,-1 8,-1 6,-1 11,-2 14,-3 0,-1 0,-2 0,-2 0,-4 0,-6 -2,-8 -2,-1 -5,-2 -9,-2 -4,0 -7,0 -9,2 -2,1 -3,4 -4,7l-8 -1c0,-4 2,-6 3,-9 2,-2 4,-3 8,-4 3,-2 7,-2 11,-2 4,0 7,0 10,1 3,1 4,3 6,4 1,1 2,3 2,6 1,1 1,4 1,7l0 11c0,8 0,13 0,15 1,2 1,4 2,6l-8 0c-1,-2 -2,-4 -2,-6zm-1 -19c-3,1 -7,3 -13,3 -4,1 -6,1 -7,2 -2,1 -3,2 -4,3 -1,1 -1,2 -1,4 0,2 1,4 3,5 1,2 4,2 7,2 3,0 6,0 8,-2 3,-1 5,-3 6,-6 1,-1 1,-4 1,-8l0 -3zm79 25l0 -6c-3,4 -7,7 -14,7 -3,0 -7,-1 -10,-3 -3,-3 -6,-6 -8,-9 -2,-4 -3,-9 -3,-14 0,-5 1,-9 3,-13 2,-4 4,-7 7,-9 3,-2 7,-3 11,-3 3,0 6,0 8,2 2,1 4,3 6,5l0 -25 8 0 0 68 -8 0zm-26 -25c0,7 1,11 4,14 3,3 6,5 9,5 4,0 7,-1 10,-4 2,-3 3,-8 3,-14 0,-7 -1,-12 -4,-15 -2,-3 -5,-4 -9,-4 -4,0 -7,1 -9,4 -3,3 -4,8 -4,14zm80 9l9 1c-1,5 -4,9 -8,12 -3,2 -8,4 -14,4 -7,0 -12,-2 -16,-7 -5,-4 -7,-10 -7,-18 0,-8 2,-15 7,-19 4,-5 9,-7 16,-7 7,0 12,2 16,6 4,5 6,11 6,19 0,1 0,1 0,2l-36 0c0,6 2,10 4,13 3,3 6,4 10,4 3,0 6,-1 8,-2 2,-2 4,-5 5,-8zm-27 -13l27 0c0,-4 -1,-8 -3,-10 -2,-3 -6,-4 -10,-4 -4,0 -7,1 -10,3 -2,3 -4,6 -4,11zm61 29l26 -68 10 0 27 68 -10 0 -8 -21 -28 0 -8 21 -9 0zm19 -28l23 0 -7 -19c-2,-5 -3,-10 -5,-14 0,5 -2,9 -3,13l-8 20zm50 28l0 -49 7 0 0 7c2,-3 4,-5 6,-7 1,-1 3,-1 5,-1 3,0 6,1 9,2l-3 8c-2,-1 -4,-2 -6,-2 -2,0 -4,1 -5,2 -2,1 -3,3 -3,5 -1,2 -2,6 -2,9l0 26 -8 0zm63 -6c-3,2 -6,4 -8,5 -3,1 -6,2 -10,2 -5,0 -9,-2 -12,-4 -3,-3 -4,-6 -4,-10 0,-3 0,-5 1,-7 1,-2 3,-3 5,-4 1,-2 3,-3 6,-3 1,-1 4,-1 7,-1 7,-1 12,-2 15,-3 0,-1 0,-2 0,-2 0,-4 -1,-6 -3,-8 -2,-1 -5,-2 -9,-2 -4,0 -7,0 -9,2 -2,1 -3,4 -4,7l-8 -1c1,-4 2,-6 4,-9 1,-2 4,-3 7,-4 3,-2 7,-2 11,-2 4,0 8,0 10,1 3,1 5,3 6,4 1,1 2,3 3,6 0,1 0,4 0,7l0 11c0,8 0,13 1,15 0,2 1,4 2,6l-9 0c-1,-2 -1,-4 -2,-6zm0 -19c-3,1 -8,3 -14,3 -3,1 -6,1 -7,2 -1,1 -3,2 -3,3 -1,1 -2,2 -2,4 0,2 1,4 3,5 2,2 4,2 7,2 4,0 6,0 9,-2 2,-1 4,-3 5,-6 1,-1 2,-4 2,-8l0 -3zm53 25l0 -8c-4,6 -9,9 -16,9 -3,0 -5,-1 -8,-2 -2,-1 -4,-2 -5,-4 -2,-2 -2,-4 -3,-6 0,-2 0,-4 0,-8l0 -30 8 0 0 27c0,4 0,7 0,9 1,2 2,3 4,5 1,1 4,2 6,2 2,0 5,-1 7,-2 2,-2 4,-3 5,-5 0,-3 1,-6 1,-10l0 -26 8 0 0 49 -7 0zm-18 -55l6 -13 11 0 -10 13 -7 0zm38 -3l0 -10 8 0 0 10 -8 0zm-10 77l1 -7c2,0 3,0 4,0 2,0 3,0 4,-1 1,-2 1,-4 1,-9l0 -51 8 0 0 51c0,6 0,11 -2,13 -2,3 -5,4 -10,4 -2,0 -4,0 -6,0zm28 -44c0,-9 3,-15 8,-20 4,-3 9,-5 15,-5 7,0 12,2 16,6 5,5 7,11 7,19 0,6 -1,11 -3,14 -2,4 -5,7 -8,9 -4,2 -8,3 -12,3 -7,0 -12,-2 -17,-7 -4,-4 -6,-10 -6,-19zm8 0c0,7 2,11 5,14 2,3 6,5 10,5 4,0 7,-2 10,-5 3,-3 4,-8 4,-14 0,-6 -1,-11 -4,-14 -3,-3 -6,-4 -10,-4 -4,0 -8,1 -10,4 -3,3 -5,8 -5,14z"/>
   <path class="fil1" d="M956 500l46 47c2,2 5,2 8,1 2,-1 4,-4 3,-7 -1,-12 -5,-23 -10,-33 -5,-11 -12,-20 -20,-29l-3 -3 1 -1c4,-4 4,-9 2,-13l10 -21c2,-3 1,-8 -2,-11l-5 -5c-3,-3 -8,-4 -11,-2l-21 10c-4,-2 -9,-2 -13,2l-1 1 -3 -3c-17,-16 -39,-27 -62,-30 0,0 -1,0 -1,0l0 0c-3,0 -5,1 -6,4 -1,2 0,5 1,7l47 46c-3,3 -4,8 -2,12l-30 34c-2,2 -2,5 0,7 2,1 5,1 7,-1l29 -33 17 17 -106 93c-1,2 -3,1 -4,0 -1,-1 -2,-3 0,-4l50 -56c1,-2 1,-5 -1,-7 -2,-2 -5,-2 -7,0l-49 57c-5,5 -5,12 0,17 5,5 12,5 17,0l107 -94c2,1 3,1 5,1 2,0 5,-1 7,-3zm39 12c3,7 6,14 7,22l-40 -40 11 -11 3 3c8,8 14,16 19,26zm-16 -81c0,0 0,0 0,1l5 5c1,0 1,0 1,0l-9 17 -14 -14 17 -9zm-97 -17c18,4 35,13 48,26l3 3 -11 11 -40 -40zm41 54c-1,0 -1,-1 0,-1l25 -26c0,0 1,0 1,0l26 26c0,0 0,1 0,1l-26 25c0,1 -1,1 -1,0l-25 -25zm104 105c2,2 5,2 6,0 2,-2 2,-5 0,-6l-12 -12c-1,-2 -4,-2 -6,0 -2,1 -2,4 0,6l12 12zm19 -21c3,1 5,-1 6,-3 1,-3 -1,-5 -3,-6l-19 -5c-2,-1 -5,0 -6,3 0,2 1,5 4,6l18 5zm-45 12c-2,1 -4,3 -3,6l5 19c1,2 4,3 6,3 2,-1 4,-4 3,-6l-5 -19c-1,-2 -3,-4 -6,-3zm82 41c0,3 2,5 5,5 2,0 4,-2 4,-5 0,-2 -2,-4 -4,-4 -3,0 -5,2 -5,4zm-23 31c0,-11 -9,-20 -21,-20 -11,0 -20,9 -20,20 0,12 9,21 20,21 12,0 21,-9 21,-21zm-32 0c0,-6 5,-11 11,-11 7,0 12,5 12,11 0,6 -5,11 -12,11 -6,0 -11,-5 -11,-11zm88 -96c0,-8 -6,-14 -14,-14 -7,0 -14,6 -14,14 0,7 7,14 14,14 8,0 14,-7 14,-14zm-14 4c-2,0 -4,-2 -4,-4 0,-3 2,-5 4,-5 3,0 5,2 5,5 0,2 -2,4 -5,4zm-75 155c0,2 2,5 5,5 2,0 4,-3 4,-5 0,-3 -2,-5 -4,-5 -3,0 -5,2 -5,5zm68 -276c-8,0 -14,6 -14,14 0,7 6,14 14,14 8,0 14,-7 14,-14 0,-8 -6,-14 -14,-14zm0 18c-2,0 -4,-2 -4,-4 0,-3 2,-5 4,-5 3,0 5,2 5,5 0,2 -2,4 -5,4zm36 96c3,0 5,-3 5,-5l0 -115c0,-8 -6,-14 -14,-14l-94 0c-9,0 -13,10 -8,16l49 61c1,1 2,4 2,6l-6 86c-1,3 -3,6 -6,8l-62 26c-9,3 -13,12 -11,21l7 29c1,3 0,7 -2,9l-43 40c-6,6 -2,17 7,17l167 0c8,0 14,-6 14,-14l0 -154c0,-3 -2,-5 -5,-5 -2,0 -4,2 -4,5l0 154c0,3 -2,5 -5,5l-167 0c0,0 -1,-1 0,-1l42 -40c5,-5 7,-12 5,-18l-7 -29c-1,-5 1,-9 5,-11l63 -26c6,-3 11,-8 11,-15l6 -87c0,-4 -1,-9 -4,-12l-49 -61c0,0 0,-1 1,-1l94 0c3,0 5,2 5,5l0 115c0,2 2,5 4,5zm-36 148c8,0 14,-6 14,-14 0,-8 -6,-14 -14,-14 -8,0 -14,6 -14,14 0,8 6,14 14,14zm0 -19c3,0 5,2 5,5 0,2 -2,4 -5,4 -2,0 -4,-2 -4,-4 0,-3 2,-5 4,-5zm7 -173c0,2 2,5 5,5 2,0 4,-3 4,-5 0,-3 -2,-5 -4,-5 -3,0 -5,2 -5,5z"/>
   <g>
    <path class="fil2" d="M138 1259c0,-12 -10,-21 -21,-21 -12,0 -21,9 -21,21 0,12 9,21 21,21 11,0 21,-9 21,-21zm-21 10c-6,0 -11,-4 -11,-10 0,-6 5,-10 11,-10 6,0 10,4 10,10 0,6 -4,10 -10,10z"/>
    <path class="fil2" d="M85 1327l63 0c3,0 5,-2 5,-5l0 -5c0,-21 -16,-37 -36,-37 -20,0 -37,16 -37,37l0 5c0,3 3,5 5,5zm32 -37c14,0 26,12 26,27l-52 0c0,-15 11,-27 26,-27z"/>
    <path class="fil2" d="M317 1290c0,-3 -3,-5 -6,-5l-100 0c-3,0 -5,2 -5,5 0,3 2,6 5,6l100 0c3,0 6,-3 6,-6z"/>
    <path class="fil2" d="M311 1254l-100 0c-20,0 -37,16 -37,36 0,21 17,37 37,37l27 0c2,0 5,-2 5,-5 0,-3 -3,-5 -5,-5l-27 0c-14,0 -26,-12 -26,-27 0,-14 12,-26 26,-26l100 0c15,0 26,12 26,26 0,15 -11,27 -26,27l-26 0c-3,0 -6,2 -6,5 0,3 3,5 6,5l26 0c21,0 37,-16 37,-37 0,-20 -16,-36 -37,-36z"/>
    <path class="fil2" d="M266 1322c0,3 -2,5 -5,5 -3,0 -5,-2 -5,-5 0,-3 2,-5 5,-5 3,0 5,2 5,5z"/>
   </g>
   <g>
    <path class="fil3" d="M82 698l0 -75 50 0 0 9 -40 0 0 23 34 0 0 9 -34 0 0 34 -10 0zm97 0l0 -8c-5,6 -10,9 -17,9 -4,0 -7,-1 -9,-2 -3,-1 -5,-3 -6,-5 -2,-1 -3,-4 -3,-6 -1,-2 -1,-5 -1,-9l0 -33 9 0 0 30c0,4 1,8 1,9 1,3 2,4 4,6 1,1 4,2 6,2 3,0 6,-1 8,-2 3,-2 4,-4 5,-6 1,-2 2,-6 2,-10l0 -29 9 0 0 54 -8 0zm22 0l0 -54 8 0 0 7c4,-5 10,-8 17,-8 4,0 7,0 9,1 3,2 5,3 7,5 1,2 2,4 2,7 1,1 1,4 1,9l0 33 -9 0 0 -33c0,-4 -1,-7 -1,-8 -1,-2 -2,-4 -4,-5 -2,-1 -4,-2 -6,-2 -4,0 -8,2 -10,4 -3,3 -5,7 -5,14l0 30 -9 0zm93 0l0 -7c-4,5 -9,8 -15,8 -5,0 -9,-1 -12,-4 -4,-2 -7,-5 -9,-10 -2,-4 -3,-9 -3,-14 0,-6 1,-10 3,-15 2,-4 5,-8 8,-10 4,-2 8,-3 12,-3 3,0 6,0 9,2 2,1 4,3 6,5l0 -27 9 0 0 75 -8 0zm-29 -27c0,7 1,12 4,15 3,4 7,5 10,5 4,0 8,-1 11,-5 2,-3 4,-8 4,-14 0,-8 -2,-13 -4,-17 -3,-3 -7,-5 -11,-5 -4,0 -7,2 -10,5 -3,3 -4,9 -4,16zm87 20c-4,3 -7,5 -10,6 -3,1 -6,2 -10,2 -6,0 -11,-2 -14,-5 -3,-2 -5,-6 -5,-11 0,-2 1,-5 2,-7 2,-2 3,-4 5,-5 2,-1 4,-2 7,-3 1,0 4,-1 8,-1 7,-1 13,-2 16,-4 0,-1 0,-2 0,-2 0,-4 -1,-6 -3,-8 -2,-2 -5,-3 -10,-3 -4,0 -7,1 -9,2 -3,2 -4,5 -5,8l-9 -1c1,-4 2,-7 4,-9 2,-2 5,-4 8,-5 4,-2 8,-2 12,-2 5,0 9,0 12,1 3,1 5,3 6,4 1,2 2,4 3,7 0,1 0,4 0,8l0 12c0,8 0,14 1,16 0,2 1,5 2,7l-9 0c-1,-2 -2,-5 -2,-7zm-1 -20c-3,1 -8,2 -15,3 -4,1 -6,1 -8,2 -1,1 -3,2 -3,3 -1,1 -2,3 -2,4 0,3 1,5 3,6 2,2 5,3 8,3 4,0 7,-1 10,-3 2,-1 4,-3 6,-6 1,-2 1,-5 1,-9l0 -3zm23 27l0 -54 9 0 0 7c1,-2 3,-4 6,-6 3,-2 6,-2 10,-2 4,0 7,0 10,2 2,2 4,4 5,7 4,-6 10,-9 17,-9 5,0 9,1 12,4 3,3 4,8 4,14l0 37 -9 0 0 -34c0,-4 0,-7 -1,-8 0,-2 -1,-3 -3,-4 -1,-1 -3,-2 -5,-2 -4,0 -7,2 -10,4 -2,3 -4,7 -4,12l0 32 -9 0 0 -35c0,-4 0,-7 -2,-9 -1,-2 -4,-4 -7,-4 -3,0 -5,1 -7,3 -3,1 -4,3 -5,5 -1,3 -2,7 -2,12l0 28 -9 0zm124 -18l9 1c-2,6 -4,10 -8,13 -4,3 -9,5 -16,5 -8,0 -14,-3 -18,-8 -5,-4 -7,-11 -7,-20 0,-9 2,-16 7,-21 4,-5 10,-7 18,-7 7,0 13,2 17,7 5,5 7,12 7,21 0,0 0,1 0,2l-40 0c0,6 2,10 5,14 3,3 7,4 11,4 4,0 7,-1 9,-2 2,-2 4,-5 6,-9zm-30 -14l30 0c-1,-5 -2,-8 -4,-11 -3,-3 -6,-5 -11,-5 -4,0 -8,1 -11,4 -2,3 -4,7 -4,12zm50 32l0 -54 9 0 0 7c4,-5 9,-8 17,-8 3,0 6,0 9,1 2,2 4,3 6,5 1,2 2,4 3,7 0,1 0,4 0,9l0 33 -9 0 0 -33c0,-4 0,-7 -1,-8 -1,-2 -2,-4 -4,-5 -2,-1 -4,-2 -6,-2 -4,0 -7,2 -10,4 -3,3 -4,7 -4,14l0 30 -10 0zm78 -9l1 9c-2,0 -5,0 -7,0 -3,0 -5,0 -7,-1 -2,-1 -3,-3 -4,-4 -1,-2 -1,-6 -1,-11l0 -31 -7 0 0 -7 7 0 0 -14 9 -5 0 19 9 0 0 7 -9 0 0 31c0,3 0,5 0,5 1,1 1,2 2,2 1,1 2,1 3,1 1,0 2,0 4,-1zm6 -18c0,-10 2,-18 8,-22 5,-4 10,-6 17,-6 7,0 13,2 18,7 5,5 7,11 7,20 0,7 -1,12 -3,16 -2,4 -5,7 -9,9 -4,3 -8,4 -13,4 -8,0 -14,-3 -18,-7 -5,-5 -7,-12 -7,-21zm9 0c0,7 1,12 4,15 3,4 7,5 12,5 4,0 8,-1 11,-5 3,-3 5,-9 5,-16 0,-6 -2,-11 -5,-15 -3,-3 -7,-5 -11,-5 -5,0 -9,2 -12,5 -3,4 -4,9 -4,16zm48 11l9 -2c1,4 2,6 4,8 3,2 6,3 10,3 4,0 7,-1 9,-2 2,-2 4,-4 4,-6 0,-2 -1,-4 -3,-5 -2,-1 -5,-2 -10,-3 -6,-2 -11,-3 -13,-5 -3,-1 -5,-3 -6,-5 -2,-2 -2,-4 -2,-7 0,-2 0,-5 1,-7 1,-2 3,-3 5,-5 1,-1 3,-2 6,-2 2,-1 5,-1 7,-1 5,0 8,0 12,1 3,2 5,3 7,5 1,2 2,5 3,9l-9 1c-1,-3 -2,-5 -4,-7 -2,-1 -4,-2 -8,-2 -4,0 -7,1 -9,2 -2,2 -3,3 -3,5 0,1 1,2 2,3 0,1 2,2 3,3 1,0 4,1 8,2 7,2 11,3 14,4 2,1 4,3 6,5 1,2 2,5 2,8 0,3 -1,6 -3,8 -2,3 -4,5 -7,7 -4,1 -8,2 -12,2 -7,0 -12,-2 -16,-5 -4,-2 -6,-7 -7,-12zm119 16l0 -7c-3,5 -8,8 -15,8 -4,0 -8,-1 -12,-4 -3,-2 -6,-5 -8,-10 -2,-4 -3,-9 -3,-14 0,-6 1,-10 3,-15 2,-4 4,-8 8,-10 3,-2 7,-3 12,-3 3,0 6,0 8,2 3,1 5,3 7,5l0 -27 9 0 0 75 -9 0zm-29 -27c0,7 2,12 5,15 3,4 6,5 10,5 4,0 7,-1 10,-5 3,-3 4,-8 4,-14 0,-8 -1,-13 -4,-17 -3,-3 -6,-5 -10,-5 -4,0 -8,2 -11,5 -2,3 -4,9 -4,16zm89 9l9 1c-1,6 -4,10 -8,13 -4,3 -9,5 -15,5 -8,0 -14,-3 -19,-8 -5,-4 -7,-11 -7,-20 0,-9 2,-16 7,-21 5,-5 11,-7 18,-7 7,0 13,2 18,7 4,5 7,12 7,21 0,0 0,1 0,2l-40 0c0,6 2,10 5,14 3,3 6,4 11,4 3,0 6,-1 8,-2 3,-2 5,-5 6,-9zm-30 -14l30 0c0,-5 -2,-8 -3,-11 -3,-3 -7,-5 -12,-5 -4,0 -7,1 -10,4 -3,3 -5,7 -5,12zm-692 118l0 -8 31 0 0 27c-4,4 -9,7 -15,9 -5,2 -10,3 -15,3 -8,0 -14,-2 -20,-5 -6,-3 -11,-8 -14,-13 -3,-6 -4,-13 -4,-20 0,-7 1,-14 4,-20 3,-7 8,-11 13,-14 6,-3 13,-5 20,-5 5,0 10,1 14,3 5,1 8,4 11,7 2,3 4,7 5,12l-9 2c-1,-3 -2,-6 -4,-8 -1,-3 -4,-4 -7,-6 -3,-1 -6,-2 -10,-2 -5,0 -8,1 -12,2 -3,2 -6,4 -8,6 -2,2 -3,5 -4,7 -2,5 -3,10 -3,15 0,7 1,12 3,17 3,4 6,8 10,10 5,2 9,3 14,3 4,0 9,-1 13,-2 4,-2 7,-4 9,-6l0 -14 -22 0zm82 12l9 1c-1,6 -4,10 -8,13 -4,3 -9,5 -16,5 -7,0 -14,-3 -18,-8 -5,-4 -7,-11 -7,-20 0,-9 2,-16 7,-21 4,-5 10,-7 18,-7 7,0 13,2 17,7 5,5 7,12 7,21 0,0 0,1 0,2l-40 0c0,6 2,10 5,14 3,3 7,4 11,4 4,0 7,-1 9,-2 2,-2 4,-5 6,-9zm-30 -15l30 0c-1,-4 -2,-7 -4,-10 -3,-3 -6,-5 -11,-5 -4,0 -8,1 -11,4 -2,3 -4,7 -4,11zm47 6c0,-10 3,-18 8,-22 5,-4 11,-6 17,-6 8,0 14,2 18,7 5,5 8,11 8,20 0,7 -2,12 -4,16 -2,4 -5,7 -9,9 -4,3 -8,4 -13,4 -7,0 -13,-3 -18,-8 -5,-4 -7,-11 -7,-20zm9 0c0,7 2,12 5,15 3,4 7,5 11,5 5,0 9,-1 12,-5 3,-3 4,-9 4,-16 0,-6 -1,-11 -4,-15 -3,-3 -7,-5 -12,-5 -4,0 -8,2 -11,5 -3,4 -5,9 -5,16zm52 47l0 -74 9 0 0 7c1,-3 4,-5 6,-6 3,-2 6,-2 9,-2 5,0 9,1 12,3 4,2 6,6 8,10 2,4 3,9 3,14 0,6 -1,11 -3,15 -2,4 -5,8 -9,10 -3,3 -7,4 -12,4 -3,0 -5,-1 -8,-2 -2,-2 -4,-3 -6,-5l0 26 -9 0zm9 -47c0,7 1,12 4,15 3,4 6,5 10,5 4,0 7,-1 10,-5 3,-3 5,-9 5,-16 0,-7 -2,-12 -5,-15 -2,-4 -6,-5 -10,-5 -4,0 -7,2 -10,5 -3,4 -4,9 -4,16zm49 27l0 -54 8 0 0 8c2,-4 4,-6 6,-8 2,-1 4,-1 6,-1 3,0 6,1 9,2l-3 9c-2,-1 -5,-2 -7,-2 -2,0 -4,1 -5,2 -2,1 -3,3 -4,5 -1,3 -1,7 -1,10l0 29 -9 0zm31 -27c0,-10 3,-18 8,-22 5,-4 11,-6 17,-6 8,0 14,2 18,7 5,5 8,11 8,20 0,7 -2,12 -4,16 -2,4 -5,7 -9,9 -4,3 -8,4 -13,4 -7,0 -13,-3 -18,-8 -5,-4 -7,-11 -7,-20zm9 0c0,7 2,12 5,15 3,4 7,5 11,5 5,0 9,-1 12,-5 3,-3 4,-9 4,-16 0,-6 -1,-11 -4,-15 -3,-3 -7,-5 -12,-5 -4,0 -8,2 -11,5 -3,4 -5,9 -5,16zm87 7l9 1c-1,6 -3,11 -7,14 -4,4 -9,6 -15,6 -7,0 -13,-3 -18,-8 -4,-4 -6,-11 -6,-20 0,-6 0,-11 2,-15 2,-5 5,-8 9,-10 4,-2 8,-3 13,-3 6,0 11,1 14,4 4,3 6,7 7,13l-8 1c-1,-4 -3,-6 -5,-8 -2,-2 -5,-3 -8,-3 -4,0 -8,2 -11,5 -3,3 -4,8 -4,16 0,7 1,12 4,15 3,4 6,5 11,5 3,0 6,-1 9,-3 2,-2 4,-6 4,-10zm54 2l9 1c-1,6 -4,10 -8,13 -4,3 -9,5 -15,5 -8,0 -14,-3 -19,-8 -5,-4 -7,-11 -7,-20 0,-9 2,-16 7,-21 5,-5 11,-7 18,-7 7,0 13,2 18,7 4,5 7,12 7,21 0,0 0,1 0,2l-41 0c1,6 2,10 5,14 3,3 7,4 12,4 3,0 6,-1 8,-2 3,-2 4,-5 6,-9zm-30 -15l30 0c0,-4 -2,-7 -4,-10 -2,-3 -6,-5 -11,-5 -4,0 -7,1 -10,4 -3,3 -5,7 -5,11zm47 16l9 -1c1,4 2,6 4,8 3,2 6,3 10,3 4,0 7,-1 10,-2 2,-2 3,-4 3,-6 0,-2 -1,-4 -3,-5 -1,-1 -5,-2 -10,-3 -6,-2 -11,-3 -13,-5 -3,-1 -5,-3 -6,-5 -2,-2 -2,-4 -2,-7 0,-2 0,-5 1,-7 1,-2 3,-3 5,-5 1,-1 3,-2 6,-2 2,-1 5,-1 8,-1 4,0 7,0 11,1 3,2 5,3 7,5 1,2 2,5 3,9l-9 1c0,-3 -2,-5 -4,-7 -2,-1 -4,-2 -8,-2 -4,0 -7,1 -9,2 -2,1 -2,3 -2,5 0,1 0,2 1,3 0,1 2,2 3,3 1,0 4,1 8,2 7,2 11,3 14,4 2,1 4,3 6,5 1,2 2,5 2,8 0,3 -1,6 -3,8 -2,3 -4,5 -7,6 -4,2 -8,3 -12,3 -7,0 -12,-2 -16,-5 -3,-3 -6,-7 -7,-13zm52 0l9 -1c1,4 2,6 4,8 3,2 6,3 10,3 4,0 7,-1 9,-2 2,-2 3,-4 3,-6 0,-2 0,-4 -2,-5 -2,-1 -5,-2 -10,-3 -6,-2 -11,-3 -14,-5 -2,-1 -4,-3 -5,-5 -2,-2 -2,-4 -2,-7 0,-2 0,-5 1,-7 1,-2 3,-3 5,-5 1,-1 3,-2 6,-2 2,-1 5,-1 7,-1 5,0 8,0 12,1 3,2 5,3 7,5 1,2 2,5 3,9l-9 1c-1,-3 -2,-5 -4,-7 -2,-1 -4,-2 -8,-2 -4,0 -7,1 -9,2 -2,1 -3,3 -3,5 0,1 1,2 2,3 0,1 1,2 3,3 1,0 4,1 8,2 7,2 11,3 14,4 2,1 4,3 6,5 1,2 2,5 2,8 0,3 -1,6 -3,8 -2,3 -4,5 -8,6 -3,2 -7,3 -11,3 -7,0 -12,-2 -16,-5 -4,-3 -6,-7 -7,-13zm91 10c-4,3 -7,5 -10,6 -3,1 -7,2 -10,2 -6,0 -11,-2 -14,-5 -3,-3 -5,-6 -5,-11 0,-2 1,-5 2,-7 1,-2 3,-4 5,-5 2,-1 4,-2 7,-3 1,-1 4,-1 8,-1 7,-1 13,-2 16,-4 0,-1 0,-2 0,-2 0,-4 -1,-6 -3,-8 -2,-2 -5,-3 -10,-3 -4,0 -7,1 -9,2 -3,2 -4,5 -5,8l-9 -1c1,-4 2,-7 4,-9 2,-2 5,-4 8,-6 4,-1 8,-1 12,-1 5,0 9,0 12,1 2,1 5,3 6,4 1,2 2,4 3,6 0,2 0,5 0,9l0 12c0,8 0,14 1,16 0,2 1,4 2,7l-9 0c-1,-2 -2,-5 -2,-7zm-1 -20c-3,1 -8,2 -15,3 -4,1 -6,1 -8,2 -1,0 -3,1 -3,3 -1,1 -2,2 -2,4 0,2 1,4 3,6 2,2 5,3 8,3 4,0 7,-1 9,-3 3,-1 5,-3 7,-6 1,-2 1,-5 1,-9l0 -3zm23 27l0 -54 9 0 0 7c1,-2 3,-4 6,-6 3,-2 6,-2 10,-2 4,0 7,0 10,2 2,2 4,4 5,7 4,-6 10,-9 17,-9 5,0 9,1 12,4 3,3 4,7 4,14l0 37 -9 0 0 -34c0,-4 0,-7 -1,-8 0,-2 -1,-3 -3,-4 -1,-1 -3,-2 -5,-2 -4,0 -7,2 -10,4 -2,3 -4,7 -4,12l0 32 -9 0 0 -35c0,-4 0,-7 -2,-10 -1,-2 -4,-3 -7,-3 -3,0 -5,1 -7,2 -3,2 -4,4 -5,6 -1,3 -2,7 -2,12l0 28 -9 0zm123 -18l10 1c-2,6 -4,10 -8,13 -4,3 -9,5 -16,5 -8,0 -14,-3 -18,-8 -5,-4 -7,-11 -7,-20 0,-9 2,-16 7,-21 4,-5 10,-7 18,-7 7,0 13,2 17,7 5,5 7,12 7,21 0,0 0,1 0,2l-40 0c0,6 2,10 5,14 3,3 7,4 11,4 4,0 7,-1 9,-2 2,-2 4,-5 5,-9zm-29 -15l30 0c-1,-4 -2,-7 -4,-10 -3,-3 -7,-5 -11,-5 -4,0 -8,1 -11,4 -3,3 -4,7 -4,11zm50 33l0 -54 9 0 0 7c4,-6 9,-8 17,-8 3,0 6,0 9,1 2,1 4,3 6,5 1,2 2,4 3,7 0,1 0,4 0,8l0 34 -9 0 0 -33c0,-4 0,-7 -1,-9 -1,-1 -2,-3 -4,-4 -2,-1 -4,-2 -6,-2 -4,0 -7,2 -10,4 -3,3 -4,7 -4,14l0 30 -10 0zm78 -9l1 8c-2,1 -5,1 -7,1 -3,0 -5,0 -7,-1 -2,-1 -3,-3 -4,-4 -1,-2 -1,-6 -1,-11l0 -31 -7 0 0 -7 7 0 0 -14 9 -5 0 19 9 0 0 7 -9 0 0 31c0,3 0,5 0,5 1,1 1,2 2,2 1,1 2,1 3,1 1,0 2,0 4,-1z"/>
    <path class="fil3" d="M925 787c0,-10 2,-18 8,-22 5,-4 10,-6 17,-6 7,0 13,2 18,7 5,5 7,11 7,20 0,7 -1,12 -3,16 -2,4 -5,7 -9,9 -4,3 -8,4 -13,4 -8,0 -14,-3 -18,-8 -5,-4 -7,-11 -7,-20zm9 0c0,7 1,12 4,15 3,4 7,5 12,5 4,0 8,-1 11,-5 3,-3 5,-9 5,-16 0,-6 -2,-11 -5,-15 -3,-3 -7,-5 -11,-5 -5,0 -9,2 -12,5 -3,4 -4,9 -4,16zm-819 136c-3,3 -6,5 -10,6 -3,1 -6,2 -10,2 -6,0 -10,-2 -13,-5 -3,-3 -5,-6 -5,-11 0,-2 1,-5 2,-7 1,-2 3,-4 4,-5 2,-1 5,-2 7,-3 2,-1 5,-1 8,-2 8,0 13,-1 16,-3 1,-1 1,-2 1,-2 0,-4 -1,-6 -3,-8 -2,-2 -6,-3 -10,-3 -5,0 -8,1 -10,2 -2,2 -4,4 -5,8l-8 -1c0,-4 2,-7 4,-9 1,-3 4,-4 8,-6 3,-1 7,-2 12,-2 4,0 8,1 11,2 3,1 5,3 6,4 2,2 3,4 3,6 1,2 1,5 1,9l0 12c0,8 0,14 0,16 1,2 1,4 3,6l-10 0c-1,-1 -1,-4 -2,-6zm0 -21c-4,2 -9,3 -15,4 -4,0 -7,1 -8,2 -2,0 -3,1 -4,3 -1,1 -1,2 -1,4 0,2 1,4 2,6 2,2 5,2 9,2 3,0 6,0 9,-2 3,-1 5,-3 6,-6 1,-2 1,-5 1,-9l1 -4zm23 48l0 -74 8 0 0 7c2,-3 4,-5 7,-6 2,-2 5,-3 9,-3 4,0 8,2 12,4 3,2 6,6 8,10 2,4 2,9 2,14 0,6 0,11 -2,15 -2,4 -5,8 -9,10 -4,2 -8,4 -12,4 -3,0 -6,-1 -8,-2 -3,-2 -5,-3 -6,-5l0 26 -9 0zm8 -47c0,7 1,12 4,15 3,3 6,5 10,5 4,0 8,-2 11,-5 3,-3 4,-9 4,-16 0,-7 -1,-12 -4,-15 -3,-4 -6,-5 -10,-5 -4,0 -7,1 -10,5 -3,4 -5,9 -5,16zm49 26l0 -74 9 0 0 74 -9 0zm24 -63l0 -11 9 0 0 11 -9 0zm0 63l0 -53 9 0 0 53 -9 0zm58 -19l9 1c-1,6 -4,11 -8,14 -4,4 -9,6 -15,6 -7,0 -13,-3 -17,-8 -5,-4 -7,-11 -7,-20 0,-6 1,-11 3,-15 2,-5 5,-8 9,-10 4,-2 8,-4 12,-4 6,0 11,2 15,5 3,3 6,7 7,12l-9 2c-1,-4 -2,-6 -4,-8 -3,-2 -5,-3 -8,-3 -5,0 -9,2 -11,5 -3,3 -5,8 -5,15 0,8 2,13 4,16 3,4 7,5 11,5 4,0 7,-1 9,-3 3,-2 4,-6 5,-10zm52 13c-4,3 -7,5 -10,6 -3,1 -7,2 -10,2 -6,0 -11,-2 -14,-5 -3,-3 -5,-6 -5,-11 0,-2 1,-5 2,-7 1,-2 3,-4 5,-5 2,-1 4,-2 6,-3 2,-1 5,-1 9,-2 7,0 12,-1 16,-3 0,-1 0,-2 0,-2 0,-4 -1,-6 -3,-8 -2,-2 -5,-3 -10,-3 -4,0 -8,1 -10,2 -2,2 -3,4 -4,8l-9 -1c1,-4 2,-7 4,-9 2,-3 5,-4 8,-6 4,-1 8,-2 12,-2 5,0 9,1 12,2 2,1 5,3 6,4 1,2 2,4 3,6 0,2 0,5 0,9l0 12c0,8 0,14 1,16 0,2 1,4 2,6l-10 0c0,-1 -1,-4 -1,-6zm-1 -21c-3,2 -8,3 -15,4 -4,0 -6,1 -8,2 -2,0 -3,1 -4,3 0,1 -1,2 -1,4 0,2 1,4 3,6 2,2 4,2 8,2 4,0 7,0 9,-2 3,-1 5,-3 6,-6 1,-2 2,-5 2,-9l0 -4zm58 27l0 -6c-3,5 -8,8 -15,8 -4,0 -8,-2 -12,-4 -3,-2 -6,-6 -8,-10 -2,-4 -3,-9 -3,-14 0,-6 1,-11 2,-15 2,-4 5,-8 9,-10 3,-2 7,-4 12,-4 3,0 6,1 8,3 3,1 5,3 6,5l0 -27 9 0 0 74 -8 0zm-29 -26c0,7 2,12 5,15 2,3 6,5 10,5 4,0 7,-1 10,-5 3,-3 4,-8 4,-15 0,-7 -1,-12 -4,-16 -3,-3 -6,-5 -11,-5 -4,0 -7,2 -10,5 -3,3 -4,9 -4,16zm49 0c0,-10 2,-18 8,-23 4,-4 10,-6 17,-6 7,0 13,3 18,8 5,5 7,11 7,20 0,7 -1,12 -3,16 -2,4 -5,7 -9,9 -4,3 -9,4 -13,4 -8,0 -14,-3 -19,-8 -4,-4 -6,-11 -6,-20zm9 0c0,6 1,12 4,15 3,3 7,5 12,5 4,0 8,-2 11,-5 3,-3 5,-9 5,-16 0,-6 -2,-11 -5,-15 -3,-3 -7,-5 -11,-5 -5,0 -9,2 -12,5 -3,4 -4,9 -4,16zm48 10l9 -1c1,4 2,6 4,8 3,2 6,3 10,3 4,0 7,-1 9,-2 2,-2 3,-4 3,-6 0,-2 -1,-4 -2,-5 -2,-1 -5,-2 -10,-3 -6,-2 -11,-3 -14,-5 -2,-1 -4,-3 -5,-5 -2,-2 -2,-4 -2,-7 0,-2 0,-5 1,-7 1,-2 3,-3 5,-5 1,-1 3,-2 5,-2 3,-1 6,-2 8,-2 5,0 8,1 11,2 4,2 6,3 8,5 1,2 2,5 3,9l-9 1c-1,-3 -2,-5 -4,-7 -2,-1 -4,-2 -8,-2 -4,0 -7,1 -9,2 -2,1 -3,3 -3,5 0,1 1,2 1,3 1,1 2,2 4,3 1,0 4,1 8,2 6,2 11,3 14,4 2,1 4,3 6,5 1,2 2,5 2,8 0,3 -1,6 -3,8 -2,3 -4,5 -8,6 -3,2 -7,3 -11,3 -7,0 -12,-2 -16,-5 -4,-3 -6,-7 -7,-13zm120 10c-4,3 -7,5 -10,6 -3,1 -7,2 -10,2 -6,0 -11,-2 -14,-5 -3,-3 -5,-6 -5,-11 0,-2 1,-5 2,-7 1,-2 3,-4 5,-5 2,-1 4,-2 6,-3 2,-1 5,-1 8,-2 8,0 13,-1 17,-3 0,-1 0,-2 0,-2 0,-4 -1,-6 -3,-8 -2,-2 -6,-3 -10,-3 -4,0 -8,1 -10,2 -2,2 -3,4 -4,8l-9 -1c1,-4 2,-7 4,-9 2,-3 4,-4 8,-6 3,-1 8,-2 12,-2 5,0 9,1 11,2 3,1 5,3 7,4 1,2 2,4 3,6 0,2 0,5 0,9l0 12c0,8 0,14 1,16 0,2 1,4 2,6l-10 0c-1,-1 -1,-4 -1,-6zm-1 -21c-4,2 -8,3 -15,4 -4,0 -7,1 -8,2 -2,0 -3,1 -4,3 -1,1 -1,2 -1,4 0,2 1,4 3,6 2,2 4,2 8,2 3,0 7,0 9,-2 3,-1 5,-3 6,-6 1,-2 2,-5 2,-9l0 -4zm-4 -33l-7 0 -12 -14 12 0 7 14zm57 60l0 -74 15 0 17 53c2,5 3,8 4,11 1,-3 2,-7 4,-12l18 -52 13 0 0 74 -10 0 0 -62 -21 62 -9 0 -22 -63 0 63 -9 0zm85 -63l0 -11 9 0 0 11 -9 0zm0 63l0 -53 9 0 0 53 -9 0zm23 0l0 -53 9 0 0 7c4,-6 9,-9 17,-9 3,0 6,1 9,2 2,1 4,3 6,5 1,2 2,4 3,7 0,1 0,4 0,8l0 33 -9 0 0 -32c0,-4 0,-7 -1,-9 -1,-1 -2,-3 -4,-4 -2,-1 -4,-2 -6,-2 -4,0 -7,2 -10,4 -3,3 -4,7 -4,14l0 29 -10 0zm95 -17l9 1c-1,6 -4,10 -8,13 -4,3 -9,5 -15,5 -8,0 -14,-3 -19,-8 -5,-4 -7,-11 -7,-20 0,-9 2,-16 7,-21 5,-5 11,-8 18,-8 7,0 13,3 18,8 4,5 7,12 7,20 0,1 0,2 0,3l-41 0c1,6 2,10 5,13 3,4 7,5 12,5 3,0 6,-1 8,-2 3,-2 4,-5 6,-9zm-30 -15l30 0c0,-4 -2,-8 -3,-10 -3,-3 -7,-5 -12,-5 -4,0 -7,1 -10,4 -3,3 -5,7 -5,11zm51 32l0 -53 8 0 0 8c2,-4 4,-6 6,-8 2,-1 3,-2 6,-2 3,0 6,1 9,3l-3 9c-2,-1 -5,-2 -7,-2 -2,0 -4,1 -5,2 -2,1 -3,3 -4,5 -1,3 -1,6 -1,10l0 28 -9 0zm70 -6c-4,3 -7,5 -10,6 -3,1 -7,2 -10,2 -6,0 -11,-2 -14,-5 -3,-3 -5,-6 -5,-11 0,-2 1,-5 2,-7 1,-2 3,-4 5,-5 2,-1 4,-2 6,-3 2,-1 5,-1 9,-2 7,0 12,-1 16,-3 0,-1 0,-2 0,-2 0,-4 -1,-6 -3,-8 -2,-2 -6,-3 -10,-3 -4,0 -8,1 -10,2 -2,2 -3,4 -4,8l-9 -1c1,-4 2,-7 4,-9 2,-3 4,-4 8,-6 3,-1 8,-2 12,-2 5,0 9,1 11,2 3,1 5,3 7,4 1,2 2,4 3,6 0,2 0,5 0,9l0 12c0,8 0,14 1,16 0,2 1,4 2,6l-10 0c-1,-1 -1,-4 -1,-6zm-1 -21c-3,2 -8,3 -15,4 -4,0 -7,1 -8,2 -2,0 -3,1 -4,3 -1,1 -1,2 -1,4 0,2 1,4 3,6 2,2 4,2 8,2 3,0 7,0 9,-2 3,-1 5,-3 6,-6 1,-2 2,-5 2,-9l0 -4zm58 8l9 1c-1,6 -3,11 -7,14 -4,4 -9,6 -15,6 -7,0 -13,-3 -18,-8 -4,-4 -7,-11 -7,-20 0,-6 1,-11 3,-15 2,-5 5,-8 9,-10 4,-2 8,-4 13,-4 6,0 11,2 14,5 4,3 6,7 7,12l-8 2c-1,-4 -3,-6 -5,-8 -2,-2 -5,-3 -8,-3 -4,0 -8,2 -11,5 -3,3 -4,8 -4,15 0,8 1,13 4,16 3,4 6,5 11,5 3,0 6,-1 9,-3 2,-2 4,-6 4,-10zm-21 28l3 -9 6 0 -1 6c3,0 5,1 6,3 2,1 2,3 2,4 0,3 -1,5 -3,7 -3,2 -6,3 -11,3 -3,0 -6,0 -8,0l1 -7c2,1 4,1 5,1 3,0 5,-1 6,-2 1,0 2,-1 2,-2 0,-1 0,-1 -1,-2 0,0 -1,-1 -2,-1 -1,0 -3,-1 -5,-1zm73 -15c-3,3 -6,5 -10,6 -3,1 -6,2 -10,2 -6,0 -10,-2 -13,-5 -4,-3 -5,-6 -5,-11 0,-2 0,-5 2,-7 1,-2 2,-4 4,-5 2,-1 5,-2 7,-3 2,-1 4,-1 8,-2 7,0 13,-1 16,-3 0,-1 0,-2 0,-2 0,-4 0,-6 -2,-8 -2,-2 -6,-3 -11,-3 -4,0 -7,1 -9,2 -2,2 -4,4 -5,8l-9 -1c1,-4 3,-7 4,-9 2,-3 5,-4 9,-6 3,-1 7,-2 12,-2 4,0 8,1 11,2 3,1 5,3 6,4 2,2 3,4 3,6 1,2 1,5 1,9l0 12c0,8 0,14 0,16 1,2 1,4 2,6l-9 0c-1,-1 -2,-4 -2,-6zm-1 -21c-3,2 -8,3 -14,4 -4,0 -7,1 -8,2 -2,0 -3,1 -4,3 -1,1 -1,2 -1,4 0,2 1,4 2,6 2,2 5,2 9,2 3,0 6,0 9,-2 3,-1 5,-3 6,-6 1,-2 1,-5 1,-9l0 -4zm-29 -33c0,-3 1,-6 3,-8 2,-2 4,-3 7,-3 2,0 5,1 9,2 2,1 3,2 4,2 1,0 2,0 3,-1 0,-1 1,-2 1,-4l7 0c0,4 -1,7 -3,9 -2,2 -4,3 -7,3 -2,0 -5,-1 -9,-3 -2,-1 -4,-2 -5,-2 -1,0 -2,1 -2,2 -1,0 -2,2 -1,3l-7 0zm49 34c0,-10 3,-18 9,-23 4,-4 10,-6 17,-6 7,0 13,3 18,8 4,5 7,11 7,20 0,7 -1,12 -3,16 -2,4 -5,7 -9,9 -4,3 -9,4 -13,4 -8,0 -14,-3 -19,-8 -4,-4 -7,-11 -7,-20zm10 0c0,6 1,12 4,15 3,3 7,5 12,5 4,0 8,-2 11,-5 3,-3 4,-9 4,-16 0,-6 -1,-11 -4,-15 -3,-3 -7,-5 -11,-5 -5,0 -9,2 -12,5 -3,4 -4,9 -4,16z"/>
   </g>
   <g>
    <path class="fil1" d="M1083 370l-23 -30c-1,-1 -2,-3 -3,-4 -4,-5 -6,-9 -9,-14 -3,-3 -4,-7 -6,-10 -2,-5 -5,-13 -5,-18 0,-10 1,-14 5,-23 7,-15 24,-26 41,-26 4,0 8,1 10,2 8,1 16,6 22,11 4,4 7,8 10,13 6,13 6,27 0,40 -2,4 -3,6 -6,10 -7,13 -13,21 -22,32 -2,3 -5,5 -7,8 -1,2 -2,3 -3,5 -1,1 -3,3 -4,4zm-52 -79c0,28 28,57 44,78l6 8c3,4 5,0 7,-3 0,0 1,-1 2,-2 0,-1 1,-2 1,-3 20,-26 58,-62 40,-99 -2,-5 -3,-6 -7,-11l-6 -7c-8,-7 -21,-13 -32,-13 -10,0 -17,1 -25,6 -5,2 -11,6 -15,10 -1,2 -2,2 -3,4 -7,9 -12,19 -12,32z"/>
    <path class="fil3" d="M1050 293c0,-11 3,-18 10,-25 3,-3 6,-5 10,-7 10,-4 23,-3 32,3 3,2 4,4 6,6 5,4 9,13 9,20 0,10 -3,16 -8,23 -3,4 -8,7 -12,9 -13,6 -27,3 -37,-6 -6,-6 -10,-15 -10,-23zm-6 -2c0,16 8,29 22,36 15,8 34,4 46,-8 0,-1 0,-1 1,-1 3,-5 3,-4 6,-10 6,-13 4,-28 -3,-38 -7,-11 -19,-18 -31,-18 -9,0 -15,2 -22,6 -3,1 -5,4 -8,6 -7,7 -11,17 -11,27z"/>
    <path class="fil3" d="M1061 284c0,1 2,4 5,3 1,-1 1,-2 2,-2 9,-7 22,-8 30,-1 1,1 2,2 3,2 3,2 9,-3 -4,-9 -19,-10 -36,3 -36,7z"/>
    <path class="fil3" d="M1071 293c0,1 0,1 0,2 3,3 6,-1 7,-1 4,-3 9,-2 13,1 3,3 8,-2 3,-5 -1,-1 -2,-2 -3,-2 -10,-5 -20,2 -20,5z"/>
    <path class="fil3" d="M1079 302c0,3 3,5 4,5 2,0 4,-2 4,-4 0,-6 -8,-5 -8,-1z"/>
   </g>
   <g>
    <path class="fil4" d="M80 1048l0 -45 33 0 0 5 -27 0 0 14 26 0 0 5 -26 0 0 16 28 0 0 5 -34 0zm40 -9l5 -1c1,2 2,4 3,5 1,1 3,2 6,2 3,0 5,-1 6,-2 1,-1 2,-2 2,-4 0,-1 -1,-2 -2,-3 -1,0 -3,-1 -6,-2 -4,-1 -7,-2 -8,-2 -2,-1 -3,-2 -4,-3 -1,-2 -1,-3 -1,-5 0,-1 0,-3 1,-4 0,-1 1,-2 3,-3 0,-1 2,-1 3,-2 2,0 3,0 5,0 3,0 5,0 7,1 2,0 3,1 4,3 1,1 2,3 2,5l-5 1c-1,-2 -1,-3 -3,-4 -1,-1 -2,-2 -5,-2 -2,0 -4,1 -5,1 -1,1 -2,2 -2,3 0,1 0,2 1,2 0,1 1,1 2,2 1,0 2,1 5,1 4,1 7,2 8,3 2,1 3,2 4,3 1,1 1,3 1,5 0,2 0,3 -1,5 -1,2 -3,3 -5,4 -2,1 -4,1 -7,1 -4,0 -8,-1 -10,-3 -2,-1 -4,-4 -4,-7zm34 22l0 -46 5 0 0 5c1,-2 3,-3 4,-4 2,-1 4,-1 6,-1 3,0 5,0 7,2 2,1 4,3 5,6 1,3 2,5 2,9 0,3 -1,6 -2,9 -1,2 -3,5 -5,6 -3,1 -5,2 -8,2 -2,0 -3,0 -5,-1 -1,-1 -2,-2 -3,-3l0 16 -6 0zm5 -29c0,4 1,7 3,9 1,3 4,4 6,4 2,0 5,-2 6,-4 2,-2 3,-5 3,-9 0,-5 -1,-8 -3,-10 -1,-2 -3,-3 -6,-3 -2,0 -4,1 -6,3 -2,3 -3,6 -3,10zm53 6l6 0c-1,4 -3,6 -5,8 -3,2 -6,3 -10,3 -4,0 -8,-1 -11,-4 -3,-3 -4,-8 -4,-13 0,-5 1,-10 4,-13 3,-3 7,-4 11,-4 5,0 8,1 11,4 3,3 4,7 4,13 0,0 0,1 0,1l-25 0c1,4 2,7 4,9 1,2 4,3 6,3 3,0 4,-1 6,-2 1,-1 2,-3 3,-5zm-18 -9l18 0c0,-3 -1,-5 -2,-7 -2,-2 -4,-3 -7,-3 -2,0 -5,1 -6,3 -2,1 -3,4 -3,7zm53 7l5 1c0,4 -2,7 -4,9 -3,2 -6,3 -9,3 -5,0 -9,-1 -11,-4 -3,-3 -5,-8 -5,-13 0,-4 1,-7 2,-9 1,-3 3,-5 6,-6 2,-2 5,-2 8,-2 3,0 6,0 8,2 3,2 4,5 5,8l-6 1c0,-2 -1,-4 -2,-5 -2,-1 -3,-2 -5,-2 -3,0 -5,1 -7,3 -2,2 -3,5 -3,10 0,4 1,7 3,10 2,2 4,3 6,3 3,0 5,-1 6,-2 1,-2 2,-4 3,-7zm10 -27l0 -6 6 0 0 6 -6 0zm0 39l0 -33 6 0 0 33 -6 0zm36 -4c-2,2 -4,3 -6,4 -2,1 -4,1 -6,1 -4,0 -7,-1 -9,-3 -2,-1 -3,-4 -3,-6 0,-2 1,-3 1,-5 1,-1 2,-2 3,-3 2,-1 3,-1 4,-2 2,0 3,0 5,-1 5,0 8,-1 10,-2 1,0 1,-1 1,-1 0,-2 -1,-4 -2,-5 -2,-1 -4,-2 -6,-2 -3,0 -5,1 -6,2 -2,1 -3,2 -3,5l-6 -1c1,-3 2,-4 3,-6 1,-1 3,-2 5,-3 2,-1 4,-1 7,-1 3,0 5,0 7,1 2,0 3,1 4,2 1,1 2,2 2,4 0,1 0,3 0,5l0 8c0,5 0,8 1,9 0,2 0,3 1,4l-6 0c0,-1 -1,-2 -1,-4zm0 -12c-3,1 -6,1 -10,2 -2,0 -4,1 -5,1 -1,0 -1,1 -2,2 0,1 -1,2 -1,3 0,1 1,2 2,3 1,1 3,2 5,2 2,0 4,-1 6,-2 2,-1 3,-2 4,-4 0,-1 0,-3 0,-5l1 -2zm14 16l0 -45 5 0 0 45 -5 0zm14 -39l0 -6 6 0 0 6 -6 0zm0 39l0 -33 6 0 0 33 -6 0zm11 0l0 -4 21 -24c-2,0 -4,0 -6,0l-13 0 0 -5 27 0 0 4 -18 21 -4 4c3,0 5,0 7,0l16 0 0 4 -30 0zm57 -4c-2,2 -4,3 -6,4 -2,1 -4,1 -6,1 -4,0 -7,-1 -9,-3 -2,-1 -3,-4 -3,-6 0,-2 1,-3 1,-5 1,-1 2,-2 3,-3 2,-1 3,-1 4,-2 1,0 3,0 5,-1 5,0 8,-1 10,-2 0,0 0,-1 0,-1 0,-2 0,-4 -1,-5 -2,-1 -4,-2 -7,-2 -2,0 -4,1 -5,2 -2,1 -3,2 -3,5l-6 -1c1,-3 2,-4 3,-6 1,-1 3,-2 5,-3 2,-1 4,-1 7,-1 3,0 5,0 7,1 2,0 3,1 4,2 1,1 2,2 2,4 0,1 0,3 0,5l0 8c0,5 0,8 0,9 1,2 1,3 2,4l-6 0c-1,-1 -1,-2 -1,-4zm-1 -12c-2,1 -5,1 -9,2 -2,0 -4,1 -5,1 -1,0 -1,1 -2,2 0,1 -1,2 -1,3 0,1 1,2 2,3 1,1 3,2 5,2 2,0 4,-1 6,-2 1,-1 3,-2 4,-4 0,-1 0,-3 0,-5l0 -2zm36 4l6 1c-1,4 -2,7 -5,9 -2,2 -5,3 -9,3 -4,0 -8,-1 -11,-4 -3,-3 -4,-8 -4,-13 0,-4 1,-7 2,-9 1,-3 3,-5 5,-6 3,-2 5,-2 8,-2 4,0 7,0 9,2 2,2 4,5 4,8l-5 1c-1,-2 -1,-4 -3,-5 -1,-1 -3,-2 -5,-2 -2,0 -5,1 -6,3 -2,2 -3,5 -3,10 0,4 1,7 2,10 2,2 4,3 7,3 2,0 4,-1 6,-2 1,-2 2,-4 2,-7zm-13 18l2 -6 4 0 -1 4c2,0 3,1 4,1 1,1 1,2 1,3 0,2 0,3 -2,4 -1,2 -4,2 -7,2 -1,0 -3,0 -4,0l0 -4c2,0 2,0 3,0 2,0 3,0 4,0 1,-1 1,-1 1,-2 0,0 0,-1 0,-1 0,0 -1,-1 -1,-1 -1,0 -2,0 -4,0zm45 -10c-2,2 -4,3 -6,4 -2,1 -4,1 -6,1 -3,0 -6,-1 -8,-3 -2,-1 -3,-4 -3,-6 0,-2 0,-3 1,-5 1,-1 2,-2 3,-3 1,-1 2,-1 4,-2 1,0 3,0 5,-1 4,0 8,-1 10,-2 0,0 0,-1 0,-1 0,-2 -1,-4 -2,-5 -1,-1 -3,-2 -6,-2 -3,0 -5,1 -6,2 -1,1 -2,2 -3,5l-5 -1c0,-3 1,-4 2,-6 1,-1 3,-2 5,-3 2,-1 5,-1 8,-1 3,0 5,0 7,1 1,0 3,1 4,2 0,1 1,2 1,4 1,1 1,3 1,5l0 8c0,5 0,8 0,9 0,2 1,3 1,4l-5 0c-1,-1 -1,-2 -2,-4zm0 -12c-2,1 -5,1 -9,2 -3,0 -4,1 -5,1 -1,0 -2,1 -2,2 -1,1 -1,2 -1,3 0,1 0,2 2,3 1,1 2,2 5,2 2,0 4,-1 5,-2 2,-1 3,-2 4,-4 1,-1 1,-3 1,-5l0 -2zm-18 -21c0,-2 0,-4 1,-5 2,-1 3,-2 5,-2 1,0 3,1 5,2 2,0 2,1 3,1 1,0 1,0 2,-1 0,0 0,-1 1,-2l4 0c-1,2 -1,4 -2,5 -1,2 -3,2 -5,2 -1,0 -3,0 -5,-2 -1,0 -2,-1 -3,-1 0,0 -1,1 -1,1 -1,1 -1,1 -1,2l-4 0zm30 21c0,-6 2,-11 5,-14 3,-2 7,-3 11,-3 4,0 8,1 11,4 3,3 4,7 4,12 0,5 0,8 -2,10 -1,3 -3,5 -5,6 -3,1 -5,2 -8,2 -5,0 -9,-1 -12,-4 -2,-3 -4,-8 -4,-13zm6 0c0,4 1,7 3,9 2,2 4,4 7,4 3,0 5,-2 7,-4 2,-2 3,-5 3,-9 0,-4 -1,-8 -3,-10 -2,-2 -4,-3 -7,-3 -3,0 -5,1 -7,3 -2,2 -3,6 -3,10zm72 6l6 0c-1,4 -3,6 -5,8 -2,2 -6,3 -9,3 -5,0 -9,-1 -12,-4 -3,-3 -4,-8 -4,-13 0,-5 1,-10 4,-13 3,-3 7,-4 11,-4 5,0 8,1 11,4 3,3 4,7 4,13 0,0 0,1 0,1l-24 0c0,4 1,7 3,9 1,2 4,3 7,3 2,0 3,-1 5,-2 1,-1 2,-3 3,-5zm-18 -9l18 0c0,-3 -1,-5 -2,-7 -2,-2 -4,-3 -7,-3 -2,0 -5,1 -6,3 -2,1 -3,4 -3,7zm31 19l0 -33 5 0 0 5c1,-2 3,-3 4,-4 2,-1 4,-1 6,-1 3,0 5,0 6,1 2,1 3,3 4,4 2,-4 6,-5 10,-5 3,0 6,0 7,2 2,2 3,5 3,9l0 22 -5 0 0 -20c0,-3 -1,-4 -1,-5 0,-1 -1,-2 -2,-3 -1,0 -2,-1 -3,-1 -3,0 -5,1 -6,3 -2,1 -3,4 -3,7l0 19 -5 0 0 -21c0,-3 -1,-4 -2,-6 0,-1 -2,-2 -4,-2 -2,0 -3,1 -4,2 -2,0 -3,2 -3,3 -1,2 -1,4 -1,7l0 17 -6 0zm72 0l0 -45 9 0 11 32c1,3 1,5 2,7 0,-2 1,-4 2,-8l11 -31 8 0 0 45 -5 0 0 -38 -14 38 -5 0 -13 -39 0 39 -6 0zm52 -39l0 -6 6 0 0 6 -6 0zm0 39l0 -33 6 0 0 33 -6 0zm15 0l0 -33 5 0 0 5c2,-4 6,-5 10,-5 2,0 4,0 6,1 1,0 3,1 3,2 1,2 2,3 2,5 0,1 1,2 1,5l0 20 -6 0 0 -20c0,-2 0,-4 -1,-5 0,-1 -1,-2 -2,-3 -1,0 -2,-1 -4,-1 -2,0 -4,1 -6,3 -2,1 -3,4 -3,8l0 18 -5 0zm58 -10l6 0c-1,4 -3,6 -5,8 -3,2 -6,3 -10,3 -5,0 -9,-1 -11,-4 -3,-3 -5,-8 -5,-13 0,-5 2,-10 5,-13 2,-3 6,-4 11,-4 4,0 8,1 11,4 2,3 4,7 4,13 0,0 0,1 0,1l-25 0c0,4 1,7 3,9 2,2 4,3 7,3 2,0 4,-1 5,-2 2,-1 3,-3 4,-5zm-19 -9l19 0c0,-3 -1,-5 -2,-7 -2,-2 -4,-3 -7,-3 -3,0 -5,1 -7,3 -1,1 -2,4 -3,7zm32 19l0 -33 5 0 0 5c1,-2 2,-4 3,-4 1,-1 3,-1 4,-1 2,0 4,0 6,1l-2 6c-2,-1 -3,-2 -4,-2 -2,0 -3,1 -4,1 -1,1 -1,2 -2,4 0,2 -1,4 -1,6l0 17 -5 0zm43 -4c-2,2 -4,3 -6,4 -2,1 -4,1 -7,1 -3,0 -6,-1 -8,-3 -2,-1 -3,-4 -3,-6 0,-2 0,-3 1,-5 1,-1 2,-2 3,-3 1,-1 3,-1 4,-2 1,0 3,0 5,-1 5,0 8,-1 10,-2 0,0 0,-1 0,-1 0,-2 0,-4 -1,-5 -2,-1 -4,-2 -7,-2 -2,0 -4,1 -6,2 -1,1 -2,2 -2,5l-6 -1c1,-3 1,-4 3,-6 1,-1 2,-2 5,-3 2,-1 4,-1 7,-1 3,0 5,0 7,1 2,0 3,1 4,2 1,1 1,2 2,4 0,1 0,3 0,5l0 8c0,5 0,8 0,9 1,2 1,3 2,4l-6 0c-1,-1 -1,-2 -1,-4zm-1 -12c-2,1 -5,1 -9,2 -2,0 -4,1 -5,1 -1,0 -2,1 -2,2 -1,1 -1,2 -1,3 0,1 1,2 2,3 1,1 3,2 5,2 2,0 4,-1 6,-2 1,-1 3,-2 3,-4 1,-1 1,-3 1,-5l0 -2zm36 4l6 1c-1,4 -2,7 -5,9 -2,2 -5,3 -9,3 -5,0 -8,-1 -11,-4 -3,-3 -4,-8 -4,-13 0,-4 1,-7 2,-9 1,-3 3,-5 5,-6 3,-2 5,-2 8,-2 4,0 7,0 9,2 2,2 4,5 4,8l-5 1c-1,-2 -2,-4 -3,-5 -1,-1 -3,-2 -5,-2 -3,0 -5,1 -7,3 -1,2 -2,5 -2,10 0,4 1,7 2,10 2,2 4,3 7,3 2,0 4,-1 5,-2 2,-2 3,-4 3,-7zm-13 18l2 -6 4 0 -1 4c2,0 3,1 4,1 1,1 1,2 1,3 0,2 -1,3 -2,4 -2,2 -4,2 -7,2 -2,0 -3,0 -4,0l0 -4c1,0 2,0 3,0 2,0 3,0 4,0 1,-1 1,-1 1,-2 0,0 0,-1 0,-1 -1,0 -1,-1 -2,-1 0,0 -1,0 -3,0zm45 -10c-2,2 -4,3 -6,4 -2,1 -4,1 -6,1 -4,0 -6,-1 -8,-3 -2,-1 -3,-4 -3,-6 0,-2 0,-3 1,-5 0,-1 1,-2 3,-3 1,-1 2,-1 4,-2 1,0 2,0 5,-1 4,0 8,-1 10,-2 0,0 0,-1 0,-1 0,-2 -1,-4 -2,-5 -1,-1 -3,-2 -6,-2 -3,0 -5,1 -6,2 -1,1 -2,2 -3,5l-5 -1c0,-3 1,-4 2,-6 1,-1 3,-2 5,-3 2,-1 5,-1 8,-1 2,0 5,0 7,1 1,0 3,1 3,2 1,1 2,2 2,4 0,1 0,3 0,5l0 8c0,5 1,8 1,9 0,2 0,3 1,4l-6 0c0,-1 -1,-2 -1,-4zm0 -12c-2,1 -5,1 -9,2 -3,0 -4,1 -5,1 -1,0 -2,1 -3,2 0,1 0,2 0,3 0,1 0,2 1,3 1,1 3,2 5,2 2,0 4,-1 6,-2 2,-1 3,-2 4,-4 0,-1 1,-3 1,-5l0 -2zm-19 -21c0,-2 1,-4 2,-5 1,-1 3,-2 5,-2 1,0 3,1 5,2 1,0 2,1 3,1 1,0 1,0 2,-1 0,0 0,-1 0,-2l4 0c0,2 0,4 -1,5 -2,2 -3,2 -5,2 -1,0 -3,0 -5,-2 -1,0 -2,-1 -3,-1 -1,0 -1,1 -2,1 0,1 0,1 0,2l-5 0zm31 21c0,-6 2,-11 5,-14 3,-2 6,-3 11,-3 4,0 8,1 11,4 3,3 4,7 4,12 0,5 -1,8 -2,10 -1,3 -3,5 -5,6 -3,1 -6,2 -8,2 -5,0 -9,-1 -12,-4 -3,-3 -4,-8 -4,-13zm6 0c0,4 1,7 3,9 1,2 4,4 7,4 2,0 5,-2 7,-4 1,-2 2,-5 2,-9 0,-4 -1,-8 -3,-10 -1,-2 -4,-3 -6,-3 -3,0 -6,1 -7,3 -2,2 -3,6 -3,10zm-795 77l6 1c-1,3 -3,6 -5,8 -3,2 -6,3 -10,3 -4,0 -8,-2 -11,-5 -3,-3 -4,-7 -4,-12 0,-6 1,-10 4,-13 3,-4 6,-5 11,-5 4,0 8,1 11,4 3,3 4,8 4,13 0,1 0,1 0,2l-25 0c1,3 2,6 3,8 2,2 5,3 7,3 2,0 4,-1 6,-2 1,-1 2,-3 3,-5zm-18 -9l18 0c0,-3 -1,-5 -2,-6 -2,-2 -4,-3 -7,-3 -3,0 -5,0 -6,2 -2,2 -3,4 -3,7zm49 20l0 -46 9 0 11 32c1,3 2,6 2,7 1,-1 2,-4 3,-7l11 -32 8 0 0 46 -6 0 0 -38 -13 38 -6 0 -13 -39 0 39 -6 0zm76 -11l5 1c0,3 -2,6 -5,8 -2,2 -5,3 -9,3 -5,0 -9,-2 -12,-5 -2,-3 -4,-7 -4,-12 0,-6 2,-10 4,-13 3,-4 7,-5 12,-5 4,0 8,1 10,4 3,3 5,8 5,13 0,1 0,1 0,2l-25 0c0,3 1,6 3,8 2,2 4,3 7,3 2,0 4,-1 5,-2 2,-1 3,-3 4,-5zm-19 -9l19 0c-1,-3 -1,-5 -2,-6 -2,-2 -5,-3 -7,-3 -3,0 -5,0 -7,2 -2,2 -3,4 -3,7zm32 -20l0 -6 5 0 0 6 -5 0zm0 40l0 -33 5 0 0 33 -5 0zm12 -17c0,-6 1,-10 5,-13 3,-3 6,-4 10,-4 5,0 8,1 11,4 3,3 5,8 5,13 0,4 -1,7 -2,10 -1,2 -3,4 -6,6 -2,1 -5,2 -8,2 -4,0 -8,-2 -11,-5 -3,-3 -4,-7 -4,-13zm5 0c0,5 1,8 3,10 2,2 4,3 7,3 3,0 5,-1 7,-3 2,-2 3,-6 3,-10 0,-4 -1,-7 -3,-9 -2,-2 -4,-3 -7,-3 -3,0 -5,1 -7,3 -2,2 -3,5 -3,9zm42 17l18 -46 6 0 19 46 -7 0 -5 -14 -19 0 -5 14 -7 0zm13 -19l16 0 -5 -13c-1,-3 -2,-7 -3,-9 -1,3 -2,6 -3,9l-5 13z"/>
    <path class="fil4" d="M328 1120l0 -33 5 0 0 4c1,-1 3,-3 4,-4 2,-1 4,-1 6,-1 3,0 5,0 6,1 2,2 3,3 4,5 2,-4 6,-6 10,-6 3,0 6,1 8,3 1,2 2,4 2,8l0 23 -5 0 0 -21c0,-2 -1,-4 -1,-5 0,-1 -1,-2 -2,-2 -1,-1 -2,-1 -3,-1 -3,0 -5,1 -6,2 -2,2 -3,4 -3,8l0 19 -5 0 0 -22c0,-2 -1,-4 -2,-5 0,-2 -2,-2 -4,-2 -2,0 -3,0 -4,1 -2,1 -3,2 -3,4 -1,1 -1,4 -1,7l0 17 -6 0zm59 0l-6 0 0 -46 6 0 0 16c2,-3 5,-4 9,-4 2,0 4,0 6,1 2,1 3,2 4,4 2,1 2,3 3,5 1,2 1,4 1,7 0,5 -1,10 -4,13 -3,3 -6,5 -10,5 -4,0 -7,-2 -9,-5l0 4zm0 -17c0,4 0,7 1,9 2,2 4,4 7,4 3,0 5,-1 7,-3 1,-2 2,-6 2,-10 0,-4 0,-7 -2,-9 -2,-2 -4,-3 -6,-3 -3,0 -5,1 -7,3 -2,2 -2,5 -2,9zm30 -23l0 -6 6 0 0 6 -6 0zm0 40l0 -33 6 0 0 33 -6 0zm37 -11l6 1c-1,3 -3,6 -5,8 -3,2 -6,3 -10,3 -5,0 -9,-2 -11,-5 -3,-3 -5,-7 -5,-12 0,-6 2,-10 5,-13 2,-4 6,-5 11,-5 4,0 8,1 11,4 2,3 4,8 4,13 0,1 0,1 0,2l-25 0c0,3 1,6 3,8 2,2 4,3 7,3 2,0 4,-1 5,-2 2,-1 3,-3 4,-5zm-19 -9l19 0c0,-3 -1,-5 -2,-6 -2,-2 -4,-3 -7,-3 -3,0 -5,0 -7,2 -1,2 -2,4 -3,7zm32 20l0 -33 5 0 0 4c2,-3 6,-5 10,-5 2,0 4,0 6,1 2,1 3,2 4,3 0,1 1,2 1,4 1,1 1,3 1,5l0 21 -6 0 0 -20c0,-3 0,-4 -1,-5 0,-2 -1,-2 -2,-3 -1,-1 -2,-1 -4,-1 -2,0 -4,1 -6,2 -2,2 -3,5 -3,9l0 18 -5 0zm48 -5l0 5c-1,0 -3,0 -4,0 -2,0 -4,0 -5,-1 -1,0 -2,-1 -2,-2 -1,-1 -1,-3 -1,-7l0 -19 -4 0 0 -4 4 0 0 -9 6 -3 0 12 6 0 0 4 -6 0 0 19c0,2 0,3 0,4 0,0 1,0 1,1 1,0 1,0 2,0 1,0 1,0 3,0zm28 -6l6 1c-1,3 -3,6 -6,8 -2,2 -5,3 -9,3 -5,0 -9,-2 -12,-5 -2,-3 -4,-7 -4,-12 0,-6 2,-10 4,-13 3,-4 7,-5 12,-5 4,0 8,1 10,4 3,3 5,8 5,13 0,1 0,1 0,2l-25 0c0,3 1,6 3,8 2,2 4,3 7,3 2,0 4,-1 5,-2 2,-1 3,-3 4,-5zm-19 -9l19 0c0,-3 -1,-5 -2,-6 -2,-2 -4,-3 -7,-3 -3,0 -5,0 -7,2 -2,2 -3,4 -3,7z"/>
   </g>
  </g>
 </g>
</svg>
