<?xml version="1.0" encoding="UTF-8"?>
<!DOCTYPE svg PUBLIC "-//W3C//DTD SVG 1.1//EN" "http://www.w3.org/Graphics/SVG/1.1/DTD/svg11.dtd">
<!-- Creator: CorelDRAW X7 -->
<svg xmlns="http://www.w3.org/2000/svg" xml:space="preserve" width="1189px" height="1773px" version="1.1" style="shape-rendering:geometricPrecision; text-rendering:geometricPrecision; image-rendering:optimizeQuality; fill-rule:evenodd; clip-rule:evenodd"
viewBox="0 0 1189 1773"
 xmlns:xlink="http://www.w3.org/1999/xlink">
 <defs>
  <style type="text/css">
   <![CDATA[
    .str0 {stroke:#138ABD;stroke-width:2.36221}
    .fil2 {fill:#FEFEFE}
    .fil1 {fill:#0E304C}
    .fil0 {fill:#138ABD}
    .fil3 {fill:#CBD8DA}
    .fil4 {fill:black}
   ]]>
  </style>
 </defs>
 <g id="Camada_x0020_1">
  <metadata id="CorelCorpID_0Corel-Layer"/>
  <g id="_2587244144176">
   <rect class="fil0 str0" transform="matrix(-2.51426E-014 -0.941639 -0.941639 2.51426E-014 1188.94 1772.97)" width="1883" height="1263" rx="5" ry="5"/>
   <path class="fil1" d="M247 364c18,20 30,36 58,43 45,11 144,-17 193,-31 11,-4 25,-7 36,-12 6,-1 14,-4 20,-6l136 -46c53,-17 105,-35 158,-50 27,-8 53,-17 80,-23 67,-16 196,-40 261,-36l0 -5c-47,-4 -123,8 -171,17 -62,11 -98,19 -159,38 -101,31 -201,64 -301,97 -57,19 -181,59 -240,54 -32,-4 -46,-19 -65,-40 -7,-8 -20,-23 -25,-32 -7,-10 -17,-20 -26,-29 -55,-55 -120,-79 -183,-104l-18 -6 -1 4 36 15c44,17 93,36 133,68 16,12 29,24 42,39 9,10 31,41 36,45z"/>
   <path class="fil2" d="M90 1544l0 -68 9 0 35 53 0 -53 9 0 0 68 -9 0 -36 -53 0 53 -8 0zm99 0l0 -8c-4,6 -9,9 -16,9 -3,0 -5,-1 -8,-2 -2,-1 -4,-2 -5,-4 -2,-2 -2,-4 -3,-6 0,-2 0,-4 0,-8l0 -30 8 0 0 27c0,4 0,7 0,9 1,2 2,3 4,5 1,1 3,2 6,2 2,0 5,-1 7,-2 2,-2 4,-3 5,-6 0,-2 1,-5 1,-9l0 -26 8 0 0 49 -7 0zm-18 -55l6 -13 11 0 -10 13 -7 0zm70 37l8 1c-1,5 -3,10 -7,13 -3,3 -8,5 -13,5 -7,0 -12,-3 -16,-7 -4,-4 -6,-10 -6,-19 0,-5 1,-9 2,-13 2,-4 5,-7 8,-9 4,-2 8,-3 12,-3 5,0 10,1 13,4 3,2 5,6 6,11l-8 1c0,-3 -2,-5 -4,-7 -2,-2 -4,-2 -7,-2 -4,0 -7,1 -10,4 -3,3 -4,8 -4,14 0,7 1,11 4,14 2,3 6,5 10,5 3,0 6,-1 8,-3 2,-2 3,-5 4,-9zm15 18l0 -68 8 0 0 68 -8 0zm54 -16l9 1c-1,5 -4,9 -7,12 -4,2 -9,4 -14,4 -7,0 -13,-3 -17,-7 -4,-4 -7,-10 -7,-18 0,-9 3,-15 7,-19 4,-5 9,-7 16,-7 7,0 12,2 16,6 4,5 6,11 6,19 0,1 0,1 0,2l-36 0c0,6 2,10 4,13 3,2 7,4 11,4 3,0 5,-1 7,-3 3,-1 4,-4 5,-7zm-27 -13l28 0c-1,-5 -2,-8 -4,-10 -2,-3 -6,-4 -10,-4 -4,0 -7,1 -9,3 -3,3 -4,6 -5,11zm43 4c0,-9 3,-16 8,-20 4,-3 9,-5 15,-5 7,0 13,2 17,6 4,5 6,11 6,19 0,6 -1,11 -3,14 -2,4 -4,7 -8,9 -3,2 -7,3 -12,3 -7,0 -12,-3 -16,-7 -4,-4 -7,-11 -7,-19zm9 0c0,6 1,11 4,14 3,3 6,5 10,5 4,0 8,-2 11,-5 2,-3 4,-8 4,-14 0,-6 -2,-11 -4,-14 -3,-3 -7,-4 -11,-4 -4,0 -7,1 -10,4 -3,3 -4,8 -4,14zm105 25l0 -7c-3,5 -8,8 -14,8 -4,0 -8,-1 -11,-4 -3,-2 -6,-5 -7,-9 -2,-3 -3,-8 -3,-13 0,-5 1,-9 2,-13 2,-4 4,-7 8,-9 3,-2 7,-3 11,-3 3,0 5,0 7,2 3,1 5,2 6,4l0 -24 8 0 0 68 -7 0zm-27 -25c0,7 2,11 4,14 3,3 6,5 10,5 3,0 6,-2 9,-5 3,-2 4,-7 4,-13 0,-7 -2,-12 -4,-15 -3,-3 -6,-4 -10,-4 -3,0 -6,1 -9,4 -2,3 -4,8 -4,14zm81 9l8 1c-1,5 -4,9 -7,12 -4,2 -8,4 -14,4 -7,0 -13,-3 -17,-7 -4,-4 -6,-10 -6,-18 0,-9 2,-15 6,-19 4,-5 10,-7 16,-7 7,0 12,2 16,6 5,5 7,11 7,19 0,1 0,1 0,2l-37 0c0,6 2,10 5,13 2,2 6,4 10,4 3,0 6,-1 8,-3 2,-1 4,-4 5,-7zm-27 -13l27 0c-1,-5 -2,-8 -3,-10 -3,-3 -6,-4 -11,-4 -3,0 -6,1 -9,3 -3,3 -4,6 -4,11zm73 29l0 -68 13 0 16 48c2,4 3,8 3,10 1,-3 2,-6 4,-11l16 -47 12 0 0 68 -8 0 0 -57 -20 57 -8 0 -20 -58 0 58 -8 0zm80 0l0 -49 9 0 0 49 -9 0zm-2 -55l6 -13 11 0 -11 13 -6 0zm57 55l0 -7c-3,5 -8,8 -14,8 -3,0 -7,-1 -10,-4 -4,-2 -6,-5 -8,-9 -2,-3 -3,-8 -3,-13 0,-5 1,-9 3,-13 2,-4 4,-7 7,-9 3,-2 7,-3 11,-3 3,0 6,0 8,2 2,1 4,2 6,4l0 -24 8 0 0 68 -8 0zm-26 -25c0,7 1,11 4,14 3,3 6,5 9,5 4,0 7,-2 9,-5 3,-2 4,-7 4,-13 0,-7 -1,-12 -4,-15 -2,-3 -5,-4 -9,-4 -4,0 -7,1 -9,4 -3,3 -4,8 -4,14zm47 -33l0 -10 8 0 0 10 -8 0zm0 58l0 -49 8 0 0 49 -8 0zm53 -6c-3,2 -6,4 -9,5 -3,1 -6,2 -9,2 -6,0 -10,-2 -13,-4 -3,-3 -4,-6 -4,-10 0,-3 1,-5 2,-7 1,-2 2,-3 4,-5 2,-1 4,-2 6,-2 2,-1 4,-1 7,-2 7,0 12,-1 15,-2 0,-1 0,-2 0,-2 0,-4 -1,-6 -2,-8 -2,-1 -6,-2 -10,-2 -4,0 -6,0 -8,2 -2,1 -4,3 -4,7l-9 -1c1,-4 2,-6 4,-9 2,-2 4,-3 7,-5 4,-1 7,-1 12,-1 4,0 7,0 10,1 2,1 4,2 5,4 2,1 3,3 3,6 0,1 0,4 0,7l0 11c0,8 1,13 1,15 0,2 1,4 2,6l-9 0c0,-2 -1,-4 -1,-6zm-1 -19c-3,1 -7,2 -13,3 -4,1 -6,1 -8,2 -1,1 -2,1 -3,3 -1,1 -1,2 -1,3 0,3 1,5 2,6 2,1 5,2 8,2 3,0 6,-1 8,-2 3,-1 5,-3 6,-6 1,-1 1,-4 1,-8l0 -3zm18 10l8 -1c1,3 2,6 4,7 2,2 5,3 9,3 4,0 6,-1 8,-2 2,-2 3,-4 3,-6 0,-2 -1,-3 -2,-4 -2,-1 -4,-2 -9,-3 -6,-2 -10,-3 -13,-4 -2,-1 -4,-3 -5,-5 -1,-2 -2,-4 -2,-6 0,-2 1,-4 2,-6 1,-2 2,-4 4,-5 1,-1 3,-2 5,-2 2,-1 5,-1 7,-1 4,0 7,0 10,1 3,1 5,3 7,5 1,2 2,4 3,7l-8 2c-1,-3 -2,-5 -4,-6 -1,-2 -4,-2 -7,-2 -4,0 -7,0 -8,1 -2,2 -3,3 -3,5 0,1 1,2 1,3 1,1 2,1 4,2 0,0 3,1 7,2 6,2 10,3 12,4 2,1 4,2 6,4 1,2 2,4 2,7 0,3 -1,6 -3,8 -2,2 -4,4 -7,6 -3,1 -6,2 -10,2 -7,0 -11,-2 -15,-4 -3,-3 -5,-7 -6,-12zm44 16l20 -70 6 0 -19 70 -7 0zm31 -23l8 -1c0,4 1,6 3,9 1,2 3,3 7,5 3,1 6,2 10,2 3,0 6,-1 9,-2 2,-1 4,-2 6,-4 1,-2 2,-4 2,-6 0,-2 -1,-4 -2,-5 -1,-2 -4,-3 -6,-4 -2,-1 -6,-2 -12,-3 -7,-2 -11,-3 -13,-5 -4,-1 -6,-3 -8,-6 -1,-2 -2,-5 -2,-8 0,-4 1,-7 3,-10 2,-3 5,-5 8,-7 4,-1 8,-2 13,-2 5,0 9,1 13,2 4,2 7,4 9,8 2,3 3,6 3,10l-8 1c-1,-4 -2,-8 -5,-10 -3,-2 -7,-3 -12,-3 -5,0 -9,1 -12,3 -2,2 -3,4 -3,7 0,3 1,5 2,6 2,2 7,3 14,5 7,2 12,3 15,4 4,2 6,4 8,7 2,3 3,6 3,10 0,3 -1,7 -3,10 -2,3 -5,5 -9,7 -4,2 -8,3 -13,3 -6,0 -11,-1 -15,-3 -4,-2 -7,-4 -10,-8 -2,-3 -3,-8 -3,-12zm65 22l0 -68 49 0 0 8 -40 0 0 21 38 0 0 8 -38 0 0 23 42 0 0 8 -51 0zm56 0l26 -68 9 0 28 68 -10 0 -8 -21 -29 0 -7 21 -9 0zm19 -28l23 0 -7 -19c-2,-5 -4,-10 -5,-14 -1,5 -2,9 -3,13l-8 20zm51 28l0 -68 23 0c5,0 9,1 12,1 4,1 7,3 10,5 4,3 6,7 8,12 2,4 3,10 3,16 0,5 -1,9 -2,13 -1,4 -3,7 -5,10 -2,3 -4,5 -6,6 -2,2 -5,3 -8,3 -3,1 -7,2 -11,2l-24 0zm9 -8l14 0c5,0 8,-1 11,-2 2,0 4,-2 6,-3 2,-2 3,-5 5,-9 1,-3 1,-7 1,-13 0,-7 -1,-12 -3,-16 -2,-4 -5,-6 -8,-7 -3,-1 -7,-2 -12,-2l-14 0 0 52z"/>
   <g>
    <path class="fil1" d="M148 1349c0,-12 -10,-21 -21,-21 -12,0 -21,9 -21,21 0,12 9,21 21,21 11,0 21,-9 21,-21zm-21 10c-6,0 -11,-4 -11,-10 0,-6 5,-10 11,-10 6,0 10,4 10,10 0,6 -4,10 -10,10z"/>
    <path class="fil1" d="M95 1417l63 0c3,0 5,-2 5,-5l0 -5c0,-21 -16,-37 -36,-37 -20,0 -37,16 -37,37l0 5c0,3 3,5 5,5zm32 -37c14,0 26,12 26,27l-52 0c0,-15 11,-27 26,-27z"/>
    <path class="fil1" d="M327 1380c0,-3 -3,-5 -6,-5l-100 0c-3,0 -5,2 -5,5 0,3 2,6 5,6l100 0c3,0 6,-3 6,-6z"/>
    <path class="fil1" d="M321 1344l-100 0c-20,0 -37,16 -37,36 0,21 17,37 37,37l27 0c2,0 5,-2 5,-5 0,-3 -3,-5 -5,-5l-27 0c-14,0 -26,-12 -26,-27 0,-14 12,-26 26,-26l100 0c15,0 26,12 26,26 0,15 -11,27 -26,27l-26 0c-3,0 -6,2 -6,5 0,3 3,5 6,5l26 0c21,0 37,-16 37,-37 0,-20 -16,-36 -37,-36z"/>
    <path class="fil1" d="M276 1412c0,3 -2,5 -5,5 -3,0 -5,-2 -5,-5 0,-3 2,-5 5,-5 3,0 5,2 5,5z"/>
   </g>
   <g>
    <path class="fil3" d="M149 618l0 -14 50 0 0 43c-8,6 -15,11 -24,14 -8,3 -16,5 -25,5 -11,0 -22,-3 -31,-8 -9,-5 -16,-12 -21,-21 -5,-10 -7,-20 -7,-32 0,-11 2,-22 7,-32 4,-9 11,-17 20,-22 9,-4 20,-7 31,-7 9,0 16,2 23,4 7,3 13,7 16,12 4,5 7,11 9,19l-14 4c-1,-6 -4,-11 -6,-14 -3,-4 -7,-6 -11,-8 -5,-2 -11,-3 -17,-3 -7,0 -13,1 -18,3 -5,2 -9,5 -13,8 -3,4 -5,8 -7,12 -3,7 -4,15 -4,24 0,10 1,19 5,26 4,7 9,12 16,16 7,3 14,5 22,5 6,0 13,-2 19,-4 7,-3 12,-5 15,-8l0 -22 -35 0zm127 46l0 -13c-7,10 -16,14 -27,14 -5,0 -10,-1 -14,-2 -5,-2 -8,-5 -10,-8 -2,-3 -3,-6 -4,-10 -1,-3 -1,-8 -1,-14l0 -52 14 0 0 47c0,7 1,12 1,15 1,4 3,7 6,9 3,2 6,3 11,3 4,0 8,-1 12,-3 4,-3 6,-6 8,-9 2,-4 2,-10 2,-17l0 -45 15 0 0 85 -13 0zm35 -101l0 -17 15 0 0 17 -15 0zm0 101l0 -85 15 0 0 85 -15 0zm92 -11c-5,5 -10,8 -15,10 -5,1 -10,2 -16,2 -9,0 -17,-2 -22,-6 -5,-5 -7,-11 -7,-18 0,-4 1,-8 3,-11 2,-4 4,-6 7,-8 3,-3 7,-4 11,-5 2,-1 7,-2 12,-2 12,-2 21,-3 26,-5 0,-2 0,-4 0,-4 0,-6 -1,-10 -4,-12 -4,-4 -9,-5 -16,-5 -7,0 -12,1 -15,3 -4,3 -6,7 -8,13l-14 -2c2,-6 4,-11 7,-15 3,-3 7,-6 12,-8 6,-2 13,-3 20,-3 7,0 13,1 18,2 4,2 7,4 10,7 2,2 3,6 4,10 1,2 1,6 1,13l0 19c0,13 0,22 1,25 0,4 2,7 3,11l-15 0c-1,-3 -2,-7 -3,-11zm-1 -32c-5,2 -13,4 -23,5 -6,1 -11,2 -13,3 -2,1 -4,3 -6,5 -1,2 -2,4 -2,7 0,4 2,7 5,9 3,3 7,4 12,4 6,0 11,-1 15,-4 5,-2 8,-5 10,-9 1,-4 2,-8 2,-15l0 -5zm137 43l0 -11c-5,8 -13,12 -23,12 -7,0 -13,-1 -19,-5 -6,-4 -10,-9 -13,-16 -3,-6 -5,-14 -5,-23 0,-8 2,-16 4,-23 3,-7 7,-12 13,-16 6,-3 12,-5 19,-5 5,0 10,1 14,3 4,2 7,5 10,8l0 -42 14 0 0 118 -14 0zm-45 -43c0,11 2,19 7,25 4,5 10,8 16,8 6,0 12,-3 16,-8 5,-5 7,-13 7,-24 0,-11 -2,-20 -7,-25 -4,-6 -10,-8 -17,-8 -6,0 -11,2 -16,7 -4,6 -6,14 -6,25zm140 15l15 2c-3,9 -7,15 -13,20 -7,5 -15,7 -25,7 -12,0 -22,-3 -29,-11 -7,-8 -11,-18 -11,-32 0,-14 4,-26 11,-33 7,-8 17,-12 29,-12 11,0 20,4 27,11 8,8 11,19 11,33 0,1 0,2 0,4l-63 0c0,9 3,16 8,21 4,5 10,8 17,8 6,0 10,-2 14,-5 4,-2 7,-7 9,-13zm-47 -23l47 0c-1,-7 -2,-13 -5,-16 -5,-6 -11,-8 -18,-8 -7,0 -12,2 -17,6 -4,5 -7,11 -7,18zm-493 234l0 -118 45 0c8,0 14,1 18,2 5,0 10,2 14,5 4,3 7,6 10,11 2,5 3,10 3,16 0,10 -3,19 -9,26 -7,6 -18,10 -35,10l-30 0 0 48 -16 0zm16 -62l30 0c10,0 18,-2 22,-5 4,-4 6,-9 6,-16 0,-5 -1,-9 -4,-13 -2,-3 -5,-6 -9,-7 -3,0 -8,-1 -15,-1l-30 0 0 42zm92 62l0 -85 13 0 0 13c3,-6 6,-10 9,-12 3,-2 6,-3 9,-3 5,0 10,1 15,4l-5 14c-4,-2 -7,-3 -11,-3 -3,0 -5,1 -8,3 -2,2 -4,4 -5,8 -2,5 -3,10 -3,16l0 45 -14 0zm49 -43c0,-15 5,-27 13,-35 8,-6 17,-9 27,-9 12,0 21,4 29,11 7,8 11,19 11,32 0,11 -2,20 -5,26 -3,6 -8,11 -14,14 -7,4 -13,6 -21,6 -12,0 -21,-4 -29,-12 -7,-7 -11,-18 -11,-33zm15 0c0,11 2,19 7,25 5,5 11,8 18,8 7,0 13,-3 18,-8 5,-6 7,-14 7,-25 0,-11 -2,-19 -7,-24 -5,-5 -11,-8 -18,-8 -7,0 -13,3 -18,8 -5,5 -7,13 -7,24zm137 43l0 -11c-6,8 -14,13 -24,13 -7,0 -13,-2 -19,-6 -5,-4 -10,-9 -13,-16 -3,-6 -5,-14 -5,-23 0,-8 2,-16 5,-23 2,-7 7,-12 12,-16 6,-3 12,-5 19,-5 5,0 10,1 14,3 4,2 7,5 10,9l0 -43 14 0 0 118 -13 0zm-46 -43c0,11 2,19 7,25 5,5 10,8 16,8 7,0 12,-3 16,-8 5,-5 7,-13 7,-23 0,-12 -2,-21 -7,-26 -4,-5 -10,-8 -16,-8 -7,0 -12,2 -16,8 -5,5 -7,13 -7,24zm138 43l0 -13c-7,10 -16,15 -27,15 -5,0 -10,-1 -14,-3 -5,-2 -8,-5 -10,-8 -2,-2 -4,-6 -4,-10 -1,-3 -1,-8 -1,-14l0 -52 14 0 0 47c0,7 0,12 1,15 1,4 3,7 6,9 3,2 6,3 11,3 4,0 8,-1 12,-3 4,-2 6,-5 8,-9 1,-4 2,-10 2,-17l0 -45 15 0 0 85 -13 0zm91 -31l14 2c-2,9 -6,17 -12,22 -6,6 -14,9 -23,9 -12,0 -21,-4 -28,-12 -8,-7 -11,-18 -11,-32 0,-10 1,-18 5,-25 3,-6 7,-12 13,-15 7,-3 13,-5 21,-5 9,0 16,2 22,7 6,5 10,11 12,20l-14 2c-2,-6 -4,-10 -7,-13 -4,-3 -8,-4 -13,-4 -7,0 -13,2 -17,7 -5,6 -7,14 -7,25 0,12 2,20 6,25 5,5 10,8 17,8 6,0 11,-2 15,-5 3,-4 6,-9 7,-16zm-34 45l4 -14 11 0 -3 8c5,1 8,2 11,5 2,2 3,4 3,7 0,4 -2,8 -6,11 -4,3 -9,4 -17,4 -5,0 -9,0 -12,0l1 -10c3,0 6,0 8,0 5,0 8,0 10,-2 2,-1 3,-2 3,-4 0,-1 -1,-2 -1,-2 -1,-1 -2,-2 -4,-2 -1,-1 -4,-1 -8,-1zm116 -25c-6,5 -11,8 -16,10 -5,2 -10,3 -16,3 -9,0 -16,-3 -21,-7 -5,-5 -8,-11 -8,-18 0,-4 1,-8 3,-11 2,-4 5,-6 8,-8 3,-2 6,-4 10,-5 3,-1 7,-1 13,-2 11,-2 20,-3 26,-5 0,-2 0,-3 0,-4 0,-6 -2,-10 -4,-12 -4,-4 -10,-5 -17,-5 -7,0 -12,1 -15,3 -3,3 -6,7 -7,13l-14 -2c1,-6 3,-11 6,-15 3,-3 7,-6 13,-8 5,-2 12,-3 19,-3 7,0 13,1 18,2 5,2 8,4 10,7 2,3 4,6 5,10 0,2 0,7 0,13l0 19c0,13 1,22 1,26 1,3 2,7 4,10l-15 0c-2,-3 -3,-7 -3,-11zm-1 -32c-6,2 -13,4 -24,6 -6,0 -10,1 -13,2 -2,2 -4,3 -5,5 -2,2 -2,4 -2,7 0,4 1,7 4,9 3,3 7,4 13,4 5,0 10,-1 15,-3 4,-3 7,-6 9,-10 2,-3 3,-8 3,-15l0 -5zm-47 -53c0,-5 1,-9 4,-13 3,-3 7,-5 12,-5 3,0 8,2 13,5 4,1 6,2 8,2 2,0 3,-1 4,-2 1,0 1,-2 2,-5l10 0c0,6 -2,11 -4,14 -3,3 -7,4 -11,4 -4,0 -8,-1 -14,-4 -3,-2 -6,-3 -8,-3 -1,0 -3,0 -4,2 -1,1 -2,3 -2,5l-10 0zm78 53c0,-15 4,-27 13,-35 7,-6 16,-9 27,-9 12,0 21,4 29,11 7,8 11,19 11,32 0,11 -2,20 -5,26 -4,6 -8,11 -15,14 -6,4 -13,6 -20,6 -12,0 -22,-4 -29,-12 -7,-7 -11,-18 -11,-33zm15 0c0,11 2,19 7,25 5,5 11,8 18,8 7,0 13,-3 18,-8 5,-6 7,-14 7,-25 0,-11 -2,-19 -7,-24 -5,-5 -11,-8 -18,-8 -7,0 -13,3 -18,8 -5,5 -7,13 -7,24zm-565 226l0 -11c-6,9 -14,13 -24,13 -7,0 -13,-2 -19,-6 -6,-4 -10,-9 -13,-15 -3,-7 -5,-15 -5,-23 0,-9 2,-17 4,-24 3,-6 8,-12 13,-15 6,-4 12,-6 19,-6 5,0 10,1 14,3 4,2 7,5 10,9l0 -42 14 0 0 117 -13 0zm-46 -42c0,10 2,19 7,24 5,5 10,8 16,8 7,0 12,-3 16,-8 5,-5 7,-13 7,-23 0,-12 -2,-20 -7,-26 -4,-5 -10,-8 -16,-8 -7,0 -12,3 -17,8 -4,5 -6,13 -6,25zm140 14l15 2c-3,9 -7,16 -13,21 -7,4 -15,7 -24,7 -13,0 -23,-4 -30,-12 -7,-7 -11,-18 -11,-32 0,-14 4,-25 11,-33 7,-8 17,-12 29,-12 11,0 20,4 28,12 7,7 10,18 10,32 0,1 0,2 0,4l-63 0c0,9 3,17 8,22 5,4 10,7 18,7 5,0 9,-1 13,-4 4,-3 7,-7 9,-14zm-47 -23l47 0c-1,-7 -2,-12 -5,-16 -5,-5 -11,-8 -18,-8 -7,0 -12,2 -17,7 -4,4 -7,10 -7,17zm127 51l0 -117 23 0 28 83c3,7 5,13 6,17 1,-4 3,-10 6,-19l28 -81 21 0 0 117 -15 0 0 -98 -34 98 -14 0 -34 -100 0 100 -15 0zm191 -11c-6,5 -11,8 -16,10 -5,2 -10,3 -16,3 -9,0 -16,-2 -21,-7 -5,-5 -8,-10 -8,-17 0,-5 1,-8 3,-12 2,-3 5,-6 8,-8 3,-2 6,-4 10,-5 3,-1 7,-1 13,-2 11,-1 20,-3 26,-5 0,-2 0,-3 0,-4 0,-6 -2,-10 -4,-12 -4,-3 -10,-5 -17,-5 -7,0 -12,1 -15,4 -3,2 -6,6 -7,12l-14 -2c1,-6 3,-11 6,-14 3,-4 7,-7 13,-9 5,-2 12,-3 19,-3 7,0 13,1 18,3 5,1 8,3 10,6 2,3 4,6 5,10 0,2 0,7 0,13l0 19c0,14 1,22 1,26 1,3 2,7 4,10l-15 0c-2,-3 -3,-7 -3,-11zm-1 -32c-6,2 -13,4 -24,6 -6,1 -10,2 -13,3 -2,1 -4,2 -5,4 -2,2 -2,5 -2,7 0,4 1,7 4,10 3,2 7,3 13,3 5,0 10,-1 15,-3 4,-3 7,-6 9,-10 2,-3 3,-8 3,-14l0 -6zm68 30l2 13c-4,1 -8,1 -11,1 -5,0 -9,-1 -12,-2 -3,-2 -5,-4 -6,-7 -2,-3 -2,-8 -2,-17l0 -49 -11 0 0 -11 11 0 0 -21 14 -9 0 30 15 0 0 11 -15 0 0 50c0,4 1,7 1,8 1,1 1,2 2,3 2,0 3,1 5,1 2,0 4,-1 7,-1zm72 -15l15 2c-2,9 -7,16 -13,21 -6,4 -15,7 -24,7 -13,0 -23,-4 -30,-12 -7,-7 -11,-18 -11,-32 0,-14 4,-25 11,-33 8,-8 17,-12 29,-12 11,0 20,4 28,12 7,7 10,18 10,32 0,1 0,2 0,4l-63 0c0,9 3,17 8,22 5,4 11,7 18,7 5,0 9,-1 13,-4 4,-3 7,-7 9,-14zm-47 -23l47 0c0,-7 -2,-12 -5,-16 -5,-5 -11,-8 -18,-8 -7,0 -12,2 -17,7 -4,4 -7,10 -7,17zm80 51l0 -85 13 0 0 13c3,-6 6,-10 9,-12 3,-2 6,-3 9,-3 5,0 10,2 15,5l-5 13c-3,-2 -7,-3 -10,-3 -4,0 -6,1 -9,3 -2,2 -4,4 -5,8 -2,5 -3,10 -3,17l0 44 -14 0zm55 -101l0 -16 14 0 0 16 -14 0zm0 101l0 -85 14 0 0 85 -14 0zm92 -11c-6,5 -11,8 -16,10 -5,2 -10,3 -16,3 -9,0 -16,-2 -21,-7 -5,-5 -8,-10 -8,-17 0,-5 1,-8 3,-12 2,-3 4,-6 8,-8 3,-2 6,-4 10,-5 3,-1 7,-1 13,-2 11,-1 20,-3 26,-5 0,-2 0,-3 0,-4 0,-6 -2,-10 -5,-12 -3,-3 -9,-5 -16,-5 -7,0 -12,1 -15,4 -3,2 -6,6 -7,12l-14 -2c1,-6 3,-11 6,-14 3,-4 7,-7 13,-9 5,-2 12,-3 19,-3 7,0 13,1 18,3 4,1 8,3 10,6 2,3 4,6 4,10 1,2 1,7 1,13l0 19c0,14 0,22 1,26 1,3 2,7 4,10l-15 0c-2,-3 -3,-7 -3,-11zm-1 -32c-6,2 -14,4 -24,6 -6,1 -10,2 -13,3 -2,1 -4,2 -5,4 -2,2 -2,5 -2,7 0,4 1,7 4,10 3,2 7,3 13,3 5,0 10,-1 15,-3 4,-3 7,-6 9,-10 2,-3 3,-8 3,-14l0 -6zm36 43l0 -117 14 0 0 117 -14 0zm-773 183l0 -117 41 0c9,0 16,0 21,1 7,2 12,5 17,9 6,5 11,12 14,20 3,8 5,17 5,28 0,9 -2,17 -4,24 -2,6 -4,12 -8,17 -3,4 -6,8 -10,10 -4,3 -9,5 -14,6 -6,2 -12,2 -19,2l-43 0zm16 -14l25 0c8,0 14,0 18,-2 5,-1 8,-3 11,-6 3,-4 6,-9 8,-15 2,-6 3,-14 3,-22 0,-13 -2,-22 -6,-29 -4,-6 -8,-11 -14,-13 -4,-2 -11,-2 -20,-2l-25 0 0 89zm101 -87l0 -16 14 0 0 16 -14 0zm0 101l0 -85 14 0 0 85 -14 0zm91 0l0 -11c-5,9 -13,13 -23,13 -7,0 -13,-2 -19,-6 -6,-3 -10,-9 -13,-15 -3,-7 -5,-15 -5,-23 0,-9 2,-16 4,-23 3,-7 7,-13 13,-16 6,-4 12,-6 19,-6 5,0 10,1 14,4 4,2 7,5 9,8l0 -42 15 0 0 117 -14 0zm-45 -42c0,11 2,19 7,24 4,5 10,8 16,8 6,0 12,-2 16,-8 5,-5 7,-13 7,-23 0,-12 -2,-20 -7,-26 -4,-5 -10,-8 -17,-8 -6,0 -11,3 -16,8 -4,5 -6,13 -6,25zm137 32c-5,4 -10,7 -15,9 -5,2 -10,3 -16,3 -9,0 -17,-2 -22,-7 -5,-4 -7,-10 -7,-17 0,-4 1,-8 3,-12 2,-3 4,-6 7,-8 3,-2 7,-4 10,-5 3,0 8,-1 13,-2 12,-1 21,-3 26,-5 0,-2 0,-3 0,-4 0,-5 -1,-10 -4,-12 -4,-3 -9,-5 -16,-5 -7,0 -12,1 -15,4 -4,2 -6,6 -8,12l-14 -2c2,-6 4,-10 7,-14 3,-4 7,-7 12,-9 6,-2 12,-3 20,-3 7,0 13,1 17,3 5,2 8,4 11,6 2,3 3,6 4,10 0,3 1,7 1,13l0 19c0,14 0,22 1,26 0,3 1,7 3,10l-15 0c-1,-3 -2,-6 -3,-10zm-1 -32c-5,2 -13,3 -23,5 -6,1 -11,2 -13,3 -3,1 -4,2 -6,4 -1,3 -2,5 -2,7 0,4 2,7 5,10 2,2 7,4 12,4 6,0 11,-2 15,-4 5,-2 8,-6 10,-10 1,-3 2,-8 2,-14l0 -5zm-30 -53l10 -23 19 0 -17 23 -12 0zm98 82l2 13c-4,1 -8,1 -11,1 -5,0 -9,-1 -12,-2 -3,-2 -5,-4 -6,-7 -1,-2 -2,-8 -2,-17l0 -49 -10 0 0 -11 10 0 0 -21 15 -9 0 30 14 0 0 11 -14 0 0 50c0,4 0,7 1,8 0,1 1,2 2,3 1,1 3,1 5,1 2,0 4,0 6,-1zm14 -88l0 -16 15 0 0 16 -15 0zm0 101l0 -85 15 0 0 85 -15 0zm92 -31l15 2c-2,10 -6,17 -12,23 -7,5 -15,8 -24,8 -11,0 -21,-4 -28,-11 -7,-8 -10,-19 -10,-33 0,-9 1,-17 4,-24 3,-7 8,-12 14,-16 6,-3 13,-5 20,-5 10,0 17,3 23,7 6,5 10,12 11,20l-14 2c-1,-5 -3,-10 -7,-13 -3,-2 -7,-4 -12,-4 -7,0 -13,3 -18,8 -4,5 -7,13 -7,25 0,11 3,19 7,24 4,6 10,8 17,8 6,0 10,-2 14,-5 4,-3 6,-9 7,-16z"/>
    <path class="fil3" d="M588 1171c0,-16 5,-28 14,-35 7,-7 16,-10 26,-10 12,0 22,4 29,12 7,7 11,18 11,31 0,11 -2,20 -5,26 -3,6 -8,11 -14,15 -6,3 -13,5 -21,5 -12,0 -21,-4 -29,-11 -7,-8 -11,-19 -11,-33zm15 0c0,11 3,19 7,24 5,5 11,8 18,8 8,0 13,-3 18,-8 5,-5 7,-14 7,-25 0,-10 -2,-18 -7,-24 -5,-5 -11,-8 -18,-8 -7,0 -13,3 -18,8 -4,6 -7,14 -7,25z"/>
   </g>
   <g>
    <path class="fil1" d="M1081 450l0 -136 -321 0 0 25 -12 0 0 24 -13 0 0 87 -37 0 0 283 419 0 0 -222 -12 0 0 209 -395 0 0 -258 395 0 0 12 12 0 0 -24 -36 0zm-321 -99l234 0 0 -12 -222 0 0 -13 296 0 0 124 -12 0 0 -111 -25 0 0 12 13 0 0 99 -13 0 0 -22 -65 -65 -206 0 0 -12zm209 33l41 41 -41 0 0 -41zm-221 -8l209 0 0 61 62 0 0 13 -271 0 0 -74z"/>
    <polygon class="fil1" points="1105,486 1117,486 1117,498 1105,498 "/>
    <path class="fil1" d="M846 486l0 49 123 0 0 -49 -123 0zm111 37l-99 0 0 -24 99 0 0 24z"/>
    <polygon class="fil1" points="982,598 834,598 834,684 858,684 858,671 846,671 846,610 970,610 970,671 871,671 871,684 982,684 "/>
    <polygon class="fil1" points="858,622 871,622 871,634 858,634 "/>
    <polygon class="fil1" points="883,622 957,622 957,634 883,634 "/>
    <polygon class="fil1" points="883,647 957,647 957,659 883,659 "/>
    <polygon class="fil1" points="723,474 735,474 735,486 723,486 "/>
    <polygon class="fil1" points="723,498 735,498 735,560 723,560 "/>
    <polygon class="fil4" points="1006,339 1019,339 1019,351 1006,351 "/>
    <path class="fil1" d="M760 425l73 0 0 -38 -73 0 0 38zm12 -25l49 0 0 13 -49 0 0 -13z"/>
   </g>
  </g>
 </g>
</svg>
