<?xml version="1.0" encoding="UTF-8"?>
<!DOCTYPE svg PUBLIC "-//W3C//DTD SVG 1.1//EN" "http://www.w3.org/Graphics/SVG/1.1/DTD/svg11.dtd">
<!-- Creator: CorelDRAW X7 -->
<svg xmlns="http://www.w3.org/2000/svg" xml:space="preserve" width="1189px" height="1773px" version="1.1" style="shape-rendering:geometricPrecision; text-rendering:geometricPrecision; image-rendering:optimizeQuality; fill-rule:evenodd; clip-rule:evenodd"
viewBox="0 0 1189 1773"
 xmlns:xlink="http://www.w3.org/1999/xlink">
 <defs>
  <style type="text/css">
   <![CDATA[
    .str0 {stroke:#0E304C;stroke-width:2.36221}
    .fil3 {fill:#FEFEFE}
    .fil0 {fill:#0E304C}
    .fil1 {fill:#DC9E43}
    .fil2 {fill:white}
   ]]>
  </style>
 </defs>
 <g id="Camada_x0020_1">
  <metadata id="CorelCorpID_0Corel-Layer"/>
  <g id="_2587156112224">
   <rect class="fil0 str0" transform="matrix(-2.51426E-014 -0.941639 -0.941639 2.51426E-014 1188.94 1772.97)" width="1883" height="1263" rx="5" ry="5"/>
   <path class="fil1" d="M247 364c18,20 30,36 58,43 45,11 144,-17 193,-31 11,-4 25,-7 36,-12 6,-1 14,-4 20,-6l136 -46c53,-17 105,-35 158,-50 27,-8 53,-17 80,-23 67,-16 196,-40 261,-36l0 -5c-47,-4 -123,8 -171,17 -62,11 -98,19 -159,38 -101,31 -201,64 -301,97 -57,19 -181,59 -240,54 -32,-4 -46,-19 -65,-40 -7,-8 -20,-23 -25,-32 -7,-10 -17,-20 -26,-29 -55,-55 -120,-79 -183,-104l-18 -6 -1 4 36 15c44,17 93,36 133,68 16,12 29,24 42,39 9,10 31,41 36,45z"/>
   <path class="fil1" d="M162 1597l9 2c-2,7 -6,13 -10,17 -5,3 -11,5 -18,5 -7,0 -13,-1 -18,-4 -4,-3 -8,-7 -10,-13 -3,-6 -4,-12 -4,-18 0,-7 1,-13 4,-18 3,-6 7,-10 12,-12 5,-3 10,-4 16,-4 7,0 12,1 17,5 5,3 8,8 10,14l-9 2c-2,-4 -4,-8 -7,-10 -3,-3 -7,-4 -11,-4 -5,0 -10,2 -13,4 -4,3 -6,6 -7,10 -2,4 -3,9 -3,13 0,6 1,11 3,15 2,4 4,7 8,10 3,2 7,3 11,3 5,0 9,-2 13,-5 3,-2 6,-7 7,-12zm16 -1c0,-9 2,-16 7,-20 4,-4 9,-6 15,-6 7,0 13,3 17,7 4,4 6,10 6,18 0,6 -1,11 -2,15 -2,4 -5,6 -9,8 -3,2 -7,3 -12,3 -6,0 -12,-2 -16,-6 -4,-5 -6,-11 -6,-19zm8 0c0,6 1,11 4,14 3,3 6,5 10,5 5,0 8,-2 11,-5 2,-3 4,-8 4,-14 0,-6 -2,-11 -4,-14 -3,-3 -6,-5 -11,-5 -4,0 -7,2 -10,5 -3,3 -4,8 -4,14zm47 24l0 -49 7 0 0 7c2,-2 4,-4 7,-5 2,-2 5,-3 8,-3 4,0 7,1 9,3 2,1 4,3 5,6 4,-6 9,-9 15,-9 5,0 9,2 11,4 3,3 4,7 4,13l0 33 -8 0 0 -30c0,-4 0,-6 -1,-8 0,-1 -1,-2 -3,-3 -1,-1 -3,-1 -5,-1 -3,0 -6,1 -8,3 -3,2 -4,6 -4,11l0 28 -8 0 0 -31c0,-4 -1,-7 -2,-9 -1,-2 -4,-2 -7,-2 -2,0 -4,0 -6,1 -2,2 -3,3 -4,6 -1,2 -2,5 -2,10l0 25 -8 0zm78 -58l0 -9 9 0 0 9 -9 0zm0 58l0 -49 9 0 0 49 -9 0zm18 -14l8 -2c1,4 2,6 4,8 2,2 5,3 9,3 4,0 7,-1 8,-3 2,-1 3,-3 3,-5 0,-2 -1,-4 -2,-5 -1,0 -4,-1 -9,-2 -6,-2 -10,-3 -12,-4 -3,-2 -4,-3 -6,-5 -1,-2 -1,-4 -1,-7 0,-2 0,-4 1,-6 1,-1 2,-3 4,-4 1,-1 3,-2 5,-3 3,0 5,-1 7,-1 4,0 8,1 11,2 2,1 5,3 6,5 1,1 2,4 3,7l-8 1c-1,-2 -2,-4 -3,-6 -2,-1 -5,-2 -8,-2 -4,0 -6,1 -8,2 -2,1 -2,3 -2,4 0,1 0,2 1,3 0,1 1,2 3,3 1,0 3,1 7,2 6,1 10,2 12,3 3,1 4,3 6,5 1,2 2,4 2,7 0,3 -1,5 -3,8 -1,2 -4,4 -7,5 -3,2 -6,2 -10,2 -6,0 -11,-1 -15,-4 -3,-2 -5,-6 -6,-11zm47 0l8 -2c1,4 2,6 4,8 2,2 5,3 9,3 4,0 7,-1 9,-3 1,-1 2,-3 2,-5 0,-2 -1,-4 -2,-5 -1,0 -4,-1 -9,-2 -6,-2 -10,-3 -12,-4 -3,-2 -4,-3 -6,-5 -1,-2 -1,-4 -1,-7 0,-2 0,-4 1,-6 1,-1 2,-3 4,-4 1,-1 3,-2 5,-3 3,0 5,-1 8,-1 3,0 7,1 10,2 3,1 5,3 6,5 1,1 2,4 3,7l-8 1c-1,-2 -2,-4 -3,-6 -2,-1 -5,-2 -8,-2 -4,0 -6,1 -8,2 -2,1 -2,3 -2,4 0,1 0,2 1,3 0,1 1,2 3,3 1,0 3,1 7,2 6,1 10,2 12,3 3,1 4,3 6,5 1,2 2,4 2,7 0,3 -1,5 -3,8 -1,2 -4,4 -7,5 -3,2 -6,2 -10,2 -6,0 -11,-1 -14,-4 -4,-2 -6,-6 -7,-11zm82 8c-3,3 -6,5 -8,6 -3,1 -6,1 -10,1 -5,0 -9,-1 -12,-4 -3,-2 -4,-6 -4,-10 0,-2 0,-4 1,-6 1,-2 3,-4 5,-5 1,-1 3,-2 6,-3 1,0 4,0 7,-1 7,-1 12,-2 15,-3 0,-1 0,-2 0,-2 0,-3 -1,-6 -3,-7 -2,-2 -5,-3 -9,-3 -4,0 -7,1 -9,2 -1,2 -3,4 -4,8l-8 -2c1,-3 2,-6 4,-8 1,-2 4,-4 7,-5 3,-1 7,-2 11,-2 4,0 8,1 10,2 3,1 5,2 6,4 1,1 2,3 3,5 0,2 0,4 0,8l0 11c0,7 0,12 1,14 0,2 1,4 2,6l-9 0c-1,-1 -1,-4 -2,-6zm0 -18c-3,1 -8,2 -14,3 -3,0 -6,1 -7,2 -1,0 -2,1 -3,2 -1,1 -1,3 -1,4 0,2 0,4 2,6 2,1 4,2 7,2 4,0 6,-1 9,-2 2,-2 4,-4 5,-6 1,-2 2,-5 2,-8l0 -3zm-27 -31c0,-3 1,-5 3,-7 1,-2 4,-3 6,-3 2,0 5,1 8,3 2,0 3,1 4,1 1,0 2,0 3,-1 0,0 0,-2 1,-3l6 0c-1,3 -1,6 -3,8 -2,1 -4,2 -6,2 -2,0 -5,-1 -8,-2 -2,-1 -4,-2 -5,-2 -1,0 -1,0 -2,1 -1,1 -1,2 -1,3l-6 0zm45 31c0,-9 2,-16 7,-20 5,-4 10,-6 16,-6 6,0 12,3 16,7 4,4 7,10 7,18 0,6 -1,11 -3,15 -2,4 -5,6 -8,8 -4,2 -8,3 -12,3 -7,0 -13,-2 -17,-6 -4,-5 -6,-11 -6,-19zm8 0c0,6 2,11 4,14 3,3 7,5 11,5 4,0 7,-2 10,-5 3,-3 4,-8 4,-14 0,-6 -1,-11 -4,-14 -3,-3 -6,-5 -10,-5 -4,0 -8,2 -11,5 -2,3 -4,8 -4,14zm70 0c0,-9 3,-16 8,-20 4,-4 9,-6 15,-6 7,0 12,3 17,7 4,4 6,10 6,18 0,6 -1,11 -3,15 -2,4 -4,6 -8,8 -4,2 -7,3 -12,3 -7,0 -12,-2 -16,-6 -5,-5 -7,-11 -7,-19zm9 0c0,6 1,11 4,14 3,3 6,5 10,5 4,0 8,-2 11,-5 2,-3 4,-8 4,-14 0,-6 -2,-11 -4,-14 -3,-3 -7,-5 -11,-5 -4,0 -7,2 -10,5 -3,3 -4,8 -4,14zm47 24l0 -49 7 0 0 8c2,-4 4,-6 5,-7 2,-1 4,-2 6,-2 3,0 5,1 8,3l-3 8c-2,-2 -4,-2 -6,-2 -1,0 -3,0 -5,2 -1,1 -2,2 -3,4 -1,3 -1,6 -1,10l0 25 -8 0zm30 4l8 1c0,3 1,5 2,6 3,1 5,2 9,2 4,0 7,-1 9,-2 2,-2 3,-4 4,-7 0,-1 1,-5 1,-10 -4,4 -9,6 -14,6 -7,0 -12,-2 -16,-7 -3,-5 -5,-11 -5,-17 0,-5 1,-9 3,-13 1,-4 4,-7 7,-9 3,-3 7,-4 11,-4 6,0 11,3 14,7l0 -6 8 0 0 43c0,7 -1,13 -2,16 -2,3 -4,5 -8,7 -3,2 -7,3 -12,3 -6,0 -11,-1 -14,-4 -4,-2 -5,-6 -5,-12zm6 -29c0,6 2,11 4,14 3,3 6,4 10,4 4,0 7,-1 9,-4 3,-3 4,-7 4,-14 0,-6 -1,-10 -4,-13 -2,-3 -6,-5 -9,-5 -4,0 -7,2 -10,5 -2,3 -4,7 -4,13zm79 19c-3,3 -6,5 -8,6 -3,1 -6,1 -10,1 -5,0 -9,-1 -12,-4 -3,-2 -4,-6 -4,-10 0,-2 0,-4 1,-6 1,-2 3,-4 5,-5 1,-1 3,-2 6,-3 1,0 4,0 7,-1 7,-1 12,-2 15,-3 0,-1 0,-2 0,-2 0,-3 -1,-6 -3,-7 -2,-2 -5,-3 -9,-3 -4,0 -7,1 -9,2 -1,2 -3,4 -4,8l-8 -2c1,-3 2,-6 4,-8 1,-2 4,-4 7,-5 3,-1 7,-2 11,-2 4,0 8,1 10,2 3,1 5,2 6,4 1,1 2,3 3,5 0,2 0,4 0,8l0 11c0,7 0,12 1,14 0,2 1,4 2,6l-9 0c-1,-1 -1,-4 -2,-6zm0 -18c-3,1 -8,2 -14,3 -3,0 -6,1 -7,2 -1,0 -2,1 -3,2 -1,1 -1,3 -1,4 0,2 0,4 2,6 2,1 4,2 7,2 4,0 6,-1 9,-2 2,-2 4,-4 5,-6 1,-2 2,-5 2,-8l0 -3zm21 24l0 -49 7 0 0 7c4,-5 9,-8 16,-8 3,0 6,1 8,2 2,1 4,2 6,4 1,2 2,4 2,6 0,2 1,4 1,8l0 30 -9 0 0 -29c0,-4 0,-6 -1,-8 0,-2 -1,-3 -3,-4 -2,-1 -4,-1 -6,-1 -3,0 -6,1 -9,3 -3,2 -4,6 -4,13l0 26 -8 0zm52 -58l0 -9 9 0 0 9 -9 0zm0 58l0 -49 9 0 0 49 -9 0zm17 0l0 -6 31 -36c-4,0 -7,0 -9,0l-20 0 0 -7 40 0 0 6 -27 31 -5 6c4,-1 7,-1 10,-1l23 0 0 7 -43 0zm83 -6c-3,3 -6,5 -9,6 -2,1 -6,1 -9,1 -5,0 -9,-1 -12,-4 -3,-2 -5,-6 -5,-10 0,-2 1,-4 2,-6 1,-2 3,-4 4,-5 2,-1 4,-2 6,-3 2,0 4,0 8,-1 6,-1 11,-2 15,-3 0,-1 0,-2 0,-2 0,-3 -1,-6 -3,-7 -2,-2 -5,-3 -9,-3 -4,0 -7,1 -9,2 -2,2 -3,4 -4,8l-8 -2c1,-3 2,-6 4,-8 1,-2 4,-4 7,-5 3,-1 7,-2 11,-2 4,0 8,1 10,2 3,1 5,2 6,4 1,1 2,3 3,5 0,2 0,4 0,8l0 11c0,7 0,12 0,14 1,2 1,4 2,6l-8 0c-1,-1 -2,-4 -2,-6zm0 -18c-3,1 -8,2 -14,3 -3,0 -6,1 -7,2 -2,0 -3,1 -4,2 0,1 -1,3 -1,4 0,2 1,4 3,6 2,1 4,2 7,2 3,0 6,-1 9,-2 2,-2 4,-4 5,-6 1,-2 2,-5 2,-8l0 -3zm52 24l0 -6c-3,5 -7,7 -13,7 -4,0 -8,-1 -11,-3 -3,-2 -6,-5 -8,-9 -2,-4 -2,-8 -2,-13 0,-5 0,-9 2,-13 2,-4 4,-7 7,-9 4,-3 7,-4 11,-4 3,0 6,1 8,2 2,1 4,3 6,5l0 -24 8 0 0 67 -8 0zm-26 -24c0,6 1,11 4,14 3,3 6,5 9,5 4,0 7,-2 10,-5 2,-3 3,-7 3,-13 0,-7 -1,-12 -3,-15 -3,-3 -6,-5 -10,-5 -4,0 -7,2 -9,5 -3,3 -4,7 -4,14zm44 0c0,-9 2,-16 7,-20 5,-4 10,-6 16,-6 7,0 12,3 16,7 5,4 7,10 7,18 0,6 -1,11 -3,15 -2,4 -5,6 -8,8 -4,2 -8,3 -12,3 -7,0 -13,-2 -17,-6 -4,-5 -6,-11 -6,-19zm8 0c0,6 2,11 5,14 2,3 6,5 10,5 4,0 7,-2 10,-5 3,-3 4,-8 4,-14 0,-6 -1,-11 -4,-14 -3,-3 -6,-5 -10,-5 -4,0 -8,2 -10,5 -3,3 -5,8 -5,14zm47 24l0 -49 8 0 0 8c2,-4 3,-6 5,-7 2,-1 3,-2 5,-2 3,0 6,1 9,3l-3 8c-2,-2 -4,-2 -6,-2 -2,0 -4,0 -5,2 -1,1 -2,2 -3,4 -1,3 -1,6 -1,10l0 25 -9 0zm64 -6c-3,3 -6,5 -9,6 -3,1 -6,1 -9,1 -6,0 -10,-1 -13,-4 -3,-2 -4,-6 -4,-10 0,-2 0,-4 2,-6 1,-2 2,-4 4,-5 2,-1 4,-2 6,-3 1,0 4,0 7,-1 7,-1 12,-2 15,-3 0,-1 0,-2 0,-2 0,-3 -1,-6 -2,-7 -2,-2 -6,-3 -10,-3 -4,0 -7,1 -8,2 -2,2 -4,4 -5,8l-8 -2c1,-3 2,-6 4,-8 2,-2 4,-4 7,-5 4,-1 7,-2 11,-2 5,0 8,1 11,2 2,1 4,2 5,4 2,1 3,3 3,5 0,2 0,4 0,8l0 11c0,7 1,12 1,14 0,2 1,4 2,6l-9 0c-1,-1 -1,-4 -1,-6zm-1 -18c-3,1 -8,2 -14,3 -3,0 -5,1 -7,2 -1,0 -2,1 -3,2 -1,1 -1,3 -1,4 0,2 1,4 2,6 2,1 4,2 8,2 3,0 6,-1 8,-2 3,-2 4,-4 6,-6 1,-2 1,-5 1,-8l0 -3z"/>
   <g>
    <path class="fil2" d="M168 1449c0,-12 -10,-21 -21,-21 -12,0 -21,9 -21,21 0,12 9,21 21,21 11,0 21,-9 21,-21zm-21 10c-6,0 -11,-4 -11,-10 0,-6 5,-10 11,-10 6,0 10,4 10,10 0,6 -4,10 -10,10z"/>
    <path class="fil2" d="M115 1517l63 0c3,0 5,-2 5,-5l0 -5c0,-21 -16,-37 -36,-37 -20,0 -37,16 -37,37l0 5c0,3 3,5 5,5zm32 -37c14,0 26,12 26,27l-52 0c0,-15 11,-27 26,-27z"/>
    <path class="fil2" d="M347 1480c0,-3 -3,-5 -6,-5l-100 0c-3,0 -5,2 -5,5 0,3 2,6 5,6l100 0c3,0 6,-3 6,-6z"/>
    <path class="fil2" d="M341 1444l-100 0c-20,0 -37,16 -37,36 0,21 17,37 37,37l27 0c2,0 5,-2 5,-5 0,-3 -3,-5 -5,-5l-27 0c-14,0 -26,-12 -26,-27 0,-14 12,-26 26,-26l100 0c15,0 26,12 26,26 0,15 -11,27 -26,27l-26 0c-3,0 -6,2 -6,5 0,3 3,5 6,5l26 0c21,0 37,-16 37,-37 0,-20 -16,-36 -37,-36z"/>
    <path class="fil2" d="M296 1512c0,3 -2,5 -5,5 -3,0 -5,-2 -5,-5 0,-3 2,-5 5,-5 3,0 5,2 5,5z"/>
   </g>
   <path class="fil1" d="M89 596l45 -117 18 0 47 117 -17 0 -14 -35 -49 0 -13 35 -17 0zm34 -48l40 0 -12 -33c-4,-9 -6,-18 -8,-24 -2,8 -4,15 -7,23l-13 34zm87 48l0 -85 13 0 0 12c6,-9 15,-14 27,-14 5,0 10,1 14,3 4,2 8,4 10,7 2,3 3,7 4,11 1,3 1,7 1,14l0 52 -15 0 0 -51c0,-6 0,-11 -1,-14 -1,-3 -3,-5 -6,-7 -3,-1 -6,-2 -10,-2 -6,0 -12,2 -16,6 -4,4 -7,11 -7,22l0 46 -14 0zm147 -10c-6,4 -11,7 -16,9 -5,2 -10,3 -16,3 -9,0 -16,-2 -21,-7 -5,-4 -8,-10 -8,-17 0,-4 1,-8 3,-12 2,-3 4,-6 7,-8 4,-2 7,-4 11,-5 3,0 7,-1 13,-2 11,-1 20,-3 25,-5 0,-2 1,-3 1,-3 0,-6 -2,-10 -5,-13 -3,-3 -9,-5 -16,-5 -7,0 -12,2 -15,4 -3,2 -6,6 -7,13l-14 -2c1,-6 3,-11 6,-15 3,-4 7,-7 13,-9 5,-2 12,-3 19,-3 7,0 13,1 18,3 4,2 8,4 10,6 2,3 4,6 4,10 1,3 1,7 1,13l0 20c0,13 0,21 1,25 1,4 2,7 4,10l-16 0c-1,-3 -2,-6 -2,-10zm-1 -32c-6,2 -14,4 -24,5 -6,1 -10,2 -13,3 -2,1 -4,3 -5,5 -2,2 -2,4 -2,6 0,4 1,7 4,10 3,2 7,4 13,4 5,0 10,-1 15,-4 4,-2 7,-6 9,-10 2,-3 2,-8 2,-14l1 -5zm36 -59l0 -16 15 0 0 16 -15 0zm0 101l0 -85 15 0 0 85 -15 0zm31 -25l14 -2c1,5 3,10 7,13 4,3 9,4 15,4 7,0 12,-1 15,-4 3,-2 5,-6 5,-9 0,-4 -2,-6 -4,-8 -2,-1 -7,-3 -15,-5 -11,-3 -18,-5 -22,-7 -4,-2 -7,-4 -9,-8 -3,-3 -4,-7 -4,-11 0,-4 1,-7 3,-11 2,-3 4,-6 7,-8 2,-1 5,-3 9,-4 4,-1 8,-2 13,-2 6,0 12,1 17,3 5,2 9,5 11,8 3,3 4,8 5,13l-14 2c0,-4 -2,-8 -5,-10 -3,-3 -8,-4 -13,-4 -7,0 -12,1 -14,3 -3,3 -5,5 -5,8 0,2 1,4 2,5 1,2 3,3 6,4 1,1 5,2 12,4 11,2 18,5 22,6 4,2 7,5 9,8 2,3 4,7 4,12 0,5 -2,10 -5,14 -2,4 -6,7 -12,10 -5,2 -11,3 -18,3 -11,0 -19,-2 -25,-7 -6,-4 -9,-11 -11,-20z"/>
   <path class="fil1" d="M89 780l0 -108 14 0 0 108 -14 0zm42 0l0 -108 15 0 0 108 -15 0zm77 -34l14 -2c1,6 2,10 4,14 3,3 6,6 11,8 5,2 11,4 17,4 6,0 10,-1 15,-3 4,-2 7,-4 9,-7 2,-3 3,-6 3,-9 0,-3 -1,-6 -3,-9 -2,-2 -5,-5 -10,-6 -3,-1 -9,-3 -19,-6 -10,-2 -17,-4 -21,-6 -5,-3 -9,-7 -12,-11 -2,-4 -3,-8 -3,-13 0,-6 1,-11 4,-16 3,-4 8,-8 14,-10 6,-3 13,-4 20,-4 8,0 15,1 21,4 6,2 11,6 14,11 4,5 5,11 6,17l-14 1c-1,-6 -3,-12 -8,-15 -4,-4 -10,-5 -19,-5 -8,0 -15,1 -19,4 -4,4 -6,7 -6,12 0,4 2,7 5,10 2,2 10,5 21,7 12,3 20,5 24,7 7,3 11,7 14,11 3,5 5,10 5,16 0,6 -2,11 -5,16 -3,5 -8,9 -14,12 -7,3 -13,4 -21,4 -10,0 -18,-1 -25,-4 -7,-3 -12,-7 -16,-13 -3,-6 -5,-12 -6,-19zm109 34l0 -108 14 0 0 108 -14 0zm67 0l0 -96 -36 0 0 -12 87 0 0 12 -36 0 0 96 -15 0zm66 0l0 -108 78 0 0 12 -64 0 0 34 60 0 0 13 -60 0 0 37 67 0 0 12 -81 0zm101 0l0 -108 37 0c9,0 15,0 20,1 6,2 11,4 16,8 5,5 10,11 12,19 3,7 5,16 5,25 0,9 -1,16 -3,22 -2,7 -5,12 -8,16 -3,4 -6,8 -10,10 -3,3 -7,4 -13,6 -5,1 -10,1 -17,1l-39 0zm14 -12l23 0c8,0 13,-1 17,-2 4,-2 8,-4 10,-6 3,-3 6,-8 8,-14 2,-6 3,-13 3,-21 0,-11 -2,-20 -6,-26 -4,-6 -8,-10 -13,-12 -4,-2 -10,-3 -19,-3l-23 0 0 84z"/>
   <path class="fil3" d="M721 560l73 -1c4,19 16,36 9,49 -17,12 -48,7 -68,5l-14 -53zm1 -35c15,-6 56,-6 70,0l-14 17 -57 -1 1 -16zm1 -21l2 -15c14,2 22,2 36,2l29 1c9,2 3,0 8,4 -8,13 -44,8 -75,8zm14 -49c27,10 -1,10 49,11 3,0 11,0 13,1 9,1 5,2 9,4 -7,4 -91,20 -71,-16zm67 -11c4,1 6,0 10,1 10,2 4,0 8,5l-61 -1 -14 -17 15 -18c12,8 16,17 24,24 7,5 10,5 18,6zm1 259c-1,-40 -22,-7 -40,-40 41,-1 31,-1 58,26 12,12 39,30 55,24 91,-30 64,56 111,25 -44,-69 -75,-44 -101,-52 -31,-9 -9,-11 -41,2 -40,-67 -74,-33 -100,-50 17,-12 62,-11 78,6 30,31 27,28 74,24l2 -1c1,-3 -32,-14 -34,-15 -34,-11 -56,-52 -65,-85 -20,-83 26,-95 48,-142 -39,10 -56,3 -79,-25l12 -15c7,10 13,29 30,34 21,7 44,4 58,-12 -71,-1 -51,6 -74,-41 -54,33 -85,115 -83,176 2,52 38,151 91,161z"/>
   <path class="fil3" d="M1089 571l10 -1c11,-5 26,-5 42,-4l-1 14c-13,10 -29,6 -40,-1l-11 0c-10,7 -11,5 -5,23 15,6 26,-2 49,-2 -4,22 -12,32 -21,50 -22,1 -105,5 -62,-35 11,14 35,30 57,21l-2 -22c-26,-7 -8,6 -34,1 -5,-19 -3,-40 0,-59l-3 -178c25,12 0,17 30,27 -3,1 -26,8 -16,24 11,16 17,2 33,1l9 20c-25,0 -22,-10 -34,-7 -14,3 -14,19 -2,25 15,9 42,-27 48,15 -28,1 -70,-21 -51,18 23,7 51,-23 57,12 -4,2 -2,2 -11,4 -4,1 -7,1 -11,1 -12,-1 -52,-23 -35,17 20,7 24,-7 47,-3 17,3 5,-1 12,5 -5,37 -31,0 -60,11 -5,17 -6,16 5,23zm-39 -116l-33 -31c3,23 44,40 48,101 4,56 -14,71 -42,113 18,37 39,26 75,29l-14 20c52,-27 72,-132 63,-186 -8,-50 -51,-127 -97,-149l0 103z"/>
   <path class="fil3" d="M928 568c13,10 6,2 9,18 -13,-11 -10,-11 -22,0 2,-16 -1,-13 13,-18zm54 -13c-10,-10 -1,-19 16,-17 3,16 -5,28 -16,17zm-99 -35c-7,-48 49,8 0,0zm79 -35c-13,5 -2,5 -14,-1 -12,-24 26,-25 14,1zm-18 11c12,-6 9,-5 23,-3 2,3 2,3 5,9 0,1 1,7 2,8l7 15c-31,22 -13,24 -25,45 -33,-9 -34,-30 -62,13 -13,0 -36,-17 -30,10 17,7 9,-1 33,-3l6 17c22,-7 -8,-9 21,-11 19,-2 16,2 18,13 13,-9 5,-8 19,-13 17,12 5,9 14,16 12,10 13,2 17,-8 -14,-22 -34,4 -38,-28 18,-11 5,0 14,-2 20,-4 -21,12 10,-7 11,-7 14,-5 27,2 0,0 1,1 2,1l6 3c29,-59 -60,-36 -26,-84 26,12 4,20 31,18 7,-29 -4,-13 -23,-20 -20,-9 -9,-23 -31,-29 -19,-6 -29,1 -36,17 -11,23 -11,21 -34,16 1,-19 17,-26 2,-33 -23,-12 -9,24 -8,30 -18,13 -37,19 -20,51 14,0 14,-28 44,3 2,-2 3,-5 5,-7 5,-6 2,-3 7,-7l14 22c14,-6 12,-2 13,-15 -8,-9 -32,-4 -34,-28 -1,-15 -6,-3 5,-13l14 13 8 -11z"/>
   <path class="fil0" d="M1089 579l0 -8c-11,-7 -10,-6 -5,-23 29,-11 55,26 60,-11 -7,-6 5,-2 -12,-5 -23,-4 -27,10 -47,3 -17,-40 23,-18 35,-17 4,0 7,0 11,-1 9,-2 7,-2 11,-4 -6,-35 -34,-5 -57,-12 -19,-39 23,-17 51,-18 -6,-42 -33,-6 -48,-15 -12,-6 -12,-22 2,-25 12,-3 9,7 34,7l-9 -20c-16,1 -22,15 -33,-1 -10,-16 13,-23 16,-24 -30,-10 -5,-15 -30,-27l3 178c-3,19 -5,40 0,59 26,5 8,-8 34,-1l2 22c-22,9 -46,-7 -57,-21 -43,40 40,36 62,35 9,-18 17,-28 21,-50 -23,0 -34,8 -49,2 -6,-18 -5,-16 5,-23z"/>
   <path class="fil3" d="M863 326l-1 41c-18,7 -33,8 -21,28 16,11 59,8 77,-1 4,-25 -6,-16 -14,-32 -7,-12 -3,-31 -4,-45l-37 9z"/>
   <path class="fil0" d="M803 608c7,-13 -5,-30 -9,-49l-73 1 14 53c20,2 51,7 68,-5z"/>
   <path class="fil3" d="M1059 677c-22,-6 -21,10 -42,2 -4,-2 -20,-18 -27,-23l-29 8c13,8 15,2 28,17 11,12 8,14 26,16 32,3 58,16 44,-20z"/>
   <path class="fil3" d="M1004 378c-25,-10 -44,26 -43,-36 0,-20 4,-19 -8,-26 -8,5 -8,-10 -7,38 0,23 4,32 25,40 4,1 17,7 18,7 19,6 20,-7 15,-23z"/>
   <path class="fil0" d="M778 542l14 -17c-14,-6 -55,-6 -70,0l-1 16 57 1z"/>
   <path class="fil0" d="M747 432l14 17 61 1c-4,-5 2,-3 -8,-5 -4,-1 -6,0 -10,-1 -8,-1 -11,-1 -18,-6 -8,-7 -12,-16 -24,-24l-15 18z"/>
   <path class="fil0" d="M723 504c31,0 67,5 75,-8 -5,-4 1,-2 -8,-4l-29 -1c-14,0 -22,0 -36,-2l-2 15z"/>
   <path class="fil3" d="M984 364l19 4c7,-19 1,-20 11,-37 -25,-6 -40,16 -30,33z"/>
   <path class="fil0" d="M786 466c-50,-1 -22,-1 -49,-11 -20,36 64,20 71,16 -4,-2 0,-3 -9,-4 -2,-1 -10,-1 -13,-1z"/>
   <path class="fil0" d="M1099 570l1 9c11,7 27,11 40,1l1 -14c-16,-1 -31,-1 -42,4z"/>
   <path class="fil3" d="M979 582c8,2 9,4 22,-3 -3,-10 1,-15 -14,-12 -9,2 -8,7 -8,15z"/>
   <path class="fil3" d="M944 501l17 -1 3 12 10 -2c-1,-1 -2,-7 -2,-8 -3,-6 -3,-6 -5,-9 -14,-2 -11,-3 -23,3l0 5z"/>
   <path class="fil3" d="M957 475c3,10 4,8 -8,3l8 -3zm-9 9c12,6 1,6 14,1 12,-26 -26,-25 -14,-1z"/>
   <path class="fil3" d="M881 539c5,17 17,16 22,-1 -4,-3 6,-5 -9,-5 -20,1 -6,1 -13,6z"/>
   <path class="fil3" d="M985 546c0,-3 9,-7 7,1 -2,6 -6,11 -7,-1zm13 -8c-17,-2 -26,7 -16,17 11,11 19,-1 16,-17z"/>
   <path class="fil3" d="M915 605c4,17 17,18 21,-1 -6,-4 8,-4 -9,-4 -22,1 -4,-1 -12,5z"/>
   <path class="fil3" d="M887 513c0,-10 4,-9 6,-1 3,10 -6,5 -6,1zm-4 7c49,8 -7,-48 0,0z"/>
   <polygon class="fil3" points="964,512 961,500 944,501 947,514 "/>
   <path class="fil0" d="M915 586c12,-11 9,-11 22,0 -3,-16 4,-8 -9,-18 -14,5 -11,2 -13,18z"/>
   <polygon class="fil0" points="1089,579 1100,579 1099,570 1089,571 "/>
   <path class="fil3" d="M1007 417c-8,-14 -2,-6 -15,-10 8,9 -4,4 15,10z"/>
   <path class="fil0" d="M887 513c0,4 9,9 6,-1 -2,-8 -6,-9 -6,1z"/>
   <path class="fil0" d="M985 546c1,12 5,7 7,1 2,-8 -7,-4 -7,-1z"/>
   <path class="fil0" d="M949 478c12,5 11,7 8,-3l-8 3z"/>
   <g>
    <path class="fil3" d="M88 920l0 -72 9 0 0 72 -9 0zm27 0l0 -72 10 0 0 72 -10 0zm51 -23l9 -1c0,4 1,7 3,9 2,2 4,4 7,6 3,1 7,2 11,2 4,0 7,-1 10,-2 3,-1 5,-3 6,-4 1,-2 2,-4 2,-7 0,-2 -1,-4 -2,-5 -1,-2 -3,-3 -6,-5 -2,0 -7,-2 -13,-3 -7,-2 -11,-3 -14,-5 -3,-1 -6,-4 -8,-6 -1,-3 -2,-6 -2,-9 0,-4 1,-7 3,-10 2,-3 5,-6 9,-7 4,-2 8,-3 13,-3 5,0 10,1 14,3 4,1 7,4 9,7 3,4 4,7 4,11l-9 1c-1,-4 -2,-8 -5,-10 -3,-2 -7,-4 -13,-4 -5,0 -9,2 -12,4 -3,2 -4,4 -4,7 0,3 1,5 3,7 2,1 6,3 14,5 8,1 13,3 16,4 4,2 7,5 9,8 2,2 3,6 3,10 0,3 -1,7 -3,10 -2,4 -5,6 -10,8 -4,2 -8,3 -13,3 -7,0 -12,-1 -17,-3 -4,-2 -7,-4 -10,-8 -2,-4 -4,-8 -4,-13zm69 -39l0 -10 9 0 0 10 -9 0zm0 62l0 -52 9 0 0 52 -9 0zm22 0l0 -52 8 0 0 7c2,-2 4,-4 6,-6 3,-1 6,-2 10,-2 4,0 7,1 9,2 3,2 4,4 5,7 4,-6 10,-9 16,-9 6,0 10,1 12,4 3,3 4,7 4,13l0 36 -8 0 0 -33c0,-3 -1,-6 -1,-7 -1,-2 -2,-3 -3,-4 -2,-1 -4,-2 -6,-2 -3,0 -6,2 -9,4 -2,3 -3,6 -3,12l0 30 -9 0 0 -34c0,-4 -1,-7 -2,-9 -2,-2 -4,-3 -7,-3 -3,0 -5,1 -7,2 -2,2 -4,4 -5,6 -1,3 -1,6 -1,11l0 27 -9 0zm83 20l0 -72 8 0 0 7c2,-3 4,-5 7,-6 2,-1 5,-2 8,-2 5,0 9,1 12,3 4,3 6,6 8,10 2,4 2,9 2,14 0,5 -1,10 -2,14 -2,4 -5,7 -9,10 -3,2 -7,3 -11,3 -3,0 -6,-1 -8,-2 -2,-1 -4,-3 -6,-5l0 26 -9 0zm8 -46c0,7 2,12 4,15 3,3 6,5 10,5 4,0 7,-2 10,-5 3,-3 4,-9 4,-15 0,-7 -1,-12 -4,-15 -2,-4 -6,-5 -9,-5 -4,0 -7,2 -10,5 -3,4 -5,9 -5,15zm45 0c0,-10 2,-17 8,-21 4,-4 10,-6 16,-6 7,0 13,2 18,7 4,5 6,11 6,19 0,7 -1,12 -3,16 -2,4 -5,7 -8,9 -4,2 -8,3 -13,3 -7,0 -13,-2 -18,-7 -4,-5 -6,-11 -6,-20zm9 0c0,7 1,12 4,15 3,3 7,5 11,5 4,0 8,-2 11,-5 3,-4 4,-9 4,-15 0,-7 -1,-12 -4,-15 -3,-3 -7,-5 -11,-5 -4,0 -8,2 -11,5 -3,3 -4,8 -4,15zm8 -32l6 -14 12 0 -11 14 -7 0zm38 42l9 -1c0,3 2,6 4,8 2,2 5,3 9,3 4,0 7,-1 9,-3 2,-1 3,-3 3,-5 0,-2 -1,-4 -2,-5 -2,-1 -5,-2 -9,-3 -7,-2 -11,-3 -14,-4 -2,-2 -4,-3 -5,-5 -2,-2 -2,-5 -2,-7 0,-3 0,-5 1,-7 1,-2 3,-3 5,-5 1,-1 3,-1 5,-2 2,-1 5,-1 8,-1 4,0 7,0 10,2 3,1 6,2 7,4 2,2 3,5 3,8l-8 2c-1,-3 -2,-5 -4,-7 -2,-1 -4,-2 -8,-2 -4,0 -7,1 -8,2 -2,1 -3,3 -3,5 0,1 0,2 1,3 1,1 2,2 4,2 0,1 3,1 7,2 7,2 11,3 13,4 3,2 5,3 6,5 2,2 2,5 2,8 0,3 -1,5 -2,8 -2,2 -5,4 -8,6 -3,1 -7,2 -11,2 -6,0 -12,-1 -15,-4 -4,-3 -6,-7 -7,-13zm54 -46l0 -10 8 0 0 10 -8 0zm0 62l0 -52 8 0 0 52 -8 0zm19 -26c0,-10 2,-17 8,-21 4,-4 9,-6 16,-6 7,0 13,2 17,7 5,5 7,11 7,19 0,7 -1,12 -3,16 -2,4 -5,7 -9,9 -3,2 -8,3 -12,3 -7,0 -13,-2 -18,-7 -4,-5 -6,-11 -6,-20zm9 0c0,7 1,12 4,15 3,3 6,5 11,5 4,0 8,-2 11,-5 3,-4 4,-9 4,-15 0,-7 -1,-12 -4,-15 -3,-3 -7,-5 -11,-5 -5,0 -8,2 -11,5 -3,3 -4,8 -4,15zm-442 138l0 -72 9 0 0 72 -9 0zm25 0l0 -52 8 0 0 7c3,-6 9,-8 16,-8 3,0 6,0 9,1 2,1 4,3 5,5 2,2 3,4 3,6 1,2 1,5 1,9l0 32 -9 0 0 -32c0,-4 0,-6 -1,-8 -1,-2 -2,-3 -4,-4 -1,-1 -4,-2 -6,-2 -4,0 -7,1 -10,4 -2,2 -4,7 -4,13l0 29 -8 0zm74 -8l2 8c-3,0 -5,0 -7,0 -3,0 -6,0 -8,-1 -1,-1 -2,-3 -3,-4 -1,-2 -1,-5 -1,-11l0 -30 -7 0 0 -6 7 0 0 -13 9 -5 0 18 8 0 0 6 -8 0 0 31c0,2 0,4 0,5 0,0 1,1 1,1 1,1 2,1 3,1 1,0 3,0 4,0zm44 -9l10 1c-2,5 -5,9 -8,12 -4,3 -9,5 -15,5 -8,0 -14,-3 -18,-7 -5,-5 -7,-12 -7,-20 0,-9 2,-15 7,-20 4,-5 10,-7 17,-7 7,0 13,2 17,7 5,4 7,11 7,20 0,0 0,1 0,2l-39 0c0,6 2,10 5,13 3,3 6,4 11,4 3,0 6,0 8,-2 2,-2 4,-4 5,-8zm-28 -14l29 0c-1,-5 -2,-8 -4,-10 -3,-4 -6,-5 -11,-5 -4,0 -7,1 -10,4 -3,3 -4,6 -4,11zm49 31l0 -52 7 0 0 8c2,-4 4,-6 6,-8 2,-1 4,-1 6,-1 3,0 6,1 9,2l-3 8c-3,-1 -5,-1 -7,-1 -2,0 -3,0 -5,1 -1,2 -3,3 -3,5 -1,3 -2,7 -2,10l0 28 -8 0zm33 0l0 -52 8 0 0 7c4,-6 9,-8 16,-8 3,0 6,0 9,1 3,1 5,3 6,5 1,2 2,4 3,6 0,2 0,5 0,9l0 32 -9 0 0 -32c0,-4 0,-6 -1,-8 0,-2 -2,-3 -3,-4 -2,-1 -4,-2 -7,-2 -3,0 -6,1 -9,4 -3,2 -4,7 -4,13l0 29 -9 0zm89 -7c-3,3 -6,5 -9,6 -3,1 -6,2 -10,2 -5,0 -10,-2 -13,-4 -3,-3 -4,-7 -4,-11 0,-3 0,-5 1,-7 1,-2 3,-4 5,-5 2,-1 4,-2 6,-3 2,0 5,-1 8,-1 7,-1 12,-2 16,-3 0,-2 0,-2 0,-3 0,-3 -1,-6 -3,-7 -2,-2 -5,-3 -10,-3 -4,0 -7,1 -9,2 -2,2 -3,4 -4,8l-9 -1c1,-4 2,-7 4,-9 2,-3 4,-4 8,-6 3,-1 7,-1 12,-1 4,0 8,0 10,1 3,1 5,3 6,4 2,2 3,4 3,6 0,2 1,4 1,8l0 12c0,8 0,13 0,15 1,3 1,5 2,7l-9 0c-1,-2 -1,-4 -2,-7zm0 -19c-3,1 -8,2 -15,3 -3,0 -6,1 -7,2 -2,0 -3,1 -4,2 -1,2 -1,3 -1,5 0,2 1,4 3,5 1,2 4,3 7,3 4,0 7,-1 9,-2 3,-2 5,-4 6,-6 1,-2 2,-5 2,-9l0 -3zm56 7l9 1c-1,6 -4,10 -8,14 -3,3 -8,5 -14,5 -7,0 -13,-3 -17,-7 -4,-5 -6,-12 -6,-20 0,-6 0,-11 2,-15 2,-4 5,-7 9,-9 4,-2 8,-3 12,-3 6,0 10,1 14,4 4,3 6,7 7,12l-9 1c0,-3 -2,-6 -4,-8 -2,-1 -5,-2 -7,-2 -5,0 -9,1 -11,5 -3,3 -4,8 -4,15 0,7 1,12 4,15 2,3 6,4 10,4 3,0 6,-1 9,-3 2,-2 3,-5 4,-9zm16 -43l0 -10 9 0 0 10 -9 0zm0 62l0 -52 9 0 0 52 -9 0zm19 -26c0,-10 3,-17 8,-22 5,-3 10,-5 16,-5 8,0 13,2 18,7 4,4 7,11 7,19 0,7 -1,12 -3,16 -2,3 -5,6 -9,9 -4,2 -8,3 -13,3 -7,0 -13,-3 -17,-7 -5,-5 -7,-12 -7,-20zm9 0c0,6 2,11 4,15 3,3 7,4 11,4 5,0 8,-1 11,-4 3,-4 5,-9 5,-16 0,-6 -2,-11 -5,-14 -3,-3 -6,-5 -11,-5 -4,0 -8,2 -11,5 -2,3 -4,8 -4,15zm50 26l0 -52 8 0 0 7c4,-6 9,-8 16,-8 4,0 6,0 9,1 3,1 5,3 6,5 1,2 2,4 3,6 0,2 0,5 0,9l0 32 -9 0 0 -32c0,-4 0,-6 -1,-8 0,-2 -2,-3 -3,-4 -2,-1 -4,-2 -6,-2 -4,0 -7,1 -10,4 -3,2 -4,7 -4,13l0 29 -9 0zm90 -7c-4,3 -7,5 -10,6 -3,1 -6,2 -10,2 -5,0 -10,-2 -13,-4 -3,-3 -4,-7 -4,-11 0,-3 0,-5 1,-7 2,-2 3,-4 5,-5 2,-1 4,-2 6,-3 2,0 5,-1 8,-1 7,-1 12,-2 16,-3 0,-2 0,-2 0,-3 0,-3 -1,-6 -3,-7 -2,-2 -5,-3 -10,-3 -4,0 -7,1 -9,2 -2,2 -3,4 -4,8l-9 -1c1,-4 2,-7 4,-9 2,-3 4,-4 8,-6 3,-1 7,-1 12,-1 4,0 8,0 10,1 3,1 5,3 7,4 1,2 2,4 2,6 1,2 1,4 1,8l0 12c0,8 0,13 0,15 1,3 1,5 2,7l-9 0c-1,-2 -1,-4 -1,-7zm-1 -19c-3,1 -8,2 -15,3 -3,0 -6,1 -7,2 -2,0 -3,1 -4,2 -1,2 -1,3 -1,5 0,2 1,4 3,5 1,2 4,3 7,3 4,0 7,-1 10,-2 2,-2 4,-4 5,-6 1,-2 2,-5 2,-9l0 -3zm22 26l0 -72 9 0 0 72 -9 0zm84 0l0 -7c-4,5 -8,8 -15,8 -4,0 -8,-1 -11,-4 -4,-2 -6,-5 -8,-9 -2,-4 -3,-9 -3,-14 0,-5 1,-10 3,-14 1,-5 4,-8 7,-10 4,-2 8,-3 12,-3 3,0 6,0 8,2 3,1 5,3 6,5l0 -26 9 0 0 72 -8 0zm-28 -26c0,6 1,11 4,15 3,3 6,4 10,4 4,0 7,-1 10,-4 3,-3 4,-8 4,-15 0,-7 -1,-12 -4,-15 -3,-3 -6,-5 -10,-5 -4,0 -8,1 -10,5 -3,3 -4,8 -4,15zm85 9l9 1c-1,5 -4,9 -8,12 -3,3 -8,5 -14,5 -8,0 -14,-3 -18,-7 -5,-5 -7,-12 -7,-20 0,-9 2,-15 7,-20 4,-5 10,-7 17,-7 7,0 13,2 17,7 4,4 7,11 7,20 0,0 0,1 0,2l-39 0c0,6 2,10 5,13 3,3 6,4 11,4 3,0 6,0 8,-2 2,-2 4,-4 5,-8zm-29 -14l29 0c0,-5 -1,-8 -3,-10 -3,-4 -6,-5 -11,-5 -4,0 -7,1 -10,4 -3,3 -4,6 -5,11zm-643 142l0 -63 -23 0 0 -8 56 0 0 8 -23 0 0 63 -10 0zm66 -16l9 1c-1,5 -4,9 -8,12 -3,3 -8,4 -14,4 -8,0 -14,-2 -18,-7 -5,-4 -7,-11 -7,-19 0,-9 2,-16 7,-20 4,-5 10,-8 17,-8 7,0 13,3 17,7 4,5 7,12 7,20 0,1 0,2 0,3l-39 0c0,5 2,10 5,13 3,3 6,4 11,4 3,0 6,-1 8,-2 2,-2 4,-5 5,-8zm-29 -15l29 0c0,-4 -1,-7 -3,-9 -3,-4 -6,-5 -11,-5 -4,0 -7,1 -10,4 -3,2 -4,6 -5,10zm83 12l9 2c-1,5 -3,10 -7,13 -4,4 -9,5 -15,5 -7,0 -12,-2 -17,-7 -4,-4 -6,-11 -6,-19 0,-6 1,-11 3,-15 1,-4 4,-7 8,-10 4,-2 8,-3 12,-3 6,0 11,2 14,5 4,2 6,6 7,12l-8 1c-1,-3 -3,-6 -5,-8 -2,-2 -4,-2 -7,-2 -5,0 -8,1 -11,4 -3,3 -4,8 -4,15 0,7 1,12 4,15 3,4 6,5 10,5 4,0 7,-1 9,-3 2,-2 4,-5 4,-10zm16 19l0 -52 8 0 0 8c4,-6 10,-9 17,-9 3,0 6,1 8,2 3,1 5,3 6,4 2,2 3,4 3,7 0,2 1,4 1,8l0 32 -9 0 0 -31c0,-4 -1,-6 -1,-8 -1,-2 -2,-3 -4,-5 -2,-1 -4,-1 -6,-1 -4,0 -7,1 -10,3 -2,3 -4,7 -4,14l0 28 -9 0zm53 -26c0,-9 2,-16 8,-21 4,-4 10,-6 16,-6 7,0 13,3 18,7 4,5 6,11 6,20 0,6 -1,12 -3,15 -2,4 -5,7 -8,9 -4,2 -8,3 -13,3 -7,0 -13,-2 -18,-7 -4,-4 -6,-11 -6,-20zm9 0c0,7 1,12 4,15 3,4 7,5 11,5 4,0 8,-1 11,-5 3,-3 4,-8 4,-15 0,-6 -1,-11 -4,-14 -3,-4 -7,-5 -11,-5 -4,0 -8,1 -11,5 -3,3 -4,8 -4,14zm49 26l0 -71 9 0 0 71 -9 0zm20 -26c0,-9 2,-16 8,-21 4,-4 10,-6 16,-6 7,0 13,3 17,7 5,5 7,11 7,20 0,6 -1,12 -3,15 -2,4 -5,7 -9,9 -3,2 -8,3 -12,3 -7,0 -13,-2 -18,-7 -4,-4 -6,-11 -6,-20zm9 0c0,7 1,12 4,15 3,4 7,5 11,5 4,0 8,-1 11,-5 3,-3 4,-8 4,-15 0,-6 -1,-11 -4,-14 -3,-4 -7,-5 -11,-5 -4,0 -8,1 -11,5 -3,3 -4,8 -4,14zm48 31l8 1c1,2 2,4 3,6 3,1 6,2 9,2 4,0 8,-1 10,-2 2,-2 3,-4 4,-7 1,-2 1,-6 1,-11 -4,4 -9,6 -14,6 -8,0 -13,-2 -17,-7 -4,-6 -6,-12 -6,-19 0,-5 1,-9 3,-14 2,-4 4,-7 8,-9 3,-3 7,-4 12,-4 6,0 11,3 15,8l0 -7 8 0 0 45c0,8 -1,14 -3,17 -1,4 -4,6 -7,8 -4,2 -8,3 -14,3 -6,0 -11,-1 -15,-4 -3,-3 -5,-7 -5,-12zm7 -32c0,7 1,12 4,15 3,3 6,5 10,5 4,0 8,-2 10,-5 3,-3 5,-8 5,-14 0,-7 -2,-11 -5,-15 -2,-3 -6,-4 -10,-4 -4,0 -7,1 -10,4 -3,4 -4,8 -4,14zm50 -34l0 -10 9 0 0 10 -9 0zm0 61l0 -52 9 0 0 52 -9 0zm56 -6c-3,3 -6,5 -9,6 -3,1 -6,1 -10,1 -6,0 -10,-1 -13,-4 -3,-3 -5,-6 -5,-10 0,-3 1,-5 2,-7 1,-2 3,-4 5,-5 2,-2 4,-3 6,-3 2,-1 4,-1 8,-2 7,0 12,-1 15,-3 1,-1 1,-2 1,-2 0,-3 -1,-6 -3,-7 -2,-2 -6,-3 -10,-3 -4,0 -7,0 -9,2 -2,1 -4,4 -5,8l-8 -2c1,-3 2,-6 4,-9 2,-2 4,-4 8,-5 3,-1 7,-2 11,-2 5,0 8,1 11,2 3,1 5,2 6,4 2,1 2,3 3,6 0,1 0,4 0,8l0 12c0,8 1,13 1,15 0,2 1,4 2,6l-9 0c-1,-2 -2,-4 -2,-6zm0 -20c-4,2 -8,3 -15,4 -3,0 -6,1 -8,1 -1,1 -2,2 -3,3 -1,1 -1,3 -1,4 0,3 1,5 2,6 2,2 5,3 8,3 4,0 7,-1 9,-3 3,-1 5,-3 6,-6 1,-2 1,-5 1,-8l1 -4z"/>
    <path class="fil3" d="M559 1128l9 -2c1,4 2,7 4,8 2,2 6,3 10,3 4,0 7,-1 9,-2 2,-2 3,-4 3,-6 0,-2 -1,-4 -3,-5 -1,-1 -4,-1 -9,-3 -7,-1 -11,-3 -13,-4 -3,-1 -5,-3 -6,-5 -1,-2 -2,-4 -2,-7 0,-2 0,-4 2,-6 1,-2 2,-4 4,-5 1,-1 3,-2 5,-3 3,0 5,-1 8,-1 4,0 8,1 11,2 3,1 5,3 7,5 1,2 2,5 3,8l-9 1c0,-3 -2,-5 -3,-6 -2,-2 -5,-2 -8,-2 -4,0 -7,0 -9,2 -2,1 -3,2 -3,4 0,1 1,2 2,3 0,1 1,2 3,3 1,0 3,1 8,2 6,2 10,3 13,4 2,1 4,3 5,5 2,2 3,4 3,7 0,3 -1,6 -3,8 -2,3 -4,5 -7,6 -4,2 -7,2 -11,2 -7,0 -12,-1 -16,-4 -3,-3 -6,-7 -7,-12zm117 -1l9 1c-1,5 -4,9 -8,12 -4,3 -8,4 -15,4 -7,0 -13,-2 -18,-7 -4,-4 -6,-11 -6,-19 0,-9 2,-16 7,-20 4,-5 10,-8 17,-8 7,0 13,3 17,7 4,5 7,12 7,20 0,1 0,2 -1,3l-38 0c0,5 2,10 5,13 3,3 6,4 10,4 4,0 6,-1 9,-2 2,-2 4,-5 5,-8zm-29 -15l29 0c0,-4 -1,-7 -3,-9 -3,-4 -6,-5 -11,-5 -4,0 -7,1 -10,4 -3,2 -4,6 -5,10zm-561 143l0 -72 52 0 0 9 -42 0 0 22 39 0 0 8 -39 0 0 25 44 0 0 8 -54 0zm99 0l0 -7c-3,6 -8,8 -14,8 -5,0 -8,-1 -12,-3 -3,-3 -6,-6 -8,-10 -2,-4 -3,-9 -3,-14 0,-5 1,-10 3,-14 2,-4 4,-7 8,-10 3,-2 7,-3 11,-3 3,0 6,1 8,2 3,1 5,3 6,5l0 -26 9 0 0 72 -8 0zm-28 -26c0,7 2,12 4,15 3,3 7,5 10,5 4,0 7,-2 10,-5 3,-3 4,-8 4,-14 0,-7 -1,-12 -4,-16 -3,-3 -6,-5 -10,-5 -4,0 -7,2 -10,5 -2,3 -4,8 -4,15zm84 26l0 -8c-4,6 -9,9 -16,9 -3,0 -6,0 -9,-2 -3,-1 -5,-2 -6,-4 -1,-2 -2,-4 -3,-7 0,-1 0,-4 0,-8l0 -32 9 0 0 29c0,4 0,8 0,9 1,2 2,4 4,6 2,1 4,2 6,2 3,0 6,-1 8,-2 2,-2 4,-4 5,-6 1,-2 1,-6 1,-10l0 -28 9 0 0 52 -8 0zm56 -19l8 1c-1,6 -3,11 -7,14 -4,3 -9,5 -14,5 -7,0 -13,-2 -17,-7 -5,-4 -7,-11 -7,-20 0,-5 1,-10 3,-14 2,-5 5,-8 8,-10 4,-2 8,-3 13,-3 5,0 10,1 14,4 3,3 5,7 6,12l-8 2c-1,-4 -2,-6 -4,-8 -2,-2 -5,-3 -8,-3 -4,0 -8,2 -11,5 -2,3 -4,8 -4,15 0,7 1,12 4,15 3,3 6,5 11,5 3,0 6,-1 8,-3 3,-2 4,-6 5,-10zm50 13c-4,2 -7,4 -10,5 -3,2 -6,2 -9,2 -6,0 -11,-1 -14,-4 -3,-3 -4,-6 -4,-11 0,-2 0,-5 1,-7 2,-2 3,-3 5,-5 2,-1 4,-2 6,-3 2,0 5,0 8,-1 7,-1 13,-2 16,-3 0,-1 0,-2 0,-2 0,-4 -1,-6 -3,-8 -2,-2 -5,-3 -10,-3 -4,0 -7,1 -9,3 -2,1 -3,4 -4,7l-9 -1c1,-4 2,-7 4,-9 2,-2 5,-4 8,-5 3,-1 7,-2 12,-2 4,0 8,1 11,2 2,1 4,2 6,4 1,1 2,3 2,6 1,1 1,4 1,8l0 11c0,8 0,14 0,16 1,2 1,4 3,6l-10 0c-1,-2 -1,-4 -1,-6zm-1 -20c-3,1 -8,2 -14,3 -4,1 -7,1 -8,2 -2,1 -3,2 -4,3 0,1 -1,3 -1,4 0,2 1,4 3,6 2,1 4,2 8,2 3,0 6,-1 9,-2 2,-1 4,-3 5,-6 1,-2 2,-5 2,-9l0 -3zm56 7l9 1c-1,6 -3,11 -7,14 -4,3 -9,5 -15,5 -7,0 -12,-2 -17,-7 -4,-4 -6,-11 -6,-20 0,-5 1,-10 3,-14 1,-5 4,-8 8,-10 4,-2 8,-3 12,-3 6,0 11,1 14,4 4,3 6,7 7,12l-8 2c-1,-4 -3,-6 -5,-8 -2,-2 -4,-3 -7,-3 -5,0 -8,2 -11,5 -3,3 -4,8 -4,15 0,7 1,12 4,15 2,3 6,5 10,5 4,0 7,-1 9,-3 2,-2 4,-6 4,-10zm-20 28l2 -9 7 0 -2 5c3,1 5,1 6,3 2,1 3,3 3,4 0,3 -2,5 -4,7 -2,2 -6,3 -11,3 -2,0 -5,0 -7,0l1 -7c2,0 3,1 4,1 4,0 6,-1 7,-2 1,0 1,-1 1,-2 0,-1 0,-1 0,-2 -1,0 -1,-1 -2,-1 -1,0 -3,0 -5,0zm70 -15c-3,2 -6,4 -9,5 -3,2 -6,2 -10,2 -6,0 -10,-1 -13,-4 -3,-3 -5,-6 -5,-11 0,-2 1,-5 2,-7 1,-2 3,-3 5,-5 2,-1 4,-2 6,-3 2,0 4,0 8,-1 7,-1 12,-2 16,-3 0,-1 0,-2 0,-2 0,-4 -1,-6 -3,-8 -2,-2 -6,-3 -10,-3 -4,0 -7,1 -9,3 -2,1 -4,4 -5,7l-8 -1c1,-4 2,-7 4,-9 2,-2 4,-4 8,-5 3,-1 7,-2 11,-2 5,0 8,1 11,2 3,1 5,2 6,4 2,1 3,3 3,6 0,1 0,4 0,8l0 11c0,8 1,14 1,16 0,2 1,4 2,6l-9 0c-1,-2 -1,-4 -2,-6zm0 -20c-4,1 -8,2 -15,3 -3,1 -6,1 -8,2 -1,1 -2,2 -3,3 -1,1 -1,3 -1,4 0,2 1,4 2,6 2,1 5,2 8,2 4,0 7,-1 9,-2 3,-1 5,-3 6,-6 1,-2 2,-5 2,-9l0 -3zm-29 -32c0,-4 1,-6 3,-8 2,-2 4,-3 7,-3 2,0 5,1 8,2 2,1 4,2 5,2 1,0 2,0 2,-1 1,-1 1,-2 1,-3l7 0c-1,3 -1,6 -3,8 -2,2 -4,3 -7,3 -2,0 -5,-1 -8,-3 -2,-1 -4,-2 -5,-2 -1,0 -2,1 -2,1 -1,1 -2,2 -2,4l-6 0zm48 32c0,-10 2,-17 8,-21 4,-4 10,-6 16,-6 7,0 13,2 18,7 4,5 6,11 6,19 0,7 -1,12 -3,16 -2,4 -5,7 -8,9 -4,2 -8,3 -13,3 -7,0 -13,-2 -18,-7 -4,-4 -6,-11 -6,-20zm9 0c0,7 1,12 4,15 3,3 7,5 11,5 4,0 8,-2 11,-5 3,-3 4,-8 4,-15 0,-7 -1,-11 -4,-15 -3,-3 -7,-5 -11,-5 -4,0 -8,2 -11,5 -3,4 -4,8 -4,15zm78 26l0 -72 25 0c6,0 10,1 13,1 4,1 8,3 10,6 4,3 7,7 9,12 2,5 3,10 3,17 0,5 -1,10 -2,14 -1,4 -3,8 -5,11 -2,2 -4,5 -7,6 -2,2 -5,3 -8,4 -4,1 -7,1 -12,1l-26 0zm10 -8l15 0c5,0 9,-1 11,-2 3,-1 5,-2 7,-3 2,-3 4,-6 5,-9 1,-4 2,-9 2,-14 0,-8 -1,-14 -4,-18 -2,-4 -5,-6 -9,-8 -2,-1 -6,-1 -12,-1l-15 0 0 55zm62 -54l0 -10 8 0 0 10 -8 0zm0 62l0 -52 8 0 0 52 -8 0zm20 4l9 2c0,2 1,4 3,5 2,2 5,3 9,3 4,0 7,-1 9,-3 2,-1 4,-4 5,-7 0,-1 0,-5 0,-11 -4,5 -8,7 -14,7 -7,0 -13,-3 -17,-8 -4,-5 -6,-11 -6,-18 0,-5 1,-10 3,-14 2,-4 4,-7 8,-10 3,-2 7,-3 12,-3 6,0 11,3 15,8l0 -7 8 0 0 45c0,8 -1,14 -2,17 -2,3 -5,6 -8,8 -4,2 -8,3 -13,3 -6,0 -11,-1 -15,-4 -4,-3 -6,-7 -6,-13zm7 -31c0,7 2,12 4,15 3,3 7,5 11,5 4,0 7,-2 10,-5 3,-3 4,-8 4,-15 0,-6 -2,-11 -4,-14 -3,-3 -7,-5 -11,-5 -3,0 -7,2 -9,5 -3,3 -5,8 -5,14zm50 -35l0 -10 9 0 0 10 -9 0zm0 62l0 -52 9 0 0 52 -9 0zm42 -8l1 8c-3,0 -5,1 -7,1 -3,0 -5,-1 -7,-2 -2,-1 -3,-2 -4,-4 0,-1 -1,-5 -1,-10l0 -30 -6 0 0 -7 6 0 0 -13 9 -5 0 18 9 0 0 7 -9 0 0 30c0,3 0,4 0,5 1,1 1,1 2,2 1,0 2,1 3,1 1,0 2,-1 4,-1zm42 2c-3,2 -6,4 -9,5 -3,2 -6,2 -10,2 -6,0 -10,-1 -13,-4 -3,-3 -5,-6 -5,-11 0,-2 1,-5 2,-7 1,-2 3,-3 5,-5 2,-1 4,-2 6,-3 2,0 4,0 8,-1 7,-1 12,-2 16,-3 0,-1 0,-2 0,-2 0,-4 -1,-6 -3,-8 -2,-2 -5,-3 -10,-3 -4,0 -7,1 -9,3 -2,1 -4,4 -4,7l-9 -1c1,-4 2,-7 4,-9 2,-2 4,-4 8,-5 3,-1 7,-2 11,-2 5,0 8,1 11,2 3,1 5,2 6,4 2,1 3,3 3,6 0,1 1,4 1,8l0 11c0,8 0,14 0,16 0,2 1,4 2,6l-9 0c-1,-2 -1,-4 -2,-6zm0 -20c-4,1 -8,2 -15,3 -3,1 -6,1 -7,2 -2,1 -3,2 -4,3 -1,1 -1,3 -1,4 0,2 1,4 3,6 1,1 4,2 7,2 4,0 7,-1 9,-2 3,-1 5,-3 6,-6 1,-2 2,-5 2,-9l0 -3zm22 26l0 -72 9 0 0 72 -9 0z"/>
   </g>
  </g>
 </g>
</svg>
