<?xml version="1.0" encoding="UTF-8"?>
<!DOCTYPE svg PUBLIC "-//W3C//DTD SVG 1.1//EN" "http://www.w3.org/Graphics/SVG/1.1/DTD/svg11.dtd">
<!-- Creator: CorelDRAW X7 -->
<svg xmlns="http://www.w3.org/2000/svg" xml:space="preserve" width="1882px" height="606px" version="1.1" style="shape-rendering:geometricPrecision; text-rendering:geometricPrecision; image-rendering:optimizeQuality; fill-rule:evenodd; clip-rule:evenodd"
viewBox="0 0 1882 606"
 xmlns:xlink="http://www.w3.org/1999/xlink">
 <defs>
  <style type="text/css">
   <![CDATA[
    .fil0 {fill:#0095D9}
    .fil1 {fill:#00A550}
    .fil2 {fill:#137BC0}
    .fil4 {fill:#3AAE6B}
    .fil3 {fill:#3BAC6A}
   ]]>
  </style>
 </defs>
 <g id="Camada_x0020_1">
  <metadata id="CorelCorpID_0Corel-Layer"/>
  <g id="_2587396212992">
   <path class="fil0" d="M105 340l33 10c3,0 5,1 7,1 9,3 33,8 43,10l14 2c42,8 100,15 141,15l22 0c1,-1 2,0 4,0 2,-1 5,-1 8,-1 -2,1 -21,5 -23,6 -10,2 -22,4 -32,6 -10,1 -32,4 -42,5 -6,0 -12,1 -18,1 -2,0 -3,0 -5,0 -1,0 -3,0 -5,0 -1,0 -2,0 -4,0l-19 0c-2,0 -2,0 -3,0l-9 -1c-1,0 -2,0 -3,0 -21,-2 -34,-3 -56,-10 -12,-4 -22,-10 -31,-17 -5,-3 -11,-10 -14,-13 -3,-4 -6,-8 -8,-13 0,0 0,0 0,-1zm449 -90l0 1c0,4 0,9 -1,13 0,4 -1,7 -2,10 -2,10 -6,20 -11,29 -7,11 -16,22 -26,30 -6,5 -12,9 -19,13 0,0 -1,0 -2,1 -1,0 -2,1 -3,2 -3,1 -9,4 -12,5 0,0 -1,1 -1,1 -5,4 -10,8 -15,11 -4,2 -14,7 -17,9 -1,0 -1,0 -2,1l-11 5c-2,1 -3,1 -5,2l-6 2c0,0 -1,1 -1,1 -2,0 -3,1 -5,1 -18,7 -33,11 -52,16 -2,1 -3,1 -5,1 -12,3 -26,6 -38,7l-46 5 -53 0c-1,0 -1,0 -2,0 -23,0 -55,-7 -75,-15 -12,-5 -22,-11 -32,-20l-5 -3c-2,-3 -8,-9 -11,-12 0,-1 0,-1 -1,-2 -4,-5 -8,-11 -11,-17 -2,-5 -4,-11 -6,-17 -1,0 -5,-2 -7,-2 -2,-1 -4,-2 -7,-4 -2,-1 -4,-2 -6,-3 -2,-1 -4,-2 -7,-3l-12 -8c-4,-2 -7,-5 -11,-8 -1,-1 -1,-2 -2,-3 -3,-2 -6,-5 -7,-7l-9 -12c-2,-4 -4,-8 -6,-13 -3,-9 -3,-13 -3,-22 0,-8 3,-17 6,-24l3 -6c2,-3 3,-5 4,-7 5,-5 9,-10 14,-15l3 -3c8,-8 22,-16 32,-22 7,-3 14,-6 21,-9 17,-7 35,-11 54,-14l14 -2c3,0 6,0 9,0 3,-1 7,-1 9,-1l19 -1c2,0 4,0 5,0l24 -15c5,-4 11,-6 16,-9 1,-1 2,-1 3,-2l13 -7c16,-8 32,-14 48,-21 1,0 2,-1 4,-1l48 -17c18,-5 36,-9 55,-13 6,-1 11,-2 17,-3 5,-1 4,0 7,-2 4,-3 7,-3 11,-3 3,0 7,2 9,5 4,4 5,7 5,12 0,10 -12,18 -22,13 -1,0 -2,-1 -3,-1 -3,-3 -1,-2 -9,-1 -16,2 -33,6 -48,9 -9,2 -18,5 -26,8 -5,1 -9,2 -13,3 -8,3 -16,6 -24,9l-18 7c-5,3 -11,5 -17,8 -4,2 -7,3 -11,5 -2,1 -4,2 -6,3l-26 14c0,1 0,0 0,1 3,0 16,1 19,1l14 2c4,1 2,-1 10,-4 3,-1 5,-2 8,-3 8,-2 17,-4 25,-5 3,0 6,-1 9,-1 6,-1 15,-2 21,-2 7,-1 15,-1 22,-2 1,0 3,0 5,0 1,0 3,0 5,0 28,0 46,2 72,9 22,5 46,15 64,29 10,6 17,13 25,22 7,8 13,19 17,29 5,11 7,21 7,32zm-220 106c-6,0 -11,0 -17,0l-48 -4c-30,-3 -59,-9 -89,-15 -21,-4 -49,-10 -69,-17l-7 -2c-2,-1 -4,-2 -6,-2 -2,-19 0,-30 7,-47 5,-9 9,-18 15,-27 1,-2 2,-4 4,-6 4,-6 11,-16 16,-22l12 -12c3,-3 9,-9 13,-12l8 -7c5,-5 18,-14 24,-18 1,-1 1,-1 4,-1 2,0 3,0 5,0 3,1 7,0 10,0l29 2c6,1 12,2 19,2 12,1 45,7 53,8 6,1 12,3 17,4 22,5 43,12 64,21 1,0 1,0 2,1 1,0 2,1 4,1 14,8 28,16 41,26 1,1 2,2 3,2l8 8c1,1 1,1 3,2l7 8c0,1 1,1 1,1 1,1 1,1 1,2 10,10 21,28 21,42 0,9 -2,16 -6,24 -1,2 -2,3 -3,5 -3,4 -8,10 -13,13 -4,4 -28,10 -35,11 -12,2 -23,4 -35,5l-9 1c-1,1 -2,1 -3,1 -6,0 -12,1 -19,1 -1,0 -1,0 -3,0 -1,0 -2,0 -3,0 -1,0 -1,1 -3,1 -1,0 -2,-1 -3,0 -4,0 -16,0 -20,0zm-174 -190c-1,1 -4,4 -6,5 0,1 -1,1 -1,1l-4 4c-3,2 -4,4 -7,7l-17 18c-1,1 -2,2 -3,4 -6,7 -10,11 -16,19 -3,5 -8,13 -11,17 0,2 -1,3 -2,5 -5,8 -8,15 -11,24 -1,4 -2,7 -3,11 -2,8 -3,15 -3,25 -1,0 -6,-3 -7,-3 -2,-2 -4,-3 -7,-4 -4,-3 -8,-6 -12,-8 -8,-6 -15,-13 -21,-21 -5,-9 -9,-20 -5,-33 1,-5 4,-10 6,-14 5,-9 13,-16 21,-21 4,-3 8,-6 12,-9 18,-10 39,-18 60,-23 6,-1 11,-2 18,-3 3,0 6,0 9,0 3,-1 6,-1 10,-1zm0 0l0 0zm148 -13l25 -2c4,-1 13,-1 18,-1l11 -1c6,0 12,0 17,0 5,0 22,2 27,3 20,2 35,6 53,13 2,1 4,2 6,3 8,4 12,6 21,12l10 7c1,1 3,2 4,3 4,3 12,11 15,15 3,4 5,6 8,11l3 5c2,4 4,10 5,14 5,18 1,34 -7,50 -2,5 -10,18 -14,21 -1,1 -2,2 -3,3 0,-1 1,-3 1,-5l0 -9c0,-18 -9,-37 -19,-51l-6 -7c0,-1 0,-1 -1,-1l-5 -6c-5,-4 -9,-9 -14,-13 -8,-5 -10,-8 -19,-13l-10 -6c-2,-2 -4,-3 -7,-4l-43 -21 -8 -3c-11,-4 -37,-11 -50,-13l-16 -3c0,0 -1,-1 -1,-1l-1 0z"/>
   <path class="fil1" d="M230 264c0,9 3,18 8,26 2,3 5,6 8,9 2,2 7,5 10,6 12,6 28,7 40,1 6,-3 9,-6 13,-10l3 -3c1,-1 2,-2 2,-3 3,-4 3,-4 4,-7 5,-9 5,-20 3,-29 -1,-7 -5,-14 -9,-19 -7,-10 -21,-17 -34,-17 -6,0 -7,0 -14,1 -3,1 -5,2 -8,3 -3,2 -4,2 -7,5 -3,1 -7,5 -9,8 -1,2 -3,4 -4,6 -4,7 -6,14 -6,23z"/>
   <path class="fil0" d="M188 486c1,0 0,1 1,1 0,1 0,2 1,3 0,1 1,2 2,4l7 17c0,2 1,3 2,5 0,1 1,3 1,4l-27 0 5 -13c1,-2 8,-20 8,-21zm-50 68l24 0c0,-1 3,-7 3,-8l4 -10 40 0c1,2 2,4 2,5 1,1 1,3 2,4l3 7c0,1 0,1 1,2l24 0c0,-1 -1,-4 -2,-5l-8 -17c0,-1 0,-2 -1,-3l-7 -17c-1,-1 -1,-2 -2,-3 0,-1 -1,-2 -1,-3 -1,-1 -1,-2 -1,-3l-12 -25c0,-1 -1,-2 -1,-3l-5 -12 -27 0c0,1 -5,15 -6,17l-30 74z"/>
   <polygon class="fil0" points="356,554 423,554 423,538 378,538 378,516 420,516 420,499 378,499 378,480 422,480 422,463 356,463 "/>
   <path class="fil0" d="M25 508c0,9 1,15 4,22 3,4 7,10 11,13 1,1 1,1 2,2 0,0 1,0 1,1l8 4c5,2 9,4 14,4 4,1 7,1 11,2l4 0c9,-1 18,-2 26,-6 2,-1 5,-2 7,-3l0 -21 -3 2c-2,1 -3,1 -4,2 -2,1 -5,2 -8,3 -8,3 -15,4 -24,3 -9,-1 -18,-6 -23,-14 -2,-5 -3,-9 -3,-15 0,-11 9,-20 19,-24 11,-3 21,-2 32,1 4,2 13,6 13,6l0 -20 -6 -3c-15,-6 -35,-7 -50,-1 -3,1 -5,2 -8,4 -4,2 -8,5 -11,8 -3,3 -5,6 -7,10 -1,1 -2,3 -2,4 -2,5 -3,11 -3,16z"/>
   <path class="fil0" d="M458 487c0,7 1,11 5,17 9,12 33,15 40,22 2,3 2,8 -1,10 -7,5 -21,2 -29,-2l-13 -7 0 20c9,4 18,9 29,9l0 0 4 0c7,0 11,-1 18,-4 4,-1 9,-4 11,-7 2,-3 2,-3 4,-6 3,-7 3,-16 0,-22 -6,-13 -22,-17 -34,-22 -5,-2 -10,-4 -10,-9 0,-6 10,-7 14,-7 12,0 26,8 28,8l0 -18c-2,-1 -11,-4 -14,-5 -13,-3 -29,-3 -41,4 -5,4 -11,11 -11,19z"/>
   <path class="fil0" d="M296 501l-11 0 0 -21c8,0 24,-1 24,9 0,4 1,7 -3,10 -3,1 -6,2 -10,2zm-34 53l23 0 0 -36c9,0 23,1 30,-2 4,-1 6,-3 9,-5 1,-1 2,-2 3,-4 1,-1 2,-2 3,-4 5,-9 4,-20 -2,-29 -1,-1 -2,-2 -4,-3 -3,-4 -11,-8 -19,-8l-43 0 0 91z"/>
   <path class="fil2" d="M992 520c-13,-3 -22,-1 -44,-9 -71,-25 -93,-96 -51,-158 4,-6 7,-9 12,-15 6,-8 20,-19 29,-25 31,-24 81,-39 120,-46 32,-6 66,-7 103,-7l-29 24c-32,33 -49,48 -74,87 -18,27 -24,37 -39,68 -8,15 -27,61 -27,81zm712 -471l6 0c14,1 27,11 27,30 0,14 -13,28 -27,28 -19,0 -18,-6 -23,-6 -34,0 -143,22 -175,31 -102,29 -216,77 -299,143l-55 47c-17,14 -20,20 -34,33 -4,4 -5,7 -8,10 -39,40 -84,117 -84,171 0,10 4,13 -3,17 -5,4 -11,5 -17,5l-16 0c-40,0 -99,-23 -129,-53 -22,-22 -33,-46 -35,-71l0 -21c1,-16 5,-32 12,-50 15,-36 66,-76 98,-93 44,-23 93,-41 143,-46 19,-2 39,-4 60,-4 9,0 16,0 22,1l34 1c10,0 12,-3 23,-10 70,-42 184,-85 259,-109 48,-15 140,-37 191,-40 12,-1 8,-2 15,-8 4,-4 9,-6 15,-6z"/>
   <path class="fil3" d="M1234 406l16 0 0 -35 19 35 19 0 0 -61 -17 0 0 34c-4,-2 -3,-4 -5,-8 -2,-3 -4,-5 -6,-9 -1,-3 -3,-5 -5,-9 -4,-9 -1,-8 -21,-8l0 61z"/>
   <path class="fil4" d="M1771 392l-10 0 0 -32 6 0c11,0 16,5 17,14 0,9 -4,18 -13,18zm-27 14l31 0c13,0 24,-11 24,-24 0,-16 -1,-37 -28,-37l-27 0 0 61z"/>
   <path class="fil4" d="M1637 392l-10 0 0 -32 7 0c10,0 15,5 16,14 1,9 -4,18 -13,18zm-27 14l31 0c13,0 25,-11 25,-24 0,-16 -2,-37 -29,-37l-27 0 0 61z"/>
   <path class="fil4" d="M1485 371l-15 0 0 -13 8 0c4,0 12,2 12,6 0,4 -1,7 -5,7zm-32 35l17 0 0 -22c19,0 19,0 21,22l17 0c-5,-9 0,-24 -11,-27 3,-3 4,-3 6,-6 9,-13 -2,-28 -17,-28l-33 0 0 61z"/>
   <polygon class="fil4" points="1811,406 1860,406 1860,392 1828,392 1828,382 1858,382 1858,369 1828,369 1828,358 1860,358 1860,345 1811,345 "/>
   <polygon class="fil4" points="1391,406 1440,406 1440,392 1408,392 1408,382 1438,382 1438,369 1408,369 1408,358 1440,358 1440,345 1391,345 "/>
   <path class="fil4" d="M1518 361c0,10 2,15 14,19 4,1 8,2 11,3 6,2 7,1 10,5 -2,10 -20,10 -21,-2l-16 0c0,31 53,26 53,5 0,-24 -18,-18 -35,-27 2,-11 16,-8 17,1l16 0c0,-30 -49,-25 -49,-4z"/>
   <path class="fil4" d="M1167 373c0,29 8,35 32,35 28,0 23,-36 23,-63l-17 0 0 39c0,12 -21,15 -21,-4l0 -35 -17 0 0 28z"/>
   <path class="fil4" d="M1702 366l3 0c0,4 3,14 5,17l-13 0c2,-3 5,-13 5,-17zm-30 40l17 0c1,-2 3,-7 4,-10l21 0c1,4 2,6 2,10l19 0 -12 -30c-2,-6 -10,-25 -10,-31l-19 0 -22 61z"/>
   <path class="fil4" d="M1345 406c26,0 17,7 34,-45 1,-5 4,-10 4,-16l-16 0 -12 43 -12 -43 -17 0c2,6 3,10 5,15l9 30c2,5 4,10 5,16z"/>
   <path class="fil4" d="M1236 461l-11 0 0 -9 11 0c3,0 4,2 5,4 -1,3 -1,5 -5,5zm-2 -18l-9 0 0 -8 9 0c3,0 4,1 4,4 0,3 -1,4 -4,4zm-22 28c14,0 42,5 42,-14 0,-4 -2,-9 -8,-10 3,-4 5,-5 5,-11 0,-15 -23,-11 -39,-11l0 46z"/>
   <path class="fil4" d="M1640 461l-10 0 0 -9 10 0c3,0 4,2 5,4 -1,3 -1,5 -5,5zm-1 -18l-9 0 0 -8 9 0c3,0 4,1 4,4 0,3 -1,4 -4,4zm-22 28c13,0 41,5 41,-14 0,-4 -2,-9 -8,-10 3,-4 6,-5 6,-11 0,-15 -24,-11 -39,-11l0 46z"/>
   <path class="fil4" d="M1495 461l0 -25 9 0c3,0 8,5 8,8l0 9c0,7 -10,8 -17,8zm-13 10c13,0 43,4 43,-18l0 -10c0,-22 -31,-18 -43,-18l0 46z"/>
   <path class="fil4" d="M1693 444l-10 0 0 -9 8 0c3,0 3,0 6,1 0,5 1,8 -4,8zm-23 27l13 0 0 -17 13 2c1,4 2,11 2,15l13 0c-2,-9 0,-19 -8,-21 1,-1 15,-14 2,-23 -7,-4 -25,-2 -35,-2l0 46z"/>
   <path class="fil4" d="M1337 444l-11 0 0 -9 8 0c4,0 4,0 7,1 0,5 1,8 -4,8zm-23 27l12 0 0 -17 13 2c1,4 3,11 3,15l13 0c-2,-9 0,-19 -8,-21 1,-1 15,-14 1,-23 -6,-4 -24,-2 -34,-2l0 46z"/>
   <path class="fil4" d="M1548 452c0,-11 0,-17 12,-17 8,0 14,26 -3,26 -6,0 -9,-3 -9,-9zm9 20c33,0 29,-49 1,-49 -32,0 -31,49 -1,49z"/>
   <polygon class="fil4" points="1264,471 1303,471 1303,461 1277,461 1277,453 1299,453 1299,443 1277,443 1277,435 1302,435 1302,425 1264,425 "/>
   <path class="fil4" d="M1771 437c0,16 16,12 27,20 -3,5 0,5 -10,5 -5,0 -5,-3 -5,-6l-13 0c0,27 48,18 40,-4 -6,-14 -25,-5 -26,-17 6,-2 9,-4 11,4l13 0c0,-22 -37,-19 -37,-2z"/>
   <path class="fil4" d="M1424 439l5 14 -9 0c1,-3 3,-10 4,-14zm-24 32l15 0 1 -8 17 0 1 8 14 0 -17 -46 -14 0c0,5 -14,41 -17,46z"/>
   <path class="fil4" d="M1740 439l5 14 -9 0c1,-3 3,-10 4,-14zm-24 32l15 0 1 -8 17 0 1 8 14 0 -8 -22c-3,-8 -7,-17 -8,-24l-15 0c0,5 -14,41 -17,46z"/>
   <path class="fil4" d="M1179 439l5 14 -9 0c1,-3 3,-10 4,-14zm-24 32l15 0 1 -8 17 0 1 8 14 0 -8 -22c-3,-8 -7,-17 -8,-24l-15 0c0,5 -14,41 -17,46z"/>
   <polygon class="fil4" points="1580,406 1597,406 1597,345 1580,345 "/>
   <polygon class="fil4" points="1302,406 1319,406 1319,345 1302,345 "/>
   <path class="fil3" d="M991 419l-8 0 0 -7 8 0c3,0 4,0 4,3 0,3 -1,4 -4,4zm-8 -20l10 0 0 5 -10 0 0 -5zm-10 -6l0 34 22 0c11,0 15,-17 5,-19 3,-6 4,-2 4,-11 0,-9 -21,-7 -27,-7 -3,0 -4,0 -4,3z"/>
   <path class="fil4" d="M1361 436l13 0 0 35 13 0 0 -35c17,0 15,2 15,-11l-41 0 0 11z"/>
   <polygon class="fil4" points="1846,471 1881,471 1881,461 1859,461 1859,425 1846,425 "/>
   <path class="fil3" d="M899 414c0,19 32,19 32,1l0 -25 -6 0c-11,0 4,29 -11,29 -8,0 -5,-14 -5,-29l-10 0 0 24z"/>
   <path class="fil3" d="M951 404l2 0c1,5 1,3 2,9l-7 0c1,-3 2,-5 3,-9zm-17 23l10 0c1,-3 1,-3 2,-6l12 0c1,3 1,3 2,6l10 0c-1,-8 -10,-27 -13,-37l-10 0c-2,9 -12,28 -13,37z"/>
   <polygon class="fil4" points="1820,471 1833,471 1833,425 1820,425 "/>
   <path class="fil0" d="M105 340l33 10c3,0 5,1 7,1 9,3 33,8 43,10l14 2c42,8 100,15 141,15l22 0c1,-1 2,0 4,0 2,-1 5,-1 8,-1 -2,1 -21,5 -23,6 -10,2 -22,4 -32,6 -10,1 -32,4 -42,5 -6,0 -12,1 -18,1 -2,0 -3,0 -5,0 -1,0 -3,0 -5,0 -1,0 -2,0 -4,0l-19 0c-2,0 -2,0 -3,0l-9 -1c-1,0 -2,0 -3,0 -21,-2 -34,-3 -56,-10 -12,-4 -22,-10 -31,-17 -5,-3 -11,-10 -14,-13 -3,-4 -6,-8 -8,-13 0,0 0,0 0,-1zm449 -90l0 1c0,4 0,9 -1,13 0,4 -1,7 -2,10 -2,10 -6,20 -11,29 -7,11 -16,22 -26,30 -6,5 -12,9 -19,13 0,0 -1,0 -2,1 -1,0 -2,1 -3,2 -3,1 -9,4 -12,5 0,0 -1,1 -1,1 -5,4 -10,8 -15,11 -4,2 -14,7 -17,9 -1,0 -1,0 -2,1l-11 5c-2,1 -3,1 -5,2l-6 2c0,0 -1,1 -1,1 -2,0 -3,1 -5,1 -18,7 -33,11 -52,16 -2,1 -3,1 -5,1 -12,3 -26,6 -38,7l-46 5 -53 0c-1,0 -1,0 -2,0 -23,0 -55,-7 -75,-15 -12,-5 -22,-11 -32,-20l-5 -3c-2,-3 -8,-9 -11,-12 0,-1 0,-1 -1,-2 -4,-5 -8,-11 -11,-17 -2,-5 -4,-11 -6,-17 -1,0 -5,-2 -7,-2 -2,-1 -4,-2 -7,-4 -2,-1 -4,-2 -6,-3 -2,-1 -4,-2 -7,-3l-12 -8c-4,-2 -7,-5 -11,-8 -1,-1 -1,-2 -2,-3 -3,-2 -6,-5 -7,-7l-9 -12c-2,-4 -4,-8 -6,-13 -3,-9 -3,-13 -3,-22 0,-8 3,-17 6,-24l3 -6c2,-3 3,-5 4,-7 5,-5 9,-10 14,-15l3 -3c8,-8 22,-16 32,-22 7,-3 14,-6 21,-9 17,-7 35,-11 54,-14l14 -2c3,0 6,0 9,0 3,-1 7,-1 9,-1l19 -1c2,0 4,0 5,0l24 -15c5,-4 11,-6 16,-9 1,-1 2,-1 3,-2l13 -7c16,-8 32,-14 48,-21 1,0 2,-1 4,-1l48 -17c18,-5 36,-9 55,-13 6,-1 11,-2 17,-3 5,-1 4,0 7,-2 4,-3 7,-3 11,-3 3,0 7,2 9,5 4,4 5,7 5,12 0,10 -12,18 -22,13 -1,0 -2,-1 -3,-1 -3,-3 -1,-2 -9,-1 -16,2 -33,6 -48,9 -9,2 -18,5 -26,8 -5,1 -9,2 -13,3 -8,3 -16,6 -24,9l-18 7c-5,3 -11,5 -17,8 -4,2 -7,3 -11,5 -2,1 -4,2 -6,3l-26 14c0,1 0,0 0,1 3,0 16,1 19,1l14 2c4,1 2,-1 10,-4 3,-1 5,-2 8,-3 8,-2 17,-4 25,-5 3,0 6,-1 9,-1 6,-1 15,-2 21,-2 7,-1 15,-1 22,-2 1,0 3,0 5,0 1,0 3,0 5,0 28,0 46,2 72,9 22,5 46,15 64,29 10,6 17,13 25,22 7,8 13,19 17,29 5,11 7,21 7,32zm-220 106c-6,0 -11,0 -17,0l-48 -4c-30,-3 -59,-9 -89,-15 -21,-4 -49,-10 -69,-17l-7 -2c-2,-1 -4,-2 -6,-2 -2,-19 0,-30 7,-47 5,-9 9,-18 15,-27 1,-2 2,-4 4,-6 4,-6 11,-16 16,-22l12 -12c3,-3 9,-9 13,-12l8 -7c5,-5 18,-14 24,-18 1,-1 1,-1 4,-1 2,0 3,0 5,0 3,1 7,0 10,0l29 2c6,1 12,2 19,2 12,1 45,7 53,8 6,1 12,3 17,4 22,5 43,12 64,21 1,0 1,0 2,1 1,0 2,1 4,1 14,8 28,16 41,26 1,1 2,2 3,2l8 8c1,1 1,1 3,2l7 8c0,1 1,1 1,1 1,1 1,1 1,2 10,10 21,28 21,42 0,9 -2,16 -6,24 -1,2 -2,3 -3,5 -3,4 -8,10 -13,13 -4,4 -28,10 -35,11 -12,2 -23,4 -35,5l-9 1c-1,1 -2,1 -3,1 -6,0 -12,1 -19,1 -1,0 -1,0 -3,0 -1,0 -2,0 -3,0 -1,0 -1,1 -3,1 -1,0 -2,-1 -3,0 -4,0 -16,0 -20,0zm-174 -190c-1,1 -4,4 -6,5 0,1 -1,1 -1,1l-4 4c-3,2 -4,4 -7,7l-17 18c-1,1 -2,2 -3,4 -6,7 -10,11 -16,19 -3,5 -8,13 -11,17 0,2 -1,3 -2,5 -5,8 -8,15 -11,24 -1,4 -2,7 -3,11 -2,8 -3,15 -3,25 -1,0 -6,-3 -7,-3 -2,-2 -4,-3 -7,-4 -4,-3 -8,-6 -12,-8 -8,-6 -15,-13 -21,-21 -5,-9 -9,-20 -5,-33 1,-5 4,-10 6,-14 5,-9 13,-16 21,-21 4,-3 8,-6 12,-9 18,-10 39,-18 60,-23 6,-1 11,-2 18,-3 3,0 6,0 9,0 3,-1 6,-1 10,-1zm0 0l0 0zm148 -13l25 -2c4,-1 13,-1 18,-1l11 -1c6,0 12,0 17,0 5,0 22,2 27,3 20,2 35,6 53,13 2,1 4,2 6,3 8,4 12,6 21,12l10 7c1,1 3,2 4,3 4,3 12,11 15,15 3,4 5,6 8,11l3 5c2,4 4,10 5,14 5,18 1,34 -7,50 -2,5 -10,18 -14,21 -1,1 -2,2 -3,3 0,-1 1,-3 1,-5l0 -9c0,-18 -9,-37 -19,-51l-6 -7c0,-1 0,-1 -1,-1l-5 -6c-5,-4 -9,-9 -14,-13 -8,-5 -10,-8 -19,-13l-10 -6c-2,-2 -4,-3 -7,-4l-43 -21 -8 -3c-11,-4 -37,-11 -50,-13l-16 -3c0,0 -1,-1 -1,-1l-1 0z"/>
   <path class="fil1" d="M230 264c0,9 3,18 8,26 2,3 5,6 8,9 2,2 7,5 10,6 12,6 28,7 40,1 6,-3 9,-6 13,-10l3 -3c1,-1 2,-2 2,-3 3,-4 3,-4 4,-7 5,-9 5,-20 3,-29 -1,-7 -5,-14 -9,-19 -7,-10 -21,-17 -34,-17 -6,0 -7,0 -14,1 -3,1 -5,2 -8,3 -3,2 -4,2 -7,5 -3,1 -7,5 -9,8 -1,2 -3,4 -4,6 -4,7 -6,14 -6,23z"/>
   <path class="fil0" d="M188 486c1,0 0,1 1,1 0,1 0,2 1,3 0,1 1,2 2,4l7 17c0,2 1,3 2,5 0,1 1,3 1,4l-27 0 5 -13c1,-2 8,-20 8,-21zm-50 68l24 0c0,-1 3,-7 3,-8l4 -10 40 0c1,2 2,4 2,5 1,1 1,3 2,4l3 7c0,1 0,1 1,2l24 0c0,-1 -1,-4 -2,-5l-8 -17c0,-1 0,-2 -1,-3l-7 -17c-1,-1 -1,-2 -2,-3 0,-1 -1,-2 -1,-3 -1,-1 -1,-2 -1,-3l-12 -25c0,-1 -1,-2 -1,-3l-5 -12 -27 0c0,1 -5,15 -6,17l-30 74z"/>
   <polygon class="fil0" points="356,554 423,554 423,538 378,538 378,516 420,516 420,499 378,499 378,480 422,480 422,463 356,463 "/>
   <path class="fil0" d="M25 508c0,9 1,15 4,22 3,4 7,10 11,13 1,1 1,1 2,2 0,0 1,0 1,1l8 4c5,2 9,4 14,4 4,1 7,1 11,2l4 0c9,-1 18,-2 26,-6 2,-1 5,-2 7,-3l0 -21 -3 2c-2,1 -3,1 -4,2 -2,1 -5,2 -8,3 -8,3 -15,4 -24,3 -9,-1 -18,-6 -23,-14 -2,-5 -3,-9 -3,-15 0,-11 9,-20 19,-24 11,-3 21,-2 32,1 4,2 13,6 13,6l0 -20 -6 -3c-15,-6 -35,-7 -50,-1 -3,1 -5,2 -8,4 -4,2 -8,5 -11,8 -3,3 -5,6 -7,10 -1,1 -2,3 -2,4 -2,5 -3,11 -3,16z"/>
   <path class="fil0" d="M458 487c0,7 1,11 5,17 9,12 33,15 40,22 2,3 2,8 -1,10 -7,5 -21,2 -29,-2l-13 -7 0 20c9,4 18,9 29,9l0 0 4 0c7,0 11,-1 18,-4 4,-1 9,-4 11,-7 2,-3 2,-3 4,-6 3,-7 3,-16 0,-22 -6,-13 -22,-17 -34,-22 -5,-2 -10,-4 -10,-9 0,-6 10,-7 14,-7 12,0 26,8 28,8l0 -18c-2,-1 -11,-4 -14,-5 -13,-3 -29,-3 -41,4 -5,4 -11,11 -11,19z"/>
   <path class="fil0" d="M296 501l-11 0 0 -21c8,0 24,-1 24,9 0,4 1,7 -3,10 -3,1 -6,2 -10,2zm-34 53l23 0 0 -36c9,0 23,1 30,-2 4,-1 6,-3 9,-5 1,-1 2,-2 3,-4 1,-1 2,-2 3,-4 5,-9 4,-20 -2,-29 -1,-1 -2,-2 -4,-3 -3,-4 -11,-8 -19,-8l-43 0 0 91z"/>
   <path class="fil2" d="M992 520c-13,-3 -22,-1 -44,-9 -71,-25 -93,-96 -51,-158 4,-6 7,-9 12,-15 6,-8 20,-19 29,-25 31,-24 81,-39 120,-46 32,-6 66,-7 103,-7l-29 24c-32,33 -49,48 -74,87 -18,27 -24,37 -39,68 -8,15 -27,61 -27,81zm712 -471l6 0c14,1 27,11 27,30 0,14 -13,28 -27,28 -19,0 -18,-6 -23,-6 -34,0 -143,22 -175,31 -102,29 -216,77 -299,143l-55 47c-17,14 -20,20 -34,33 -4,4 -5,7 -8,10 -39,40 -84,117 -84,171 0,10 4,13 -3,17 -5,4 -11,5 -17,5l-16 0c-40,0 -99,-23 -129,-53 -22,-22 -33,-46 -35,-71l0 -21c1,-16 5,-32 12,-50 15,-36 66,-76 98,-93 44,-23 93,-41 143,-46 19,-2 39,-4 60,-4 9,0 16,0 22,1l34 1c10,0 12,-3 23,-10 70,-42 184,-85 259,-109 48,-15 140,-37 191,-40 12,-1 8,-2 15,-8 4,-4 9,-6 15,-6z"/>
   <path class="fil3" d="M1234 406l16 0 0 -35 19 35 19 0 0 -61 -17 0 0 34c-4,-2 -3,-4 -5,-8 -2,-3 -4,-5 -6,-9 -1,-3 -3,-5 -5,-9 -4,-9 -1,-8 -21,-8l0 61z"/>
   <path class="fil4" d="M1771 392l-10 0 0 -32 6 0c11,0 16,5 17,14 0,9 -4,18 -13,18zm-27 14l31 0c13,0 24,-11 24,-24 0,-16 -1,-37 -28,-37l-27 0 0 61z"/>
   <path class="fil4" d="M1637 392l-10 0 0 -32 7 0c10,0 15,5 16,14 1,9 -4,18 -13,18zm-27 14l31 0c13,0 25,-11 25,-24 0,-16 -2,-37 -29,-37l-27 0 0 61z"/>
   <path class="fil4" d="M1485 371l-15 0 0 -13 8 0c4,0 12,2 12,6 0,4 -1,7 -5,7zm-32 35l17 0 0 -22c19,0 19,0 21,22l17 0c-5,-9 0,-24 -11,-27 3,-3 4,-3 6,-6 9,-13 -2,-28 -17,-28l-33 0 0 61z"/>
   <polygon class="fil4" points="1811,406 1860,406 1860,392 1828,392 1828,382 1858,382 1858,369 1828,369 1828,358 1860,358 1860,345 1811,345 "/>
   <polygon class="fil4" points="1391,406 1440,406 1440,392 1408,392 1408,382 1438,382 1438,369 1408,369 1408,358 1440,358 1440,345 1391,345 "/>
   <path class="fil4" d="M1518 361c0,10 2,15 14,19 4,1 8,2 11,3 6,2 7,1 10,5 -2,10 -20,10 -21,-2l-16 0c0,31 53,26 53,5 0,-24 -18,-18 -35,-27 2,-11 16,-8 17,1l16 0c0,-30 -49,-25 -49,-4z"/>
   <path class="fil4" d="M1167 373c0,29 8,35 32,35 28,0 23,-36 23,-63l-17 0 0 39c0,12 -21,15 -21,-4l0 -35 -17 0 0 28z"/>
   <path class="fil4" d="M1702 366l3 0c0,4 3,14 5,17l-13 0c2,-3 5,-13 5,-17zm-30 40l17 0c1,-2 3,-7 4,-10l21 0c1,4 2,6 2,10l19 0 -12 -30c-2,-6 -10,-25 -10,-31l-19 0 -22 61z"/>
   <path class="fil4" d="M1345 406c26,0 17,7 34,-45 1,-5 4,-10 4,-16l-16 0 -12 43 -12 -43 -17 0c2,6 3,10 5,15l9 30c2,5 4,10 5,16z"/>
   <path class="fil4" d="M1236 461l-11 0 0 -9 11 0c3,0 4,2 5,4 -1,3 -1,5 -5,5zm-2 -18l-9 0 0 -8 9 0c3,0 4,1 4,4 0,3 -1,4 -4,4zm-22 28c14,0 42,5 42,-14 0,-4 -2,-9 -8,-10 3,-4 5,-5 5,-11 0,-15 -23,-11 -39,-11l0 46z"/>
   <path class="fil4" d="M1640 461l-10 0 0 -9 10 0c3,0 4,2 5,4 -1,3 -1,5 -5,5zm-1 -18l-9 0 0 -8 9 0c3,0 4,1 4,4 0,3 -1,4 -4,4zm-22 28c13,0 41,5 41,-14 0,-4 -2,-9 -8,-10 3,-4 6,-5 6,-11 0,-15 -24,-11 -39,-11l0 46z"/>
   <path class="fil4" d="M1495 461l0 -25 9 0c3,0 8,5 8,8l0 9c0,7 -10,8 -17,8zm-13 10c13,0 43,4 43,-18l0 -10c0,-22 -31,-18 -43,-18l0 46z"/>
   <path class="fil4" d="M1693 444l-10 0 0 -9 8 0c3,0 3,0 6,1 0,5 1,8 -4,8zm-23 27l13 0 0 -17 13 2c1,4 2,11 2,15l13 0c-2,-9 0,-19 -8,-21 1,-1 15,-14 2,-23 -7,-4 -25,-2 -35,-2l0 46z"/>
   <path class="fil4" d="M1337 444l-11 0 0 -9 8 0c4,0 4,0 7,1 0,5 1,8 -4,8zm-23 27l12 0 0 -17 13 2c1,4 3,11 3,15l13 0c-2,-9 0,-19 -8,-21 1,-1 15,-14 1,-23 -6,-4 -24,-2 -34,-2l0 46z"/>
   <path class="fil4" d="M1548 452c0,-11 0,-17 12,-17 8,0 14,26 -3,26 -6,0 -9,-3 -9,-9zm9 20c33,0 29,-49 1,-49 -32,0 -31,49 -1,49z"/>
   <polygon class="fil4" points="1264,471 1303,471 1303,461 1277,461 1277,453 1299,453 1299,443 1277,443 1277,435 1302,435 1302,425 1264,425 "/>
   <path class="fil4" d="M1771 437c0,16 16,12 27,20 -3,5 0,5 -10,5 -5,0 -5,-3 -5,-6l-13 0c0,27 48,18 40,-4 -6,-14 -25,-5 -26,-17 6,-2 9,-4 11,4l13 0c0,-22 -37,-19 -37,-2z"/>
   <path class="fil4" d="M1424 439l5 14 -9 0c1,-3 3,-10 4,-14zm-24 32l15 0 1 -8 17 0 1 8 14 0 -17 -46 -14 0c0,5 -14,41 -17,46z"/>
   <path class="fil4" d="M1740 439l5 14 -9 0c1,-3 3,-10 4,-14zm-24 32l15 0 1 -8 17 0 1 8 14 0 -8 -22c-3,-8 -7,-17 -8,-24l-15 0c0,5 -14,41 -17,46z"/>
   <path class="fil4" d="M1179 439l5 14 -9 0c1,-3 3,-10 4,-14zm-24 32l15 0 1 -8 17 0 1 8 14 0 -8 -22c-3,-8 -7,-17 -8,-24l-15 0c0,5 -14,41 -17,46z"/>
   <polygon class="fil4" points="1580,406 1597,406 1597,345 1580,345 "/>
   <polygon class="fil4" points="1302,406 1319,406 1319,345 1302,345 "/>
   <path class="fil3" d="M991 419l-8 0 0 -7 8 0c3,0 4,0 4,3 0,3 -1,4 -4,4zm-8 -20l10 0 0 5 -10 0 0 -5zm-10 -6l0 34 22 0c11,0 15,-17 5,-19 3,-6 4,-2 4,-11 0,-9 -21,-7 -27,-7 -3,0 -4,0 -4,3z"/>
   <path class="fil4" d="M1361 436l13 0 0 35 13 0 0 -35c17,0 15,2 15,-11l-41 0 0 11z"/>
   <polygon class="fil4" points="1846,471 1881,471 1881,461 1859,461 1859,425 1846,425 "/>
   <path class="fil3" d="M899 414c0,19 32,19 32,1l0 -25 -6 0c-11,0 4,29 -11,29 -8,0 -5,-14 -5,-29l-10 0 0 24z"/>
   <path class="fil3" d="M951 404l2 0c1,5 1,3 2,9l-7 0c1,-3 2,-5 3,-9zm-17 23l10 0c1,-3 1,-3 2,-6l12 0c1,3 1,3 2,6l10 0c-1,-8 -10,-27 -13,-37l-10 0c-2,9 -12,28 -13,37z"/>
   <polygon class="fil4" points="1820,471 1833,471 1833,425 1820,425 "/>
  </g>
 </g>
</svg>
