<?xml version="1.0" encoding="UTF-8"?>
<!DOCTYPE svg PUBLIC "-//W3C//DTD SVG 1.1//EN" "http://www.w3.org/Graphics/SVG/1.1/DTD/svg11.dtd">
<!-- Creator: CorelDRAW X7 -->
<svg xmlns="http://www.w3.org/2000/svg" xml:space="preserve" width="1189px" height="1773px" version="1.1" style="shape-rendering:geometricPrecision; text-rendering:geometricPrecision; image-rendering:optimizeQuality; fill-rule:evenodd; clip-rule:evenodd"
viewBox="0 0 1189 1773"
 xmlns:xlink="http://www.w3.org/1999/xlink">
 <defs>
  <style type="text/css">
   <![CDATA[
    .str0 {stroke:#3274AD;stroke-width:2.36221}
    .fil1 {fill:#E6E7E8}
    .fil2 {fill:#01172C}
    .fil0 {fill:#3274AD}
   ]]>
  </style>
 </defs>
 <g id="Camada_x0020_1">
  <metadata id="CorelCorpID_0Corel-Layer"/>
  <g id="_2587210911856">
   <rect class="fil0 str0" transform="matrix(-2.51426E-014 -0.941639 -0.941639 2.51426E-014 1188.94 1772.97)" width="1883" height="1263" rx="5" ry="5"/>
   <path class="fil1" d="M247 364c18,20 30,36 58,43 45,11 144,-17 193,-31 11,-4 25,-7 36,-12 6,-1 14,-4 20,-6l136 -46c53,-17 105,-35 158,-50 27,-8 53,-17 80,-23 67,-16 196,-40 261,-36l0 -5c-47,-4 -123,8 -171,17 -62,11 -98,19 -159,38 -101,31 -201,64 -301,97 -57,19 -181,59 -240,54 -32,-4 -46,-19 -65,-40 -7,-8 -20,-23 -25,-32 -7,-10 -17,-20 -26,-29 -55,-55 -120,-79 -183,-104l-18 -6 -1 4 36 15c44,17 93,36 133,68 16,12 29,24 42,39 9,10 31,41 36,45z"/>
   <g>
    <path class="fil2" d="M148 1229c0,-12 -10,-21 -21,-21 -12,0 -21,9 -21,21 0,12 9,21 21,21 11,0 21,-9 21,-21zm-21 10c-6,0 -11,-4 -11,-10 0,-6 5,-10 11,-10 6,0 10,4 10,10 0,6 -4,10 -10,10z"/>
    <path class="fil2" d="M95 1297l63 0c3,0 5,-2 5,-5l0 -5c0,-21 -16,-37 -36,-37 -20,0 -37,16 -37,37l0 5c0,3 3,5 5,5zm32 -37c14,0 26,12 26,27l-52 0c0,-15 11,-27 26,-27z"/>
    <path class="fil2" d="M327 1260c0,-3 -3,-5 -6,-5l-100 0c-3,0 -5,2 -5,5 0,3 2,6 5,6l100 0c3,0 6,-3 6,-6z"/>
    <path class="fil2" d="M321 1224l-100 0c-20,0 -37,16 -37,36 0,21 17,37 37,37l27 0c2,0 5,-2 5,-5 0,-3 -3,-5 -5,-5l-27 0c-14,0 -26,-12 -26,-27 0,-14 12,-26 26,-26l100 0c15,0 26,12 26,26 0,15 -11,27 -26,27l-26 0c-3,0 -6,2 -6,5 0,3 3,5 6,5l26 0c21,0 37,-16 37,-37 0,-20 -16,-36 -37,-36z"/>
    <path class="fil2" d="M276 1292c0,3 -2,5 -5,5 -3,0 -5,-2 -5,-5 0,-3 2,-5 5,-5 3,0 5,2 5,5z"/>
   </g>
   <path class="fil2" d="M106 534l0 -105 20 0 25 74c2,7 4,12 5,16 1,-4 3,-10 6,-17l25 -73 18 0 0 105 -13 0 0 -87 -31 87 -12 0 -30 -89 0 89 -13 0zm115 -38c0,-14 4,-24 12,-31 6,-6 14,-8 23,-8 11,0 19,3 26,10 6,7 10,16 10,28 0,10 -2,17 -5,23 -3,5 -7,10 -12,13 -6,3 -12,4 -19,4 -10,0 -19,-3 -25,-10 -7,-6 -10,-16 -10,-29zm13 0c0,10 2,17 6,22 5,5 10,7 16,7 7,0 12,-2 16,-7 5,-5 7,-12 7,-22 0,-10 -2,-17 -7,-22 -4,-4 -9,-7 -16,-7 -6,0 -11,3 -16,7 -4,5 -6,12 -6,22zm122 38l0 -10c-5,8 -12,11 -22,11 -6,0 -11,-1 -16,-5 -5,-3 -9,-7 -12,-13 -3,-6 -4,-13 -4,-21 0,-7 1,-14 4,-20 2,-7 6,-11 11,-15 5,-3 11,-4 17,-4 4,0 9,1 12,2 4,2 7,5 9,8l0 -38 13 0 0 105 -12 0zm-41 -38c0,10 2,17 6,22 4,5 9,7 15,7 5,0 10,-2 14,-7 4,-4 6,-11 6,-21 0,-10 -2,-18 -6,-23 -4,-4 -9,-7 -15,-7 -6,0 -10,3 -14,7 -4,5 -6,12 -6,22zm124 13l14 2c-2,8 -6,14 -12,18 -5,4 -13,6 -21,6 -11,0 -20,-3 -27,-10 -6,-7 -9,-16 -9,-28 0,-13 3,-23 9,-30 7,-7 15,-10 26,-10 10,0 18,3 25,10 6,7 9,16 9,29 0,1 0,2 0,3l-56 0c0,9 3,15 7,19 4,5 9,7 16,7 4,0 8,-1 12,-4 3,-2 6,-6 7,-12zm-42 -20l43 0c-1,-7 -3,-11 -5,-15 -4,-4 -10,-7 -16,-7 -6,0 -11,2 -15,6 -4,4 -6,9 -7,16zm72 45l0 -105 12 0 0 105 -12 0zm27 -38c0,-14 4,-24 12,-31 7,-6 15,-8 24,-8 10,0 19,3 25,10 7,7 10,16 10,28 0,10 -1,17 -4,23 -3,5 -7,10 -13,13 -5,3 -11,4 -18,4 -11,0 -19,-3 -26,-10 -6,-6 -10,-16 -10,-29zm14 0c0,10 2,17 6,22 4,5 10,7 16,7 6,0 12,-2 16,-7 4,-5 6,-12 6,-22 0,-10 -2,-17 -6,-22 -4,-4 -10,-7 -16,-7 -6,0 -12,3 -16,7 -4,5 -6,12 -6,22zm-404 201l0 -105 39 0c7,0 13,1 16,1 5,1 10,3 13,5 4,3 6,6 8,10 3,5 4,9 4,14 0,9 -3,17 -9,23 -5,6 -16,9 -30,9l-27 0 0 43 -14 0zm14 -55l27 0c9,0 15,-2 19,-5 3,-3 5,-8 5,-14 0,-5 -1,-8 -3,-11 -2,-3 -5,-6 -9,-7 -2,0 -6,0 -13,0l-26 0 0 37zm133 30l13 2c-2,8 -6,14 -11,18 -6,4 -13,6 -22,6 -11,0 -20,-3 -26,-10 -6,-7 -10,-16 -10,-29 0,-12 4,-22 10,-29 7,-7 15,-11 26,-11 10,0 18,4 24,11 7,7 10,16 10,29 0,0 0,2 0,3l-57 0c1,8 3,15 7,19 5,5 10,7 16,7 5,0 9,-1 12,-4 4,-2 6,-6 8,-12zm-42 -20l42 0c0,-7 -2,-11 -5,-15 -4,-5 -9,-7 -15,-7 -6,0 -11,2 -15,6 -4,4 -6,9 -7,16zm120 45l0 -10c-4,8 -11,11 -21,11 -6,0 -11,-1 -16,-5 -5,-3 -9,-8 -12,-14 -3,-6 -4,-12 -4,-20 0,-8 1,-14 4,-21 2,-6 6,-10 11,-14 5,-3 11,-5 17,-5 4,0 8,1 12,3 3,2 6,5 9,8l0 -38 12 0 0 105 -12 0zm-40 -38c0,10 2,17 6,22 4,4 9,7 15,7 5,0 10,-3 14,-7 4,-5 6,-12 6,-21 0,-10 -2,-18 -6,-23 -4,-5 -9,-7 -15,-7 -6,0 -11,2 -14,7 -4,5 -6,12 -6,22zm122 28c-5,4 -9,7 -14,9 -4,1 -9,2 -14,2 -8,0 -15,-2 -19,-6 -4,-4 -7,-9 -7,-15 0,-4 1,-7 3,-10 2,-3 4,-6 6,-8 3,-2 6,-3 10,-4 2,-1 6,-1 11,-2 10,-1 18,-3 23,-4 0,-2 0,-3 0,-4 0,-5 -1,-8 -4,-11 -3,-3 -8,-4 -14,-4 -6,0 -11,1 -14,3 -2,2 -5,6 -6,11l-13 -1c2,-6 3,-10 6,-13 3,-4 7,-6 11,-8 5,-2 11,-3 18,-3 6,0 11,1 15,3 4,1 7,3 9,5 2,3 4,6 4,9 1,2 1,6 1,12l0 17c0,12 0,19 1,23 0,3 1,6 3,9l-13 0c-2,-3 -3,-6 -3,-10zm-1 -28c-5,2 -12,3 -21,5 -5,0 -9,1 -11,2 -2,1 -4,2 -5,4 -1,2 -2,4 -2,6 0,4 1,7 4,9 2,2 6,3 11,3 5,0 10,-1 13,-3 4,-2 7,-5 9,-9 1,-3 2,-7 2,-13l0 -4zm30 44l13 2c0,4 2,6 4,8 3,2 8,4 13,4 6,0 11,-2 14,-4 3,-2 5,-6 6,-10 1,-2 1,-8 1,-16 -5,6 -12,10 -21,10 -10,0 -18,-4 -24,-12 -5,-7 -8,-16 -8,-27 0,-7 1,-13 4,-19 2,-7 6,-11 11,-15 5,-3 11,-5 17,-5 9,0 17,4 23,11l0 -9 11 0 0 65c0,12 -1,20 -3,25 -3,5 -6,9 -12,12 -5,3 -11,4 -19,4 -9,0 -16,-2 -22,-6 -5,-4 -8,-10 -8,-18zm11 -45c0,9 2,17 6,21 4,5 9,7 15,7 5,0 10,-2 14,-7 4,-4 6,-11 6,-21 0,-9 -2,-16 -6,-21 -4,-5 -9,-7 -15,-7 -5,0 -10,2 -14,7 -4,5 -6,11 -6,21zm68 1c0,-14 4,-24 12,-31 6,-6 14,-9 23,-9 11,0 19,4 26,11 7,6 10,16 10,28 0,9 -2,17 -5,23 -2,5 -7,10 -12,13 -6,3 -12,4 -19,4 -10,0 -19,-3 -25,-10 -7,-7 -10,-16 -10,-29zm13 0c0,10 2,17 6,22 5,4 10,7 16,7 7,0 12,-3 16,-7 5,-5 7,-13 7,-23 0,-9 -2,-16 -7,-21 -4,-5 -9,-7 -16,-7 -6,0 -11,2 -16,7 -4,5 -6,12 -6,22zm12 -47l9 -20 17 0 -16 20 -10 0zm58 91l13 2c0,4 2,6 4,8 3,2 8,4 13,4 6,0 11,-2 14,-4 3,-2 5,-6 7,-10 0,-2 1,-8 1,-16 -6,6 -13,10 -21,10 -11,0 -19,-4 -25,-12 -5,-7 -8,-16 -8,-27 0,-7 1,-13 4,-19 2,-7 6,-11 11,-15 5,-3 11,-5 18,-5 9,0 16,4 22,11l0 -9 11 0 0 65c0,12 -1,20 -3,25 -2,5 -6,9 -11,12 -6,3 -12,4 -20,4 -9,0 -16,-2 -21,-6 -6,-4 -9,-10 -9,-18zm11 -45c0,9 2,17 6,21 4,5 9,7 15,7 6,0 11,-2 15,-7 4,-4 6,-11 6,-21 0,-9 -3,-16 -7,-21 -4,-5 -9,-7 -14,-7 -6,0 -11,2 -15,7 -4,5 -6,11 -6,21zm73 -51l0 -15 13 0 0 15 -13 0zm0 90l0 -76 13 0 0 76 -13 0zm82 -28l12 2c-1,8 -5,15 -10,20 -6,5 -13,7 -21,7 -10,0 -19,-3 -25,-10 -6,-7 -9,-16 -9,-29 0,-8 1,-15 4,-21 2,-6 6,-11 12,-14 5,-3 11,-5 18,-5 8,0 15,2 20,7 5,4 9,10 10,17l-12 2c-2,-5 -4,-9 -7,-11 -3,-3 -6,-4 -11,-4 -6,0 -11,2 -15,7 -4,4 -6,12 -6,22 0,10 2,17 5,22 4,4 9,7 16,7 5,0 9,-2 12,-5 4,-3 6,-8 7,-14zm18 -10c0,-14 4,-24 12,-31 7,-6 14,-9 24,-9 10,0 19,4 25,11 7,6 10,16 10,28 0,9 -1,17 -4,23 -3,5 -7,10 -13,13 -5,3 -12,4 -18,4 -11,0 -19,-3 -26,-10 -6,-7 -10,-16 -10,-29zm13 0c0,10 3,17 7,22 4,4 9,7 16,7 6,0 11,-3 16,-7 4,-5 6,-13 6,-23 0,-9 -2,-16 -6,-21 -5,-5 -10,-7 -16,-7 -7,0 -12,2 -16,7 -4,5 -7,12 -7,22zm-665 201l-41 -105 15 0 27 76c3,6 4,12 6,17 1,-6 3,-11 5,-17l29 -76 14 0 -41 105 -14 0zm63 -90l0 -15 13 0 0 15 -13 0zm0 90l0 -76 13 0 0 76 -13 0zm32 0l0 -76 12 0 0 11c3,-5 5,-8 8,-10 2,-2 5,-3 8,-3 4,0 9,2 13,4l-4 12c-3,-2 -7,-2 -10,-2 -2,0 -5,0 -7,2 -2,2 -4,4 -5,7 -1,5 -2,10 -2,15l0 40 -13 0zm77 -12l1 11c-3,1 -6,2 -9,2 -5,0 -8,-1 -11,-3 -3,-1 -4,-3 -5,-5 -1,-3 -2,-8 -2,-16l0 -43 -9 0 0 -10 9 0 0 -19 13 -8 0 27 13 0 0 10 -13 0 0 44c0,4 0,6 1,7 0,1 1,2 2,3 1,0 2,1 4,1 1,0 3,-1 6,-1zm62 12l0 -12c-6,9 -14,13 -24,13 -5,0 -9,-1 -13,-2 -4,-2 -6,-4 -8,-7 -2,-2 -3,-6 -4,-9 -1,-3 -1,-7 -1,-12l0 -47 13 0 0 42c0,6 0,11 1,13 0,4 2,6 5,8 2,2 6,3 9,3 4,0 8,-1 11,-3 4,-2 6,-5 7,-8 2,-3 2,-8 2,-15l0 -40 13 0 0 76 -11 0zm81 -10c-5,4 -10,7 -14,9 -4,1 -9,2 -14,2 -8,0 -15,-2 -19,-6 -5,-4 -7,-9 -7,-15 0,-4 1,-8 3,-11 1,-3 3,-5 6,-7 3,-2 6,-3 9,-4 3,-1 7,-1 12,-2 10,-1 18,-3 23,-4 0,-2 0,-3 0,-4 0,-5 -1,-9 -4,-11 -3,-3 -8,-4 -14,-4 -7,0 -11,1 -14,3 -3,2 -5,6 -6,11l-13 -1c1,-6 3,-10 6,-13 2,-4 6,-6 11,-8 5,-2 11,-3 17,-3 7,0 12,1 16,3 4,1 7,3 9,5 2,3 3,5 4,9 1,2 1,6 1,12l0 17c0,12 0,19 1,22 0,4 1,7 3,10l-14 0c-1,-3 -2,-6 -2,-10zm-1 -28c-5,1 -12,3 -21,4 -6,1 -9,2 -11,3 -3,1 -4,2 -5,4 -2,2 -2,4 -2,6 0,4 1,6 4,9 2,2 6,3 11,3 5,0 9,-1 13,-3 4,-2 7,-5 9,-9 1,-3 2,-7 2,-13l0 -4zm32 38l0 -105 13 0 0 105 -13 0zm143 -105l14 0 0 60c0,11 -1,19 -3,25 -3,7 -7,12 -13,15 -6,4 -15,6 -25,6 -9,0 -17,-1 -24,-5 -6,-3 -10,-8 -13,-14 -2,-7 -4,-16 -4,-27l0 -60 14 0 0 60c0,9 1,16 3,20 1,5 4,8 8,10 4,3 9,4 15,4 10,0 18,-2 22,-7 4,-5 6,-13 6,-27l0 -60zm38 105l0 -105 70 0 0 12 -56 0 0 33 49 0 0 12 -49 0 0 48 -14 0zm89 0l0 -105 46 0c9,0 16,1 21,3 5,2 9,5 12,10 2,5 4,10 4,16 0,7 -3,13 -7,18 -5,5 -12,9 -22,10 3,2 6,3 8,5 4,4 8,9 11,14l18 29 -17 0 -14 -22c-4,-7 -7,-11 -10,-15 -2,-3 -5,-5 -7,-7 -2,-1 -4,-2 -6,-2 -2,-1 -4,-1 -8,-1l-16 0 0 47 -13 0zm13 -59l30 0c6,0 11,0 15,-2 3,-1 6,-3 8,-6 2,-3 3,-6 3,-9 0,-5 -2,-9 -6,-13 -3,-3 -9,-4 -17,-4l-33 0 0 34zm91 59l0 -105 39 0c8,0 14,1 19,3 5,2 9,6 12,10 2,4 4,9 4,14 0,4 -2,8 -4,12 -2,4 -6,8 -11,10 6,2 11,5 15,9 3,5 5,10 5,16 0,5 -1,10 -3,14 -2,4 -5,7 -8,10 -3,2 -7,4 -11,5 -5,1 -11,2 -17,2l-40 0zm14 -61l22 0c6,0 11,0 13,-1 4,-1 7,-3 8,-5 2,-3 3,-6 3,-10 0,-3 -1,-6 -2,-9 -2,-2 -4,-4 -8,-5 -3,-1 -8,-2 -15,-2l-21 0 0 32zm0 48l26 0c4,0 7,0 9,0 3,-1 6,-2 8,-3 2,-1 4,-3 5,-6 2,-2 2,-5 2,-9 0,-4 -1,-7 -3,-10 -2,-3 -4,-5 -8,-6 -3,-1 -8,-2 -15,-2l-24 0 0 36z"/>
   <path class="fil1" d="M101 980l0 -65 25 0c4,0 7,1 10,1 3,1 6,2 8,3 2,2 4,4 5,6 1,3 2,6 2,9 0,6 -2,10 -5,14 -4,4 -10,6 -19,6l-17 0 0 26 -9 0zm9 -34l17 0c5,0 9,-1 12,-3 2,-2 3,-5 3,-9 0,-2 -1,-5 -2,-7 -1,-1 -3,-3 -5,-3 -2,-1 -5,-1 -8,-1l-17 0 0 23zm48 11c0,-9 2,-15 7,-19 4,-4 9,-6 15,-6 6,0 12,2 16,7 4,4 6,10 6,17 0,6 -1,11 -3,14 -2,4 -4,7 -8,9 -3,1 -7,2 -11,2 -7,0 -12,-2 -16,-6 -4,-4 -6,-10 -6,-18zm8 0c0,6 1,10 4,13 3,3 6,5 10,5 4,0 7,-2 10,-5 2,-3 4,-7 4,-13 0,-6 -2,-11 -4,-14 -3,-3 -6,-4 -10,-4 -4,0 -7,1 -10,4 -3,3 -4,8 -4,14zm45 23l0 -47 7 0 0 8c2,-4 4,-6 5,-7 2,-1 4,-2 6,-2 2,0 5,1 8,3l-3 7c-2,-1 -4,-1 -6,-1 -2,0 -3,0 -5,1 -1,1 -2,3 -2,4 -1,3 -2,6 -2,10l0 24 -8 0zm86 0l0 -7c-3,6 -8,8 -14,8 -3,0 -6,0 -8,-1 -3,-1 -4,-3 -6,-4 -1,-2 -2,-4 -2,-6 0,-2 0,-4 0,-8l0 -29 8 0 0 26c0,5 0,7 0,9 1,2 2,3 3,5 2,1 4,1 6,1 3,0 5,0 7,-1 2,-2 3,-3 4,-5 1,-2 2,-6 2,-10l0 -25 8 0 0 47 -8 0zm20 0l0 -47 7 0 0 7c2,-2 4,-4 6,-6 3,-1 5,-2 9,-2 3,0 6,1 8,2 2,2 4,4 5,7 4,-6 8,-9 14,-9 5,0 9,2 11,4 3,3 4,7 4,12l0 32 -8 0 0 -29c0,-3 0,-6 -1,-7 0,-2 -1,-3 -3,-4 -1,0 -3,-1 -4,-1 -4,0 -6,1 -9,4 -2,2 -3,5 -3,10l0 27 -8 0 0 -30c0,-4 -1,-6 -2,-8 -1,-2 -3,-3 -6,-3 -2,0 -5,1 -6,2 -2,1 -4,3 -5,5 0,2 -1,6 -1,10l0 24 -8 0zm106 -6c-2,3 -5,5 -8,6 -3,1 -6,1 -9,1 -5,0 -9,-1 -12,-3 -3,-3 -4,-6 -4,-10 0,-2 1,-4 2,-6 1,-2 2,-4 4,-5 1,-1 3,-2 5,-3 2,0 4,0 8,-1 6,0 11,-1 14,-2 0,-2 0,-2 0,-3 0,-3 -1,-5 -2,-6 -2,-2 -6,-3 -10,-3 -3,0 -6,1 -8,2 -2,1 -3,4 -4,7l-8 -1c1,-4 2,-6 4,-8 2,-2 4,-4 7,-5 3,-1 7,-2 11,-2 4,0 7,1 9,2 3,1 5,2 6,3 1,2 2,4 3,6 0,1 0,4 0,7l0 11c0,7 0,12 0,14 1,2 1,4 2,5l-8 0c-1,-1 -1,-3 -2,-6zm0 -17c-3,1 -7,2 -13,3 -4,0 -6,1 -7,1 -2,1 -3,2 -3,3 -1,1 -1,2 -1,4 0,2 0,4 2,5 2,1 4,2 7,2 3,0 6,-1 8,-2 3,-1 4,-3 6,-5 0,-2 1,-5 1,-8l0 -3zm47 23l0 -65 46 0 0 8 -38 0 0 20 36 0 0 8 -36 0 0 22 40 0 0 7 -48 0zm89 0l0 -6c-3,5 -7,7 -13,7 -4,0 -7,-1 -10,-3 -3,-2 -6,-5 -8,-8 -1,-4 -2,-8 -2,-13 0,-5 1,-9 2,-13 2,-4 4,-7 7,-9 3,-2 7,-3 11,-3 3,0 5,1 7,2 3,1 4,3 6,5l0 -24 8 0 0 65 -8 0zm-25 -23c0,6 1,10 4,13 2,3 5,5 9,5 3,0 6,-2 9,-4 2,-3 3,-8 3,-13 0,-7 -1,-12 -3,-15 -3,-3 -6,-4 -9,-4 -4,0 -7,1 -9,4 -3,3 -4,8 -4,14zm76 23l0 -7c-4,6 -9,8 -15,8 -3,0 -5,0 -8,-1 -2,-1 -4,-3 -5,-4 -1,-2 -2,-4 -2,-6 -1,-2 -1,-4 -1,-8l0 -29 8 0 0 26c0,5 0,7 1,9 0,2 1,3 3,5 1,1 3,1 6,1 2,0 4,0 7,-1 2,-2 3,-3 4,-5 1,-2 1,-6 1,-10l0 -25 8 0 0 47 -7 0zm51 -17l7 1c-1,6 -3,10 -6,13 -4,3 -8,4 -13,4 -7,0 -12,-2 -16,-6 -4,-4 -6,-10 -6,-18 0,-5 1,-9 3,-13 2,-4 4,-7 8,-9 3,-2 7,-3 11,-3 5,0 9,2 12,4 4,3 6,6 7,11l-8 1c-1,-3 -2,-5 -4,-7 -2,-1 -4,-2 -7,-2 -4,0 -7,1 -10,4 -2,3 -3,8 -3,14 0,6 1,11 3,14 3,2 6,4 10,4 3,0 5,-1 8,-3 2,-2 3,-5 4,-9zm45 11c-3,3 -6,5 -9,6 -2,1 -5,1 -9,1 -5,0 -9,-1 -11,-3 -3,-3 -5,-6 -5,-10 0,-2 1,-4 2,-6 1,-2 2,-4 4,-5 2,-1 4,-2 6,-3 1,0 4,0 7,-1 6,0 11,-1 14,-2 0,-2 0,-2 0,-3 0,-3 -1,-5 -2,-6 -2,-2 -5,-3 -9,-3 -4,0 -7,1 -8,2 -2,1 -4,4 -4,7l-8 -1c0,-4 2,-6 3,-8 2,-2 4,-4 7,-5 3,-1 7,-2 11,-2 4,0 7,1 10,2 2,1 4,2 5,3 2,2 2,4 3,6 0,1 0,4 0,7l0 11c0,7 0,12 1,14 0,2 1,4 2,5l-9 0c0,-1 -1,-3 -1,-6zm-1 -17c-3,1 -7,2 -13,3 -3,0 -5,1 -7,1 -1,1 -2,2 -3,3 -1,1 -1,2 -1,4 0,2 1,4 2,5 2,1 4,2 7,2 3,0 6,-1 9,-2 2,-1 4,-3 5,-5 1,-2 1,-5 1,-8l0 -3zm51 6l8 1c-1,6 -3,10 -6,13 -4,3 -8,4 -13,4 -7,0 -12,-2 -16,-6 -4,-4 -6,-10 -6,-18 0,-5 1,-9 3,-13 1,-4 4,-7 7,-9 4,-2 8,-3 12,-3 5,0 9,2 12,4 3,3 5,6 6,11l-7 1c-1,-3 -2,-5 -4,-7 -2,-1 -4,-2 -7,-2 -4,0 -7,1 -10,4 -2,3 -4,8 -4,14 0,6 2,11 4,14 2,2 6,4 9,4 4,0 6,-1 8,-3 2,-2 4,-5 4,-9zm-18 25l2 -8 6 0 -2 5c3,0 5,1 6,2 1,2 2,3 2,5 0,2 -1,4 -3,5 -2,2 -6,3 -10,3 -2,0 -4,0 -6,0l0 -6c2,0 3,0 4,0 3,0 5,0 6,-1 1,0 2,-1 2,-2 0,0 -1,-1 -1,-1 0,-1 -1,-1 -2,-1 -1,-1 -2,-1 -4,-1zm64 -14c-3,3 -6,5 -9,6 -3,1 -6,1 -9,1 -5,0 -9,-1 -12,-3 -2,-3 -4,-6 -4,-10 0,-2 1,-4 2,-6 1,-2 2,-4 4,-5 2,-1 4,-2 6,-3 1,0 4,0 7,-1 6,0 11,-1 14,-2 0,-2 0,-2 0,-3 0,-3 -1,-5 -2,-6 -2,-2 -5,-3 -9,-3 -4,0 -7,1 -9,2 -1,1 -3,4 -4,7l-7 -1c0,-4 1,-6 3,-8 2,-2 4,-4 7,-5 3,-1 7,-2 11,-2 4,0 7,1 10,2 2,1 4,2 5,3 1,2 2,4 3,6 0,1 0,4 0,7l0 11c0,7 0,12 1,14 0,2 1,4 2,5l-9 0c-1,-1 -1,-3 -1,-6zm-1 -17c-3,1 -7,2 -13,3 -3,0 -6,1 -7,1 -1,1 -2,2 -3,3 -1,1 -1,2 -1,4 0,2 1,4 2,5 2,1 4,2 7,2 3,0 6,-1 8,-2 3,-1 5,-3 6,-5 1,-2 1,-5 1,-8l0 -3zm-26 -29c0,-3 1,-6 3,-8 1,-1 3,-2 6,-2 2,0 4,0 8,2 1,1 3,1 4,1 1,0 1,0 2,-1 0,0 1,-1 1,-3l6 0c0,4 -1,6 -3,8 -1,2 -4,3 -6,3 -2,0 -4,-1 -7,-3 -2,-1 -4,-2 -5,-2 -1,0 -1,1 -2,1 -1,1 -1,2 -1,4l-6 0zm43 29c0,-9 3,-15 8,-19 4,-4 9,-6 14,-6 7,0 12,2 16,7 4,4 6,10 6,17 0,6 0,11 -2,14 -2,4 -5,7 -8,9 -4,1 -7,2 -12,2 -6,0 -11,-2 -16,-6 -4,-4 -6,-10 -6,-18zm9 0c0,6 1,10 3,13 3,3 6,5 10,5 4,0 8,-2 10,-5 3,-3 4,-7 4,-13 0,-6 -1,-11 -4,-14 -2,-3 -6,-4 -10,-4 -4,0 -7,1 -10,4 -2,3 -3,8 -3,14zm-733 125l25 -65 10 0 26 65 -10 0 -7 -20 -28 0 -7 20 -9 0zm19 -27l22 0 -7 -18c-2,-5 -3,-10 -4,-14 -1,5 -2,9 -4,13l-7 19zm55 27l-7 0 0 -65 8 0 0 23c3,-4 7,-6 13,-6 3,0 5,0 8,1 2,2 5,3 6,5 2,2 3,5 4,8 1,3 2,6 2,9 0,9 -2,15 -6,19 -4,5 -9,7 -15,7 -5,0 -10,-3 -13,-7l0 6zm0 -24c0,5 1,10 2,12 3,4 6,6 11,6 3,0 6,-1 9,-4 2,-3 3,-8 3,-14 0,-6 -1,-11 -3,-13 -3,-3 -6,-5 -9,-5 -4,0 -7,2 -9,5 -3,3 -4,7 -4,13zm75 8l9 2c-2,4 -4,8 -8,11 -3,2 -7,4 -13,4 -7,0 -12,-2 -16,-7 -4,-4 -6,-10 -6,-17 0,-8 2,-14 6,-19 4,-4 9,-6 16,-6 6,0 11,2 15,6 4,4 6,10 6,18 0,1 0,1 0,2l-35 0c0,5 2,9 4,12 3,3 6,4 10,4 3,0 5,-1 8,-2 2,-2 3,-4 4,-8zm-26 -12l27 0c-1,-4 -2,-7 -3,-9 -3,-3 -6,-5 -10,-5 -4,0 -7,1 -10,4 -2,2 -3,6 -4,10zm45 28l0 -47 7 0 0 7c2,-3 3,-6 5,-7 1,-1 3,-1 5,-1 3,0 5,0 8,2l-3 8c-2,-2 -3,-2 -5,-2 -2,0 -4,0 -5,1 -1,2 -2,3 -3,5 -1,3 -1,6 -1,9l0 25 -8 0zm47 -7l1 7c-2,0 -4,0 -6,0 -3,0 -5,0 -6,-1 -2,-1 -3,-2 -4,-4 0,-1 -1,-4 -1,-9l0 -27 -6 0 0 -6 6 0 0 -12 8 -5 0 17 8 0 0 6 -8 0 0 27c0,3 0,4 1,5 0,0 0,1 1,1 1,1 2,1 3,1 1,0 2,0 3,0zm39 1c-3,2 -6,4 -9,5 -2,1 -5,2 -8,2 -6,0 -10,-2 -12,-4 -3,-3 -5,-6 -5,-10 0,-2 1,-4 2,-6 1,-2 2,-3 4,-5 2,-1 4,-2 6,-2 1,-1 4,-1 7,-1 6,-1 11,-2 14,-3 0,-1 0,-2 0,-2 0,-3 0,-6 -2,-7 -2,-2 -5,-3 -9,-3 -4,0 -7,1 -8,2 -2,2 -4,4 -4,7l-8 -1c1,-3 2,-6 3,-8 2,-2 4,-4 7,-5 3,-1 7,-1 11,-1 4,0 7,0 10,1 2,1 4,2 5,4 2,1 2,3 3,5 0,1 0,4 0,7l0 11c0,7 1,12 1,14 0,2 1,4 2,6l-9 0c0,-2 -1,-4 -1,-6zm-1 -18c-3,1 -7,2 -13,3 -3,1 -5,1 -7,2 -1,0 -2,1 -3,2 -1,1 -1,3 -1,4 0,2 1,4 2,5 2,2 4,2 7,2 4,0 6,0 9,-2 2,-1 4,-3 5,-5 1,-2 1,-4 1,-8l0 -3zm78 8l8 2c-1,4 -4,8 -7,11 -4,2 -8,4 -13,4 -7,0 -13,-2 -17,-7 -4,-4 -6,-10 -6,-17 0,-8 2,-14 6,-19 4,-4 10,-6 16,-6 6,0 12,2 15,6 4,4 6,10 6,18 0,1 0,1 0,2l-35 0c1,5 2,9 5,12 2,3 6,4 10,4 2,0 5,-1 7,-2 2,-2 4,-4 5,-8zm-26 -12l26 0c0,-4 -1,-7 -3,-9 -3,-3 -6,-5 -10,-5 -4,0 -7,1 -9,4 -3,2 -4,6 -4,10zm70 28l0 -65 23 0c5,0 9,0 11,1 4,1 7,2 10,4 3,3 6,7 8,11 1,5 2,10 2,16 0,5 0,9 -2,13 -1,4 -2,7 -4,9 -2,3 -4,5 -6,6 -2,2 -5,3 -8,4 -3,0 -6,1 -10,1l-24 0zm9 -8l14 0c4,0 8,0 10,-1 2,-1 4,-2 6,-3 2,-3 3,-5 5,-9 1,-3 1,-7 1,-12 0,-7 -1,-12 -3,-16 -2,-4 -5,-6 -8,-7 -2,-1 -6,-2 -11,-2l-14 0 0 50zm56 -48l0 -9 8 0 0 9 -8 0zm0 56l0 -47 8 0 0 47 -8 0zm19 4l7 1c1,2 2,4 3,5 2,1 5,2 8,2 4,0 7,-1 9,-2 2,-2 3,-4 4,-6 0,-2 0,-5 0,-10 -3,4 -7,6 -13,6 -6,0 -11,-3 -15,-7 -3,-5 -5,-11 -5,-17 0,-5 1,-9 2,-12 2,-4 4,-7 8,-9 3,-2 6,-3 10,-3 6,0 11,2 14,6l0 -5 7 0 0 40c0,8 0,13 -2,16 -1,3 -4,5 -7,7 -3,2 -7,3 -12,3 -5,0 -10,-1 -13,-4 -4,-3 -5,-6 -5,-11zm6 -29c0,7 1,11 4,14 2,3 5,4 9,4 4,0 7,-1 9,-4 3,-3 4,-7 4,-13 0,-6 -1,-10 -4,-13 -2,-3 -5,-5 -9,-5 -4,0 -7,2 -9,5 -3,2 -4,7 -4,12zm46 -31l0 -9 8 0 0 9 -8 0zm0 56l0 -47 8 0 0 47 -8 0zm37 -7l1 7c-2,0 -4,0 -6,0 -3,0 -5,0 -7,-1 -1,-1 -2,-2 -3,-4 -1,-1 -1,-4 -1,-9l0 -27 -6 0 0 -6 6 0 0 -12 8 -5 0 17 8 0 0 6 -8 0 0 27c0,3 0,4 0,5 1,0 1,1 2,1 0,1 1,1 3,1 0,0 2,0 3,0zm39 1c-3,2 -6,4 -9,5 -3,1 -6,2 -9,2 -5,0 -9,-2 -12,-4 -2,-3 -4,-6 -4,-10 0,-2 1,-4 2,-6 1,-2 2,-3 4,-5 2,-1 4,-2 6,-2 1,-1 4,-1 7,-1 6,-1 11,-2 14,-3 0,-1 0,-2 0,-2 0,-3 -1,-6 -2,-7 -2,-2 -5,-3 -9,-3 -4,0 -7,1 -9,2 -1,2 -3,4 -4,7l-7 -1c0,-3 1,-6 3,-8 2,-2 4,-4 7,-5 3,-1 7,-1 11,-1 4,0 7,0 10,1 2,1 4,2 5,4 1,1 2,3 3,5 0,1 0,4 0,7l0 11c0,7 0,12 1,14 0,2 1,4 2,6l-9 0c-1,-2 -1,-4 -1,-6zm-1 -18c-3,1 -7,2 -13,3 -3,1 -6,1 -7,2 -1,0 -2,1 -3,2 -1,1 -1,3 -1,4 0,2 1,4 2,5 2,2 4,2 7,2 3,0 6,0 8,-2 3,-1 5,-3 6,-5 1,-2 1,-4 1,-8l0 -3zm20 24l0 -65 8 0 0 65 -8 0z"/>
   <g>
    <path class="fil1" d="M90 1392l21 -56 8 0 23 56 -8 0 -7 -17 -23 0 -6 17 -8 0zm16 -23l19 0 -6 -16c-2,-4 -3,-8 -4,-11 -1,3 -2,7 -3,11l-6 16zm41 23l0 -41 6 0 0 7c2,-3 3,-5 4,-6 2,-1 3,-1 5,-1 2,0 4,0 7,2l-3 6c-1,-1 -3,-1 -5,-1 -1,0 -2,0 -4,1 -1,1 -2,2 -2,4 -1,2 -1,5 -1,8l0 21 -7 0zm26 -48l0 -8 7 0 0 8 -7 0zm0 48l0 -41 7 0 0 41 -7 0zm14 -12l7 -1c1,2 2,4 3,6 2,1 5,2 8,2 3,0 5,-1 7,-2 1,-1 2,-3 2,-4 0,-2 -1,-3 -2,-4 -1,-1 -3,-1 -7,-2 -5,-2 -9,-3 -10,-4 -2,-1 -4,-2 -5,-3 -1,-2 -1,-4 -1,-6 0,-2 0,-3 1,-5 1,-1 2,-3 3,-4 1,0 3,-1 5,-2 1,0 3,0 5,0 4,0 6,0 9,1 2,1 4,2 5,4 1,1 2,3 2,6l-6 1c-1,-2 -1,-4 -3,-5 -1,-1 -3,-2 -6,-2 -3,0 -5,1 -7,2 -1,1 -2,2 -2,3 0,1 0,2 1,3 1,0 1,1 3,2 0,0 2,0 6,1 5,2 8,3 10,3 2,1 3,2 4,4 1,2 2,4 2,6 0,2 -1,4 -2,6 -1,2 -3,4 -6,5 -2,1 -5,2 -8,2 -6,0 -10,-1 -12,-4 -3,-2 -5,-5 -6,-9zm57 6l1 6c-2,0 -4,0 -5,0 -3,0 -5,0 -6,-1 -1,-1 -2,-2 -3,-3 0,-1 -1,-4 -1,-8l0 -23 -5 0 0 -6 5 0 0 -10 7 -4 0 14 7 0 0 6 -7 0 0 23c0,2 0,4 0,4 1,1 1,1 2,1 0,1 1,1 2,1 1,0 2,0 3,0zm4 -14c0,-8 2,-13 6,-17 4,-3 8,-4 13,-4 6,0 10,1 14,5 3,4 5,9 5,15 0,5 -1,9 -2,12 -2,3 -4,6 -7,7 -3,2 -6,3 -10,3 -6,0 -10,-2 -14,-6 -3,-3 -5,-9 -5,-15zm7 0c0,5 1,9 4,11 2,3 5,4 8,4 4,0 6,-1 9,-4 2,-2 3,-6 3,-12 0,-5 -1,-8 -3,-11 -3,-3 -6,-4 -9,-4 -3,0 -6,1 -8,4 -3,3 -4,6 -4,12zm39 20l0 -41 6 0 0 6c3,-4 7,-6 13,-6 2,0 5,0 7,1 2,1 3,2 4,3 1,2 2,3 2,5 1,2 1,4 1,7l0 25 -7 0 0 -25c0,-3 0,-5 -1,-6 0,-1 -1,-2 -3,-3 -1,-1 -3,-2 -4,-2 -3,0 -6,1 -8,3 -2,2 -3,6 -3,11l0 22 -7 0zm91 0l0 -5c-2,4 -6,6 -11,6 -3,0 -6,-1 -9,-3 -3,-2 -5,-4 -6,-7 -2,-4 -3,-7 -3,-11 0,-4 1,-8 2,-11 2,-4 4,-6 7,-8 2,-2 5,-2 9,-2 2,0 4,0 6,1 2,1 3,2 5,4l0 -20 6 0 0 56 -6 0zm-22 -20c0,5 2,9 4,11 2,3 5,4 7,4 3,0 6,-1 8,-4 2,-2 3,-6 3,-11 0,-5 -1,-9 -3,-12 -2,-3 -5,-4 -8,-4 -3,0 -5,1 -7,4 -3,2 -4,6 -4,12zm67 7l7 1c-1,4 -3,7 -6,9 -3,3 -7,4 -12,4 -6,0 -10,-2 -14,-6 -3,-3 -5,-9 -5,-15 0,-7 2,-12 5,-16 4,-4 8,-5 14,-5 5,0 10,1 13,5 4,4 5,9 5,16 0,0 0,1 0,1l-30 0c0,5 2,8 4,11 2,2 5,3 8,3 3,0 5,-1 7,-2 1,-1 3,-3 4,-6zm-23 -11l23 0c0,-4 -1,-6 -3,-8 -2,-3 -5,-4 -8,-4 -3,0 -6,1 -8,3 -2,2 -3,5 -4,9zm61 24l0 -56 7 0 0 49 28 0 0 7 -35 0zm43 -48l0 -8 6 0 0 8 -6 0zm0 48l0 -41 6 0 0 41 -6 0zm17 0l0 -41 6 0 0 6c1,-2 3,-3 5,-5 2,-1 5,-1 7,-1 3,0 6,0 8,1 2,2 3,3 4,6 3,-5 7,-7 12,-7 4,0 7,1 9,3 3,2 4,5 4,10l0 28 -7 0 0 -26c0,-2 0,-4 -1,-6 0,-1 -1,-2 -2,-2 -1,-1 -3,-2 -4,-2 -3,0 -6,1 -7,3 -2,2 -3,5 -3,9l0 24 -7 0 0 -26c0,-3 -1,-6 -2,-7 -1,-2 -3,-3 -5,-3 -2,0 -4,1 -6,2 -1,1 -2,2 -3,4 -1,2 -1,5 -1,9l0 21 -7 0zm91 -5c-2,2 -5,3 -7,4 -3,1 -5,2 -8,2 -4,0 -8,-1 -10,-4 -2,-2 -4,-5 -4,-8 0,-2 1,-4 2,-5 1,-2 2,-3 3,-4 2,-1 3,-2 5,-2 2,-1 4,-1 6,-1 6,-1 10,-2 13,-3 0,-1 0,-1 0,-2 0,-2 -1,-4 -2,-5 -2,-2 -5,-3 -8,-3 -3,0 -6,1 -7,2 -2,1 -3,3 -4,6l-6 -1c0,-3 1,-5 3,-7 1,-2 3,-3 6,-4 2,-1 5,-1 9,-1 3,0 6,0 8,1 2,1 4,2 5,3 1,1 2,3 2,4 0,2 1,4 1,7l0 9c0,6 0,10 0,12 0,2 1,3 2,5l-7 0c-1,-2 -2,-3 -2,-5zm0 -15c-3,1 -7,1 -12,2 -2,1 -4,1 -6,1 -1,1 -2,2 -2,3 -1,1 -1,2 -1,3 0,2 0,3 2,4 1,2 3,2 6,2 3,0 5,0 7,-1 2,-2 4,-3 5,-5 0,-2 1,-4 1,-7l0 -2zm79 0l8 2c-2,6 -5,11 -9,14 -4,3 -9,5 -14,5 -6,0 -11,-1 -15,-4 -4,-2 -7,-6 -9,-11 -2,-4 -3,-9 -3,-14 0,-6 2,-11 4,-16 2,-4 5,-7 9,-10 4,-2 9,-3 14,-3 5,0 10,2 14,4 4,3 6,7 8,12l-7 2c-2,-4 -4,-7 -6,-9 -3,-2 -6,-3 -9,-3 -5,0 -8,1 -11,3 -3,3 -5,5 -6,9 -1,3 -2,7 -2,10 0,5 1,9 2,13 2,3 4,6 7,8 3,2 6,2 9,2 4,0 8,-1 11,-3 2,-3 4,-6 5,-11zm42 15c-2,2 -5,3 -7,4 -2,1 -5,2 -8,2 -4,0 -7,-1 -10,-4 -2,-2 -3,-5 -3,-8 0,-2 0,-4 1,-5 1,-2 2,-3 4,-4 1,-1 3,-2 4,-2 2,-1 4,-1 7,-1 5,-1 9,-2 12,-3 0,-1 0,-1 0,-2 0,-2 -1,-4 -2,-5 -2,-2 -4,-3 -8,-3 -3,0 -6,1 -7,2 -2,1 -3,3 -3,6l-7 -1c0,-3 1,-5 3,-7 1,-2 3,-3 6,-4 3,-1 6,-1 9,-1 4,0 6,0 9,1 2,1 3,2 4,3 1,1 2,3 2,4 1,2 1,4 1,7l0 9c0,6 0,10 0,12 0,2 1,3 2,5l-7 0c-1,-2 -1,-3 -2,-5zm0 -15c-3,1 -6,1 -11,2 -3,1 -5,1 -6,1 -2,1 -2,2 -3,3 -1,1 -1,2 -1,3 0,2 1,3 2,4 1,2 3,2 6,2 3,0 5,0 7,-1 2,-2 4,-3 5,-5 0,-2 1,-4 1,-7l0 -2zm17 20l0 -41 6 0 0 7c2,-3 3,-5 5,-6 1,-1 3,-1 4,-1 2,0 5,0 7,2l-2 6c-2,-1 -4,-1 -5,-1 -2,0 -3,0 -4,1 -1,1 -2,2 -3,4 -1,2 -1,5 -1,8l0 21 -7 0zm52 0l0 -5c-2,4 -6,6 -11,6 -3,0 -6,-1 -9,-3 -3,-2 -5,-4 -6,-7 -2,-4 -2,-7 -2,-11 0,-4 0,-8 2,-11 1,-4 3,-6 6,-8 2,-2 5,-2 9,-2 2,0 4,0 6,1 2,1 4,2 5,4l0 -20 7 0 0 56 -7 0zm-21 -20c0,5 1,9 3,11 2,3 5,4 8,4 3,0 5,-1 7,-4 2,-2 3,-6 3,-11 0,-5 -1,-9 -3,-12 -2,-3 -4,-4 -8,-4 -3,0 -5,1 -7,4 -2,2 -3,6 -3,12zm36 0c0,-8 2,-13 6,-17 4,-3 8,-4 13,-4 5,0 10,1 14,5 3,4 5,9 5,15 0,5 -1,9 -2,12 -2,3 -4,6 -7,7 -3,2 -7,3 -10,3 -6,0 -10,-2 -14,-6 -3,-3 -5,-9 -5,-15zm7 0c0,5 1,9 3,11 3,3 6,4 9,4 3,0 6,-1 8,-4 3,-2 4,-6 4,-12 0,-5 -1,-8 -4,-11 -2,-3 -5,-4 -8,-4 -3,0 -6,1 -9,4 -2,3 -3,6 -3,12zm36 8l7 -1c0,2 1,4 3,6 2,1 4,2 7,2 4,0 6,-1 7,-2 2,-1 3,-3 3,-4 0,-2 -1,-3 -2,-4 -1,-1 -4,-1 -7,-2 -5,-2 -9,-3 -11,-4 -2,-1 -3,-2 -4,-3 -1,-2 -2,-4 -2,-6 0,-2 1,-3 2,-5 0,-1 1,-3 3,-4 1,0 2,-1 4,-2 2,0 4,0 6,0 3,0 6,0 9,1 2,1 4,2 5,4 1,1 2,3 2,6l-7 1c0,-2 -1,-4 -2,-5 -2,-1 -4,-2 -6,-2 -3,0 -6,1 -7,2 -1,1 -2,2 -2,3 0,1 0,2 1,3 0,0 1,1 2,2 1,0 3,0 6,1 5,2 9,3 11,3 1,1 3,2 4,4 1,2 2,4 2,6 0,2 -1,4 -2,6 -2,2 -4,4 -6,5 -3,1 -5,2 -9,2 -5,0 -9,-1 -12,-4 -2,-2 -4,-5 -5,-9zm39 -8c0,-8 2,-13 6,-17 4,-3 8,-4 13,-4 6,0 10,1 14,5 3,4 5,9 5,15 0,5 -1,9 -2,12 -2,3 -4,6 -7,7 -3,2 -6,3 -10,3 -5,0 -10,-2 -14,-6 -3,-3 -5,-9 -5,-15zm7 0c0,5 1,9 4,11 2,3 5,4 8,4 4,0 6,-1 9,-4 2,-2 3,-6 3,-12 0,-5 -1,-8 -3,-11 -3,-3 -5,-4 -9,-4 -3,0 -6,1 -8,4 -3,3 -4,6 -4,12zm-823 107l21 -56 8 0 23 56 -8 0 -7 -17 -23 0 -6 17 -8 0zm16 -23l19 0 -6 -16c-2,-4 -3,-8 -4,-11 -1,3 -2,7 -3,11l-6 16zm67 23l0 -5c-3,4 -6,6 -11,6 -3,0 -6,-1 -9,-3 -3,-2 -5,-4 -6,-7 -2,-4 -3,-7 -3,-11 0,-4 1,-8 2,-11 2,-4 4,-6 6,-8 3,-2 6,-2 9,-2 3,0 5,0 7,1 2,1 3,2 5,4l0 -20 6 0 0 56 -6 0zm-22 -20c0,5 1,9 4,11 2,3 4,4 7,4 3,0 6,-1 8,-4 2,-2 3,-6 3,-11 0,-5 -1,-9 -3,-12 -2,-2 -5,-4 -8,-4 -3,0 -6,1 -8,4 -2,2 -3,6 -3,12zm39 -28l0 -8 7 0 0 8 -7 0zm0 48l0 -41 7 0 0 41 -7 0zm17 0l0 -56 7 0 0 56 -7 0zm15 -12l7 -1c0,2 1,4 3,6 2,1 4,2 7,2 4,0 6,-1 7,-2 2,-1 3,-3 3,-4 0,-2 -1,-3 -2,-4 -1,-1 -4,-1 -7,-2 -5,-2 -9,-3 -11,-4 -2,-1 -3,-2 -4,-3 -1,-2 -2,-4 -2,-6 0,-2 1,-3 2,-5 0,-1 1,-3 3,-4 1,0 2,-1 4,-2 2,0 4,0 6,0 3,0 6,0 8,1 3,1 5,2 6,4 1,1 2,3 2,6l-7 1c0,-2 -1,-4 -2,-5 -2,-1 -4,-2 -6,-2 -3,0 -6,1 -7,2 -1,1 -2,2 -2,3 0,1 0,2 1,3 0,0 1,1 2,2 1,0 3,0 6,1 5,2 9,3 11,3 1,1 3,3 4,4 1,2 2,4 2,6 0,2 -1,4 -2,6 -2,2 -4,4 -6,5 -3,1 -5,2 -9,2 -5,0 -9,-1 -12,-4 -2,-2 -4,-5 -5,-9zm39 -8c0,-8 2,-13 6,-17 4,-3 8,-4 13,-4 6,0 10,1 14,5 3,4 5,9 5,15 0,5 -1,9 -2,12 -2,3 -4,6 -7,7 -3,2 -6,3 -10,3 -5,0 -10,-2 -14,-6 -3,-3 -5,-9 -5,-15zm7 0c0,5 1,9 4,11 2,3 5,4 8,4 4,0 6,-1 9,-4 2,-2 3,-6 3,-12 0,-5 -1,-8 -3,-11 -3,-2 -5,-4 -9,-4 -3,0 -6,1 -8,4 -3,3 -4,6 -4,12zm39 20l0 -41 6 0 0 6c3,-4 8,-6 13,-6 3,0 5,0 7,1 2,1 3,2 4,3 1,2 2,3 3,5 0,2 0,4 0,7l0 25 -7 0 0 -25c0,-3 0,-5 -1,-6 0,-1 -1,-2 -3,-3 -1,-1 -3,-2 -4,-2 -3,0 -6,1 -8,3 -2,2 -3,6 -3,11l0 22 -7 0zm92 -22l0 -7 24 0 0 21c-4,3 -8,5 -12,7 -3,1 -7,2 -11,2 -6,0 -11,-1 -15,-4 -5,-2 -8,-6 -11,-10 -2,-4 -3,-9 -3,-15 0,-5 1,-10 3,-15 3,-5 6,-8 10,-10 4,-3 9,-4 15,-4 4,0 8,1 11,2 3,1 6,3 8,6 1,2 3,5 4,9l-7 1c-1,-2 -2,-5 -3,-6 -1,-2 -3,-3 -5,-4 -3,-1 -5,-2 -8,-2 -3,0 -6,1 -9,2 -2,1 -4,2 -6,4 -1,2 -2,4 -3,6 -2,3 -2,7 -2,11 0,5 1,9 2,12 2,4 4,6 8,8 3,1 6,2 10,2 3,0 6,0 9,-2 3,-1 6,-2 7,-4l0 -10 -16 0zm31 2c0,-8 2,-13 6,-17 4,-3 8,-4 13,-4 6,0 10,1 14,5 3,4 5,9 5,15 0,5 -1,9 -2,12 -2,3 -4,6 -7,7 -3,2 -6,3 -10,3 -6,0 -10,-2 -14,-6 -3,-3 -5,-9 -5,-15zm7 0c0,5 1,9 3,11 3,3 6,4 9,4 3,0 6,-1 9,-4 2,-2 3,-6 3,-12 0,-5 -1,-8 -3,-11 -3,-2 -6,-4 -9,-4 -3,0 -6,1 -9,4 -2,3 -3,6 -3,12zm39 20l0 -41 6 0 0 6c1,-2 3,-3 5,-5 2,-1 5,-1 7,-1 3,0 6,0 8,1 2,2 3,3 4,6 3,-5 7,-7 12,-7 4,0 7,1 10,3 2,2 3,5 3,10l0 28 -7 0 0 -26c0,-2 0,-4 -1,-6 0,-1 -1,-2 -2,-2 -1,-1 -3,-2 -4,-2 -3,0 -5,1 -7,3 -2,2 -3,5 -3,9l0 24 -7 0 0 -26c0,-3 -1,-6 -2,-7 -1,-2 -3,-3 -5,-3 -2,0 -4,1 -6,2 -1,1 -2,2 -3,4 -1,2 -1,5 -1,9l0 21 -7 0zm92 -13l7 1c-1,4 -3,7 -6,9 -3,3 -7,4 -11,4 -6,0 -11,-2 -14,-6 -4,-3 -5,-9 -5,-15 0,-7 1,-12 5,-16 3,-4 8,-5 13,-5 6,0 10,1 14,5 3,4 5,9 5,16 0,0 0,1 0,1l-30 0c0,5 1,8 3,11 3,2 5,3 9,3 2,0 4,-1 6,-2 2,-1 3,-3 4,-6zm-22 -11l22 0c0,-4 -1,-6 -2,-8 -2,-3 -5,-4 -9,-4 -3,0 -5,1 -7,3 -3,2 -4,5 -4,9zm35 12l7 -1c1,2 2,4 3,6 2,1 5,2 8,2 3,0 5,-1 7,-2 1,-1 2,-3 2,-4 0,-2 -1,-3 -2,-4 -1,-1 -3,-1 -7,-2 -5,-2 -9,-3 -10,-4 -2,-1 -4,-2 -5,-3 -1,-2 -1,-4 -1,-6 0,-2 0,-3 1,-5 1,-1 2,-3 3,-4 1,0 3,-1 5,-2 1,0 3,0 5,0 4,0 6,0 9,1 2,1 4,2 5,4 1,1 2,3 2,6l-6 1c-1,-2 -1,-4 -3,-5 -1,-1 -3,-2 -6,-2 -3,0 -5,1 -7,2 -1,1 -2,2 -2,3 0,1 0,2 1,3 1,0 1,1 3,2 0,0 2,0 6,1 5,2 8,3 10,3 2,1 3,3 4,4 1,2 2,4 2,6 0,2 -1,4 -2,6 -1,2 -3,4 -6,5 -2,1 -5,2 -8,2 -6,0 -10,-1 -12,-4 -3,-2 -5,-5 -6,-9z"/>
    <path class="fil1" d="M671 1479l0 -5c-3,4 -6,6 -11,6 -4,0 -7,-1 -9,-3 -3,-2 -5,-4 -7,-7 -1,-4 -2,-7 -2,-11 0,-4 1,-8 2,-11 2,-4 4,-6 6,-8 3,-2 6,-2 9,-2 3,0 5,0 7,1 2,1 3,2 4,4l0 -20 7 0 0 56 -6 0zm-22 -20c0,5 1,9 3,11 3,3 5,4 8,4 3,0 6,-1 8,-4 2,-2 3,-6 3,-11 0,-5 -1,-9 -3,-12 -2,-2 -5,-4 -8,-4 -3,0 -6,1 -8,4 -2,2 -3,6 -3,12zm36 0c0,-8 3,-13 7,-17 3,-3 7,-4 12,-4 6,0 11,1 14,5 4,4 5,9 5,15 0,5 0,9 -2,12 -2,3 -4,6 -7,7 -3,2 -6,3 -10,3 -5,0 -10,-2 -13,-6 -4,-3 -6,-9 -6,-15zm7 0c0,5 2,9 4,11 2,3 5,4 8,4 4,0 7,-1 9,-4 2,-2 3,-6 3,-12 0,-5 -1,-8 -3,-11 -2,-2 -5,-4 -9,-4 -3,0 -6,1 -8,4 -2,3 -4,6 -4,12zm37 8l6 -1c1,2 2,4 4,6 1,1 4,2 7,2 3,0 5,-1 7,-2 1,-1 2,-3 2,-4 0,-2 0,-3 -2,-4 -1,-1 -3,-1 -7,-2 -5,-2 -8,-3 -10,-4 -2,-1 -4,-2 -5,-3 -1,-2 -1,-4 -1,-6 0,-2 0,-3 1,-5 1,-1 2,-3 3,-4 1,0 3,-1 5,-2 2,0 4,0 6,0 3,0 6,0 8,1 2,1 4,2 5,4 1,1 2,3 3,6l-7 1c0,-2 -1,-4 -3,-5 -1,-1 -3,-2 -6,-2 -3,0 -5,1 -7,2 -1,1 -2,2 -2,3 0,1 1,2 1,3 1,0 2,1 3,2 1,0 3,0 6,1 5,2 8,3 10,3 2,1 3,3 5,4 1,2 1,4 1,6 0,2 0,4 -2,6 -1,2 -3,4 -6,5 -2,1 -5,2 -8,2 -5,0 -9,-1 -12,-4 -3,-2 -5,-5 -5,-9zm61 -6l7 -1c1,3 1,5 3,7 1,2 3,3 5,5 3,1 6,1 9,1 3,0 5,0 7,-1 2,-1 4,-2 5,-4 1,-1 2,-3 2,-4 0,-2 -1,-4 -2,-5 -1,-1 -3,-2 -5,-3 -1,-1 -5,-2 -10,-3 -5,-1 -9,-2 -11,-3 -2,-2 -4,-3 -6,-6 -1,-2 -2,-4 -2,-6 0,-3 1,-6 3,-8 1,-3 4,-5 7,-6 3,-1 6,-2 10,-2 4,0 8,1 11,2 3,1 6,3 7,6 2,3 3,6 3,9l-7 0c0,-3 -2,-6 -4,-8 -2,-1 -5,-2 -10,-2 -4,0 -7,0 -9,2 -2,2 -3,4 -3,6 0,2 0,4 2,5 1,1 5,3 11,4 6,1 10,2 12,4 3,1 6,3 7,5 2,2 3,5 3,8 0,3 -1,6 -3,8 -2,3 -4,5 -7,7 -3,1 -7,2 -11,2 -5,0 -9,-1 -13,-2 -3,-2 -6,-4 -8,-7 -1,-3 -3,-6 -3,-10zm80 13c-2,2 -5,3 -7,4 -2,1 -5,2 -8,2 -4,0 -7,-1 -10,-4 -2,-2 -3,-4 -3,-8 0,-2 0,-4 1,-5 1,-2 2,-3 3,-4 2,-1 4,-2 5,-2 2,-1 4,-1 6,-1 6,-1 10,-2 13,-3 0,-1 0,-1 0,-2 0,-2 -1,-4 -2,-5 -2,-2 -5,-3 -8,-3 -3,0 -6,1 -7,2 -2,1 -3,3 -4,6l-6 -1c0,-3 1,-5 3,-7 1,-2 3,-3 6,-4 2,-1 6,-1 9,-1 3,0 6,0 8,1 3,1 4,2 5,3 1,1 2,3 2,4 1,2 1,4 1,7l0 9c0,6 0,10 0,12 0,2 1,3 2,5l-7 0c-1,-2 -1,-3 -2,-5zm0 -15c-3,1 -6,1 -11,2 -3,1 -5,1 -6,1 -2,1 -3,2 -3,3 -1,1 -1,2 -1,3 0,2 1,3 2,4 1,2 3,2 6,2 3,0 5,0 7,-1 2,-2 4,-3 5,-5 0,-2 1,-4 1,-7l0 -2zm17 20l0 -41 6 0 0 6c3,-4 8,-6 13,-6 3,0 5,0 7,1 2,1 3,2 5,3 1,2 1,3 2,5 0,2 0,4 0,7l0 25 -7 0 0 -25c0,-3 0,-5 -1,-6 0,-1 -1,-2 -2,-3 -2,-1 -3,-2 -5,-2 -3,0 -6,1 -8,3 -2,2 -3,6 -3,11l0 22 -7 0zm58 -6l1 6c-2,0 -3,0 -5,0 -2,0 -4,0 -6,-1 -1,-1 -2,-2 -2,-3 -1,-1 -1,-4 -1,-8l0 -23 -5 0 0 -6 5 0 0 -10 7 -4 0 14 6 0 0 6 -6 0 0 23c0,2 0,4 0,4 0,1 1,1 1,1 1,1 1,1 2,1 1,0 2,0 3,0zm5 -14c0,-8 2,-13 6,-17 3,-3 8,-4 13,-4 5,0 10,1 13,5 4,4 5,9 5,15 0,5 0,9 -2,12 -1,3 -4,6 -7,7 -3,2 -6,3 -9,3 -6,0 -11,-2 -14,-6 -4,-3 -5,-9 -5,-15zm7 0c0,5 1,9 3,11 2,3 5,4 9,4 3,0 6,-1 8,-4 2,-2 3,-6 3,-12 0,-5 -1,-8 -3,-11 -2,-2 -5,-4 -8,-4 -4,0 -7,1 -9,4 -2,3 -3,6 -3,12zm36 8l7 -1c0,2 1,4 3,6 1,1 4,2 7,2 3,0 6,-1 7,-2 2,-1 2,-3 2,-4 0,-2 0,-3 -2,-4 -1,-1 -3,-1 -7,-2 -5,-2 -8,-3 -10,-4 -2,-1 -4,-2 -5,-3 -1,-2 -1,-4 -1,-6 0,-2 0,-3 1,-5 1,-1 2,-3 4,-4 1,0 2,-1 4,-2 2,0 4,0 6,0 3,0 6,0 8,1 3,1 4,2 5,4 2,1 2,3 3,6l-7 1c0,-2 -1,-4 -3,-5 -1,-1 -3,-2 -6,-2 -3,0 -5,1 -6,2 -2,1 -2,2 -2,3 0,1 0,2 0,3 1,0 2,1 3,2 1,0 3,0 6,1 5,2 8,3 10,3 2,1 4,3 5,4 1,2 1,4 1,6 0,2 0,4 -2,6 -1,2 -3,4 -5,5 -3,1 -6,2 -9,2 -5,0 -9,-1 -12,-4 -3,-2 -4,-5 -5,-9zm-897 99l0 -56 40 0 0 7 -33 0 0 17 31 0 0 6 -31 0 0 19 35 0 0 7 -42 0zm51 0l0 -41 6 0 0 6c3,-4 7,-6 13,-6 2,0 5,0 7,1 2,1 3,2 4,3 1,2 2,3 2,5 1,2 1,4 1,7l0 25 -7 0 0 -25c0,-3 0,-5 -1,-6 0,-1 -1,-2 -3,-3 -1,-1 -3,-2 -5,-2 -2,0 -5,1 -7,3 -2,2 -3,6 -3,11l0 22 -7 0zm43 -48l0 -8 7 0 0 8 -7 0zm0 48l0 -41 7 0 0 41 -7 0zm45 -13l7 1c-1,4 -3,7 -6,9 -3,3 -7,4 -12,4 -5,0 -10,-2 -14,-6 -3,-3 -5,-8 -5,-15 0,-7 2,-12 6,-16 3,-4 8,-5 13,-5 5,0 10,1 13,5 4,4 5,9 5,16 0,0 0,1 0,1l-30 0c1,5 2,8 4,11 2,2 5,3 8,3 3,0 5,-1 7,-2 2,-1 3,-3 4,-6zm-22 -11l22 0c0,-4 -1,-6 -2,-8 -3,-3 -5,-4 -9,-4 -3,0 -6,1 -8,3 -2,2 -3,5 -3,9zm38 24l0 -56 7 0 0 56 -7 0zm65 0l0 -5c-3,4 -6,6 -11,6 -4,0 -7,-1 -9,-3 -3,-2 -5,-4 -7,-7 -1,-4 -2,-7 -2,-11 0,-4 1,-8 2,-11 2,-4 4,-6 6,-8 3,-2 6,-2 9,-2 3,0 5,0 7,1 2,1 3,2 4,4l0 -20 7 0 0 56 -6 0zm-22 -20c0,5 1,9 4,11 2,3 4,4 7,4 3,0 6,-1 8,-4 2,-2 3,-6 3,-11 0,-5 -1,-9 -3,-12 -2,-2 -5,-4 -8,-4 -3,0 -6,1 -8,4 -2,2 -3,6 -3,12zm37 0c0,-8 2,-13 6,-17 3,-3 8,-4 13,-4 5,0 10,1 13,5 4,4 5,9 5,15 0,5 0,9 -2,12 -1,3 -4,6 -7,7 -3,2 -6,3 -9,3 -6,0 -11,-2 -14,-6 -4,-3 -5,-9 -5,-15zm7 0c0,5 1,9 3,11 2,3 5,4 9,4 3,0 6,-1 8,-4 2,-2 3,-6 3,-12 0,-5 -1,-8 -3,-11 -2,-2 -5,-4 -8,-4 -4,0 -7,2 -9,4 -2,3 -3,6 -3,12zm61 20l0 -56 40 0 0 7 -33 0 0 17 31 0 0 6 -31 0 0 19 35 0 0 7 -42 0zm48 -12l7 -1c0,2 2,4 3,6 2,1 4,2 8,2 3,0 5,-1 7,-2 1,-1 2,-3 2,-4 0,-2 -1,-3 -2,-4 -1,-1 -3,-1 -7,-2 -5,-2 -9,-3 -11,-4 -2,-1 -3,-2 -4,-3 -1,-2 -2,-4 -2,-6 0,-2 1,-3 2,-5 1,-1 2,-3 3,-4 1,0 3,-1 4,-2 2,0 4,0 6,0 3,0 6,0 9,1 2,1 4,2 5,4 1,1 2,3 2,6l-6 1c-1,-2 -2,-4 -3,-5 -1,-1 -4,-2 -6,-2 -3,0 -6,1 -7,2 -1,1 -2,2 -2,3 0,1 0,2 1,3 0,0 1,1 3,2 0,0 2,0 6,1 4,2 8,3 10,3 2,1 3,3 4,4 1,2 2,4 2,6 0,2 -1,4 -2,6 -1,2 -3,4 -6,5 -2,1 -5,2 -8,2 -6,0 -10,-1 -12,-4 -3,-2 -5,-5 -6,-9zm42 27l0 -56 6 0 0 6c2,-2 3,-4 5,-5 2,-1 4,-1 7,-1 3,0 6,0 9,2 3,2 5,4 6,8 1,3 2,6 2,10 0,4 -1,8 -2,11 -2,4 -4,6 -7,8 -2,2 -5,3 -9,3 -2,0 -4,-1 -6,-2 -2,-1 -3,-2 -4,-3l0 19 -7 0zm6 -35c0,5 1,9 3,11 2,3 5,4 8,4 3,0 6,-1 8,-4 2,-2 3,-6 3,-12 0,-5 -1,-9 -3,-11 -2,-3 -5,-4 -8,-4 -3,0 -5,1 -7,4 -3,3 -4,7 -4,12zm40 20l0 -41 7 0 0 41 -7 0zm-3 -46l5 -10 9 0 -8 10 -6 0zm22 46l0 -41 6 0 0 7c2,-3 3,-5 4,-6 2,-1 3,-1 5,-1 2,0 4,0 7,2l-3 6c-1,-1 -3,-1 -5,-1 -1,0 -2,0 -4,1 -1,1 -2,2 -2,4 -1,2 -1,5 -1,8l0 21 -7 0zm26 -48l0 -8 7 0 0 8 -7 0zm0 48l0 -41 7 0 0 41 -7 0zm32 -6l1 6c-2,0 -4,0 -5,0 -3,0 -5,0 -6,-1 -1,-1 -2,-2 -3,-3 0,-1 -1,-4 -1,-8l0 -23 -5 0 0 -6 5 0 0 -10 7 -4 0 14 7 0 0 6 -7 0 0 23c0,2 0,4 1,4 0,1 0,1 1,1 0,1 1,1 2,1 1,0 2,0 3,0zm4 -14c0,-8 2,-13 6,-17 4,-3 8,-4 13,-4 6,0 10,1 14,5 3,4 5,9 5,15 0,5 -1,9 -2,12 -2,3 -4,6 -7,7 -3,2 -6,3 -10,3 -5,0 -10,-2 -14,-6 -3,-3 -5,-9 -5,-15zm7 0c0,5 1,9 4,11 2,3 5,4 8,4 4,0 6,-1 9,-4 2,-2 3,-6 3,-12 0,-5 -1,-8 -3,-11 -3,-2 -5,-4 -9,-4 -3,0 -6,2 -8,4 -3,3 -4,6 -4,12zm59 2l7 -1c0,3 1,5 2,7 2,2 4,3 6,5 3,1 5,1 9,1 2,0 5,0 7,-1 2,-1 4,-2 5,-4 1,-1 1,-3 1,-4 0,-2 0,-4 -1,-5 -1,-1 -3,-2 -5,-3 -2,-1 -5,-2 -10,-3 -5,-1 -9,-2 -11,-3 -2,-2 -4,-3 -6,-6 -1,-2 -2,-4 -2,-6 0,-3 1,-6 3,-8 1,-3 4,-5 7,-6 3,-1 6,-2 10,-2 4,0 8,1 11,2 3,1 5,3 7,6 2,3 3,6 3,9l-7 0c-1,-3 -2,-6 -4,-8 -2,-1 -6,-2 -10,-2 -4,0 -8,0 -10,2 -2,2 -3,4 -3,6 0,2 1,4 3,5 1,1 5,3 11,4 6,1 10,3 12,4 3,1 6,3 7,5 2,2 3,5 3,8 0,3 -1,6 -3,8 -2,3 -4,5 -7,7 -4,1 -7,2 -11,2 -5,0 -9,-1 -13,-2 -3,-2 -6,-4 -8,-7 -2,-3 -3,-6 -3,-10zm80 13c-2,2 -5,3 -7,4 -3,1 -5,2 -8,2 -4,0 -8,-1 -10,-4 -2,-2 -4,-4 -4,-8 0,-2 1,-4 2,-5 1,-2 2,-3 3,-4 2,-1 3,-2 5,-2 2,-1 4,-1 6,-1 6,-1 10,-2 13,-3 0,-1 0,-1 0,-2 0,-2 -1,-4 -2,-5 -2,-2 -5,-3 -8,-3 -3,0 -6,1 -7,2 -2,1 -3,3 -4,6l-6 -1c0,-3 1,-5 3,-7 1,-2 3,-3 6,-4 2,-1 5,-1 9,-1 3,0 6,0 8,1 2,1 4,2 5,3 1,1 2,3 2,5 0,1 0,3 0,6l0 9c0,6 1,10 1,12 0,2 1,3 2,5l-8 0c0,-2 -1,-3 -1,-5zm0 -15c-3,1 -7,1 -12,2 -2,1 -4,1 -6,2 -1,0 -2,1 -2,2 -1,1 -1,2 -1,3 0,2 0,3 2,4 1,2 3,2 6,2 2,0 5,0 7,-1 2,-2 3,-3 4,-5 1,-2 2,-4 2,-7l0 -2zm17 20l0 -41 6 0 0 6c3,-4 7,-6 13,-6 2,0 5,0 7,1 2,1 3,2 4,3 1,2 2,3 2,5 1,2 1,4 1,7l0 25 -7 0 0 -25c0,-3 0,-5 -1,-6 0,-1 -1,-2 -3,-3 -1,-1 -3,-2 -4,-2 -3,0 -6,1 -8,3 -2,2 -3,6 -3,11l0 22 -7 0zm58 -6l1 6c-2,0 -3,0 -5,0 -2,0 -4,0 -6,-1 -1,-1 -2,-2 -3,-3 0,-1 0,-4 0,-8l0 -23 -6 0 0 -6 6 0 0 -10 6 -4 0 14 7 0 0 6 -7 0 0 23c0,2 0,4 1,4 0,1 0,1 1,1 0,1 1,1 2,1 1,0 2,0 3,0zm4 -14c0,-8 2,-13 7,-17 3,-3 7,-4 12,-4 6,0 10,1 14,5 3,4 5,9 5,15 0,5 -1,9 -2,12 -2,3 -4,6 -7,7 -3,2 -6,3 -10,3 -5,0 -10,-2 -13,-6 -4,-3 -6,-9 -6,-15zm7 0c0,5 2,9 4,11 2,3 5,4 8,4 4,0 7,-1 9,-4 2,-2 3,-6 3,-12 0,-5 -1,-8 -3,-11 -2,-2 -5,-4 -9,-4 -3,0 -6,2 -8,4 -2,3 -4,6 -4,12zm-756 91l7 -1c0,4 1,7 2,9 2,1 3,2 6,2 2,0 3,0 5,-1 1,-1 2,-2 3,-4 0,-1 0,-3 0,-6l0 -39 8 0 0 38c0,5 -1,8 -2,11 -1,2 -3,4 -5,6 -3,1 -6,2 -9,2 -5,0 -9,-2 -11,-4 -3,-3 -4,-7 -4,-13zm39 -4c0,-8 2,-13 7,-17 3,-3 7,-4 12,-4 6,0 10,1 14,5 3,4 5,9 5,15 0,5 -1,9 -2,12 -2,3 -4,6 -7,7 -3,2 -6,3 -10,3 -5,0 -10,-2 -13,-6 -4,-3 -6,-9 -6,-15zm7 0c0,5 1,9 4,11 2,3 5,4 8,4 4,0 7,-1 9,-4 2,-2 3,-6 3,-12 0,-5 -1,-8 -3,-11 -2,-2 -5,-4 -9,-4 -3,0 -6,2 -8,4 -3,3 -4,6 -4,12z"/>
    <path class="fil1" d="M175 1641l6 -1c1,2 2,4 3,6 2,1 5,2 8,2 3,0 5,-1 7,-2 1,-1 2,-3 2,-4 0,-2 -1,-3 -2,-4 -1,-1 -3,-1 -7,-2 -5,-2 -8,-3 -10,-4 -2,-1 -4,-2 -5,-3 -1,-2 -1,-4 -1,-6 0,-2 0,-3 1,-5 1,-1 2,-3 3,-4 1,0 3,-1 5,-2 1,0 3,0 6,0 3,0 5,0 8,1 2,1 4,2 5,4 1,1 2,3 3,6l-7 1c0,-2 -1,-4 -3,-5 -1,-1 -3,-2 -6,-2 -3,0 -5,1 -7,2 -1,1 -2,2 -2,3 0,1 1,2 1,3 1,0 2,1 3,2 0,0 2,0 6,1 5,2 8,3 10,4 2,0 3,2 4,3 2,2 2,4 2,6 0,2 -1,4 -2,6 -1,2 -3,4 -6,5 -2,1 -5,2 -8,2 -5,0 -9,-1 -12,-4 -3,-2 -5,-5 -5,-9zm69 -1l7 1c-1,4 -3,7 -6,9 -3,3 -7,4 -12,4 -6,0 -10,-2 -14,-6 -3,-3 -5,-8 -5,-15 0,-7 2,-12 5,-16 4,-4 8,-5 14,-5 5,0 10,1 13,5 3,4 5,9 5,16 0,0 0,1 0,1l-30 0c0,5 1,8 4,11 2,2 5,3 8,3 3,0 5,-1 7,-2 1,-1 3,-3 4,-6zm-23 -11l23 0c0,-4 -1,-6 -3,-8 -2,-3 -5,-4 -8,-4 -3,0 -6,1 -8,3 -2,2 -3,5 -4,9zm6 -22l5 -10 9 0 -8 10 -6 0zm45 46l21 -56 8 0 23 56 -9 0 -6 -17 -24 0 -6 17 -7 0zm16 -23l19 0 -6 -16c-2,-4 -3,-8 -4,-11 -1,3 -2,7 -3,11l-6 16zm41 23l0 -41 6 0 0 6c3,-4 7,-6 13,-6 2,0 4,0 6,1 3,1 4,2 5,3 1,2 2,3 2,5 0,2 1,4 1,7l0 25 -7 0 0 -25c0,-3 -1,-5 -1,-6 -1,-1 -2,-2 -3,-3 -1,-1 -3,-2 -5,-2 -3,0 -5,1 -7,3 -2,2 -3,6 -3,11l0 22 -7 0zm58 -6l1 6c-2,0 -4,0 -5,0 -3,0 -5,0 -6,-1 -1,-1 -2,-2 -3,-3 0,-1 -1,-4 -1,-8l0 -23 -5 0 0 -6 5 0 0 -10 7 -4 0 14 7 0 0 6 -7 0 0 23c0,2 0,4 0,4 1,1 1,1 2,2 0,0 1,0 2,0 1,0 2,0 3,0zm4 -14c0,-8 2,-13 6,-17 4,-3 8,-4 13,-4 6,0 10,1 14,5 3,4 5,9 5,15 0,5 -1,9 -2,12 -2,3 -4,6 -7,7 -3,2 -6,3 -10,3 -6,0 -10,-2 -14,-6 -3,-3 -5,-9 -5,-15zm7 0c0,5 1,9 4,11 2,3 5,4 8,4 4,0 6,-1 9,-4 2,-2 3,-6 3,-12 0,-5 -1,-8 -3,-11 -3,-2 -6,-4 -9,-4 -3,0 -6,2 -8,4 -3,3 -4,6 -4,12zm6 -26l5 -10 9 0 -8 10 -6 0zm33 46l0 -41 6 0 0 6c3,-4 7,-6 13,-6 2,0 5,0 7,1 2,1 3,2 4,3 1,2 2,3 2,5 1,2 1,4 1,7l0 25 -7 0 0 -25c0,-3 0,-5 -1,-6 0,-1 -1,-2 -3,-3 -1,-1 -3,-2 -4,-2 -3,0 -6,1 -8,3 -2,2 -3,6 -3,11l0 22 -7 0zm43 -48l0 -8 7 0 0 8 -7 0zm0 48l0 -41 7 0 0 41 -7 0zm15 -20c0,-8 2,-13 6,-17 4,-3 8,-4 13,-4 6,0 10,1 14,5 3,4 5,9 5,15 0,5 -1,9 -2,12 -2,3 -4,6 -7,7 -3,2 -6,3 -10,3 -6,0 -10,-2 -14,-6 -3,-3 -5,-9 -5,-15zm7 0c0,5 1,9 4,11 2,3 5,4 8,4 3,0 6,-1 9,-4 2,-2 3,-6 3,-12 0,-5 -1,-8 -3,-11 -3,-2 -6,-4 -9,-4 -3,0 -6,2 -8,4 -3,3 -4,6 -4,12zm61 20l0 -56 11 0 14 40c1,3 2,6 2,8 1,-2 2,-5 3,-9l14 -39 10 0 0 56 -8 0 0 -47 -16 47 -6 0 -17 -48 0 48 -7 0zm62 -20c0,-8 2,-13 6,-17 4,-3 8,-4 13,-4 5,0 10,1 14,5 3,4 5,9 5,15 0,5 -1,9 -3,12 -1,3 -3,6 -6,7 -3,2 -7,3 -10,3 -6,0 -10,-2 -14,-6 -3,-3 -5,-9 -5,-15zm7 0c0,5 1,9 3,11 3,3 5,4 9,4 3,0 6,-1 8,-4 3,-2 4,-6 4,-12 0,-5 -1,-8 -4,-11 -2,-2 -5,-4 -8,-4 -4,0 -6,2 -9,4 -2,3 -3,6 -3,12zm39 20l0 -41 6 0 0 7c1,-3 3,-5 4,-6 2,-1 3,-1 5,-1 2,0 4,0 7,2l-3 6c-1,-1 -3,-1 -5,-1 -1,0 -3,0 -4,1 -1,1 -2,2 -2,4 -1,2 -1,5 -1,8l0 21 -7 0zm53 -13l7 1c-1,4 -3,7 -6,9 -3,3 -7,4 -11,4 -6,0 -11,-2 -14,-6 -4,-3 -5,-8 -5,-15 0,-7 1,-12 5,-16 3,-4 8,-5 13,-5 6,0 10,1 14,5 3,4 5,9 5,16 0,0 0,1 0,1l-30 0c0,5 1,8 3,11 3,2 5,3 9,3 2,0 4,-1 6,-2 2,-1 3,-3 4,-6zm-22 -11l22 0c0,-4 -1,-6 -2,-8 -2,-3 -5,-4 -9,-4 -3,0 -5,1 -8,3 -2,2 -3,5 -3,9zm38 -24l0 -8 7 0 0 8 -7 0zm0 48l0 -41 7 0 0 41 -7 0zm17 0l0 -41 6 0 0 7c2,-3 3,-5 5,-6 1,-1 3,-1 4,-1 3,0 5,0 7,2l-2 6c-2,-1 -3,-1 -5,-1 -2,0 -3,0 -4,1 -1,1 -2,2 -3,4 0,2 -1,5 -1,8l0 21 -7 0zm53 -5c-3,2 -5,3 -8,4 -2,1 -4,2 -7,2 -5,0 -8,-1 -10,-4 -3,-2 -4,-4 -4,-8 0,-2 0,-4 1,-5 1,-2 2,-3 4,-4 1,-1 3,-2 5,-2 1,-1 3,-1 6,-1 5,-1 10,-2 12,-3 0,-1 0,-1 0,-2 0,-2 0,-4 -2,-5 -2,-2 -4,-3 -8,-3 -3,0 -5,1 -7,2 -1,1 -2,3 -3,6l-7 -1c1,-3 2,-5 3,-7 2,-2 4,-3 6,-4 3,-1 6,-1 9,-1 4,0 7,0 9,1 2,1 4,2 5,3 1,1 1,3 2,5 0,1 0,3 0,6l0 9c0,6 0,10 1,12 0,2 0,3 1,5l-7 0c-1,-2 -1,-3 -1,-5zm-1 -15c-2,1 -6,1 -11,2 -3,1 -5,1 -6,2 -1,0 -2,1 -3,2 0,1 -1,2 -1,3 0,2 1,3 2,5 2,1 4,1 6,1 3,0 5,0 8,-1 2,-2 3,-3 4,-5 1,-2 1,-4 1,-7l0 -2z"/>
   </g>
  </g>
 </g>
</svg>
