<?xml version="1.0" encoding="UTF-8"?>
<!DOCTYPE svg PUBLIC "-//W3C//DTD SVG 1.1//EN" "http://www.w3.org/Graphics/SVG/1.1/DTD/svg11.dtd">
<!-- Creator: CorelDRAW X7 -->
<svg xmlns="http://www.w3.org/2000/svg" xml:space="preserve" width="1189px" height="1773px" version="1.1" style="shape-rendering:geometricPrecision; text-rendering:geometricPrecision; image-rendering:optimizeQuality; fill-rule:evenodd; clip-rule:evenodd"
viewBox="0 0 1189 1773"
 xmlns:xlink="http://www.w3.org/1999/xlink">
 <defs>
  <style type="text/css">
   <![CDATA[
    .str0 {stroke:#B85151;stroke-width:2.36221}
    .fil2 {fill:#E6E7E8}
    .fil1 {fill:#0E304C}
    .fil0 {fill:#B85151}
    .fil3 {fill:#F0989F}
    .fil4 {fill:white}
   ]]>
  </style>
 </defs>
 <g id="Camada_x0020_1">
  <metadata id="CorelCorpID_0Corel-Layer"/>
  <g id="_2587156094720">
   <rect class="fil0 str0" transform="matrix(-2.51426E-014 -0.941639 -0.941639 2.51426E-014 1188.94 1772.97)" width="1883" height="1263" rx="5" ry="5"/>
   <path class="fil1" d="M247 364c18,20 30,36 58,43 45,11 144,-17 193,-31 11,-4 25,-7 36,-12 6,-1 14,-4 20,-6l136 -46c53,-17 105,-35 158,-50 27,-8 53,-17 80,-23 67,-16 196,-40 261,-36l0 -5c-47,-4 -123,8 -171,17 -62,11 -98,19 -159,38 -101,31 -201,64 -301,97 -57,19 -181,59 -240,54 -32,-4 -46,-19 -65,-40 -7,-8 -20,-23 -25,-32 -7,-10 -17,-20 -26,-29 -55,-55 -120,-79 -183,-104l-18 -6 -1 4 36 15c44,17 93,36 133,68 16,12 29,24 42,39 9,10 31,41 36,45z"/>
   <path class="fil2" d="M91 1519l8 -1c1,3 1,6 3,8 1,2 4,4 7,5 3,2 6,2 10,2 3,0 6,0 9,-1 3,-1 5,-2 6,-4 1,-2 2,-4 2,-6 0,-2 -1,-4 -2,-6 -1,-1 -3,-2 -6,-4 -2,0 -6,-1 -12,-3 -6,-1 -11,-3 -13,-4 -3,-2 -6,-4 -7,-6 -2,-3 -3,-6 -3,-9 0,-3 1,-6 3,-9 2,-3 5,-5 9,-7 3,-2 8,-2 12,-2 5,0 9,1 13,2 4,2 7,4 9,7 2,3 3,7 3,11l-8 1c-1,-5 -2,-8 -5,-10 -2,-2 -6,-3 -12,-3 -5,0 -9,1 -11,3 -3,2 -4,4 -4,7 0,2 1,4 3,6 1,1 6,3 13,5 7,1 12,3 15,4 4,2 7,4 9,7 1,2 2,6 2,9 0,4 -1,7 -3,10 -2,4 -5,6 -9,8 -3,2 -8,2 -13,2 -6,0 -11,-1 -15,-2 -4,-2 -7,-5 -10,-8 -2,-4 -3,-8 -3,-12zm96 15c-3,3 -6,5 -8,6 -3,1 -6,1 -10,1 -5,0 -9,-1 -12,-4 -3,-2 -4,-6 -4,-10 0,-2 0,-4 1,-6 1,-2 3,-4 5,-5 1,-1 3,-2 6,-3 1,0 4,0 7,-1 7,-1 12,-2 15,-3 0,-1 0,-2 0,-2 0,-3 -1,-6 -3,-7 -2,-2 -5,-3 -9,-3 -4,0 -7,1 -9,2 -2,2 -3,4 -4,8l-8 -2c1,-3 2,-6 4,-8 1,-2 4,-4 7,-5 3,-1 7,-2 11,-2 4,0 8,1 10,2 3,1 5,2 6,4 1,1 2,3 3,5 0,2 0,4 0,8l0 11c0,7 0,12 1,14 0,2 1,4 2,6l-9 0c-1,-1 -1,-4 -2,-6zm0 -18c-3,1 -8,2 -14,3 -3,0 -6,1 -7,2 -1,0 -3,1 -3,2 -1,1 -1,3 -1,4 0,2 0,4 2,6 2,1 4,2 7,2 4,0 6,-1 9,-2 2,-2 4,-4 5,-6 1,-2 2,-5 2,-8l0 -3zm28 24l-7 0 0 -67 8 0 0 24c4,-4 8,-7 13,-7 3,0 6,1 9,2 3,1 5,3 7,5 1,2 3,5 4,8 1,3 1,7 1,10 0,8 -2,15 -6,19 -4,5 -9,7 -15,7 -6,0 -10,-2 -14,-7l0 6zm0 -25c0,6 1,11 3,13 2,4 6,7 10,7 4,0 7,-2 10,-5 2,-3 4,-8 4,-14 0,-7 -2,-11 -4,-14 -3,-3 -6,-5 -9,-5 -4,0 -7,2 -10,5 -2,3 -4,8 -4,13zm45 25l0 -49 8 0 0 8c1,-4 3,-6 5,-7 1,-1 3,-2 5,-2 3,0 6,1 9,3l-3 8c-2,-2 -4,-2 -6,-2 -2,0 -4,0 -5,2 -2,1 -3,2 -3,4 -1,3 -2,6 -2,10l0 25 -8 0zm32 -58l0 -9 8 0 0 9 -8 0zm0 58l0 -49 8 0 0 49 -8 0zm20 0l0 -49 8 0 0 7c4,-5 9,-8 15,-8 3,0 6,1 9,2 2,1 4,2 5,4 1,2 2,4 3,6 0,2 0,4 0,8l0 30 -8 0 0 -29c0,-4 0,-6 -1,-8 -1,-2 -2,-3 -4,-4 -1,-1 -3,-1 -5,-1 -4,0 -7,1 -9,3 -3,2 -4,6 -4,13l0 26 -9 0zm85 -6c-3,3 -6,5 -9,6 -3,1 -6,1 -9,1 -6,0 -10,-1 -13,-4 -3,-2 -4,-6 -4,-10 0,-2 1,-4 2,-6 1,-2 2,-4 4,-5 2,-1 4,-2 6,-3 2,0 4,0 7,-1 7,-1 12,-2 15,-3 0,-1 0,-2 0,-2 0,-3 -1,-6 -2,-7 -2,-2 -6,-3 -10,-3 -4,0 -6,1 -8,2 -2,2 -4,4 -4,8l-9 -2c1,-3 2,-6 4,-8 2,-2 4,-4 7,-5 4,-1 7,-2 12,-2 4,0 7,1 10,2 2,1 4,2 6,4 1,1 2,3 2,5 0,2 1,4 1,8l0 11c0,7 0,12 0,14 0,2 1,4 2,6l-9 0c0,-1 -1,-4 -1,-6zm-1 -18c-3,1 -7,2 -13,3 -4,0 -6,1 -8,2 -1,0 -2,1 -3,2 -1,1 -1,3 -1,4 0,2 1,4 2,6 2,1 5,2 8,2 3,0 6,-1 8,-2 3,-2 5,-4 6,-6 1,-2 1,-5 1,-8l0 -3zm96 1l9 2c-1,7 -5,13 -10,17 -5,3 -10,5 -17,5 -8,0 -14,-1 -18,-4 -5,-3 -8,-7 -11,-13 -2,-6 -3,-12 -3,-18 0,-7 1,-13 4,-18 3,-6 6,-10 11,-12 5,-3 11,-4 17,-4 6,0 12,1 17,5 4,3 7,8 9,14l-8 2c-2,-5 -4,-8 -7,-10 -3,-3 -7,-4 -11,-4 -6,0 -10,2 -13,4 -4,3 -6,6 -8,10 -1,4 -2,9 -2,13 0,6 1,11 3,15 1,4 4,7 7,10 4,2 8,3 12,3 5,0 9,-2 12,-5 4,-2 6,-7 7,-12zm51 17c-3,3 -6,5 -9,6 -2,1 -5,1 -9,1 -5,0 -9,-1 -12,-4 -3,-2 -4,-6 -4,-10 0,-2 0,-4 1,-6 1,-2 3,-4 4,-5 2,-1 4,-2 6,-3 2,0 5,0 8,-1 7,-1 11,-2 15,-3 0,-1 0,-2 0,-2 0,-3 -1,-6 -3,-7 -2,-2 -5,-3 -9,-3 -4,0 -7,1 -9,2 -2,2 -3,4 -4,8l-8 -2c1,-3 2,-6 4,-8 1,-2 4,-4 7,-5 3,-1 7,-2 11,-2 4,0 8,1 10,2 3,1 5,2 6,4 1,1 2,3 3,5 0,2 0,4 0,8l0 11c0,7 0,12 1,14 0,2 1,4 2,6l-9 0c-1,-1 -1,-4 -2,-6zm0 -18c-3,1 -8,2 -14,3 -3,0 -6,1 -7,2 -2,0 -3,1 -3,2 -1,1 -2,3 -2,4 0,2 1,4 3,6 2,1 4,2 7,2 3,0 6,-1 9,-2 2,-2 4,-4 5,-6 1,-2 2,-5 2,-8l0 -3zm21 24l0 -49 7 0 0 8c2,-4 4,-6 5,-7 2,-1 4,-2 6,-2 2,0 5,1 8,3l-3 8c-2,-2 -4,-2 -6,-2 -2,0 -3,0 -5,2 -1,1 -2,2 -3,4 -1,3 -1,6 -1,10l0 25 -8 0zm44 0l-18 -49 9 0 10 30c1,3 3,6 3,9 1,-2 2,-5 4,-9l10 -30 9 0 -19 49 -8 0zm66 -6c-3,3 -6,5 -9,6 -3,1 -6,1 -9,1 -5,0 -9,-1 -12,-4 -3,-2 -5,-6 -5,-10 0,-2 1,-4 2,-6 1,-2 3,-4 4,-5 2,-1 4,-2 6,-3 2,0 4,0 8,-1 6,-1 11,-2 14,-3 0,-1 0,-2 0,-2 0,-3 0,-6 -2,-7 -2,-2 -5,-3 -9,-3 -4,0 -7,1 -9,2 -2,2 -3,4 -4,8l-8 -2c1,-3 2,-6 3,-8 2,-2 5,-4 8,-5 3,-1 7,-2 11,-2 4,0 7,1 10,2 3,1 5,2 6,4 1,1 2,3 2,5 1,2 1,4 1,8l0 11c0,7 0,12 0,14 1,2 1,4 2,6l-8 0c-1,-1 -2,-4 -2,-6zm-1 -18c-3,1 -7,2 -13,3 -4,0 -6,1 -7,2 -2,0 -3,1 -4,2 0,1 -1,3 -1,4 0,2 1,4 3,6 1,1 4,2 7,2 3,0 6,-1 9,-2 2,-2 4,-4 5,-6 1,-2 1,-5 1,-8l0 -3zm21 24l0 -67 9 0 0 67 -9 0zm21 0l0 -67 9 0 0 24c4,-4 8,-7 14,-7 4,0 7,1 10,2 2,2 4,4 5,6 2,3 2,7 2,11l0 31 -8 0 0 -31c0,-4 -1,-7 -3,-9 -2,-2 -4,-2 -7,-2 -3,0 -5,0 -7,1 -2,2 -4,3 -5,6 -1,2 -1,5 -1,9l0 26 -9 0zm50 -24c0,-9 2,-16 7,-20 4,-4 10,-6 16,-6 6,0 12,3 16,7 4,4 7,10 7,18 0,6 -1,11 -3,15 -2,4 -5,6 -9,8 -3,2 -7,3 -11,3 -7,0 -13,-2 -17,-6 -4,-5 -6,-11 -6,-19zm8 0c0,6 2,11 4,14 3,3 7,5 11,5 4,0 7,-2 10,-5 3,-3 4,-8 4,-14 0,-6 -1,-11 -4,-14 -3,-3 -6,-5 -10,-5 -4,0 -8,2 -11,5 -2,3 -4,8 -4,14zm-679 129l0 -67 13 0 16 48c1,4 2,8 3,10 1,-3 2,-6 4,-11l16 -47 12 0 0 67 -9 0 0 -56 -19 56 -8 0 -20 -57 0 57 -8 0zm109 -6c-3,3 -6,5 -9,6 -3,1 -6,1 -9,1 -5,0 -9,-1 -12,-3 -3,-3 -5,-6 -5,-10 0,-3 1,-5 2,-7 1,-2 2,-4 4,-5 2,-1 4,-2 6,-2 2,-1 4,-1 8,-2 6,0 11,-1 14,-3 0,-1 0,-1 0,-2 0,-3 0,-5 -2,-7 -2,-2 -5,-3 -9,-3 -4,0 -7,1 -9,2 -2,2 -3,4 -4,8l-8 -1c0,-4 2,-7 3,-9 2,-2 4,-4 8,-5 3,-1 7,-1 11,-1 4,0 7,0 10,1 3,1 5,2 6,4 1,1 2,3 2,5 1,2 1,4 1,8l0 11c0,8 0,12 0,15 1,2 1,4 2,5l-8 0c-1,-1 -2,-3 -2,-6zm-1 -18c-3,1 -7,2 -13,3 -4,1 -6,1 -7,2 -2,0 -3,1 -4,2 0,2 -1,3 -1,4 0,2 1,4 3,6 1,1 4,2 7,2 3,0 6,-1 9,-2 2,-1 4,-3 5,-6 1,-2 1,-4 1,-8l0 -3zm53 7l8 1c0,5 -3,10 -6,13 -4,3 -8,4 -14,4 -6,0 -12,-2 -16,-6 -4,-4 -6,-11 -6,-19 0,-5 1,-10 3,-14 1,-4 4,-7 8,-8 3,-2 7,-3 11,-3 6,0 10,1 13,4 4,2 6,6 7,11l-8 1c-1,-3 -2,-6 -4,-7 -2,-2 -5,-3 -7,-3 -5,0 -8,2 -11,5 -2,3 -3,8 -3,14 0,7 1,11 3,14 3,3 6,5 10,5 3,0 6,-1 8,-3 2,-2 4,-5 4,-9zm16 17l0 -67 8 0 0 24c4,-4 9,-6 14,-6 4,0 7,0 10,2 2,1 4,3 5,6 2,2 2,6 2,11l0 30 -8 0 0 -30c0,-5 -1,-8 -3,-9 -2,-2 -4,-3 -7,-3 -3,0 -5,0 -7,2 -2,1 -4,3 -5,5 -1,2 -1,5 -1,9l0 26 -8 0zm84 -6c-3,3 -6,5 -9,6 -3,1 -6,1 -9,1 -6,0 -10,-1 -13,-3 -2,-3 -4,-6 -4,-10 0,-3 1,-5 2,-7 1,-2 2,-4 4,-5 2,-1 4,-2 6,-2 2,-1 4,-1 7,-2 7,0 12,-1 15,-3 0,-1 0,-1 0,-2 0,-3 -1,-5 -2,-7 -2,-2 -5,-3 -10,-3 -4,0 -6,1 -8,2 -2,2 -3,4 -4,8l-8 -1c0,-4 1,-7 3,-9 2,-2 4,-4 8,-5 3,-1 6,-1 11,-1 4,0 7,0 10,1 2,1 4,2 6,4 1,1 2,3 2,5 0,2 1,4 1,8l0 11c0,8 0,12 0,15 0,2 1,4 2,5l-9 0c0,-1 -1,-3 -1,-6zm-1 -18c-3,1 -7,2 -13,3 -4,1 -6,1 -8,2 -1,0 -2,1 -3,2 -1,2 -1,3 -1,4 0,2 1,4 2,6 2,1 5,2 8,2 3,0 6,-1 8,-2 3,-1 5,-3 6,-6 1,-2 1,-4 1,-8l0 -3zm53 24l0 -6c-3,5 -8,7 -14,7 -4,0 -7,-1 -11,-3 -3,-2 -5,-5 -7,-9 -2,-4 -3,-8 -3,-13 0,-5 1,-9 3,-13 1,-4 4,-7 7,-9 3,-2 7,-3 11,-3 3,0 5,0 8,1 2,2 4,3 5,5l0 -24 9 0 0 67 -8 0zm-26 -24c0,6 1,11 4,14 2,3 5,5 9,5 4,0 7,-2 9,-5 3,-3 4,-7 4,-13 0,-7 -1,-12 -4,-15 -2,-3 -6,-5 -9,-5 -4,0 -7,2 -10,5 -2,3 -3,8 -3,14zm44 0c0,-9 2,-16 7,-20 4,-4 9,-5 15,-5 7,0 13,2 17,6 4,5 6,11 6,18 0,7 -1,12 -2,15 -2,4 -5,7 -9,9 -3,1 -7,2 -12,2 -6,0 -12,-2 -16,-6 -4,-4 -6,-11 -6,-19zm8 0c0,6 1,11 4,14 3,3 6,5 10,5 5,0 8,-2 11,-5 2,-3 4,-8 4,-14 0,-6 -2,-11 -4,-14 -3,-3 -6,-5 -11,-5 -4,0 -7,2 -10,5 -3,3 -4,8 -4,14z"/>
   <g>
    <path class="fil1" d="M148 1369c0,-12 -10,-21 -21,-21 -12,0 -21,9 -21,21 0,12 9,21 21,21 11,0 21,-9 21,-21zm-21 10c-6,0 -11,-4 -11,-10 0,-6 5,-10 11,-10 6,0 10,4 10,10 0,6 -4,10 -10,10z"/>
    <path class="fil1" d="M95 1437l63 0c3,0 5,-2 5,-5l0 -5c0,-21 -16,-37 -36,-37 -20,0 -37,16 -37,37l0 5c0,3 3,5 5,5zm32 -37c14,0 26,12 26,27l-52 0c0,-15 11,-27 26,-27z"/>
    <path class="fil1" d="M327 1400c0,-3 -3,-5 -6,-5l-100 0c-3,0 -5,2 -5,5 0,3 2,6 5,6l100 0c3,0 6,-3 6,-6z"/>
    <path class="fil1" d="M321 1364l-100 0c-20,0 -37,16 -37,36 0,21 17,37 37,37l27 0c2,0 5,-2 5,-5 0,-3 -3,-5 -5,-5l-27 0c-14,0 -26,-12 -26,-27 0,-14 12,-26 26,-26l100 0c15,0 26,12 26,26 0,15 -11,27 -26,27l-26 0c-3,0 -6,2 -6,5 0,3 3,5 6,5l26 0c21,0 37,-16 37,-37 0,-20 -16,-36 -37,-36z"/>
    <path class="fil1" d="M276 1432c0,3 -2,5 -5,5 -3,0 -5,-2 -5,-5 0,-3 2,-5 5,-5 3,0 5,2 5,5z"/>
   </g>
   <g>
    <path class="fil3" d="M86 598c0,-20 5,-35 15,-46 11,-11 24,-16 41,-16 11,0 20,2 29,7 9,6 15,13 20,22 5,9 7,20 7,31 0,12 -3,23 -7,32 -5,10 -12,17 -21,22 -9,5 -18,7 -28,7 -11,0 -21,-3 -30,-8 -9,-5 -15,-13 -20,-22 -4,-9 -6,-19 -6,-29zm16 0c0,14 3,25 11,34 8,8 17,12 29,12 11,0 21,-4 28,-13 8,-8 12,-19 12,-35 0,-9 -2,-17 -5,-25 -3,-7 -8,-12 -14,-16 -6,-4 -13,-6 -21,-6 -11,0 -21,4 -29,11 -7,8 -11,21 -11,38zm160 90l0 -118 13 0 0 11c3,-4 6,-7 10,-10 4,-2 9,-3 14,-3 8,0 14,2 20,6 5,3 9,9 12,15 3,7 4,15 4,23 0,8 -1,16 -4,23 -3,7 -8,13 -14,16 -6,4 -12,6 -19,6 -4,0 -9,-1 -13,-3 -3,-2 -7,-5 -9,-8l0 42 -14 0zm13 -75c0,11 2,19 6,24 5,5 10,8 16,8 7,0 12,-3 17,-8 4,-6 7,-14 7,-25 0,-11 -3,-19 -7,-25 -5,-5 -10,-8 -16,-8 -6,0 -12,3 -16,9 -5,6 -7,14 -7,25zm133 31c-5,5 -10,8 -15,10 -5,2 -10,3 -16,3 -9,0 -17,-2 -22,-7 -5,-5 -7,-10 -7,-17 0,-5 1,-8 3,-12 2,-3 4,-6 7,-8 3,-2 7,-4 11,-5 2,-1 7,-1 12,-2 12,-1 21,-3 26,-5 0,-2 0,-3 0,-4 0,-6 -1,-10 -4,-12 -4,-3 -9,-5 -16,-5 -7,0 -12,1 -15,4 -4,2 -6,6 -8,12l-14 -2c2,-6 4,-11 7,-14 3,-4 7,-7 12,-9 6,-2 12,-3 20,-3 7,0 13,1 18,3 4,1 7,4 10,6 2,3 3,6 4,10 1,2 1,7 1,13l0 19c0,14 0,22 1,26 0,3 1,7 3,10l-15 0c-1,-3 -2,-7 -3,-11zm-1 -32c-5,3 -13,4 -23,6 -6,1 -11,2 -13,3 -2,1 -4,2 -6,4 -1,2 -2,5 -2,7 0,4 2,7 5,10 3,2 7,3 12,3 6,0 11,-1 15,-3 5,-3 8,-6 10,-10 1,-3 2,-8 2,-14l0 -6zm37 76l0 -118 13 0 0 11c3,-4 7,-7 11,-10 3,-2 8,-3 14,-3 7,0 13,2 19,6 6,3 10,9 13,15 2,7 4,15 4,23 0,8 -2,16 -5,23 -3,7 -8,13 -14,16 -5,4 -12,6 -18,6 -5,0 -9,-1 -13,-3 -4,-2 -7,-5 -10,-8l0 42 -14 0zm13 -75c0,11 2,19 7,24 4,5 9,8 16,8 6,0 12,-3 16,-8 5,-6 7,-14 7,-25 0,-11 -2,-19 -7,-25 -4,-5 -9,-8 -16,-8 -6,0 -11,3 -16,9 -5,6 -7,14 -7,25zm136 14l15 2c-2,9 -7,16 -13,21 -6,4 -14,7 -24,7 -13,0 -22,-4 -30,-12 -7,-7 -11,-18 -11,-32 0,-14 4,-25 11,-33 8,-8 17,-12 29,-12 11,0 21,4 28,12 7,7 11,18 11,32 0,1 0,2 0,4l-64 0c1,9 3,17 8,22 5,5 11,7 18,7 5,0 10,-1 13,-4 4,-3 7,-7 9,-14zm-47 -23l47 0c0,-7 -2,-12 -5,-16 -5,-5 -11,-8 -18,-8 -6,0 -12,2 -17,7 -4,4 -7,10 -7,17zm80 51l0 -117 14 0 0 117 -14 0zm-483 183l0 -11c-5,9 -13,13 -23,13 -7,0 -13,-2 -19,-6 -6,-3 -10,-9 -13,-15 -3,-7 -5,-15 -5,-23 0,-9 1,-16 4,-23 3,-7 7,-13 13,-16 6,-4 12,-6 19,-6 5,0 10,1 14,4 4,2 7,5 9,8l0 -42 15 0 0 117 -14 0zm-45 -42c0,11 2,19 7,24 4,6 10,8 16,8 6,0 12,-2 16,-8 5,-5 7,-13 7,-23 0,-12 -2,-20 -7,-26 -4,-5 -10,-8 -17,-8 -6,0 -11,3 -16,8 -4,5 -6,14 -6,25zm76 0c0,-16 5,-28 13,-35 8,-7 17,-10 27,-10 12,0 21,4 29,12 7,7 11,18 11,31 0,11 -2,20 -5,26 -3,6 -8,11 -14,15 -7,3 -13,5 -21,5 -12,0 -21,-4 -29,-11 -7,-8 -11,-19 -11,-33zm15 0c0,11 2,19 7,24 5,5 11,8 18,8 7,0 13,-3 18,-8 5,-5 7,-14 7,-25 0,-10 -2,-18 -7,-24 -5,-5 -11,-8 -18,-8 -7,0 -13,3 -18,8 -5,6 -7,14 -7,25zm130 42l0 -117 79 0 0 14 -63 0 0 36 55 0 0 14 -55 0 0 53 -16 0zm98 -101l0 -16 14 0 0 16 -14 0zm0 101l0 -85 14 0 0 85 -14 0zm30 -25l15 -3c0,6 3,11 6,14 4,3 9,4 16,4 6,0 11,-1 14,-4 4,-3 5,-6 5,-9 0,-4 -1,-6 -4,-8 -2,-1 -7,-3 -15,-5 -10,-3 -18,-5 -22,-7 -4,-2 -7,-4 -9,-8 -2,-3 -3,-7 -3,-11 0,-4 1,-8 2,-11 2,-3 4,-6 7,-8 3,-1 6,-3 10,-4 3,-1 8,-2 12,-2 7,0 13,1 18,3 5,2 8,5 11,8 2,3 4,8 5,13l-14 2c-1,-4 -3,-8 -6,-10 -3,-3 -7,-4 -13,-4 -7,0 -11,1 -14,3 -3,3 -4,5 -4,8 0,2 0,4 1,5 2,2 3,3 6,4 1,0 6,2 13,4 10,2 17,5 21,6 4,2 7,5 9,8 3,3 4,7 4,12 0,5 -1,9 -4,14 -3,4 -7,7 -12,10 -6,2 -12,3 -18,3 -11,0 -20,-2 -26,-7 -5,-4 -9,-11 -11,-20zm144 -6l14 2c-2,10 -6,17 -12,23 -7,5 -14,8 -24,8 -11,0 -21,-4 -28,-11 -7,-8 -10,-19 -10,-33 0,-9 1,-17 4,-24 3,-7 8,-12 14,-16 6,-3 13,-5 20,-5 10,0 17,3 23,7 6,5 10,12 11,20l-14 2c-1,-5 -3,-10 -7,-13 -3,-2 -7,-4 -12,-4 -7,0 -13,3 -18,8 -4,5 -7,13 -7,25 0,11 3,19 7,24 4,6 10,8 17,8 6,0 11,-2 14,-5 4,-3 7,-9 8,-16zm82 21c-6,4 -11,7 -16,9 -5,2 -10,3 -16,3 -9,0 -16,-2 -21,-7 -5,-4 -8,-10 -8,-17 0,-4 1,-8 3,-12 2,-3 4,-6 7,-8 3,-2 7,-4 11,-5 3,0 7,-1 13,-2 11,-1 20,-3 25,-5 0,-2 0,-3 0,-4 0,-5 -1,-9 -4,-12 -3,-3 -9,-5 -16,-5 -7,0 -12,1 -15,4 -3,2 -6,6 -7,12l-14 -1c1,-7 3,-11 6,-15 3,-4 7,-7 13,-9 5,-2 12,-3 19,-3 7,0 13,1 18,3 4,2 8,4 10,6 2,3 3,6 4,10 1,3 1,7 1,13l0 20c0,13 0,21 1,25 0,3 2,7 3,10l-15 0c-1,-3 -2,-6 -2,-10zm-2 -32c-5,2 -13,3 -23,5 -6,1 -10,2 -13,3 -2,1 -4,2 -5,4 -2,3 -3,5 -3,7 0,4 2,7 5,10 3,2 7,4 13,4 5,0 10,-2 14,-4 5,-2 8,-6 10,-10 2,-3 2,-8 2,-14l0 -5zm37 42l0 -117 14 0 0 117 -14 0zm82 0l0 -85 13 0 0 12c6,-9 15,-14 27,-14 5,0 10,1 14,3 5,2 8,4 10,7 2,3 4,7 4,11 1,3 1,7 1,14l0 52 -14 0 0 -52c0,-5 -1,-10 -2,-13 -1,-3 -3,-5 -6,-7 -3,-1 -6,-2 -10,-2 -6,0 -11,2 -16,6 -4,3 -6,11 -6,22l0 46 -15 0zm147 -10c-5,4 -11,7 -16,9 -4,2 -10,3 -15,3 -10,0 -17,-2 -22,-7 -5,-4 -8,-10 -8,-17 0,-4 1,-8 3,-12 2,-3 5,-6 8,-8 3,-2 6,-4 10,-5 3,0 7,-1 13,-2 12,-1 20,-3 26,-5 0,-2 0,-3 0,-4 0,-5 -2,-9 -4,-12 -4,-3 -9,-5 -17,-5 -7,0 -12,1 -15,4 -3,2 -5,6 -7,12l-14 -1c1,-7 3,-11 6,-15 3,-4 7,-7 13,-9 6,-2 12,-3 19,-3 8,0 14,1 18,3 5,2 8,4 10,6 2,3 4,6 5,10 0,3 0,7 0,13l0 20c0,13 1,21 1,25 1,3 2,7 4,10l-15 0c-2,-3 -3,-6 -3,-10zm-1 -32c-5,2 -13,3 -24,5 -6,1 -10,2 -12,3 -3,1 -5,2 -6,4 -1,3 -2,5 -2,7 0,4 1,7 4,10 3,2 7,4 13,4 6,0 11,-2 15,-4 4,-2 7,-6 9,-10 2,-3 3,-8 3,-14l0 -5zm-859 225l45 -117 18 0 47 117 -17 0 -14 -35 -49 0 -13 35 -17 0zm34 -48l40 0 -12 -32c-4,-10 -7,-18 -8,-25 -2,8 -4,15 -7,23l-13 34zm142 48l0 -10c-6,8 -14,12 -24,12 -7,0 -13,-2 -19,-5 -5,-4 -10,-9 -13,-16 -3,-7 -5,-14 -5,-23 0,-9 2,-16 5,-23 3,-7 7,-12 12,-16 6,-4 12,-6 19,-6 5,0 10,2 14,4 4,2 7,5 10,8l0 -42 14 0 0 117 -13 0zm-46 -42c0,11 2,19 7,24 5,6 10,8 16,8 7,0 12,-2 17,-7 4,-5 6,-13 6,-24 0,-11 -2,-20 -7,-25 -4,-6 -10,-9 -16,-9 -7,0 -12,3 -16,8 -5,5 -7,14 -7,25zm82 42l0 -85 13 0 0 12c3,-4 6,-7 11,-10 4,-2 9,-4 15,-4 6,0 11,2 15,4 4,3 7,7 9,11 6,-10 15,-15 26,-15 9,0 15,3 20,7 4,5 6,12 6,22l0 58 -14 0 0 -53c0,-6 0,-10 -1,-13 -1,-2 -3,-4 -5,-6 -3,-1 -6,-2 -9,-2 -6,0 -11,2 -15,6 -4,4 -6,10 -6,19l0 49 -14 0 0 -55c0,-6 -2,-11 -4,-14 -2,-3 -6,-5 -12,-5 -4,0 -7,1 -11,3 -3,2 -6,5 -7,9 -2,5 -3,11 -3,18l0 44 -14 0zm137 -101l0 -16 14 0 0 16 -14 0zm0 101l0 -85 14 0 0 85 -14 0zm36 0l0 -85 13 0 0 12c6,-9 15,-14 27,-14 5,0 10,1 14,3 4,2 8,4 10,7 2,3 3,7 4,11 1,3 1,7 1,14l0 52 -14 0 0 -51c0,-6 -1,-11 -2,-14 -1,-2 -3,-5 -6,-6 -3,-2 -6,-3 -10,-3 -6,0 -11,2 -16,6 -4,4 -7,11 -7,22l0 46 -14 0zm91 -101l0 -16 15 0 0 16 -15 0zm0 101l0 -85 15 0 0 85 -15 0zm31 -25l14 -2c1,5 3,10 7,13 4,3 9,4 15,4 7,0 12,-1 15,-4 3,-2 5,-6 5,-9 0,-3 -2,-6 -4,-8 -2,-1 -7,-3 -15,-5 -11,-2 -18,-5 -22,-7 -4,-2 -7,-4 -9,-8 -3,-3 -4,-7 -4,-11 0,-4 1,-7 3,-11 2,-3 4,-6 7,-8 2,-1 5,-3 9,-4 4,-1 8,-2 13,-2 6,0 12,1 17,3 5,2 9,5 11,8 3,3 4,8 5,13l-14 2c0,-4 -2,-8 -5,-10 -3,-3 -8,-4 -13,-4 -7,0 -12,1 -14,4 -3,2 -5,4 -5,7 0,2 1,4 2,5 1,2 3,3 6,4 1,1 5,2 12,4 10,3 18,5 22,6 4,2 7,5 9,8 2,3 4,7 4,12 0,5 -2,10 -5,14 -2,4 -6,7 -12,10 -5,2 -11,3 -18,3 -11,0 -19,-2 -25,-7 -6,-4 -9,-11 -11,-20zm119 12l2 13c-4,1 -8,2 -11,2 -5,0 -9,-1 -12,-3 -3,-2 -5,-4 -6,-7 -1,-2 -2,-8 -2,-17l0 -49 -11 0 0 -11 11 0 0 -21 15 -8 0 29 14 0 0 11 -14 0 0 50c0,4 0,7 0,8 1,1 2,2 3,3 1,1 3,1 5,1 1,0 3,0 6,-1zm14 13l0 -85 13 0 0 13c3,-6 6,-10 9,-12 3,-2 6,-3 9,-3 5,0 10,2 15,5l-5 13c-3,-2 -7,-3 -10,-3 -3,0 -6,1 -9,3 -2,2 -4,5 -5,8 -2,5 -3,11 -3,17l0 44 -14 0zm110 -10c-5,4 -10,7 -15,9 -5,2 -10,3 -16,3 -9,0 -17,-2 -22,-7 -5,-4 -7,-10 -7,-17 0,-4 1,-8 3,-11 2,-4 4,-7 7,-9 3,-2 7,-3 11,-4 2,-1 7,-2 12,-3 12,-1 21,-3 26,-5 0,-2 0,-3 0,-3 0,-6 -1,-10 -4,-13 -4,-3 -9,-5 -16,-5 -7,0 -12,2 -15,4 -4,2 -6,7 -8,13l-14 -2c2,-6 4,-11 7,-15 3,-4 7,-7 13,-9 5,-2 12,-3 19,-3 7,0 13,1 18,3 4,2 8,4 10,6 2,3 3,6 4,10 1,3 1,7 1,14l0 19c0,13 0,22 1,25 0,4 2,7 3,10l-15 0c-1,-3 -2,-6 -3,-10zm-1 -32c-5,2 -13,4 -23,5 -6,1 -11,2 -13,3 -2,1 -4,3 -6,5 -1,2 -2,4 -2,6 0,4 2,7 5,10 3,3 7,4 12,4 6,0 11,-1 15,-4 5,-2 8,-5 10,-10 1,-3 2,-8 2,-14l0 -5zm93 11l14 2c-2,10 -6,17 -12,23 -7,5 -14,8 -24,8 -11,0 -21,-4 -28,-11 -7,-8 -10,-19 -10,-33 0,-9 1,-17 4,-24 3,-7 8,-12 14,-15 6,-4 13,-6 20,-6 10,0 17,3 23,7 6,5 10,12 11,20l-14 2c-1,-5 -3,-10 -7,-12 -3,-3 -7,-5 -12,-5 -7,0 -13,3 -18,8 -4,5 -6,13 -6,25 0,11 2,19 6,25 4,5 10,7 17,7 6,0 11,-1 14,-5 4,-3 7,-9 8,-16zm-34 45l4 -14 11 0 -3 9c5,0 8,2 10,4 3,2 4,5 4,8 0,4 -2,7 -6,10 -4,3 -10,5 -17,5 -5,0 -9,0 -12,0l1 -10c3,0 6,0 7,0 5,0 9,-1 11,-2 2,-1 2,-3 2,-4 0,-1 0,-2 0,-3 -1,0 -2,-1 -4,-2 -1,0 -4,0 -8,-1zm116 -24c-6,4 -11,7 -16,9 -5,2 -10,3 -16,3 -9,0 -16,-2 -21,-7 -5,-4 -8,-10 -8,-17 0,-4 1,-8 3,-11 2,-4 4,-7 7,-9 3,-2 7,-3 11,-4 3,-1 7,-2 13,-3 11,-1 20,-3 25,-5 0,-2 0,-3 0,-3 0,-6 -1,-10 -4,-13 -3,-3 -9,-5 -16,-5 -7,0 -12,2 -15,4 -3,2 -6,7 -7,13l-14 -2c1,-6 3,-11 6,-15 3,-4 7,-7 13,-9 5,-2 12,-3 19,-3 7,0 13,1 18,3 4,2 8,4 10,6 2,3 3,6 4,10 1,3 1,7 1,14l0 19c0,13 0,22 1,25 1,4 2,7 3,10l-15 0c-1,-3 -2,-6 -2,-10zm-2 -32c-5,2 -13,4 -23,5 -6,1 -10,2 -13,3 -2,1 -4,3 -5,5 -2,2 -2,4 -2,6 0,4 1,7 4,10 3,3 7,4 13,4 5,0 10,-1 15,-4 4,-2 7,-5 9,-10 2,-3 2,-8 2,-14l0 -5zm-46 -53c-1,-6 1,-10 4,-13 3,-3 7,-5 12,-5 3,0 8,1 13,4 3,2 6,2 8,2 2,0 3,0 4,-1 1,-1 1,-3 2,-5l10 0c0,6 -2,10 -5,13 -2,3 -6,5 -11,5 -3,0 -7,-2 -13,-5 -3,-2 -6,-3 -8,-3 -2,0 -3,1 -4,2 -1,2 -2,3 -2,6l-10 0zm78 53c0,-16 4,-28 13,-35 7,-6 16,-10 27,-10 11,0 21,4 28,12 8,8 11,18 11,32 0,11 -1,19 -4,25 -4,7 -8,12 -15,15 -6,3 -13,5 -20,5 -12,0 -22,-4 -29,-11 -8,-8 -11,-19 -11,-33zm15 0c0,11 2,19 7,24 4,6 10,8 18,8 7,0 13,-2 18,-8 4,-5 7,-14 7,-25 0,-10 -3,-18 -7,-23 -5,-6 -11,-9 -18,-9 -8,0 -14,3 -18,8 -5,6 -7,14 -7,25zm-956 226l0 -118 45 0c7,0 13,1 17,1 6,1 11,3 15,6 4,2 7,6 9,11 3,5 4,10 4,16 0,10 -3,18 -10,25 -6,7 -17,11 -34,11l-30 0 0 48 -16 0zm16 -62l30 0c10,0 17,-2 22,-6 4,-3 6,-9 6,-16 0,-4 -1,-9 -4,-12 -2,-4 -6,-6 -10,-7 -2,-1 -7,-1 -14,-1l-30 0 0 42z"/>
    <path class="fil3" d="M253 1205l0 -13c-6,10 -15,14 -26,14 -5,0 -10,-1 -14,-3 -5,-1 -8,-4 -10,-7 -2,-3 -4,-6 -5,-10 0,-3 0,-8 0,-14l0 -53 14 0 0 48c0,7 0,12 1,15 1,4 3,6 6,9 3,2 6,3 10,3 5,0 9,-1 13,-3 3,-3 6,-6 8,-9 1,-4 2,-10 2,-17l0 -46 14 0 0 86 -13 0zm-31 -96l11 -23 19 0 -18 23 -12 0zm80 96l-13 0 0 -118 14 0 0 42c6,-8 14,-11 24,-11 5,0 10,1 14,3 5,2 9,5 12,9 3,3 5,8 7,13 2,6 3,12 3,18 0,14 -4,26 -11,33 -7,8 -16,12 -26,12 -10,0 -18,-4 -24,-12l0 11zm0 -44c0,11 2,18 4,22 5,8 11,12 19,12 6,0 11,-3 16,-9 5,-5 7,-13 7,-24 0,-11 -2,-19 -7,-25 -4,-5 -9,-8 -16,-8 -6,0 -11,3 -16,9 -5,5 -7,13 -7,23zm78 44l0 -118 14 0 0 118 -14 0zm37 -101l0 -17 14 0 0 17 -14 0zm0 101l0 -86 14 0 0 86 -14 0zm92 -32l14 2c-2,10 -6,18 -12,23 -6,6 -14,8 -24,8 -11,0 -21,-3 -28,-11 -7,-8 -10,-19 -10,-33 0,-9 1,-17 4,-24 3,-7 8,-12 14,-15 6,-4 13,-5 21,-5 9,0 16,2 22,7 6,4 10,11 11,20l-13 2c-2,-6 -4,-10 -8,-13 -3,-3 -7,-5 -12,-5 -7,0 -13,3 -18,8 -4,5 -6,14 -6,25 0,11 2,20 6,25 5,5 10,8 17,8 6,0 11,-2 14,-6 4,-3 7,-8 8,-16zm82 21c-6,4 -11,8 -16,10 -5,1 -10,2 -16,2 -9,0 -16,-2 -21,-6 -5,-5 -8,-11 -8,-18 0,-4 1,-8 3,-11 2,-4 4,-6 7,-9 4,-2 7,-3 11,-4 3,-1 7,-2 13,-2 11,-2 20,-3 25,-5 0,-2 1,-4 1,-4 0,-6 -2,-10 -5,-13 -3,-3 -9,-4 -16,-4 -7,0 -12,1 -15,3 -3,3 -6,7 -7,13l-14 -2c1,-6 3,-11 6,-15 3,-3 7,-6 13,-8 5,-2 12,-3 19,-3 7,0 13,0 18,2 4,2 8,4 10,7 2,2 4,6 4,9 1,3 1,7 1,14l0 19c0,13 0,22 1,25 1,4 2,7 4,11l-16 0c-1,-3 -2,-7 -2,-11zm-1 -32c-6,2 -14,4 -24,5 -6,1 -10,2 -13,3 -2,1 -4,3 -5,5 -2,2 -2,4 -2,7 0,3 1,7 4,9 3,3 7,4 13,4 5,0 10,-1 15,-4 4,-2 7,-5 9,-9 2,-4 2,-9 2,-15l1 -5z"/>
   </g>
   <g>
    <path class="fil4" d="M1087 701l-6 -6c-3,-3 -7,-3 -9,0 -3,2 -3,6 0,9l5 5 -28 28 -47 -47 28 -28 22 22c2,3 7,3 9,0 3,-2 3,-6 0,-9l-26 -27c-1,0 -1,0 -1,0l-18 -18c0,0 0,0 0,0l-16 -16c-3,-3 -6,-4 -9,-4 -3,0 -6,1 -8,4l-1 0 -23 -23c16,-21 29,-46 34,-73l46 0c4,0 7,-3 7,-6 0,-4 -3,-7 -7,-7l-43 0c0,-4 1,-8 1,-12l74 0c3,0 6,-3 6,-7 0,-3 -3,-6 -6,-6l-74 0c0,-5 0,-9 0,-13l42 0c4,0 7,-3 7,-7 0,-3 -3,-6 -7,-6l-44 0c-4,-30 -16,-58 -36,-83 -2,-2 -6,-3 -9,-1 -3,3 -3,7 -1,10 23,29 35,64 35,101 0,90 -73,163 -163,163 -90,0 -164,-73 -164,-163 0,-90 74,-164 164,-164 41,0 80,16 110,43 2,2 7,2 9,0 2,-3 2,-7 0,-10 -33,-29 -75,-46 -119,-46 -97,0 -177,80 -177,177 0,86 62,158 144,173l0 44c0,4 2,7 6,7 4,0 7,-3 7,-7l0 -42c4,1 8,1 12,1l0 72c0,4 3,7 7,7 3,0 6,-3 6,-7l0 -72c5,0 9,0 13,0l0 41c0,4 3,7 6,7 4,0 7,-3 7,-7l0 -43c29,-6 56,-18 79,-36l23 23 -1 1c-2,2 -3,5 -3,8 0,4 1,7 3,9l17 16c0,0 0,0 0,0l18 19c0,0 0,0 0,0l53 52c2,2 5,4 8,4 3,0 6,-2 9,-4l29 -29c2,-3 4,-5 4,-9 0,-3 -2,-6 -4,-8zm-137 -100l23 23 -9 9 -23 -23c3,-3 6,-6 9,-9zm43 80l-9 -10 27 -27 10 9 -28 28zm-2 -57l11 10 -28 28 -10 -11 27 -27z"/>
    <path class="fil4" d="M730 601c26,19 57,30 91,30 83,0 150,-67 150,-150 0,-83 -67,-150 -150,-150 -40,0 -78,15 -106,44 -28,28 -44,66 -45,106 0,37 14,72 38,100 3,3 7,3 10,0 2,-2 2,-6 0,-9 -23,-25 -35,-57 -34,-91 0,-37 14,-71 40,-97 26,-26 60,-40 97,-40 76,0 137,61 137,137 0,76 -61,137 -137,137 -31,0 -59,-10 -83,-28 -3,-2 -7,-1 -9,1 -3,3 -2,7 1,10z"/>
    <path class="fil4" d="M846 364l-46 0c-5,0 -10,5 -10,10l0 23 -42 0c-5,0 -10,5 -10,10l0 70 -9 0c-3,0 -6,3 -6,7 0,4 3,7 6,7l188 0c3,0 6,-3 6,-7 0,-4 -3,-7 -6,-7l-9 0 0 -37c0,-5 -4,-10 -10,-10l-42 0 0 -56c0,-5 -5,-10 -10,-10zm-95 46l39 0 0 67 -39 0 0 -67zm52 -33l40 0 0 100 -40 0 0 -100zm92 66l0 34 -39 0 0 -34 39 0z"/>
    <path class="fil4" d="M896 546l-31 0 -14 -36c0,-2 -3,-4 -6,-4 -2,0 -5,2 -6,4l-19 52 -13 -38c-1,-2 -3,-4 -6,-4 -2,-1 -5,1 -6,3l-13 23 -31 0c-3,0 -6,3 -6,6 0,4 3,7 6,7l35 0c2,0 5,-1 6,-3l7 -14 15 41c1,3 3,5 6,5l0 0c3,0 5,-2 6,-5l20 -52 9 24c1,2 3,4 6,4l35 0c4,0 7,-3 7,-7 0,-3 -3,-6 -7,-6z"/>
   </g>
  </g>
 </g>
</svg>
