<?xml version="1.0" encoding="UTF-8"?>
<!DOCTYPE svg PUBLIC "-//W3C//DTD SVG 1.1//EN" "http://www.w3.org/Graphics/SVG/1.1/DTD/svg11.dtd">
<!-- Creator: CorelDRAW X7 -->
<svg xmlns="http://www.w3.org/2000/svg" xml:space="preserve" width="1189px" height="1773px" version="1.1" style="shape-rendering:geometricPrecision; text-rendering:geometricPrecision; image-rendering:optimizeQuality; fill-rule:evenodd; clip-rule:evenodd"
viewBox="0 0 1189 1773"
 xmlns:xlink="http://www.w3.org/1999/xlink">
 <defs>
  <style type="text/css">
   <![CDATA[
    .str2 {stroke:#008891;stroke-width:2.95276}
    .str0 {stroke:gainsboro;stroke-width:2.36221}
    .str1 {stroke:#008891;stroke-width:0.900001}
    .fil4 {fill:black}
    .fil1 {fill:#00587A}
    .fil3 {fill:#008891}
    .fil8 {fill:#2B4C65}
    .fil6 {fill:#365D7C}
    .fil9 {fill:#966A53}
    .fil7 {fill:#A97962}
    .fil0 {fill:gainsboro}
    .fil5 {fill:#C8C8C9}
    .fil2 {fill:#E1E1E1}
   ]]>
  </style>
 </defs>
 <g id="Camada_x0020_1">
  <metadata id="CorelCorpID_0Corel-Layer"/>
  <g id="_2587355384688">
   <rect class="fil0 str0" transform="matrix(-2.51426E-014 -0.941639 -0.941639 2.51426E-014 1188.94 1772.97)" width="1883" height="1263" rx="5" ry="5"/>
   <path class="fil1" d="M247 364c18,20 30,36 58,43 45,11 144,-17 193,-31 11,-4 25,-7 36,-12 6,-1 14,-4 20,-6l136 -46c53,-17 105,-35 158,-50 27,-8 53,-17 80,-23 67,-16 196,-40 261,-36l0 -5c-47,-4 -123,8 -171,17 -62,11 -98,19 -159,38 -101,31 -201,64 -301,97 -57,19 -181,59 -240,54 -32,-4 -46,-19 -65,-40 -7,-8 -20,-23 -25,-32 -7,-10 -17,-20 -26,-29 -55,-55 -120,-79 -183,-104l-18 -6 -1 4 36 15c44,17 93,36 133,68 16,12 29,24 42,39 9,10 31,41 36,45z"/>
   <path class="fil2" d="M1051 1249c-19,0 -35,12 -41,29l-206 0 -75 -63c16,-9 31,-19 45,-30 50,-39 85,-95 100,-156 2,-7 -3,-15 -11,-17 -8,-2 -16,3 -18,11 -13,54 -44,104 -89,139 -45,37 -100,56 -159,56 -58,0 -113,-19 -158,-56 -45,-35 -76,-85 -89,-139 -2,-8 -10,-13 -18,-11 -8,2 -13,10 -11,17 15,61 50,117 99,156 15,11 30,21 46,30l-75 63 -206 0c-6,-17 -22,-29 -41,-29 -24,0 -43,19 -43,43 0,25 19,44 43,44 19,0 35,-12 41,-29l211 0c4,0 7,-1 10,-3l89 -76c19,7 38,12 58,16l-3 39c-1,8 5,15 13,15 1,0 1,0 1,0 8,0 14,-6 15,-13l2 -38c6,0 11,0 16,0 6,0 12,0 18,-1l10 141 -53 0 2 -33c1,-8 -5,-15 -13,-15 -8,-1 -15,5 -16,13l-5 75c-1,16 5,31 16,43 11,12 26,18 41,19l2 0c16,-1 31,-7 42,-19 11,-11 16,-27 15,-43l-12 -184c19,-3 38,-8 56,-15l90 76c2,2 6,3 9,3l211 0c6,17 22,29 41,29 24,0 43,-19 43,-44 0,-24 -19,-43 -43,-43zm-907 58c-8,0 -14,-7 -14,-15 0,-8 6,-14 14,-14 8,0 15,6 15,14 0,8 -7,15 -15,15zm476 143c-6,6 -13,9 -22,9 -8,0 -15,-3 -21,-9 -5,-6 -8,-13 -7,-21l0 -13 57 0 0 13c1,8 -2,15 -7,21zm431 -143c-8,0 -15,-7 -15,-15 0,-8 7,-14 15,-14 8,0 14,6 14,14 0,8 -6,15 -14,15z"/>
   <path class="fil2" d="M144 676c19,0 35,-12 41,-29l206 0 75 63c-70,37 -124,102 -144,183 -2,8 3,16 10,18 2,0 3,0 4,0 7,0 12,-4 14,-11 29,-114 130,-193 247,-193 70,0 135,28 183,77 6,6 15,6 21,1 6,-6 6,-15 0,-21 -21,-22 -45,-40 -72,-54l75 -63 206 0c6,17 22,29 41,29 24,0 43,-19 43,-44 0,-24 -19,-43 -43,-43 -19,0 -35,12 -41,29l-211 0c-4,0 -7,1 -9,3l-90 76c-28,-11 -57,-17 -87,-19l0 -99c17,-6 29,-22 29,-41 0,-24 -19,-43 -44,-43 -24,0 -43,19 -43,43 0,19 12,35 29,41l0 99c-31,2 -61,8 -89,19l-90 -76c-2,-2 -6,-3 -9,-3l-211 0c-6,-17 -22,-29 -41,-29 -24,0 -43,19 -43,43 0,25 19,44 43,44zm907 -58c8,0 14,6 14,14 0,8 -6,15 -14,15 -8,0 -15,-7 -15,-15 0,-8 7,-14 15,-14zm-453 -94c8,0 15,6 15,14 0,8 -7,15 -15,15 -8,0 -14,-7 -14,-15 0,-8 6,-14 14,-14zm-454 94c8,0 15,6 15,14 0,8 -7,15 -15,15 -8,0 -14,-7 -14,-15 0,-8 6,-14 14,-14z"/>
   <path class="fil1" d="M110 504l0 -70 -25 0 0 -14 67 0 0 14 -25 0 0 70 -17 0zm77 -19l17 3c-2,6 -6,10 -10,13 -5,3 -10,5 -17,5 -11,0 -18,-4 -24,-11 -4,-5 -6,-12 -6,-21 0,-10 3,-18 8,-24 6,-5 12,-8 20,-8 10,0 17,3 22,9 5,6 8,15 7,27l-40 0c0,5 1,9 4,12 2,2 6,4 9,4 3,0 5,-1 7,-2 1,-2 3,-4 3,-7zm1 -16c0,-5 -1,-9 -3,-11 -2,-3 -5,-4 -9,-4 -3,0 -6,1 -8,4 -3,3 -4,6 -4,11l24 0zm85 -8l-16 3c0,-3 -1,-5 -3,-7 -2,-2 -5,-2 -8,-2 -4,0 -7,1 -9,4 -3,3 -4,7 -4,14 0,7 1,12 4,15 2,3 5,5 10,5 3,0 5,-1 7,-3 2,-2 3,-5 4,-9l16 3c-1,7 -5,12 -9,16 -5,4 -11,6 -19,6 -9,0 -16,-3 -22,-9 -5,-5 -7,-13 -7,-23 0,-10 2,-18 8,-24 5,-5 12,-8 21,-8 8,0 13,1 18,5 4,3 7,8 9,14zm64 43l-16 0 0 -31c0,-6 -1,-11 -1,-13 -1,-2 -2,-3 -4,-4 -1,-1 -3,-2 -5,-2 -3,0 -6,1 -8,2 -2,2 -4,4 -4,7 -1,2 -2,7 -2,14l0 27 -16 0 0 -61 15 0 0 9c5,-7 12,-10 20,-10 4,0 7,0 10,2 3,1 5,3 7,5 1,2 2,4 3,6 1,3 1,7 1,11l0 38zm8 -31c0,-5 2,-11 4,-16 3,-5 7,-9 12,-11 5,-3 10,-4 16,-4 9,0 17,3 23,9 6,6 9,13 9,23 0,9 -3,17 -9,23 -6,6 -14,9 -23,9 -6,0 -11,-1 -16,-4 -5,-3 -9,-6 -12,-11 -2,-5 -4,-11 -4,-18zm17 1c0,6 2,11 4,14 3,3 7,5 11,5 4,0 8,-2 11,-5 3,-3 4,-8 4,-14 0,-6 -1,-11 -4,-14 -3,-3 -7,-5 -11,-5 -4,0 -8,2 -11,5 -2,3 -4,8 -4,14zm55 30l0 -84 16 0 0 84 -16 0zm25 -31c0,-5 1,-11 4,-16 3,-5 6,-9 11,-11 5,-3 10,-4 16,-4 10,0 17,3 23,9 6,6 9,13 9,23 0,9 -3,17 -9,23 -6,6 -13,9 -22,9 -6,0 -11,-1 -16,-4 -6,-3 -9,-6 -12,-11 -3,-5 -4,-11 -4,-18zm17 1c0,6 1,11 4,14 3,3 6,5 11,5 4,0 7,-2 10,-5 3,-3 4,-8 4,-14 0,-6 -1,-11 -4,-14 -3,-3 -6,-5 -10,-5 -5,0 -8,2 -11,5 -3,3 -4,8 -4,14zm53 34l19 2c0,3 1,4 2,5 1,1 4,2 7,2 4,0 7,-1 10,-2 1,-1 2,-2 3,-4 0,-2 0,-4 0,-8l1 -9c-5,7 -11,10 -19,10 -8,0 -15,-3 -19,-10 -4,-6 -6,-12 -6,-21 0,-10 2,-18 7,-23 5,-5 11,-8 19,-8 7,0 14,3 19,10l0 -9 15 0 0 55c0,7 -1,13 -2,16 -1,4 -3,6 -5,9 -2,2 -5,3 -9,4 -3,1 -8,2 -13,2 -11,0 -18,-2 -22,-5 -5,-4 -7,-8 -7,-14 0,0 0,-1 0,-2zm15 -36c0,7 1,12 3,15 3,3 6,4 10,4 4,0 7,-1 10,-4 2,-4 4,-8 4,-14 0,-6 -2,-11 -4,-14 -3,-3 -6,-5 -10,-5 -4,0 -7,2 -10,5 -2,3 -3,7 -3,13zm55 -37l0 -15 16 0 0 15 -16 0zm0 69l0 -61 16 0 0 61 -16 0zm40 -42l-14 -3c1,-6 4,-10 8,-13 4,-3 10,-4 18,-4 7,0 13,1 16,2 4,2 6,4 8,7 1,2 2,7 2,14l0 19c0,6 0,10 0,12 1,3 2,5 3,8l-16 0c0,-1 -1,-2 -1,-4 -1,-1 -1,-2 -1,-2 -3,2 -6,4 -9,6 -3,1 -6,2 -10,2 -6,0 -11,-2 -15,-5 -3,-4 -5,-8 -5,-13 0,-4 1,-7 2,-9 2,-3 4,-5 7,-7 3,-1 8,-2 13,-3 8,-2 13,-3 16,-4l0 -2c0,-3 -1,-5 -2,-7 -2,-1 -5,-2 -9,-2 -3,0 -5,1 -7,2 -2,1 -3,3 -4,6zm22 13c-2,1 -6,2 -10,3 -4,0 -7,1 -9,2 -2,2 -3,4 -3,6 0,2 1,4 3,6 1,2 3,2 6,2 3,0 6,-1 8,-2 2,-2 4,-4 4,-6 1,-1 1,-4 1,-8l0 -3zm28 12l17 -2c0,3 2,5 4,7 2,1 5,2 9,2 4,0 7,-1 9,-2 1,-1 2,-3 2,-4 0,-2 0,-3 -1,-4 -1,0 -3,-1 -5,-2 -13,-3 -22,-5 -25,-8 -5,-3 -8,-7 -8,-13 0,-6 3,-10 7,-14 4,-3 10,-5 19,-5 9,0 15,1 19,4 4,3 7,7 8,12l-15 3c-1,-2 -2,-4 -4,-6 -1,-1 -4,-2 -7,-2 -5,0 -8,1 -10,2 -1,1 -2,2 -2,4 0,1 1,2 2,2 2,2 7,3 15,5 9,2 15,4 18,7 4,3 5,7 5,12 0,6 -2,11 -7,15 -4,4 -11,6 -20,6 -9,0 -15,-2 -20,-5 -5,-4 -8,-8 -10,-14zm135 -2l17 3c-2,6 -6,10 -10,13 -5,3 -10,5 -17,5 -11,0 -18,-4 -24,-11 -4,-5 -6,-12 -6,-21 0,-10 3,-18 8,-24 6,-5 12,-8 20,-8 9,0 17,3 22,9 5,6 8,15 7,27l-40 0c0,5 1,9 4,12 2,2 5,4 9,4 3,0 5,-1 7,-2 1,-2 3,-4 3,-7zm1 -16c0,-5 -1,-9 -3,-11 -3,-3 -5,-4 -9,-4 -3,0 -6,1 -8,4 -3,3 -4,6 -4,11l24 0zm-717 167l0 -84 62 0 0 14 -45 0 0 19 42 0 0 14 -42 0 0 23 47 0 0 14 -64 0zm137 0l-15 0 0 -9c-3,3 -6,6 -9,8 -3,2 -7,3 -10,3 -7,0 -13,-3 -18,-9 -5,-6 -8,-14 -8,-24 0,-10 3,-18 7,-23 5,-6 12,-9 19,-9 7,0 13,3 18,9l0 -30 16 0 0 84zm-43 -32c0,7 1,11 2,14 3,5 7,7 11,7 4,0 7,-2 10,-5 2,-3 4,-8 4,-14 0,-7 -1,-12 -4,-15 -3,-4 -6,-5 -10,-5 -4,0 -7,1 -9,4 -3,4 -4,8 -4,14zm95 32l0 -9c-2,3 -5,6 -9,8 -3,2 -7,3 -11,3 -4,0 -8,-1 -11,-3 -3,-2 -6,-5 -7,-8 -2,-3 -2,-8 -2,-13l0 -39 16 0 0 28c0,9 0,14 1,16 0,2 1,3 3,4 1,2 3,2 6,2 3,0 5,-1 7,-2 2,-2 4,-4 5,-6 1,-2 1,-8 1,-16l0 -26 16 0 0 61 -15 0zm81 -43l-16 3c-1,-3 -2,-6 -4,-7 -2,-2 -4,-3 -7,-3 -4,0 -7,2 -10,4 -2,3 -3,8 -3,14 0,8 1,13 3,16 3,3 6,4 10,4 3,0 6,-1 8,-2 2,-2 3,-5 4,-9l16 2c-2,8 -5,13 -10,17 -4,4 -11,6 -19,6 -8,0 -16,-3 -21,-9 -5,-6 -8,-13 -8,-23 0,-11 3,-18 8,-24 5,-6 13,-9 22,-9 7,0 13,2 17,5 5,4 8,8 10,15zm20 1l-15 -3c2,-6 5,-10 9,-13 4,-3 10,-5 18,-5 7,0 12,1 16,3 3,2 6,4 7,7 2,2 3,7 3,14l-1 19c0,5 1,9 1,12 1,2 2,5 3,8l-16 0c0,-1 -1,-3 -2,-5 0,-1 0,-1 0,-2 -3,3 -6,5 -9,6 -3,2 -6,3 -10,3 -6,0 -11,-2 -15,-6 -3,-3 -5,-7 -5,-13 0,-3 1,-6 2,-9 2,-2 4,-5 7,-6 3,-1 7,-3 13,-4 8,-1 13,-3 16,-4l0 -1c0,-4 -1,-6 -3,-7 -1,-1 -4,-2 -8,-2 -3,0 -5,0 -7,2 -2,1 -3,3 -4,6zm22 13c-2,0 -6,1 -10,2 -5,1 -8,2 -9,3 -2,2 -3,3 -3,6 0,2 1,4 2,6 2,1 4,2 7,2 3,0 6,-1 8,-3 2,-1 3,-3 4,-5 0,-2 1,-4 1,-8l0 -3zm87 -14l-16 3c0,-3 -2,-6 -3,-7 -2,-2 -5,-3 -8,-3 -4,0 -7,2 -9,4 -3,3 -4,8 -4,14 0,8 1,13 4,16 2,3 5,4 9,4 3,0 6,-1 8,-2 2,-2 3,-5 4,-9l16 2c-2,8 -5,13 -10,17 -4,4 -10,6 -18,6 -9,0 -16,-3 -22,-9 -5,-6 -8,-13 -8,-23 0,-11 3,-18 8,-24 6,-6 13,-9 22,-9 7,0 13,2 18,5 4,4 7,8 9,15zm-45 65l0 -6c4,0 8,0 11,0 4,0 6,0 8,-1 1,-1 2,-3 2,-4 0,-1 -1,-3 -2,-3 -1,-1 -3,-2 -6,-2 -2,0 -5,0 -7,1l1 -5c3,-2 6,-2 10,-2 5,0 8,1 11,3 2,2 4,5 4,8 0,3 -2,6 -5,8 -3,3 -9,4 -16,4 -5,0 -8,0 -11,-1zm65 -64l-14 -3c1,-6 4,-10 8,-13 4,-3 10,-5 18,-5 7,0 13,1 16,3 4,2 6,4 8,7 1,2 2,7 2,14l0 19c0,5 0,9 0,12 1,2 2,5 3,8l-16 0c0,-1 -1,-3 -1,-5 -1,-1 -1,-1 -1,-2 -3,3 -6,5 -9,6 -3,2 -6,3 -10,3 -6,0 -11,-2 -15,-6 -3,-3 -5,-7 -5,-13 0,-3 1,-6 2,-9 2,-2 4,-5 7,-6 3,-1 8,-3 13,-4 8,-1 13,-3 16,-4l0 -1c0,-4 -1,-6 -2,-7 -2,-1 -5,-2 -9,-2 -3,0 -5,0 -7,2 -2,1 -3,3 -4,6zm22 13c-2,0 -5,1 -10,2 -4,1 -7,2 -9,3 -2,2 -3,3 -3,6 0,2 1,4 3,6 1,1 3,2 6,2 3,0 6,-1 8,-3 2,-1 4,-3 4,-5 1,-2 1,-4 1,-8l0 -3zm-21 -40l-8 0c0,-1 0,-2 0,-2 0,-4 1,-7 3,-9 2,-3 5,-4 8,-4 1,0 2,1 4,1 1,0 3,1 6,2 3,2 5,2 7,2 1,0 2,0 3,-1 1,-1 1,-2 2,-4l7 0c0,6 -1,9 -3,12 -2,2 -4,3 -7,3 -1,0 -3,0 -4,-1 -1,0 -3,-1 -7,-2 -3,-1 -6,-2 -7,-2 -1,0 -2,0 -3,1 -1,1 -1,2 -1,4zm51 38c0,-6 2,-11 4,-16 3,-5 7,-9 12,-12 4,-2 10,-4 16,-4 9,0 17,4 23,10 5,6 8,13 8,22 0,10 -3,17 -9,23 -6,6 -13,10 -22,10 -6,0 -11,-2 -16,-4 -5,-3 -9,-7 -12,-11 -2,-5 -4,-11 -4,-18zm17 1c0,6 1,10 4,13 3,4 7,5 11,5 4,0 8,-1 10,-5 3,-3 5,-7 5,-14 0,-6 -2,-10 -5,-13 -2,-4 -6,-5 -10,-5 -4,0 -8,1 -11,5 -3,3 -4,7 -4,14z"/>
   <g>
    <path class="fil1" d="M133 1262c0,-11 -9,-21 -21,-21 -11,0 -21,10 -21,21 0,12 10,21 21,21 12,0 21,-9 21,-21zm-21 11c-6,0 -10,-5 -10,-11 0,-6 4,-10 10,-10 6,0 11,4 11,10 0,6 -5,11 -11,11z"/>
    <path class="fil1" d="M81 1330l63 0c3,0 5,-2 5,-5l0 -5c0,-21 -16,-37 -37,-37 -20,0 -36,16 -36,37l0 5c0,3 2,5 5,5zm31 -36c15,0 26,11 26,26l-52 0c0,-15 12,-26 26,-26z"/>
    <path class="fil1" d="M312 1294c0,-3 -2,-6 -5,-6l-101 0c-2,0 -5,3 -5,6 0,2 3,5 5,5l101 0c3,0 5,-3 5,-5z"/>
    <path class="fil1" d="M307 1257l-101 0c-20,0 -36,16 -36,37 0,20 16,36 36,36l27 0c3,0 5,-2 5,-5 0,-3 -2,-5 -5,-5l-27 0c-14,0 -26,-12 -26,-26 0,-15 12,-27 26,-27l101 0c14,0 26,12 26,27 0,14 -12,26 -26,26l-27 0c-3,0 -5,2 -5,5 0,3 2,5 5,5l27 0c20,0 36,-16 36,-36 0,-21 -16,-37 -36,-37z"/>
    <path class="fil1" d="M262 1325c0,3 -3,5 -5,5 -3,0 -6,-2 -6,-5 0,-3 3,-5 6,-5 2,0 5,2 5,5z"/>
   </g>
   <path class="fil3" d="M366 1291c0,-9 2,-16 7,-21 5,-5 11,-7 18,-7 5,0 10,1 14,3 4,2 7,6 9,10 2,4 3,9 3,15 0,5 -1,10 -3,14 -2,5 -5,8 -10,10 -4,2 -8,3 -13,3 -5,0 -9,-1 -13,-3 -4,-3 -7,-6 -9,-10 -2,-5 -3,-9 -3,-14zm7 0c0,7 2,12 5,16 4,3 8,5 13,5 6,0 10,-2 14,-5 3,-4 5,-10 5,-16 0,-5 -1,-9 -2,-12 -2,-3 -4,-6 -7,-8 -3,-1 -6,-2 -10,-2 -5,0 -9,1 -13,5 -3,3 -5,9 -5,17zm52 26l0 -39 6 0 0 6c2,-2 3,-4 5,-5 1,-1 2,-2 4,-2 2,0 4,1 7,3l-3 6c-1,-1 -3,-2 -4,-2 -2,0 -3,1 -4,2 -2,1 -2,2 -3,3 -1,3 -1,5 -1,8l0 20 -7 0zm24 4l7 1c0,2 1,3 2,4 2,1 4,2 7,2 3,0 5,-1 7,-2 2,-1 3,-3 3,-5 1,-2 1,-4 1,-9 -3,4 -7,5 -11,5 -5,0 -10,-1 -13,-5 -2,-4 -4,-9 -4,-14 0,-4 1,-7 2,-11 1,-3 3,-5 6,-7 3,-2 6,-3 9,-3 5,0 8,2 11,6l0 -5 7 0 0 34c0,6 -1,11 -2,13 -2,3 -4,5 -6,6 -3,2 -6,2 -10,2 -5,0 -9,-1 -11,-3 -3,-2 -5,-5 -5,-9zm6 -24c0,5 1,9 3,11 2,3 4,4 8,4 3,0 5,-1 7,-4 2,-2 3,-6 3,-11 0,-4 -1,-8 -3,-10 -2,-3 -5,-4 -8,-4 -2,0 -5,1 -7,4 -2,2 -3,6 -3,10zm63 16c-2,2 -5,3 -7,4 -2,1 -5,1 -7,1 -5,0 -8,-1 -10,-3 -3,-2 -4,-5 -4,-8 0,-2 1,-4 2,-5 0,-2 2,-3 3,-4 1,-1 3,-2 5,-2 1,0 3,-1 6,-1 5,-1 9,-1 12,-2 0,-1 0,-2 0,-2 0,-3 -1,-5 -2,-6 -2,-1 -5,-2 -8,-2 -3,0 -5,1 -7,2 -1,1 -2,3 -3,5l-7 0c1,-3 2,-5 3,-7 2,-2 4,-3 6,-4 3,-1 6,-2 9,-2 3,0 6,1 8,2 2,0 4,1 5,3 1,1 2,2 2,4 0,1 0,3 0,6l0 9c0,6 0,10 1,12 0,1 1,3 1,4l-7 0c0,-1 -1,-3 -1,-4zm0 -15c-3,1 -6,2 -11,2 -3,1 -5,1 -6,2 -1,0 -2,1 -3,2 0,1 -1,2 -1,3 0,2 1,3 2,4 2,1 4,2 6,2 3,0 5,0 7,-2 2,-1 4,-2 4,-4 1,-2 2,-4 2,-7l0 -2zm16 19l0 -39 6 0 0 6c3,-4 7,-7 13,-7 2,0 4,1 6,2 2,1 4,2 5,3 1,1 1,3 2,5 0,1 0,3 0,6l0 24 -6 0 0 -23c0,-3 -1,-5 -1,-6 -1,-2 -2,-3 -3,-4 -1,0 -3,-1 -5,-1 -2,0 -5,1 -7,3 -2,2 -3,5 -3,10l0 21 -7 0zm42 -46l0 -8 7 0 0 8 -7 0zm0 46l0 -39 7 0 0 39 -7 0zm14 0l0 -5 24 -29c-2,1 -5,1 -7,1l-16 0 0 -6 32 0 0 5 -21 24 -4 5c3,0 6,0 8,0l18 0 0 5 -34 0zm66 -4c-2,2 -4,3 -7,4 -2,1 -4,1 -7,1 -4,0 -8,-1 -10,-3 -2,-2 -3,-5 -3,-8 0,-2 0,-4 1,-5 1,-2 2,-3 3,-4 2,-1 3,-2 5,-2 1,0 3,-1 6,-1 5,-1 9,-1 12,-2 0,-1 0,-2 0,-2 0,-3 -1,-5 -2,-6 -2,-1 -4,-2 -8,-2 -3,0 -5,1 -6,2 -2,1 -3,3 -4,5l-6 0c0,-3 1,-5 3,-7 1,-2 3,-3 6,-4 2,-1 5,-2 8,-2 4,0 7,1 9,2 2,0 3,1 4,3 1,1 2,2 2,4 1,1 1,3 1,6l0 9c0,6 0,10 0,12 0,1 1,3 2,4l-7 0c-1,-1 -1,-3 -2,-4zm0 -15c-3,1 -6,2 -11,2 -3,1 -5,1 -6,2 -1,0 -2,1 -2,2 -1,1 -1,2 -1,3 0,2 0,3 2,4 1,1 3,2 6,2 2,0 4,0 6,-2 2,-1 4,-2 5,-4 1,-2 1,-4 1,-7l0 -2zm42 19l0 -5c-2,4 -6,6 -11,6 -3,0 -6,-1 -8,-2 -3,-2 -5,-4 -7,-7 -1,-4 -2,-7 -2,-11 0,-4 1,-8 2,-11 2,-3 4,-5 6,-7 3,-2 6,-3 9,-3 2,0 4,1 6,2 2,1 3,2 5,4l0 -20 6 0 0 54 -6 0zm-21 -19c0,5 1,9 3,11 2,3 5,4 8,4 3,0 5,-1 7,-4 2,-2 3,-6 3,-11 0,-5 -1,-9 -3,-11 -2,-3 -4,-4 -8,-4 -2,0 -5,1 -7,4 -2,2 -3,6 -3,11zm35 0c0,-7 2,-13 6,-16 4,-3 8,-5 13,-5 5,0 9,2 13,6 3,3 5,8 5,14 0,5 -1,9 -2,12 -2,3 -4,5 -7,7 -3,1 -6,2 -9,2 -6,0 -10,-1 -14,-5 -3,-3 -5,-9 -5,-15zm7 0c0,5 1,9 3,11 3,3 5,4 9,4 3,0 6,-1 8,-4 2,-2 3,-6 3,-11 0,-5 -1,-9 -3,-11 -2,-3 -5,-4 -8,-4 -4,0 -6,1 -9,4 -2,2 -3,6 -3,11zm38 19l0 -39 6 0 0 6c1,-2 2,-4 4,-5 1,-1 2,-2 4,-2 2,0 5,1 7,3l-2 6c-2,-1 -4,-2 -5,-2 -2,0 -3,1 -4,2 -1,1 -2,2 -3,3 0,3 -1,5 -1,8l0 20 -6 0zm51 -12l7 1c-1,4 -3,7 -6,9 -3,2 -6,3 -11,3 -6,0 -10,-1 -13,-5 -4,-4 -5,-8 -5,-15 0,-6 1,-11 5,-15 3,-4 7,-6 13,-6 5,0 9,2 13,6 3,3 5,8 5,15 0,0 0,1 0,2l-30 0c1,4 2,7 4,9 2,3 5,4 8,4 3,0 5,-1 6,-2 2,-1 3,-3 4,-6zm-21 -11l22 0c-1,-3 -2,-6 -3,-7 -2,-3 -5,-4 -8,-4 -3,0 -6,1 -8,3 -2,2 -3,5 -3,8zm34 12l7 -1c0,2 1,4 3,6 1,1 4,2 7,2 3,0 5,-1 7,-2 1,-1 2,-3 2,-4 0,-2 -1,-3 -2,-4 -1,0 -3,-1 -7,-2 -5,-1 -8,-2 -10,-3 -2,-1 -3,-2 -4,-4 -1,-2 -2,-3 -2,-5 0,-2 1,-4 1,-5 1,-2 2,-3 4,-4 1,-1 2,-1 4,-2 2,0 4,-1 6,-1 3,0 5,1 8,2 2,1 4,2 5,3 1,2 2,4 2,6l-6 1c-1,-2 -2,-3 -3,-4 -1,-2 -3,-2 -6,-2 -3,0 -5,0 -6,1 -2,1 -2,3 -2,4 0,1 0,2 0,2 1,1 2,2 3,2 1,0 3,1 6,2 4,1 8,2 10,3 1,1 3,2 4,3 1,2 2,4 2,6 0,2 -1,4 -2,6 -2,2 -4,4 -6,5 -2,1 -5,1 -8,1 -5,0 -9,-1 -12,-3 -2,-2 -4,-5 -5,-9z"/>
   <path class="fil1" d="M74 1609l0 -57 42 0 0 10 -30 0 0 12 28 0 0 10 -28 0 0 16 32 0 0 9 -44 0zm93 0l-11 0 0 -21c0,-4 -1,-7 -1,-8 -1,-2 -1,-3 -2,-4 -1,0 -3,-1 -4,-1 -2,0 -4,1 -5,2 -2,1 -3,2 -4,4 0,2 0,5 0,10l0 18 -11 0 0 -41 10 0 0 6c3,-5 8,-7 14,-7 2,0 4,0 6,1 2,1 4,2 5,4 1,1 2,3 2,4 0,2 1,4 1,8l0 25zm8 -47l0 -10 11 0 0 10 -11 0zm0 47l0 -41 11 0 0 41 -11 0zm43 -13l11 2c-1,4 -4,7 -7,9 -3,2 -6,3 -11,3 -7,0 -12,-2 -16,-7 -3,-4 -4,-8 -4,-14 0,-7 2,-12 5,-16 4,-4 8,-6 14,-6 6,0 11,2 15,6 3,4 5,10 5,19l-28 0c0,3 1,6 3,7 2,2 4,3 6,3 2,0 3,0 4,-1 2,-1 3,-3 3,-5zm1 -11c0,-3 -1,-5 -3,-7 -1,-2 -3,-3 -5,-3 -3,0 -5,1 -6,3 -2,2 -3,4 -3,7l17 0zm21 24l0 -57 11 0 0 57 -11 0zm80 0l-10 0 0 -6c-2,3 -4,4 -6,6 -3,1 -5,1 -7,1 -5,0 -9,-2 -13,-5 -3,-4 -5,-10 -5,-16 0,-8 2,-13 5,-17 4,-3 8,-5 13,-5 4,0 8,2 12,6l0 -21 11 0 0 57zm-30 -21c0,4 1,7 2,9 2,3 5,5 8,5 2,0 4,-1 6,-4 2,-2 3,-5 3,-9 0,-5 -1,-8 -3,-10 -2,-3 -4,-4 -6,-4 -3,0 -5,1 -7,3 -2,3 -3,6 -3,10zm35 0c0,-4 1,-7 3,-11 2,-3 4,-6 7,-7 4,-2 7,-3 11,-3 7,0 12,2 16,6 4,4 6,9 6,16 0,6 -2,11 -6,15 -4,4 -9,6 -15,6 -4,0 -8,-1 -11,-2 -4,-2 -6,-4 -8,-8 -2,-3 -3,-7 -3,-12zm11 1c0,4 1,7 3,9 2,2 5,3 8,3 2,0 5,-1 7,-3 2,-2 3,-5 3,-9 0,-4 -1,-8 -3,-10 -2,-2 -5,-3 -7,-3 -3,0 -6,1 -8,3 -2,2 -3,6 -3,10zm60 20l0 -57 42 0 0 10 -30 0 0 12 28 0 0 10 -28 0 0 16 31 0 0 9 -43 0zm51 -11l11 -2c0,2 1,4 3,5 1,1 3,1 6,1 3,0 5,0 6,-1 1,-1 2,-2 2,-3 0,-1 -1,-2 -1,-2 -1,-1 -2,-1 -4,-2 -9,-2 -14,-3 -17,-5 -3,-2 -5,-5 -5,-9 0,-4 2,-7 5,-9 2,-3 7,-4 13,-4 5,0 10,1 12,3 3,2 5,4 6,8l-10 2c-1,-2 -1,-3 -3,-4 -1,-1 -3,-1 -5,-1 -3,0 -5,0 -6,1 -1,1 -2,1 -2,2 0,1 1,2 2,2 1,1 4,2 10,3 6,2 10,3 12,5 2,2 4,5 4,8 0,4 -2,8 -5,10 -3,3 -8,4 -14,4 -6,0 -10,-1 -14,-3 -3,-2 -5,-5 -6,-9zm45 -30l10 0 0 6c1,-2 3,-4 6,-5 2,-1 4,-2 7,-2 5,0 9,2 12,6 4,3 5,9 5,15 0,7 -1,13 -5,17 -3,3 -7,5 -12,5 -2,0 -4,0 -6,-1 -2,-1 -4,-2 -6,-5l0 21 -11 0 0 -57zm11 20c0,5 1,8 2,10 2,3 5,4 7,4 3,0 5,-1 7,-3 1,-2 2,-6 2,-11 0,-4 -1,-7 -3,-9 -1,-2 -3,-3 -6,-3 -3,0 -5,1 -7,3 -1,2 -2,5 -2,9zm35 21l0 -41 11 0 0 41 -11 0zm-2 -46l6 -12 12 0 -11 12 -7 0zm36 46l-10 0 0 -41 10 0 0 6c1,-3 3,-5 4,-6 2,-1 3,-1 5,-1 3,0 5,1 7,2l-3 10c-2,-2 -4,-2 -5,-2 -2,0 -3,0 -4,1 -1,1 -2,2 -3,5 0,2 -1,6 -1,14l0 12zm18 -47l0 -10 11 0 0 10 -11 0zm0 47l0 -41 11 0 0 41 -11 0zm38 -41l0 9 -7 0 0 16c0,4 0,6 0,6 0,1 1,1 1,2 1,0 1,0 2,0 1,0 2,0 4,-1l1 9c-2,1 -5,1 -8,1 -2,0 -4,0 -6,-1 -1,0 -2,-1 -3,-2 -1,-1 -1,-3 -2,-5 0,-1 0,-3 0,-7l0 -18 -5 0 0 -9 5 0 0 -8 11 -7 0 15 7 0zm3 20c0,-4 1,-7 2,-11 2,-3 5,-6 8,-7 3,-2 7,-3 11,-3 6,0 11,2 15,6 4,4 6,9 6,16 0,6 -2,11 -6,15 -4,4 -9,6 -15,6 -4,0 -7,-1 -11,-2 -3,-2 -6,-4 -8,-8 -1,-3 -2,-7 -2,-12zm11 1c0,4 1,7 3,9 2,2 4,3 7,3 3,0 5,-1 7,-3 2,-2 3,-5 3,-9 0,-4 -1,-8 -3,-10 -2,-2 -4,-3 -7,-3 -3,0 -5,1 -7,3 -2,2 -3,6 -3,10zm57 2l11 -1c0,3 2,6 4,8 2,2 5,3 8,3 4,0 7,-1 9,-3 1,-1 2,-3 2,-5 0,-2 0,-3 -1,-4 -1,-1 -2,-1 -4,-2 -1,-1 -4,-1 -9,-3 -6,-1 -11,-3 -13,-5 -4,-4 -5,-7 -5,-12 0,-3 1,-6 2,-8 2,-3 4,-5 7,-6 3,-1 7,-2 11,-2 8,0 13,2 17,5 3,3 5,7 5,13l-11 0c-1,-3 -2,-5 -3,-6 -2,-2 -4,-2 -8,-2 -3,0 -6,0 -7,2 -2,1 -2,2 -2,3 0,2 0,3 1,4 2,1 5,2 11,4 6,1 10,2 12,4 3,1 5,3 7,6 1,2 2,5 2,9 0,3 -1,6 -3,9 -2,3 -4,5 -7,6 -4,2 -8,2 -13,2 -7,0 -13,-1 -17,-5 -3,-3 -6,-8 -6,-14zm65 -10l-9 -2c1,-4 3,-7 5,-9 3,-2 7,-3 13,-3 4,0 8,1 10,2 3,1 5,2 5,4 1,2 2,5 2,10l0 13c0,3 0,6 0,8 1,1 1,3 2,5l-11 0c0,0 0,-1 -1,-3 0,-1 0,-1 0,-1 -2,2 -4,3 -6,4 -2,1 -4,1 -7,1 -4,0 -7,-1 -10,-3 -2,-2 -4,-5 -4,-9 0,-2 1,-4 2,-6 1,-2 3,-3 5,-4 2,-1 5,-2 9,-3 5,-1 8,-2 10,-3l0 -1c0,-2 0,-3 -1,-4 -1,-1 -3,-2 -6,-2 -2,0 -4,1 -5,2 -1,0 -2,2 -3,4zm15 9c-1,0 -3,1 -6,1 -4,1 -6,1 -6,2 -2,1 -3,2 -3,4 0,1 1,3 2,4 1,1 3,2 4,2 2,0 4,-1 6,-2 1,-1 2,-3 3,-4 0,-1 0,-3 0,-5l0 -2zm61 19l-11 0 0 -21c0,-4 0,-7 -1,-8 0,-2 -1,-3 -2,-4 -1,0 -2,-1 -4,-1 -2,0 -3,1 -5,2 -1,1 -2,2 -3,4 -1,2 -1,5 -1,10l0 18 -11 0 0 -41 10 0 0 6c4,-5 9,-7 14,-7 2,0 5,0 7,1 2,1 3,2 4,4 1,1 2,3 2,4 1,2 1,4 1,8l0 25zm27 -41l0 9 -7 0 0 16c0,4 0,6 0,6 0,1 0,1 1,2 0,0 1,0 2,0 1,0 2,0 4,-1l1 9c-2,1 -5,1 -8,1 -2,0 -4,0 -6,-1 -1,0 -3,-1 -3,-2 -1,-1 -2,-3 -2,-5 0,-1 0,-3 0,-7l0 -18 -5 0 0 -9 5 0 0 -8 11 -7 0 15 7 0zm3 20c0,-4 0,-7 2,-11 2,-3 5,-6 8,-7 3,-2 7,-3 11,-3 6,0 11,2 15,6 4,4 6,9 6,16 0,6 -2,11 -6,15 -4,4 -9,6 -15,6 -4,0 -7,-1 -11,-2 -3,-2 -6,-4 -8,-8 -2,-3 -2,-7 -2,-12zm11 1c0,4 1,7 3,9 2,2 4,3 7,3 3,0 5,-1 7,-3 2,-2 3,-5 3,-9 0,-4 -1,-8 -3,-10 -2,-2 -4,-3 -7,-3 -3,0 -5,1 -7,3 -2,2 -3,6 -3,10z"/>
   <path class="fil1" d="M129 1705l-12 0 -5 -13 -23 0 -5 13 -12 0 22 -57 12 0 23 57zm-21 -23l-8 -21 -8 21 16 0zm62 23l-10 0 0 -6c-2,2 -4,4 -6,5 -2,1 -4,2 -7,2 -5,0 -9,-2 -12,-6 -3,-4 -5,-9 -5,-16 0,-7 1,-12 5,-16 3,-3 7,-5 12,-5 5,0 9,2 12,5l0 -20 11 0 0 57zm-29 -22c0,5 1,8 2,10 2,3 4,4 7,4 3,0 5,-1 7,-3 1,-2 2,-5 2,-9 0,-5 0,-9 -2,-11 -2,-2 -4,-3 -7,-3 -2,0 -5,1 -6,3 -2,2 -3,5 -3,9zm37 -25l0 -10 11 0 0 10 -11 0zm0 47l0 -41 11 0 0 41 -11 0zm20 0l0 -57 11 0 0 57 -11 0zm15 -12l11 -1c1,2 1,3 3,4 1,2 3,2 6,2 3,0 5,0 6,-1 1,-1 2,-2 2,-3 0,-1 -1,-2 -1,-2 -1,-1 -2,-1 -4,-2 -9,-2 -14,-4 -16,-5 -4,-2 -5,-6 -5,-10 0,-3 1,-6 4,-9 3,-2 7,-3 13,-3 6,0 10,1 13,2 2,2 4,5 5,9l-10 2c0,-2 -1,-3 -2,-4 -2,-1 -3,-1 -6,-1 -3,0 -5,0 -6,1 -1,0 -1,1 -1,2 0,1 0,1 1,2 1,1 4,2 10,3 6,1 10,3 12,5 3,2 4,5 4,8 0,4 -2,7 -5,10 -3,3 -8,4 -14,4 -6,0 -10,-1 -13,-3 -4,-3 -6,-6 -7,-10zm43 -9c0,-4 1,-7 3,-11 1,-3 4,-6 7,-8 4,-1 7,-2 11,-2 7,0 12,2 16,6 4,4 6,9 6,15 0,7 -2,12 -6,16 -4,4 -10,6 -16,6 -3,0 -7,-1 -11,-3 -3,-1 -6,-4 -7,-7 -2,-3 -3,-7 -3,-12zm11 0c0,4 1,8 3,10 2,2 4,3 7,3 3,0 6,-1 7,-3 2,-2 3,-6 3,-10 0,-4 -1,-7 -3,-9 -1,-2 -4,-3 -7,-3 -3,0 -5,1 -7,3 -2,2 -3,5 -3,9zm75 21l-11 0 0 -21c0,-5 0,-7 0,-9 -1,-1 -2,-2 -3,-3 -1,-1 -2,-1 -4,-1 -2,0 -3,1 -5,2 -1,1 -2,2 -3,4 0,1 -1,5 -1,9l0 19 -11 0 0 -41 10 0 0 6c4,-5 9,-7 14,-7 3,0 5,0 7,1 2,1 3,2 4,3 1,2 2,3 3,5 0,2 0,4 0,7l0 26zm57 -21l0 -10 25 0 0 23c-2,3 -6,5 -10,6 -5,2 -10,3 -14,3 -6,0 -11,-1 -16,-4 -4,-2 -8,-6 -10,-11 -2,-4 -3,-9 -3,-15 0,-6 1,-11 3,-16 3,-4 7,-8 11,-10 4,-2 9,-3 14,-3 7,0 13,1 17,4 4,3 6,7 7,13l-11 2c-1,-3 -2,-5 -5,-7 -2,-1 -5,-2 -8,-2 -5,0 -9,1 -12,5 -3,3 -4,7 -4,14 0,7 1,12 4,15 3,3 7,5 12,5 2,0 5,0 7,-1 3,-1 5,-2 7,-4l0 -7 -14 0zm35 0c0,-4 1,-7 3,-11 1,-3 4,-6 7,-8 3,-1 7,-2 11,-2 6,0 12,2 16,6 4,4 6,9 6,15 0,7 -2,12 -7,16 -4,4 -9,6 -15,6 -4,0 -7,-1 -11,-3 -3,-1 -6,-4 -7,-7 -2,-3 -3,-7 -3,-12zm11 0c0,4 1,8 3,10 2,2 4,3 7,3 3,0 5,-1 7,-3 2,-2 3,-6 3,-10 0,-4 -1,-7 -3,-9 -2,-2 -4,-3 -7,-3 -3,0 -5,1 -7,3 -2,2 -3,5 -3,9zm37 -20l10 0 0 5c3,-4 8,-6 13,-6 2,0 4,0 6,1 2,1 4,3 5,5 2,-2 4,-4 6,-5 2,-1 4,-1 7,-1 3,0 5,0 8,2 2,1 3,3 4,5 1,2 1,5 1,9l0 26 -11 0 0 -24c0,-4 0,-6 -1,-8 -1,-1 -2,-2 -4,-2 -2,0 -3,1 -5,1 -1,1 -2,3 -3,5 0,1 -1,4 -1,8l0 20 -10 0 0 -23c0,-4 -1,-6 -1,-7 0,-2 -1,-3 -2,-3 -1,-1 -2,-1 -3,-1 -2,0 -3,1 -5,1 -1,1 -2,3 -3,4 0,2 0,5 0,9l0 20 -11 0 0 -41zm92 28l11 2c-1,4 -3,7 -6,9 -3,2 -7,3 -12,3 -7,0 -12,-2 -16,-7 -2,-4 -4,-9 -4,-14 0,-7 2,-13 6,-16 3,-4 8,-6 13,-6 6,0 11,2 15,6 3,4 5,10 5,19l-27 0c0,3 0,5 2,7 2,2 4,3 6,3 2,0 4,-1 5,-2 1,-1 2,-2 2,-4zm1 -11c0,-3 -1,-6 -2,-7 -2,-2 -4,-3 -6,-3 -2,0 -4,1 -6,3 -2,1 -2,4 -2,7l16 0zm18 12l11 -1c0,2 1,3 2,4 2,2 4,2 6,2 3,0 5,0 7,-1 1,-1 1,-2 1,-3 0,-1 0,-2 -1,-2 0,-1 -1,-1 -3,-2 -9,-2 -15,-4 -17,-5 -3,-2 -5,-6 -5,-10 0,-3 1,-6 4,-9 3,-2 8,-3 14,-3 5,0 9,1 12,2 3,2 5,5 6,9l-10 2c-1,-2 -2,-3 -3,-4 -1,-1 -3,-1 -5,-1 -3,0 -5,0 -7,1 0,0 -1,1 -1,2 0,1 1,1 1,2 1,1 5,2 11,3 5,1 10,3 12,5 2,2 3,5 3,8 0,4 -1,7 -4,10 -4,3 -8,4 -15,4 -5,0 -10,-1 -13,-3 -3,-3 -5,-6 -6,-10zm105 12l-10 0 0 -6c-2,2 -4,4 -6,5 -2,1 -5,2 -7,2 -5,0 -9,-2 -12,-6 -4,-4 -5,-9 -5,-16 0,-7 1,-12 5,-16 3,-3 7,-5 12,-5 5,0 9,2 12,5l0 -20 11 0 0 57zm-29 -22c0,5 1,8 2,10 2,3 4,4 7,4 3,0 5,-1 7,-3 1,-2 2,-5 2,-9 0,-5 -1,-9 -2,-11 -2,-2 -4,-3 -7,-3 -3,0 -5,1 -6,3 -2,2 -3,5 -3,9zm35 1c0,-4 1,-7 2,-11 2,-3 5,-6 8,-8 3,-1 7,-2 11,-2 6,0 11,2 15,6 4,4 6,9 6,15 0,7 -2,12 -6,16 -4,4 -9,6 -15,6 -4,0 -7,-1 -11,-3 -3,-1 -6,-4 -8,-7 -1,-3 -2,-7 -2,-12zm11 0c0,4 1,8 3,10 2,2 4,3 7,3 3,0 5,-1 7,-3 2,-2 3,-6 3,-10 0,-4 -1,-7 -3,-9 -2,-2 -4,-3 -7,-3 -3,0 -5,1 -7,3 -2,2 -3,5 -3,9zm33 9l11 -1c1,2 2,3 3,4 2,2 4,2 6,2 3,0 5,0 7,-1 0,-1 1,-2 1,-3 0,-1 0,-2 -1,-2 0,-1 -2,-1 -3,-2 -9,-2 -15,-4 -17,-5 -4,-2 -5,-6 -5,-10 0,-3 1,-6 4,-9 3,-2 7,-3 13,-3 6,0 10,1 13,2 3,2 5,5 6,9l-11 2c0,-2 -1,-3 -2,-4 -2,-1 -3,-1 -6,-1 -2,0 -5,0 -6,1 -1,0 -1,1 -1,2 0,1 0,1 1,2 1,1 4,2 10,3 6,1 10,3 13,5 2,2 3,5 3,8 0,4 -2,7 -5,10 -3,3 -8,4 -14,4 -6,0 -10,-1 -13,-3 -4,-3 -6,-6 -7,-10zm65 -7l11 -1c1,4 2,7 4,9 2,1 5,2 9,2 3,0 6,0 8,-2 2,-2 3,-3 3,-6 0,-1 -1,-2 -1,-3 -1,-1 -3,-2 -5,-2 -1,-1 -4,-2 -9,-3 -6,-2 -10,-3 -13,-6 -3,-3 -5,-7 -5,-11 0,-3 1,-6 3,-8 1,-3 4,-5 7,-6 3,-2 6,-2 11,-2 7,0 12,1 16,5 4,3 6,7 6,12l-12 1c0,-3 -1,-5 -3,-7 -2,-1 -4,-2 -7,-2 -4,0 -6,1 -8,2 -1,1 -2,3 -2,4 0,1 1,3 2,3 1,2 5,3 10,4 6,2 10,3 13,4 2,2 5,4 6,6 2,3 2,6 2,9 0,4 -1,7 -2,10 -2,2 -5,5 -8,6 -3,1 -8,2 -13,2 -7,0 -12,-2 -16,-5 -4,-3 -6,-8 -7,-15zm66 -10l-10 -1c1,-4 3,-7 6,-9 2,-2 7,-3 12,-3 5,0 8,0 11,1 2,2 4,3 5,5 1,2 1,5 1,10l0 12c0,4 0,7 1,8 0,2 1,4 2,6l-11 0c0,-1 -1,-2 -1,-3 0,-1 -1,-1 -1,-1 -2,1 -4,3 -6,4 -2,1 -4,1 -6,1 -5,0 -8,-1 -10,-3 -3,-3 -4,-6 -4,-9 0,-3 0,-5 2,-6 1,-2 2,-4 4,-5 2,-1 5,-1 9,-2 5,-1 9,-2 11,-3l0 -1c0,-2 -1,-4 -2,-5 -1,0 -3,-1 -6,-1 -2,0 -3,0 -4,1 -2,1 -2,2 -3,4zm15 9c-2,1 -4,1 -7,2 -3,1 -5,1 -6,2 -2,1 -2,2 -2,4 0,1 0,3 1,4 2,1 3,1 5,1 2,0 4,0 6,-2 1,-1 2,-2 2,-3 0,-1 1,-3 1,-6l0 -2zm60 20l-11 0 0 -21c0,-5 0,-7 0,-9 -1,-1 -1,-2 -3,-3 -1,-1 -2,-1 -3,-1 -2,0 -4,1 -6,2 -1,1 -2,2 -3,4 0,1 -1,5 -1,9l0 19 -10 0 0 -41 10 0 0 6c3,-5 8,-7 13,-7 3,0 5,0 7,1 2,1 4,2 5,3 1,2 1,3 2,5 0,2 0,4 0,7l0 26zm28 -41l0 8 -8 0 0 17c0,3 0,5 0,6 0,1 1,1 1,1 1,1 1,1 2,1 1,0 3,0 5,-1l1 8c-3,1 -6,2 -9,2 -2,0 -4,0 -5,-1 -2,-1 -3,-1 -4,-3 -1,-1 -1,-2 -1,-4 -1,-1 -1,-4 -1,-8l0 -18 -5 0 0 -8 5 0 0 -9 11 -6 0 15 8 0zm2 20c0,-4 1,-7 3,-11 1,-3 4,-6 7,-8 4,-1 7,-2 11,-2 7,0 12,2 16,6 4,4 6,9 6,15 0,7 -2,12 -6,16 -4,4 -10,6 -16,6 -3,0 -7,-1 -11,-3 -3,-1 -6,-4 -7,-7 -2,-3 -3,-7 -3,-12zm11 0c0,4 1,8 3,10 2,2 4,3 7,3 3,0 6,-1 7,-3 2,-2 3,-6 3,-10 0,-4 -1,-7 -3,-9 -1,-2 -4,-3 -7,-3 -3,0 -5,1 -7,3 -2,2 -3,5 -3,9zm34 9l11 -1c0,2 1,3 2,4 2,2 4,2 6,2 3,0 5,0 7,-1 1,-1 1,-2 1,-3 0,-1 0,-2 -1,-2 0,-1 -1,-1 -3,-2 -9,-2 -15,-4 -17,-5 -3,-2 -5,-6 -5,-10 0,-3 2,-6 4,-9 3,-2 8,-3 14,-3 5,0 9,1 12,2 3,2 5,5 6,9l-10 2c-1,-2 -2,-3 -3,-4 -1,-1 -3,-1 -5,-1 -3,0 -5,0 -7,1 0,0 -1,1 -1,2 0,1 1,1 1,2 1,1 5,2 11,3 5,1 10,3 12,5 2,2 3,5 3,8 0,4 -1,7 -4,10 -4,3 -8,4 -15,4 -5,0 -10,-1 -13,-3 -3,-3 -5,-6 -6,-10z"/>
   <path class="fil1" d="M75 1461l21 0c5,0 8,0 11,1 3,1 6,3 8,5 3,3 4,6 6,9 1,4 2,8 2,14 0,5 -1,9 -2,12 -2,4 -4,8 -6,10 -2,2 -5,4 -8,5 -3,0 -6,1 -11,1l-21 0 0 -57zm11 9l0 38 9 0c3,0 5,0 7,0 2,-1 3,-2 5,-3 1,-1 2,-3 3,-5 0,-3 1,-6 1,-11 0,-4 -1,-8 -1,-10 -1,-2 -2,-4 -4,-5 -1,-2 -3,-3 -5,-3 -2,0 -5,-1 -9,-1l-6 0zm56 19l-10 -2c1,-4 3,-7 6,-9 3,-1 7,-2 12,-2 5,0 9,0 11,1 2,1 4,3 5,5 1,1 2,5 2,9l-1 13c0,4 1,7 1,8 0,2 1,4 2,6l-11 0c0,-1 -1,-2 -1,-3 0,-1 0,-1 0,-2 -2,2 -4,4 -6,5 -3,0 -5,1 -7,1 -4,0 -8,-1 -10,-4 -3,-2 -4,-5 -4,-8 0,-3 1,-5 2,-7 1,-1 2,-3 4,-4 2,-1 5,-2 9,-2 5,-1 9,-2 11,-3l0 -1c0,-2 -1,-4 -2,-5 -1,-1 -3,-1 -6,-1 -2,0 -3,0 -4,1 -1,1 -2,2 -3,4zm15 9c-2,1 -4,1 -7,2 -3,0 -5,1 -6,2 -1,1 -2,2 -2,3 0,2 1,3 2,4 1,2 2,2 4,2 2,0 4,-1 6,-2 1,-1 2,-2 2,-3 1,-1 1,-3 1,-6l0 -2zm61 20l-11 0 0 -21c0,-5 -1,-8 -1,-9 0,-1 -1,-2 -2,-3 -1,-1 -3,-1 -4,-1 -2,0 -4,0 -5,1 -2,2 -3,3 -3,5 -1,1 -1,4 -1,9l0 19 -11 0 0 -42 10 0 0 7c4,-5 8,-7 14,-7 2,0 4,0 6,1 2,1 4,2 5,3 1,2 2,3 2,5 0,1 1,4 1,7l0 26zm8 -47l0 -10 11 0 0 10 -11 0zm0 47l0 -42 11 0 0 42 -11 0zm43 -13l11 2c-1,4 -3,7 -6,9 -4,2 -7,3 -12,3 -7,0 -12,-2 -16,-7 -3,-4 -4,-9 -4,-14 0,-7 2,-13 5,-17 4,-4 9,-5 14,-5 6,0 11,2 15,6 3,4 5,10 5,18l-28 0c0,4 1,6 3,8 2,2 4,3 6,3 2,0 3,-1 5,-2 1,-1 2,-2 2,-4zm1 -11c0,-4 -1,-6 -3,-8 -1,-1 -3,-2 -5,-2 -3,0 -5,1 -6,3 -2,1 -2,4 -2,7l16 0zm21 24l0 -57 11 0 0 57 -11 0zm28 -29l-10 -2c1,-4 3,-7 6,-9 2,-1 6,-2 12,-2 5,0 8,0 11,1 2,1 4,3 5,5 1,1 1,5 1,9l0 13c0,4 0,7 1,8 0,2 1,4 2,6l-11 0c-1,-1 -1,-2 -1,-3 -1,-1 -1,-1 -1,-2 -2,2 -4,4 -6,5 -2,0 -4,1 -7,1 -4,0 -7,-1 -10,-4 -2,-2 -3,-5 -3,-8 0,-3 0,-5 1,-7 2,-1 3,-3 5,-4 2,-1 5,-2 9,-2 5,-1 8,-2 10,-3l0 -1c0,-2 0,-4 -1,-5 -1,-1 -3,-1 -6,-1 -2,0 -3,0 -5,1 -1,1 -2,2 -2,4zm14 9c-1,1 -3,1 -6,2 -3,0 -5,1 -6,2 -2,1 -2,2 -2,3 0,2 0,3 1,4 2,2 3,2 5,2 2,0 4,-1 5,-2 2,-1 3,-2 3,-3 0,-1 0,-3 0,-6l0 -2zm46 20l0 -57 17 0 10 39 10 -39 18 0 0 57 -11 0 0 -45 -11 45 -11 0 -12 -45 0 45 -10 0zm92 -13l11 2c-2,4 -4,7 -7,9 -3,2 -7,3 -11,3 -7,0 -13,-2 -16,-7 -3,-4 -4,-9 -4,-14 0,-7 2,-13 5,-17 4,-4 8,-5 14,-5 6,0 11,2 14,6 4,4 6,10 5,18l-27 0c0,4 1,6 3,8 1,2 3,3 6,3 2,0 3,-1 4,-2 1,-1 2,-2 3,-4zm0 -11c0,-4 0,-6 -2,-8 -2,-1 -3,-2 -6,-2 -2,0 -4,1 -6,3 -1,1 -2,4 -2,7l16 0zm22 24l0 -57 11 0 0 57 -11 0zm27 -29l-10 -2c2,-4 4,-7 6,-9 3,-1 7,-2 12,-2 5,0 9,0 11,1 3,1 4,3 5,5 1,1 2,5 2,9l0 13c0,4 0,7 0,8 1,2 1,4 2,6l-11 0c0,-1 0,-2 -1,-3 0,-1 0,-1 0,-2 -2,2 -4,4 -6,5 -2,0 -5,1 -7,1 -4,0 -8,-1 -10,-4 -2,-2 -4,-5 -4,-8 0,-3 1,-5 2,-7 1,-1 3,-3 5,-4 2,-1 5,-2 8,-2 6,-1 9,-2 11,-3l0 -1c0,-2 0,-4 -1,-5 -2,-1 -4,-1 -6,-1 -2,0 -4,0 -5,1 -1,1 -2,2 -3,4zm15 9c-1,1 -4,1 -7,2 -3,0 -5,1 -6,2 -1,1 -2,2 -2,3 0,2 1,3 2,4 1,2 3,2 4,2 2,0 4,-1 6,-2 1,-1 2,-2 3,-3 0,-1 0,-3 0,-6l0 -2zm34 20l-11 0 0 -42 10 0 0 6c2,-2 3,-4 5,-5 1,-1 3,-1 4,-1 3,0 5,0 8,2l-4 9c-2,-1 -3,-2 -5,-2 -2,0 -3,1 -4,2 -1,0 -2,2 -2,4 -1,2 -1,7 -1,14l0 13zm41 -13l11 2c-1,4 -3,7 -6,9 -3,2 -7,3 -12,3 -7,0 -12,-2 -16,-7 -2,-4 -4,-9 -4,-14 0,-7 2,-13 6,-17 3,-4 8,-5 13,-5 6,0 11,2 15,6 3,4 5,10 5,18l-28 0c1,4 1,6 3,8 2,2 4,3 6,3 2,0 4,-1 5,-2 1,-1 2,-2 2,-4zm1 -11c0,-4 -1,-6 -2,-8 -2,-1 -4,-2 -6,-2 -3,0 -4,1 -6,3 -2,1 -2,4 -2,7l16 0zm-14 -23l5 -12 13 0 -11 12 -7 0zm72 47l-20 -57 12 0 15 42 14 -42 12 0 -20 57 -13 0zm39 -47l0 -10 11 0 0 10 -11 0zm0 47l0 -42 11 0 0 42 -11 0zm43 -13l11 2c-1,4 -3,7 -6,9 -3,2 -7,3 -12,3 -7,0 -12,-2 -16,-7 -2,-4 -4,-9 -4,-14 0,-7 2,-13 6,-17 3,-4 8,-5 13,-5 6,0 11,2 15,6 3,4 5,10 5,18l-28 0c0,4 1,6 3,8 2,2 4,3 6,3 2,0 3,-1 5,-2 1,-1 2,-2 2,-4zm1 -11c0,-4 -1,-6 -3,-8 -1,-1 -3,-2 -5,-2 -3,0 -5,1 -6,3 -2,1 -2,4 -2,7l16 0zm21 -23l0 -10 11 0 0 10 -11 0zm0 47l0 -42 11 0 0 42 -11 0zm30 0l-11 0 0 -42 10 0 0 6c2,-2 4,-4 5,-5 1,-1 3,-1 5,-1 2,0 5,0 7,2l-3 9c-2,-1 -4,-2 -6,-2 -1,0 -2,1 -3,2 -1,0 -2,2 -3,4 -1,2 -1,7 -1,14l0 13zm26 -29l-10 -2c1,-4 3,-7 6,-9 3,-1 7,-2 12,-2 5,0 9,0 11,1 2,1 4,3 5,5 1,1 1,5 1,9l0 13c0,4 0,7 1,8 0,2 1,4 2,6l-11 0c0,-1 -1,-2 -1,-3 0,-1 0,-1 -1,-2 -1,2 -3,4 -5,5 -3,0 -5,1 -7,1 -5,0 -8,-1 -10,-4 -3,-2 -4,-5 -4,-8 0,-3 1,-5 2,-7 1,-1 2,-3 4,-4 2,-1 5,-2 9,-2 5,-1 9,-2 11,-3l0 -1c0,-2 -1,-4 -2,-5 -1,-1 -3,-1 -6,-1 -2,0 -3,0 -4,1 -1,1 -2,2 -3,4zm15 9c-2,1 -4,1 -7,2 -3,0 -5,1 -6,2 -1,1 -2,2 -2,3 0,2 0,3 2,4 1,2 2,2 4,2 2,0 4,-1 6,-2 1,-1 2,-2 2,-3 1,-1 1,-3 1,-6l0 -2zm45 -37l23 0c5,0 8,0 10,0 2,1 4,1 6,3 2,1 3,2 4,4 2,2 2,5 2,7 0,3 0,5 -2,7 -1,3 -3,4 -6,5 4,1 6,3 8,6 2,2 3,5 3,8 0,3 -1,5 -2,8 -1,2 -3,4 -5,6 -2,1 -4,2 -7,2 -2,1 -7,1 -14,1l-20 0 0 -57zm12 9l0 13 7 0c5,0 8,0 9,0 2,0 3,-1 4,-2 1,-1 2,-2 2,-4 0,-2 -1,-4 -1,-5 -1,-1 -3,-1 -5,-2 -1,0 -4,0 -10,0l-6 0zm0 23l0 15 10 0c5,0 7,0 8,0 2,0 3,-1 5,-2 1,-2 1,-3 1,-5 0,-2 0,-3 -1,-5 -1,-1 -2,-2 -4,-2 -1,-1 -5,-1 -10,-1l-9 0zm51 -4l-10 -2c1,-4 3,-7 6,-9 3,-1 7,-2 12,-2 5,0 9,0 11,1 2,1 4,3 5,5 1,1 1,5 1,9l0 13c0,4 1,7 1,8 0,2 1,4 2,6l-11 0c0,-1 -1,-2 -1,-3 0,-1 0,-1 0,-2 -2,2 -4,4 -6,5 -3,0 -5,1 -7,1 -5,0 -8,-1 -10,-4 -3,-2 -4,-5 -4,-8 0,-3 1,-5 2,-7 1,-1 2,-3 4,-4 2,-1 5,-2 9,-2 5,-1 9,-2 11,-3l0 -1c0,-2 -1,-4 -2,-5 -1,-1 -3,-1 -6,-1 -2,0 -3,0 -4,1 -1,1 -2,2 -3,4zm15 9c-2,1 -4,1 -7,2 -3,0 -5,1 -6,2 -1,1 -2,2 -2,3 0,2 1,3 2,4 1,2 2,2 4,2 2,0 4,-1 6,-2 1,-1 2,-2 2,-3 1,-1 1,-3 1,-6l0 -2zm33 20l-11 0 0 -42 11 0 0 6c1,-2 3,-4 4,-5 2,-1 3,-1 5,-1 3,0 5,0 7,2l-3 9c-2,-1 -4,-2 -5,-2 -2,0 -3,1 -4,2 -1,0 -2,2 -3,4 0,2 -1,7 -1,14l0 13zm29 0l-11 0 0 -42 10 0 0 6c1,-2 3,-4 4,-5 2,-1 3,-1 5,-1 3,0 5,0 7,2l-3 9c-2,-1 -4,-2 -5,-2 -2,0 -3,1 -4,2 -1,0 -2,2 -3,4 0,2 0,7 0,14l0 13zm15 -21c0,-4 1,-8 2,-11 2,-3 5,-6 8,-8 3,-2 7,-2 11,-2 6,0 11,2 15,6 4,4 6,9 6,15 0,6 -2,12 -6,16 -4,4 -9,6 -15,6 -4,0 -7,-1 -11,-3 -3,-1 -6,-4 -8,-7 -1,-4 -2,-8 -2,-12zm11 0c0,4 1,7 3,10 2,2 4,3 7,3 3,0 5,-1 7,-3 2,-3 3,-6 3,-10 0,-4 -1,-7 -3,-9 -2,-2 -4,-4 -7,-4 -3,0 -5,2 -7,4 -2,2 -3,5 -3,9zm33 9l11 -1c1,2 2,3 3,4 2,1 4,2 6,2 3,0 5,-1 7,-2 1,0 1,-1 1,-3 0,0 0,-1 -1,-2 0,0 -2,-1 -3,-1 -9,-2 -15,-4 -17,-5 -4,-3 -5,-6 -5,-10 0,-3 1,-6 4,-9 3,-2 7,-3 13,-3 6,0 10,0 13,2 3,2 5,5 6,9l-11 1c0,-1 -1,-2 -2,-3 -1,-1 -3,-2 -6,-2 -2,0 -4,1 -6,2 -1,0 -1,1 -1,2 0,1 0,1 1,2 1,1 5,2 10,3 6,1 10,3 13,5 2,2 3,5 3,8 0,4 -2,7 -5,10 -3,3 -8,4 -14,4 -5,0 -10,-1 -13,-4 -3,-2 -6,-5 -7,-9z"/>
   <path class="fil1" d="M91 1422l0 -48 -17 0 0 -9 46 0 0 9 -17 0 0 48 -12 0zm35 -47l0 -10 11 0 0 10 -11 0zm0 47l0 -42 11 0 0 42 -11 0zm27 -29l-10 -2c2,-4 3,-7 6,-9 3,-2 7,-2 12,-2 5,0 9,0 11,1 3,1 4,3 5,5 1,1 2,5 2,9l0 13c0,4 0,7 0,8 1,2 1,4 2,6l-11 0c0,-1 0,-2 -1,-3 0,-1 0,-1 0,-2 -2,2 -4,4 -6,4 -2,1 -5,2 -7,2 -4,0 -8,-1 -10,-4 -2,-2 -4,-5 -4,-8 0,-3 1,-5 2,-7 1,-1 3,-3 5,-4 2,-1 5,-2 8,-2 5,-1 9,-2 11,-3l0 -1c0,-2 0,-4 -2,-5 -1,-1 -3,-1 -5,-1 -2,0 -4,0 -5,1 -1,1 -2,2 -3,4zm15 9c-1,1 -4,1 -7,2 -3,0 -5,1 -6,2 -1,1 -2,2 -2,3 0,2 1,3 2,4 1,2 3,2 4,2 2,0 4,-1 6,-2 1,-1 2,-2 3,-3 0,-1 0,-3 0,-6l0 -2zm22 22l13 2c0,1 0,2 1,3 1,1 3,1 5,1 3,0 5,0 6,-1 1,-1 2,-2 3,-3 0,-1 0,-2 0,-5l0 -6c-3,5 -7,7 -12,7 -6,0 -10,-3 -13,-7 -3,-4 -4,-9 -4,-14 0,-7 1,-12 5,-16 3,-4 7,-5 12,-5 5,0 10,2 13,6l0 -6 10 0 0 38c0,4 0,8 -1,11 -1,2 -2,4 -3,5 -2,2 -4,3 -6,3 -3,1 -6,2 -10,2 -7,0 -12,-2 -14,-4 -3,-2 -5,-5 -5,-9 0,-1 0,-1 0,-2zm10 -24c0,5 1,8 3,10 1,2 3,3 6,3 2,0 5,-1 7,-3 1,-2 2,-5 2,-9 0,-5 -1,-8 -2,-10 -2,-2 -4,-3 -7,-3 -3,0 -5,1 -6,3 -2,2 -3,5 -3,9zm35 1c0,-4 1,-8 2,-11 2,-3 5,-6 8,-8 3,-2 7,-2 11,-2 6,0 11,2 15,6 4,4 6,9 6,15 0,6 -2,12 -6,16 -4,4 -9,6 -15,6 -4,0 -7,-1 -11,-3 -3,-1 -6,-4 -8,-7 -1,-4 -2,-8 -2,-12zm11 0c0,4 1,7 3,10 2,2 4,3 7,3 3,0 5,-1 7,-3 2,-3 3,-6 3,-10 0,-4 -1,-7 -3,-9 -2,-2 -4,-4 -7,-4 -3,0 -5,2 -7,4 -2,2 -3,5 -3,9zm57 -7c0,-6 1,-11 3,-15 1,-3 3,-6 5,-8 2,-2 5,-4 7,-5 4,-2 8,-2 13,-2 8,0 15,2 20,7 5,6 8,13 8,22 0,10 -3,17 -8,22 -5,5 -12,8 -20,8 -9,0 -15,-3 -20,-8 -5,-5 -8,-12 -8,-21zm12 -1c0,7 1,12 4,15 3,3 7,5 12,5 4,0 8,-2 11,-5 3,-3 5,-8 5,-15 0,-7 -2,-11 -5,-15 -3,-3 -6,-4 -11,-4 -5,0 -9,1 -12,4 -3,4 -4,9 -4,15zm54 29l0 -57 11 0 0 57 -11 0zm19 -47l0 -10 11 0 0 10 -11 0zm0 47l0 -42 11 0 0 42 -11 0zm31 0l-17 -42 12 0 8 22 2 7c1,-2 1,-3 1,-4 0,-1 1,-2 1,-3l8 -22 11 0 -16 42 -10 0zm54 -13l11 2c-1,4 -3,7 -7,9 -3,2 -6,3 -11,3 -7,0 -12,-2 -16,-7 -3,-4 -4,-9 -4,-14 0,-7 2,-13 5,-17 4,-4 9,-5 14,-5 6,0 11,2 15,6 3,4 5,10 5,18l-28 0c0,4 1,6 3,8 2,2 4,3 6,3 2,0 3,-1 5,-2 1,-1 2,-2 2,-4zm1 -11c0,-4 -1,-6 -3,-8 -1,-1 -3,-2 -5,-2 -3,0 -5,1 -6,3 -2,1 -3,4 -2,7l16 0zm21 -23l0 -10 11 0 0 10 -11 0zm0 47l0 -42 11 0 0 42 -11 0zm30 0l-11 0 0 -42 10 0 0 6c2,-3 4,-4 5,-5 1,-1 3,-1 5,-1 2,0 5,0 7,2l-3 9c-2,-1 -4,-2 -6,-2 -1,0 -2,1 -4,2 -1,0 -1,2 -2,4 -1,2 -1,7 -1,14l0 13zm26 -29l-10 -2c1,-4 3,-7 6,-9 3,-2 7,-2 12,-2 5,0 8,0 11,1 2,1 4,3 5,5 1,1 1,5 1,9l0 13c0,4 0,7 1,8 0,2 1,4 2,6l-11 0c0,-1 -1,-2 -1,-3 0,-1 -1,-1 -1,-2 -1,2 -3,4 -6,4 -2,1 -4,2 -6,2 -5,0 -8,-1 -10,-4 -3,-2 -4,-5 -4,-8 0,-3 0,-5 2,-7 1,-1 2,-3 4,-4 2,-1 5,-2 9,-2 5,-1 9,-2 11,-3l0 -1c0,-2 -1,-4 -2,-5 -1,-1 -3,-1 -6,-1 -2,0 -3,0 -4,1 -2,1 -2,2 -3,4zm15 9c-2,1 -4,1 -7,2 -3,0 -5,1 -6,2 -1,1 -2,2 -2,3 0,2 0,3 2,4 1,2 2,2 4,2 2,0 4,-1 6,-2 1,-1 2,-2 2,-3 0,-1 1,-3 1,-6l0 -2zm45 20l0 -57 17 0 10 39 11 -39 17 0 0 57 -11 0 0 -45 -11 45 -11 0 -11 -45 0 45 -11 0zm65 -21c0,-4 1,-8 3,-11 2,-3 5,-6 8,-8 3,-2 7,-2 11,-2 6,0 11,2 15,6 4,4 6,9 6,15 0,6 -2,12 -6,16 -4,4 -9,6 -15,6 -4,0 -8,-1 -11,-3 -3,-1 -6,-4 -8,-7 -2,-4 -3,-8 -3,-12zm12 0c0,4 1,7 3,10 2,2 4,3 7,3 3,0 5,-1 7,-3 2,-3 3,-6 3,-10 0,-4 -1,-7 -3,-9 -2,-2 -4,-4 -7,-4 -3,0 -5,2 -7,4 -2,2 -3,5 -3,9zm56 -21l0 9 -8 0 0 17c0,3 1,5 1,6 0,0 0,1 1,1 0,1 1,1 2,1 1,0 2,-1 4,-1l1 8c-3,1 -6,2 -9,2 -2,0 -4,0 -5,-1 -2,-1 -3,-2 -4,-3 0,-1 -1,-2 -1,-4 0,-1 0,-4 0,-8l0 -18 -6 0 0 -9 6 0 0 -8 10 -6 0 14 8 0zm24 0l0 9 -8 0 0 17c0,3 0,5 0,6 1,0 1,1 1,1 1,1 2,1 2,1 1,0 3,-1 5,-1l1 8c-3,1 -6,2 -9,2 -2,0 -4,0 -5,-1 -2,-1 -3,-2 -4,-3 -1,-1 -1,-2 -1,-4 -1,-1 -1,-4 -1,-8l0 -18 -5 0 0 -9 5 0 0 -8 11 -6 0 14 8 0zm13 13l-10 -2c1,-4 3,-7 6,-9 2,-2 6,-2 12,-2 5,0 8,0 11,1 2,1 4,3 5,5 1,1 1,5 1,9l0 13c0,4 0,7 1,8 0,2 1,4 2,6l-11 0c-1,-1 -1,-2 -1,-3 -1,-1 -1,-1 -1,-2 -2,2 -4,4 -6,4 -2,1 -4,2 -7,2 -4,0 -7,-1 -10,-4 -2,-2 -3,-5 -3,-8 0,-3 0,-5 1,-7 2,-1 3,-3 5,-4 2,-1 5,-2 9,-2 5,-1 8,-2 10,-3l0 -1c0,-2 0,-4 -1,-5 -1,-1 -3,-1 -6,-1 -2,0 -3,0 -5,1 -1,1 -2,2 -2,4zm14 9c-1,1 -3,1 -6,2 -3,0 -5,1 -6,2 -2,1 -2,2 -2,3 0,2 0,3 1,4 2,2 3,2 5,2 2,0 4,-1 5,-2 2,-1 3,-2 3,-3 0,-1 0,-3 0,-6l0 -2z"/>
   <g>
    <path class="fil3" d="M285 1003l0 -8 12 0c0,11 1,12 -7,12 -3,0 -5,-1 -5,-4zm-22 -131c19,0 34,16 34,35l0 82 -12 0 0 -48c0,-4 -1,-7 -3,-9 -7,-8 -17,-3 -20,-3 -9,0 -16,-2 -20,-8 -14,-18 -2,-35 -2,-38 0,-1 -4,-8 -8,4 -6,15 -3,33 10,42 14,11 26,4 30,4 3,0 6,3 7,5 1,4 1,32 1,37 0,8 0,16 0,25 0,5 -1,7 2,10 6,6 21,6 21,-9l0 -89c0,-7 -1,-13 -2,-19 -5,-14 -20,-27 -36,-27 -8,0 -13,1 -20,5 -6,4 -1,8 1,7 3,-1 8,-6 17,-6z"/>
    <path class="fil3" d="M335 1002l0 -7 12 0c0,11 1,12 -7,12 -3,0 -5,-2 -5,-5zm-6 -97l0 99c0,12 24,14 24,-2 0,-5 1,-26 -1,-28 -1,-2 -5,-1 -5,3l0 12 -12 0 0 -79c0,-12 4,-20 9,-27 3,-3 7,-6 10,-7 21,-11 43,2 43,26 0,14 -9,27 -23,27 -9,0 -7,-1 -14,-1 -7,0 -13,6 -13,13l0 19c0,2 1,3 3,3 3,0 3,-3 3,-7 0,-3 0,-6 0,-10 0,-3 -1,-13 7,-13 4,0 13,6 25,-1 10,-5 16,-13 18,-24 1,-11 -2,-24 -10,-31 -11,-12 -27,-14 -41,-7 -13,6 -23,20 -23,35z"/>
    <path class="fil3" d="M281 837c0,1 2,2 3,2 4,1 10,-12 33,-12 6,0 14,2 20,5 4,2 9,7 11,7 2,0 3,-1 3,-3 0,-2 -5,-5 -6,-6 -6,-4 -11,-7 -18,-8 -16,-3 -31,0 -43,11 -1,1 -3,2 -3,4z"/>
    <path class="fil3 str1" d="M292 852c3,0 3,-3 9,-6 11,-5 25,-4 34,3 2,1 4,3 5,3 5,0 5,-6 -7,-12 -22,-10 -44,4 -44,9 0,2 1,3 3,3z"/>
    <path class="fil3" d="M298 861c0,3 1,4 4,4 1,0 2,-2 6,-4 6,-3 15,-2 20,2 1,1 1,2 3,2 3,0 7,-4 -3,-9 -7,-4 -16,-4 -23,-1 -2,1 -7,4 -7,6z"/>
    <path class="fil3" d="M242 900c0,17 10,12 8,8 -4,-10 0,-11 0,-15 0,-3 -2,-3 -4,-3 -2,0 -4,8 -4,10z"/>
    <path class="fil4" d="M382 893c0,2 2,3 2,9 0,4 -2,4 -2,8 0,1 2,2 3,2 3,0 5,-7 5,-10 0,-4 -2,-12 -4,-12 -2,0 -4,1 -4,3z"/>
   </g>
   <g>
    <path class="fil3" d="M403 1211l10 0 0 21 -10 0 0 -21zm-6 -75l23 0c3,0 3,5 0,5l-23 0c-4,0 -4,-5 0,-5zm7 -6c0,-3 2,-2 7,-2 2,0 2,2 2,3l-9 0 0 -1zm-35 -48l5 0 0 19 -5 0 0 -19zm55 14c0,5 -1,10 -5,13 -7,6 -17,5 -22,0 0,-1 -1,-2 -2,-2 -5,-7 -3,-16 4,-22 9,-8 25,-1 25,11zm13 -16l1 0 0 5 -2 0c-3,0 -4,-5 1,-5zm-63 -6l0 3c-11,0 -10,0 -10,11l-22 0c0,0 -2,1 -2,2l0 44c0,3 5,2 11,2l38 0c-1,7 3,11 9,11l0 86c0,2 3,4 5,4l11 0c2,0 4,-2 4,-4l0 -35c0,-2 -5,-2 -5,0l0 7 -10 0 0 -58 10 0 0 41c0,3 5,3 5,0l0 -41c3,0 5,-1 7,-2 4,-3 5,-14 -7,-14l0 -2c0,-4 -4,-7 -7,-7l-5 0c-4,0 -7,3 -7,7l0 2 -54 0 0 -38 19 0c0,12 -1,13 10,13 0,3 0,7 5,8 3,1 12,0 16,0 2,0 10,8 23,2 2,-1 2,-2 3,-2 6,-1 22,4 22,-6l0 -34c0,-3 -3,-6 -6,-6l-37 0c-2,0 -3,5 1,5l36 0c1,1 1,1 1,2 -3,0 -5,0 -7,2 -5,3 -3,13 4,13l3 0 0 18c0,0 0,1 -1,1l-11 0c1,-2 6,-10 1,-20 -1,-3 -2,-4 -4,-6 -11,-11 -27,-8 -33,6 -6,10 0,18 1,20l-11 0c-1,0 -1,-1 -1,-1l0 -33c0,-1 0,-1 1,-2l10 0c4,0 3,-5 0,-5l-10 0c-4,0 -6,3 -6,6z"/>
    <path class="fil3" d="M404 1098c0,-2 1,-5 4,-5 6,0 6,9 0,9 -2,0 -4,-2 -4,-4zm-5 -1c0,3 0,5 3,7 5,5 16,4 16,-7 0,-5 -5,-9 -9,-9l-1 0c-5,0 -9,4 -9,9z"/>
   </g>
   <g>
    <path class="fil5 str2" d="M448 1098c9,4 19,7 30,7 74,3 187,-56 184,-152 -2,-40 -14,-84 -23,-123 -14,-59 -41,-99 -95,-117 -44,-14 -97,-25 -140,-4 -24,11 -44,33 -49,61 -4,23 3,46 7,68 16,78 6,222 86,260z"/>
    <g>
     <path class="fil4" d="M519 1000c0,29 -2,18 17,26 -7,12 -43,13 -51,7 -3,-1 -8,-4 -9,-6 7,-6 15,-2 16,-10 0,-7 0,-17 0,-24 5,-1 17,0 27,-1l0 8zm-58 -233l10 0c5,1 10,2 16,4 6,3 7,-6 23,-3 4,0 6,1 9,3 6,3 6,-3 22,-4l8 0c7,0 14,3 19,6 11,6 21,18 24,31 1,6 0,5 4,7 10,5 17,17 15,27 0,6 2,3 10,14 2,2 3,4 5,7 2,4 7,15 0,17 -10,-1 1,-11 -22,-29 -2,-1 -3,-2 -2,-5 4,-24 -15,-22 -17,-27 -1,-1 -2,-9 -3,-12 -7,-23 -34,-34 -56,-23 -11,6 -7,-5 -23,-4 -7,1 -8,4 -11,6 -6,2 -19,-13 -42,-3 -12,5 -20,16 -23,29 -1,8 1,7 -7,10 -7,3 -14,11 -11,22 2,9 -6,6 -14,20 -5,8 -7,17 -5,28 2,11 7,16 12,22 5,-3 9,-16 31,-12l0 -14c0,-1 0,-1 0,-1 0,0 0,0 0,0l-4 -2c-15,-10 -5,-18 0,-12 7,9 20,10 27,5 3,-1 5,-4 7,-7 2,-3 2,-8 6,-9 4,-1 10,8 23,3 10,-3 11,-14 18,-6 15,16 28,2 32,3 4,0 4,6 6,9 5,10 20,14 30,6 3,-2 5,-7 9,-6 7,2 0,12 -9,16l0 15c10,-3 18,0 25,6 2,2 3,4 5,6 3,-2 8,-8 10,-12 1,-3 2,-5 3,-8 1,-4 1,-5 5,-5 5,1 4,5 3,10 -2,3 -3,6 -5,9 -2,3 -3,6 -5,8l-7 7c-1,2 3,9 -5,21 -1,2 -2,2 -3,4 -6,5 -1,9 -3,16 -2,6 -10,11 -18,7 -3,-1 -5,-3 -6,-6 -2,-4 -1,-9 -2,-12 -2,1 -2,1 -3,4 -4,9 -8,15 -16,22 -6,7 -19,14 -28,16l0 9c6,3 14,7 17,14 1,2 2,4 2,8 5,3 11,6 15,10 2,2 3,3 5,4 3,4 5,6 8,9 4,5 11,13 6,17 0,0 -1,0 -2,0l-147 0c-1,0 -3,0 -3,-2 -3,-3 4,-12 8,-16 3,-5 6,-7 10,-4 1,4 1,5 -2,8 -1,1 -3,4 -4,6l35 0 94 0c-3,-7 -20,-22 -26,-23 -5,4 -5,6 -12,9 -24,12 -48,1 -51,1 -2,-2 -5,-3 -8,-4l-6 -6c-11,5 -7,7 -14,3 -2,-5 0,-5 3,-8 3,-1 5,-3 8,-4 0,-13 11,-18 19,-22l0 -9 -8 -3c-3,-1 -5,-2 -8,-4 -8,-4 -13,-9 -18,-15 -3,-4 -6,-9 -9,-13 -3,-7 -1,-6 -4,-7 -2,4 1,8 -3,14 -5,7 -18,8 -23,-2 -1,-4 -1,-10 -1,-16 -1,-1 -1,-1 -3,-2 -7,-9 -7,-12 -7,-25 -4,-1 -11,-12 -13,-15 -2,-4 -3,-7 -4,-11 -2,-5 -1,-7 -2,-13 0,-15 10,-32 20,-38 -2,-4 0,-15 4,-20 2,-3 3,-4 6,-7 2,-1 5,-3 8,-4 0,-5 4,-15 6,-19 9,-14 22,-23 37,-24zm67 243c2,1 3,2 5,3 2,2 2,2 4,4 -2,0 -8,-2 -9,-3l0 -4zm-53 7c0,-3 5,-6 8,-7l0 4c-2,2 -6,2 -8,3zm-56 -67c2,1 4,2 7,2 0,4 0,3 -1,7 -2,1 -3,1 -6,0 -1,-3 0,-5 0,-9zm166 5l0 -3c2,0 5,-1 8,-2 0,5 0,10 -4,10 -3,0 -4,-2 -4,-5zm-109 -85c2,0 5,1 8,1 9,1 14,-2 20,-7l1 0c0,0 0,0 0,-1 0,0 1,0 1,0 11,9 17,11 33,6 3,4 8,18 30,17 0,24 3,50 -8,69 -9,17 -27,28 -48,29 -26,1 -44,-3 -60,-24 -15,-20 -11,-47 -11,-74 5,-1 10,1 19,-5 5,-3 9,-7 11,-12l4 1zm102 38c5,-9 39,5 20,29 -5,-2 -7,-6 -13,-1 -1,4 0,5 2,6 -4,1 -7,0 -11,-1l2 -14c7,-6 16,0 17,-7 1,-7 -12,-5 -17,-3l0 -9zm-165 29c-2,-3 -5,-5 -5,-11 -2,-11 8,-21 19,-20 8,0 6,1 6,10 -4,0 -9,-2 -14,0 -5,1 -4,8 2,8 11,0 12,-2 14,17 -4,1 -6,2 -11,1 1,-1 3,-2 3,-4 -1,-9 -14,-1 -14,-1z"/>
     <path class="fil6" d="M503 776c-1,4 -3,6 -4,10 0,2 -2,11 -2,12 -1,2 -4,1 -10,5 -2,2 -5,4 -6,7 -5,8 -5,12 -4,22 -6,6 -11,8 -16,17 -2,4 -8,19 -6,24 0,2 -1,0 1,1 3,-1 5,-4 7,-7 2,-3 2,-8 6,-9 4,-1 10,8 23,3 10,-3 11,-14 18,-6 15,16 28,2 32,3 4,0 4,6 6,9 5,10 20,14 30,6 3,-2 5,-7 9,-6 7,2 0,12 -9,16l0 15c10,-3 18,0 25,6 2,2 3,4 5,6 3,-2 8,-8 10,-12 1,-3 2,-5 3,-8 1,-4 1,-5 5,-5l0 -9c-10,-1 1,-11 -22,-29 -2,-1 -3,-2 -2,-5 4,-24 -15,-22 -17,-27 -1,-1 -2,-9 -3,-12 -7,-23 -34,-34 -56,-23 -11,6 -7,-5 -23,-4z"/>
     <g>
      <path class="fil7" d="M488 934c-1,-5 6,-7 8,-3 2,3 1,3 3,5 5,5 12,3 15,-3 5,-10 15,1 4,10 -13,11 -29,0 -30,-9zm54 -28c0,0 0,0 0,0l0 0zm-8 -24c10,-3 22,6 16,11 -3,2 -6,-1 -7,-2 -9,-5 -11,5 -17,2 -3,-2 -3,-8 8,-11zm-58 -12c-1,2 -1,0 -1,3 0,0 0,2 0,2 0,3 0,4 1,6 4,1 11,4 11,8 0,3 -2,5 -5,4 -3,0 -3,-2 -7,-3 0,4 -1,11 1,14 1,2 2,2 3,4 1,2 2,4 2,7 0,5 -2,7 -6,9 -2,19 10,40 23,51 3,2 5,3 7,5 2,1 7,3 8,4 21,-1 39,-12 48,-29 11,-19 8,-45 8,-69 -22,1 -27,-13 -30,-17 -16,5 -22,3 -33,-6 0,0 -1,0 -1,0 0,1 0,1 0,1l-1 0c-6,5 -11,8 -20,7 -3,0 -6,-1 -8,-1z"/>
     </g>
     <path class="fil8" d="M456 874c-2,-1 -1,1 -1,-1 -2,-5 4,-20 6,-24 5,-9 10,-11 16,-17 -1,-10 -1,-14 4,-22 1,-3 4,-5 6,-7 6,-4 9,-3 10,-5 0,-1 2,-10 2,-12 1,-4 3,-6 4,-10 -7,1 -8,4 -11,6 -6,2 -19,-13 -42,-3 -12,5 -20,16 -23,29 -1,8 1,7 -7,10 -7,3 -14,11 -11,22 2,9 -6,6 -14,20 -5,8 -7,17 -5,28 2,11 7,16 12,22 5,-3 9,-16 31,-12l0 -14c0,-1 0,-1 0,-1 0,0 0,0 0,0l-4 -2c-15,-10 -5,-18 0,-12 7,9 20,10 27,5z"/>
     <path class="fil9" d="M513 984c-1,-1 -6,-3 -8,-4 -2,-2 -4,-3 -7,-5 -13,-11 -25,-32 -23,-51 -4,1 -6,-1 -8,-4 -2,-4 1,-5 -4,-8 -2,-1 -6,-4 -3,-7 3,-3 7,-1 9,1 3,-2 3,-2 7,-2 -2,-3 -1,-10 -1,-14 -6,-1 -7,2 -8,3 -9,4 -11,-12 9,-12 -1,-2 -1,-3 -1,-6 0,0 0,-2 0,-2 0,-3 0,-1 1,-3l-4 -1c-2,5 -6,9 -11,12 -9,6 -14,4 -19,5 0,27 -4,54 11,74 16,21 34,25 60,24z"/>
     <path class="fil7" d="M481 1041c-2,1 -2,4 -3,6 -1,2 -2,4 -2,7l94 0c-3,-7 -20,-22 -26,-23 -5,4 -5,6 -12,9 -24,12 -48,1 -51,1z"/>
     <path class="fil7" d="M485 1033c8,6 44,5 51,-7 -19,-8 -17,3 -17,-26l-21 0 0 18c-4,3 -5,3 -8,6 -1,2 -5,7 -5,9z"/>
     <path class="fil9" d="M453 1034c-2,3 -4,3 -6,6 1,4 1,5 -2,8 -1,1 -3,4 -4,6l35 0c0,-3 1,-5 2,-7 1,-2 1,-5 3,-6 -2,-2 -5,-3 -8,-4l-6 -6c-11,5 -7,7 -14,3z"/>
     <path class="fil9" d="M578 908l0 9c5,-2 18,-4 17,3 -1,7 -10,1 -17,7l-2 14c4,1 7,2 11,1 -2,-1 -3,-2 -2,-6 6,-5 8,-1 13,1 19,-24 -15,-38 -20,-29z"/>
     <path class="fil9" d="M413 937c0,0 13,-8 14,1 0,2 -2,3 -3,4 5,1 7,0 11,-1 -2,-19 -3,-17 -14,-17 -6,0 -7,-7 -2,-8 5,-2 10,0 14,0 0,-9 2,-10 -6,-10 -11,-1 -21,9 -19,20 0,6 3,8 5,11z"/>
     <path class="fil9" d="M485 1033c0,-2 4,-7 5,-9 3,-3 4,-3 8,-6l0 -18 21 0 0 -8c-10,1 -22,0 -27,1 0,7 0,17 0,24 -1,8 -9,4 -16,10 1,2 6,5 9,6z"/>
     <path class="fil4" d="M488 934c1,9 17,20 30,9 11,-9 1,-20 -4,-10 -3,6 -10,8 -15,3 -2,-2 -1,-2 -3,-5 -2,-4 -9,-2 -8,3z"/>
     <path class="fil4" d="M475 924c4,-2 6,-4 6,-9 0,-3 -1,-5 -2,-7 -1,-2 -2,-2 -3,-4 -4,0 -4,0 -7,2 -2,-2 -6,-4 -9,-1 -3,3 1,6 3,7 5,3 2,4 4,8 2,3 4,5 8,4z"/>
     <path class="fil4" d="M475 890c4,1 4,3 7,3 3,1 5,-1 5,-4 0,-4 -7,-7 -11,-8 -20,0 -18,16 -9,12 1,-1 2,-4 8,-3z"/>
     <path class="fil4" d="M534 882c-11,3 -11,9 -8,11 6,3 8,-7 17,-2 1,1 4,4 7,2 6,-5 -6,-14 -16,-11z"/>
     <path class="fil4" d="M542 906c0,0 0,0 0,0z"/>
     <path class="fil4" d="M529 924c-3,-2 -5,-4 -5,-9 0,-3 0,-5 1,-7 2,-2 2,-2 4,-4 4,0 4,0 7,2 2,-2 5,-4 8,-1 3,3 0,6 -3,7 -4,3 -1,4 -4,8 -1,3 -3,5 -8,4z"/>
    </g>
   </g>
   <path class="fil1" d="M1078 1223l-42 14 0 -9 31 -10 -31 -10 0 -9 42 15 0 9zm-16 -24c-2,0 -5,-1 -7,-2 -3,-2 -5,-4 -6,-6 -1,-2 -2,-5 -2,-8 0,-4 1,-8 4,-11 3,-3 7,-4 12,-4 4,0 8,1 11,4 3,3 4,7 4,11 0,3 0,5 -2,8 -1,2 -3,4 -5,6 -2,1 -5,2 -9,2zm1 -9c3,0 5,0 6,-2 2,-1 3,-3 3,-5 0,-2 -1,-4 -3,-5 -1,-2 -3,-2 -6,-2 -3,0 -6,0 -7,2 -2,1 -3,3 -3,5 0,2 1,4 3,5 1,2 4,2 7,2zm15 -27l-42 0 0 -8 42 0 0 8zm0 -34l-5 0c2,2 3,3 4,5 1,2 1,3 1,5 0,2 0,4 -1,6 -1,1 -2,3 -4,3 -1,1 -4,1 -6,1l-19 0 0 -7 13 0c5,0 7,-1 8,-1 1,0 2,-1 2,-2 1,0 1,-1 1,-2 0,-2 0,-3 -1,-4 -1,-1 -2,-2 -3,-2 -1,-1 -3,-1 -8,-1l-12 0 0 -8 30 0 0 7zm-30 -12l0 -8 4 0c-4,-2 -5,-5 -5,-9 0,-2 0,-4 1,-5 1,-2 2,-3 4,-4 -2,-1 -3,-2 -4,-4 -1,-1 -1,-3 -1,-5 0,-2 0,-4 1,-5 1,-2 2,-3 4,-4 1,0 4,-1 6,-1l20 0 0 8 -18 0c-3,0 -4,1 -5,1 -1,1 -2,2 -2,4 0,1 0,2 1,3 1,1 2,1 3,2 1,0 3,0 6,0l15 0 0 8 -17 0c-3,0 -5,1 -5,1 -1,0 -2,1 -2,1 -1,1 -1,2 -1,3 0,1 0,2 1,3 1,1 2,2 3,2 1,0 3,1 6,1l15 0 0 8 -30 0zm20 -68l1 -8c3,1 6,3 7,5 2,2 2,5 2,8 0,6 -1,9 -5,12 -3,2 -6,3 -10,3 -5,0 -9,-1 -12,-4 -3,-3 -4,-6 -4,-10 0,-4 1,-8 4,-10 3,-3 8,-4 14,-4l0 20c2,0 4,-1 5,-2 2,-1 2,-3 2,-5 0,-1 0,-2 -1,-3 0,-1 -1,-1 -3,-2zm-8 0c-2,0 -4,0 -5,2 -1,1 -2,2 -2,4 0,1 1,3 2,4 1,1 3,2 5,2l0 -12zm10 -57l8 0 0 28c-3,0 -6,-1 -8,-3 -3,-1 -6,-4 -10,-9 -4,-3 -6,-6 -7,-6 -2,-1 -3,-2 -5,-2 -2,0 -3,0 -4,1 -1,1 -1,3 -1,4 0,2 0,3 1,4 1,1 3,2 5,2l-1 8c-4,-1 -7,-2 -9,-5 -2,-2 -3,-5 -3,-9 0,-4 1,-7 3,-10 2,-2 5,-3 8,-3 2,0 4,0 6,1 2,1 3,2 5,3 1,1 3,3 5,5 3,3 4,4 5,5 1,1 2,1 2,2l0 -16z"/>
   <path class="fil1" d="M962 1193l0 18 -19 8 0 33 19 7 0 18 -84 -32 0 -18 84 -34zm-33 31l-32 12 32 11 0 -23zm33 -35l-84 0 0 -16 30 0c-5,-5 -8,-11 -8,-18 0,-8 2,-14 8,-19 5,-5 13,-7 23,-7 11,0 19,3 24,7 6,5 9,11 9,19 0,3 -1,7 -3,10 -2,3 -4,6 -8,9l9 0 0 15zm-32 -16c7,0 11,-1 14,-3 5,-3 7,-7 7,-11 0,-4 -2,-7 -5,-10 -3,-2 -8,-3 -14,-3 -7,0 -12,1 -15,3 -3,3 -5,6 -5,10 0,4 2,7 5,10 3,2 7,4 13,4zm13 -88l3 -16c5,2 10,5 13,9 3,5 5,10 5,17 0,11 -4,19 -11,24 -5,4 -12,6 -21,6 -10,0 -18,-3 -24,-8 -5,-5 -8,-12 -8,-20 0,-9 3,-16 9,-22 6,-5 15,-8 27,-7l0 40c5,0 9,-1 12,-4 2,-2 4,-5 4,-9 0,-3 -1,-5 -3,-6 -1,-2 -3,-3 -6,-4zm-17 -1c-4,0 -8,1 -10,3 -3,3 -4,5 -4,9 0,3 1,6 4,8 3,3 6,4 10,4l0 -24zm36 -47l0 16 -61 0 0 -15 9 0c-4,-3 -7,-5 -8,-7 -2,-2 -2,-4 -2,-7 0,-4 1,-7 3,-11l14 5c-2,3 -3,6 -3,8 0,2 1,4 2,6 1,1 4,2 7,3 3,1 10,2 20,2l19 0zm-61 -54l13 0 0 11 25 0c5,0 8,0 8,-1 1,0 2,0 2,-1 1,-1 1,-2 1,-3 0,-1 0,-4 -1,-6l12 -2c2,4 3,8 3,13 0,3 -1,6 -2,8 -1,2 -2,4 -4,5 -1,1 -3,2 -6,2 -2,1 -6,1 -11,1l-27 0 0 7 -13 0 0 -7 -12 0 -10 -16 22 0 0 -11zm19 -20l-3 15c-6,-2 -10,-4 -13,-9 -3,-4 -4,-10 -4,-17 0,-8 1,-13 2,-17 2,-3 4,-6 7,-7 2,-1 7,-2 14,-2l19 0c5,0 9,0 12,-1 3,0 5,-1 8,-3l0 16c-1,1 -2,1 -5,2 -1,0 -1,0 -1,1 2,2 4,5 6,8 1,4 2,7 2,10 0,7 -2,12 -5,15 -4,4 -8,6 -13,6 -4,0 -7,-1 -10,-3 -2,-1 -4,-4 -6,-7 -1,-3 -3,-7 -4,-13 -1,-7 -2,-12 -4,-15l-1 0c-3,0 -6,0 -7,2 -1,2 -2,4 -2,9 0,3 1,5 2,6 1,2 3,3 6,4zm13 -21c1,2 1,5 2,10 1,4 2,7 3,8 2,2 4,4 6,4 2,0 4,-1 6,-3 1,-2 2,-4 2,-6 0,-3 -1,-6 -3,-9 -1,-2 -3,-3 -5,-4 -1,0 -4,0 -8,0l-3 0zm10 -103l3 -16c5,2 10,6 13,10 3,5 5,10 5,17 0,10 -4,18 -11,23 -5,4 -12,6 -21,6 -10,0 -18,-2 -24,-7 -5,-6 -8,-12 -8,-21 0,-9 3,-16 9,-21 6,-5 15,-8 27,-8l0 41c5,0 9,-2 12,-4 2,-3 4,-6 4,-9 0,-3 -1,-5 -3,-7 -1,-1 -3,-3 -6,-4zm-17 -1c-4,1 -8,2 -10,4 -3,2 -4,5 -4,8 0,4 1,7 4,9 3,2 6,4 10,4l0 -25zm-48 -64l0 -31c0,-7 0,-12 1,-16 2,-5 4,-9 8,-13 4,-3 8,-6 14,-8 5,-2 12,-3 20,-3 7,0 13,1 18,3 6,2 11,5 15,9 3,3 5,7 6,12 2,4 2,9 2,15l0 32 -84 0zm14 -17l56 0 0 -13c0,-5 0,-8 -1,-10 -1,-3 -2,-5 -3,-7 -2,-2 -5,-3 -9,-4 -3,-2 -8,-2 -15,-2 -7,0 -12,0 -15,2 -4,1 -6,2 -8,4 -2,3 -3,5 -4,8 -1,3 -1,7 -1,14l0 8zm1 -70l-15 0 0 -17 15 0 0 17zm69 0l-61 0 0 -17 61 0 0 17zm4 -27l2 -19c2,0 4,-1 5,-2 1,-2 2,-4 2,-7 0,-5 -1,-8 -2,-10 -1,-1 -3,-2 -4,-3 -2,-1 -4,-1 -8,-1l-9 0c7,5 10,11 10,19 0,8 -3,14 -10,19 -6,4 -13,6 -21,6 -10,0 -18,-3 -23,-8 -6,-5 -8,-11 -8,-18 0,-8 3,-14 10,-19l-9 0 0 -15 55 0c7,0 12,1 16,2 4,1 6,3 8,5 2,2 4,5 5,8 1,4 2,9 2,14 0,10 -2,18 -5,22 -4,4 -8,7 -14,7 -1,0 -1,0 -2,0zm-36 -15c7,0 12,-1 15,-4 3,-2 4,-5 4,-9 0,-4 -1,-7 -5,-10 -3,-3 -7,-4 -13,-4 -7,0 -11,1 -14,4 -3,2 -5,6 -5,10 0,4 2,7 5,9 3,3 7,4 13,4zm-37 -55l-15 0 0 -16 15 0 0 16zm69 0l-61 0 0 -16 61 0 0 16zm-61 -56l13 0 0 11 25 0c5,0 8,0 8,-1 1,0 2,0 2,-1 1,-1 1,-2 1,-3 0,-1 0,-3 -1,-6l12 -2c2,4 3,8 3,13 0,3 -1,6 -2,8 -1,2 -2,4 -4,5 -1,1 -3,2 -6,2 -2,1 -6,1 -11,1l-27 0 0 7 -13 0 0 -7 -12 0 -10 -16 22 0 0 -11zm19 -20l-3 15c-6,-2 -10,-4 -13,-8 -3,-4 -4,-10 -4,-18 0,-8 1,-13 2,-17 2,-3 4,-6 7,-7 2,-1 7,-2 14,-2l19 0c5,0 9,0 12,-1 3,0 5,-1 8,-3l0 16c-1,1 -2,1 -5,2 -1,0 -1,0 -1,1 2,2 4,5 6,8 1,4 2,7 2,10 0,7 -2,12 -5,15 -4,4 -8,6 -13,6 -4,0 -7,-1 -10,-3 -2,-1 -4,-4 -6,-7 -1,-3 -3,-7 -4,-13 -1,-7 -2,-12 -4,-15l-1 0c-3,0 -6,1 -7,2 -1,2 -2,5 -2,9 0,3 1,5 2,7 1,1 3,2 6,3zm13 -21c1,2 1,5 2,10 1,4 2,7 3,8 2,3 4,4 6,4 2,0 4,-1 6,-3 1,-2 2,-4 2,-6 0,-3 -1,-6 -3,-9 -1,-2 -3,-3 -5,-4 -1,0 -4,0 -8,0l-3 0zm29 -34l-84 0 0 -17 84 0 0 17z"/>
   <g id="_2587355386352">
    <path class="fil3" d="M701 800l-3 -4 77 -51c4,6 8,11 6,18 -1,4 -4,7 -8,10l-48 32c-9,6 -19,4 -24,-5zm-54 -83c-6,-9 -4,-18 5,-24l48 -31c9,-6 18,-4 23,3l4 6 -8 5c-2,1 0,5 3,3l7 -4 44 67 -77 50 -44 -67 61 -40c4,-2 1,-6 -2,-4l-62 40 -2 -4zm-5 0l57 87c5,8 18,11 26,6l52 -35c5,-3 7,-8 8,-12 1,-4 1,-10 -3,-15l-55 -85c-6,-8 -18,-11 -27,-6l-53 34c-4,3 -6,8 -7,12 -1,5 -1,10 2,14z"/>
    <path class="fil3" d="M728 758c0,-1 0,-1 -2,-3l27 -18c3,-2 5,1 3,3l-28 18zm-10 -1c2,-1 5,0 6,1 2,4 -1,8 -4,7 -4,-1 -5,-6 -2,-8zm-5 8c1,2 1,1 2,2l-12 8c-5,3 -5,-1 -4,-2 1,-2 11,-5 9,-8 -1,-1 -2,-2 -3,-1l-8 5c-6,4 -2,13 5,11 2,0 13,-8 15,-9 3,-2 2,-2 4,-2 2,0 5,-1 6,-3 1,-1 1,-2 2,-3l28 -19c8,-4 3,-11 -1,-12 -2,0 -3,1 -6,2l-23 15c-4,3 -3,3 -7,3 -6,0 -10,8 -7,13z"/>
    <path class="fil3" d="M717 740c-16,11 -34,-5 -29,-21 1,-1 1,-1 1,-2 5,-14 25,-16 34,-3 1,2 2,5 2,7 1,1 1,2 1,4 0,6 -3,12 -9,15zm10 -27c-3,-4 -4,-6 -8,-9 -7,-4 -17,-4 -24,0 -7,5 -11,10 -12,18 -1,11 7,23 19,25 2,1 4,1 6,1 7,0 14,-5 18,-10 2,-4 4,-7 4,-12 0,-4 -1,-9 -3,-13z"/>
    <path class="fil3" d="M680 686l16 -11c4,-3 6,2 4,3l-19 12c-2,2 -5,-2 -1,-4zm-6 6c3,3 7,4 11,1l16 -11c9,-6 1,-15 -6,-11l-19 12c-2,2 -3,6 -2,9z"/>
    <path class="fil3" d="M706 731l-6 -9c-3,-4 2,-3 7,-3 8,0 7,1 4,9 0,1 -1,1 -1,2 -1,2 -2,5 -4,1zm-10 -7l7 10c2,3 8,5 11,-2 0,-1 1,-3 2,-4 2,-5 3,-7 0,-11 -1,-1 -3,-2 -4,-2 -2,0 -12,-1 -13,0l-2 1c-2,2 -2,5 -1,8z"/>
    <path class="fil3" d="M739 782l0 -1c-1,-1 -1,-4 1,-5 5,-3 10,3 5,7 -1,1 -4,1 -6,-1zm-4 2c2,2 3,4 6,4 11,2 15,-14 3,-17 -3,0 -6,1 -9,4 -1,2 -2,6 0,9z"/>
    <path class="fil3" d="M664 696c1,0 3,-1 4,1 0,0 0,2 -1,2 -2,2 -5,-2 -3,-3zm-4 5c5,8 15,0 11,-6 -5,-9 -15,0 -11,6z"/>
   </g>
   <path class="fil3" d="M738 954l-30 0 -1 -83 31 0c8,0 16,4 22,8 8,5 14,15 16,24 2,9 1,18 -2,26 -4,8 -11,16 -19,21 -4,1 -11,4 -17,4zm-56 -38l-20 0c-4,0 -4,-6 0,-6l20 0c3,0 3,6 0,6zm-38 -6c-1,-9 5,-21 11,-27 1,0 1,0 2,-1l4 -3c12,-9 25,-8 40,-8l0 38 -10 0c-1,-2 -5,-6 -9,-6l-20 0c-4,0 -8,4 -9,7l-9 0zm18 12l20 0c4,0 8,-3 9,-6l10 0 0 38c-12,0 -23,1 -34,-4 -2,-1 -4,-2 -6,-3l-5 -4c-3,-3 -6,-8 -8,-11 -2,-4 -4,-11 -4,-16l9 0c1,3 5,6 9,6zm21 39l55 -1c5,0 11,-1 15,-3 5,-2 7,-3 11,-6 3,-2 4,-3 6,-5 9,-9 13,-19 14,-31 0,-4 0,-1 0,-5 -1,-3 0,-4 -1,-8 -1,-3 -2,-6 -3,-9 -4,-9 -11,-17 -20,-22 -5,-3 -15,-7 -22,-6l-56 0c-7,0 -12,2 -18,5 -7,2 -15,10 -19,16 -3,5 -6,11 -7,16 -3,10 -1,21 3,30 2,5 6,11 10,14 8,9 20,15 32,15z"/>
   <g id="_2587355384720">
    <path class="fil3" d="M627 1169l68 0 0 6 -68 0 0 -6zm9 -44c6,0 1,1 13,0l0 13 18 0 0 24 -12 0 0 -12 -19 0 0 -25zm-12 -24c0,-16 19,-26 32,-13 11,11 3,31 -13,31 -10,0 -19,-8 -19,-18zm-65 -12c0,-2 2,-3 3,-3 1,-1 4,-2 5,-3 1,1 6,9 7,10 5,8 14,22 19,29 1,1 2,2 2,3 -3,1 -3,3 -8,3 -3,0 -3,-2 -4,-4 -5,-6 -10,-14 -14,-19 -2,-3 -10,-14 -10,-16zm59 11c0,9 3,11 3,14 -2,2 -5,3 -8,5 -7,4 -11,5 -16,-3 -2,-3 -4,-5 -5,-8l-19 -27c-1,-2 -2,-3 -2,-6 0,-4 4,-6 7,-7l57 -34c2,-1 3,-2 5,-3l33 52c-1,0 -3,1 -4,2 -2,1 -3,2 -5,3 -1,-5 -12,-12 -21,-12 -4,0 -7,0 -11,2 -8,4 -14,12 -14,22zm73 -28c-2,-3 -2,-2 -2,-8l15 0 -3 2c-1,1 -2,1 -4,2 -2,1 -4,3 -6,4zm-2 -27l12 0 0 12 -12 0 0 -12zm26 12l-7 0 0 -12 12 0c0,10 1,9 -2,11 -1,0 -2,1 -3,1zm-129 -2c-1,-2 -2,-3 -3,-4 2,-1 8,-6 11,-6 0,1 2,3 2,4 -1,1 -3,2 -5,3 -1,1 -4,3 -5,3zm87 -10l10 0 0 15 -9 -14c-1,-1 -1,-1 -1,-1zm54 5l0 -5 5 0c-1,2 -4,4 -5,5zm-19 -24l11 0c1,0 1,0 1,1l0 12 -12 0 0 -13zm-19 0l12 0 0 13 -12 0 0 -13zm-18 0l11 0c1,0 1,0 1,1l0 12 -12 0 0 -13zm-53 10c-1,-1 -2,-2 -2,-4 2,0 5,-4 7,-4 1,1 2,2 3,4 -2,1 -7,4 -8,4zm118 3l-9 0 0 -13 12 0c0,3 -1,5 -1,7l-2 6zm-91 -11l7 -4c0,1 7,11 8,13l8 13c2,2 3,4 5,6 1,2 2,4 4,6 1,2 1,3 2,4 1,2 6,8 6,10 -2,0 -4,3 -6,3 -1,-1 -11,-16 -13,-19l-16 -26c-1,-1 -2,-2 -2,-3l-2 -2c0,-1 0,-1 -1,-1zm16 -2l3 0 0 5c0,0 0,0 0,0l-1 -2c-1,-1 -2,-2 -2,-3zm-32 -2c2,-2 5,-4 7,-5 1,1 3,4 3,5 -2,1 -6,4 -8,4 0,-1 -2,-3 -2,-4zm98 -23c4,3 7,8 9,13 1,2 2,4 2,6l-11 0 0 -19zm-19 7l12 0 0 12 -12 0 0 -12zm-19 0l12 0 0 12 -12 0 0 -12zm-18 5c2,-1 10,-7 12,-7l0 14 -12 0 0 -7zm-7 4l0 3 -5 0c1,-1 2,-1 3,-2 0,0 1,-1 2,-1zm44 -22c8,0 8,2 12,3l0 3 -12 0 0 -6zm-7 1l0 5 -10 0 7 -4c1,0 3,0 3,-1zm-56 25c-2,-4 -5,-7 -7,-11 -5,4 -10,7 -16,10l-15 11c1,1 2,3 3,4 1,2 2,4 2,5 -2,1 -8,5 -10,6 -1,-2 -5,-9 -6,-10 -1,0 -4,2 -5,3l-11 6c-1,1 -4,3 -6,3l6 11c0,0 -1,1 -2,1 -1,1 -2,1 -3,2 -1,1 -4,2 -5,3 -3,3 -5,6 -5,12 -7,4 -12,4 -12,13 0,3 1,5 3,7 5,8 19,28 24,34 2,4 6,4 9,4 3,0 6,-3 8,-4 7,-4 4,-2 8,-2 7,0 14,-6 21,-10 1,1 3,3 4,3l0 34 19 0 0 6 -27 0c-1,0 -1,1 -1,2l0 17 81 0 0 -19 -28 0 0 -30 -19 0c0,-12 0,-9 2,-11 6,-5 11,-12 11,-20 0,-3 -1,-5 -1,-7 10,-5 34,-21 45,-27 10,-6 13,-8 22,-14 5,-5 11,-17 11,-25l0 -4c0,-19 -17,-35 -35,-35 -9,0 -13,1 -21,5 -2,2 -5,3 -7,5 -3,1 -5,3 -8,4 -2,2 -4,3 -7,5 -3,1 -21,12 -22,13z"/>
    <path class="fil3" d="M636 1101c0,-9 13,-8 13,0 0,2 -3,6 -5,6 -3,0 -4,0 -6,-2 -1,-1 -2,-3 -2,-4zm-6 0c0,10 13,16 21,9 1,-1 2,-2 3,-4 4,-9 -3,-18 -12,-18 -6,0 -12,6 -12,13z"/>
    <path class="fil3" d="M622 1049c0,1 3,4 3,5 1,0 4,-2 5,-3 0,-1 -2,-4 -3,-6 -1,1 -4,3 -5,4z"/>
    <path class="fil3" d="M633 1042c0,2 2,3 2,6 2,-1 5,-3 6,-3 0,-1 -2,-5 -3,-6 -2,1 -3,2 -5,3z"/>
    <path class="fil3" d="M611 1055c1,1 3,4 3,5l6 -3c-1,-1 -3,-4 -3,-5 -1,0 -2,1 -3,1 -1,1 -2,1 -3,2z"/>
   </g>
  </g>
 </g>
</svg>
