<?xml version="1.0" encoding="UTF-8"?>
<!DOCTYPE svg PUBLIC "-//W3C//DTD SVG 1.1//EN" "http://www.w3.org/Graphics/SVG/1.1/DTD/svg11.dtd">
<!-- Creator: CorelDRAW X7 -->
<svg xmlns="http://www.w3.org/2000/svg" xml:space="preserve" width="1189px" height="1773px" version="1.1" style="shape-rendering:geometricPrecision; text-rendering:geometricPrecision; image-rendering:optimizeQuality; fill-rule:evenodd; clip-rule:evenodd"
viewBox="0 0 1189 1773"
 xmlns:xlink="http://www.w3.org/1999/xlink">
 <defs>
  <style type="text/css">
   <![CDATA[
    .str2 {stroke:#008891;stroke-width:2.95276}
    .str0 {stroke:gainsboro;stroke-width:2.36221}
    .str1 {stroke:#008891;stroke-width:0.900001}
    .fil4 {fill:black}
    .fil1 {fill:#00587A}
    .fil3 {fill:#008891}
    .fil8 {fill:#2B4C65}
    .fil6 {fill:#365D7C}
    .fil9 {fill:#966A53}
    .fil7 {fill:#A97962}
    .fil0 {fill:gainsboro}
    .fil5 {fill:#C8C8C9}
    .fil2 {fill:#E1E1E1}
   ]]>
  </style>
 </defs>
 <g id="Camada_x0020_1">
  <metadata id="CorelCorpID_0Corel-Layer"/>
  <g id="_2587355384432">
   <rect class="fil0 str0" transform="matrix(-2.51426E-014 -0.941639 -0.941639 2.51426E-014 1188.94 1772.97)" width="1883" height="1263" rx="5" ry="5"/>
   <path class="fil1" d="M247 364c18,20 30,36 58,43 45,11 144,-17 193,-31 11,-4 25,-7 36,-12 6,-1 14,-4 20,-6l136 -46c53,-17 105,-35 158,-50 27,-8 53,-17 80,-23 67,-16 196,-40 261,-36l0 -5c-47,-4 -123,8 -171,17 -62,11 -98,19 -159,38 -101,31 -201,64 -301,97 -57,19 -181,59 -240,54 -32,-4 -46,-19 -65,-40 -7,-8 -20,-23 -25,-32 -7,-10 -17,-20 -26,-29 -55,-55 -120,-79 -183,-104l-18 -6 -1 4 36 15c44,17 93,36 133,68 16,12 29,24 42,39 9,10 31,41 36,45z"/>
   <path class="fil2" d="M1051 1249c-19,0 -35,12 -41,29l-206 0 -75 -63c16,-9 31,-19 45,-30 50,-39 85,-95 100,-156 2,-7 -3,-15 -11,-17 -8,-2 -16,3 -18,11 -13,54 -44,104 -89,139 -45,37 -100,56 -159,56 -58,0 -113,-19 -158,-56 -45,-35 -76,-85 -89,-139 -2,-8 -10,-13 -18,-11 -8,2 -13,10 -11,17 15,61 50,117 99,156 15,11 30,21 46,30l-75 63 -206 0c-6,-17 -22,-29 -41,-29 -24,0 -43,19 -43,43 0,25 19,44 43,44 19,0 35,-12 41,-29l211 0c4,0 7,-1 10,-3l89 -76c19,7 38,12 58,16l-3 39c-1,8 5,15 13,15 1,0 1,0 1,0 8,0 14,-6 15,-13l2 -38c6,0 11,0 16,0 6,0 12,0 18,-1l10 141 -53 0 2 -33c1,-8 -5,-15 -13,-15 -8,-1 -15,5 -16,13l-5 75c-1,16 5,31 16,43 11,12 26,18 41,19l2 0c16,-1 31,-7 42,-19 11,-11 16,-27 15,-43l-12 -184c19,-3 38,-8 56,-15l90 76c2,2 6,3 9,3l211 0c6,17 22,29 41,29 24,0 43,-19 43,-44 0,-24 -19,-43 -43,-43zm-907 58c-8,0 -14,-7 -14,-15 0,-8 6,-14 14,-14 8,0 15,6 15,14 0,8 -7,15 -15,15zm476 143c-6,6 -13,9 -22,9 -8,0 -15,-3 -21,-9 -5,-6 -8,-13 -7,-21l0 -13 57 0 0 13c1,8 -2,15 -7,21zm431 -143c-8,0 -15,-7 -15,-15 0,-8 7,-14 15,-14 8,0 14,6 14,14 0,8 -6,15 -14,15z"/>
   <path class="fil2" d="M144 676c19,0 35,-12 41,-29l206 0 75 63c-70,37 -124,102 -144,183 -2,8 3,16 10,18 2,0 3,0 4,0 7,0 12,-4 14,-11 29,-114 130,-193 247,-193 70,0 135,28 183,77 6,6 15,6 21,1 6,-6 6,-15 0,-21 -21,-22 -45,-40 -72,-54l75 -63 206 0c6,17 22,29 41,29 24,0 43,-19 43,-44 0,-24 -19,-43 -43,-43 -19,0 -35,12 -41,29l-211 0c-4,0 -7,1 -9,3l-90 76c-28,-11 -57,-17 -87,-19l0 -99c17,-6 29,-22 29,-41 0,-24 -19,-43 -44,-43 -24,0 -43,19 -43,43 0,19 12,35 29,41l0 99c-31,2 -61,8 -89,19l-90 -76c-2,-2 -6,-3 -9,-3l-211 0c-6,-17 -22,-29 -41,-29 -24,0 -43,19 -43,43 0,25 19,44 43,44zm907 -58c8,0 14,6 14,14 0,8 -6,15 -14,15 -8,0 -15,-7 -15,-15 0,-8 7,-14 15,-14zm-453 -94c8,0 15,6 15,14 0,8 -7,15 -15,15 -8,0 -14,-7 -14,-15 0,-8 6,-14 14,-14zm-454 94c8,0 15,6 15,14 0,8 -7,15 -15,15 -8,0 -14,-7 -14,-15 0,-8 6,-14 14,-14z"/>
   <path class="fil1" d="M110 504l0 -70 -25 0 0 -14 67 0 0 14 -25 0 0 70 -17 0zm77 -19l17 3c-2,6 -6,10 -10,13 -5,3 -10,5 -17,5 -11,0 -18,-4 -24,-11 -4,-5 -6,-12 -6,-21 0,-10 3,-18 8,-24 6,-5 12,-8 20,-8 10,0 17,3 22,9 5,6 8,15 7,27l-40 0c0,5 1,9 4,12 2,2 6,4 9,4 3,0 5,-1 7,-2 1,-2 3,-4 3,-7zm1 -16c0,-5 -1,-9 -3,-11 -2,-3 -5,-4 -9,-4 -3,0 -6,1 -8,4 -3,3 -4,6 -4,11l24 0zm85 -8l-16 3c0,-3 -1,-5 -3,-7 -2,-2 -5,-2 -8,-2 -4,0 -7,1 -9,4 -3,3 -4,7 -4,14 0,7 1,12 4,15 2,3 5,5 10,5 3,0 5,-1 7,-3 2,-2 3,-5 4,-9l16 3c-1,7 -5,12 -9,16 -5,4 -11,6 -19,6 -9,0 -16,-3 -22,-9 -5,-5 -7,-13 -7,-23 0,-10 2,-18 8,-24 5,-5 12,-8 21,-8 8,0 13,1 18,5 4,3 7,8 9,14zm64 43l-16 0 0 -31c0,-6 -1,-11 -1,-13 -1,-2 -2,-3 -4,-4 -1,-1 -3,-2 -5,-2 -3,0 -6,1 -8,2 -2,2 -4,4 -4,7 -1,2 -2,7 -2,14l0 27 -16 0 0 -61 15 0 0 9c5,-7 12,-10 20,-10 4,0 7,0 10,2 3,1 5,3 7,5 1,2 2,4 3,6 1,3 1,7 1,11l0 38zm8 -31c0,-5 2,-11 4,-16 3,-5 7,-9 12,-11 5,-3 10,-4 16,-4 9,0 17,3 23,9 6,6 9,13 9,23 0,9 -3,17 -9,23 -6,6 -14,9 -23,9 -6,0 -11,-1 -16,-4 -5,-3 -9,-6 -12,-11 -2,-5 -4,-11 -4,-18zm17 1c0,6 2,11 4,14 3,3 7,5 11,5 4,0 8,-2 11,-5 3,-3 4,-8 4,-14 0,-6 -1,-11 -4,-14 -3,-3 -7,-5 -11,-5 -4,0 -8,2 -11,5 -2,3 -4,8 -4,14zm55 30l0 -84 16 0 0 84 -16 0zm25 -31c0,-5 1,-11 4,-16 3,-5 6,-9 11,-11 5,-3 10,-4 16,-4 10,0 17,3 23,9 6,6 9,13 9,23 0,9 -3,17 -9,23 -6,6 -13,9 -22,9 -6,0 -11,-1 -16,-4 -6,-3 -9,-6 -12,-11 -3,-5 -4,-11 -4,-18zm17 1c0,6 1,11 4,14 3,3 6,5 11,5 4,0 7,-2 10,-5 3,-3 4,-8 4,-14 0,-6 -1,-11 -4,-14 -3,-3 -6,-5 -10,-5 -5,0 -8,2 -11,5 -3,3 -4,8 -4,14zm53 34l19 2c0,3 1,4 2,5 1,1 4,2 7,2 4,0 7,-1 10,-2 1,-1 2,-2 3,-4 0,-2 0,-4 0,-8l1 -9c-5,7 -11,10 -19,10 -8,0 -15,-3 -19,-10 -4,-6 -6,-12 -6,-21 0,-10 2,-18 7,-23 5,-5 11,-8 19,-8 7,0 14,3 19,10l0 -9 15 0 0 55c0,7 -1,13 -2,16 -1,4 -3,6 -5,9 -2,2 -5,3 -9,4 -3,1 -8,2 -13,2 -11,0 -18,-2 -22,-5 -5,-4 -7,-8 -7,-14 0,0 0,-1 0,-2zm15 -36c0,7 1,12 3,15 3,3 6,4 10,4 4,0 7,-1 10,-4 2,-4 4,-8 4,-14 0,-6 -2,-11 -4,-14 -3,-3 -6,-5 -10,-5 -4,0 -7,2 -10,5 -2,3 -3,7 -3,13zm55 -37l0 -15 16 0 0 15 -16 0zm0 69l0 -61 16 0 0 61 -16 0zm40 -42l-14 -3c1,-6 4,-10 8,-13 4,-3 10,-4 18,-4 7,0 13,1 16,2 4,2 6,4 8,7 1,2 2,7 2,14l0 19c0,6 0,10 0,12 1,3 2,5 3,8l-16 0c0,-1 -1,-2 -1,-4 -1,-1 -1,-2 -1,-2 -3,2 -6,4 -9,6 -3,1 -6,2 -10,2 -6,0 -11,-2 -15,-5 -3,-4 -5,-8 -5,-13 0,-4 1,-7 2,-9 2,-3 4,-5 7,-7 3,-1 8,-2 13,-3 8,-2 13,-3 16,-4l0 -2c0,-3 -1,-5 -2,-7 -2,-1 -5,-2 -9,-2 -3,0 -5,1 -7,2 -2,1 -3,3 -4,6zm22 13c-2,1 -6,2 -10,3 -4,0 -7,1 -9,2 -2,2 -3,4 -3,6 0,2 1,4 3,6 1,2 3,2 6,2 3,0 6,-1 8,-2 2,-2 4,-4 4,-6 1,-1 1,-4 1,-8l0 -3zm28 12l17 -2c0,3 2,5 4,7 2,1 5,2 9,2 4,0 7,-1 9,-2 1,-1 2,-3 2,-4 0,-2 0,-3 -1,-4 -1,0 -3,-1 -5,-2 -13,-3 -22,-5 -25,-8 -5,-3 -8,-7 -8,-13 0,-6 3,-10 7,-14 4,-3 10,-5 19,-5 9,0 15,1 19,4 4,3 7,7 8,12l-15 3c-1,-2 -2,-4 -4,-6 -1,-1 -4,-2 -7,-2 -5,0 -8,1 -10,2 -1,1 -2,2 -2,4 0,1 1,2 2,2 2,2 7,3 15,5 9,2 15,4 18,7 4,3 5,7 5,12 0,6 -2,11 -7,15 -4,4 -11,6 -20,6 -9,0 -15,-2 -20,-5 -5,-4 -8,-8 -10,-14zm135 -2l17 3c-2,6 -6,10 -10,13 -5,3 -10,5 -17,5 -11,0 -18,-4 -24,-11 -4,-5 -6,-12 -6,-21 0,-10 3,-18 8,-24 6,-5 12,-8 20,-8 9,0 17,3 22,9 5,6 8,15 7,27l-40 0c0,5 1,9 4,12 2,2 5,4 9,4 3,0 5,-1 7,-2 1,-2 3,-4 3,-7zm1 -16c0,-5 -1,-9 -3,-11 -3,-3 -5,-4 -9,-4 -3,0 -6,1 -8,4 -3,3 -4,6 -4,11l24 0zm-717 167l0 -84 62 0 0 14 -45 0 0 19 42 0 0 14 -42 0 0 23 47 0 0 14 -64 0zm137 0l-15 0 0 -9c-3,3 -6,6 -9,8 -3,2 -7,3 -10,3 -7,0 -13,-3 -18,-9 -5,-6 -8,-14 -8,-24 0,-10 3,-18 7,-23 5,-6 12,-9 19,-9 7,0 13,3 18,9l0 -30 16 0 0 84zm-43 -32c0,7 1,11 2,14 3,5 7,7 11,7 4,0 7,-2 10,-5 2,-3 4,-8 4,-14 0,-7 -1,-12 -4,-15 -3,-4 -6,-5 -10,-5 -4,0 -7,1 -9,4 -3,4 -4,8 -4,14zm95 32l0 -9c-2,3 -5,6 -9,8 -3,2 -7,3 -11,3 -4,0 -8,-1 -11,-3 -3,-2 -6,-5 -7,-8 -2,-3 -2,-8 -2,-13l0 -39 16 0 0 28c0,9 0,14 1,16 0,2 1,3 3,4 1,2 3,2 6,2 3,0 5,-1 7,-2 2,-2 4,-4 5,-6 1,-2 1,-8 1,-16l0 -26 16 0 0 61 -15 0zm81 -43l-16 3c-1,-3 -2,-6 -4,-7 -2,-2 -4,-3 -7,-3 -4,0 -7,2 -10,4 -2,3 -3,8 -3,14 0,8 1,13 3,16 3,3 6,4 10,4 3,0 6,-1 8,-2 2,-2 3,-5 4,-9l16 2c-2,8 -5,13 -10,17 -4,4 -11,6 -19,6 -8,0 -16,-3 -21,-9 -5,-6 -8,-13 -8,-23 0,-11 3,-18 8,-24 5,-6 13,-9 22,-9 7,0 13,2 17,5 5,4 8,8 10,15zm20 1l-15 -3c2,-6 5,-10 9,-13 4,-3 10,-5 18,-5 7,0 12,1 16,3 3,2 6,4 7,7 2,2 3,7 3,14l-1 19c0,5 1,9 1,12 1,2 2,5 3,8l-16 0c0,-1 -1,-3 -2,-5 0,-1 0,-1 0,-2 -3,3 -6,5 -9,6 -3,2 -6,3 -10,3 -6,0 -11,-2 -15,-6 -3,-3 -5,-7 -5,-13 0,-3 1,-6 2,-9 2,-2 4,-5 7,-6 3,-1 7,-3 13,-4 8,-1 13,-3 16,-4l0 -1c0,-4 -1,-6 -3,-7 -1,-1 -4,-2 -8,-2 -3,0 -5,0 -7,2 -2,1 -3,3 -4,6zm22 13c-2,0 -6,1 -10,2 -5,1 -8,2 -9,3 -2,2 -3,3 -3,6 0,2 1,4 2,6 2,1 4,2 7,2 3,0 6,-1 8,-3 2,-1 3,-3 4,-5 0,-2 1,-4 1,-8l0 -3zm87 -14l-16 3c0,-3 -2,-6 -3,-7 -2,-2 -5,-3 -8,-3 -4,0 -7,2 -9,4 -3,3 -4,8 -4,14 0,8 1,13 4,16 2,3 5,4 9,4 3,0 6,-1 8,-2 2,-2 3,-5 4,-9l16 2c-2,8 -5,13 -10,17 -4,4 -10,6 -18,6 -9,0 -16,-3 -22,-9 -5,-6 -8,-13 -8,-23 0,-11 3,-18 8,-24 6,-6 13,-9 22,-9 7,0 13,2 18,5 4,4 7,8 9,15zm-45 65l0 -6c4,0 8,0 11,0 4,0 6,0 8,-1 1,-1 2,-3 2,-4 0,-1 -1,-3 -2,-3 -1,-1 -3,-2 -6,-2 -2,0 -5,0 -7,1l1 -5c3,-2 6,-2 10,-2 5,0 8,1 11,3 2,2 4,5 4,8 0,3 -2,6 -5,8 -3,3 -9,4 -16,4 -5,0 -8,0 -11,-1zm65 -64l-14 -3c1,-6 4,-10 8,-13 4,-3 10,-5 18,-5 7,0 13,1 16,3 4,2 6,4 8,7 1,2 2,7 2,14l0 19c0,5 0,9 0,12 1,2 2,5 3,8l-16 0c0,-1 -1,-3 -1,-5 -1,-1 -1,-1 -1,-2 -3,3 -6,5 -9,6 -3,2 -6,3 -10,3 -6,0 -11,-2 -15,-6 -3,-3 -5,-7 -5,-13 0,-3 1,-6 2,-9 2,-2 4,-5 7,-6 3,-1 8,-3 13,-4 8,-1 13,-3 16,-4l0 -1c0,-4 -1,-6 -2,-7 -2,-1 -5,-2 -9,-2 -3,0 -5,0 -7,2 -2,1 -3,3 -4,6zm22 13c-2,0 -5,1 -10,2 -4,1 -7,2 -9,3 -2,2 -3,3 -3,6 0,2 1,4 3,6 1,1 3,2 6,2 3,0 6,-1 8,-3 2,-1 4,-3 4,-5 1,-2 1,-4 1,-8l0 -3zm-21 -40l-8 0c0,-1 0,-2 0,-2 0,-4 1,-7 3,-9 2,-3 5,-4 8,-4 1,0 2,1 4,1 1,0 3,1 6,2 3,2 5,2 7,2 1,0 2,0 3,-1 1,-1 1,-2 2,-4l7 0c0,6 -1,9 -3,12 -2,2 -4,3 -7,3 -1,0 -3,0 -4,-1 -1,0 -3,-1 -7,-2 -3,-1 -6,-2 -7,-2 -1,0 -2,0 -3,1 -1,1 -1,2 -1,4zm51 38c0,-6 2,-11 4,-16 3,-5 7,-9 12,-12 4,-2 10,-4 16,-4 9,0 17,4 23,10 5,6 8,13 8,22 0,10 -3,17 -9,23 -6,6 -13,10 -22,10 -6,0 -11,-2 -16,-4 -5,-3 -9,-7 -12,-11 -2,-5 -4,-11 -4,-18zm17 1c0,6 1,10 4,13 3,4 7,5 11,5 4,0 8,-1 10,-5 3,-3 5,-7 5,-14 0,-6 -2,-10 -5,-13 -2,-4 -6,-5 -10,-5 -4,0 -8,1 -11,5 -3,3 -4,7 -4,14z"/>
   <path class="fil1" d="M78 1643l13 -2c1,5 3,8 5,10 3,2 6,3 10,3 4,0 7,-1 9,-3 3,-2 4,-4 4,-6 0,-2 -1,-3 -2,-4 -1,-1 -2,-2 -5,-3 -1,0 -5,-1 -10,-3 -7,-2 -12,-4 -15,-6 -4,-4 -6,-8 -6,-14 0,-3 1,-6 3,-9 2,-3 4,-5 8,-7 4,-1 8,-2 13,-2 8,0 14,2 18,6 5,3 7,8 7,14l-13 1c-1,-4 -2,-6 -4,-8 -2,-1 -5,-2 -8,-2 -4,0 -7,1 -9,2 -2,1 -2,3 -2,5 0,1 0,2 2,4 1,1 5,2 12,4 6,1 11,3 14,5 3,1 6,4 7,6 2,3 3,7 3,11 0,4 -1,7 -3,10 -2,4 -5,6 -9,8 -4,1 -9,2 -14,2 -9,0 -15,-2 -20,-6 -4,-3 -7,-9 -8,-16zm99 21l0 -7c-2,2 -5,4 -7,6 -3,1 -6,2 -9,2 -4,0 -6,0 -9,-2 -3,-1 -4,-3 -5,-6 -2,-2 -2,-6 -2,-10l0 -31 12 0 0 22c0,7 1,11 1,13 1,1 1,2 3,3 1,1 2,2 4,2 2,0 4,-1 6,-2 2,-1 3,-3 4,-5 0,-1 1,-6 1,-13l0 -20 12 0 0 48 -11 0zm16 -13l13 -2c1,2 2,4 3,5 2,2 4,2 7,2 4,0 6,0 8,-2 1,-1 1,-2 1,-3 0,-1 0,-2 -1,-2 0,-1 -2,-2 -4,-2 -10,-2 -16,-4 -19,-6 -4,-3 -6,-6 -6,-11 0,-4 2,-8 5,-10 3,-3 8,-5 15,-5 7,0 12,1 15,4 3,2 5,5 6,9l-12 2c0,-2 -1,-3 -2,-4 -2,-1 -4,-2 -7,-2 -3,0 -5,1 -7,2 -1,0 -1,1 -1,2 0,1 0,2 1,3 1,1 5,2 12,3 7,2 11,4 14,6 3,2 4,5 4,9 0,5 -2,8 -5,12 -4,3 -10,4 -17,4 -6,0 -11,-1 -15,-4 -4,-2 -6,-6 -8,-10zm62 -20l-11 -2c1,-5 3,-8 6,-10 3,-3 8,-4 14,-4 6,0 10,1 13,2 3,2 5,3 6,5 1,2 1,6 1,12l0 14c0,5 0,8 1,10 0,2 1,4 2,6l-12 0c-1,-1 -1,-2 -2,-4 0,0 0,-1 0,-1 -2,2 -5,4 -7,5 -2,1 -5,1 -8,1 -5,0 -9,-1 -11,-4 -3,-2 -5,-6 -5,-10 0,-3 1,-5 2,-7 2,-2 3,-4 6,-5 2,-1 5,-2 10,-3 6,-1 10,-2 12,-3l0 -1c0,-3 -1,-4 -2,-5 -1,-2 -3,-2 -7,-2 -2,0 -4,0 -5,1 -1,1 -2,3 -3,5zm17 10c-2,1 -4,1 -8,2 -3,1 -5,2 -7,2 -1,2 -2,3 -2,5 0,2 1,3 2,4 1,2 3,2 5,2 2,0 4,0 7,-2 1,-1 2,-2 3,-4 0,-1 0,-3 0,-6l0 -3zm70 23l-13 0 0 -24c0,-5 0,-9 0,-10 -1,-2 -2,-3 -3,-4 -1,-1 -3,-1 -4,-1 -3,0 -5,1 -6,2 -2,1 -3,3 -4,5 -1,1 -1,5 -1,10l0 22 -13 0 0 -48 12 0 0 7c4,-5 10,-8 16,-8 3,0 5,1 8,2 2,1 4,2 5,4 1,1 2,3 2,5 1,2 1,5 1,8l0 30zm19 -33l-11 -2c1,-5 3,-8 6,-10 3,-3 8,-4 14,-4 6,0 10,1 13,2 3,2 5,3 6,5 1,2 1,6 1,12l0 14c0,5 0,8 1,10 0,2 1,4 2,6l-13 0c0,-1 0,-2 -1,-4 0,0 0,-1 0,-1 -2,2 -5,4 -7,5 -3,1 -5,1 -8,1 -5,0 -9,-1 -11,-4 -3,-2 -5,-6 -5,-10 0,-3 1,-5 2,-7 2,-2 3,-4 6,-5 2,-1 5,-2 10,-3 6,-1 10,-2 12,-3l0 -1c0,-3 -1,-4 -2,-5 -1,-2 -3,-2 -7,-2 -2,0 -4,0 -5,1 -1,1 -2,3 -3,5zm17 10c-2,1 -4,1 -8,2 -3,1 -6,2 -7,2 -1,2 -2,3 -2,5 0,2 1,3 2,4 1,2 3,2 5,2 2,0 4,0 6,-2 2,-1 3,-2 3,-4 1,-1 1,-3 1,-6l0 -3zm52 23l0 -66 14 0 0 26 25 0 0 -26 14 0 0 66 -14 0 0 -29 -25 0 0 29 -14 0zm96 -15l12 2c-1,5 -4,8 -7,11 -4,2 -8,3 -13,3 -9,0 -15,-2 -19,-8 -3,-4 -4,-10 -4,-16 0,-8 2,-14 6,-19 4,-4 9,-7 15,-7 8,0 13,3 17,7 4,5 6,12 6,22l-31 0c0,4 1,7 3,9 2,2 4,3 7,3 2,0 4,-1 5,-2 1,-1 2,-3 3,-5zm1 -13c0,-3 -1,-6 -3,-8 -2,-2 -4,-3 -7,-3 -2,0 -5,1 -7,3 -1,2 -2,5 -2,8l19 0zm68 28l-13 0 0 -24c0,-5 0,-9 -1,-10 0,-2 -1,-3 -2,-4 -2,-1 -3,-1 -5,-1 -2,0 -4,1 -6,2 -2,1 -3,3 -3,5 -1,1 -1,5 -1,10l0 22 -13 0 0 -48 12 0 0 7c4,-5 9,-8 16,-8 2,0 5,1 7,2 3,1 4,2 5,4 2,1 2,3 3,5 0,2 1,5 1,8l0 30zm21 0l-12 0 0 -48 11 0 0 7c2,-3 4,-5 6,-6 1,-1 3,-2 5,-2 3,0 6,1 9,3l-4 11c-2,-2 -4,-2 -6,-2 -2,0 -4,0 -5,1 -1,1 -2,3 -3,5 0,3 -1,8 -1,16l0 15zm21 -54l0 -12 12 0 0 12 -12 0zm0 54l0 -48 12 0 0 48 -12 0zm53 18l0 -24c-2,2 -4,4 -6,5 -3,2 -5,2 -8,2 -5,0 -10,-2 -13,-6 -5,-5 -7,-11 -7,-19 0,-8 2,-14 6,-18 4,-5 9,-7 15,-7 3,0 6,1 8,2 2,2 4,4 6,6l0 -7 12 0 0 66 -13 0zm0 -42c0,-5 -1,-9 -3,-11 -2,-3 -4,-4 -7,-4 -3,0 -6,1 -8,4 -2,2 -3,6 -3,11 0,6 1,9 3,12 2,2 5,3 8,3 2,0 5,-1 7,-4 2,-2 3,-6 3,-11zm53 24l0 -7c-1,2 -4,4 -6,6 -3,1 -6,2 -9,2 -4,0 -7,0 -9,-2 -3,-1 -4,-3 -6,-6 -1,-2 -1,-6 -1,-10l0 -31 12 0 0 22c0,7 0,11 1,13 0,1 1,2 3,3 1,1 2,2 4,2 2,0 4,-1 6,-2 2,-1 3,-3 4,-5 0,-1 0,-6 0,-13l0 -20 13 0 0 48 -12 0zm49 -15l13 2c-2,5 -4,8 -8,11 -3,2 -8,3 -13,3 -8,0 -14,-2 -18,-8 -3,-4 -5,-10 -5,-16 0,-8 2,-14 6,-19 4,-4 10,-7 16,-7 7,0 13,3 17,7 4,5 6,12 6,22l-32 0c0,4 1,7 3,9 2,2 4,3 7,3 2,0 4,-1 5,-2 2,-1 3,-3 3,-5zm1 -13c0,-3 -1,-6 -3,-8 -1,-2 -4,-3 -6,-3 -3,0 -5,1 -7,3 -2,2 -3,5 -3,8l19 0zm20 15l13 -2c0,2 2,4 3,5 2,2 4,2 7,2 3,0 6,0 7,-2 2,-1 2,-2 2,-3 0,-1 0,-2 -1,-2 0,-1 -2,-2 -4,-2 -10,-2 -17,-4 -19,-6 -4,-3 -6,-6 -6,-11 0,-4 2,-8 5,-10 3,-3 8,-5 15,-5 7,0 11,1 15,4 3,2 5,5 6,9l-12 2c0,-2 -1,-3 -3,-4 -1,-1 -3,-2 -6,-2 -3,0 -5,1 -7,2 -1,0 -1,1 -1,2 0,1 0,2 1,3 1,1 5,2 12,3 6,2 11,4 14,6 3,2 4,5 4,9 0,5 -2,8 -6,12 -3,3 -9,4 -16,4 -6,0 -12,-1 -15,-4 -4,-2 -7,-6 -8,-10z"/>
   <path class="fil1" d="M1078 1223l-42 14 0 -9 31 -10 -31 -10 0 -9 42 15 0 9zm-16 -24c-2,0 -5,-1 -7,-2 -3,-2 -5,-4 -6,-6 -1,-2 -2,-5 -2,-8 0,-4 1,-8 4,-11 3,-3 7,-4 12,-4 4,0 8,1 11,4 3,3 4,7 4,11 0,3 0,5 -2,8 -1,2 -3,4 -5,6 -2,1 -5,2 -9,2zm1 -9c3,0 5,0 6,-2 2,-1 3,-3 3,-5 0,-2 -1,-4 -3,-5 -1,-2 -3,-2 -6,-2 -3,0 -6,0 -7,2 -2,1 -3,3 -3,5 0,2 1,4 3,5 1,2 4,2 7,2zm15 -27l-42 0 0 -8 42 0 0 8zm0 -34l-5 0c2,2 3,3 4,5 1,2 1,3 1,5 0,2 0,4 -1,6 -1,1 -2,3 -4,3 -1,1 -4,1 -6,1l-19 0 0 -7 13 0c5,0 7,-1 8,-1 1,0 2,-1 2,-2 1,0 1,-1 1,-2 0,-2 0,-3 -1,-4 -1,-1 -2,-2 -3,-2 -1,-1 -3,-1 -8,-1l-12 0 0 -8 30 0 0 7zm-30 -12l0 -8 4 0c-4,-2 -5,-5 -5,-9 0,-2 0,-4 1,-5 1,-2 2,-3 4,-4 -2,-1 -3,-2 -4,-4 -1,-1 -1,-3 -1,-5 0,-2 0,-4 1,-5 1,-2 2,-3 4,-4 1,0 4,-1 6,-1l20 0 0 8 -18 0c-3,0 -4,1 -5,1 -1,1 -2,2 -2,4 0,1 0,2 1,3 1,1 2,1 3,2 1,0 3,0 6,0l15 0 0 8 -17 0c-3,0 -5,1 -5,1 -1,0 -2,1 -2,1 -1,1 -1,2 -1,3 0,1 0,2 1,3 1,1 2,2 3,2 1,0 3,1 6,1l15 0 0 8 -30 0zm20 -68l1 -8c3,1 6,3 7,5 2,2 2,5 2,8 0,6 -1,9 -5,12 -3,2 -6,3 -10,3 -5,0 -9,-1 -12,-4 -3,-3 -4,-6 -4,-10 0,-4 1,-8 4,-10 3,-3 8,-4 14,-4l0 20c2,0 4,-1 5,-2 2,-1 2,-3 2,-5 0,-1 0,-2 -1,-3 0,-1 -1,-1 -3,-2zm-8 0c-2,0 -4,0 -5,2 -1,1 -2,2 -2,4 0,1 1,3 2,4 1,1 3,2 5,2l0 -12zm18 -50l0 7 -30 0c2,3 4,7 6,11l-8 0c0,-2 -2,-5 -3,-7 -2,-2 -5,-4 -7,-5l0 -6 42 0z"/>
   <path class="fil1" d="M89 1451l0 -66 49 0 0 11 -35 0 0 15 33 0 0 11 -33 0 0 18 36 0 0 11 -50 0zm107 0l-13 0 0 -24c0,-5 0,-9 -1,-10 0,-2 -1,-3 -2,-4 -2,-1 -3,-1 -5,-1 -2,0 -4,1 -6,2 -1,1 -3,3 -3,5 -1,2 -1,5 -1,11l0 21 -13 0 0 -48 12 0 0 7c4,-5 9,-8 16,-8 2,0 5,1 7,2 3,1 4,2 6,4 1,1 2,3 2,5 0,2 1,5 1,9l0 29zm9 -54l0 -12 13 0 0 12 -13 0zm0 54l0 -48 13 0 0 48 -13 0zm50 -15l13 2c-2,5 -4,8 -8,11 -3,2 -8,3 -13,3 -8,0 -14,-2 -18,-8 -4,-4 -5,-10 -5,-16 0,-8 2,-14 6,-19 4,-4 9,-7 16,-7 7,0 12,3 16,7 5,5 7,12 6,22l-31 0c0,4 1,7 3,9 2,2 4,3 7,3 2,0 4,-1 5,-2 1,-1 2,-3 3,-5zm1 -13c0,-3 -1,-6 -3,-8 -2,-2 -4,-3 -7,-3 -2,0 -5,1 -6,3 -2,2 -3,5 -3,8l19 0zm24 28l0 -66 13 0 0 66 -13 0zm92 0l-12 0 0 -7c-2,3 -4,5 -7,6 -2,2 -5,2 -8,2 -5,0 -10,-2 -14,-6 -4,-5 -6,-11 -6,-19 0,-8 2,-14 6,-18 4,-4 9,-7 15,-7 5,0 10,3 13,7l0 -24 13 0 0 66zm-34 -25c0,5 1,9 2,11 3,4 5,5 9,5 3,0 5,-1 7,-3 2,-3 3,-7 3,-11 0,-6 -1,-10 -3,-12 -2,-3 -4,-4 -7,-4 -3,0 -6,1 -8,4 -2,2 -3,6 -3,10zm40 1c0,-5 1,-9 3,-12 2,-4 5,-7 9,-9 4,-3 8,-4 13,-4 7,0 13,3 18,7 4,5 6,11 6,18 0,7 -2,13 -7,18 -4,5 -10,7 -17,7 -4,0 -9,-1 -13,-3 -4,-2 -7,-5 -9,-8 -2,-4 -3,-9 -3,-14zm13 0c0,5 1,9 4,11 2,3 5,4 8,4 3,0 6,-1 8,-4 2,-2 3,-6 3,-11 0,-4 -1,-8 -3,-11 -2,-2 -5,-3 -8,-3 -3,0 -6,1 -8,3 -3,3 -4,7 -4,11zm69 24l0 -66 48 0 0 11 -35 0 0 15 33 0 0 11 -33 0 0 18 37 0 0 11 -50 0zm58 -13l13 -2c1,2 2,4 3,5 2,2 4,2 7,2 3,0 6,0 8,-2 1,0 1,-2 1,-3 0,-1 0,-2 -1,-2 0,-1 -2,-2 -4,-2 -10,-2 -17,-4 -19,-6 -4,-3 -6,-6 -6,-11 0,-4 2,-8 5,-10 3,-3 8,-5 15,-5 7,0 12,1 15,4 3,2 5,5 6,9l-12 2c0,-2 -1,-3 -3,-4 -1,-1 -3,-1 -6,-1 -3,0 -5,0 -7,1 -1,1 -1,1 -1,2 0,1 0,2 1,3 1,1 5,2 12,3 7,2 11,4 14,6 3,2 4,5 4,9 0,5 -2,8 -6,12 -3,3 -9,4 -16,4 -6,0 -11,-1 -15,-4 -4,-2 -7,-6 -8,-10zm52 -35l12 0 0 7c2,-2 4,-4 6,-5 3,-2 6,-3 9,-3 5,0 10,3 14,7 4,4 6,10 6,18 0,8 -2,14 -6,19 -4,4 -9,6 -14,6 -3,0 -5,0 -7,-1 -3,-1 -5,-3 -7,-6l0 24 -13 0 0 -66zm13 24c0,5 1,9 3,11 2,3 5,4 8,4 2,0 5,-1 7,-3 2,-3 3,-6 3,-12 0,-5 -1,-9 -3,-11 -2,-2 -5,-4 -8,-4 -3,0 -5,2 -7,4 -2,2 -3,6 -3,11zm41 24l0 -48 12 0 0 48 -12 0zm-3 -54l7 -13 14 0 -13 13 -8 0zm42 54l-13 0 0 -48 12 0 0 7c2,-3 4,-5 5,-6 2,-1 4,-2 6,-2 3,0 6,1 8,3l-4 11c-2,-2 -4,-2 -6,-2 -1,0 -3,0 -4,1 -1,1 -2,3 -3,5 -1,3 -1,8 -1,16l0 15zm20 -54l0 -12 13 0 0 12 -13 0zm0 54l0 -48 13 0 0 48 -13 0zm44 -48l0 10 -8 0 0 20c0,4 0,6 0,7 0,0 1,1 1,1 1,1 1,1 2,1 1,0 3,-1 5,-1l1 9c-3,2 -6,2 -10,2 -2,0 -4,0 -6,-1 -1,-1 -3,-2 -4,-3 -1,-1 -1,-3 -1,-5 -1,-1 -1,-4 -1,-9l0 -21 -6 0 0 -10 6 0 0 -9 13 -7 0 16 8 0zm3 24c0,-5 1,-9 3,-12 2,-4 5,-7 9,-9 4,-3 8,-4 13,-4 7,0 13,3 17,7 5,5 7,11 7,18 0,7 -2,13 -7,18 -4,5 -10,7 -17,7 -5,0 -9,-1 -13,-3 -4,-2 -7,-5 -9,-8 -2,-4 -3,-9 -3,-14zm13 0c0,5 1,9 3,11 3,3 5,4 9,4 3,0 6,-1 8,-4 2,-2 3,-6 3,-11 0,-4 -1,-8 -3,-11 -2,-2 -5,-3 -8,-3 -4,0 -6,1 -9,3 -2,3 -3,7 -3,11zm65 3l13 -1c1,4 2,7 5,9 2,2 5,3 9,3 5,0 8,-1 10,-3 2,-1 3,-4 3,-6 0,-2 0,-3 -1,-4 -1,-1 -3,-2 -5,-3 -1,0 -5,-1 -10,-3 -8,-1 -13,-4 -15,-6 -4,-4 -6,-8 -6,-13 0,-4 1,-7 2,-10 2,-3 5,-5 9,-7 3,-1 7,-2 13,-2 8,0 14,2 18,6 4,3 6,8 7,14l-14 1c0,-4 -1,-6 -3,-8 -2,-1 -5,-2 -9,-2 -3,0 -6,1 -9,3 -1,1 -2,2 -2,4 0,1 1,3 2,4 2,1 6,3 12,4 7,2 12,3 15,5 3,1 5,4 7,6 2,3 3,7 3,11 0,4 -1,7 -4,11 -2,3 -5,5 -8,7 -4,2 -9,2 -15,2 -8,0 -14,-2 -19,-5 -4,-4 -7,-10 -8,-17zm76 -12l-11 -2c1,-5 3,-8 6,-10 3,-2 8,-4 14,-4 6,0 10,1 13,2 3,2 5,3 6,5 1,3 1,6 1,12l0 14c0,5 0,8 1,10 0,2 1,4 2,6l-13 0c0,-1 0,-2 -1,-4 0,0 0,-1 0,-1 -2,2 -5,4 -7,5 -3,1 -5,1 -8,1 -5,0 -9,-1 -11,-4 -3,-2 -5,-6 -5,-10 0,-2 1,-5 2,-7 2,-2 3,-4 6,-5 2,-1 5,-2 10,-3 6,-1 10,-2 12,-3l0 -1c0,-3 -1,-4 -2,-5 -1,-1 -3,-2 -7,-2 -2,0 -4,1 -5,1 -1,1 -2,3 -3,5zm17 10c-2,1 -4,2 -8,2 -3,1 -6,2 -7,2 -1,2 -2,3 -2,5 0,2 1,3 2,4 1,2 3,2 5,2 2,0 4,0 6,-2 2,-1 3,-2 3,-4 1,-1 1,-3 1,-6l0 -3zm70 23l-13 0 0 -24c0,-5 0,-9 0,-10 -1,-2 -2,-3 -3,-4 -1,-1 -3,-1 -5,-1 -2,0 -4,1 -5,2 -2,1 -3,3 -4,5 -1,2 -1,5 -1,11l0 21 -13 0 0 -48 12 0 0 7c4,-5 9,-8 16,-8 3,0 5,1 8,2 2,1 4,2 5,4 1,1 2,3 2,5 1,2 1,5 1,9l0 29zm31 -48l0 10 -8 0 0 20c0,4 0,6 0,7 0,0 0,1 1,1 1,1 1,1 2,1 1,0 3,-1 5,-1l1 9c-3,2 -6,2 -10,2 -2,0 -4,0 -6,-1 -2,-1 -3,-2 -4,-3 -1,-1 -1,-3 -2,-5 0,-1 0,-4 0,-9l0 -21 -6 0 0 -10 6 0 0 -9 13 -7 0 16 8 0zm3 24c0,-5 1,-9 3,-12 2,-4 5,-7 9,-9 4,-3 8,-4 12,-4 8,0 14,3 18,7 5,5 7,11 7,18 0,7 -2,13 -7,18 -5,5 -10,7 -17,7 -5,0 -9,-1 -13,-3 -4,-2 -7,-5 -9,-8 -2,-4 -3,-9 -3,-14zm13 0c0,5 1,9 3,11 3,3 5,4 9,4 3,0 6,-1 8,-4 2,-2 3,-6 3,-11 0,-4 -1,-8 -3,-11 -2,-2 -5,-3 -8,-3 -4,0 -6,1 -9,3 -2,3 -3,7 -3,11z"/>
   <path class="fil1" d="M140 1561l-13 0 -5 -14 -25 0 -5 14 -13 0 24 -61 13 0 24 61zm-22 -25l-9 -22 -8 22 17 0zm67 25l-11 0 0 -7c-2,3 -4,5 -7,6 -2,1 -5,2 -7,2 -5,0 -10,-2 -13,-6 -4,-5 -6,-10 -6,-18 0,-7 2,-13 6,-17 3,-4 8,-6 13,-6 5,0 9,2 13,7l0 -22 12 0 0 61zm-32 -23c0,4 1,8 2,10 2,3 5,4 8,4 3,0 5,-1 7,-3 2,-2 3,-6 3,-10 0,-5 -1,-9 -3,-11 -2,-3 -4,-4 -7,-4 -3,0 -5,1 -7,4 -2,2 -3,5 -3,10zm40 -28l0 -10 12 0 0 10 -12 0zm0 51l0 -45 12 0 0 45 -12 0zm21 0l0 -61 11 0 0 61 -11 0zm16 -13l12 -2c0,3 1,4 3,5 1,2 4,2 6,2 3,0 6,0 7,-1 1,-1 2,-2 2,-4 0,0 -1,-1 -1,-2 -1,0 -2,-1 -4,-1 -9,-2 -15,-4 -18,-6 -3,-2 -5,-6 -5,-10 0,-4 1,-7 4,-10 3,-2 8,-4 14,-4 6,0 11,1 14,3 3,2 5,5 6,9l-11 2c-1,-1 -1,-3 -3,-4 -1,-1 -3,-1 -5,-1 -4,0 -6,0 -7,1 -1,1 -1,2 -1,3 0,0 0,1 1,2 1,0 4,2 11,3 6,1 10,3 13,5 2,2 3,5 3,9 0,4 -1,7 -5,10 -3,3 -8,5 -15,5 -6,0 -10,-2 -14,-4 -3,-2 -6,-6 -7,-10zm46 -10c0,-4 1,-8 3,-11 2,-4 4,-7 8,-9 3,-2 7,-3 12,-3 6,0 12,3 16,7 4,4 6,10 6,16 0,7 -2,13 -6,17 -4,4 -10,7 -16,7 -4,0 -8,-1 -12,-3 -4,-2 -6,-5 -8,-8 -2,-4 -3,-8 -3,-13zm12 1c0,4 1,7 3,10 2,2 5,3 8,3 3,0 5,-1 7,-3 2,-3 3,-6 3,-11 0,-4 -1,-7 -3,-10 -2,-2 -4,-3 -7,-3 -3,0 -6,1 -8,3 -2,3 -3,6 -3,11zm80 22l-12 0 0 -23c0,-5 0,-8 0,-9 -1,-2 -2,-3 -3,-3 -1,-1 -2,-2 -4,-2 -2,0 -4,1 -6,2 -1,1 -2,3 -3,4 0,2 -1,6 -1,11l0 20 -11 0 0 -45 10 0 0 7c4,-5 9,-8 15,-8 3,0 5,1 7,2 2,1 4,2 5,3 1,2 2,3 2,5 1,2 1,5 1,8l0 28zm61 -23l0 -10 26 0 0 24c-2,3 -6,5 -11,7 -5,2 -10,3 -15,3 -6,0 -12,-2 -16,-4 -5,-3 -9,-7 -11,-12 -2,-5 -4,-10 -4,-16 0,-6 2,-12 4,-17 3,-5 7,-9 12,-11 4,-3 9,-4 15,-4 7,0 13,2 17,5 5,3 7,8 9,13l-13 3c0,-3 -2,-6 -4,-7 -3,-2 -6,-3 -9,-3 -6,0 -10,2 -13,5 -3,4 -5,9 -5,15 0,8 2,13 5,17 3,3 7,5 13,5 2,0 5,0 7,-1 3,-1 5,-3 7,-4l0 -8 -14 0zm37 0c0,-4 1,-8 3,-11 2,-4 4,-7 8,-9 3,-2 7,-3 11,-3 7,0 13,3 17,7 4,4 6,10 6,16 0,7 -2,13 -6,17 -4,4 -10,7 -16,7 -4,0 -8,-1 -12,-3 -4,-2 -6,-5 -8,-8 -2,-4 -3,-8 -3,-13zm12 1c0,4 1,7 3,10 2,2 5,3 8,3 3,0 5,-1 7,-3 2,-3 3,-6 3,-11 0,-4 -1,-7 -3,-10 -2,-2 -4,-3 -7,-3 -3,0 -6,1 -8,3 -2,3 -3,6 -3,11zm39 -23l10 0 0 6c4,-4 9,-7 14,-7 3,0 5,1 8,2 2,1 3,3 5,5 2,-2 4,-4 6,-5 2,-1 5,-2 7,-2 3,0 6,1 8,2 3,2 4,4 5,6 1,2 2,5 2,9l0 29 -12 0 0 -26c0,-4 0,-7 -1,-8 -1,-2 -3,-3 -5,-3 -2,0 -3,1 -5,2 -1,1 -2,2 -3,4 -1,2 -1,5 -1,9l0 22 -12 0 0 -25c0,-4 0,-7 0,-8 -1,-1 -1,-2 -2,-3 -1,0 -2,-1 -4,-1 -2,0 -3,1 -5,2 -1,1 -2,2 -3,4 0,2 -1,5 -1,9l0 22 -11 0 0 -45zm99 31l11 2c-1,4 -3,7 -7,9 -3,3 -7,4 -12,4 -7,0 -13,-3 -17,-8 -3,-4 -4,-9 -4,-15 0,-7 2,-13 6,-17 3,-4 8,-7 14,-7 7,0 12,3 16,7 3,4 5,11 5,20l-29 0c0,3 1,6 3,8 1,2 4,3 6,3 2,0 4,-1 5,-2 1,-1 2,-2 3,-4zm0 -12c0,-4 0,-6 -2,-8 -2,-2 -4,-3 -6,-3 -3,0 -5,1 -7,3 -1,2 -2,5 -2,8l17 0zm19 13l12 -2c0,3 1,4 3,5 1,2 4,2 6,2 3,0 6,0 7,-1 1,-1 2,-2 2,-4 0,0 -1,-1 -1,-2 -1,0 -2,-1 -4,-1 -9,-2 -15,-4 -18,-6 -3,-2 -5,-6 -5,-10 0,-4 1,-7 4,-10 3,-2 8,-4 14,-4 6,0 11,1 14,3 3,2 5,5 6,9l-11 2c-1,-1 -1,-3 -3,-4 -1,-1 -3,-1 -5,-1 -4,0 -6,0 -7,1 -1,1 -1,2 -1,3 0,0 0,1 1,2 1,0 4,2 11,3 6,1 10,3 13,5 2,2 3,5 3,9 0,4 -1,7 -5,10 -3,3 -8,5 -15,5 -6,0 -10,-2 -14,-4 -3,-2 -6,-6 -7,-10zm113 13l-11 0 0 -7c-2,3 -4,5 -6,6 -3,1 -5,2 -8,2 -5,0 -9,-2 -13,-6 -4,-5 -5,-10 -5,-18 0,-7 1,-13 5,-17 3,-4 8,-6 13,-6 5,0 10,2 13,7l0 -22 12 0 0 61zm-31 -23c0,4 0,8 2,10 2,3 4,4 8,4 2,0 4,-1 6,-3 2,-2 3,-6 3,-10 0,-5 -1,-9 -3,-11 -1,-3 -4,-4 -7,-4 -2,0 -5,1 -7,4 -1,2 -2,5 -2,10zm37 0c0,-4 1,-8 3,-11 1,-4 4,-7 8,-9 3,-2 7,-3 11,-3 7,0 13,3 17,7 4,4 6,10 6,16 0,7 -2,13 -6,17 -5,4 -10,7 -16,7 -5,0 -8,-1 -12,-3 -4,-2 -7,-5 -8,-8 -2,-4 -3,-8 -3,-13zm12 1c0,4 1,7 3,10 2,2 4,3 7,3 4,0 6,-1 8,-3 2,-3 3,-6 3,-11 0,-4 -1,-7 -3,-10 -2,-2 -4,-3 -8,-3 -3,0 -5,1 -7,3 -2,3 -3,6 -3,11zm35 9l12 -2c1,3 2,4 3,5 2,2 4,2 7,2 3,0 5,0 6,-1 1,-1 2,-2 2,-4 0,0 0,-1 -1,-2 -1,0 -2,-1 -4,-1 -9,-2 -15,-4 -18,-6 -3,-2 -5,-6 -5,-10 0,-4 1,-7 4,-10 4,-2 8,-4 15,-4 6,0 10,1 13,3 3,2 5,5 6,9l-11 2c0,-1 -1,-3 -3,-4 -1,-1 -3,-1 -5,-1 -3,0 -6,0 -7,1 -1,1 -1,2 -1,3 0,0 0,1 1,2 1,0 5,2 11,3 6,1 10,3 13,5 2,2 4,5 4,9 0,4 -2,7 -5,10 -4,3 -9,5 -15,5 -7,0 -11,-2 -15,-4 -3,-2 -6,-6 -7,-10zm69 -7l12 -1c1,4 3,7 5,8 2,2 5,3 9,3 4,0 7,-1 9,-2 2,-2 3,-4 3,-6 0,-2 -1,-3 -2,-4 -1,-1 -2,-2 -4,-2 -2,-1 -5,-2 -10,-3 -7,-2 -11,-4 -14,-6 -4,-4 -5,-8 -5,-12 0,-4 0,-6 2,-9 2,-3 5,-5 8,-6 3,-2 7,-3 12,-3 7,0 13,2 17,6 4,3 6,7 6,13l-12 1c-1,-4 -2,-6 -4,-7 -1,-2 -4,-2 -7,-2 -4,0 -7,0 -9,2 -1,1 -2,2 -2,4 0,1 1,2 2,3 2,2 6,3 11,5 6,1 11,2 14,4 3,1 5,3 6,6 2,3 3,6 3,10 0,3 -1,7 -3,10 -2,3 -5,5 -8,6 -4,2 -8,3 -14,3 -7,0 -13,-2 -17,-6 -4,-3 -7,-8 -8,-15zm71 -11l-11 -2c1,-4 3,-7 6,-9 3,-3 8,-4 13,-4 5,0 9,1 12,2 2,2 4,3 5,5 1,2 2,5 2,10l0 14c0,4 0,7 0,9 1,2 1,3 2,6l-11 0c-1,-1 -1,-2 -1,-4 -1,-1 -1,-1 -1,-1 -2,2 -4,3 -6,4 -2,1 -5,2 -7,2 -5,0 -9,-2 -11,-4 -3,-2 -4,-6 -4,-9 0,-3 1,-5 2,-7 1,-2 3,-3 5,-5 2,-1 5,-1 9,-2 5,-1 9,-2 11,-3l0 -1c0,-3 0,-4 -1,-5 -1,-1 -4,-2 -7,-2 -2,0 -3,1 -4,2 -2,0 -3,2 -3,4zm15 9c-1,1 -3,2 -7,2 -3,1 -5,2 -6,2 -2,1 -2,3 -2,4 0,2 0,3 1,5 2,1 3,1 5,1 2,0 4,0 6,-2 2,-1 2,-2 3,-4 0,-1 0,-2 0,-5l0 -3zm65 22l-11 0 0 -23c0,-5 -1,-8 -1,-9 -1,-2 -1,-3 -3,-3 -1,-1 -2,-2 -4,-2 -2,0 -4,1 -5,2 -2,1 -3,3 -3,4 -1,2 -1,6 -1,11l0 20 -12 0 0 -45 11 0 0 7c4,-5 8,-8 14,-8 3,0 5,1 7,2 3,1 4,2 5,3 1,2 2,3 3,5 0,2 0,5 0,8l0 28zm29 -45l0 10 -8 0 0 18c0,3 0,5 1,6 0,1 0,1 1,1 0,1 1,1 2,1 1,0 2,0 4,-1l1 9c-2,1 -5,2 -9,2 -2,0 -4,-1 -6,-1 -1,-1 -3,-2 -3,-3 -1,-1 -2,-3 -2,-5 0,-1 0,-4 0,-8l0 -19 -6 0 0 -10 6 0 0 -8 11 -7 0 15 8 0zm3 22c0,-4 1,-8 3,-11 2,-4 4,-7 8,-9 3,-2 7,-3 12,-3 6,0 12,3 16,7 4,4 6,10 6,16 0,7 -2,13 -6,17 -4,4 -10,7 -16,7 -4,0 -8,-1 -12,-3 -4,-2 -6,-5 -8,-8 -2,-4 -3,-8 -3,-13zm12 1c0,4 1,7 3,10 2,2 5,3 8,3 3,0 5,-1 7,-3 2,-3 3,-6 3,-11 0,-4 -1,-7 -3,-10 -2,-2 -4,-3 -7,-3 -3,0 -6,1 -8,3 -2,3 -3,6 -3,11zm35 9l12 -2c1,3 2,4 3,5 2,2 4,2 7,2 3,0 5,0 7,-1 1,-1 1,-2 1,-4 0,0 0,-1 -1,-2 0,0 -2,-1 -4,-1 -9,-2 -15,-4 -18,-6 -3,-2 -5,-6 -5,-10 0,-4 2,-7 5,-10 3,-2 7,-4 14,-4 6,0 10,1 13,3 3,2 5,5 6,9l-11 2c0,-1 -1,-3 -2,-4 -2,-1 -4,-1 -6,-1 -3,0 -5,0 -7,1 -1,1 -1,2 -1,3 0,0 0,1 1,2 1,0 5,2 11,3 6,1 11,3 13,5 3,2 4,5 4,9 0,4 -2,7 -5,10 -4,3 -9,5 -15,5 -6,0 -11,-2 -15,-4 -3,-2 -5,-6 -7,-10z"/>
   <path class="fil1" d="M962 1193l0 18 -19 8 0 33 19 7 0 18 -84 -32 0 -18 84 -34zm-33 31l-32 12 32 11 0 -23zm33 -35l-84 0 0 -16 30 0c-5,-5 -8,-11 -8,-18 0,-8 2,-14 8,-19 5,-5 13,-7 23,-7 11,0 19,3 24,7 6,5 9,11 9,19 0,3 -1,7 -3,10 -2,3 -4,6 -8,9l9 0 0 15zm-32 -16c7,0 11,-1 14,-3 5,-3 7,-7 7,-11 0,-4 -2,-7 -5,-10 -3,-2 -8,-3 -14,-3 -7,0 -12,1 -15,3 -3,3 -5,6 -5,10 0,4 2,7 5,10 3,2 7,4 13,4zm13 -88l3 -16c5,2 10,5 13,9 3,5 5,10 5,17 0,11 -4,19 -11,24 -5,4 -12,6 -21,6 -10,0 -18,-3 -24,-8 -5,-5 -8,-12 -8,-20 0,-9 3,-16 9,-22 6,-5 15,-8 27,-7l0 40c5,0 9,-1 12,-4 2,-2 4,-5 4,-9 0,-3 -1,-5 -3,-6 -1,-2 -3,-3 -6,-4zm-17 -1c-4,0 -8,1 -10,3 -3,3 -4,5 -4,9 0,3 1,6 4,8 3,3 6,4 10,4l0 -24zm36 -47l0 16 -61 0 0 -15 9 0c-4,-3 -7,-5 -8,-7 -2,-2 -2,-4 -2,-7 0,-4 1,-7 3,-11l14 5c-2,3 -3,6 -3,8 0,2 1,4 2,6 1,1 4,2 7,3 3,1 10,2 20,2l19 0zm-61 -54l13 0 0 11 25 0c5,0 8,0 8,-1 1,0 2,0 2,-1 1,-1 1,-2 1,-3 0,-1 0,-4 -1,-6l12 -2c2,4 3,8 3,13 0,3 -1,6 -2,8 -1,2 -2,4 -4,5 -1,1 -3,2 -6,2 -2,1 -6,1 -11,1l-27 0 0 7 -13 0 0 -7 -12 0 -10 -16 22 0 0 -11zm19 -20l-3 15c-6,-2 -10,-4 -13,-9 -3,-4 -4,-10 -4,-17 0,-8 1,-13 2,-17 2,-3 4,-6 7,-7 2,-1 7,-2 14,-2l19 0c5,0 9,0 12,-1 3,0 5,-1 8,-3l0 16c-1,1 -2,1 -5,2 -1,0 -1,0 -1,1 2,2 4,5 6,8 1,4 2,7 2,10 0,7 -2,12 -5,15 -4,4 -8,6 -13,6 -4,0 -7,-1 -10,-3 -2,-1 -4,-4 -6,-7 -1,-3 -3,-7 -4,-13 -1,-7 -2,-12 -4,-15l-1 0c-3,0 -6,0 -7,2 -1,2 -2,4 -2,9 0,3 1,5 2,6 1,2 3,3 6,4zm13 -21c1,2 1,5 2,10 1,4 2,7 3,8 2,2 4,4 6,4 2,0 4,-1 6,-3 1,-2 2,-4 2,-6 0,-3 -1,-6 -3,-9 -1,-2 -3,-3 -5,-4 -1,0 -4,0 -8,0l-3 0zm10 -103l3 -16c5,2 10,6 13,10 3,5 5,10 5,17 0,10 -4,18 -11,23 -5,4 -12,6 -21,6 -10,0 -18,-2 -24,-7 -5,-6 -8,-12 -8,-21 0,-9 3,-16 9,-21 6,-5 15,-8 27,-8l0 41c5,0 9,-2 12,-4 2,-3 4,-6 4,-9 0,-3 -1,-5 -3,-7 -1,-1 -3,-3 -6,-4zm-17 -1c-4,1 -8,2 -10,4 -3,2 -4,5 -4,8 0,4 1,7 4,9 3,2 6,4 10,4l0 -25zm-48 -64l0 -31c0,-7 0,-12 1,-16 2,-5 4,-9 8,-13 4,-3 8,-6 14,-8 5,-2 12,-3 20,-3 7,0 13,1 18,3 6,2 11,5 15,9 3,3 5,7 6,12 2,4 2,9 2,15l0 32 -84 0zm14 -17l56 0 0 -13c0,-5 0,-8 -1,-10 -1,-3 -2,-5 -3,-7 -2,-2 -5,-3 -9,-4 -3,-2 -8,-2 -15,-2 -7,0 -12,0 -15,2 -4,1 -6,2 -8,4 -2,3 -3,5 -4,8 -1,3 -1,7 -1,14l0 8zm1 -70l-15 0 0 -17 15 0 0 17zm69 0l-61 0 0 -17 61 0 0 17zm4 -27l2 -19c2,0 4,-1 5,-2 1,-2 2,-4 2,-7 0,-5 -1,-8 -2,-10 -1,-1 -3,-2 -4,-3 -2,-1 -4,-1 -8,-1l-9 0c7,5 10,11 10,19 0,8 -3,14 -10,19 -6,4 -13,6 -21,6 -10,0 -18,-3 -23,-8 -6,-5 -8,-11 -8,-18 0,-8 3,-14 10,-19l-9 0 0 -15 55 0c7,0 12,1 16,2 4,1 6,3 8,5 2,2 4,5 5,8 1,4 2,9 2,14 0,10 -2,18 -5,22 -4,4 -8,7 -14,7 -1,0 -1,0 -2,0zm-36 -15c7,0 12,-1 15,-4 3,-2 4,-5 4,-9 0,-4 -1,-7 -5,-10 -3,-3 -7,-4 -13,-4 -7,0 -11,1 -14,4 -3,2 -5,6 -5,10 0,4 2,7 5,9 3,3 7,4 13,4zm-37 -55l-15 0 0 -16 15 0 0 16zm69 0l-61 0 0 -16 61 0 0 16zm-61 -56l13 0 0 11 25 0c5,0 8,0 8,-1 1,0 2,0 2,-1 1,-1 1,-2 1,-3 0,-1 0,-3 -1,-6l12 -2c2,4 3,8 3,13 0,3 -1,6 -2,8 -1,2 -2,4 -4,5 -1,1 -3,2 -6,2 -2,1 -6,1 -11,1l-27 0 0 7 -13 0 0 -7 -12 0 -10 -16 22 0 0 -11zm19 -20l-3 15c-6,-2 -10,-4 -13,-8 -3,-4 -4,-10 -4,-18 0,-8 1,-13 2,-17 2,-3 4,-6 7,-7 2,-1 7,-2 14,-2l19 0c5,0 9,0 12,-1 3,0 5,-1 8,-3l0 16c-1,1 -2,1 -5,2 -1,0 -1,0 -1,1 2,2 4,5 6,8 1,4 2,7 2,10 0,7 -2,12 -5,15 -4,4 -8,6 -13,6 -4,0 -7,-1 -10,-3 -2,-1 -4,-4 -6,-7 -1,-3 -3,-7 -4,-13 -1,-7 -2,-12 -4,-15l-1 0c-3,0 -6,1 -7,2 -1,2 -2,5 -2,9 0,3 1,5 2,7 1,1 3,2 6,3zm13 -21c1,2 1,5 2,10 1,4 2,7 3,8 2,3 4,4 6,4 2,0 4,-1 6,-3 1,-2 2,-4 2,-6 0,-3 -1,-6 -3,-9 -1,-2 -3,-3 -5,-4 -1,0 -4,0 -8,0l-3 0zm29 -34l-84 0 0 -17 84 0 0 17z"/>
   <g>
    <path class="fil1" d="M133 1262c0,-11 -9,-21 -21,-21 -11,0 -21,10 -21,21 0,12 10,21 21,21 12,0 21,-9 21,-21zm-21 11c-6,0 -10,-5 -10,-11 0,-6 4,-10 10,-10 6,0 11,4 11,10 0,6 -5,11 -11,11z"/>
    <path class="fil1" d="M81 1330l63 0c3,0 5,-2 5,-5l0 -5c0,-21 -16,-37 -37,-37 -20,0 -36,16 -36,37l0 5c0,3 2,5 5,5zm31 -36c15,0 26,11 26,26l-52 0c0,-15 12,-26 26,-26z"/>
    <path class="fil1" d="M312 1294c0,-3 -2,-6 -5,-6l-101 0c-2,0 -5,3 -5,6 0,2 3,5 5,5l101 0c3,0 5,-3 5,-5z"/>
    <path class="fil1" d="M307 1257l-101 0c-20,0 -36,16 -36,37 0,20 16,36 36,36l27 0c3,0 5,-2 5,-5 0,-3 -2,-5 -5,-5l-27 0c-14,0 -26,-12 -26,-26 0,-15 12,-27 26,-27l101 0c14,0 26,12 26,27 0,14 -12,26 -26,26l-27 0c-3,0 -5,2 -5,5 0,3 2,5 5,5l27 0c20,0 36,-16 36,-36 0,-21 -16,-37 -36,-37z"/>
    <path class="fil1" d="M262 1325c0,3 -3,5 -5,5 -3,0 -6,-2 -6,-5 0,-3 3,-5 6,-5 2,0 5,2 5,5z"/>
   </g>
   <path class="fil3" d="M368 1295c0,-9 2,-16 7,-21 5,-5 11,-8 19,-8 5,0 9,1 13,4 4,2 7,5 10,10 2,4 3,9 3,14 0,6 -1,11 -4,15 -2,4 -5,7 -9,10 -4,2 -8,3 -13,3 -5,0 -10,-1 -14,-4 -4,-2 -7,-6 -9,-10 -2,-4 -3,-8 -3,-13zm7 0c0,6 2,12 6,15 3,4 8,6 13,6 5,0 10,-2 13,-6 4,-4 5,-9 5,-16 0,-4 0,-8 -2,-11 -1,-4 -4,-6 -6,-8 -3,-2 -7,-3 -10,-3 -5,0 -9,2 -13,6 -4,3 -6,9 -6,17zm53 26l0 -39 6 0 0 6c1,-3 3,-5 4,-6 1,0 3,-1 4,-1 3,0 5,1 7,2l-2 6c-2,-1 -3,-1 -5,-1 -1,0 -3,0 -4,1 -1,1 -2,2 -2,4 -1,2 -1,5 -1,8l0 20 -7 0zm24 3l6 1c1,2 1,4 3,5 1,1 3,1 6,1 3,0 6,0 7,-1 2,-2 3,-3 4,-6 0,-1 0,-4 0,-8 -3,3 -6,5 -11,5 -5,0 -9,-2 -12,-6 -3,-4 -4,-8 -4,-14 0,-3 0,-7 2,-10 1,-3 3,-6 5,-7 3,-2 6,-3 9,-3 5,0 9,2 12,6l0 -5 6 0 0 34c0,6 -1,10 -2,13 -1,2 -3,4 -6,6 -2,1 -6,2 -10,2 -4,0 -8,-1 -11,-3 -3,-2 -4,-5 -4,-10zm5 -23c0,5 1,9 3,11 2,2 5,4 8,4 3,0 6,-2 8,-4 2,-2 3,-6 3,-11 0,-5 -1,-8 -3,-11 -2,-2 -5,-3 -8,-3 -3,0 -6,1 -8,3 -2,3 -3,6 -3,11zm64 15c-3,2 -5,4 -7,5 -3,0 -5,1 -8,1 -4,0 -7,-1 -10,-3 -2,-2 -3,-5 -3,-8 0,-2 0,-4 1,-5 1,-2 2,-3 4,-4 1,-1 3,-2 4,-2 2,-1 4,-1 6,-1 6,-1 10,-2 12,-3 0,-1 0,-1 0,-1 0,-3 -1,-5 -2,-6 -1,-2 -4,-2 -7,-2 -3,0 -6,0 -7,1 -2,1 -3,3 -4,6l-6 -1c1,-3 1,-5 3,-7 1,-1 3,-3 6,-4 2,0 5,-1 9,-1 3,0 6,0 8,1 2,1 3,2 4,3 1,1 2,3 2,5 1,1 1,3 1,6l0 9c0,6 0,10 0,11 0,2 1,4 2,5l-7 0c-1,-1 -1,-3 -1,-5zm-1 -15c-2,1 -6,2 -11,3 -3,0 -4,1 -6,1 -1,1 -2,1 -2,2 -1,1 -1,2 -1,4 0,1 1,3 2,4 1,1 3,2 6,2 2,0 5,-1 7,-2 2,-1 3,-3 4,-5 1,-1 1,-3 1,-6l0 -3zm17 20l0 -39 6 0 0 5c3,-4 7,-6 12,-6 3,0 5,1 7,1 2,1 3,2 4,4 1,1 2,3 2,5 1,1 1,3 1,6l0 24 -7 0 0 -24c0,-2 0,-4 -1,-6 0,-1 -1,-2 -2,-3 -2,-1 -3,-1 -5,-1 -3,0 -5,1 -7,3 -2,1 -3,5 -3,10l0 21 -7 0zm42 -46l0 -8 7 0 0 8 -7 0zm0 46l0 -39 7 0 0 39 -7 0zm13 0l0 -5 25 -29c-3,0 -5,0 -7,0l-16 0 0 -5 32 0 0 4 -22 25 -4 5c3,-1 6,-1 9,-1l18 0 0 6 -35 0zm67 -5c-3,2 -5,4 -7,5 -2,0 -5,1 -8,1 -4,0 -7,-1 -9,-3 -3,-2 -4,-5 -4,-8 0,-2 1,-4 1,-5 1,-2 2,-3 4,-4 1,-1 3,-2 5,-2 1,-1 3,-1 6,-1 5,-1 9,-2 11,-3 0,-1 0,-1 0,-1 0,-3 0,-5 -1,-6 -2,-2 -5,-2 -8,-2 -3,0 -5,0 -7,1 -1,1 -3,3 -3,6l-7 -1c1,-3 2,-5 3,-7 2,-1 3,-3 6,-4 3,0 6,-1 9,-1 3,0 6,0 8,1 2,1 4,2 5,3 1,1 1,3 2,5 0,1 0,3 0,6l0 9c0,6 0,10 1,11 0,2 0,4 1,5l-7 0c0,-1 -1,-3 -1,-5zm-1 -15c-2,1 -6,2 -10,3 -3,0 -5,1 -6,1 -1,1 -2,1 -3,2 0,1 -1,2 -1,4 0,1 1,3 2,4 2,1 4,2 6,2 3,0 5,-1 7,-2 2,-1 3,-3 4,-5 1,-1 1,-3 1,-6l0 -3zm43 20l0 -5c-3,4 -7,6 -11,6 -3,0 -6,-1 -9,-3 -3,-1 -5,-4 -6,-7 -1,-3 -2,-6 -2,-10 0,-4 0,-8 2,-11 1,-3 3,-6 6,-7 2,-2 5,-3 8,-3 3,0 5,1 7,2 1,1 3,2 4,4l0 -20 7 0 0 54 -6 0zm-21 -19c0,5 1,8 3,11 2,2 4,3 7,3 3,0 6,-1 8,-3 2,-2 3,-6 3,-11 0,-5 -1,-9 -3,-12 -2,-2 -5,-3 -8,-3 -3,0 -5,1 -7,3 -2,3 -3,6 -3,12zm35 0c0,-8 2,-13 6,-17 3,-2 7,-4 12,-4 5,0 10,2 13,5 4,4 5,9 5,15 0,5 0,9 -2,12 -1,3 -4,5 -6,7 -3,1 -6,2 -10,2 -5,0 -10,-2 -13,-5 -4,-4 -5,-9 -5,-15zm7 0c0,5 1,8 3,11 2,2 5,3 8,3 3,0 6,-1 8,-3 3,-3 4,-7 4,-12 0,-5 -2,-8 -4,-11 -2,-2 -5,-3 -8,-3 -3,0 -6,1 -8,3 -2,3 -3,7 -3,12zm37 19l0 -39 6 0 0 6c2,-3 3,-5 4,-6 2,0 3,-1 5,-1 2,0 4,1 6,2l-2 6c-2,-1 -3,-1 -5,-1 -1,0 -3,0 -4,1 -1,1 -2,2 -2,4 -1,2 -1,5 -1,8l0 20 -7 0zm52 -13l7 1c-1,4 -3,7 -6,10 -3,2 -7,3 -11,3 -6,0 -11,-2 -14,-5 -3,-4 -5,-9 -5,-15 0,-7 2,-12 5,-15 4,-4 8,-6 13,-6 6,0 10,2 13,5 3,4 5,9 5,15 0,1 0,1 0,2l-29 0c0,4 1,8 4,10 2,2 4,3 8,3 2,0 4,0 6,-1 2,-2 3,-4 4,-7zm-22 -10l22 0c0,-4 -1,-6 -2,-8 -3,-2 -5,-3 -9,-3 -3,0 -5,1 -7,3 -2,2 -4,4 -4,8zm35 11l6 -1c0,3 2,5 3,6 2,2 4,2 7,2 3,0 6,0 7,-1 2,-2 2,-3 2,-5 0,-1 0,-2 -2,-3 -1,-1 -3,-2 -6,-3 -5,-1 -9,-2 -11,-3 -1,-1 -3,-2 -4,-3 -1,-2 -1,-4 -1,-6 0,-1 0,-3 1,-4 1,-2 2,-3 3,-4 1,-1 3,-2 4,-2 2,-1 4,-1 6,-1 3,0 6,1 8,1 2,1 4,3 5,4 1,2 2,4 3,6l-7 1c0,-2 -1,-4 -2,-5 -2,-1 -4,-1 -6,-1 -3,0 -6,0 -7,1 -1,1 -2,2 -2,4 0,0 0,1 1,2 0,1 1,1 2,2 1,0 3,0 6,1 5,2 8,3 10,3 2,1 3,2 4,4 2,1 2,3 2,6 0,2 -1,4 -2,6 -1,2 -3,3 -5,4 -3,1 -6,2 -9,2 -5,0 -9,-1 -11,-3 -3,-2 -5,-5 -5,-10z"/>
   <g>
    <path class="fil3" d="M697 788l-2 -4 77 -50c4,6 8,10 5,18 -1,4 -3,7 -7,10l-49 31c-8,6 -18,4 -24,-5zm-53 -82c-6,-9 -4,-18 5,-24l48 -32c8,-5 18,-3 22,4l4 6 -7 4c-2,2 0,6 3,4l7 -5 44 67 -78 51 -43 -67 61 -41c4,-2 1,-5 -2,-4l-62 41 -2 -4zm-5 0l56 87c6,8 19,10 26,5l53 -34c5,-3 7,-8 8,-12 1,-4 0,-10 -3,-15l-56 -85c-5,-9 -18,-12 -26,-6l-53 34c-4,3 -6,8 -7,12 -1,4 -1,10 2,14z"/>
    <path class="fil3" d="M725 747c0,-2 -1,-2 -2,-4l27 -17c3,-2 5,1 3,3l-28 18zm-10 -1c2,-1 5,-1 5,1 3,3 0,7 -4,7 -3,-1 -5,-6 -1,-8zm-5 7c1,2 1,2 2,3l-12 7c-5,4 -5,0 -4,-1 1,-3 10,-6 9,-9 -1,0 -2,-1 -3,-1l-9 6c-5,3 -1,12 5,11 2,0 13,-8 16,-10 2,-1 2,-1 4,-1 2,0 5,-2 6,-4 1,-1 1,-2 1,-2l29 -19c7,-5 3,-11 -1,-12 -3,0 -3,0 -6,2l-23 15c-4,3 -3,3 -7,3 -6,0 -11,7 -7,12z"/>
    <path class="fil3" d="M714 729c-16,10 -34,-6 -29,-22 0,0 0,-1 1,-1 5,-14 25,-16 33,-4 2,3 3,6 3,8 0,1 1,2 1,3 -1,6 -3,12 -9,16zm10 -28c-3,-4 -5,-6 -8,-8 -7,-4 -17,-5 -24,0 -8,4 -11,10 -12,18 -1,11 7,22 19,25 2,0 4,0 6,0 7,0 14,-4 18,-10 2,-4 3,-7 4,-12 0,-3 -1,-9 -3,-13z"/>
    <path class="fil3" d="M677 674l16 -10c4,-3 6,1 3,3l-18 12c-2,1 -6,-2 -1,-5zm-6 6c3,4 7,4 11,2l16 -11c9,-6 0,-16 -6,-12l-19 13c-3,1 -3,5 -2,8z"/>
    <path class="fil3" d="M703 720l-6 -9c-3,-5 2,-3 6,-3 9,0 8,0 5,9 -1,0 -1,1 -1,1 -1,2 -2,5 -4,2zm-10 -8l7 11c2,3 8,5 11,-2 0,-2 1,-3 1,-5 3,-5 3,-6 1,-10 -1,-1 -3,-2 -4,-2 -2,-1 -12,-1 -14,0l-1 1c-2,1 -3,5 -1,7z"/>
    <path class="fil3" d="M736 771l0 -1c-1,-2 -1,-4 1,-5 5,-3 10,3 5,7 -1,1 -5,1 -6,-1zm-4 2c2,2 3,3 6,4 11,2 15,-15 3,-17 -3,-1 -7,0 -9,3 -1,3 -2,7 0,10z"/>
    <path class="fil3" d="M661 685c1,-1 2,-1 3,0 1,1 1,2 0,3 -3,1 -5,-2 -3,-3zm-4 4c5,8 15,0 11,-6 -5,-8 -15,0 -11,6z"/>
   </g>
   <g>
    <path class="fil3" d="M282 992l0 -8 11 0c0,11 2,12 -6,12 -3,0 -5,-2 -5,-4zm-22 -132c18,0 33,17 33,35l0 82 -11 0 0 -48c0,-4 -2,-7 -3,-9 -7,-7 -17,-2 -21,-2 -8,0 -15,-2 -20,-8 -13,-18 -1,-36 -1,-39 0,0 -4,-7 -8,4 -6,15 -3,34 9,43 15,11 27,4 30,4 4,0 7,2 8,5 1,3 0,31 0,36 0,9 0,17 0,25 0,5 0,7 3,10 6,7 21,6 21,-9l0 -88c0,-7 -1,-14 -3,-19 -4,-15 -19,-28 -35,-28 -8,0 -14,2 -20,6 -6,4 -2,7 1,6 3,-1 7,-6 17,-6z"/>
    <path class="fil3" d="M332 991l0 -7 11 0c0,11 1,12 -6,12 -4,0 -5,-2 -5,-5zm-6 -98l0 100c0,11 24,14 24,-3 0,-4 0,-25 -1,-27 -2,-2 -6,-2 -6,2l0 12 -11 0 0 -79c0,-12 3,-20 9,-26 2,-3 6,-6 10,-8 20,-10 43,2 43,27 0,14 -9,27 -23,27 -9,0 -8,-2 -15,-2 -7,0 -13,7 -13,14l0 18c0,2 2,4 3,4 4,0 4,-3 4,-7 0,-3 0,-7 0,-10 0,-4 -1,-13 7,-13 3,0 13,5 25,-1 10,-5 16,-13 17,-25 2,-11 -1,-23 -9,-31 -11,-11 -27,-14 -41,-7 -13,7 -23,21 -23,35z"/>
    <path class="fil3" d="M278 825c0,2 2,3 3,3 3,0 10,-12 33,-12 6,0 14,1 19,4 5,3 10,8 12,8 2,0 3,-1 3,-4 0,-1 -5,-5 -7,-6 -5,-3 -11,-6 -17,-7 -16,-4 -31,0 -43,10 -2,1 -3,2 -3,4z"/>
    <path class="fil3 str1" d="M288 841c3,0 4,-3 10,-6 10,-6 24,-5 34,3 1,0 3,3 5,3 5,0 5,-6 -7,-12 -22,-11 -44,4 -44,9 0,1 1,3 2,3z"/>
    <path class="fil3" d="M295 850c0,3 1,3 4,3 1,0 2,-2 6,-4 6,-3 15,-2 19,2 1,1 2,2 4,2 3,0 6,-4 -4,-9 -7,-3 -16,-4 -23,0 -1,1 -6,4 -6,6z"/>
    <path class="fil3" d="M239 889c0,16 10,12 8,7 -5,-10 0,-10 0,-14 0,-3 -2,-3 -4,-3 -2,0 -4,7 -4,10z"/>
    <path class="fil4" d="M379 882c0,1 2,2 2,9 0,3 -2,3 -2,7 0,1 1,3 3,3 3,0 5,-7 5,-11 0,-3 -2,-11 -5,-11 -1,0 -3,0 -3,3z"/>
   </g>
   <path class="fil3" d="M735 942l-31 1 0 -83 31 0c8,0 16,3 22,7 7,5 14,15 16,25 2,8 1,17 -2,25 -4,9 -11,17 -20,21 -3,2 -10,4 -16,4zm-56 -38l-20 0c-4,0 -4,-6 0,-6l20 0c3,0 3,6 0,6zm-39 -6c0,-9 6,-20 12,-26 1,-1 1,-1 1,-1l4 -3c13,-10 25,-8 40,-8l0 38 -10 0c0,-3 -4,-6 -8,-6l-20 0c-4,0 -8,3 -9,6l-10 0zm19 13l20 0c4,0 8,-3 8,-6l11 0 0 38c-12,0 -23,1 -34,-4 -2,-1 -4,-2 -6,-4l-5 -4c-3,-3 -7,-7 -8,-11 -2,-3 -5,-10 -5,-15l10 0c1,3 5,6 9,6zm21 38l55 0c4,0 10,-1 14,-3 5,-2 8,-3 12,-6 2,-2 4,-4 6,-6 9,-8 13,-19 14,-31 0,-3 0,0 0,-5 -1,-3 0,-3 -2,-8 0,-3 -1,-6 -2,-8 -4,-9 -12,-17 -20,-22 -6,-4 -15,-7 -23,-7l-55 0c-7,0 -12,3 -18,5 -7,3 -15,11 -19,17 -4,4 -6,10 -7,16 -3,10 -1,20 3,30 2,5 6,10 9,14 9,8 20,14 33,14z"/>
   <g>
    <path class="fil3" d="M400 1199l10 0 0 22 -10 0 0 -22zm-7 -74l24 0c3,0 3,5 0,5l-24 0c-3,0 -3,-5 0,-5zm8 -7c0,-3 1,-2 7,-2 2,0 2,2 2,3l-9 0 0 -1zm-36 -48l5 0 0 20 -5 0 0 -20zm56 15c0,5 -1,9 -5,13 -7,6 -17,5 -22,-1 -1,0 -2,-1 -2,-2 -5,-7 -3,-16 4,-22 9,-7 25,0 25,12zm12 -16l2 0 0 5 -2 0c-4,0 -4,-5 0,-5zm-63 -6l0 2c-10,0 -9,1 -9,12l-22 0c-1,0 -2,1 -2,2l0 43c0,4 5,3 10,3l39 0c-1,6 2,10 9,10l0 86c0,2 2,5 4,5l12 0c2,0 4,-3 4,-5l0 -34c0,-3 -5,-2 -5,0l0 7 -10 0 0 -59 10 0 0 41c0,4 5,4 5,0l0 -41c3,0 5,0 7,-2 3,-2 5,-14 -7,-14l0 -2c0,-3 -4,-6 -7,-6l-6 0c-3,0 -6,3 -6,6l0 2 -54 0 0 -37 19 0c0,12 -1,12 9,12 0,4 1,8 5,9 4,0 13,-1 16,0 3,0 11,8 24,2 2,-1 2,-2 3,-2 6,-1 22,3 22,-6l0 -34c0,-3 -3,-6 -6,-6l-37 0c-2,0 -4,5 1,5l36 0c1,1 1,0 1,2 -3,0 -5,0 -7,1 -5,4 -3,14 4,14l3 0 0 17c0,1 -1,1 -1,2l-11 0c0,-2 6,-10 1,-21 -1,-2 -2,-4 -4,-6 -11,-10 -27,-7 -34,6 -5,11 1,18 2,21l-12 0c0,-1 -1,-1 -1,-2l0 -33c0,0 1,0 1,-1l11 0c3,-1 2,-5 0,-5l-11 0c-3,0 -6,3 -6,6z"/>
    <path class="fil3" d="M401 1086c0,-1 1,-4 4,-4 6,0 6,8 0,8 -2,0 -4,-2 -4,-4zm-5 -1c0,3 0,5 3,8 5,5 16,3 16,-8 0,-4 -5,-8 -9,-8l-2 0c-4,0 -8,4 -8,8z"/>
   </g>
   <g>
    <path class="fil3" d="M624 1157l68 0 0 6 -68 0 0 -6zm9 -44c6,0 0,2 13,0l0 14 18 0 0 24 -12 0 0 -12 -19 0 0 -26zm-12 -24c0,-15 19,-25 31,-13 12,12 4,31 -12,32 -11,0 -19,-8 -19,-19zm-65 -11c0,-2 1,-3 3,-4 1,-1 3,-2 5,-2 1,1 6,8 7,10 5,8 14,22 19,29 1,1 2,1 2,2 -3,1 -3,4 -8,4 -3,0 -3,-2 -5,-4 -4,-6 -9,-14 -13,-20 -2,-2 -10,-13 -10,-15zm58 11c0,8 3,10 4,14 -3,1 -5,3 -8,4 -8,5 -11,6 -16,-2 -2,-3 -4,-5 -6,-8l-18 -28c-1,-2 -2,-2 -2,-5 0,-5 4,-6 7,-8l57 -34c2,-1 3,-2 5,-2l33 51c-1,1 -3,2 -5,3 -1,1 -3,2 -4,3 -2,-5 -12,-13 -21,-13 -4,0 -8,1 -11,3 -8,4 -15,12 -15,22zm73 -28c-1,-4 -1,-2 -1,-9l15 0 -3 2c-2,1 -2,2 -4,3 -2,1 -4,2 -7,4zm-1 -27l12 0 0 12 -12 0 0 -12zm26 12l-7 0 0 -12 12 0c0,10 1,8 -2,10 -1,0 -2,2 -3,2zm-129 -2c-1,-2 -2,-3 -3,-5 2,0 8,-5 11,-6 0,2 2,3 2,5 -2,1 -3,2 -5,3 -1,1 -4,3 -5,3zm87 -10l10 0 0 15 -9 -14c-1,-1 -1,-1 -1,-1zm53 4l0 -4 6 0c-2,1 -4,3 -6,4zm-18 -23l11 0c1,0 1,0 1,1l0 11 -12 0 0 -12zm-19 0l12 0 0 12 -12 0 0 -12zm-19 0l12 0c1,0 1,0 1,1l0 11 -13 0 0 -12zm-52 10c-1,-1 -2,-3 -2,-4 2,-1 5,-4 7,-5 1,2 2,3 3,4 -2,1 -7,5 -8,5zm118 2l-10 0 0 -12 12 0c0,2 0,4 0,6l-2 6zm-91 -11l7 -4c0,2 7,11 8,13l8 13c2,3 3,4 4,7 2,2 3,4 5,6 0,1 1,2 2,3 1,2 6,9 6,10 -2,1 -5,3 -7,4 0,-2 -10,-16 -12,-20l-17 -25c0,-1 -1,-2 -2,-3l-1 -3c-1,0 -1,-1 -1,-1zm16 -1l3 0 0 5c0,0 0,0 0,0l-2 -2c0,-2 -1,-2 -1,-3zm-33 -3c3,-1 5,-3 8,-4 1,1 3,3 3,5 -2,0 -6,3 -8,4 0,-1 -2,-3 -3,-5zm98 -22c5,3 8,8 10,13 1,1 1,4 2,5l-12 0 0 -18zm-18 6l12 0 0 12 -12 0 0 -12zm-19 0l12 0 0 12 -12 0 0 -12zm-19 5c3,0 11,-6 13,-7l0 14 -13 0 0 -7zm-6 4l0 3 -5 0c1,0 1,-1 2,-1 1,-1 2,-1 3,-2zm44 -21c8,0 8,1 12,2l0 4 -12 0 0 -6zm-7 1l0 5 -11 0 8 -4c1,-1 2,-1 3,-1zm-57 24c-1,-4 -4,-7 -6,-10 -5,3 -11,6 -16,10l-15 10c0,2 1,3 2,5 2,1 3,3 3,5 -2,0 -8,5 -10,5 -1,-2 -6,-8 -6,-10 -2,1 -4,2 -5,3l-11 7c-2,1 -4,3 -6,3l6 10c-1,1 -2,1 -2,2 -1,0 -2,1 -3,1 -2,1 -4,2 -5,4 -3,2 -5,5 -5,11 -7,4 -13,5 -13,14 0,3 2,5 3,6 6,8 19,29 24,35 3,3 6,3 10,3 3,0 6,-2 8,-3 7,-5 3,-3 8,-3 7,0 13,-6 20,-10 2,2 3,3 5,3l0 35 19 0 0 6 -27 0c-1,0 -2,0 -2,1l0 18 82 0 0 -19 -29 0 0 -31 -18 0c0,-12 -1,-9 2,-11 6,-4 10,-11 10,-20 0,-2 0,-4 0,-7 10,-5 34,-20 44,-27 10,-6 14,-7 22,-14 6,-4 12,-16 12,-24l0 -5c0,-18 -17,-34 -35,-34 -9,0 -14,1 -21,5 -3,1 -5,3 -7,4 -3,2 -5,3 -8,5 -2,1 -5,3 -7,4 -3,2 -21,13 -23,13z"/>
    <path class="fil3" d="M633 1089c0,-8 13,-7 13,0 0,3 -3,6 -6,6 -2,0 -3,0 -5,-2 -1,-1 -2,-2 -2,-4zm-6 0c0,11 13,17 21,9 1,-1 2,-2 3,-3 4,-10 -3,-18 -12,-18 -6,0 -12,5 -12,12z"/>
    <path class="fil3" d="M619 1037c0,1 2,4 3,6 1,-1 4,-3 5,-3 0,-2 -2,-5 -3,-6 -2,1 -4,2 -5,3z"/>
    <path class="fil3" d="M629 1030c1,2 3,4 3,6 2,0 5,-2 6,-3 -1,-1 -3,-4 -3,-5 -2,0 -3,2 -6,2z"/>
    <path class="fil3" d="M608 1043c0,2 2,4 3,6l6 -3c-1,-2 -3,-5 -3,-6 -1,1 -2,1 -3,2 -1,0 -2,1 -3,1z"/>
   </g>
   <g>
    <path class="fil5 str2" d="M445 1086c9,5 19,7 30,8 73,2 187,-57 183,-152 -1,-41 -13,-85 -23,-124 -14,-58 -40,-99 -95,-117 -43,-14 -96,-24 -139,-4 -24,11 -44,34 -49,61 -4,23 3,46 7,69 16,77 6,221 86,259z"/>
    <g>
     <path class="fil4" d="M516 988c0,30 -2,19 16,27 -6,12 -43,13 -50,6 -3,0 -9,-3 -10,-6 8,-5 16,-1 17,-9 0,-8 0,-17 0,-25 5,0 17,1 27,0l0 7zm-58 -232l9 0c6,0 11,2 17,4 6,3 7,-7 23,-4 3,1 6,2 9,3 6,4 6,-3 22,-3l8 0c7,0 14,3 19,5 11,6 21,18 24,31 1,7 0,6 4,8 9,4 17,17 15,26 -1,6 2,3 10,14 2,3 3,5 5,8 2,4 7,15 0,17 -10,-1 1,-12 -22,-29 -2,-2 -3,-3 -2,-6 3,-23 -15,-22 -17,-26 -1,-2 -2,-10 -3,-13 -7,-22 -34,-34 -56,-22 -11,5 -7,-6 -23,-4 -7,1 -9,4 -11,5 -6,3 -19,-13 -42,-2 -12,5 -21,16 -23,29 -2,8 1,7 -7,10 -7,3 -14,11 -11,22 2,9 -7,6 -14,19 -5,8 -8,18 -5,29 2,10 7,16 12,22 4,-3 8,-16 31,-13l0 -14c0,0 0,0 0,0 0,0 -1,0 -1,-1l-3 -2c-15,-9 -5,-18 0,-11 6,8 20,10 26,5 4,-2 6,-5 8,-7 2,-4 2,-9 6,-10 4,0 10,9 23,4 10,-4 11,-15 18,-7 14,17 28,3 32,3 3,1 4,6 5,9 6,11 21,14 31,6 2,-2 5,-7 9,-5 7,2 0,11 -9,16l0 14c9,-2 18,0 25,6 2,2 3,4 5,6 3,-1 7,-7 9,-11 2,-3 3,-5 3,-8 1,-4 2,-6 6,-6 5,2 4,6 2,10 -1,4 -2,7 -4,10 -2,3 -3,5 -6,8l-6 7c-1,2 3,9 -5,21 -1,1 -2,2 -3,3 -6,6 -1,10 -3,17 -2,5 -10,10 -18,7 -3,-1 -5,-4 -6,-7 -2,-3 -1,-9 -2,-11 -3,0 -2,1 -3,3 -4,10 -9,15 -16,23 -7,6 -19,13 -29,15l0 10c7,3 15,6 18,13 1,3 1,5 1,9 6,2 12,6 16,10 2,1 3,2 5,4 3,3 5,5 8,9 3,4 11,13 6,16 -1,1 -1,1 -2,1l-147 0c-2,0 -3,-1 -4,-2 -2,-4 5,-12 8,-16 4,-5 7,-7 11,-5 1,4 1,6 -2,8 -2,2 -3,4 -5,6l36 0 94 0c-3,-7 -20,-21 -26,-23 -5,4 -5,6 -12,9 -24,12 -49,2 -52,2 -1,-2 -5,-3 -7,-5l-6 -6c-11,6 -8,7 -15,4 -1,-5 1,-6 4,-8 3,-2 5,-3 8,-4 0,-14 11,-18 19,-22l0 -10 -9 -3c-2,-1 -5,-2 -7,-3 -8,-4 -13,-9 -18,-15 -4,-4 -7,-9 -9,-14 -3,-6 -2,-6 -4,-6 -2,4 1,8 -4,14 -4,7 -17,7 -22,-3 -1,-3 -1,-10 -1,-15 -1,-1 -2,-1 -3,-2 -7,-9 -7,-13 -7,-25 -4,-1 -12,-12 -14,-16 -1,-3 -3,-7 -3,-10 -2,-5 -2,-7 -2,-14 0,-14 10,-32 20,-37 -2,-5 0,-15 4,-20 2,-4 3,-4 6,-7 2,-2 5,-4 8,-4 0,-6 3,-15 6,-19 8,-14 22,-23 37,-24zm66 243c3,0 4,1 6,3 2,1 2,2 4,4 -2,0 -8,-2 -10,-3l0 -4zm-53 7c1,-3 6,-6 9,-8l0 5c-2,1 -6,2 -9,3zm-56 -67c3,0 5,1 8,1 0,5 0,3 -1,7 -2,1 -3,1 -6,0 -1,-3 -1,-4 -1,-8zm166 5l0 -4c3,0 6,-1 9,-1 0,5 0,9 -4,9 -3,0 -5,-2 -5,-4zm-108 -85c2,0 5,1 8,1 9,0 14,-3 20,-7l1 -1c0,0 0,0 0,0 0,0 0,0 0,0 12,8 18,10 33,5 4,4 8,19 31,17 0,24 3,50 -8,69 -10,18 -27,28 -48,30 -26,1 -45,-3 -61,-25 -14,-19 -10,-46 -10,-73 5,-2 10,0 19,-5 5,-3 8,-7 11,-13l4 2zm102 37c5,-8 39,5 20,30 -5,-2 -8,-6 -14,-2 0,5 0,5 3,7 -4,1 -8,-1 -11,-2l2 -14c7,-5 16,1 17,-6 0,-8 -12,-5 -17,-4l0 -9zm-165 30c-2,-4 -5,-6 -6,-11 -1,-12 8,-21 20,-21 8,0 6,2 6,11 -4,-1 -9,-2 -14,-1 -5,2 -4,9 2,9 11,0 12,-2 13,16 -4,2 -6,2 -11,2 2,-1 3,-2 3,-5 0,-8 -13,0 -13,0z"/>
     <path class="fil6" d="M500 765c-1,3 -3,6 -4,10 -1,2 -2,11 -2,11 -1,2 -5,2 -10,5 -2,2 -5,5 -7,8 -4,7 -4,12 -3,22 -6,5 -11,8 -16,17 -2,4 -8,18 -6,24 0,1 -2,0 0,1 4,-2 6,-5 8,-7 2,-4 2,-9 6,-10 4,0 10,9 23,4 10,-4 11,-15 18,-7 14,17 28,3 32,3 3,1 4,6 5,9 6,11 21,14 31,6 2,-2 5,-7 9,-5 7,2 0,11 -9,16l0 14c9,-2 18,0 25,6 2,2 3,4 5,6 3,-1 7,-7 9,-11 2,-3 3,-5 3,-8 1,-4 2,-6 6,-6l0 -8c-10,-1 1,-12 -22,-29 -2,-2 -3,-3 -2,-6 3,-23 -15,-22 -17,-26 -1,-2 -2,-10 -3,-13 -7,-22 -34,-34 -56,-22 -11,5 -7,-6 -23,-4z"/>
     <g>
      <path class="fil7" d="M485 923c-1,-5 5,-7 8,-3 1,3 0,3 3,5 5,5 12,2 15,-3 5,-11 15,0 4,9 -14,11 -29,1 -30,-8zm54 -29c0,0 0,0 0,0l0 0zm-9 -24c11,-3 23,6 17,11 -3,3 -6,0 -8,-1 -8,-6 -11,4 -16,1 -3,-2 -3,-8 7,-11zm-57 -11c-2,1 -1,-1 -1,2 0,1 0,2 0,3 0,2 -1,3 0,6 5,1 12,3 12,8 0,3 -2,5 -6,4 -2,-1 -2,-3 -6,-4 0,5 -1,11 0,15 2,2 3,1 4,4 1,2 2,4 2,6 -1,5 -3,8 -6,10 -2,19 10,40 23,50 2,2 4,3 7,5 2,1 7,3 8,5 21,-2 38,-12 48,-30 11,-19 8,-45 8,-69 -23,2 -27,-13 -31,-17 -15,5 -21,3 -33,-5 0,0 0,0 0,0 0,0 0,0 0,0l-1 1c-6,4 -11,7 -20,7 -3,0 -6,-1 -8,-1z"/>
     </g>
     <path class="fil8" d="M452 863c-2,-1 0,0 0,-1 -2,-6 4,-20 6,-24 5,-9 10,-12 16,-17 -1,-10 -1,-15 3,-22 2,-3 5,-6 7,-8 5,-3 9,-3 10,-5 0,0 1,-9 2,-11 1,-4 3,-7 4,-10 -7,1 -9,4 -11,5 -6,3 -19,-13 -42,-2 -12,5 -21,16 -23,29 -2,8 1,7 -7,10 -7,3 -14,11 -11,22 2,9 -7,6 -14,19 -5,8 -8,18 -5,29 2,10 7,16 12,22 4,-3 8,-16 31,-13l0 -14c0,0 0,0 0,0 0,0 -1,0 -1,-1l-3 -2c-15,-9 -5,-18 0,-11 6,8 20,10 26,5z"/>
     <path class="fil9" d="M510 973c-1,-2 -6,-4 -8,-5 -3,-2 -5,-3 -7,-5 -13,-10 -25,-31 -23,-50 -4,1 -7,-1 -8,-4 -2,-5 0,-5 -4,-8 -2,-2 -6,-4 -3,-8 3,-3 6,0 9,1 2,-1 2,-2 6,-1 -1,-4 0,-10 0,-15 -6,0 -7,2 -9,3 -8,4 -10,-12 9,-11 -1,-3 0,-4 0,-6 0,-1 0,-2 0,-3 0,-3 -1,-1 1,-2l-4 -2c-3,6 -6,10 -11,13 -9,5 -14,3 -19,5 0,27 -4,54 10,73 16,22 35,26 61,25z"/>
     <path class="fil7" d="M477 1030c-1,1 -2,3 -2,5 -1,2 -2,5 -2,7l94 0c-3,-7 -20,-21 -26,-23 -5,4 -5,6 -12,9 -24,12 -49,2 -52,2z"/>
     <path class="fil7" d="M482 1021c7,7 44,6 50,-6 -18,-8 -16,3 -16,-27l-21 0 0 18c-4,3 -6,4 -8,7 -1,2 -6,6 -5,8z"/>
     <path class="fil9" d="M449 1023c-2,2 -3,3 -5,5 1,4 1,6 -2,8 -2,2 -3,4 -5,6l36 0c0,-2 1,-5 2,-7 0,-2 1,-4 2,-5 -1,-2 -5,-3 -7,-5l-6 -6c-11,6 -8,7 -15,4z"/>
     <path class="fil9" d="M575 896l0 9c5,-1 17,-4 17,4 -1,7 -10,1 -17,6l-2 14c3,1 7,3 11,2 -3,-2 -3,-2 -3,-7 6,-4 9,0 14,2 19,-25 -15,-38 -20,-30z"/>
     <path class="fil9" d="M410 926c0,0 13,-8 13,0 0,3 -1,4 -3,5 5,0 7,0 11,-2 -1,-18 -2,-16 -13,-16 -6,0 -7,-7 -2,-9 5,-1 10,0 14,1 0,-9 2,-11 -6,-11 -12,0 -21,9 -20,21 1,5 4,7 6,11z"/>
     <path class="fil9" d="M482 1021c-1,-2 4,-6 5,-8 2,-3 4,-4 8,-7l0 -18 21 0 0 -7c-10,1 -22,0 -27,0 0,8 0,17 0,25 -1,8 -9,4 -17,9 1,3 7,6 10,6z"/>
     <path class="fil4" d="M485 923c1,9 16,19 30,8 11,-9 1,-20 -4,-9 -3,5 -10,8 -15,3 -3,-2 -2,-2 -3,-5 -3,-4 -9,-2 -8,3z"/>
     <path class="fil4" d="M472 913c3,-2 5,-5 6,-10 0,-2 -1,-4 -2,-6 -1,-3 -2,-2 -4,-4 -4,-1 -4,0 -6,1 -3,-1 -6,-4 -9,-1 -3,4 1,6 3,8 4,3 2,3 4,8 1,3 4,5 8,4z"/>
     <path class="fil4" d="M472 878c4,1 4,3 6,4 4,1 6,-1 6,-4 0,-5 -7,-7 -12,-8 -19,-1 -17,15 -9,11 2,-1 3,-3 9,-3z"/>
     <path class="fil4" d="M530 870c-10,3 -10,9 -7,11 5,3 8,-7 16,-1 2,1 5,4 8,1 6,-5 -6,-14 -17,-11z"/>
     <path class="fil4" d="M539 894c0,0 0,0 0,0z"/>
     <path class="fil4" d="M526 913c-3,-2 -5,-5 -6,-10 0,-2 1,-4 2,-6 1,-3 2,-2 4,-4 4,-1 3,0 6,1 3,-1 6,-4 9,-1 3,4 -1,6 -3,8 -4,3 -2,3 -4,8 -1,3 -4,5 -8,4z"/>
    </g>
   </g>
  </g>
 </g>
</svg>
