<?xml version="1.0" encoding="UTF-8"?>
<!DOCTYPE svg PUBLIC "-//W3C//DTD SVG 1.1//EN" "http://www.w3.org/Graphics/SVG/1.1/DTD/svg11.dtd">
<!-- Creator: CorelDRAW X7 -->
<svg xmlns="http://www.w3.org/2000/svg" xml:space="preserve" width="9000px" height="9000px" version="1.1" style="shape-rendering:geometricPrecision; text-rendering:geometricPrecision; image-rendering:optimizeQuality; fill-rule:evenodd; clip-rule:evenodd"
viewBox="0 0 9000 9000"
 xmlns:xlink="http://www.w3.org/1999/xlink">
 <defs>
  <style type="text/css">
   <![CDATA[
    .fil0 {fill:#FEFEFE}
   ]]>
  </style>
 </defs>
 <g id="Camada_x0020_1">
  <metadata id="CorelCorpID_0Corel-Layer"/>
  <g id="_1793807620864">
   <path class="fil0" d="M3234 6602c379,228 812,348 1257,348 1349,0 2461,-1100 2461,-2451 0,-1349 -1110,-2451 -2461,-2451 -1346,0 -2441,1099 -2441,2451 0,451 120,888 348,1267l-350 1186 1186 -350zm-897 -2103c0,-1193 966,-2164 2154,-2164 1199,0 2174,971 2174,2164 0,1193 -975,2164 -2174,2164 -412,0 -813,-117 -1159,-338l-55 -35 -804 237 237 -804 -35 -55c-221,-346 -338,-750 -338,-1169l0 0zm0 0z"/>
   <path class="fil0" d="M3242 4047c47,250 188,729 598,1139 410,410 889,551 1138,598 286,55 705,63 909,-142l114 -114c58,-57 90,-134 90,-216 0,-81 -32,-158 -90,-215l-456 -456c-58,-58 -134,-90 -216,-90 -81,0 -158,32 -215,90l-114 114c-70,69 -201,70 -272,1l-455 -475c0,0 -1,-1 -2,-2 -70,-70 -70,-183 0,-253l114 -114c119,-119 119,-312 0,-431l-456 -456c-119,-119 -312,-119 -431,0l-114 114 0 0c-164,163 -218,511 -142,908l0 0zm345 -705c120,-117 113,-119 126,-119 5,0 9,1 13,5 481,483 461,455 461,468 0,5 -1,10 -5,13l-114 114c-182,182 -182,476 -1,658l455 475c1,0 2,1 2,2 182,181 497,182 679,0l114 -114c7,-7 18,-7 25,0 481,483 461,455 461,468 0,5 -1,10 -5,13l-114 114c-78,78 -327,125 -652,63 -217,-41 -633,-164 -989,-519 -356,-356 -478,-773 -519,-989 -62,-325 -15,-574 63,-652l0 0zm0 0z"/>
  </g>
 </g>
</svg>
